<svg xmlns="http://www.w3.org/2000/svg" xmlns:xlink="http://www.w3.org/1999/xlink" width="22.635" height="22.635" viewBox="0 0 22.635 22.635">
  <defs>
    <clipPath id="clip-path">
      <rect id="사각형_158" data-name="사각형 158" width="22.635" height="22.635" fill="rgba(0,0,0,0)"/>
    </clipPath>
  </defs>
  <g id="그룹_1632" data-name="그룹 1632" transform="translate(1 0)">
    <g id="그룹_1631" data-name="그룹 1631" transform="translate(-1 0)" clip-path="url(#clip-path)">
      <path id="패스_2706" data-name="패스 2706" d="M11.318,16.5a2.062,2.062,0,0,1-2.2-1.887,2.061,2.061,0,0,1,2.2-1.885,2.061,2.061,0,0,1,2.2,1.885,2.062,2.062,0,0,1-2.2,1.887M22.124,8.338,12.464.4a1.854,1.854,0,0,0-2.292,0L.512,8.338c-1.074.882-.347,2.434,1.146,2.434h.848v9.507A2.58,2.58,0,0,0,5.26,22.636H17.377a2.58,2.58,0,0,0,2.753-2.358V10.771h.848c1.493,0,2.22-1.552,1.146-2.434" transform="translate(0 0)" fill="#e53939" fill-rule="evenodd"/>
    </g>
  </g>
</svg>
