<svg xmlns="http://www.w3.org/2000/svg" width="35.518" height="32.63" viewBox="0 0 35.518 32.63">
  <g id="그룹_1318" data-name="그룹 1318" transform="translate(-87.104 -526.685)">
    <path id="패스_2557" data-name="패스 2557" d="M43.633,36.188c-9.808,0-17.759,6.285-17.759,14.039,0,5.047,3.369,9.47,8.425,11.944-.371,1.387-1.345,5.024-1.54,5.8-.24.966.354.953.744.693.305-.2,4.866-3.3,6.834-4.642a22.5,22.5,0,0,0,3.3.242c9.808,0,17.759-6.287,17.759-14.04S53.441,36.188,43.633,36.188" transform="translate(61.23 490.497)" fill="#391b1b"/>
    <path id="패스_2558" data-name="패스 2558" d="M54.945,86.4H49.751a.883.883,0,1,0,0,1.767H51.44v6.221a.864.864,0,0,0,.861.862h.189a.863.863,0,0,0,.86-.862V88.166h1.595a.883.883,0,1,0,0-1.767" transform="translate(42.771 450.19)" fill="#fae300"/>
    <path id="패스_2559" data-name="패스 2559" d="M125.319,93.081H122.9V86.727a.958.958,0,1,0-1.916,0v6.849a.93.93,0,0,0,.015.153.819.819,0,0,0-.015.153.8.8,0,0,0,.8.8h3.53a.8.8,0,0,0,0-1.6" transform="translate(-15.122 450.697)" fill="#fae300"/>
    <path id="패스_2560" data-name="패스 2560" d="M156.106,93.372l-2.691-3.534,2.431-2.433a.843.843,0,1,0-1.193-1.192l-3.01,3.01v-2.5a.958.958,0,1,0-1.916,0v7.059a.958.958,0,1,0,1.916,0V91.608l.547-.547,2.546,3.341a.857.857,0,0,0,1.37-1.03" transform="translate(-38.192 450.697)" fill="#fae300"/>
    <path id="패스_2561" data-name="패스 2561" d="M85.972,93.6l-2.588-7.08-.009-.008a1.272,1.272,0,0,0-1.213-.746,1.573,1.573,0,0,0-1.308,1.008L78.31,93.6a.858.858,0,1,0,1.62.569l.44-1.257h3.542l.44,1.257a.858.858,0,1,0,1.62-.569m-5.04-2.292,1.19-3.4c.013,0,.025,0,.038,0l1.189,3.393Z" transform="translate(19.176 450.697)" fill="#fae300"/>
  </g>
</svg>
