<svg xmlns="http://www.w3.org/2000/svg" width="40.492" height="38.447" viewBox="0 0 40.492 38.447">
  <g id="그룹_1619" data-name="그룹 1619" transform="translate(141.583 -374.874)">
    <path id="패스_2679" data-name="패스 2679" d="M-90.335,396.476a33.381,33.381,0,0,0,3.5-12.623,4.192,4.192,0,0,0-.126-1.7,1.555,1.555,0,0,0-1.22-1.081c-.883-.086-1.521.8-1.923,1.593a30.891,30.891,0,0,0-3.287,12.216,3.191,3.191,0,0,0,.21,1.631c.251.5.8.549,1.354.549Z" transform="translate(-26.179 -2.842)" fill="#f7d979" stroke="#626262" stroke-linecap="round" stroke-linejoin="round" stroke-width="1.5"/>
    <path id="패스_2680" data-name="패스 2680" d="M-78.195,392.757a33.373,33.373,0,0,0,3.5-12.623,4.2,4.2,0,0,0-.126-1.7,1.556,1.556,0,0,0-1.22-1.081c-.883-.086-1.521.8-1.923,1.593a30.883,30.883,0,0,0-3.287,12.216,3.2,3.2,0,0,0,.21,1.632c.251.495.8.549,1.355.549Z" transform="translate(-32.881 -0.789)" fill="#f7d979" stroke="#626262" stroke-linecap="round" stroke-linejoin="round" stroke-width="1.5"/>
    <path id="패스_2681" data-name="패스 2681" d="M-125.006,385.894a1.508,1.508,0,0,0-.291,1.873c.285.628.776,1.152,1.007,1.8.332.93.1,2.022.573,2.888.617,1.124,2.217,1.471,2.725,2.649.32.743.2,1.781.9,2.178a1.221,1.221,0,0,0,1.614-.78,2.724,2.724,0,0,0-.263-1.978,1.6,1.6,0,0,1-.224-1.3c.121-.255.385-.425.485-.689a1.1,1.1,0,0,0-.044-.721c-.355-1.076-1.169-2.008-1.252-3.138a2.524,2.524,0,0,0-.142-1.005c-.225-.43-.785-.609-.99-1.049a2.877,2.877,0,0,1-.138-.8,1.836,1.836,0,0,0-1.308-1.46,1.834,1.834,0,0,0-1.862.612l-.762-.09a.753.753,0,0,0-.18.5Z" transform="translate(-8.473 -4.635)" fill="#f7d979" stroke="#626262" stroke-linecap="round" stroke-linejoin="round" stroke-width="1.5"/>
    <path id="패스_2682" data-name="패스 2682" d="M-134.691,391.309a1.509,1.509,0,0,0-.291,1.873c.285.627.776,1.152,1.007,1.8.332.93.1,2.023.573,2.888.617,1.123,2.217,1.471,2.724,2.648.32.743.2,1.782.9,2.179a1.221,1.221,0,0,0,1.614-.78,2.722,2.722,0,0,0-.263-1.977,1.6,1.6,0,0,1-.224-1.3c.12-.255.385-.425.485-.689a1.094,1.094,0,0,0-.044-.721c-.355-1.076-1.169-2.008-1.252-3.138a2.518,2.518,0,0,0-.143-1.006c-.224-.43-.784-.609-.989-1.048a2.877,2.877,0,0,1-.138-.8,1.834,1.834,0,0,0-1.308-1.459,1.834,1.834,0,0,0-1.862.611l-.762-.09a.754.754,0,0,0-.18.5Z" transform="translate(-3.127 -7.625)" fill="#f7d979" stroke="#626262" stroke-linecap="round" stroke-linejoin="round" stroke-width="1.5"/>
    <path id="패스_2683" data-name="패스 2683" d="M-108.672,425.107h-29.349l-2.812-23.327h34.973Z" transform="translate(0 -14.279)" fill="#d8d8d8" stroke="#626262" stroke-linecap="round" stroke-linejoin="round" stroke-width="1.5"/>
    <path id="패스_2694" data-name="패스 2694" d="M0,0,1.486,23.327" transform="translate(-133.994 387.501)" fill="none" stroke="#626262" stroke-linecap="round" stroke-width="1.5"/>
    <path id="패스_2693" data-name="패스 2693" d="M0,0,.571,23.327" transform="translate(-127.513 387.501)" fill="none" stroke="#626262" stroke-linecap="round" stroke-width="1.5"/>
    <path id="패스_2691" data-name="패스 2691" d="M1.486,0,0,23.327" transform="translate(-114.186 387.501)" fill="none" stroke="#626262" stroke-linecap="round" stroke-width="1.5"/>
    <path id="패스_2692" data-name="패스 2692" d="M.571,0,0,23.327" transform="translate(-119.752 387.501)" fill="none" stroke="#626262" stroke-linecap="round" stroke-width="1.5"/>
    <path id="패스_2684" data-name="패스 2684" d="M-124.67,400.2a1.284,1.284,0,0,1-1.284,1.284,1.285,1.285,0,0,1-1.284-1.284,1.284,1.284,0,0,1,1.284-1.284A1.284,1.284,0,0,1-124.67,400.2Z" transform="translate(-7.505 -12.696)" fill="#fff" stroke="#626262" stroke-linecap="round" stroke-linejoin="round" stroke-width="1.5"/>
    <path id="패스_2685" data-name="패스 2685" d="M-78.7,400.2a1.284,1.284,0,0,1-1.284,1.284A1.285,1.285,0,0,1-81.27,400.2a1.284,1.284,0,0,1,1.284-1.284A1.284,1.284,0,0,1-78.7,400.2Z" transform="translate(-32.881 -12.696)" fill="#fff" stroke="#626262" stroke-linecap="round" stroke-linejoin="round" stroke-width="1.5"/>
    <path id="패스_2689" data-name="패스 2689" d="M6.845,10.3,3.209,4.83,0,0" transform="translate(-119.712 375.913)" fill="#fff" stroke="#626262" stroke-linecap="round" stroke-width="1.5"/>
    <path id="패스_2690" data-name="패스 2690" d="M0,10.3,6.845,0" transform="translate(-133.828 375.913)" fill="#fff" stroke="#626262" stroke-linecap="round" stroke-width="1.5"/>
    <path id="패스_2686" data-name="패스 2686" d="M-102.914,396.3h-9.609l1.713-4.443h6.184Z" transform="translate(-15.628 -8.804)" fill="#fff" stroke="#626262" stroke-linecap="round" stroke-linejoin="round" stroke-width="1.5"/>
    <rect id="사각형_140" data-name="사각형 140" width="5.993" height="2.217" transform="translate(-126.439 380.841)" fill="#fff" stroke="#626262" stroke-linecap="round" stroke-linejoin="round" stroke-width="1.5"/>
    <g id="그룹_1618" data-name="그룹 1618" transform="translate(-116.289 398.123)">
      <path id="패스_2688" data-name="패스 2688" d="M7.224,0A7.224,7.224,0,1,1,0,7.224,7.224,7.224,0,0,1,7.224,0Z" transform="translate(0)" fill="#fff" stroke="#626262" stroke-linecap="round" stroke-width="1.5"/>
      <g id="그룹_1617" data-name="그룹 1617" transform="translate(2.969 3.805)">
        <path id="패스_2687" data-name="패스 2687" d="M-78.387,437.783h-.982v-.755h.775l-.822-3.041h.86l.77,3.041h1.356l.793-3.041h.944l.793,3.041h1.356l.77-3.041h.869l-.826,3.041h.779v.755h-.987l-.826,3.041h-.878l-.835-3.041h-1.365l-.831,3.041h-.888Zm1.237,1.748h.066l.453-1.748h-.964Zm2.461-2.5-.449-1.625h-.056l-.444,1.625Zm1.44,2.5h.066l.443-1.748H-73.7Z" transform="translate(79.416 -433.986)" fill="#626262"/>
      </g>
    </g>
  </g>
</svg>
