<svg xmlns="http://www.w3.org/2000/svg" width="12.781" height="14.15" viewBox="0 0 12.781 14.15">
  <g id="그룹_1603" data-name="그룹 1603" transform="translate(-97.223)">
    <path id="패스_2653" data-name="패스 2653" d="M237.731,235.844a.491.491,0,0,0,.491-.484v-3.942a.491.491,0,1,0-.981,0v3.942a.491.491,0,0,0,.491.484Z" transform="translate(-136.477 -225.09)" fill="#7b7b7b"/>
    <path id="패스_2654" data-name="패스 2654" d="M331.081,235.844a.491.491,0,0,0,.491-.484v-3.942a.491.491,0,0,0-.981,0v3.942a.491.491,0,0,0,.491.484Z" transform="translate(-227.467 -225.09)" fill="#7b7b7b"/>
    <path id="패스_2655" data-name="패스 2655" d="M424.431,235.844a.491.491,0,0,0,.491-.484v-3.942a.491.491,0,0,0-.981,0v3.942a.491.491,0,0,0,.491.484Z" transform="translate(-318.457 -225.09)" fill="#7b7b7b"/>
    <path id="패스_2656" data-name="패스 2656" d="M109.514,2.376h-3.14l-.4-1.353A1.442,1.442,0,0,0,104.6,0h-1.97a1.442,1.442,0,0,0-1.369,1.022l-.4,1.353H97.714a.491.491,0,0,0,0,.981H98.3V12.8a1.356,1.356,0,0,0,1.353,1.347h7.94a1.356,1.356,0,0,0,1.353-1.353V3.341h.568A.491.491,0,0,0,110,2.85a.477.477,0,0,0-.491-.475ZM102.21,1.3h0a.456.456,0,0,1,.42-.322h1.983a.438.438,0,0,1,.427.324l.315,1.07H101.87Zm5.754,11.6h-.034a.381.381,0,0,1-.352.256H99.651a.381.381,0,0,1-.374-.379V3.342h8.687Z" transform="translate(0)" fill="#7b7b7b"/>
  </g>
</svg>
