<svg xmlns="http://www.w3.org/2000/svg" width="43" height="28" viewBox="0 0 43 28">
  <g id="그룹_1337" data-name="그룹 1337" transform="translate(-4269 -3266)">
    <g id="합치기_12" data-name="합치기 12" transform="translate(4269 3263)" fill="#fff">
      <path d="M 34 26.5 L 3 26.5 C 1.621500015258789 26.5 0.5 25.37849998474121 0.5 24 L 0.5 6 C 0.5 4.621500015258789 1.621500015258789 3.5 3 3.5 L 34 3.5 C 35.37850189208984 3.5 36.5 4.621500015258789 36.5 6 L 36.5 24 C 36.5 25.37849998474121 35.37850189208984 26.5 34 26.5 Z" stroke="none"/>
      <path d="M 3 4 C 1.897201538085938 4 1 4.897199630737305 1 6 L 1 24 C 1 25.1028003692627 1.897201538085938 26 3 26 L 34 26 C 35.10279846191406 26 36 25.1028003692627 36 24 L 36 6 C 36 4.897199630737305 35.10279846191406 4 34 4 L 3 4 M 3 3 L 34 3 C 35.6568489074707 3 37 4.3431396484375 37 6 L 37 24 C 37 25.6568489074707 35.6568489074707 27 34 27 L 3 27 C 1.343151092529297 27 0 25.6568489074707 0 24 L 0 6 C 0 4.3431396484375 1.343151092529297 3 3 3 Z" stroke="none" fill="#c7c7c7"/>
    </g>
    <g id="그룹_1345" data-name="그룹 1345" transform="translate(16 8)">
      <g id="타원_50" data-name="타원 50" transform="translate(4279 3269)" fill="#fff" stroke="#c7c7c7" stroke-width="1">
        <circle cx="8.5" cy="8.5" r="8.5" stroke="none"/>
        <circle cx="8.5" cy="8.5" r="8" fill="none"/>
      </g>
      <path id="패스_2615" data-name="패스 2615" d="M4272.462,3270.309h6.958" transform="translate(11.559 7.191)" fill="none" stroke="#c7c7c7" stroke-linecap="round" stroke-width="1"/>
      <path id="패스_2616" data-name="패스 2616" d="M4272.462,3270.309h6.958" transform="translate(7557.809 -998.441) rotate(90)" fill="none" stroke="#c7c7c7" stroke-linecap="round" stroke-width="1"/>
    </g>
    <g id="그룹_1311" data-name="그룹 1311" transform="translate(4252 2917.862)">
      <g id="그룹_1310" data-name="그룹 1310" transform="translate(-2471 -1814.142)">
        <g id="타원_44" data-name="타원 44" transform="translate(2502.625 2165.193)" fill="#fff" stroke="#c7c7c7" stroke-width="1">
          <circle cx="3.624" cy="3.624" r="3.624" stroke="none"/>
          <circle cx="3.624" cy="3.624" r="3.124" fill="none"/>
        </g>
        <g id="패스_2600" data-name="패스 2600" transform="translate(2499 2172.75)" fill="#fff">
          <path d="M 7.248963356018066 9.068145751953125 C 3.464503288269043 9.068145751953125 0.5000033378601074 8.056785583496094 0.5000033378601074 6.765696048736572 C 0.5000033378601074 3.310775756835938 3.527573347091675 0.4999958276748657 7.248963356018066 0.4999958276748657 C 10.97035312652588 0.4999958276748657 13.99792289733887 3.310775756835938 13.99792289733887 6.765696048736572 C 13.99792289733887 8.056785583496094 11.03342342376709 9.068145751953125 7.248963356018066 9.068145751953125 Z" stroke="none"/>
          <path d="M 7.248963356018066 0.9999961853027344 C 3.80327320098877 0.9999961853027344 1.000003814697266 3.586475849151611 1.000003814697266 6.765695571899414 C 1.000003814697266 7.518335819244385 3.377313613891602 8.568145751953125 7.248963356018066 8.568145751953125 C 11.12061309814453 8.568145751953125 13.49792289733887 7.518335819244385 13.49792289733887 6.765695571899414 C 13.49792289733887 3.586475849151611 10.69465351104736 0.9999961853027344 7.248963356018066 0.9999961853027344 M 7.248963356018066 -3.814697265625e-06 C 11.2524528503418 -3.814697265625e-06 14.49792289733887 3.029105663299561 14.49792289733887 6.765695571899414 C 14.49792289733887 10.50229644775391 4.76837158203125e-06 10.50229549407959 3.814697265625e-06 6.765695571899414 C 3.814697265625e-06 3.029105663299561 3.24547290802002 -3.814697265625e-06 7.248963356018066 -3.814697265625e-06 Z" stroke="none" fill="#c7c7c7"/>
        </g>
      </g>
    </g>
  </g>
</svg>
