<svg xmlns="http://www.w3.org/2000/svg" width="43.61" height="41.777" viewBox="0 0 43.61 41.777">
  <g id="그룹_1624" data-name="그룹 1624" transform="translate(142.95 -366.966)">
    <g id="그룹_1620" data-name="그룹 1620" transform="translate(-142.2 367.716)">
      <rect id="사각형_141" data-name="사각형 141" width="22.412" height="40.197" rx="2" fill="#d8d8d8" stroke="#626262" stroke-linecap="round" stroke-linejoin="round" stroke-width="1.5"/>
      <rect id="사각형_142" data-name="사각형 142" width="5.519" height="5.93" rx="2" transform="translate(4.349 4.014)" fill="#fff" stroke="#626262" stroke-linecap="round" stroke-linejoin="round" stroke-width="1.5"/>
      <rect id="사각형_143" data-name="사각형 143" width="5.519" height="5.93" rx="2" transform="translate(12.544 4.014)" fill="#fff" stroke="#626262" stroke-linecap="round" stroke-linejoin="round" stroke-width="1.5"/>
      <path id="패스_2698" data-name="패스 2698" d="M1.512,0h2.5A1.512,1.512,0,0,1,5.519,1.512V4.418A1.512,1.512,0,0,1,4.008,5.93h-2.5A1.512,1.512,0,0,1,0,4.418V1.512A1.512,1.512,0,0,1,1.512,0Z" transform="translate(4.349 12.703)" fill="#fff" stroke="#626262" stroke-linecap="round" stroke-width="1.5"/>
      <path id="패스_2697" data-name="패스 2697" d="M1.512,0h2.5A1.512,1.512,0,0,1,5.519,1.512V4.418A1.512,1.512,0,0,1,4.008,5.93h-2.5A1.512,1.512,0,0,1,0,4.418V1.512A1.512,1.512,0,0,1,1.512,0Z" transform="translate(12.544 12.703)" fill="#fff" stroke="#626262" stroke-linecap="round" stroke-width="1.5"/>
      <path id="패스_2699" data-name="패스 2699" d="M1.512,0h2.5A1.512,1.512,0,0,1,5.519,1.512V4.418A1.512,1.512,0,0,1,4.008,5.93h-2.5A1.512,1.512,0,0,1,0,4.418V1.512A1.512,1.512,0,0,1,1.512,0Z" transform="translate(4.349 21.392)" fill="#fff" stroke="#626262" stroke-linecap="round" stroke-width="1.5"/>
      <path id="패스_2700" data-name="패스 2700" d="M1.512,0H8.106A1.512,1.512,0,0,1,9.617,1.512V8.106A1.512,1.512,0,0,1,8.106,9.617H1.512A1.512,1.512,0,0,1,0,8.106V1.512A1.512,1.512,0,0,1,1.512,0Z" transform="translate(6.398 30.58)" fill="#fff" stroke="#626262" stroke-linecap="round" stroke-width="1.5"/>
      <rect id="사각형_148" data-name="사각형 148" width="5.519" height="5.93" rx="2" transform="translate(12.544 21.392)" fill="#fff" stroke="#626262" stroke-linecap="round" stroke-linejoin="round" stroke-width="1.5"/>
    </g>
    <g id="그룹_1621" data-name="그룹 1621" transform="translate(-122.04 377.183)">
      <rect id="사각형_149" data-name="사각형 149" width="16.407" height="30.733" rx="2" transform="translate(0 0)" fill="#d8d8d8" stroke="#626262" stroke-linecap="round" stroke-linejoin="round" stroke-width="1.5"/>
      <rect id="사각형_150" data-name="사각형 150" width="4.041" height="4.781" rx="2" transform="translate(3.183 2.517)" fill="#fff" stroke="#626262" stroke-linecap="round" stroke-linejoin="round" stroke-width="1.5"/>
      <rect id="사각형_151" data-name="사각형 151" width="4.041" height="4.781" rx="2" transform="translate(9.183 2.517)" fill="#fff" stroke="#626262" stroke-linecap="round" stroke-linejoin="round" stroke-width="1.5"/>
      <rect id="사각형_152" data-name="사각형 152" width="4.041" height="4.781" rx="2" transform="translate(3.183 9.522)" fill="#fff" stroke="#626262" stroke-linecap="round" stroke-linejoin="round" stroke-width="1.5"/>
      <rect id="사각형_153" data-name="사각형 153" width="4.041" height="4.781" rx="2" transform="translate(9.183 9.522)" fill="#fff" stroke="#626262" stroke-linecap="round" stroke-linejoin="round" stroke-width="1.5"/>
      <rect id="사각형_154" data-name="사각형 154" width="4.041" height="4.781" rx="2" transform="translate(3.183 16.527)" fill="#fff" stroke="#626262" stroke-linecap="round" stroke-linejoin="round" stroke-width="1.5"/>
      <rect id="사각형_155" data-name="사각형 155" width="4.041" height="4.781" rx="2" transform="translate(9.183 16.527)" fill="#fff" stroke="#626262" stroke-linecap="round" stroke-linejoin="round" stroke-width="1.5"/>
    </g>
    <path id="패스_2696" data-name="패스 2696" d="M1.512,0h15.48A1.512,1.512,0,0,1,18.5,1.512v.1a1.512,1.512,0,0,1-1.512,1.512H1.512A1.512,1.512,0,0,1,0,1.612v-.1A1.512,1.512,0,0,1,1.512,0Z" transform="translate(-123.088 375.018)" fill="#f7d979" stroke="#626262" stroke-linecap="round" stroke-width="1.5"/>
    <g id="그룹_1623" data-name="그룹 1623" transform="translate(-114.325 393.758)">
      <circle id="타원_56" data-name="타원 56" cx="7.117" cy="7.117" r="7.117" transform="translate(0)" fill="#fff" stroke="#626262" stroke-linecap="round" stroke-linejoin="round" stroke-width="1.5"/>
      <g id="그룹_1622" data-name="그룹 1622" transform="translate(2.925 3.749)">
        <path id="패스_2695" data-name="패스 2695" d="M-71.4,438.953h-.967v-.745h.763l-.809-3h.847l.758,3h1.336l.782-3h.93l.782,3h1.336l.758-3h.856l-.814,3h.768v.745h-.972l-.814,3h-.866l-.824-3H-68.9l-.819,3h-.874Zm1.219,1.721h.065l.447-1.721h-.949Zm2.424-2.466-.442-1.6h-.056l-.437,1.6Zm1.419,2.466h.065l.437-1.721h-.949Z" transform="translate(72.417 -435.212)" fill="#626262"/>
      </g>
    </g>
  </g>
</svg>
