<svg xmlns="http://www.w3.org/2000/svg" width="20" height="18.9" viewBox="0 0 20 18.9">
  <g id="그룹_1591" data-name="그룹 1591" transform="translate(-2499 -2165.193)">
    <g id="타원_44" data-name="타원 44" transform="translate(2503 2165.193)" fill="#fff" stroke="#a4a4a4" stroke-width="1">
      <circle cx="4" cy="4" r="4" stroke="none"/>
      <circle cx="4" cy="4" r="3.5" fill="none"/>
    </g>
    <g id="패스_2600" data-name="패스 2600" transform="translate(2499 2173.533)" fill="#fff">
      <path d="M 8 10.05946636199951 C 5.987649917602539 10.05946636199951 4.042210102081299 9.78753662109375 2.662499904632568 9.313406944274902 C 1.854869961738586 9.035866737365723 0.5 8.426896095275879 0.5 7.466666698455811 C 0.5 3.625236511230469 3.864490032196045 0.499996542930603 8 0.499996542930603 C 12.13551044464111 0.499996542930603 15.5 3.625236511230469 15.5 7.466666698455811 C 15.5 8.426896095275879 14.1451301574707 9.035866737365723 13.33749961853027 9.313406944274902 C 11.95779037475586 9.78753662109375 10.01235008239746 10.05946636199951 8 10.05946636199951 Z" stroke="none"/>
      <path d="M 8 0.9999961853027344 C 4.140190124511719 0.9999961853027344 1 3.900936603546143 1 7.466666698455811 C 1 7.93424654006958 1.682239532470703 8.447846412658691 2.824990272521973 8.840546607971191 C 4.154509544372559 9.297426223754883 6.040730476379395 9.559466361999512 8 9.559466361999512 C 9.959270477294922 9.559466361999512 11.84548950195312 9.297426223754883 13.17500972747803 8.840546607971191 C 14.3177604675293 8.447846412658691 15 7.93424654006958 15 7.466666698455811 C 15 3.900936603546143 11.85980987548828 0.9999961853027344 8 0.9999961853027344 M 8 -3.814697265625e-06 C 12.41827964782715 -3.814697265625e-06 16 3.342936515808105 16 7.466666698455811 C 16 11.59039688110352 0 11.59039688110352 0 7.466666698455811 C 0 3.342936515808105 3.581720352172852 -3.814697265625e-06 8 -3.814697265625e-06 Z" stroke="none" fill="#a4a4a4"/>
    </g>
    <g id="타원_51" data-name="타원 51" transform="translate(2509 2173.745)" fill="#fff" stroke="#a4a4a4" stroke-width="1">
      <circle cx="5" cy="5" r="5" stroke="none"/>
      <circle cx="5" cy="5" r="4.5" fill="none"/>
    </g>
    <path id="패스_2647" data-name="패스 2647" d="M2552.993,2008l2,1.909,4-3.591" transform="translate(-41 170.632)" fill="none" stroke="#a4a4a4" stroke-linecap="round" stroke-linejoin="round" stroke-width="1"/>
  </g>
</svg>
