<svg xmlns="http://www.w3.org/2000/svg" width="45.57" height="31.72" viewBox="0 0 45.57 31.72">
  <g id="그룹_1613" data-name="그룹 1613" transform="translate(0.75 0.75)">
    <g id="그룹_1610" data-name="그룹 1610">
      <path id="패스_2671" data-name="패스 2671" d="M-129.412,327.214a6.045,6.045,0,0,0,6.009,5.4,6.046,6.046,0,0,0,6.013-5.4Z" transform="translate(130.984 -303.78)" fill="#222" stroke="#222" stroke-linecap="round" stroke-linejoin="round" stroke-width="1.5"/>
      <path id="패스_2672" data-name="패스 2672" d="M-123.035,325.822a3.061,3.061,0,0,0,3.061,3.061,3.061,3.061,0,0,0,3.061-3.061" transform="translate(127.558 -303.032)" fill="#fff" stroke="#222" stroke-linecap="round" stroke-linejoin="round" stroke-width="1.5"/>
      <rect id="사각형_138" data-name="사각형 138" width="11.97" height="1.803" transform="translate(30.625 9.493)" fill="#fff" stroke="#626262" stroke-linecap="round" stroke-linejoin="round" stroke-width="1.5"/>
      <path id="패스_2673" data-name="패스 2673" d="M-128.666,294.107v-.285h4.113l0,3.768c-.095,3.5,2.45,7.147,3.709,8.73.412.518.553.8.724.815h3.354a3.12,3.12,0,0,0,3.02-2.337l2.031-7.836h11.555a25.032,25.032,0,0,1,3.266,12.308h-35.92v-2.135a11.358,11.358,0,0,1,2.065-6.264A11.841,11.841,0,0,0-128.666,294.107Z" transform="translate(132.811 -285.836)" fill="#d8d8d8" stroke="#626262" stroke-linecap="round" stroke-linejoin="round" stroke-width="1.5"/>
      <path id="패스_2674" data-name="패스 2674" d="M-85.57,300.345h8.289a1.633,1.633,0,0,0,1.633-1.633h0a1.633,1.633,0,0,0-1.633-1.633H-85.57a1.633,1.633,0,0,0-1.633,1.633h0A1.633,1.633,0,0,0-85.57,300.345Z" transform="translate(108.303 -287.587)" fill="#fff" stroke="#626262" stroke-linecap="round" stroke-linejoin="round" stroke-width="1.5"/>
      <path id="패스_2675" data-name="패스 2675" d="M-116.465,288.855h-2.955l-1.193-1h-5.275v3.328h9.423a.687.687,0,0,0,.687-.687v-.949A.687.687,0,0,0-116.465,288.855Z" transform="translate(129.091 -282.627)" fill="#d8d8d8" stroke="#626262" stroke-linecap="round" stroke-linejoin="round" stroke-width="1.5"/>
      <ellipse id="타원_52" data-name="타원 52" cx="1.289" cy="2.135" rx="1.289" ry="2.135" transform="translate(1.566 5.223)" fill="#fff" stroke="#626262" stroke-linecap="round" stroke-linejoin="round" stroke-width="1.5"/>
      <path id="패스_2678" data-name="패스 2678" d="M0,0H3.328" transform="translate(12.622 6.196)" fill="#fff" stroke="#626262" stroke-linecap="round" stroke-width="1.5"/>
      <circle id="타원_53" data-name="타원 53" cx="6.045" cy="6.045" r="6.045" transform="translate(19.876 18.305) rotate(-13.359)" fill="#222" stroke="#222" stroke-linecap="round" stroke-linejoin="round" stroke-width="1.5"/>
      <circle id="타원_54" data-name="타원 54" cx="3.061" cy="3.061" r="3.061" transform="translate(24.093 19.729)" fill="#fff" stroke="#222" stroke-linecap="round" stroke-linejoin="round" stroke-width="1.5"/>
      <path id="패스_2677" data-name="패스 2677" d="M0,0H10.159V9.493H0Z" transform="translate(31.164)" fill="#f7d979" stroke="#626262" stroke-linecap="round" stroke-width="1.5"/>
    </g>
    <g id="그룹_1612" data-name="그룹 1612" transform="translate(29.15 13.914)">
      <circle id="타원_55" data-name="타원 55" cx="7.46" cy="7.46" r="7.46" transform="translate(0)" fill="#fff" stroke="#626262" stroke-linecap="round" stroke-linejoin="round" stroke-width="1.5"/>
      <g id="그룹_1611" data-name="그룹 1611" transform="translate(3.066 3.93)">
        <path id="패스_2676" data-name="패스 2676" d="M-62.111,319.051h-1.015v-.78h.8l-.848-3.14h.887l.8,3.14h1.4l.819-3.14h.975l.819,3.14h1.4l.795-3.14h.9l-.854,3.14h.8v.78h-1.02l-.853,3.141h-.907l-.863-3.141h-1.41l-.858,3.141h-.917Zm1.278,1.8h.068l.468-1.8h-.995Zm2.541-2.585-.463-1.677h-.059l-.458,1.677Zm1.487,2.585h.068l.458-1.8h-1Z" transform="translate(63.174 -315.13)" fill="#626262"/>
      </g>
    </g>
  </g>
</svg>
