<svg width="179" height="150" viewBox="0 0 179 150" fill="none" xmlns="http://www.w3.org/2000/svg">
<g clip-path="url(#clip0_549_2002)">
<path d="M177.927 149.305C163.351 142.592 153.339 128.679 151.555 112.653L143.298 38.5289C141.68 24.0181 133.3 11.1475 120.715 3.85043L115.267 0.695312H0.691406L6.14012 3.85043C18.7247 11.1475 27.1052 24.0181 28.7233 38.5289L36.9793 112.653C38.7633 128.679 48.7757 142.578 63.3517 149.305H177.913H177.927Z" fill="#E9ECEF" stroke="#2A2628" stroke-width="3" stroke-linecap="round" stroke-linejoin="round"/>
<path d="M63.9883 116.518H134.808" stroke="#2A2628" stroke-width="3" stroke-linecap="round" stroke-linejoin="round"/>
<path d="M68.0527 130.152H138.858" stroke="#2A2628" stroke-width="3" stroke-linecap="round" stroke-linejoin="round"/>
<path d="M56.1328 66.9531H126.939" stroke="#2A2628" stroke-width="3" stroke-linecap="round" stroke-linejoin="round"/>
<path d="M58.5117 84.9941H129.331" stroke="#2A2628" stroke-width="3" stroke-linecap="round" stroke-linejoin="round"/>
<path d="M60.5176 101.938H131.337" stroke="#2A2628" stroke-width="3" stroke-linecap="round" stroke-linejoin="round"/>
<path d="M79.2966 35.541L74.5117 50.1213L81.0253 48.1476L85.3538 53.7072L89.8622 39.0436L79.2966 35.541Z" fill="#FFF083" stroke="#2A2628" stroke-width="3" stroke-linecap="round" stroke-linejoin="round"/>
<path d="M88.4941 40.4058L94.6067 54.4718L97.3587 48.9816L103.457 50.58L97.1236 36.6113L88.4941 40.4058Z" fill="#FFF083" stroke="#2A2628" stroke-width="3" stroke-linecap="round" stroke-linejoin="round"/>
<path d="M98.7966 30.7595C99.3497 36.4999 95.1733 41.6009 89.4618 42.1707C83.7504 42.7267 78.675 38.5292 78.108 32.7888C77.541 27.0484 81.7313 21.9474 87.4428 21.3776C93.1542 20.8216 98.2296 25.0191 98.7966 30.7595Z" fill="#2962F6" stroke="#2A2628" stroke-width="3" stroke-linecap="round" stroke-linejoin="round"/>
</g>
<defs>
<clipPath id="clip0_549_2002">
<rect width="178.618" height="150" fill="white"/>
</clipPath>
</defs>
</svg>
