<svg width="119" height="84" viewBox="0 0 119 84" fill="none" xmlns="http://www.w3.org/2000/svg">
<path d="M12.8863 81.6C9.08633 81.6 6.053 80.6 3.78633 78.6C1.58633 76.5333 0.486328 73.6 0.486328 69.8V68.7C0.486328 65.3667 0.686328 62.4333 1.08633 59.9C1.48633 57.3 2.153 55 3.08633 53C4.08633 50.9333 5.38633 49.0667 6.98633 47.4C8.58633 45.7333 10.553 44.1 12.8863 42.5L28.5863 32.1C30.1863 31.0333 31.253 29.8667 31.7863 28.6C32.3863 27.3333 32.6863 26.1 32.6863 24.9C32.6863 23.2333 32.0197 21.8333 30.6863 20.7C29.4197 19.5 27.653 18.9 25.3863 18.9C23.853 18.9 22.4863 19.2333 21.2863 19.9C20.153 20.5 19.0197 21.2667 17.8863 22.2C17.353 22.6667 16.6863 23.1667 15.8863 23.7C15.153 24.2333 14.3197 24.6333 13.3863 24.9C11.853 25.3 10.1863 25.4333 8.38633 25.3C6.58633 25.1667 4.953 24.5 3.48633 23.3C1.68633 21.8333 0.719662 19.9333 0.586328 17.6C0.519662 15.2667 1.11966 13.1667 2.38633 11.3C3.58633 9.43333 5.08633 7.83333 6.88633 6.49999C8.753 5.16666 10.7197 4.06666 12.7863 3.19999C14.9197 2.33333 17.0863 1.7 19.2863 1.29999C21.553 0.899996 23.753 0.699997 25.8863 0.699997C29.6863 0.699997 33.2197 1.2 36.4863 2.2C39.8197 3.13333 42.6863 4.53333 45.0863 6.39999C47.553 8.26666 49.4863 10.5333 50.8863 13.2C52.353 15.8667 53.0863 18.9333 53.0863 22.4C53.0863 27.8 52.1197 32.3 50.1863 35.9C48.3197 39.4333 45.3197 42.5333 41.1863 45.2L28.7863 53.1C26.253 54.7667 24.4197 56.2333 23.2863 57.5C22.153 58.7 21.5863 60.2333 21.5863 62.1V62.8C21.5863 63.8 22.0863 64.3 23.0863 64.3H53.8863V81.6H12.8863ZM90.9746 83.5C87.0413 83.5 83.3413 82.9333 79.8746 81.8C76.4746 80.6667 73.5079 79 70.9746 76.8C68.5079 74.5333 66.5413 71.7333 65.0746 68.4C63.6746 65 62.9746 61.1 62.9746 56.7V27.4C62.9746 23 63.6746 19.1333 65.0746 15.8C66.5413 12.4667 68.5079 9.66666 70.9746 7.39999C73.5079 5.13333 76.4746 3.43333 79.8746 2.29999C83.3413 1.16666 87.0413 0.599998 90.9746 0.599998C94.9079 0.599998 98.5746 1.16666 101.975 2.29999C105.441 3.43333 108.408 5.13333 110.875 7.39999C113.408 9.66666 115.375 12.4667 116.775 15.8C118.241 19.1333 118.975 23 118.975 27.4V56.7C118.975 61.1 118.241 65 116.775 68.4C115.375 71.7333 113.408 74.5333 110.875 76.8C108.408 79 105.441 80.6667 101.975 81.8C98.5746 82.9333 94.9079 83.5 90.9746 83.5ZM90.9746 66.5C91.8413 66.5 92.7413 66.3667 93.6746 66.1C94.6079 65.8333 95.4413 65.3667 96.1746 64.7C96.9746 64.0333 97.6079 63.1667 98.0746 62.1C98.6079 61.0333 98.8746 59.7 98.8746 58.1V26C98.8746 24.4667 98.6079 23.1667 98.0746 22.1C97.6079 21.0333 96.9746 20.1667 96.1746 19.5C95.4413 18.8333 94.6079 18.3667 93.6746 18.1C92.7413 17.7667 91.8413 17.6 90.9746 17.6C90.1079 17.6 89.2079 17.7667 88.2746 18.1C87.3413 18.3667 86.4746 18.8333 85.6746 19.5C84.9413 20.1667 84.3079 21.0333 83.7746 22.1C83.3079 23.1667 83.0746 24.4667 83.0746 26V58.1C83.0746 59.7 83.3079 61.0333 83.7746 62.1C84.3079 63.1667 84.9413 64.0333 85.6746 64.7C86.4746 65.3667 87.3413 65.8333 88.2746 66.1C89.2079 66.3667 90.1079 66.5 90.9746 66.5Z" fill="#2962F6"/>
<path d="M3.78633 78.6L-3.06043 85.8885C-2.98468 85.9596 -2.90782 86.0296 -2.82989 86.0984L3.78633 78.6ZM1.08633 59.9L10.964 61.4596C10.966 61.4466 10.968 61.4336 10.97 61.4206L1.08633 59.9ZM3.08633 53L-5.91526 48.6444C-5.93564 48.6865 -5.95572 48.7288 -5.9755 48.7711L3.08633 53ZM6.98633 47.4L-0.227544 40.4747H-0.227546L6.98633 47.4ZM12.8863 42.5L7.36386 34.1632C7.31935 34.1927 7.27508 34.2225 7.23105 34.2527L12.8863 42.5ZM28.5863 32.1L34.1088 40.4368C34.117 40.4314 34.1252 40.4259 34.1333 40.4205L28.5863 32.1ZM31.7863 28.6L22.749 24.3191C22.6864 24.4512 22.6267 24.5847 22.57 24.7194L31.7863 28.6ZM30.6863 20.7L23.8089 27.9595C23.9393 28.0831 24.073 28.2031 24.2098 28.3194L30.6863 20.7ZM21.2863 19.9L25.9652 28.7379C26.0247 28.7064 26.0839 28.6743 26.1428 28.6416L21.2863 19.9ZM17.8863 22.2L11.5292 14.4807C11.4523 14.5441 11.3763 14.6086 11.3013 14.6742L17.8863 22.2ZM15.8863 23.7L10.3393 15.3795C10.2262 15.4549 10.1146 15.5327 10.0046 15.6126L15.8863 23.7ZM13.3863 24.9L15.9106 34.5762C15.9851 34.5567 16.0594 34.5364 16.1335 34.5152L13.3863 24.9ZM8.38633 25.3L9.12506 15.3273L9.12504 15.3273L8.38633 25.3ZM3.48633 23.3L9.81871 15.5604C9.8135 15.5562 9.80828 15.5519 9.80306 15.5476L3.48633 23.3ZM0.586329 17.6L-9.40959 17.8856C-9.40688 17.9806 -9.40281 18.0756 -9.39739 18.1705L0.586329 17.6ZM2.38633 11.3L10.6611 16.915C10.7076 16.8464 10.7533 16.7773 10.7981 16.7076L2.38633 11.3ZM6.88633 6.49999L1.07395 -1.63734C1.02702 -1.60382 0.980386 -1.5699 0.934046 -1.53557L6.88633 6.49999ZM12.7863 3.2L9.02257 -6.06468C8.98799 -6.05063 8.95348 -6.03638 8.91906 -6.02195L12.7863 3.2ZM19.2863 1.3L17.5485 -8.54784C17.5315 -8.54484 17.5145 -8.54179 17.4975 -8.5387L19.2863 1.3ZM36.4863 2.2L33.5592 11.762C33.6359 11.7855 33.7128 11.808 33.79 11.8296L36.4863 2.2ZM45.0863 6.39999L38.9469 14.2935C38.9817 14.3206 39.0167 14.3474 39.0519 14.3741L45.0863 6.39999ZM50.8863 13.2L42.0323 17.8483C42.0624 17.9056 42.093 17.9625 42.1242 18.0192L50.8863 13.2ZM50.1863 35.9L41.3764 31.1687C41.3657 31.1887 41.355 31.2087 41.3444 31.2288L50.1863 35.9ZM41.1863 45.2L46.5595 53.6338C46.5756 53.6236 46.5916 53.6133 46.6076 53.603L41.1863 45.2ZM28.7863 53.1L23.4132 44.6662C23.372 44.6924 23.331 44.719 23.2902 44.7458L28.7863 53.1ZM23.2863 57.5L30.5565 64.3662C30.6181 64.301 30.6789 64.2349 30.7387 64.1679L23.2863 57.5ZM53.8863 64.3H63.8863C63.8863 58.7772 59.4092 54.3 53.8863 54.3V64.3ZM53.8863 81.6V91.6C59.4092 91.6 63.8863 87.1228 63.8863 81.6H53.8863ZM12.8863 71.6C10.8746 71.6 10.4085 71.1069 10.4025 71.1016L-2.82989 86.0984C1.69749 90.0931 7.29804 91.6 12.8863 91.6V71.6ZM10.6331 71.3115C10.6932 71.368 10.7074 71.4261 10.6746 71.3388C10.6247 71.2056 10.4863 70.7487 10.4863 69.8H-9.51367C-9.51367 75.5999 -7.76686 81.4673 -3.06043 85.8885L10.6331 71.3115ZM10.4863 69.8V68.7H-9.51367V69.8H10.4863ZM10.4863 68.7C10.4863 65.7433 10.6653 63.3508 10.964 61.4596L-8.7913 58.3404C-9.29269 61.5159 -9.51367 64.99 -9.51367 68.7H10.4863ZM10.97 61.4206C11.2526 59.5838 11.684 58.2236 12.1482 57.2289L-5.9755 48.7711C-7.37797 51.7764 -8.27996 55.0162 -8.79739 58.3794L10.97 61.4206ZM12.0879 57.3556C12.6277 56.2401 13.3227 55.2394 14.2002 54.3253L-0.227546 40.4747C-2.55 42.8939 -4.45503 45.6266 -5.91526 48.6444L12.0879 57.3556ZM14.2002 54.3253C15.2358 53.2466 16.6512 52.0436 18.5416 50.7473L7.23105 34.2527C4.45481 36.1564 1.93687 38.2201 -0.227544 40.4747L14.2002 54.3253ZM18.4088 50.8368L34.1088 40.4368L23.0639 23.7632L7.36386 34.1632L18.4088 50.8368ZM34.1333 40.4205C36.7384 38.6838 39.4606 36.143 41.0027 32.4805L22.57 24.7194C22.8081 24.1539 23.082 23.813 23.206 23.6773C23.3204 23.5522 23.3062 23.6016 23.0393 23.7795L34.1333 40.4205ZM40.8237 32.8809C41.9517 30.4996 42.6863 27.8095 42.6863 24.9H22.6863C22.6863 24.6591 22.7173 24.474 22.7447 24.3615C22.771 24.2533 22.7877 24.2373 22.749 24.3191L40.8237 32.8809ZM42.6863 24.9C42.6863 20.1361 40.6038 16.0054 37.1628 13.0806L24.2098 28.3194C23.9394 28.0895 23.5047 27.6281 23.1577 26.8993C22.8045 26.1576 22.6863 25.4408 22.6863 24.9H42.6863ZM37.5638 13.4405C33.9353 10.003 29.4204 8.89999 25.3863 8.89999V28.9C25.6529 28.9 25.5429 28.9368 25.1955 28.8188C24.8096 28.6878 24.2939 28.419 23.8089 27.9595L37.5638 13.4405ZM25.3863 8.89999C22.3562 8.89999 19.2831 9.57331 16.4299 11.1584L26.1428 28.6416C25.9418 28.7532 25.7447 28.8253 25.5809 28.8652C25.4225 28.9038 25.3471 28.9 25.3863 28.9V8.89999ZM16.6075 11.0621C14.8001 12.0189 13.1096 13.1792 11.5292 14.4807L24.2434 29.9193C24.9297 29.3541 25.5059 28.981 25.9652 28.7379L16.6075 11.0621ZM11.3013 14.6742C11.1884 14.773 10.8949 15.0091 10.3393 15.3795L21.4333 32.0205C22.4777 31.3242 23.5176 30.5603 24.4714 29.7258L11.3013 14.6742ZM10.0046 15.6126C10.2835 15.4098 10.526 15.3171 10.6391 15.2847L16.1335 34.5152C18.1133 33.9496 20.0225 33.0568 21.7681 31.7874L10.0046 15.6126ZM10.8621 15.2238C10.5293 15.3107 9.97868 15.3906 9.12506 15.3273L7.6476 35.2727C10.394 35.4761 13.1767 35.2893 15.9106 34.5762L10.8621 15.2238ZM9.12504 15.3273C9.24515 15.3362 9.41475 15.3699 9.5903 15.4415C9.76152 15.5114 9.83835 15.5765 9.81871 15.5604L-2.84605 31.0396C0.127148 33.4722 3.69196 34.9797 7.64762 35.2727L9.12504 15.3273ZM9.80306 15.5476C9.8858 15.6151 10.1211 15.8415 10.3241 16.2404C10.5263 16.6378 10.5654 16.9491 10.57 17.0295L-9.39739 18.1705C-9.10511 23.2853 -6.82283 27.7993 -2.8304 31.0523L9.80306 15.5476ZM10.5822 17.3144C10.5791 17.203 10.5848 17.1296 10.5897 17.0881C10.5946 17.0474 10.6001 17.0275 10.6016 17.0222C10.603 17.0171 10.6048 17.0118 10.6095 17.0017C10.6145 16.9912 10.6287 16.9627 10.6611 16.915L-5.88843 5.68498C-8.37709 9.35249 -9.534 13.5314 -9.40959 17.8856L10.5822 17.3144ZM10.7981 16.7076C11.3377 15.8682 12.0013 15.1558 12.8386 14.5356L0.934046 -1.53557C-1.82861 0.510845 -4.16504 2.99844 -6.02546 5.89242L10.7981 16.7076ZM12.6987 14.6373C13.9738 13.7266 15.2897 12.9939 16.6536 12.4219L8.91906 -6.02195C6.14958 -4.86055 3.53222 -3.39325 1.07395 -1.63734L12.6987 14.6373ZM16.5501 12.4647C18.0656 11.849 19.5713 11.4121 21.0752 11.1387L17.4975 -8.5387C14.6013 -8.01213 11.7738 -7.18234 9.02257 -6.06468L16.5501 12.4647ZM21.0242 11.1478C22.7617 10.8412 24.3792 10.7 25.8863 10.7V-9.3C23.1267 -9.3 20.3443 -9.04121 17.5485 -8.54784L21.0242 11.1478ZM25.8863 10.7C28.8044 10.7 31.3409 11.0829 33.5592 11.762L39.4135 -7.36201C35.0984 -8.68295 30.5683 -9.3 25.8863 -9.3V10.7ZM33.79 11.8296C36.0458 12.4612 37.7032 13.3262 38.9469 14.2935L51.2257 -1.49353C47.6695 -4.2595 43.5936 -6.19459 39.1826 -7.42965L33.79 11.8296ZM39.0519 14.3741C40.3783 15.3778 41.335 16.52 42.0323 17.8483L59.7403 8.55167C57.6377 4.54668 54.7277 1.15553 51.1208 -1.57407L39.0519 14.3741ZM42.1242 18.0192C42.6716 19.0145 43.0863 20.381 43.0863 22.4H63.0863C63.0863 17.4856 62.0344 12.7188 59.6485 8.38081L42.1242 18.0192ZM43.0863 22.4C43.0863 26.6606 42.3177 29.4159 41.3764 31.1687L58.9963 40.6313C61.9216 35.1841 63.0863 28.9394 63.0863 22.4H43.0863ZM41.3444 31.2288C40.4443 32.9326 38.7867 34.8476 35.7651 36.797L46.6076 53.603C51.8526 50.2191 56.195 45.9341 59.0283 40.5712L41.3444 31.2288ZM35.8132 36.7662L23.4132 44.6662L34.1595 61.5338L46.5595 53.6338L35.8132 36.7662ZM23.2902 44.7458C20.5043 46.5787 17.826 48.6055 15.8339 50.8321L30.7387 64.1679C31.0133 63.8611 32.0017 62.9547 34.2825 61.4542L23.2902 44.7458ZM16.0162 50.6338C12.8965 53.937 11.5863 58.0411 11.5863 62.1H31.5863C31.5863 62.1839 31.5718 62.5279 31.3913 63.0165C31.2029 63.5262 30.9057 63.9965 30.5565 64.3662L16.0162 50.6338ZM11.5863 62.1V62.8H31.5863V62.1H11.5863ZM11.5863 62.8C11.5863 64.8414 12.1035 68.2093 14.8903 70.9961C17.6771 73.7829 21.0449 74.3 23.0863 74.3V54.3C24.1278 54.3 26.7456 54.5671 29.0324 56.8539C31.3192 59.1407 31.5863 61.7586 31.5863 62.8H11.5863ZM23.0863 74.3H53.8863V54.3H23.0863V74.3ZM43.8863 64.3V81.6H63.8863V64.3H43.8863ZM53.8863 71.6H12.8863V91.6H53.8863V71.6ZM79.8746 81.8L76.7123 91.2868C76.7306 91.2929 76.7489 91.299 76.7672 91.305L79.8746 81.8ZM70.9746 76.8L64.2084 84.1633C64.2773 84.2266 64.3471 84.289 64.4177 84.3503L70.9746 76.8ZM65.0746 68.4L55.8278 72.2075C55.8582 72.2812 55.8894 72.3545 55.9215 72.4274L65.0746 68.4ZM65.0746 15.8L55.9215 11.7726C55.8988 11.8241 55.8766 11.8758 55.8548 11.9277L65.0746 15.8ZM70.9746 7.39999L64.3067 -0.0524216C64.2737 -0.0229244 64.2409 0.00679207 64.2084 0.0367241L70.9746 7.39999ZM79.8746 2.29999L76.7672 -7.20496C76.7489 -7.19897 76.7306 -7.19293 76.7123 -7.18684L79.8746 2.29999ZM101.975 2.29999L98.8123 11.7868C98.8306 11.7929 98.8489 11.799 98.8672 11.8049L101.975 2.29999ZM110.875 7.39999L104.108 14.7633C104.141 14.7932 104.174 14.8229 104.207 14.8524L110.875 7.39999ZM116.775 15.8L107.555 19.6723C107.577 19.7242 107.599 19.7759 107.621 19.8274L116.775 15.8ZM116.775 68.4L107.592 64.4391C107.58 64.4686 107.567 64.4981 107.555 64.5277L116.775 68.4ZM110.875 76.8L117.531 84.263C117.535 84.2594 117.539 84.2559 117.543 84.2524L110.875 76.8ZM101.975 81.8L98.8672 72.295C98.8489 72.301 98.8306 72.3071 98.8123 72.3132L101.975 81.8ZM93.6746 66.1L96.4218 75.7152H96.4218L93.6746 66.1ZM96.1746 64.7L89.7728 57.0178C89.6625 57.1097 89.5541 57.204 89.4479 57.3006L96.1746 64.7ZM98.0746 62.1L89.1303 57.6279C89.054 57.7806 88.9815 57.9353 88.913 58.0918L98.0746 62.1ZM98.0746 22.1L88.913 26.1082C88.9815 26.2647 89.054 26.4194 89.1303 26.5721L98.0746 22.1ZM96.1746 19.5L89.4479 26.8994C89.5541 26.996 89.6625 27.0903 89.7728 27.1822L96.1746 19.5ZM93.6746 18.1L90.3112 27.5174C90.5144 27.59 90.7199 27.656 90.9274 27.7152L93.6746 18.1ZM88.2746 18.1L91.0218 27.7152C91.2293 27.656 91.4348 27.59 91.638 27.5174L88.2746 18.1ZM85.6746 19.5L79.2728 11.8178C79.1625 11.9097 79.0541 12.004 78.9479 12.1006L85.6746 19.5ZM83.7746 22.1L74.8303 17.6279C74.754 17.7806 74.6815 17.9353 74.613 18.0918L83.7746 22.1ZM83.7746 62.1L74.613 66.1082C74.6815 66.2647 74.754 66.4194 74.8303 66.5721L83.7746 62.1ZM85.6746 64.7L78.9479 72.0994C79.0541 72.196 79.1625 72.2903 79.2728 72.3822L85.6746 64.7ZM88.2746 66.1L85.5274 75.7152H85.5274L88.2746 66.1ZM90.9746 73.5C88.014 73.5 85.3698 73.0757 82.982 72.295L76.7672 91.305C81.3128 92.791 86.0686 93.5 90.9746 93.5V73.5ZM83.0369 72.3132C80.7987 71.5671 79.0054 70.5296 77.5315 69.2497L64.4177 84.3503C68.0105 87.4704 72.1505 89.7662 76.7123 91.2868L83.0369 72.3132ZM77.7409 69.4367C76.3777 68.1841 75.1868 66.5523 74.2278 64.3726L55.9215 72.4274C57.8957 76.9144 60.6382 80.8826 64.2084 84.1633L77.7409 69.4367ZM74.3214 64.5925C73.5062 62.6129 72.9746 60.0453 72.9746 56.7H52.9746C52.9746 62.1547 53.843 67.3871 55.8278 72.2075L74.3214 64.5925ZM72.9746 56.7V27.4H52.9746V56.7H72.9746ZM72.9746 27.4C72.9746 24.0485 73.5081 21.5444 74.2944 19.6723L55.8548 11.9277C53.8411 16.7222 52.9746 21.9515 52.9746 27.4H72.9746ZM74.2278 19.8274C75.1868 17.6477 76.3777 16.0159 77.7409 14.7633L64.2084 0.0367241C60.6382 3.3174 57.8957 7.28564 55.9215 11.7726L74.2278 19.8274ZM77.6426 14.8524C79.1037 13.5451 80.8605 12.5123 83.0369 11.7868L76.7123 -7.18684C72.0887 -5.64564 67.9122 -3.27842 64.3067 -0.0524216L77.6426 14.8524ZM82.982 11.805C85.3698 11.0243 88.014 10.6 90.9746 10.6V-9.4C86.0686 -9.4 81.3128 -8.691 76.7672 -7.20496L82.982 11.805ZM90.9746 10.6C93.9374 10.6 96.5264 11.0249 98.8123 11.7868L105.137 -7.18684C100.623 -8.69153 95.8785 -9.4 90.9746 -9.4V10.6ZM98.8672 11.8049C101.097 12.534 102.785 13.5471 104.108 14.7633L117.641 0.0367146C114.031 -3.2804 109.785 -5.66734 105.082 -7.20496L98.8672 11.8049ZM104.207 14.8524C105.565 16.0675 106.692 17.6181 107.555 19.6723L125.994 11.9277C124.057 7.31526 121.251 3.26581 117.543 -0.0524139L104.207 14.8524ZM107.621 19.8274C108.426 21.6559 108.975 24.1038 108.975 27.4H128.975C128.975 21.8962 128.057 16.6107 125.928 11.7726L107.621 19.8274ZM108.975 27.4V56.7H128.975V27.4H108.975ZM108.975 56.7C108.975 59.99 108.428 62.5024 107.592 64.4391L125.957 72.3609C128.055 67.4976 128.975 62.21 128.975 56.7H108.975ZM107.555 64.5277C106.692 66.5819 105.565 68.1325 104.207 69.3476L117.543 84.2524C121.251 80.9342 124.057 76.8847 125.994 72.2723L107.555 64.5277ZM104.218 69.337C102.883 70.5279 101.159 71.5457 98.8672 72.295L105.082 91.305C109.723 89.7876 113.933 87.4721 117.531 84.263L104.218 69.337ZM98.8123 72.3132C96.5264 73.0751 93.9374 73.5 90.9746 73.5V93.5C95.8785 93.5 100.623 92.7915 105.137 91.2868L98.8123 72.3132ZM90.9746 76.5C92.8742 76.5 94.7006 76.207 96.4218 75.7152L90.9274 56.4848C90.8537 56.5058 90.8236 56.5095 90.8341 56.508C90.8454 56.5063 90.8938 56.5 90.9746 56.5V76.5ZM96.4218 75.7152C98.8663 75.0168 101.054 73.7785 102.901 72.0994L89.4479 57.3006C89.8282 56.9549 90.3496 56.6498 90.9274 56.4848L96.4218 75.7152ZM102.576 72.3822C104.704 70.6095 106.222 68.4274 107.236 66.1082L88.913 58.0918C88.9944 57.9059 89.2456 57.4571 89.7728 57.0178L102.576 72.3822ZM107.019 66.5721C108.442 63.7259 108.875 60.7465 108.875 58.1H88.8746C88.8746 58.3535 88.8527 58.4192 88.8688 58.3388C88.8859 58.2534 88.9485 57.9916 89.1303 57.6279L107.019 66.5721ZM108.875 58.1V26H88.8746V58.1H108.875ZM108.875 26C108.875 23.3436 108.416 20.422 107.019 17.6279L89.1303 26.5721C88.8 25.9114 88.8746 25.5897 88.8746 26H108.875ZM107.236 18.0918C106.222 15.7725 104.704 13.5905 102.576 11.8178L89.7728 27.1822C89.2456 26.7429 88.9944 26.2941 88.913 26.1082L107.236 18.0918ZM102.901 12.1006C101.054 10.4215 98.8663 9.18318 96.4218 8.48476L90.9274 27.7152C90.3496 27.5502 89.8282 27.2451 89.4479 26.8994L102.901 12.1006ZM97.038 8.68258C95.1779 8.01828 93.1392 7.6 90.9746 7.6V27.6C90.5434 27.6 90.3046 27.515 90.3112 27.5174L97.038 8.68258ZM90.9746 7.6C88.81 7.6 86.7713 8.01828 84.9112 8.68258L91.638 27.5174C91.6446 27.515 91.4059 27.6 90.9746 27.6V7.6ZM85.5274 8.48476C83.159 9.16146 81.064 10.3251 79.2728 11.8178L92.0765 27.1822C91.8853 27.3415 91.5236 27.5719 91.0218 27.7152L85.5274 8.48476ZM78.9479 12.1006C77.136 13.7477 75.8064 15.6756 74.8303 17.6279L92.7189 26.5721C92.8094 26.391 92.7465 26.5856 92.4013 26.8994L78.9479 12.1006ZM74.613 18.0918C73.4479 20.755 73.0746 23.5034 73.0746 26H93.0746C93.0746 25.7336 93.0954 25.6245 93.0923 25.6416C93.0887 25.6617 93.0556 25.8351 92.9362 26.1082L74.613 18.0918ZM73.0746 26V58.1H93.0746V26H73.0746ZM73.0746 58.1C73.0746 60.5953 73.4277 63.3988 74.613 66.1082L92.9362 58.0918C93.0034 58.2455 93.0445 58.3681 93.0684 58.45C93.0921 58.5315 93.0999 58.576 93.0999 58.5762C93.0999 58.5763 93.0933 58.5383 93.0869 58.457C93.0804 58.3758 93.0746 58.258 93.0746 58.1H73.0746ZM74.8303 66.5721C75.8064 68.5243 77.136 70.4522 78.9479 72.0994L92.4013 57.3006C92.7465 57.6144 92.8094 57.809 92.7189 57.6279L74.8303 66.5721ZM79.2728 72.3822C81.064 73.8749 83.159 75.0385 85.5274 75.7152L91.0218 56.4848C91.5236 56.6281 91.8853 56.8585 92.0765 57.0178L79.2728 72.3822ZM85.5274 75.7152C87.2486 76.207 89.0751 76.5 90.9746 76.5V56.5C91.0554 56.5 91.1039 56.5063 91.1151 56.508C91.1256 56.5095 91.0955 56.5058 91.0218 56.4848L85.5274 75.7152Z" fill="#DEE2E6"/>
</svg>
