<svg width="81" height="80" viewBox="0 0 81 80" fill="none" xmlns="http://www.w3.org/2000/svg">
<g clip-path="url(#clip0_549_1775)">
<path d="M30.4993 45.8327C22.6993 45.8327 7.16602 49.7327 7.16602 57.4994V63.3327H53.8327V57.4994C53.8327 49.7327 38.2993 45.8327 30.4993 45.8327ZM14.966 56.666C17.766 54.7327 24.5327 52.4994 30.4993 52.4994C36.466 52.4994 43.2327 54.7327 46.0327 56.666H14.966ZM30.4993 39.9993C36.9327 39.9993 42.166 34.766 42.166 28.3327C42.166 21.8993 36.9327 16.666 30.4993 16.666C24.066 16.666 18.8327 21.8993 18.8327 28.3327C18.8327 34.766 24.066 39.9993 30.4993 39.9993ZM30.4993 23.3327C33.266 23.3327 35.4993 25.566 35.4993 28.3327C35.4993 31.0993 33.266 33.3327 30.4993 33.3327C27.7327 33.3327 25.4993 31.0993 25.4993 28.3327C25.4993 25.566 27.7327 23.3327 30.4993 23.3327ZM53.966 46.0327C57.8327 48.8327 60.4993 52.566 60.4993 57.4994V63.3327H73.8327V57.4994C73.8327 50.766 62.166 46.9327 53.966 46.0327ZM50.4993 39.9993C56.9327 39.9993 62.166 34.766 62.166 28.3327C62.166 21.8993 56.9327 16.666 50.4993 16.666C48.6993 16.666 47.0327 17.0993 45.4993 17.8327C47.5993 20.7993 48.8327 24.4327 48.8327 28.3327C48.8327 32.2327 47.5993 35.866 45.4993 38.8327C47.0327 39.566 48.6993 39.9993 50.4993 39.9993Z" fill="#212529"/>
</g>
<defs>
<clipPath id="clip0_549_1775">
<rect width="80" height="80" fill="white" transform="translate(0.5)"/>
</clipPath>
</defs>
</svg>
