<svg width="80" height="80" viewBox="0 0 80 80" fill="none" xmlns="http://www.w3.org/2000/svg">
<g clip-path="url(#clip0_549_1732)">
<path d="M23.3333 50.0006H46.6667V56.6673H23.3333V50.0006ZM23.3333 36.6673H56.6667V43.334H23.3333V36.6673ZM23.3333 23.334H56.6667V30.0007H23.3333V23.334ZM63.3333 10.0007H49.4C48 6.13398 44.3333 3.33398 40 3.33398C35.6667 3.33398 32 6.13398 30.6 10.0007H16.6667C16.2 10.0007 15.7667 10.034 15.3333 10.134C14.0333 10.4007 12.8667 11.0673 11.9667 11.9673C11.3667 12.5673 10.8667 13.3007 10.5333 14.1007C10.2 14.8673 10 15.734 10 16.6673V63.334C10 64.234 10.2 65.134 10.5333 65.934C10.8667 66.734 11.3667 67.434 11.9667 68.0673C12.8667 68.9673 14.0333 69.634 15.3333 69.9007C15.7667 69.9673 16.2 70.0006 16.6667 70.0006H63.3333C67 70.0006 70 67.0006 70 63.334V16.6673C70 13.0007 67 10.0007 63.3333 10.0007ZM40 9.16732C41.3667 9.16732 42.5 10.3007 42.5 11.6673C42.5 13.034 41.3667 14.1673 40 14.1673C38.6333 14.1673 37.5 13.034 37.5 11.6673C37.5 10.3007 38.6333 9.16732 40 9.16732ZM63.3333 63.334H16.6667V16.6673H63.3333V63.334Z" fill="#212529"/>
</g>
<defs>
<clipPath id="clip0_549_1732">
<rect width="80" height="80" fill="white"/>
</clipPath>
</defs>
</svg>
