<svg width="81" height="80" viewBox="0 0 81 80" fill="none" xmlns="http://www.w3.org/2000/svg">
<path d="M75.5 16.25H5.5C4.50544 16.25 3.55161 16.6451 2.84835 17.3483C2.14509 18.0516 1.75 19.0054 1.75 20V60C1.75 60.9946 2.14509 61.9484 2.84835 62.6516C3.55161 63.3549 4.50544 63.75 5.5 63.75H75.5C76.4946 63.75 77.4484 63.3549 78.1516 62.6516C78.8549 61.9484 79.25 60.9946 79.25 60V20C79.25 19.0054 78.8549 18.0516 78.1516 17.3483C77.4484 16.6451 76.4946 16.25 75.5 16.25ZM57.1281 56.25H23.8719C23.1299 52.6507 21.3496 49.3477 18.751 46.749C16.1523 44.1504 12.8493 42.3701 9.25 41.6281V38.3719C12.8493 37.6299 16.1523 35.8496 18.751 33.251C21.3496 30.6523 23.1299 27.3493 23.8719 23.75H57.1281C57.8701 27.3493 59.6504 30.6523 62.249 33.251C64.8477 35.8496 68.1507 37.6299 71.75 38.3719V41.6281C68.1507 42.3701 64.8477 44.1504 62.249 46.749C59.6504 49.3477 57.8701 52.6507 57.1281 56.25ZM71.75 30.6063C70.1708 30.0425 68.7365 29.1349 67.5508 27.9492C66.3651 26.7635 65.4575 25.3292 64.8937 23.75H71.75V30.6063ZM16.1062 23.75C15.5425 25.3292 14.6349 26.7635 13.4492 27.9492C12.2635 29.1349 10.8292 30.0425 9.25 30.6063V23.75H16.1062ZM9.25 49.3937C10.8292 49.9575 12.2635 50.8651 13.4492 52.0508C14.6349 53.2365 15.5425 54.6708 16.1062 56.25H9.25V49.3937ZM64.8937 56.25C65.4575 54.6708 66.3651 53.2365 67.5508 52.0508C68.7365 50.8651 70.1708 49.9575 71.75 49.3937V56.25H64.8937ZM40.5 27.5C38.0277 27.5 35.611 28.2331 33.5554 29.6066C31.4998 30.9801 29.8976 32.9324 28.9515 35.2165C28.0054 37.5005 27.7579 40.0139 28.2402 42.4386C28.7225 44.8634 29.913 47.0907 31.6612 48.8388C33.4093 50.587 35.6366 51.7775 38.0614 52.2598C40.4861 52.7421 42.9995 52.4946 45.2835 51.5485C47.5676 50.6024 49.5199 49.0002 50.8934 46.9446C52.2669 44.889 53 42.4723 53 40C53 36.6848 51.683 33.5054 49.3388 31.1612C46.9946 28.817 43.8152 27.5 40.5 27.5ZM40.5 45C39.5111 45 38.5444 44.7068 37.7221 44.1573C36.8999 43.6079 36.259 42.827 35.8806 41.9134C35.5022 40.9998 35.4031 39.9945 35.5961 39.0245C35.789 38.0546 36.2652 37.1637 36.9645 36.4645C37.6637 35.7652 38.5546 35.289 39.5245 35.0961C40.4945 34.9031 41.4998 35.0022 42.4134 35.3806C43.327 35.759 44.1079 36.3999 44.6573 37.2221C45.2068 38.0444 45.5 39.0111 45.5 40C45.5 41.3261 44.9732 42.5979 44.0355 43.5355C43.0979 44.4732 41.8261 45 40.5 45Z" fill="#212529"/>
</svg>
