<svg width="81" height="80" viewBox="0 0 81 80" fill="none" xmlns="http://www.w3.org/2000/svg">
<g clip-path="url(#clip0_549_1793)">
<path d="M63.8333 10.0007H60.5V3.33398H53.8333V10.0007H27.1667V3.33398H20.5V10.0007H17.1667C13.4667 10.0007 10.5 13.0007 10.5 16.6673V63.334C10.5 67.0006 13.4667 70.0006 17.1667 70.0006H63.8333C67.5 70.0006 70.5 67.0006 70.5 63.334V16.6673C70.5 13.0007 67.5 10.0007 63.8333 10.0007ZM63.8333 63.334H17.1667V30.0007H63.8333V63.334ZM63.8333 23.334H17.1667V16.6673H63.8333V23.334ZM23.8333 36.6673H40.5V53.334H23.8333V36.6673Z" fill="#212529"/>
</g>
<defs>
<clipPath id="clip0_549_1793">
<rect width="80" height="80" fill="white" transform="translate(0.5)"/>
</clipPath>
</defs>
</svg>
