<svg width="81" height="80" viewBox="0 0 81 80" fill="none" xmlns="http://www.w3.org/2000/svg">
<g clip-path="url(#clip0_549_1756)">
<path d="M70.5 24.2667V16.6667C70.5 13 67.5 10 63.8333 10H17.1667C13.4667 10 10.5 13 10.5 16.6667V63.3333C10.5 67 13.4667 70 17.1667 70H63.8333C67.5 70 70.5 67 70.5 63.3333V55.7333C72.4667 54.5667 73.8333 52.4667 73.8333 50V30C73.8333 27.5333 72.4667 25.4333 70.5 24.2667ZM67.1667 30V50H43.8333V30H67.1667ZM17.1667 63.3333V16.6667H63.8333V23.3333H43.8333C40.1667 23.3333 37.1667 26.3333 37.1667 30V50C37.1667 53.6667 40.1667 56.6667 43.8333 56.6667H63.8333V63.3333H17.1667Z" fill="#212529"/>
<path d="M53.834 45C56.5954 45 58.834 42.7614 58.834 40C58.834 37.2386 56.5954 35 53.834 35C51.0726 35 48.834 37.2386 48.834 40C48.834 42.7614 51.0726 45 53.834 45Z" fill="#212529"/>
</g>
<defs>
<clipPath id="clip0_549_1756">
<rect width="80" height="80" fill="white" transform="translate(0.5)"/>
</clipPath>
</defs>
</svg>
