<svg width="200" height="34" viewBox="0 0 200 34" fill="none" xmlns="http://www.w3.org/2000/svg">
<path d="M101.995 12.7713H94.2606C94.0054 12.7713 93.7988 12.5707 93.7988 12.3156V7.89827C93.7988 7.64308 94.0054 7.43652 94.2606 7.43652H98.125L98.8663 7.44865H114.627C114.883 7.44865 115.089 7.65524 115.089 7.91043V12.3277C115.089 12.5829 114.883 12.7895 114.627 12.7895H110.277L107.324 12.7652V26.6064L102.001 28.9882V12.7713H101.995Z" fill="white"/>
<path d="M75.1819 29.1101C73.2437 29.1101 71.6882 28.5025 70.4305 27.2448C69.835 26.6493 69.3793 25.9506 69.0694 25.1729C68.7596 24.383 68.6016 23.4837 68.6016 22.4994V13.9626C68.6016 12.9722 68.7596 12.0669 69.0694 11.2648C69.3793 10.475 69.835 9.77015 70.4305 9.18078C71.6821 7.92911 73.2376 7.31543 75.1819 7.31543H83.2995C84.217 7.31543 85.0858 7.51593 85.8818 7.91087C86.696 8.31796 87.419 8.86479 88.0266 9.53316C88.6221 10.2137 89.096 11.0218 89.4241 11.9211C89.7522 12.8325 89.9163 13.7925 89.9163 14.7889V19.1637C89.9163 19.352 89.8616 19.431 89.8069 19.4918C89.7462 19.5465 89.6732 19.6011 89.5152 19.6011L74.3009 19.5647V22.147C74.3009 22.6756 74.4102 23.1313 74.629 23.4959C74.8356 23.8483 75.0968 24.1278 75.3946 24.3283C75.668 24.5106 75.9596 24.6442 76.2573 24.7232C76.549 24.7961 76.786 24.8326 76.9865 24.8326H82.1207C82.5035 24.8326 82.8863 24.784 83.2509 24.6868C83.5547 24.6078 84.2534 24.2919 84.2534 23.1556V23.0888C84.2534 22.943 84.2959 22.864 84.3628 22.7971C84.4418 22.7182 84.5268 22.6878 84.6544 22.6878H89.5092C89.6368 22.6878 89.7218 22.7182 89.8008 22.8032C89.8798 22.8883 89.9102 22.9673 89.9102 23.0949V23.5445C89.9102 24.5166 89.7522 25.3551 89.4423 26.0235C89.1325 26.698 88.695 27.2509 88.1117 27.7127C87.5223 28.1805 86.8114 28.5329 86.0094 28.7577C85.177 28.9947 84.2656 29.1101 83.2995 29.1101H75.1819ZM76.9865 11.6233C76.1601 11.6233 75.4675 11.9514 74.9814 12.5651C74.5318 13.1363 74.3009 13.9201 74.3009 14.8983V15.6396H84.2534V14.8983C84.2534 13.9201 84.0225 13.1363 83.5729 12.5651C83.0868 11.9514 82.3942 11.6233 81.5678 11.6233H76.9865Z" fill="white"/>
<path d="M163.478 29.3956C163.326 29.3956 163.204 29.3531 163.089 29.262C162.888 29.1101 162.658 28.867 162.402 28.5511L159.516 25.0816H156.065V28.8731C156.065 29.0614 156.004 29.1161 155.974 29.1465C155.919 29.2012 155.846 29.2498 155.694 29.2498H151.071C150.925 29.2498 150.864 29.2073 150.821 29.1647C150.797 29.1161 150.736 28.8913 150.736 27.9678V10.2622C150.736 9.81257 151.04 8.88902 151.696 8.32395C152.377 7.74065 153.197 7.45508 154.218 7.45508H162.354C163.818 7.45508 165.179 7.59483 166.388 7.87433C167.549 8.14167 168.576 8.60954 169.432 9.25968C170.277 9.90374 170.939 10.7361 171.401 11.7326C171.869 12.7412 172.106 14.0172 172.106 15.5241V17.2132C172.106 19.6922 171.662 20.7312 170.66 22.1105C169.7 23.435 168.357 24.2917 166.564 24.7292L165.422 25.0027L168.977 29.3896H163.49L163.478 29.3956ZM156.059 20.9317H161.661C162.809 20.9317 163.684 20.8224 164.328 20.6036C165.015 20.3727 165.544 20.0386 165.902 19.6254C166.279 19.115 166.425 18.5925 166.522 18.1489L166.534 18.082C166.595 17.7843 166.595 17.7843 166.601 17.7114L166.619 17.5656V15.8947C166.619 15.1716 166.534 14.5337 166.364 13.999C166.163 13.361 165.775 12.8688 165.216 12.5225C164.748 12.2126 164.116 11.9817 163.35 11.848C162.645 11.7265 161.746 11.6718 160.677 11.6718H156.053V20.9256L156.059 20.9317Z" fill="white"/>
<path d="M45.0925 28.9029L45.0682 24.589V14.9828L49.6738 12.923V19.9894L50.4333 20.0016H54.3098C55.8288 20.0016 57.2506 19.4001 58.3078 18.3003C59.365 17.2066 59.918 15.7605 59.8633 14.2415C59.76 11.2885 57.2081 8.8885 54.1822 8.8885H41.4043V4.26465H54.3098C59.918 4.26465 64.481 8.83382 64.481 14.442C64.481 20.0502 59.918 24.6133 54.3098 24.6133H49.6859V28.8786L49.6616 28.9029H45.0985H45.0925Z" fill="white"/>
<path d="M126.602 28.9029L126.578 24.5768V14.9828L131.184 12.923V19.9894L131.943 20.0016H135.82C137.339 20.0016 138.76 19.4001 139.818 18.3003C140.875 17.2066 141.428 15.7666 141.373 14.2415C141.27 11.2885 138.718 8.8885 135.692 8.8885H122.914V4.26465H135.82C141.428 4.26465 145.991 8.83382 145.991 14.442C145.991 20.0502 141.428 24.6133 135.82 24.6133H131.196V28.8786L131.171 28.9029H126.608H126.602Z" fill="white"/>
<path d="M184.66 29.3101C180.133 29.3101 176.451 25.7313 176.451 21.3323V15.2806C176.451 10.8815 180.133 7.30273 184.66 7.30273H190.87C195.396 7.30273 199.078 10.8815 199.078 15.2806V21.3323C199.078 25.7313 195.396 29.3101 190.87 29.3101H184.66ZM186.3 12.0238C183.56 12.0238 181.336 14.199 181.336 16.8786V19.7343C181.336 22.4138 183.566 24.589 186.3 24.589H189.229C191.969 24.589 194.193 22.4138 194.193 19.7343V16.8786C194.193 14.199 191.963 12.0238 189.229 12.0238H186.3Z" fill="white"/>
<path d="M19.3406 16.2047C18.1983 15.9252 16.9831 16.4295 16.2965 17.3834C14.6013 19.7288 12.9426 24.1825 14.0666 27.099C14.4191 28.0104 15.4945 28.7152 16.5882 28.8732C17.2019 28.9583 17.9614 28.7335 18.5508 28.539C19.371 28.2656 20.0151 27.816 20.2946 27.4939C20.5741 27.1719 20.89 26.6311 21.1999 26.5218C21.5159 26.4246 22.087 26.6554 22.5063 26.7405C22.9255 26.8256 23.7093 26.7891 24.5235 26.5096C25.1129 26.3091 25.8541 26.0235 26.2855 25.58C27.0572 24.7901 27.4582 23.581 27.203 22.6392C26.4253 19.7531 22.5245 16.9945 19.3406 16.2168V16.2047Z" fill="white"/>
<path d="M5.71252 17.9428C4.93478 19.1883 5.85227 20.7013 6.77582 21.558C7.74799 22.4694 8.64723 22.9433 9.99003 22.761C11.187 22.597 11.9222 21.716 11.503 20.4582C11.1567 19.4192 10.0022 18.3863 9.12116 17.7605C8.21583 17.1164 6.63 16.7822 5.71252 17.9367V17.9428Z" fill="white"/>
<path d="M28.4484 10.4083C29.8095 10.9491 29.9735 12.7051 29.7487 13.9507C29.5057 15.257 29.0682 16.1806 27.8773 16.8246C26.814 17.4019 25.7021 17.1345 25.2889 15.8768C24.9486 14.8378 25.2646 13.3188 25.5988 12.2919C25.9451 11.2347 27.0145 10.0256 28.4484 10.4083Z" fill="white"/>
<path d="M9.72219 9.34444C8.37939 10.5779 9.19357 12.5648 9.75864 13.6159C10.4452 14.8919 11.5815 16.3562 13.1855 16.3197C16.3694 16.2529 14.5891 11.0761 13.3435 9.72724C12.9425 9.28976 12.3531 8.84621 11.7698 8.74292C11.0468 8.60925 10.828 8.66393 9.72219 9.35052V9.34444Z" fill="white"/>
<path d="M18.4358 6.11234C16.771 6.96906 16.8439 8.46984 17.2206 9.98885C17.5183 11.1798 18.0105 12.8628 19.1224 13.5312C20.368 14.2785 21.9174 13.4887 22.3913 12.1823C22.8774 10.8456 22.7498 9.15644 22.2212 7.86224C21.7533 6.71995 20.447 5.37714 18.4297 6.11234H18.4358Z" fill="white"/>
<path d="M25.5273 31.9289C25.1141 32.0747 24.6949 32.2084 24.2878 32.342L24.1602 32.3846C23.7409 32.5183 23.3278 32.6641 22.9146 32.8099C21.5171 33.296 20.0649 33.8003 18.4548 33.9461C14.2076 34.3289 10.9448 32.6701 8.75745 29.0184C8.04655 27.8275 7.01971 26.9648 5.53716 26.3086C1.89762 24.7045 -0.265452 21.5267 0.0261973 18.2153C0.287467 15.238 1.71533 13.1782 4.16397 12.2C3.93308 11.082 3.93308 9.66632 3.93308 9.64202C4.10928 7.09616 5.7802 4.59889 8.08302 3.43229C9.71747 2.59988 11.4431 2.52697 13.0228 3.20748C13.2598 2.89153 13.6061 2.49657 14.0922 1.97403L14.1104 1.95582C16.4011 -0.504968 20.1986 -0.66293 23.1455 1.59128C23.3764 1.76748 24.0873 2.55127 24.0933 2.55734C24.3182 2.80646 24.4944 3.00698 24.628 3.17711C28.4256 3.18926 30.303 4.04597 32.4357 6.65258C35.3522 10.2192 34.6049 15.1286 33.7907 18.5069C33.6753 18.9748 33.5537 19.4487 33.4261 19.9166C33.1466 20.9616 32.861 22.0492 32.7152 23.1004C32.3507 25.7009 31.2327 28.0341 29.5618 29.6564C28.383 30.7987 26.9673 31.4306 25.5273 31.9349V31.9289ZM6.23588 24.6984C8.04654 25.4944 9.35896 26.6123 10.2582 28.1131C12.1175 31.224 14.6694 32.5183 18.2847 32.1962C19.6821 32.0686 20.9703 31.6251 22.3252 31.1511C22.7506 31.0053 23.1759 30.8534 23.6073 30.7137L23.7409 30.6711C25.4726 30.1121 27.1131 29.5835 28.3344 28.3987C29.7258 27.0438 30.6615 25.0812 30.9714 22.8634C31.1355 21.709 31.4332 20.5728 31.7248 19.473C31.8464 19.0112 31.9679 18.5555 32.0773 18.0998C32.8064 15.0861 33.4929 10.7296 31.0686 7.77059C29.3187 5.63183 28.0124 4.88446 24.142 4.94522C23.7531 4.94522 23.4067 4.70218 23.2913 4.33762C23.0422 4.00951 22.2584 3.17103 22.0579 2.98267C20.1622 1.54266 17.276 1.14771 15.3985 3.16495L15.3743 3.18924C14.7423 3.86368 14.4203 4.27688 14.2866 4.47131C14.2745 4.61106 14.232 4.75688 14.153 4.88447C13.8917 5.29157 13.3509 5.41917 12.9438 5.1579C11.3337 4.14928 9.84506 4.51989 8.87898 5.01205C7.14123 5.89307 5.82881 7.84347 5.68906 9.75742C5.68906 10.122 5.81665 11.641 5.95033 12.1696C6.04147 12.2729 6.11435 12.3944 6.15081 12.5342C6.2784 13.002 5.99893 13.482 5.53108 13.6096C3.23434 14.2172 2.01307 15.7788 1.78218 18.3793C1.50876 21.4781 4.01815 23.7262 6.25413 24.7045L6.23588 24.6984Z" fill="white"/>
</svg>
