<svg width="87" height="118" viewBox="0 0 87 118" fill="none" xmlns="http://www.w3.org/2000/svg">
<g filter="url(#filter0_d_463_671)">
<path d="M60.1577 80.5966C60.5694 80.0435 60.8137 77.934 60.8137 76.3519C60.8137 71.2198 63.1933 66.7694 69.5988 57.9972C76.0043 49.2121 78.0109 30.7415 66.6662 17.9434C56.5048 6.48289 45.3273 6.72728 43.115 6.92022C40.8897 6.74014 29.7122 6.48289 19.5637 17.9434C8.21902 30.7544 10.2256 49.2121 16.6311 57.9972C23.0366 66.7822 25.4162 71.2327 25.4162 76.3519C25.4162 77.9469 25.6606 80.0435 26.0722 80.5966" fill="#FFF9AE"/>
<path d="M60.1577 80.5966C60.5693 80.0435 60.8137 77.934 60.8137 76.3519C60.8137 71.2198 63.1933 66.7694 69.5988 57.9972C76.0043 49.2121 78.0109 30.7415 66.6662 17.9434C56.5048 6.48289 45.3273 6.72728 43.115 6.92022C40.8897 6.74014 29.7122 6.48289 19.5637 17.9434C8.21902 30.7544 10.2256 49.2121 16.6311 57.9972C23.0366 66.7822 25.4162 71.2327 25.4162 76.3519C25.4162 77.9469 25.6606 80.0435 26.0722 80.5966" stroke="#002C8E" stroke-width="1.5" stroke-linecap="round" stroke-linejoin="round"/>
<path d="M38.0342 75.9404C38.0342 55.3346 32.5805 48.1188 30.8955 41.083H55.3085C53.6364 48.1188 48.1827 55.3346 48.1827 75.9404" fill="white"/>
<path d="M38.0342 75.9404C38.0342 55.3346 32.5805 48.1188 30.8955 41.083H55.3085C53.6364 48.1188 48.1827 55.3346 48.1827 75.9404" stroke="#002C8E" stroke-width="1.5" stroke-linecap="round" stroke-linejoin="round"/>
<path d="M25.8018 80.6865V94.9896C25.8018 102.733 32.0787 109.023 39.8347 109.023H46.3817C54.1378 109.023 60.4147 102.746 60.4147 94.9896V80.6865H25.8018Z" fill="#88C9FF" stroke="#002C8E" stroke-width="1.5"/>
<path d="M26.1362 92.2246H60.0803" stroke="#002C8E" stroke-width="1.5"/>
<path d="M65.6242 77.0726C65.6242 79.2078 63.9006 80.9314 61.7654 80.9314H24.4642C22.329 80.9314 20.6055 79.2078 20.6055 77.0726C20.6055 74.9374 22.329 73.2139 24.4642 73.2139H61.7654C63.9006 73.2139 65.6242 74.9374 65.6242 77.0726Z" fill="#88C9FF" stroke="#002C8E" stroke-width="1.5"/>
<path d="M14.1743 6.75293H72.0555" stroke="#002C8E" stroke-width="1.5" stroke-linecap="round" stroke-linejoin="round"/>
<path d="M15.6536 1.40234H4.96484V12.0911H15.6536V1.40234Z" fill="white" stroke="#002C8E" stroke-width="1.5" stroke-linecap="round" stroke-linejoin="round"/>
<path d="M81.2522 1.40234H70.5635V12.0911H81.2522V1.40234Z" fill="white" stroke="#002C8E" stroke-width="1.5" stroke-linecap="round" stroke-linejoin="round"/>
<path d="M43.1148 12.5411C46.3115 12.5411 48.9029 9.94965 48.9029 6.75296C48.9029 3.55627 46.3115 0.964844 43.1148 0.964844C39.9181 0.964844 37.3267 3.55627 37.3267 6.75296C37.3267 9.94965 39.9181 12.5411 43.1148 12.5411Z" fill="#FFADAD" stroke="#002C8E" stroke-width="1.5" stroke-linecap="round" stroke-linejoin="round"/>
</g>
<defs>
<filter id="filter0_d_463_671" x="0.214844" y="0.214844" width="85.7876" height="117.558" filterUnits="userSpaceOnUse" color-interpolation-filters="sRGB">
<feFlood flood-opacity="0" result="BackgroundImageFix"/>
<feColorMatrix in="SourceAlpha" type="matrix" values="0 0 0 0 0 0 0 0 0 0 0 0 0 0 0 0 0 0 127 0" result="hardAlpha"/>
<feOffset dy="4"/>
<feGaussianBlur stdDeviation="2"/>
<feComposite in2="hardAlpha" operator="out"/>
<feColorMatrix type="matrix" values="0 0 0 0 0 0 0 0 0 0 0 0 0 0 0 0 0 0 0.25 0"/>
<feBlend mode="normal" in2="BackgroundImageFix" result="effect1_dropShadow_463_671"/>
<feBlend mode="normal" in="SourceGraphic" in2="effect1_dropShadow_463_671" result="shape"/>
</filter>
</defs>
</svg>
