<svg width="100" height="100" viewBox="0 0 100 100" fill="none" xmlns="http://www.w3.org/2000/svg">
<path d="M67.054 94.0156H32.3503L37.8413 74.1289H61.5775L67.054 94.0156Z" fill="#C5E7F7" stroke="#002C8E" stroke-width="1.5" stroke-linecap="round" stroke-linejoin="round"/>
<path d="M12.0569 1.08984H87.362C93.4195 1.08984 98.3295 5.99978 98.3295 12.0573V64.3961C98.3295 70.4536 93.4195 75.3635 87.362 75.3635H12.0569C5.99941 75.3635 1.08948 70.4536 1.08948 64.3961V12.0573C1.08948 5.99978 5.99941 1.08984 12.0569 1.08984Z" fill="#C5E7F7" stroke="#002C8E" stroke-width="1.5" stroke-linecap="round" stroke-linejoin="round"/>
<path d="M75.6392 95.671C75.6392 97.4578 74.1865 98.9104 72.3998 98.9104H27.0047C25.2179 98.9104 23.7653 97.4578 23.7653 95.671C23.7653 93.8843 25.2179 92.4316 27.0047 92.4316H72.3998C74.1865 92.4316 75.6392 93.8843 75.6392 95.671Z" fill="#C5E7F7" stroke="#002C8E" stroke-width="1.5" stroke-linecap="round" stroke-linejoin="round"/>
<path d="M69.9158 22.1533C69.3638 22.1533 68.8118 22.2405 68.2743 22.3712V55.3462C68.8118 55.477 69.3493 55.5641 69.9158 55.5641C75.7409 55.5641 80.462 48.083 80.462 38.8587C80.462 29.6344 75.7409 22.1533 69.9158 22.1533Z" fill="white" stroke="#002C8E" stroke-width="1.5"/>
<path d="M19.3492 30.1279V47.5887H34.4713V30.1279H19.3492Z" fill="white" stroke="#002C8E" stroke-width="1.5"/>
<path d="M62.1005 13.1462C58.0912 18.245 46.5136 30.1276 37.5508 30.1276H34.4567V47.5884H37.5508C46.4991 47.5884 58.0767 59.471 62.1005 64.5698C66.1098 69.6686 68.2742 67.1991 68.2742 67.1991V10.5315C68.2742 10.5315 66.1098 8.06197 62.1005 13.1608V13.1462Z" fill="#FFF9AE" stroke="#002C8E" stroke-width="1.5" stroke-linecap="round" stroke-linejoin="round"/>
</svg>
