<svg width="110" height="110" viewBox="0 0 110 110" fill="none" xmlns="http://www.w3.org/2000/svg">
<path d="M54.9373 48.8389L48.8301 54.9482L93.8613 99.9638L99.9686 93.8544L54.9373 48.8389Z" fill="#9AE2B9" stroke="#002C8E" stroke-width="1.5" stroke-linecap="round" stroke-linejoin="round"/>
<path d="M70.8325 83.2079L94.7354 107.111C97.0354 109.397 100.554 109.589 102.607 107.535L107.563 102.579C109.617 100.54 109.425 97.0075 107.139 94.7213L83.2358 70.8184L70.8462 83.1942L70.8325 83.2079Z" fill="#C5E7F7" stroke="#002C8E" stroke-width="1.5" stroke-linecap="round" stroke-linejoin="round"/>
<path d="M63.3169 11.7188C77.5683 25.9702 77.5683 49.0791 63.3169 63.3305C49.0655 77.5819 25.9566 77.5819 11.7052 63.3305C-2.54625 49.0791 -2.54625 25.9839 11.7052 11.7188C25.9566 -2.53258 49.0655 -2.53258 63.3169 11.7188Z" fill="#FFEFDE" stroke="#002C8E" stroke-width="1.5" stroke-linecap="round" stroke-linejoin="round"/>
<path d="M63.7138 37.5114C63.7138 51.9819 51.9814 63.7143 37.5246 63.7143C23.0679 63.7143 11.3218 51.9819 11.3218 37.5114C11.3218 23.041 23.0542 11.3223 37.5246 11.3223C51.9951 11.3223 63.7138 23.0547 63.7138 37.5114Z" fill="#FFF9AE" stroke="#002C8E" stroke-width="1.5" stroke-linecap="round" stroke-linejoin="round"/>
<path d="M41.0156 37.5105H34.02C32.6236 37.5105 31.4873 36.3742 31.4873 34.9641V30.7202C31.4873 29.3101 32.6236 28.1738 34.02 28.1738H41.0156C42.4257 28.1738 43.562 29.3101 43.562 30.7202" fill="#FFF9AE"/>
<path d="M41.0156 37.5105H34.02C32.6236 37.5105 31.4873 36.3742 31.4873 34.9641V30.7202C31.4873 29.3101 32.6236 28.1738 34.02 28.1738H41.0156C42.4257 28.1738 43.562 29.3101 43.562 30.7202" stroke="#002C8E" stroke-width="1.5" stroke-linecap="round" stroke-linejoin="round"/>
<path d="M34.02 37.5107H41.0156C42.4257 37.5107 43.562 38.647 43.562 40.0571V44.301C43.562 45.7111 42.4257 46.8474 41.0156 46.8474H34.0063C32.6099 46.8474 31.4736 45.7111 31.4736 44.301" fill="#FFF9AE"/>
<path d="M34.02 37.5107H41.0156C42.4257 37.5107 43.562 38.647 43.562 40.0571V44.301C43.562 45.7111 42.4257 46.8474 41.0156 46.8474H34.0063C32.6099 46.8474 31.4736 45.7111 31.4736 44.301" stroke="#002C8E" stroke-width="1.5" stroke-linecap="round" stroke-linejoin="round"/>
<path d="M37.5247 27.2845V21.877" stroke="#002C8E" stroke-width="1.5" stroke-linecap="round" stroke-linejoin="round"/>
<path d="M37.5247 53.1586V47.751" stroke="#002C8E" stroke-width="1.5" stroke-linecap="round" stroke-linejoin="round"/>
<path d="M91.4773 38.962C96.1575 38.962 99.9515 35.168 99.9515 30.4878C99.9515 25.8077 96.1575 22.0137 91.4773 22.0137C86.7972 22.0137 83.0032 25.8077 83.0032 30.4878C83.0032 35.168 86.7972 38.962 91.4773 38.962Z" fill="#FFF9AE" stroke="#002C8E" stroke-width="1.5" stroke-linecap="round" stroke-linejoin="round"/>
<path d="M23.7112 102.621C28.3914 102.621 32.1854 98.8272 32.1854 94.147C32.1854 89.4669 28.3914 85.6729 23.7112 85.6729C19.0311 85.6729 15.2371 89.4669 15.2371 94.147C15.2371 98.8272 19.0311 102.621 23.7112 102.621Z" fill="#FFF9AE" stroke="#002C8E" stroke-width="1.5" stroke-linecap="round" stroke-linejoin="round"/>
<path d="M58.7032 90.9707H51.5159" stroke="#002C8E" stroke-width="1.5"/>
<path d="M45.191 90.9707H38.0037" stroke="#002C8E" stroke-width="1.5"/>
<path d="M48.3535 80.6211V87.8084" stroke="#002C8E" stroke-width="1.5"/>
<path d="M48.3535 94.1465V101.334" stroke="#002C8E" stroke-width="1.5"/>
</svg>
