<svg width="301" height="301" viewBox="0 0 301 301" fill="none" xmlns="http://www.w3.org/2000/svg">
<rect x="0.863281" y="0.703125" width="300" height="300" fill="#F1F3F5"/>
<path d="M166.832 135.734H135.895C135.149 135.734 134.433 136.031 133.906 136.558C133.378 137.086 133.082 137.801 133.082 138.547V163.859C133.082 164.605 133.378 165.321 133.906 165.848C134.433 166.376 135.149 166.672 135.895 166.672H166.832C167.578 166.672 168.293 166.376 168.821 165.848C169.348 165.321 169.645 164.605 169.645 163.859V138.547C169.645 137.801 169.348 137.086 168.821 136.558C168.293 136.031 167.578 135.734 166.832 135.734ZM166.832 138.547V156.608L162.249 152.028C161.988 151.766 161.678 151.559 161.337 151.418C160.996 151.276 160.63 151.204 160.26 151.204C159.891 151.204 159.525 151.276 159.184 151.418C158.843 151.559 158.533 151.766 158.271 152.028L154.756 155.543L147.021 147.809C146.494 147.282 145.779 146.986 145.033 146.986C144.288 146.986 143.573 147.282 143.045 147.809L135.895 154.96V138.547H166.832ZM135.895 158.938L145.035 149.797L159.098 163.859H135.895V158.938ZM166.832 163.859H163.076L156.747 157.531L160.263 154.016L166.832 160.586V163.859ZM154.176 146.281C154.176 145.864 154.299 145.456 154.531 145.109C154.763 144.762 155.092 144.492 155.478 144.332C155.863 144.173 156.287 144.131 156.697 144.212C157.106 144.294 157.482 144.495 157.777 144.79C158.072 145.085 158.273 145.461 158.354 145.87C158.435 146.279 158.394 146.703 158.234 147.088C158.074 147.474 157.804 147.803 157.457 148.035C157.11 148.267 156.702 148.391 156.285 148.391C155.726 148.391 155.189 148.168 154.794 147.773C154.398 147.377 154.176 146.841 154.176 146.281Z" fill="black"/>
</svg>
