<svg width="20" height="20" viewBox="0 0 20 20" fill="none" xmlns="http://www.w3.org/2000/svg">
<path d="M15.2207 3.83984C13.3809 2 10.3848 2 8.54689 3.83984L3.44924 8.93359C3.41603 8.9668 3.39846 9.01172 3.39846 9.05859C3.39846 9.10547 3.41603 9.15039 3.44924 9.18359L4.16994 9.9043C4.20288 9.9371 4.24748 9.95551 4.29396 9.95551C4.34045 9.95551 4.38504 9.9371 4.41799 9.9043L9.51564 4.81055C10.1485 4.17773 10.9903 3.83008 11.8848 3.83008C12.7793 3.83008 13.6211 4.17773 14.252 4.81055C14.8848 5.44336 15.2324 6.28516 15.2324 7.17773C15.2324 8.07227 14.8848 8.91211 14.252 9.54492L9.05666 14.7383L8.21486 15.5801C7.42775 16.3672 6.14846 16.3672 5.36135 15.5801C4.98049 15.1992 4.7715 14.6934 4.7715 14.1543C4.7715 13.6152 4.98049 13.1094 5.36135 12.7285L10.5156 7.57617C10.6465 7.44727 10.8184 7.375 11.002 7.375H11.0039C11.1875 7.375 11.3574 7.44727 11.4863 7.57617C11.6172 7.70703 11.6875 7.87891 11.6875 8.0625C11.6875 8.24414 11.6153 8.41602 11.4863 8.54492L7.27346 12.7539C7.24025 12.7871 7.22267 12.832 7.22267 12.8789C7.22267 12.9258 7.24025 12.9707 7.27346 13.0039L7.99416 13.7246C8.0271 13.7574 8.0717 13.7758 8.11818 13.7758C8.16467 13.7758 8.20926 13.7574 8.24221 13.7246L12.4531 9.51367C12.8418 9.125 13.0547 8.60938 13.0547 8.06055C13.0547 7.51172 12.8399 6.99414 12.4531 6.60742C11.6504 5.80469 10.3457 5.80664 9.54299 6.60742L9.04299 7.10938L4.39064 11.7598C4.07488 12.0737 3.82459 12.4471 3.65427 12.8585C3.48395 13.2699 3.397 13.711 3.39846 14.1562C3.39846 15.0605 3.75197 15.9102 4.39064 16.5488C5.05275 17.209 5.91994 17.5391 6.78713 17.5391C7.65431 17.5391 8.5215 17.209 9.18166 16.5488L15.2207 10.5137C16.1094 9.62305 16.6016 8.4375 16.6016 7.17773C16.6035 5.91602 16.1113 4.73047 15.2207 3.83984Z" fill="#868E96"/>
</svg>
