<svg width="20" height="20" viewBox="0 0 20 20" fill="none" xmlns="http://www.w3.org/2000/svg">
<path d="M15.2207 3.84082C13.3809 2.00098 10.3848 2.00098 8.54689 3.84082L3.44924 8.93457C3.41603 8.96777 3.39846 9.01269 3.39846 9.05957C3.39846 9.10644 3.41603 9.15137 3.44924 9.18457L4.16994 9.90527C4.20288 9.93807 4.24748 9.95649 4.29396 9.95649C4.34045 9.95649 4.38504 9.93807 4.41799 9.90527L9.51564 4.81152C10.1485 4.17871 10.9903 3.83105 11.8848 3.83105C12.7793 3.83105 13.6211 4.17871 14.252 4.81152C14.8848 5.44434 15.2324 6.28613 15.2324 7.17871C15.2324 8.07324 14.8848 8.91309 14.252 9.5459L9.05666 14.7393L8.21486 15.5811C7.42775 16.3682 6.14846 16.3682 5.36135 15.5811C4.98049 15.2002 4.7715 14.6943 4.7715 14.1553C4.7715 13.6162 4.98049 13.1104 5.36135 12.7295L10.5156 7.57715C10.6465 7.44824 10.8184 7.37598 11.002 7.37598H11.0039C11.1875 7.37598 11.3574 7.44824 11.4863 7.57715C11.6172 7.70801 11.6875 7.87988 11.6875 8.06348C11.6875 8.24512 11.6153 8.41699 11.4863 8.5459L7.27346 12.7549C7.24025 12.7881 7.22267 12.833 7.22267 12.8799C7.22267 12.9268 7.24025 12.9717 7.27346 13.0049L7.99416 13.7256C8.0271 13.7584 8.0717 13.7768 8.11818 13.7768C8.16467 13.7768 8.20926 13.7584 8.24221 13.7256L12.4531 9.51465C12.8418 9.12598 13.0547 8.61035 13.0547 8.06152C13.0547 7.5127 12.8399 6.99512 12.4531 6.6084C11.6504 5.80566 10.3457 5.80762 9.54299 6.6084L9.04299 7.11035L4.39064 11.7607C4.07488 12.0746 3.82459 12.4481 3.65427 12.8595C3.48395 13.2709 3.397 13.712 3.39846 14.1572C3.39846 15.0615 3.75197 15.9111 4.39064 16.5498C5.05275 17.21 5.91994 17.54 6.78713 17.54C7.65431 17.54 8.5215 17.21 9.18166 16.5498L15.2207 10.5146C16.1094 9.62402 16.6016 8.43848 16.6016 7.17871C16.6035 5.91699 16.1113 4.73145 15.2207 3.84082Z" fill="#2962F6"/>
</svg>
