<svg width="25" height="25" viewBox="0 0 25 25" fill="none" xmlns="http://www.w3.org/2000/svg">
<path d="M4.31268 6.31313C6.33268 8.90313 10.0627 13.7031 10.0627 13.7031V19.7031C10.0627 20.2531 10.5127 20.7031 11.0627 20.7031H13.0627C13.6127 20.7031 14.0627 20.2531 14.0627 19.7031V13.7031C14.0627 13.7031 17.7827 8.90313 19.8027 6.31313C19.9173 6.1655 19.9881 5.98865 20.0072 5.80273C20.0262 5.61681 19.9926 5.42928 19.9103 5.2615C19.828 5.09371 19.7002 4.95242 19.5415 4.8537C19.3828 4.75498 19.1996 4.70281 19.0127 4.70313H5.10268C4.27268 4.70313 3.80268 5.65313 4.31268 6.31313Z" fill="black"/>
</svg>
