<svg width="300" height="52" viewBox="0 0 300 52" fill="none" xmlns="http://www.w3.org/2000/svg">
<path d="M153.701 19.2443H142.045C141.66 19.2443 141.349 18.9421 141.349 18.5576V11.9009C141.349 11.5163 141.66 11.2051 142.045 11.2051H147.868L148.985 11.2234H172.736C173.121 11.2234 173.432 11.5347 173.432 11.9192V18.5759C173.432 18.9605 173.121 19.2718 172.736 19.2718H166.181L161.731 19.2351V40.0932L153.71 43.6825V19.2443H153.701Z" fill="#031169"/>
<path d="M113.294 43.8651C110.373 43.8651 108.029 42.9495 106.133 41.0542C105.236 40.1568 104.549 39.1039 104.082 37.9319C103.616 36.7416 103.377 35.3864 103.377 33.9031V21.0385C103.377 19.546 103.616 18.1817 104.082 16.9731C104.549 15.7828 105.236 14.7206 106.133 13.8325C108.02 11.9463 110.364 11.0215 113.294 11.0215H125.527C126.909 11.0215 128.219 11.3236 129.418 11.9188C130.645 12.5323 131.734 13.3563 132.65 14.3635C133.547 15.389 134.262 16.6068 134.756 17.962C135.251 19.3354 135.498 20.7821 135.498 22.2837V28.8763C135.498 29.1601 135.415 29.2791 135.333 29.3707C135.241 29.4531 135.131 29.5355 134.893 29.5355L111.966 29.4806V33.372C111.966 34.1686 112.131 34.8554 112.46 35.4047C112.772 35.9358 113.166 36.357 113.614 36.6591C114.026 36.9338 114.466 37.1352 114.914 37.2543C115.354 37.3641 115.711 37.4191 116.013 37.4191H123.75C124.327 37.4191 124.904 37.3458 125.453 37.1993C125.911 37.0803 126.964 36.6042 126.964 34.892V34.7912C126.964 34.5715 127.028 34.4525 127.129 34.3517C127.248 34.2327 127.376 34.1869 127.568 34.1869H134.884C135.077 34.1869 135.205 34.2327 135.324 34.3609C135.443 34.4891 135.489 34.6081 135.489 34.8004V35.4779C135.489 36.9429 135.251 38.2065 134.784 39.2137C134.317 40.2301 133.657 41.0633 132.778 41.7592C131.89 42.4642 130.819 42.9953 129.61 43.3341C128.356 43.6912 126.982 43.8651 125.527 43.8651H113.294ZM116.013 17.5133C114.768 17.5133 113.724 18.0078 112.992 18.9325C112.314 19.7932 111.966 20.9744 111.966 22.4485V23.5656H126.964V22.4485C126.964 20.9744 126.616 19.7932 125.939 18.9325C125.206 18.0078 124.162 17.5133 122.917 17.5133H116.013Z" fill="#031169"/>
<path d="M246.353 44.2958C246.124 44.2958 245.941 44.2318 245.767 44.0944C245.465 43.8655 245.117 43.4993 244.732 43.0231L240.383 37.7949H235.182V43.5084C235.182 43.7922 235.091 43.8747 235.045 43.9204C234.963 44.0028 234.853 44.0761 234.624 44.0761H227.656C227.436 44.0761 227.345 44.012 227.281 43.9479C227.244 43.8746 227.152 43.5359 227.152 42.1441V15.4626C227.152 14.7851 227.61 13.3933 228.599 12.5418C229.625 11.6628 230.861 11.2324 232.399 11.2324H244.659C246.866 11.2324 248.917 11.443 250.739 11.8642C252.488 12.2671 254.035 12.9721 255.326 13.9519C256.599 14.9224 257.597 16.1768 258.293 17.6784C258.998 19.1984 259.355 21.1213 259.355 23.392V25.9374C259.355 29.6732 258.687 31.2389 257.176 33.3174C255.729 35.3135 253.706 36.6045 251.005 37.2638L249.283 37.6758L254.64 44.2867H246.371L246.353 44.2958ZM235.173 31.5411H243.615C245.346 31.5411 246.664 31.3763 247.635 31.0467C248.67 30.6987 249.466 30.1952 250.007 29.5725C250.574 28.8034 250.794 28.016 250.94 27.3476L250.959 27.2468C251.05 26.7981 251.05 26.7981 251.059 26.6883L251.087 26.4685V23.9505C251.087 22.8609 250.959 21.8995 250.702 21.0938C250.4 20.1324 249.814 19.3907 248.972 18.8688C248.267 18.4018 247.315 18.0539 246.161 17.8524C245.099 17.6693 243.744 17.5869 242.132 17.5869H235.164V31.5319L235.173 31.5411Z" fill="#031169"/>
<path d="M67.9519 43.5546L67.9153 37.0536V22.5775L74.8558 19.4735V30.1223L76.0003 30.1406H81.842C84.1311 30.1406 86.2737 29.2342 87.8669 27.5769C89.4601 25.9287 90.2933 23.7495 90.2109 21.4604C90.0552 17.0105 86.2096 13.3937 81.6498 13.3937H62.394V6.42578H81.842C90.2933 6.42578 97.1697 13.3113 97.1697 21.7626C97.1697 30.2139 90.2933 37.0902 81.842 37.0902H74.8741V43.518L74.8375 43.5546H67.9611H67.9519Z" fill="#031169"/>
<path d="M190.783 43.5546L190.747 37.0353V22.5775L197.687 19.4735V30.1223L198.832 30.1406H204.674C206.963 30.1406 209.105 29.2342 210.698 27.5769C212.292 25.9287 213.125 23.7587 213.042 21.4604C212.887 17.0105 209.041 13.3937 204.481 13.3937H185.226V6.42578H204.674C213.125 6.42578 220.001 13.3113 220.001 21.7626C220.001 30.2139 213.125 37.0902 204.674 37.0902H197.706V43.518L197.669 43.5546H190.793H190.783Z" fill="#031169"/>
<path d="M278.272 44.1681C271.451 44.1681 265.902 38.775 265.902 32.1458V23.0261C265.902 16.397 271.451 11.0039 278.272 11.0039H287.63C294.451 11.0039 300 16.397 300 23.0261V32.1458C300 38.775 294.451 44.1681 287.63 44.1681H278.272ZM280.744 18.1184C276.615 18.1184 273.264 21.3963 273.264 25.4343V29.7377C273.264 33.7757 276.624 37.0536 280.744 37.0536H285.158C289.287 37.0536 292.638 33.7757 292.638 29.7377V25.4343C292.638 21.3963 289.278 18.1184 285.158 18.1184H280.744Z" fill="#031169"/>
<path d="M29.1474 24.4204C27.426 23.9992 25.5947 24.7591 24.56 26.1967C22.0054 29.731 19.5058 36.4426 21.1997 40.8376C21.7308 42.2111 23.3514 43.2732 24.9996 43.5112C25.9244 43.6394 27.0689 43.3007 27.9571 43.0077C29.1932 42.5956 30.1637 41.918 30.5849 41.4327C31.0061 40.9475 31.4822 40.1326 31.9492 39.9678C32.4253 39.8213 33.286 40.1692 33.9178 40.2974C34.5496 40.4256 35.7308 40.3706 36.9577 39.9494C37.8459 39.6473 38.9629 39.2169 39.613 38.5485C40.7759 37.3582 41.3802 35.5361 40.9956 34.1169C39.8236 29.7676 33.9453 25.6106 29.1474 24.4386V24.4204Z" fill="#031169"/>
<path d="M8.60987 27.0391C7.43787 28.9162 8.82047 31.1961 10.2122 32.4871C11.6772 33.8606 13.0323 34.5748 15.0559 34.3001C16.8597 34.0528 17.9676 32.7252 17.3359 30.8298C16.8139 29.2641 15.0742 27.7075 13.7465 26.7644C12.3823 25.7939 9.99247 25.2903 8.60987 27.03V27.0391Z" fill="#031169"/>
<path d="M42.8729 15.6853C44.9239 16.5002 45.1711 19.1464 44.8323 21.0234C44.4661 22.992 43.8068 24.3838 42.0122 25.3543C40.4098 26.2242 38.7342 25.8213 38.1116 23.926C37.5988 22.3602 38.075 20.0712 38.5786 18.5238C39.1005 16.9306 40.712 15.1084 42.8729 15.6853Z" fill="#031169"/>
<path d="M14.6528 14.0823C12.6293 15.941 13.8562 18.9352 14.7078 20.5192C15.7424 22.442 17.4547 24.6487 19.8719 24.5938C24.6698 24.493 21.987 16.6918 20.11 14.6591C19.5057 13.9999 18.6175 13.3315 17.7385 13.1758C16.6489 12.9744 16.3193 13.0568 14.6528 14.0915V14.0823Z" fill="#031169"/>
<path d="M27.7833 9.21099C25.2745 10.502 25.3844 12.7636 25.9521 15.0527C26.4007 16.8474 27.1424 19.3837 28.818 20.3909C30.695 21.5171 33.0299 20.3268 33.7441 18.3582C34.4766 16.3438 34.2843 13.7983 33.4877 11.848C32.7827 10.1266 30.8141 8.10308 27.7742 9.21099H27.7833Z" fill="#031169"/>
<path d="M38.4685 48.1154C37.8458 48.3352 37.2141 48.5366 36.6006 48.738L36.4083 48.8021C35.7765 49.0036 35.1539 49.2233 34.5313 49.443C32.4253 50.1755 30.2369 50.9356 27.8105 51.1553C21.4103 51.7322 16.4934 49.2324 13.1971 43.7295C12.1258 41.9349 10.5784 40.6347 8.34425 39.6458C2.85963 37.2286 -0.400024 32.4398 0.0394782 27.4496C0.433199 22.963 2.58493 19.859 6.27492 18.3849C5.92698 16.7001 5.92698 14.5667 5.92698 14.5301C6.19251 10.6936 8.71051 6.93033 12.1807 5.17232C14.6438 3.9179 17.2442 3.80803 19.6248 4.83354C19.9819 4.35741 20.5038 3.76222 21.2363 2.97478L21.2638 2.94734C24.7157 -0.760964 30.4384 -0.999005 34.8792 2.39798C35.2271 2.66352 36.2984 3.84465 36.3076 3.85381C36.6464 4.22921 36.9119 4.53139 37.1133 4.78777C42.836 4.80608 45.6653 6.09709 48.8792 10.0251C53.2742 15.3999 52.148 22.7982 50.9211 27.8891C50.7471 28.5941 50.5639 29.3083 50.3717 30.0134C49.9505 31.5883 49.5201 33.2272 49.3004 34.8113C48.751 38.7302 47.0662 42.2462 44.5483 44.6909C42.7719 46.4123 40.6385 47.3645 38.4685 48.1245V48.1154ZM9.39719 37.2194C12.1258 38.4189 14.1035 40.1036 15.4587 42.3652C18.2605 47.0533 22.1062 49.0036 27.5542 48.5183C29.6601 48.326 31.6013 47.6576 33.6431 46.9434C34.2841 46.7236 34.925 46.4947 35.5751 46.2841L35.7765 46.2201C38.3861 45.3777 40.8583 44.5811 42.6987 42.7956C44.7955 40.7537 46.2056 37.7962 46.6725 34.4542C46.9198 32.7145 47.3684 31.0023 47.8079 29.345C47.991 28.6491 48.1742 27.9624 48.339 27.2757C49.4377 22.7341 50.4724 16.1691 46.819 11.7099C44.182 8.48691 42.2134 7.36066 36.3809 7.45223C35.7949 7.45223 35.2729 7.08597 35.099 6.5366C34.7235 6.04216 33.5424 4.7786 33.2402 4.49476C30.3835 2.32471 26.0342 1.72954 23.2049 4.76944L23.1683 4.80604C22.2161 5.82239 21.7307 6.44506 21.5293 6.73806C21.511 6.94866 21.4469 7.1684 21.3279 7.36069C20.9342 7.97416 20.1193 8.16645 19.5058 7.77273C17.0794 6.25278 14.8361 6.81127 13.3802 7.55293C10.7615 8.8806 8.78376 11.8198 8.57316 14.704C8.57316 15.2534 8.76544 17.5425 8.96688 18.3391C9.10422 18.4947 9.21406 18.6778 9.26899 18.8884C9.46128 19.5935 9.04012 20.3168 8.33509 20.5091C4.874 21.4248 3.0336 23.7779 2.68566 27.6968C2.27363 32.3665 6.05517 35.7544 9.42469 37.2285L9.39719 37.2194Z" fill="#031169"/>
</svg>
