<svg width="118" height="20" viewBox="0 0 118 20" fill="none" xmlns="http://www.w3.org/2000/svg">
<path d="M59.9954 7.51259H55.4455C55.2954 7.51259 55.1738 7.39464 55.1738 7.24453V4.64613C55.1738 4.49601 55.2954 4.37451 55.4455 4.37451H57.7186L58.1547 4.38165H67.426C67.5761 4.38165 67.6976 4.50317 67.6976 4.65328V7.25169C67.6976 7.4018 67.5761 7.52332 67.426 7.52332H64.8669L63.1299 7.50901V15.6509L59.9989 17.052V7.51259H59.9954Z" fill="white"/>
<path d="M44.2243 17.123C43.0842 17.123 42.1692 16.7656 41.4293 16.0258C41.0791 15.6755 40.811 15.2645 40.6287 14.807C40.4465 14.3424 40.3535 13.8134 40.3535 13.2344V8.21272C40.3535 7.63013 40.4465 7.09759 40.6287 6.6258C40.811 6.16116 41.0791 5.74657 41.4293 5.39987C42.1656 4.6636 43.0806 4.30261 44.2243 4.30261H48.9993C49.539 4.30261 50.0501 4.42055 50.5184 4.65287C50.9973 4.89234 51.4226 5.214 51.78 5.60716C52.1303 6.00746 52.4091 6.48284 52.6021 7.01181C52.7951 7.54793 52.8916 8.11264 52.8916 8.69879V11.2722C52.8916 11.383 52.8594 11.4294 52.8273 11.4652C52.7915 11.4973 52.7486 11.5295 52.6557 11.5295L43.7061 11.5081V13.0271C43.7061 13.338 43.7704 13.6061 43.8991 13.8205C44.0206 14.0278 44.1743 14.1922 44.3494 14.3102C44.5102 14.4174 44.6818 14.496 44.8569 14.5425C45.0285 14.5854 45.1679 14.6068 45.2858 14.6068H48.306C48.5311 14.6068 48.7563 14.5782 48.9707 14.5211C49.1495 14.4746 49.5605 14.2887 49.5605 13.6204V13.5811C49.5605 13.4953 49.5855 13.4488 49.6248 13.4095C49.6713 13.363 49.7213 13.3452 49.7964 13.3452H52.6521C52.7272 13.3452 52.7772 13.363 52.8237 13.4131C52.8701 13.4631 52.888 13.5096 52.888 13.5846V13.8491C52.888 14.421 52.7951 14.9142 52.6128 15.3074C52.4305 15.7041 52.1732 16.0294 51.8301 16.301C51.4834 16.5762 51.0652 16.7835 50.5934 16.9157C50.1038 17.0551 49.5676 17.123 48.9993 17.123H44.2243V17.123ZM45.2858 6.83666C44.7997 6.83666 44.3923 7.02968 44.1064 7.39067C43.8419 7.72664 43.7061 8.18769 43.7061 8.76313V9.19918H49.5605V8.76313C49.5605 8.18769 49.4247 7.72664 49.1602 7.39067C48.8743 7.02968 48.4668 6.83666 47.9807 6.83666H45.2858V6.83666Z" fill="white"/>
<path d="M96.162 17.2911C96.0726 17.2911 96.0011 17.2661 95.9332 17.2125C95.8153 17.1231 95.6794 16.9801 95.5293 16.7943L93.8316 14.7535H91.8015V16.9837C91.8015 17.0945 91.7658 17.1267 91.7479 17.1446C91.7157 17.1767 91.6729 17.2053 91.5835 17.2053H88.8636C88.7778 17.2053 88.7421 17.1803 88.717 17.1553C88.7027 17.1267 88.667 16.9944 88.667 16.4512V6.03614C88.667 5.77165 88.8457 5.22838 89.2317 4.89599C89.632 4.55287 90.1145 4.38489 90.715 4.38489H95.5007C96.3621 4.38489 97.1627 4.46709 97.874 4.6315C98.5566 4.78877 99.1607 5.06398 99.6646 5.44642C100.161 5.82528 100.551 6.31491 100.823 6.90107C101.098 7.49438 101.237 8.24496 101.237 9.13135V10.1249C101.237 11.5832 100.976 12.1944 100.387 13.0057C99.8219 13.7849 99.032 14.2888 97.9776 14.5462L97.3057 14.707L99.3966 17.2875H96.1691L96.162 17.2911ZM91.7979 12.3123H95.0933C95.7688 12.3123 96.2835 12.248 96.6623 12.1193C97.0662 11.9835 97.3772 11.7869 97.588 11.5439C97.8096 11.2437 97.8954 10.9363 97.9526 10.6754L97.9597 10.636C97.9955 10.4609 97.9955 10.4609 97.9991 10.418L98.0098 10.3323V9.34937C98.0098 8.92404 97.9598 8.54876 97.8597 8.23424C97.7417 7.85895 97.513 7.56945 97.1842 7.36573C96.909 7.18344 96.5372 7.04761 96.0869 6.96898C95.6723 6.8975 95.1433 6.86534 94.5143 6.86534H91.7944V12.3087L91.7979 12.3123Z" fill="white"/>
<path d="M26.5235 17.0018L26.5092 14.4642V8.81345L29.2184 7.60181V11.7585L29.6652 11.7657H31.9455C32.839 11.7657 33.6753 11.4118 34.2972 10.7649C34.9191 10.1216 35.2444 9.27092 35.2122 8.37739C35.1515 6.64036 33.6503 5.22858 31.8704 5.22858H24.354V2.50867H31.9455C35.2444 2.50867 37.9286 5.19642 37.9286 8.49534C37.9286 11.7943 35.2444 14.4784 31.9455 14.4784H29.2256V16.9875L29.2113 17.0018H26.5271H26.5235Z" fill="white"/>
<path d="M74.4713 17.0017L74.4569 14.4569V8.81332L77.1661 7.60169V11.7584L77.6129 11.7656H79.8932C80.7868 11.7656 81.6231 11.4117 82.245 10.7648C82.8669 10.1215 83.1921 9.27438 83.16 8.37727C83.0992 6.64024 81.5981 5.22846 79.8182 5.22846H72.3018V2.50854H79.8932C83.1921 2.50854 85.8763 5.19629 85.8763 8.49522C85.8763 11.7941 83.1921 14.4783 79.8932 14.4783H77.1733V16.9874L77.159 17.0017H74.4748H74.4713Z" fill="white"/>
<path d="M108.622 17.2415C105.959 17.2415 103.793 15.1364 103.793 12.5487V8.98886C103.793 6.40119 105.959 4.29602 108.622 4.29602H112.274C114.937 4.29602 117.103 6.40119 117.103 8.98886V12.5487C117.103 15.1364 114.937 17.2415 112.274 17.2415H108.622ZM109.587 7.07313C107.975 7.07313 106.667 8.35267 106.667 9.92886V11.6087C106.667 13.1849 107.978 14.4644 109.587 14.4644H111.309C112.921 14.4644 114.229 13.1849 114.229 11.6087V9.92886C114.229 8.35267 112.918 7.07313 111.309 7.07313H109.587Z" fill="white"/>
<path d="M11.3761 9.53221C10.7042 9.3678 9.98933 9.66446 9.58545 10.2256C8.58827 11.6052 7.61254 14.225 8.27375 15.9406C8.48105 16.4768 9.11368 16.8913 9.75703 16.9843C10.118 17.0343 10.5648 16.9021 10.9115 16.7877C11.394 16.6269 11.7728 16.3624 11.9372 16.1729C12.1016 15.9835 12.2875 15.6654 12.4698 15.6011C12.6556 15.5439 12.9916 15.6797 13.2382 15.7298C13.4848 15.7798 13.9459 15.7583 14.4248 15.5939C14.7715 15.476 15.2076 15.308 15.4613 15.0471C15.9152 14.5825 16.1511 13.8712 16.001 13.3172C15.5435 11.6195 13.2489 9.99684 11.3761 9.53935V9.53221Z" fill="white"/>
<path d="M3.35961 10.5541C2.90213 11.2868 3.44182 12.1767 3.98509 12.6807C4.55695 13.2168 5.08591 13.4956 5.8758 13.3884C6.5799 13.2919 7.01239 12.7736 6.76577 12.0338C6.56205 11.4226 5.88295 10.815 5.3647 10.4469C4.83215 10.068 3.89931 9.87142 3.35961 10.5505V10.5541Z" fill="white"/>
<path d="M16.7342 6.12267C17.5348 6.44077 17.6313 7.4737 17.499 8.2064C17.3561 8.97484 17.0987 9.5181 16.3982 9.89696C15.7727 10.2365 15.1187 10.0792 14.8756 9.33939C14.6755 8.72822 14.8613 7.8347 15.0579 7.23067C15.2616 6.60877 15.8907 5.8975 16.7342 6.12267V6.12267Z" fill="white"/>
<path d="M5.71945 5.49717C4.92957 6.22272 5.4085 7.39147 5.7409 8.0098C6.14477 8.76036 6.81314 9.62174 7.75671 9.60029C9.62956 9.56097 8.58234 6.5158 7.84964 5.72234C7.61375 5.465 7.26705 5.20409 6.92393 5.14333C6.49861 5.0647 6.36994 5.09687 5.71945 5.50075V5.49717Z" fill="white"/>
<path d="M10.8428 3.59545C9.86349 4.09941 9.90638 4.98222 10.128 5.87575C10.3031 6.57628 10.5926 7.56632 11.2467 7.95948C11.9794 8.3991 12.8908 7.93447 13.1696 7.16603C13.4555 6.37972 13.3804 5.3861 13.0695 4.6248C12.7943 3.95287 12.0258 3.16298 10.8392 3.59545H10.8428Z" fill="white"/>
<path d="M15.016 18.7817C14.773 18.8675 14.5264 18.9461 14.2869 19.0247L14.2119 19.0498C13.9652 19.1284 13.7222 19.2142 13.4792 19.2999C12.6571 19.5859 11.8029 19.8825 10.8557 19.9683C8.35742 20.1935 6.43813 19.2177 5.15144 17.0697C4.73327 16.3691 4.12924 15.8616 3.25715 15.4756C1.11625 14.5321 -0.156148 12.6628 0.0154102 10.7149C0.169098 8.96355 1.00902 7.75191 2.44939 7.17647C2.31358 6.51883 2.31358 5.68607 2.31358 5.67177C2.41723 4.17421 3.40012 2.70523 4.75472 2.019C5.71616 1.52934 6.73121 1.48645 7.66049 1.88676C7.79988 1.7009 8.00359 1.46857 8.28952 1.1612L8.30025 1.15048C9.6477 -0.29704 11.8815 -0.389959 13.615 0.936045C13.7508 1.0397 14.169 1.50075 14.1726 1.50432C14.3048 1.65086 14.4084 1.76881 14.4871 1.86889C16.7209 1.87604 17.8253 2.37998 19.0798 3.91328C20.7954 6.0113 20.3558 8.89921 19.8769 10.8864C19.809 11.1616 19.7375 11.4404 19.6624 11.7156C19.498 12.3304 19.33 12.9701 19.2442 13.5885C19.0298 15.1182 18.3722 16.4907 17.3893 17.445C16.6959 18.1169 15.8631 18.4886 15.016 18.7853V18.7817ZM3.66816 14.5285C4.73326 14.9967 5.50527 15.6543 6.03424 16.5371C7.12793 18.3671 8.62907 19.1284 10.7557 18.939C11.5777 18.8639 12.3355 18.603 13.1325 18.3242C13.3827 18.2384 13.6329 18.1491 13.8866 18.0669L13.9652 18.0418C14.9839 17.713 15.9489 17.4021 16.6673 16.7051C17.4858 15.9081 18.0362 14.7536 18.2185 13.4491C18.315 12.77 18.4901 12.1016 18.6617 11.4547C18.7331 11.1831 18.8046 10.915 18.869 10.647C19.2979 8.87419 19.7017 6.31154 18.2757 4.57093C17.2463 3.31284 16.4779 2.87321 14.2012 2.90895C13.9724 2.90895 13.7687 2.76599 13.7008 2.55154C13.5542 2.35854 13.0932 1.86531 12.9752 1.75451C11.8601 0.907445 10.1624 0.675121 9.05797 1.86173L9.04368 1.87602C8.67197 2.27275 8.48252 2.51581 8.40389 2.63018C8.39674 2.71239 8.37174 2.79816 8.32527 2.87322C8.17158 3.11269 7.85349 3.18775 7.61402 3.03406C6.66688 2.44075 5.79121 2.65876 5.22293 2.94826C4.20072 3.46651 3.42871 4.61381 3.34651 5.73966C3.34651 5.95411 3.42156 6.84765 3.50019 7.1586C3.5538 7.21936 3.59668 7.29084 3.61812 7.37304C3.69318 7.64825 3.52878 7.93062 3.25358 8.00567C1.90255 8.36309 1.18416 9.28163 1.04834 10.8114C0.887504 12.6342 2.36362 13.9566 3.6789 14.532L3.66816 14.5285Z" fill="white"/>
</svg>
