<svg width="300" height="60" viewBox="0 0 300 60" fill="none" xmlns="http://www.w3.org/2000/svg">
<rect width="300" height="60" fill="#EDF2FF"/>
<path d="M142.986 24.7041V36.1045H141.78V24.7041H142.986ZM133.959 29.541C133.959 27.1099 135.185 25.561 136.905 25.5547C138.593 25.561 139.837 27.1099 139.837 29.541C139.837 31.9976 138.593 33.5464 136.905 33.54C135.185 33.5464 133.959 31.9976 133.959 29.541ZM135.127 29.541C135.121 31.3501 135.845 32.4609 136.905 32.4609C137.946 32.4609 138.669 31.3501 138.669 29.541C138.669 27.7573 137.946 26.6401 136.905 26.6338C135.845 26.6401 135.121 27.7573 135.127 29.541ZM150.768 25.7959V33.2734H145.436V25.7959H150.768ZM146.629 32.2959H149.6V26.748H146.629V32.2959ZM153.015 36.1045V24.7041H154.221V36.1045H153.015ZM160.226 28.0557C160.22 29.96 161.47 31.9277 163.222 32.6768L162.562 33.6162C161.223 33.0259 160.156 31.769 159.629 30.252C159.103 31.877 158.036 33.2607 156.709 33.9082L156.011 32.9561C157.725 32.1499 158.995 30.0171 159.007 28.0557V26.8496H156.405V25.8467H162.816V26.8496H160.226V28.0557ZM164.25 36.0791V24.7041H165.457V36.0791H164.25Z" fill="#495057"/>
</svg>
