<svg width="20" height="20" viewBox="0 0 20 20" fill="none" xmlns="http://www.w3.org/2000/svg">
<path d="M15.8333 14.166V9.83268C15.4167 9.91602 15 9.99935 14.5833 9.99935H14.1667V14.9993H5.83333V9.16602C5.83333 6.83268 7.66667 4.99935 10 4.99935C10.0833 3.91602 10.5833 2.99935 11.25 2.24935C11 1.91602 10.5 1.66602 10 1.66602C9.08333 1.66602 8.33333 2.41602 8.33333 3.33268V3.58268C5.83333 4.33268 4.16667 6.58268 4.16667 9.16602V14.166L2.5 15.8327V16.666H17.5V15.8327L15.8333 14.166ZM8.33333 17.4993C8.33333 18.416 9.08333 19.166 10 19.166C10.9167 19.166 11.6667 18.416 11.6667 17.4993H8.33333ZM17.5 5.41602C17.5 6.99935 16.1667 8.33268 14.5833 8.33268C13 8.33268 11.6667 6.99935 11.6667 5.41602C11.6667 3.83268 13 2.49935 14.5833 2.49935C16.1667 2.49935 17.5 3.83268 17.5 5.41602Z" fill="#212529"/>
</svg>
