<svg width="21" height="17" viewBox="0 0 21 17" fill="none" xmlns="http://www.w3.org/2000/svg">
<path d="M19.8917 7H1.10833C0.496218 7 0 7.49622 0 8.10833V8.225C0 8.83712 0.496218 9.33333 1.10833 9.33333H19.8917C20.5038 9.33333 21 8.83712 21 8.225V8.10833C21 7.49622 20.5038 7 19.8917 7Z" fill="white"/>
<path d="M19.8917 14H1.10833C0.496218 14 0 14.4962 0 15.1083V15.225C0 15.8371 0.496218 16.3333 1.10833 16.3333H19.8917C20.5038 16.3333 21 15.8371 21 15.225V15.1083C21 14.4962 20.5038 14 19.8917 14Z" fill="white"/>
<path d="M19.8917 0H1.10833C0.496218 0 0 0.496217 0 1.10833V1.225C0 1.83712 0.496218 2.33333 1.10833 2.33333H19.8917C20.5038 2.33333 21 1.83712 21 1.225V1.10833C21 0.496217 20.5038 0 19.8917 0Z" fill="white"/>
</svg>
