<svg width="22" height="22" viewBox="0 0 22 22" fill="none" xmlns="http://www.w3.org/2000/svg">
<path d="M9.16667 19.2507H12.8333C12.8333 20.259 12.0083 21.084 11 21.084C9.99167 21.084 9.16667 20.259 9.16667 19.2507ZM19.25 17.4173V18.334H2.75V17.4173L4.58333 15.584V10.084C4.58333 7.24232 6.41667 4.76732 9.16667 3.94232V3.66732C9.16667 2.65898 9.99167 1.83398 11 1.83398C12.0083 1.83398 12.8333 2.65898 12.8333 3.66732V3.94232C15.5833 4.76732 17.4167 7.24232 17.4167 10.084V15.584L19.25 17.4173ZM15.5833 10.084C15.5833 7.51732 13.5667 5.50065 11 5.50065C8.43333 5.50065 6.41667 7.51732 6.41667 10.084V16.5007H15.5833V10.084Z" fill="white"/>
</svg>
