<svg xmlns="http://www.w3.org/2000/svg" width="321" height="642" viewBox="0 0 321 642">
  <g id="그룹_10775" data-name="그룹 10775" transform="translate(-0.496)">
    <g id="그룹_10774" data-name="그룹 10774" transform="translate(7.435 13.092)">
      <rect id="사각형_169" data-name="사각형 169" width="301.331" height="613.273" transform="translate(0 0.875)" fill="#fff"/>
      <rect id="사각형_170" data-name="사각형 170" width="301.187" height="109.786" transform="translate(0.473 0.875)" fill="#f4f3f2"/>
      <rect id="사각형_171" data-name="사각형 171" width="301.187" height="19.931" transform="translate(0.473 0)" fill="#f4f3f2"/>
      <rect id="사각형_172" data-name="사각형 172" width="300.332" height="34.324" transform="translate(0.998 579.825)" fill="#efefef"/>
      <path id="패스_10069" data-name="패스 10069" d="M-132.864,334.918h-4.179a3.737,3.737,0,0,1-3.733-3.733v-4.179a3.737,3.737,0,0,1,3.733-3.733h4.179a3.737,3.737,0,0,1,3.733,3.733v4.179A3.737,3.737,0,0,1-132.864,334.918Zm-4.179-10.386a2.476,2.476,0,0,0-2.474,2.473v4.179a2.476,2.476,0,0,0,2.474,2.473h4.179a2.476,2.476,0,0,0,2.474-2.473v-4.179a2.476,2.476,0,0,0-2.474-2.473Z" transform="translate(283.384 268.207)" fill="#797978"/>
      <path id="패스_10070" data-name="패스 10070" d="M-185.455,334.306a.613.613,0,0,1-.612-.613v-9.808a.612.612,0,0,1,.612-.612.613.613,0,0,1,.614.612v9.808A.613.613,0,0,1-185.455,334.306Z" transform="translate(245.877 268.207)" fill="#797978"/>
      <path id="패스_10071" data-name="패스 10071" d="M-182.968,334.306a.613.613,0,0,1-.612-.613v-9.808a.613.613,0,0,1,.612-.612.612.612,0,0,1,.612.612v9.808A.613.613,0,0,1-182.968,334.306Z" transform="translate(247.937 268.207)" fill="#797978"/>
      <path id="패스_10072" data-name="패스 10072" d="M-180.514,334.306a.613.613,0,0,1-.612-.613v-9.808a.612.612,0,0,1,.612-.612.613.613,0,0,1,.614.612v9.808A.613.613,0,0,1-180.514,334.306Z" transform="translate(249.969 268.207)" fill="#797978"/>
      <path id="패스_10073" data-name="패스 10073" d="M-87.978,334.4a.609.609,0,0,1-.433-.181l-4.868-4.867a.6.6,0,0,1-.179-.437.606.606,0,0,1,.185-.435l4.973-4.868a.612.612,0,0,1,.867.009.611.611,0,0,1-.009.867l-4.53,4.435,4.43,4.43a.612.612,0,0,1,0,.867A.606.606,0,0,1-87.978,334.4Z" transform="translate(322.569 268.345)" fill="#797978"/>
      <g id="그룹_10768" data-name="그룹 10768" transform="translate(43.97 6.006)">
        <g id="그룹_10767" data-name="그룹 10767">
          <path id="패스_10074" data-name="패스 10074" d="M-184.277,5.565l-.852.85a6.153,6.153,0,0,0-4.369-1.8,6.156,6.156,0,0,0-4.378,1.821l-.856-.846a7.366,7.366,0,0,1,5.239-2.177A7.367,7.367,0,0,1-184.277,5.565Z" transform="translate(194.732 -2.686)" fill="#6b6b6c"/>
          <path id="패스_10075" data-name="패스 10075" d="M-186.784,6.188l-.823.819a3.754,3.754,0,0,0-2.673-1.11,3.792,3.792,0,0,0-2.687,1.113l0,.005-.819-.814.005-.005a4.933,4.933,0,0,1,3.5-1.457A4.92,4.92,0,0,1-186.784,6.188Z" transform="translate(195.513 -1.585)" fill="#6b6b6c"/>
          <path id="패스_10076" data-name="패스 10076" d="M-189.308,6.809l-1.757,1.757v.005h-.005l-1.77-1.753,0,0a2.5,2.5,0,0,1,1.766-.737A2.491,2.491,0,0,1-189.308,6.809Z" transform="translate(196.299 -0.477)" fill="#6b6b6c"/>
          <path id="패스_10077" data-name="패스 10077" d="M-60.671,9.285h-8.247a.9.9,0,0,1-.9-.9V4.615a.9.9,0,0,1,.9-.9h8.247Z" transform="translate(298.179 -2.432)" fill="#6b6b6c"/>
          <path id="패스_10078" data-name="패스 10078" d="M-55.11,5.484h-.731V5.094a2.083,2.083,0,0,0-2.08-2.08H-68.486a2.081,2.081,0,0,0-2.079,2.08v3.98a2.082,2.082,0,0,0,2.079,2.08h10.565a2.084,2.084,0,0,0,2.08-2.08V8.685h.731Zm-1.464,3.59a1.35,1.35,0,0,1-1.347,1.349H-68.486a1.35,1.35,0,0,1-1.347-1.349V5.094a1.35,1.35,0,0,1,1.347-1.349h10.565a1.35,1.35,0,0,1,1.347,1.349Z" transform="translate(297.558 -3.014)" fill="#6b6b6c"/>
        </g>
      </g>
      <circle id="타원_4" data-name="타원 4" cx="2.064" cy="2.064" r="2.064" transform="translate(18.76 9.137)" fill="#6b6b6c"/>
      <circle id="타원_5" data-name="타원 5" cx="2.064" cy="2.064" r="2.064" transform="translate(26.644 9.137)" fill="#6b6b6c"/>
      <circle id="타원_6" data-name="타원 6" cx="2.064" cy="2.064" r="2.064" transform="translate(34.423 9.137)" fill="#6b6b6c"/>
      <text id="_80_" data-name="80%" transform="translate(251.495 10.561)" fill="#6b6b6c" font-size="5" font-family="SegoeUI, Segoe UI"><tspan x="0" y="0">80%</tspan></text>
      <rect id="사각형_173" data-name="사각형 173" width="222.082" height="327.651" rx="3.885" transform="translate(25.07 159.906)" fill="#e5e4e7"/>
      <text id="두올앳_회원가입_심사결과_안내_안녕하세요_두올앳_기술센터_입니다._가맹회원심사_결과를_다음과_같이_안내합니다._심사결과_승인_아래_서비스사용_시작하기를_누르시면_아래_등록된_사항을_바탕으로_서비스_사용이_가능합니다._ID_bluecity_비밀번호_an_성명_최은희_휴대폰번호_010-000" data-name="두올앳 회원가입 심사결과 안내
안녕하세요 두올앳 기술센터 ㅇㅇㅇ입니다.
가맹회원심사 결과를 다음과 같이 안내합니다.

심사결과               승인

아래 서비스사용 시작하기를 누르시면 아래 등록된
사항을 바탕으로 서비스 사용이 가능합니다.

ID                         bluecity
비밀번호               !an******
성명                     최은희
휴대폰번호           010-000" transform="translate(36.487 175.973)" fill="#070203" font-size="8" font-family="MalgunGothic, Malgun Gothic"><tspan x="0" y="0">두올앳</tspan><tspan y="0" font-family="SegoeUI, Segoe UI"> </tspan><tspan y="0">회원가입</tspan><tspan y="0" font-family="SegoeUI, Segoe UI"> </tspan><tspan y="0">심사결과</tspan><tspan y="0" font-family="SegoeUI, Segoe UI"> </tspan><tspan y="0">안내</tspan><tspan y="0" font-family="SegoeUI, Segoe UI"></tspan><tspan x="0" y="11">안녕하세요</tspan><tspan y="11" font-family="SegoeUI, Segoe UI"> </tspan><tspan y="11">두올앳</tspan><tspan y="11" font-family="SegoeUI, Segoe UI"> </tspan><tspan y="11">기술센터</tspan><tspan y="11" font-family="SegoeUI, Segoe UI"> </tspan><tspan y="11">ㅇㅇㅇ입니다</tspan><tspan y="11" font-family="SegoeUI, Segoe UI">.</tspan><tspan x="0" y="22">가맹회원심사</tspan><tspan y="22" font-family="SegoeUI, Segoe UI"> </tspan><tspan y="22">결과를</tspan><tspan y="22" font-family="SegoeUI, Segoe UI"> </tspan><tspan y="22">다음과</tspan><tspan y="22" font-family="SegoeUI, Segoe UI"> </tspan><tspan y="22">같이</tspan><tspan y="22" font-family="SegoeUI, Segoe UI"> </tspan><tspan y="22">안내합니다</tspan><tspan y="22" font-family="SegoeUI, Segoe UI">.</tspan><tspan font-family="SegoeUI, Segoe UI"><tspan x="0" y="33"></tspan></tspan><tspan x="0" y="44">심사결과</tspan><tspan y="44" xml:space="preserve" font-family="SegoeUI, Segoe UI">               </tspan><tspan y="44">승인</tspan><tspan y="44" font-family="SegoeUI, Segoe UI"></tspan><tspan font-family="SegoeUI, Segoe UI"><tspan x="0" y="55"></tspan></tspan><tspan x="0" y="66">아래</tspan><tspan y="66" font-family="SegoeUI, Segoe UI"> </tspan><tspan y="66">서비스사용</tspan><tspan y="66" font-family="SegoeUI, Segoe UI"> </tspan><tspan y="66">시작하기를</tspan><tspan y="66" font-family="SegoeUI, Segoe UI"> </tspan><tspan y="66">누르시면</tspan><tspan y="66" font-family="SegoeUI, Segoe UI"> </tspan><tspan y="66">아래</tspan><tspan y="66" font-family="SegoeUI, Segoe UI"> </tspan><tspan y="66">등록된</tspan><tspan y="66" font-family="SegoeUI, Segoe UI"></tspan><tspan x="0" y="77">사항을</tspan><tspan y="77" font-family="SegoeUI, Segoe UI"> </tspan><tspan y="77">바탕으로</tspan><tspan y="77" font-family="SegoeUI, Segoe UI"> </tspan><tspan y="77">서비스</tspan><tspan y="77" font-family="SegoeUI, Segoe UI"> </tspan><tspan y="77">사용이</tspan><tspan y="77" font-family="SegoeUI, Segoe UI"> </tspan><tspan y="77">가능합니다</tspan><tspan y="77" font-family="SegoeUI, Segoe UI">.</tspan><tspan font-family="SegoeUI, Segoe UI"><tspan x="0" y="88"></tspan><tspan x="0" y="99" xml:space="preserve">ID                         bluecity</tspan></tspan><tspan x="0" y="110">비밀번호</tspan><tspan y="110" xml:space="preserve" font-family="SegoeUI, Segoe UI">               !an******</tspan><tspan x="0" y="121">성명</tspan><tspan y="121" xml:space="preserve" font-family="SegoeUI, Segoe UI">                     </tspan><tspan y="121">최은희</tspan><tspan y="121" font-family="SegoeUI, Segoe UI"></tspan><tspan x="0" y="132">휴대폰번호</tspan><tspan y="132" xml:space="preserve" font-family="SegoeUI, Segoe UI">           010-0000-0000</tspan><tspan x="0" y="143">생년월일</tspan><tspan y="143" xml:space="preserve" font-family="SegoeUI, Segoe UI">              1975 05 06</tspan><tspan x="0" y="154">성별</tspan><tspan y="154" xml:space="preserve" font-family="SegoeUI, Segoe UI">                     </tspan><tspan y="154">여</tspan><tspan y="154" font-family="SegoeUI, Segoe UI"></tspan><tspan x="0" y="165">사용</tspan><tspan y="165" xml:space="preserve" font-family="SegoeUI, Segoe UI"> APP(SITE)    </tspan><tspan y="165">바로텐</tspan><tspan y="165" font-family="SegoeUI, Segoe UI"></tspan><tspan font-family="SegoeUI, Segoe UI"><tspan x="0" y="176"></tspan></tspan><tspan x="0" y="187">이용약관</tspan><tspan y="187" font-family="SegoeUI, Segoe UI"> </tspan><tspan y="187">동의</tspan><tspan y="187" fill="#0d7ac2" font-family="SegoeUI, Segoe UI"> </tspan><tspan y="187" fill="#0d7ac2">상세보기</tspan><tspan y="187" fill="#0d7ac2" font-family="SegoeUI, Segoe UI"></tspan><tspan x="0" y="198">개인정보</tspan><tspan y="198" font-family="SegoeUI, Segoe UI"> </tspan><tspan y="198">동의</tspan><tspan y="198" fill="#0d7ac2" font-family="SegoeUI, Segoe UI"> </tspan><tspan y="198" fill="#0d7ac2">상세보기</tspan><tspan y="198" fill="#0d7ac2" font-family="SegoeUI, Segoe UI"></tspan><tspan x="0" y="209">제</tspan><tspan y="209" font-family="SegoeUI, Segoe UI">3</tspan><tspan y="209">자정보</tspan><tspan y="209" font-family="SegoeUI, Segoe UI"> </tspan><tspan y="209">동의</tspan><tspan y="209" fill="#0d7ac2" font-family="SegoeUI, Segoe UI"> </tspan><tspan y="209" fill="#0d7ac2">상세보기</tspan><tspan y="209" fill="#0d7ac2" font-family="SegoeUI, Segoe UI"></tspan><tspan fill="#0d7ac2" font-family="SegoeUI, Segoe UI"><tspan x="0" y="220"></tspan></tspan><tspan fill="#0d7ac2" font-family="S-CoreDream-4Regular"><tspan x="0" y="231"></tspan></tspan></text>
      <text id="문자_메시지_오늘_오전_00:00" data-name="문자 메시지
(오늘) 오전 00:00" transform="translate(155.156 128.93)" fill="#5d5c5c" font-size="7" font-family="MalgunGothic, Malgun Gothic"><tspan x="-18.459" y="0">문자</tspan><tspan y="0" font-family="SegoeUI, Segoe UI"> </tspan><tspan y="0">메시지</tspan><tspan y="0" font-family="SegoeUI, Segoe UI"></tspan><tspan font-family="SegoeUI, Segoe UI"><tspan x="-26.335" y="10">(</tspan><tspan y="10" font-family="MalgunGothic, Malgun Gothic">오늘</tspan><tspan y="10">) </tspan><tspan y="10" font-family="MalgunGothic, Malgun Gothic">오전</tspan><tspan y="10" xml:space="preserve"> 00:00</tspan></tspan></text>
      <text id="문자_메시지" data-name="문자 메시지" transform="translate(98.052 561.119)" fill="#c0c1c1" font-size="11" font-family="MalgunGothic, Malgun Gothic"><tspan x="-29.007" y="0">문자</tspan><tspan y="0" font-family="SegoeUI, Segoe UI"> </tspan><tspan y="0">메시지</tspan></text>
      <text id="_82_0000-0000_" data-name="+82 0000-0000 &gt;" transform="translate(156.156 99.393)" fill="#070203" font-size="7" font-family="SegoeUI, Segoe UI"><tspan x="-26.973" y="0">+82 0000-0000</tspan><tspan y="0" fill="#636363"> </tspan><tspan y="0" fill="#7f7d7e">&gt;</tspan></text>
      <path id="패스_10079" data-name="패스 10079" d="M-202.322,33.32a.82.82,0,0,1-.581-.241l-6.521-6.519a.817.817,0,0,1-.239-.585.816.816,0,0,1,.247-.583l6.662-6.521a.82.82,0,0,1,1.161.013.82.82,0,0,1-.013,1.161l-6.069,5.941,5.934,5.932a.819.819,0,0,1,0,1.161A.812.812,0,0,1-202.322,33.32Z" transform="translate(226.336 15.929)" fill="#6b6b6c"/>
      <g id="그룹_10770" data-name="그룹 10770" transform="translate(136.111 45.012)">
        <circle id="타원_7" data-name="타원 7" cx="20.045" cy="20.045" r="20.045" fill="#828995"/>
        <circle id="타원_8" data-name="타원 8" cx="7.411" cy="7.411" r="7.411" transform="translate(13.21 4.896)" fill="#fff"/>
        <g id="그룹_10769" data-name="그룹 10769" transform="translate(5.813 21.899)">
          <path id="패스_10080" data-name="패스 10080" d="M-131.144,51.686a17.983,17.983,0,0,0,14.232-7.124,16.671,16.671,0,0,0-14.232-8.232,16.669,16.669,0,0,0-14.232,8.232A17.983,17.983,0,0,0-131.144,51.686Z" transform="translate(145.376 -36.33)" fill="#fff"/>
        </g>
      </g>
      <g id="그룹_10772" data-name="그룹 10772" transform="translate(14.237 544.342)">
        <g id="그룹_10771" data-name="그룹 10771">
          <path id="패스_10081" data-name="패스 10081" d="M-200.481,297.488l-1.813,3.627h-6.163A2.533,2.533,0,0,0-211,303.652v15.954a2.533,2.533,0,0,0,2.539,2.537H-183.8a2.532,2.532,0,0,0,2.539-2.537V303.652a2.532,2.532,0,0,0-2.539-2.538h-6.163l-1.813-3.627Zm4.351,6.164a8,8,0,0,1,7.976,7.976,8,8,0,0,1-7.976,7.978,8,8,0,0,1-7.976-7.978A8,8,0,0,1-196.13,303.652Zm0,2.9a5.055,5.055,0,0,0-5.077,5.075,5.055,5.055,0,0,0,5.077,5.077,5.055,5.055,0,0,0,5.077-5.077A5.055,5.055,0,0,0-196.13,306.554Z" transform="translate(210.996 -297.488)" fill="#878787"/>
        </g>
      </g>
      <path id="패스_10082" data-name="패스 10082" d="M35.446,327.6H-173.335a16.1,16.1,0,0,1-16.084-16.084,16.1,16.1,0,0,1,16.084-16.08H35.446a16.082,16.082,0,1,1,0,32.164Zm-208.781-30.793a14.727,14.727,0,0,0-14.713,14.709,14.729,14.729,0,0,0,14.713,14.713H35.446a14.711,14.711,0,1,0,0-29.422Z" transform="translate(243.102 245.154)" fill="#c0c1c1"/>
      <g id="그룹_10773" data-name="그룹 10773" transform="translate(265.477 544.125)">
        <path id="패스_10083" data-name="패스 10083" d="M-73.566,309.864a12.509,12.509,0,0,1,12.5-12.5,12.509,12.509,0,0,1,12.493,12.5,12.508,12.508,0,0,1-12.493,12.493,12.509,12.509,0,0,1-12.5-12.493Zm14.278,6.969V307.4l3.7,3.7a1.55,1.55,0,0,0,2.192,0l.3-.3a1.548,1.548,0,0,0,0-2.19L-59.91,301.8a1.547,1.547,0,0,0-1.1-.453h-.132a1.543,1.543,0,0,0-1.1.453l-6.815,6.815a1.548,1.548,0,0,0,0,2.19c.1.1.2.2.3.3a1.548,1.548,0,0,0,2.19,0c1.417-1.415,3.7-3.7,3.7-3.7v9.431a1.548,1.548,0,0,0,1.548,1.548h.468a1.548,1.548,0,0,0,1.548-1.548Z" transform="translate(73.566 -297.369)" fill="#c0c1c1" fill-rule="evenodd"/>
      </g>
      <rect id="사각형_174" data-name="사각형 174" width="29.82" height="0.286" transform="translate(87.32 364.688)" fill="#0d7ac2"/>
      <rect id="사각형_175" data-name="사각형 175" width="29.82" height="0.286" transform="translate(87.32 375.385)" fill="#0d7ac2"/>
      <rect id="사각형_176" data-name="사각형 176" width="29.82" height="0.286" transform="translate(92.027 386.081)" fill="#0d7ac2"/>
    </g>
    <g id="사각형_177" data-name="사각형 177" transform="translate(0.496)" fill="none" stroke="#000" stroke-width="15">
      <rect width="321" height="642" rx="31" stroke="none"/>
      <rect x="7.5" y="7.5" width="306" height="627" rx="23.5" fill="none"/>
    </g>
    <g id="그룹_10836" data-name="그룹 10836" transform="translate(-466.504 -319)">
      <g id="그룹_10835" data-name="그룹 10835" transform="translate(-512 406)">
        <g id="사각형_185" data-name="사각형 185" transform="translate(1028 347)" fill="none" stroke="#00218c" stroke-width="1">
          <rect width="188" height="46" rx="4" stroke="none"/>
          <rect x="0.5" y="0.5" width="187" height="45" rx="3.5" fill="none"/>
        </g>
      </g>
      <text id="서비스사용_시작하기" data-name="서비스사용 시작하기" transform="translate(611.527 782.471)" fill="#00218c" stroke="rgba(0,0,0,0)" stroke-width="1" font-size="18" font-family="Pretendard-Bold, Pretendard" font-weight="700"><tspan x="-72.079" y="0">서비스사용 시작하기</tspan></text>
    </g>
  </g>
</svg>
