<svg width="260" height="40" viewBox="0 0 260 40" fill="none" xmlns="http://www.w3.org/2000/svg">
<path d="M18.5893 0C8.32294 0 0 7.69838 0 17.1952C0 24.2076 2.93603 27.5563 6.95949 30.6095L6.979 30.6178V38.8488C6.979 39.2363 7.42234 39.4594 7.73462 39.228L14.7833 33.9916L14.9339 34.0585C16.1161 34.276 17.3374 34.3903 18.5865 34.3903C28.8529 34.3903 37.1758 26.692 37.1758 17.1952C37.1758 7.69838 28.8529 0 18.5865 0M12.3548 21.5504C14.1783 21.5504 15.7369 20.4602 16.2053 18.7733H18.9016C18.2436 22.0161 15.7174 24.1435 12.3575 24.1435C8.4512 24.1435 5.35345 21.2298 5.35345 17.1757C5.35345 13.1215 8.4512 10.2078 12.3575 10.2078C15.7536 10.2078 18.2937 12.3771 18.9211 15.6756H16.2332C15.8233 13.8827 14.2117 12.7646 12.3575 12.7646C9.73101 12.7646 7.98278 14.6383 7.98278 17.1784C7.98278 19.7185 9.9708 21.556 12.3575 21.556M30.1159 23.8814H27.6456V18.3105C27.6456 17.0279 26.8983 16.3392 25.7495 16.3392C24.4669 16.3392 23.6444 17.1227 23.6444 18.712V23.8814H21.174V10.2552H23.6444V15.38C24.2383 14.4794 25.1947 14.0389 26.4968 14.0389C27.5508 14.0389 28.4123 14.3846 29.0815 15.0928C29.7702 15.801 30.1159 16.7574 30.1159 18.0038V23.8814Z" fill="#231916"/>
<path d="M251.4 2.49426H49.9333C45.1835 2.49426 41.333 6.8412 41.333 12.2034V26.7823C41.333 32.1445 45.1835 36.4915 49.9333 36.4915H251.4C256.15 36.4915 260 32.1445 260 26.7823V12.2034C260 6.8412 256.15 2.49426 251.4 2.49426Z" fill="white"/>
<path d="M57.9193 13.7927C57.9193 17.9948 56.7661 21.5966 51.632 24.1557L50.6841 22.8603C53.1011 21.6756 54.5544 20.2696 55.3601 18.6109L51.0001 19.0374L50.7789 17.5525L55.8656 17.2207C56.0394 16.5888 56.15 15.8938 56.1974 15.1829H51.5056V13.7927H57.9193ZM59.8781 26.3041V12.4026H61.5842V17.8684H63.6695V19.2586H61.5842V26.3041H59.8781ZM77.038 19.8273V21.1858H64.3054V19.8273H69.8029V18.6583H65.9167V12.7501H75.5215V14.0771H67.6544V15.0249H75.1739V16.3203H67.6544V17.3629H75.6162V18.6583H71.509V19.8273H77.038ZM65.7272 23.5554V22.1653H75.4267V26.3357H73.689V23.5554H65.7272ZM89.9958 12.4026V26.3357H88.3529V12.4026H89.9958ZM78.1163 18.4371C78.1163 15.3725 79.3011 13.461 81.1177 13.4768C82.8238 13.461 83.9612 15.0407 84.1508 17.6473H85.5094V12.6553H87.1523V25.6723H85.5094V19.0374H84.1666C84.0244 21.7703 82.8554 23.429 81.1177 23.429C79.3011 23.429 78.1163 21.5176 78.1163 18.4371ZM79.696 18.4371C79.696 20.6171 80.2331 21.7861 81.1177 21.7861C82.0498 21.7861 82.6027 20.6171 82.6027 18.4371C82.6027 16.2571 82.0498 15.0723 81.1177 15.0881C80.2331 15.0723 79.696 16.2571 79.696 18.4371ZM96.7927 15.7516C96.7769 18.3423 98.0249 20.8857 100.236 21.8809L99.1939 23.2395C97.6299 22.4654 96.5241 20.9963 95.9238 19.1796C95.3235 21.0911 94.1861 22.6866 92.5906 23.4922L91.4848 22.1021C93.7596 21.0437 95.0234 18.3581 95.055 15.7516V13.54H96.7927V15.7516ZM98.6883 18.3107V16.9206H101.627V12.4026H103.333V26.3673H101.627V18.3107H98.6883ZM201.945 13.2556C201.945 16.8416 199.575 19.3692 195.531 20.4908L194.836 19.1638C197.948 18.3107 199.796 16.6836 200.097 14.6458H195.563V13.2556H201.945ZM197.237 26.1778V20.8383H206.4V26.1778H197.237ZM198.912 24.8192H204.694V22.1969H198.912V24.8192ZM202.008 17.2365V15.8148H204.694V12.4342H206.4V20.2696H204.694V17.2365H202.008ZM212.754 14.9301C212.738 16.4941 213.607 18.0264 215.44 18.7531L214.524 20.08C213.291 19.5903 212.423 18.6741 211.917 17.5525C211.412 18.8005 210.495 19.8589 209.184 20.4276L208.268 19.1006C210.179 18.2791 211.08 16.5099 211.08 14.9301V13.224H212.754V14.9301ZM210.764 22.8919V21.5334H220.305V26.3357H218.599V22.8919H210.764ZM215.693 20.7751V12.6553H217.272V15.878H218.694V12.4342H220.305V20.8383H218.694V17.2997H217.272V20.7751H215.693Z" fill="#231916"/>
<path d="M121.224 12.3078V21.9757H119.107V12.3078H121.224ZM108.807 18.7531H109.85V15.0881H109.06V13.3188H115.568V15.0881H114.715V18.5477C115.079 18.5161 115.426 18.4845 115.758 18.4371L115.853 20.08C113.688 20.4908 110.877 20.5224 109.028 20.5224L108.807 18.7531ZM110.671 24.6612C113.894 24.3295 115.142 22.8919 115.158 21.565V21.249H117.338V21.565C117.338 22.8919 118.601 24.3295 121.856 24.6612L121.034 26.3989C118.728 26.0988 117.132 25.2141 116.248 24.0135C115.379 25.2141 113.783 26.0988 111.429 26.3989L110.671 24.6612ZM111.872 18.7057C112.172 18.7057 112.456 18.6899 112.756 18.6741V15.0881H111.872V18.7057ZM115.252 17.742V15.9412H116.421V12.5921H118.475V20.7119H116.421V17.742H115.252ZM135.54 23.0183V24.8824H122.618V23.0183H135.54ZM123.566 15.2461V13.4768H134.529V15.2461H132.602V19.3218H134.434V21.0595H123.661V19.3218H125.43V15.2461H123.566ZM127.673 19.3218H130.422V15.2461H127.673V19.3218ZM149.193 23.1131V24.9456H136.271V23.1131H141.61V21.1542H137.724V16.2887H145.56V14.9617H137.693V13.1924H147.771V17.9948H139.936V19.3534H148.087V21.1542H143.822V23.1131H149.193ZM157.949 13.54V15.3093H156.811V21.249C157.317 21.2016 157.822 21.1542 158.296 21.0911L158.423 22.7024C155.563 23.2079 152.372 23.2711 149.955 23.2711L149.734 21.5018L151.251 21.486V15.3093H150.082V13.54H157.949ZM153.399 21.4386C153.81 21.4228 154.236 21.407 154.663 21.3912V15.3093H153.399V21.4386ZM158.928 26.4621V12.3078H161.14V17.5841H163.162V19.385H161.14V26.4621H158.928ZM175.14 19.5113V21.249H165.062V13.2872H175.045V15.0881H167.305V16.3835H174.698V18.0896H167.305V19.5113H175.14ZM163.577 24.8824V23.0815H176.499V24.8824H163.577ZM189.235 12.3078V26.4937H187.024V18.3739H183.327V16.573H187.024V12.3078H189.235ZM177.925 23.1763V13.7927H180.168V21.3438C181.874 21.2964 183.675 21.1384 185.539 20.7751L185.76 22.6076C183.454 23.0815 181.226 23.1921 179.157 23.1763H177.925Z" fill="#2962F6"/>
<path d="M240.27 28.4681C245.047 28.4681 248.92 24.5958 248.92 19.819C248.92 15.0422 245.047 11.1698 240.27 11.1698C235.494 11.1698 231.621 15.0422 231.621 19.819C231.621 24.5958 235.494 28.4681 240.27 28.4681Z" fill="#231916"/>
<path d="M240.271 15.2323V24.4084" stroke="white" stroke-width="1.20453" stroke-miterlimit="10"/>
<path d="M244.86 19.819H235.681" stroke="white" stroke-width="1.20453" stroke-miterlimit="10"/>
</svg>
