<svg width="25" height="25" viewBox="0 0 25 25" fill="none" xmlns="http://www.w3.org/2000/svg">
<path d="M24.8489 11.8657C22.4952 7.27322 17.8355 4.16602 12.5 4.16602C7.16447 4.16602 2.50345 7.27539 0.151018 11.8661C0.0517306 12.0625 0 12.2795 0 12.4996C0 12.7196 0.0517306 12.9366 0.151018 13.133C2.50475 17.7255 7.16447 20.8327 12.5 20.8327C17.8355 20.8327 22.4965 17.7233 24.8489 13.1326C24.9482 12.9362 25 12.7192 25 12.4991C25 12.2791 24.9482 12.0621 24.8489 11.8657ZM12.5 18.7493C11.2638 18.7493 10.0555 18.3828 9.02766 17.696C7.99985 17.0093 7.19878 16.0332 6.72573 14.8911C6.25268 13.7491 6.12891 12.4924 6.37007 11.28C6.61123 10.0677 7.20648 8.95401 8.08056 8.07993C8.95464 7.20585 10.0683 6.6106 11.2807 6.36944C12.493 6.12828 13.7497 6.25205 14.8917 6.7251C16.0338 7.19815 17.0099 7.99923 17.6967 9.02703C18.3834 10.0548 18.75 11.2632 18.75 12.4993C18.7504 13.3202 18.589 14.1331 18.275 14.8916C17.9611 15.6501 17.5007 16.3392 16.9203 16.9197C16.3398 17.5001 15.6507 17.9605 14.8922 18.2744C14.1338 18.5884 13.3208 18.7497 12.5 18.7493ZM12.5 8.33268C12.1281 8.33788 11.7586 8.39321 11.4015 8.49718C11.6958 8.89721 11.8371 9.38949 11.7996 9.88474C11.7621 10.38 11.5484 10.8454 11.1972 11.1966C10.846 11.5478 10.3806 11.7615 9.88537 11.799C9.39012 11.8364 8.89784 11.6952 8.49781 11.4008C8.27001 12.2401 8.31113 13.1296 8.61538 13.9442C8.91962 14.7589 9.47167 15.4576 10.1938 15.942C10.916 16.4265 11.7719 16.6723 12.641 16.6448C13.5102 16.6174 14.3489 16.318 15.039 15.789C15.7291 15.2599 16.236 14.5277 16.4882 13.6955C16.7404 12.8633 16.7253 11.973 16.445 11.1498C16.1647 10.3266 15.6333 9.61204 14.9256 9.10669C14.2179 8.60134 13.3696 8.33064 12.5 8.33268Z" fill="#ADB5BD"/>
</svg>
