<svg width="230" height="174" viewBox="0 0 230 174" fill="none" xmlns="http://www.w3.org/2000/svg">
<path d="M127.996 88.1245L82.6528 61.8638C73.583 56.6129 70.4741 44.9773 75.7131 35.8777C80.9462 26.778 92.546 23.6633 101.616 28.9142L146.959 55.1749C156.029 60.4258 159.137 72.0614 153.898 81.161C148.665 90.2607 137.066 93.3754 127.996 88.1245Z" fill="white"/>
<path d="M127.996 55.1779L82.6528 81.4385C73.583 86.6895 70.4741 98.3251 75.7131 107.425C80.9462 116.524 92.546 119.639 101.616 114.388L146.959 88.1275C156.029 82.8766 159.137 71.241 153.898 62.1413C148.665 53.0417 137.066 49.9269 127.996 55.1779Z" fill="white"/>
<path d="M156.821 19.1241C156.821 29.6857 148.282 38.2483 137.756 38.2483C127.231 38.2483 99.2812 19.1241 99.2812 19.1241C99.2812 19.1241 127.225 0 137.756 0C148.288 0 156.821 8.5626 156.821 19.1241Z" fill="white"/>
<path d="M0 173.896L1.59911 166.288H31.7622C32.9854 166.288 33.6775 165.679 33.9341 164.456L34.3101 162.672C34.5368 161.592 34.1788 160.84 32.9556 160.84H10.2154C4.7198 160.84 3.28774 158.256 4.26633 153.608L5.17332 149.288C6.14594 144.64 8.65209 142.098 14.1477 142.098H46.8944L45.3072 149.664H15.9437C14.6728 149.664 14.0283 150.272 13.7717 151.496L13.4376 153.095C13.193 154.27 13.5688 154.927 14.8398 154.927H37.4844C43.0277 154.927 44.4598 157.51 43.4813 162.159L42.5266 166.717C41.554 171.366 39.0478 173.908 33.5045 173.908H0.0059728L0 173.896Z" fill="white"/>
<path d="M44.9141 173.896L46.5132 166.288H76.6763C77.8995 166.288 78.5916 165.679 78.8482 164.456L79.2242 162.672C79.4509 161.592 79.0929 160.84 77.8696 160.84H55.1294C49.6339 160.84 48.2018 158.256 49.1804 153.608L50.0874 149.288C51.06 144.64 53.5662 142.098 59.0617 142.098H91.8084L90.2213 149.664H60.8578C59.5868 149.664 58.9423 150.272 58.6857 151.496L58.3517 153.095C58.1071 154.27 58.4829 154.927 59.7539 154.927H82.3985C87.9418 154.927 89.3739 157.51 88.3953 162.159L87.4407 166.717C86.4681 171.366 83.9619 173.908 78.4186 173.908H44.92L44.9141 173.896Z" fill="white"/>
<path d="M99.5472 173.896C92.7806 173.896 90.3521 170.465 91.802 163.561L94.7975 149.282C95.7701 144.634 98.3239 142.092 103.867 142.092H131.208C136.751 142.092 138.195 144.628 137.217 149.282L136.298 153.65C135.325 158.298 132.819 160.84 127.276 160.84H101.534L101.158 162.624C100.765 164.504 101.403 165.488 103.282 165.488H133.022L131.256 173.896H99.5412H99.5472ZM127.688 151.49C127.944 150.267 127.556 149.658 126.285 149.658H105.616C104.392 149.658 103.748 150.267 103.491 151.49L102.734 155.106H125.146C126.417 155.106 127.067 154.449 127.312 153.274L127.688 151.49Z" fill="white"/>
<path d="M168.978 173.896L173.286 153.363C173.692 151.436 173.005 150.452 171.174 150.452H150.552L145.635 173.896H136.523L143.194 142.092H174.861C181.58 142.092 184.044 145.571 182.606 152.427L178.101 173.896H168.99H168.978Z" fill="white"/>
<path d="M192.047 173.896C185.281 173.896 182.852 170.465 184.302 163.561L187.297 149.282C188.27 144.634 190.824 142.092 196.367 142.092H223.708C229.251 142.092 230.695 144.628 229.717 149.282L228.798 153.65C227.825 158.298 225.319 160.84 219.776 160.84H194.034L193.658 162.624C193.265 164.504 193.903 165.488 195.782 165.488H225.522L223.756 173.896H192.041H192.047ZM220.188 151.49C220.444 150.267 220.056 149.658 218.785 149.658H198.116C196.892 149.658 196.248 150.267 195.991 151.49L195.234 155.106H217.646C218.917 155.106 219.567 154.449 219.812 153.274L220.188 151.49Z" fill="white"/>
</svg>
