<svg width="108" height="30" viewBox="0 0 108 30" fill="none" xmlns="http://www.w3.org/2000/svg">
<path d="M14.0626 22.6089L2.43216 15.8709C0.106586 14.5239 -0.690198 11.539 0.651678 9.20569C1.99355 6.87233 4.97056 6.07291 7.29613 7.41998L18.9266 14.1579C21.2522 15.505 22.049 18.4898 20.7071 20.8232C19.3652 23.1565 16.3882 23.9559 14.0626 22.6089Z" fill="white"/>
<path d="M14.0626 14.1563L2.43216 20.8942C0.106586 22.2413 -0.690198 25.2261 0.651678 27.5595C1.99355 29.8929 4.97056 30.6923 7.29613 29.3452L18.9266 22.6073C21.2522 21.2602 22.049 18.2754 20.7071 15.942C19.3652 13.6087 16.3882 12.8092 14.0626 14.1563Z" fill="white"/>
<path d="M21.456 4.9055C21.456 7.61521 19.2653 9.811 16.566 9.811C13.8667 9.811 6.69531 4.9055 6.69531 4.9055C6.69531 4.9055 13.8641 0 16.566 0C19.2679 0 21.456 2.1958 21.456 4.9055Z" fill="white"/>
<path d="M24.6797 20.7313L25.2559 17.9878H36.1337C36.5749 17.9878 36.8241 17.7672 36.9149 17.326L37.0499 16.6823C37.1304 16.2929 37.0006 16.0204 36.5619 16.0204H28.3627C26.3797 16.0204 25.8659 15.0886 26.2163 13.4119L26.5433 11.8546C26.8937 10.1779 27.7995 9.26172 29.7799 9.26172H41.5894L41.0184 11.9896H30.4288C29.972 11.9896 29.7384 12.2102 29.6475 12.6515L29.5255 13.2276C29.4373 13.6507 29.5722 13.8895 30.0316 13.8895H38.1971C40.1956 13.8895 40.7122 14.8213 40.3592 16.498L40.0139 18.1409C39.661 19.8176 38.7577 20.7338 36.7592 20.7338H24.6797V20.7313Z" fill="white"/>
<path d="M40.875 20.7313L41.4512 17.9878H52.3289C52.7702 17.9878 53.0193 17.7672 53.1102 17.326L53.2452 16.6823C53.3256 16.2929 53.1959 16.0204 52.7572 16.0204H44.558C42.575 16.0204 42.0611 15.0886 42.4115 13.4119L42.7386 11.8546C43.0889 10.1779 43.9948 9.26172 45.9751 9.26172H57.7847L57.2137 11.9896H46.624C46.1672 11.9896 45.9336 12.2102 45.8428 12.6515L45.7208 13.2276C45.6325 13.6507 45.7675 13.8895 46.2269 13.8895H54.3923C56.3909 13.8895 56.9074 14.8213 56.5544 16.498L56.2092 18.1409C55.8562 19.8176 54.953 20.7338 52.9544 20.7338H40.875V20.7313Z" fill="white"/>
<path d="M60.5785 20.7313C58.1387 20.7313 57.264 19.4932 57.7857 17.0041L58.8654 11.8546C59.2158 10.1779 60.1373 9.26172 62.1358 9.26172H71.9961C73.9946 9.26172 74.5138 10.1753 74.1634 11.8546L73.8337 13.4301C73.4808 15.1068 72.5775 16.023 70.579 16.023H61.2949L61.1599 16.6667C61.0171 17.3441 61.2481 17.6997 61.9255 17.6997H72.6502L72.0143 20.7313H60.5785ZM70.7269 12.6515C70.8204 12.2102 70.6802 11.9896 70.2208 11.9896H62.7665C62.3252 11.9896 62.0943 12.2102 62.0008 12.6515L61.7283 13.957H69.8107C70.2675 13.957 70.5037 13.7208 70.592 13.2951L70.7269 12.6515Z" fill="white"/>
<path d="M85.6198 20.7313L87.1719 13.3289C87.3172 12.6333 87.0706 12.2777 86.4088 12.2777H78.9727L77.1999 20.7313H73.9141L76.32 9.26172H87.7377C90.1619 9.26172 91.0495 10.5153 90.5304 12.9889L88.9056 20.7313H85.6198Z" fill="white"/>
<path d="M93.9301 20.7313C91.4903 20.7313 90.6156 19.4932 91.1373 17.0041L92.217 11.8546C92.5674 10.1779 93.4888 9.26172 95.4874 9.26172H105.348C107.346 9.26172 107.865 10.1753 107.515 11.8546L107.185 13.4301C106.832 15.1068 105.929 16.023 103.931 16.023H94.6464L94.5114 16.6667C94.3687 17.3441 94.5997 17.6997 95.2771 17.6997H106.002L105.366 20.7313H93.9301ZM104.078 12.6515C104.172 12.2102 104.032 11.9896 103.572 11.9896H96.118C95.6768 11.9896 95.4458 12.2102 95.3524 12.6515L95.0798 13.957H103.162C103.619 13.957 103.855 13.7208 103.944 13.2951L104.078 12.6515Z" fill="white"/>
</svg>
