<svg width="126" height="35" viewBox="0 0 126 35" fill="none" xmlns="http://www.w3.org/2000/svg">
<path d="M16.4058 26.3757L2.83744 18.5151C0.124374 16.9436 -0.805212 13.4614 0.760254 10.7392C2.32572 8.01706 5.79881 7.08444 8.51188 8.65597L22.0803 16.5166C24.7934 18.0881 25.7229 21.5703 24.1575 24.2925C22.592 27.0146 19.1189 27.9472 16.4058 26.3757Z" fill="#E03122"/>
<path d="M16.4058 16.5173L2.83744 24.3779C0.124374 25.9495 -0.805212 29.4316 0.760254 32.1538C2.32572 34.8759 5.79881 35.8086 8.51188 34.237L22.0803 26.3764C24.7934 24.8049 25.7229 21.3227 24.1575 18.6005C22.592 15.8784 19.1189 14.9458 16.4058 16.5173Z" fill="#E03122"/>
<path d="M25.0365 5.72288C25.0365 8.88409 22.4809 11.4458 19.3318 11.4458C16.1827 11.4458 7.81641 5.72288 7.81641 5.72288C7.81641 5.72288 16.1797 0 19.3318 0C22.484 0 25.0365 2.56167 25.0365 5.72288Z" fill="#E03122"/>
<path d="M28.793 24.1873L29.4652 20.9867H42.1554C42.6702 20.9867 42.9609 20.7293 43.0668 20.2146L43.2243 19.4636C43.3182 19.0094 43.1668 18.6915 42.655 18.6915H33.0897C30.7763 18.6915 30.1767 17.6045 30.5855 15.6484L30.967 13.8316C31.3758 11.8755 32.4326 10.8066 34.7429 10.8066H48.5202L47.8541 13.9891H35.4999C34.967 13.9891 34.6945 14.2464 34.5885 14.7612L34.4462 15.4334C34.3432 15.927 34.5007 16.2055 35.0367 16.2055H44.5627C46.8942 16.2055 47.4968 17.2926 47.085 19.2487L46.6823 21.1654C46.2705 23.1214 45.2167 24.1903 42.8852 24.1903H28.793V24.1873Z" fill="#3A3F42"/>
<path d="M47.6914 24.1873L48.3636 20.9867H61.0539C61.5686 20.9867 61.8593 20.7293 61.9653 20.2146L62.1228 19.4636C62.2166 19.0094 62.0652 18.6915 61.5535 18.6915H51.9881C49.6748 18.6915 49.0752 17.6045 49.484 15.6484L49.8655 13.8316C50.2743 11.8755 51.331 10.8066 53.6414 10.8066H67.4187L66.7526 13.9891H54.3984C53.8655 13.9891 53.5929 14.2464 53.487 14.7612L53.3447 15.4334C53.2417 15.927 53.3991 16.2055 53.9351 16.2055H63.4612C65.7927 16.2055 66.3953 17.2926 65.9835 19.2487L65.5807 21.1654C65.1689 23.1214 64.1152 24.1903 61.7836 24.1903H47.6914V24.1873Z" fill="#3A3F42"/>
<path d="M70.6735 24.1873C67.8272 24.1873 66.8067 22.7429 67.4154 19.8391L68.675 13.8316C69.0838 11.8755 70.1587 10.8066 72.4903 10.8066H83.9936C86.3252 10.8066 86.9307 11.8725 86.5219 13.8316L86.1374 15.6696C85.7256 17.6257 84.6718 18.6945 82.3403 18.6945H71.5092L71.3517 19.4455C71.1852 20.2358 71.4547 20.6506 72.245 20.6506H84.7566L84.0147 24.1873H70.6735ZM82.5129 14.7612C82.6219 14.2464 82.4584 13.9891 81.9224 13.9891H73.2261C72.7113 13.9891 72.4418 14.2464 72.3328 14.7612L72.0149 16.2843H81.444C81.9769 16.2843 82.2525 16.0087 82.3554 15.5121L82.5129 14.7612Z" fill="#3A3F42"/>
<path d="M99.8828 24.1873L101.694 15.5515C101.863 14.74 101.575 14.3252 100.803 14.3252H92.1281L90.06 24.1873H86.2266L89.0335 10.8066H102.354C105.182 10.8066 106.217 12.2692 105.612 15.1548L103.716 24.1873H99.8828Z" fill="#3A3F42"/>
<path d="M109.588 24.1873C106.741 24.1873 105.721 22.7429 106.329 19.8391L107.589 13.8316C107.998 11.8755 109.073 10.8066 111.404 10.8066H122.908C125.239 10.8066 125.845 11.8725 125.436 13.8316L125.051 15.6696C124.64 17.6257 123.586 18.6945 121.254 18.6945H110.423L110.266 19.4455C110.099 20.2358 110.369 20.6506 111.159 20.6506H123.671L122.929 24.1873H109.588ZM121.427 14.7612C121.536 14.2464 121.372 13.9891 120.837 13.9891H112.14C111.625 13.9891 111.356 14.2464 111.247 14.7612L110.929 16.2843H120.358C120.891 16.2843 121.167 16.0087 121.27 15.5121L121.427 14.7612Z" fill="#3A3F42"/>
</svg>
