<svg width="227" height="200" viewBox="0 0 227 200" fill="none" xmlns="http://www.w3.org/2000/svg">
<path d="M73.9504 186.374H4.77539V199.506H73.9504V186.374Z" fill="#FCE147"/>
<path d="M73.9501 200H4.7751C4.50733 200 4.28418 199.777 4.28418 199.509V186.377C4.28418 186.109 4.50733 185.886 4.7751 185.886H73.9501C74.2179 185.886 74.441 186.109 74.441 186.377V199.509C74.441 199.777 74.2179 200 73.9501 200ZM5.26602 199.018H73.4704V186.868H5.26602V199.018Z" fill="#2A2628"/>
<path d="M10.5324 199.999C10.2646 199.999 10.0415 199.776 10.0415 199.508V190.125C10.0415 189.857 10.2646 189.634 10.5324 189.634C10.8002 189.634 11.0233 189.857 11.0233 190.125V199.508C11.0233 199.776 10.8002 199.999 10.5324 199.999Z" fill="#2A2628"/>
<path d="M18.8112 199.999C18.5435 199.999 18.3203 199.776 18.3203 199.508V190.125C18.3203 189.857 18.5435 189.634 18.8112 189.634C19.079 189.634 19.3022 189.857 19.3022 190.125V199.508C19.3022 199.776 19.079 199.999 18.8112 199.999Z" fill="#2A2628"/>
<path d="M27.0896 199.999C26.8218 199.999 26.5986 199.776 26.5986 199.508V190.125C26.5986 189.857 26.8218 189.634 27.0896 189.634C27.3573 189.634 27.5805 189.857 27.5805 190.125V199.508C27.5805 199.776 27.3573 199.999 27.0896 199.999Z" fill="#2A2628"/>
<path d="M35.3684 199.999C35.1006 199.999 34.8774 199.776 34.8774 199.508V190.125C34.8774 189.857 35.1006 189.634 35.3684 189.634C35.6361 189.634 35.8593 189.857 35.8593 190.125V199.508C35.8593 199.776 35.6361 199.999 35.3684 199.999Z" fill="#2A2628"/>
<path d="M43.6467 199.999C43.3789 199.999 43.1558 199.776 43.1558 199.508V190.125C43.1558 189.857 43.3789 189.634 43.6467 189.634C43.9145 189.634 44.1376 189.857 44.1376 190.125V199.508C44.1376 199.776 43.9145 199.999 43.6467 199.999Z" fill="#2A2628"/>
<path d="M51.9255 199.999C51.6577 199.999 51.4346 199.776 51.4346 199.508V190.125C51.4346 189.857 51.6577 189.634 51.9255 189.634C52.1933 189.634 52.4164 189.857 52.4164 190.125V199.508C52.4164 199.776 52.1933 199.999 51.9255 199.999Z" fill="#2A2628"/>
<path d="M60.2043 199.999C59.9365 199.999 59.7134 199.776 59.7134 199.508V190.125C59.7134 189.857 59.9365 189.634 60.2043 189.634C60.4721 189.634 60.6952 189.857 60.6952 190.125V199.508C60.6952 199.776 60.4721 199.999 60.2043 199.999Z" fill="#2A2628"/>
<path d="M68.4836 199.999C68.2158 199.999 67.9927 199.776 67.9927 199.508V190.125C67.9927 189.857 68.2158 189.634 68.4836 189.634C68.7514 189.634 68.9745 189.857 68.9745 190.125V199.508C68.9745 199.776 68.7514 199.999 68.4836 199.999Z" fill="#2A2628"/>
<path d="M78.2351 173.234H9.06006V186.366H78.2351V173.234Z" fill="#F9D300"/>
<path d="M78.2343 186.855H9.05928C8.7915 186.855 8.56836 186.632 8.56836 186.364V173.232C8.56836 172.964 8.7915 172.741 9.05928 172.741H78.2343C78.5021 172.741 78.7252 172.964 78.7252 173.232V186.364C78.7252 186.632 78.5021 186.855 78.2343 186.855ZM9.5502 185.873H77.7434V173.723H9.5502V185.873Z" fill="#2A2628"/>
<path d="M14.8166 186.855C14.5488 186.855 14.3257 186.632 14.3257 186.364V176.981C14.3257 176.713 14.5488 176.49 14.8166 176.49C15.0844 176.49 15.3075 176.713 15.3075 176.981V186.364C15.3075 186.632 15.0844 186.855 14.8166 186.855Z" fill="#2A2628"/>
<path d="M23.0954 186.855C22.8276 186.855 22.6045 186.632 22.6045 186.364V176.981C22.6045 176.713 22.8276 176.49 23.0954 176.49C23.3632 176.49 23.5863 176.713 23.5863 176.981V186.364C23.5863 186.632 23.3632 186.855 23.0954 186.855Z" fill="#2A2628"/>
<path d="M31.3737 186.855C31.106 186.855 30.8828 186.632 30.8828 186.364V176.981C30.8828 176.713 31.106 176.49 31.3737 176.49C31.6415 176.49 31.8647 176.713 31.8647 176.981V186.364C31.8647 186.632 31.6415 186.855 31.3737 186.855Z" fill="#2A2628"/>
<path d="M39.6525 186.855C39.3848 186.855 39.1616 186.632 39.1616 186.364V176.981C39.1616 176.713 39.3848 176.49 39.6525 176.49C39.9203 176.49 40.1435 176.713 40.1435 176.981V186.364C40.1435 186.632 39.9203 186.855 39.6525 186.855Z" fill="#2A2628"/>
<path d="M47.9309 186.855C47.6631 186.855 47.4399 186.632 47.4399 186.364V176.981C47.4399 176.713 47.6631 176.49 47.9309 176.49C48.1986 176.49 48.4218 176.713 48.4218 176.981V186.364C48.4218 186.632 48.1986 186.855 47.9309 186.855Z" fill="#2A2628"/>
<path d="M56.2106 186.855C55.9429 186.855 55.7197 186.632 55.7197 186.364V176.981C55.7197 176.713 55.9429 176.49 56.2106 176.49C56.4784 176.49 56.7016 176.713 56.7016 176.981V186.364C56.7016 186.632 56.4784 186.855 56.2106 186.855Z" fill="#2A2628"/>
<path d="M64.4895 186.855C64.2217 186.855 63.9985 186.632 63.9985 186.364V176.981C63.9985 176.713 64.2217 176.49 64.4895 176.49C64.7572 176.49 64.9804 176.713 64.9804 176.981V186.364C64.9804 186.632 64.7572 186.855 64.4895 186.855Z" fill="#2A2628"/>
<path d="M72.7678 186.855C72.5 186.855 72.2769 186.632 72.2769 186.364V176.981C72.2769 176.713 72.5 176.49 72.7678 176.49C73.0356 176.49 73.2587 176.713 73.2587 176.981V186.364C73.2587 186.632 73.0356 186.855 72.7678 186.855Z" fill="#2A2628"/>
<path d="M73.9504 133.835H4.77539V146.967H73.9504V133.835Z" fill="#FCE147"/>
<path d="M73.9501 147.461H4.7751C4.50733 147.461 4.28418 147.237 4.28418 146.97V133.838C4.28418 133.57 4.50733 133.347 4.7751 133.347H73.9501C74.2179 133.347 74.441 133.57 74.441 133.838V146.97C74.441 147.237 74.2179 147.461 73.9501 147.461ZM5.26602 146.479H73.4704V134.329H5.26602V146.479Z" fill="#2A2628"/>
<path d="M10.5324 147.46C10.2646 147.46 10.0415 147.237 10.0415 146.969V137.586C10.0415 137.318 10.2646 137.095 10.5324 137.095C10.8002 137.095 11.0233 137.318 11.0233 137.586V146.969C11.0233 147.237 10.8002 147.46 10.5324 147.46Z" fill="#2A2628"/>
<path d="M18.8112 147.46C18.5435 147.46 18.3203 147.237 18.3203 146.969V137.586C18.3203 137.318 18.5435 137.095 18.8112 137.095C19.079 137.095 19.3022 137.318 19.3022 137.586V146.969C19.3022 147.237 19.079 147.46 18.8112 147.46Z" fill="#2A2628"/>
<path d="M27.0896 147.46C26.8218 147.46 26.5986 147.237 26.5986 146.969V137.586C26.5986 137.318 26.8218 137.095 27.0896 137.095C27.3573 137.095 27.5805 137.318 27.5805 137.586V146.969C27.5805 147.237 27.3573 147.46 27.0896 147.46Z" fill="#2A2628"/>
<path d="M35.3684 147.46C35.1006 147.46 34.8774 147.237 34.8774 146.969V137.586C34.8774 137.318 35.1006 137.095 35.3684 137.095C35.6361 137.095 35.8593 137.318 35.8593 137.586V146.969C35.8593 147.237 35.6361 147.46 35.3684 147.46Z" fill="#2A2628"/>
<path d="M43.6467 147.46C43.3789 147.46 43.1558 147.237 43.1558 146.969V137.586C43.1558 137.318 43.3789 137.095 43.6467 137.095C43.9145 137.095 44.1376 137.318 44.1376 137.586V146.969C44.1376 147.237 43.9145 147.46 43.6467 147.46Z" fill="#2A2628"/>
<path d="M51.9255 147.46C51.6577 147.46 51.4346 147.237 51.4346 146.969V137.586C51.4346 137.318 51.6577 137.095 51.9255 137.095C52.1933 137.095 52.4164 137.318 52.4164 137.586V146.969C52.4164 147.237 52.1933 147.46 51.9255 147.46Z" fill="#2A2628"/>
<path d="M60.2043 147.46C59.9365 147.46 59.7134 147.237 59.7134 146.969V137.586C59.7134 137.318 59.9365 137.095 60.2043 137.095C60.4721 137.095 60.6952 137.318 60.6952 137.586V146.969C60.6952 147.237 60.4721 147.46 60.2043 147.46Z" fill="#2A2628"/>
<path d="M68.4836 147.46C68.2158 147.46 67.9927 147.237 67.9927 146.969V137.586C67.9927 137.318 68.2158 137.095 68.4836 137.095C68.7514 137.095 68.9745 137.318 68.9745 137.586V146.969C68.9745 147.237 68.7514 147.46 68.4836 147.46Z" fill="#2A2628"/>
<path d="M74.2404 94.4399H5.06543V107.572H74.2404V94.4399Z" fill="#FCE147"/>
<path d="M74.2402 108.062H5.06514C4.79736 108.062 4.57422 107.839 4.57422 107.571V94.4387C4.57422 94.1709 4.79736 93.9478 5.06514 93.9478H74.2402C74.5079 93.9478 74.7311 94.1709 74.7311 94.4387V107.571C74.7311 107.839 74.5079 108.062 74.2402 108.062ZM5.55606 107.08H73.7492V94.9296H5.55606V107.08Z" fill="#2A2628"/>
<path d="M10.8225 108.061C10.5547 108.061 10.3315 107.838 10.3315 107.57V98.1867C10.3315 97.9189 10.5547 97.6958 10.8225 97.6958C11.0902 97.6958 11.3134 97.9189 11.3134 98.1867V107.57C11.3134 107.838 11.0902 108.061 10.8225 108.061Z" fill="#2A2628"/>
<path d="M19.1008 108.061C18.833 108.061 18.6099 107.838 18.6099 107.57V98.1867C18.6099 97.9189 18.833 97.6958 19.1008 97.6958C19.3686 97.6958 19.5917 97.9189 19.5917 98.1867V107.57C19.5917 107.838 19.3686 108.061 19.1008 108.061Z" fill="#2A2628"/>
<path d="M27.3796 108.061C27.1118 108.061 26.8887 107.838 26.8887 107.57V98.1867C26.8887 97.9189 27.1118 97.6958 27.3796 97.6958C27.6474 97.6958 27.8705 97.9189 27.8705 98.1867V107.57C27.8705 107.838 27.6474 108.061 27.3796 108.061Z" fill="#2A2628"/>
<path d="M35.6579 108.061C35.3901 108.061 35.167 107.838 35.167 107.57V98.1867C35.167 97.9189 35.3901 97.6958 35.6579 97.6958C35.9257 97.6958 36.1488 97.9189 36.1488 98.1867V107.57C36.1488 107.838 35.9257 108.061 35.6579 108.061Z" fill="#2A2628"/>
<path d="M43.9377 108.061C43.6699 108.061 43.4468 107.838 43.4468 107.57V98.1867C43.4468 97.9189 43.6699 97.6958 43.9377 97.6958C44.2055 97.6958 44.4286 97.9189 44.4286 98.1867V107.57C44.4286 107.838 44.2055 108.061 43.9377 108.061Z" fill="#2A2628"/>
<path d="M52.2165 108.061C51.9487 108.061 51.7256 107.838 51.7256 107.57V98.1867C51.7256 97.9189 51.9487 97.6958 52.2165 97.6958C52.4843 97.6958 52.7074 97.9189 52.7074 98.1867V107.57C52.7074 107.838 52.4843 108.061 52.2165 108.061Z" fill="#2A2628"/>
<path d="M60.4948 108.061C60.2271 108.061 60.0039 107.838 60.0039 107.57V98.1867C60.0039 97.9189 60.2271 97.6958 60.4948 97.6958C60.7626 97.6958 60.9857 97.9189 60.9857 98.1867V107.57C60.9857 107.838 60.7626 108.061 60.4948 108.061Z" fill="#2A2628"/>
<path d="M68.7736 108.061C68.5059 108.061 68.2827 107.838 68.2827 107.57V98.1867C68.2827 97.9189 68.5059 97.6958 68.7736 97.6958C69.0414 97.6958 69.2646 97.9189 69.2646 98.1867V107.57C69.2646 107.838 69.0414 108.061 68.7736 108.061Z" fill="#2A2628"/>
<path d="M78.2351 120.703H9.06006V133.835H78.2351V120.703Z" fill="#F9D300"/>
<path d="M78.2343 134.325H9.05928C8.7915 134.325 8.56836 134.102 8.56836 133.834V120.702C8.56836 120.434 8.7915 120.211 9.05928 120.211H78.2343C78.5021 120.211 78.7252 120.434 78.7252 120.702V133.834C78.7252 134.102 78.5021 134.325 78.2343 134.325ZM9.5502 133.343H77.7434V121.193H9.5502V133.343Z" fill="#2A2628"/>
<path d="M14.8166 134.328C14.5488 134.328 14.3257 134.105 14.3257 133.838V124.454C14.3257 124.187 14.5488 123.963 14.8166 123.963C15.0844 123.963 15.3075 124.187 15.3075 124.454V133.838C15.3075 134.105 15.0844 134.328 14.8166 134.328Z" fill="#2A2628"/>
<path d="M23.0954 134.328C22.8276 134.328 22.6045 134.105 22.6045 133.838V124.454C22.6045 124.187 22.8276 123.963 23.0954 123.963C23.3632 123.963 23.5863 124.187 23.5863 124.454V133.838C23.5863 134.105 23.3632 134.328 23.0954 134.328Z" fill="#2A2628"/>
<path d="M31.3737 134.328C31.106 134.328 30.8828 134.105 30.8828 133.838V124.454C30.8828 124.187 31.106 123.963 31.3737 123.963C31.6415 123.963 31.8647 124.187 31.8647 124.454V133.838C31.8647 134.105 31.6415 134.328 31.3737 134.328Z" fill="#2A2628"/>
<path d="M39.6525 134.328C39.3848 134.328 39.1616 134.105 39.1616 133.838V124.454C39.1616 124.187 39.3848 123.963 39.6525 123.963C39.9203 123.963 40.1435 124.187 40.1435 124.454V133.838C40.1435 134.105 39.9203 134.328 39.6525 134.328Z" fill="#2A2628"/>
<path d="M47.9309 134.328C47.6631 134.328 47.4399 134.105 47.4399 133.838V124.454C47.4399 124.187 47.6631 123.963 47.9309 123.963C48.1986 123.963 48.4218 124.187 48.4218 124.454V133.838C48.4218 134.105 48.1986 134.328 47.9309 134.328Z" fill="#2A2628"/>
<path d="M56.2106 134.328C55.9429 134.328 55.7197 134.105 55.7197 133.838V124.454C55.7197 124.187 55.9429 123.963 56.2106 123.963C56.4784 123.963 56.7016 124.187 56.7016 124.454V133.838C56.7016 134.105 56.4784 134.328 56.2106 134.328Z" fill="#2A2628"/>
<path d="M64.4895 134.328C64.2217 134.328 63.9985 134.105 63.9985 133.838V124.454C63.9985 124.187 64.2217 123.963 64.4895 123.963C64.7572 123.963 64.9804 124.187 64.9804 124.454V133.838C64.9804 134.105 64.7572 134.328 64.4895 134.328Z" fill="#2A2628"/>
<path d="M72.7678 134.328C72.5 134.328 72.2769 134.105 72.2769 133.838V124.454C72.2769 124.187 72.5 123.963 72.7678 123.963C73.0356 123.963 73.2587 124.187 73.2587 124.454V133.838C73.2587 134.105 73.0356 134.328 72.7678 134.328Z" fill="#2A2628"/>
<path d="M86.5134 107.572H17.3384V120.704H86.5134V107.572Z" fill="#F9D300"/>
<path d="M86.5131 121.193H17.3381C17.0703 121.193 16.8472 120.97 16.8472 120.702V107.57C16.8472 107.302 17.0703 107.079 17.3381 107.079H86.5131C86.7809 107.079 87.004 107.302 87.004 107.57V120.702C87.004 120.97 86.7809 121.193 86.5131 121.193ZM17.829 120.211H86.0333V108.061H17.829V120.211Z" fill="#2A2628"/>
<path d="M23.0954 121.197C22.8276 121.197 22.6045 120.973 22.6045 120.706V111.322C22.6045 111.055 22.8276 110.832 23.0954 110.832C23.3632 110.832 23.5863 111.055 23.5863 111.322V120.706C23.5863 120.973 23.3632 121.197 23.0954 121.197Z" fill="#2A2628"/>
<path d="M31.3737 121.197C31.106 121.197 30.8828 120.973 30.8828 120.706V111.322C30.8828 111.055 31.106 110.832 31.3737 110.832C31.6415 110.832 31.8647 111.055 31.8647 111.322V120.706C31.8647 120.973 31.6415 121.197 31.3737 121.197Z" fill="#2A2628"/>
<path d="M39.6525 121.197C39.3848 121.197 39.1616 120.973 39.1616 120.706V111.322C39.1616 111.055 39.3848 110.832 39.6525 110.832C39.9203 110.832 40.1435 111.055 40.1435 111.322V120.706C40.1435 120.973 39.9203 121.197 39.6525 121.197Z" fill="#2A2628"/>
<path d="M47.9309 121.197C47.6631 121.197 47.4399 120.973 47.4399 120.706V111.322C47.4399 111.055 47.6631 110.832 47.9309 110.832C48.1986 110.832 48.4218 111.055 48.4218 111.322V120.706C48.4218 120.973 48.1986 121.197 47.9309 121.197Z" fill="#2A2628"/>
<path d="M56.2106 121.197C55.9429 121.197 55.7197 120.973 55.7197 120.706V111.322C55.7197 111.055 55.9429 110.832 56.2106 110.832C56.4784 110.832 56.7016 111.055 56.7016 111.322V120.706C56.7016 120.973 56.4784 121.197 56.2106 121.197Z" fill="#2A2628"/>
<path d="M64.4895 121.197C64.2217 121.197 63.9985 120.973 63.9985 120.706V111.322C63.9985 111.055 64.2217 110.832 64.4895 110.832C64.7572 110.832 64.9804 111.055 64.9804 111.322V120.706C64.9804 120.973 64.7572 121.197 64.4895 121.197Z" fill="#2A2628"/>
<path d="M72.7678 121.197C72.5 121.197 72.2769 120.973 72.2769 120.706V111.322C72.2769 111.055 72.5 110.832 72.7678 110.832C73.0356 110.832 73.2587 111.055 73.2587 111.322V120.706C73.2587 120.973 73.0356 121.197 72.7678 121.197Z" fill="#2A2628"/>
<path d="M81.0466 121.197C80.7788 121.197 80.5557 120.973 80.5557 120.706V111.322C80.5557 111.055 80.7788 110.832 81.0466 110.832C81.3144 110.832 81.5375 111.055 81.5375 111.322V120.706C81.5375 120.973 81.3144 121.197 81.0466 121.197Z" fill="#2A2628"/>
<path d="M69.6662 160.098H0.491211V173.23H69.6662V160.098Z" fill="#FCE147"/>
<path d="M69.6659 173.724H0.49092C0.223145 173.724 0 173.501 0 173.233V160.101C0 159.833 0.223145 159.61 0.49092 159.61H69.6659C69.9337 159.61 70.1569 159.833 70.1569 160.101V173.233C70.1569 173.501 69.9337 173.724 69.6659 173.724ZM0.981839 172.742H69.175V160.592H0.981839V172.742Z" fill="#2A2628"/>
<path d="M6.24824 173.723C5.98047 173.723 5.75732 173.5 5.75732 173.232V163.849C5.75732 163.581 5.98047 163.358 6.24824 163.358C6.51602 163.358 6.73916 163.581 6.73916 163.849V173.232C6.73916 173.5 6.51602 173.723 6.24824 173.723Z" fill="#2A2628"/>
<path d="M14.5271 173.723C14.2593 173.723 14.0361 173.5 14.0361 173.232V163.849C14.0361 163.581 14.2593 163.358 14.5271 163.358C14.7948 163.358 15.018 163.581 15.018 163.849V173.232C15.018 173.5 14.7948 173.723 14.5271 173.723Z" fill="#2A2628"/>
<path d="M22.8054 173.723C22.5376 173.723 22.3145 173.5 22.3145 173.232V163.849C22.3145 163.581 22.5376 163.358 22.8054 163.358C23.0731 163.358 23.2963 163.581 23.2963 163.849V173.232C23.2963 173.5 23.0731 173.723 22.8054 173.723Z" fill="#2A2628"/>
<path d="M31.0842 173.723C30.8164 173.723 30.5933 173.5 30.5933 173.232V163.849C30.5933 163.581 30.8164 163.358 31.0842 163.358C31.352 163.358 31.5751 163.581 31.5751 163.849V173.232C31.5751 173.5 31.352 173.723 31.0842 173.723Z" fill="#2A2628"/>
<path d="M39.3625 173.723C39.0947 173.723 38.8716 173.5 38.8716 173.232V163.849C38.8716 163.581 39.0947 163.358 39.3625 163.358C39.6303 163.358 39.8534 163.581 39.8534 163.849V173.232C39.8534 173.5 39.6303 173.723 39.3625 173.723Z" fill="#2A2628"/>
<path d="M47.6413 173.723C47.3735 173.723 47.1504 173.5 47.1504 173.232V163.849C47.1504 163.581 47.3735 163.358 47.6413 163.358C47.9091 163.358 48.1322 163.581 48.1322 163.849V173.232C48.1322 173.5 47.9091 173.723 47.6413 173.723Z" fill="#2A2628"/>
<path d="M55.9196 173.723C55.6519 173.723 55.4287 173.5 55.4287 173.232V163.849C55.4287 163.581 55.6519 163.358 55.9196 163.358C56.1874 163.358 56.4106 163.581 56.4106 163.849V173.232C56.4106 173.5 56.1874 173.723 55.9196 173.723Z" fill="#2A2628"/>
<path d="M64.1984 173.723C63.9307 173.723 63.7075 173.5 63.7075 173.232V163.849C63.7075 163.581 63.9307 163.358 64.1984 163.358C64.4662 163.358 64.6894 163.581 64.6894 163.849V173.232C64.6894 173.5 64.4662 173.723 64.1984 173.723Z" fill="#2A2628"/>
<path d="M73.9504 146.966H4.77539V160.098H73.9504V146.966Z" fill="#F9D300"/>
<path d="M73.9501 160.592H4.7751C4.50733 160.592 4.28418 160.369 4.28418 160.102V146.969C4.28418 146.702 4.50733 146.479 4.7751 146.479H73.9501C74.2179 146.479 74.441 146.702 74.441 146.969V160.102C74.441 160.369 74.2179 160.592 73.9501 160.592ZM5.26602 159.611H73.4704V147.46H5.26602V159.611Z" fill="#2A2628"/>
<path d="M10.5324 160.592C10.2646 160.592 10.0415 160.369 10.0415 160.101V150.717C10.0415 150.45 10.2646 150.227 10.5324 150.227C10.8002 150.227 11.0233 150.45 11.0233 150.717V160.101C11.0233 160.369 10.8002 160.592 10.5324 160.592Z" fill="#2A2628"/>
<path d="M18.8112 160.592C18.5435 160.592 18.3203 160.369 18.3203 160.101V150.717C18.3203 150.45 18.5435 150.227 18.8112 150.227C19.079 150.227 19.3022 150.45 19.3022 150.717V160.101C19.3022 160.369 19.079 160.592 18.8112 160.592Z" fill="#2A2628"/>
<path d="M27.0896 160.592C26.8218 160.592 26.5986 160.369 26.5986 160.101V150.717C26.5986 150.45 26.8218 150.227 27.0896 150.227C27.3573 150.227 27.5805 150.45 27.5805 150.717V160.101C27.5805 160.369 27.3573 160.592 27.0896 160.592Z" fill="#2A2628"/>
<path d="M35.3684 160.592C35.1006 160.592 34.8774 160.369 34.8774 160.101V150.717C34.8774 150.45 35.1006 150.227 35.3684 150.227C35.6361 150.227 35.8593 150.45 35.8593 150.717V160.101C35.8593 160.369 35.6361 160.592 35.3684 160.592Z" fill="#2A2628"/>
<path d="M43.6467 160.592C43.3789 160.592 43.1558 160.369 43.1558 160.101V150.717C43.1558 150.45 43.3789 150.227 43.6467 150.227C43.9145 150.227 44.1376 150.45 44.1376 150.717V160.101C44.1376 160.369 43.9145 160.592 43.6467 160.592Z" fill="#2A2628"/>
<path d="M51.9255 160.592C51.6577 160.592 51.4346 160.369 51.4346 160.101V150.717C51.4346 150.45 51.6577 150.227 51.9255 150.227C52.1933 150.227 52.4164 150.45 52.4164 150.717V160.101C52.4164 160.369 52.1933 160.592 51.9255 160.592Z" fill="#2A2628"/>
<path d="M60.2043 160.592C59.9365 160.592 59.7134 160.369 59.7134 160.101V150.717C59.7134 150.45 59.9365 150.227 60.2043 150.227C60.4721 150.227 60.6952 150.45 60.6952 150.717V160.101C60.6952 160.369 60.4721 160.592 60.2043 160.592Z" fill="#2A2628"/>
<path d="M68.4836 160.592C68.2158 160.592 67.9927 160.369 67.9927 160.101V150.717C67.9927 150.45 68.2158 150.227 68.4836 150.227C68.7514 150.227 68.9745 150.45 68.9745 150.717V160.101C68.9745 160.369 68.7514 160.592 68.4836 160.592Z" fill="#2A2628"/>
<path d="M196.568 186.374H127.393V199.506H196.568V186.374Z" fill="#FCE147"/>
<path d="M196.569 200H127.394C127.126 200 126.903 199.777 126.903 199.509V186.377C126.903 186.109 127.126 185.886 127.394 185.886H196.569C196.837 185.886 197.06 186.109 197.06 186.377V199.509C197.06 199.777 196.837 200 196.569 200ZM127.885 199.018H196.089V186.868H127.885V199.018Z" fill="#2A2628"/>
<path d="M133.151 199.999C132.883 199.999 132.66 199.776 132.66 199.508V190.125C132.66 189.857 132.883 189.634 133.151 189.634C133.419 189.634 133.642 189.857 133.642 190.125V199.508C133.642 199.776 133.419 199.999 133.151 199.999Z" fill="#2A2628"/>
<path d="M141.43 199.999C141.162 199.999 140.939 199.776 140.939 199.508V190.125C140.939 189.857 141.162 189.634 141.43 189.634C141.698 189.634 141.921 189.857 141.921 190.125V199.508C141.921 199.776 141.698 199.999 141.43 199.999Z" fill="#2A2628"/>
<path d="M149.708 199.999C149.44 199.999 149.217 199.776 149.217 199.508V190.125C149.217 189.857 149.44 189.634 149.708 189.634C149.976 189.634 150.199 189.857 150.199 190.125V199.508C150.199 199.776 149.976 199.999 149.708 199.999Z" fill="#2A2628"/>
<path d="M157.987 199.999C157.719 199.999 157.496 199.776 157.496 199.508V190.125C157.496 189.857 157.719 189.634 157.987 189.634C158.255 189.634 158.478 189.857 158.478 190.125V199.508C158.478 199.776 158.255 199.999 157.987 199.999Z" fill="#2A2628"/>
<path d="M166.266 199.999C165.998 199.999 165.775 199.776 165.775 199.508V190.125C165.775 189.857 165.998 189.634 166.266 189.634C166.534 189.634 166.757 189.857 166.757 190.125V199.508C166.757 199.776 166.534 199.999 166.266 199.999Z" fill="#2A2628"/>
<path d="M174.544 199.999C174.276 199.999 174.053 199.776 174.053 199.508V190.125C174.053 189.857 174.276 189.634 174.544 189.634C174.812 189.634 175.035 189.857 175.035 190.125V199.508C175.035 199.776 174.812 199.999 174.544 199.999Z" fill="#2A2628"/>
<path d="M182.823 199.999C182.555 199.999 182.332 199.776 182.332 199.508V190.125C182.332 189.857 182.555 189.634 182.823 189.634C183.091 189.634 183.314 189.857 183.314 190.125V199.508C183.314 199.776 183.091 199.999 182.823 199.999Z" fill="#2A2628"/>
<path d="M191.101 199.999C190.833 199.999 190.61 199.776 190.61 199.508V190.125C190.61 189.857 190.833 189.634 191.101 189.634C191.369 189.634 191.592 189.857 191.592 190.125V199.508C191.592 199.776 191.369 199.999 191.101 199.999Z" fill="#2A2628"/>
<path d="M200.852 173.234H131.677V186.366H200.852V173.234Z" fill="#F9D300"/>
<path d="M200.853 186.855H131.678C131.41 186.855 131.187 186.632 131.187 186.364V173.232C131.187 172.964 131.41 172.741 131.678 172.741H200.853C201.121 172.741 201.344 172.964 201.344 173.232V186.364C201.344 186.632 201.121 186.855 200.853 186.855ZM132.169 185.873H200.362V173.723H132.169V185.873Z" fill="#2A2628"/>
<path d="M137.435 186.855C137.167 186.855 136.944 186.632 136.944 186.364V176.981C136.944 176.713 137.167 176.49 137.435 176.49C137.703 176.49 137.926 176.713 137.926 176.981V186.364C137.926 186.632 137.703 186.855 137.435 186.855Z" fill="#2A2628"/>
<path d="M145.714 186.855C145.446 186.855 145.223 186.632 145.223 186.364V176.981C145.223 176.713 145.446 176.49 145.714 176.49C145.982 176.49 146.205 176.713 146.205 176.981V186.364C146.205 186.632 145.982 186.855 145.714 186.855Z" fill="#2A2628"/>
<path d="M153.992 186.855C153.725 186.855 153.501 186.632 153.501 186.364V176.981C153.501 176.713 153.725 176.49 153.992 176.49C154.26 176.49 154.483 176.713 154.483 176.981V186.364C154.483 186.632 154.26 186.855 153.992 186.855Z" fill="#2A2628"/>
<path d="M162.271 186.855C162.003 186.855 161.78 186.632 161.78 186.364V176.981C161.78 176.713 162.003 176.49 162.271 176.49C162.539 176.49 162.762 176.713 162.762 176.981V186.364C162.762 186.632 162.539 186.855 162.271 186.855Z" fill="#2A2628"/>
<path d="M170.55 186.855C170.282 186.855 170.059 186.632 170.059 186.364V176.981C170.059 176.713 170.282 176.49 170.55 176.49C170.818 176.49 171.041 176.713 171.041 176.981V186.364C171.041 186.632 170.818 186.855 170.55 186.855Z" fill="#2A2628"/>
<path d="M178.828 186.855C178.561 186.855 178.337 186.632 178.337 186.364V176.981C178.337 176.713 178.561 176.49 178.828 176.49C179.096 176.49 179.319 176.713 179.319 176.981V186.364C179.319 186.632 179.096 186.855 178.828 186.855Z" fill="#2A2628"/>
<path d="M187.107 186.855C186.839 186.855 186.616 186.632 186.616 186.364V176.981C186.616 176.713 186.839 176.49 187.107 176.49C187.375 176.49 187.598 176.713 187.598 176.981V186.364C187.598 186.632 187.375 186.855 187.107 186.855Z" fill="#2A2628"/>
<path d="M195.385 186.855C195.118 186.855 194.895 186.632 194.895 186.364V176.981C194.895 176.713 195.118 176.49 195.385 176.49C195.653 176.49 195.876 176.713 195.876 176.981V186.364C195.876 186.632 195.653 186.855 195.385 186.855Z" fill="#2A2628"/>
<path d="M196.568 133.835H127.393V146.967H196.568V133.835Z" fill="#FCE147"/>
<path d="M196.569 147.461H127.394C127.126 147.461 126.903 147.237 126.903 146.97V133.838C126.903 133.57 127.126 133.347 127.394 133.347H196.569C196.837 133.347 197.06 133.57 197.06 133.838V146.97C197.06 147.237 196.837 147.461 196.569 147.461ZM127.885 146.479H196.089V134.329H127.885V146.479Z" fill="#2A2628"/>
<path d="M133.151 147.46C132.883 147.46 132.66 147.237 132.66 146.969V137.586C132.66 137.318 132.883 137.095 133.151 137.095C133.419 137.095 133.642 137.318 133.642 137.586V146.969C133.642 147.237 133.419 147.46 133.151 147.46Z" fill="#2A2628"/>
<path d="M141.43 147.46C141.162 147.46 140.939 147.237 140.939 146.969V137.586C140.939 137.318 141.162 137.095 141.43 137.095C141.698 137.095 141.921 137.318 141.921 137.586V146.969C141.921 147.237 141.698 147.46 141.43 147.46Z" fill="#2A2628"/>
<path d="M149.708 147.46C149.44 147.46 149.217 147.237 149.217 146.969V137.586C149.217 137.318 149.44 137.095 149.708 137.095C149.976 137.095 150.199 137.318 150.199 137.586V146.969C150.199 147.237 149.976 147.46 149.708 147.46Z" fill="#2A2628"/>
<path d="M157.987 147.46C157.719 147.46 157.496 147.237 157.496 146.969V137.586C157.496 137.318 157.719 137.095 157.987 137.095C158.255 137.095 158.478 137.318 158.478 137.586V146.969C158.478 147.237 158.255 147.46 157.987 147.46Z" fill="#2A2628"/>
<path d="M166.266 147.46C165.998 147.46 165.775 147.237 165.775 146.969V137.586C165.775 137.318 165.998 137.095 166.266 137.095C166.534 137.095 166.757 137.318 166.757 137.586V146.969C166.757 147.237 166.534 147.46 166.266 147.46Z" fill="#2A2628"/>
<path d="M174.544 147.46C174.276 147.46 174.053 147.237 174.053 146.969V137.586C174.053 137.318 174.276 137.095 174.544 137.095C174.812 137.095 175.035 137.318 175.035 137.586V146.969C175.035 147.237 174.812 147.46 174.544 147.46Z" fill="#2A2628"/>
<path d="M182.823 147.46C182.555 147.46 182.332 147.237 182.332 146.969V137.586C182.332 137.318 182.555 137.095 182.823 137.095C183.091 137.095 183.314 137.318 183.314 137.586V146.969C183.314 147.237 183.091 147.46 182.823 147.46Z" fill="#2A2628"/>
<path d="M191.101 147.46C190.833 147.46 190.61 147.237 190.61 146.969V137.586C190.61 137.318 190.833 137.095 191.101 137.095C191.369 137.095 191.592 137.318 191.592 137.586V146.969C191.592 147.237 191.369 147.46 191.101 147.46Z" fill="#2A2628"/>
<path d="M196.859 94.4399H127.684V107.572H196.859V94.4399Z" fill="#FCE147"/>
<path d="M196.859 108.062H127.684C127.416 108.062 127.193 107.839 127.193 107.571V94.4387C127.193 94.1709 127.416 93.9478 127.684 93.9478H196.859C197.127 93.9478 197.35 94.1709 197.35 94.4387V107.571C197.35 107.839 197.127 108.062 196.859 108.062ZM128.175 107.08H196.368V94.9296H128.175V107.08Z" fill="#2A2628"/>
<path d="M133.441 108.061C133.173 108.061 132.95 107.838 132.95 107.57V98.1867C132.95 97.9189 133.173 97.6958 133.441 97.6958C133.709 97.6958 133.932 97.9189 133.932 98.1867V107.57C133.932 107.838 133.709 108.061 133.441 108.061Z" fill="#2A2628"/>
<path d="M141.719 108.061C141.452 108.061 141.229 107.838 141.229 107.57V98.1867C141.229 97.9189 141.452 97.6958 141.719 97.6958C141.987 97.6958 142.21 97.9189 142.21 98.1867V107.57C142.21 107.838 141.987 108.061 141.719 108.061Z" fill="#2A2628"/>
<path d="M149.998 108.061C149.73 108.061 149.507 107.838 149.507 107.57V98.1867C149.507 97.9189 149.73 97.6958 149.998 97.6958C150.266 97.6958 150.489 97.9189 150.489 98.1867V107.57C150.489 107.838 150.266 108.061 149.998 108.061Z" fill="#2A2628"/>
<path d="M158.277 108.061C158.009 108.061 157.786 107.838 157.786 107.57V98.1867C157.786 97.9189 158.009 97.6958 158.277 97.6958C158.545 97.6958 158.768 97.9189 158.768 98.1867V107.57C158.768 107.838 158.545 108.061 158.277 108.061Z" fill="#2A2628"/>
<path d="M166.555 108.061C166.288 108.061 166.064 107.838 166.064 107.57V98.1867C166.064 97.9189 166.288 97.6958 166.555 97.6958C166.823 97.6958 167.046 97.9189 167.046 98.1867V107.57C167.046 107.838 166.823 108.061 166.555 108.061Z" fill="#2A2628"/>
<path d="M174.834 108.061C174.566 108.061 174.343 107.838 174.343 107.57V98.1867C174.343 97.9189 174.566 97.6958 174.834 97.6958C175.102 97.6958 175.325 97.9189 175.325 98.1867V107.57C175.325 107.838 175.102 108.061 174.834 108.061Z" fill="#2A2628"/>
<path d="M183.113 108.061C182.845 108.061 182.622 107.838 182.622 107.57V98.1867C182.622 97.9189 182.845 97.6958 183.113 97.6958C183.38 97.6958 183.603 97.9189 183.603 98.1867V107.57C183.603 107.838 183.38 108.061 183.113 108.061Z" fill="#2A2628"/>
<path d="M191.391 108.061C191.124 108.061 190.9 107.838 190.9 107.57V98.1867C190.9 97.9189 191.124 97.6958 191.391 97.6958C191.659 97.6958 191.882 97.9189 191.882 98.1867V107.57C191.882 107.838 191.659 108.061 191.391 108.061Z" fill="#2A2628"/>
<path d="M200.852 120.703H131.677V133.835H200.852V120.703Z" fill="#F9D300"/>
<path d="M200.853 134.325H131.678C131.41 134.325 131.187 134.102 131.187 133.834V120.702C131.187 120.434 131.41 120.211 131.678 120.211H200.853C201.121 120.211 201.344 120.434 201.344 120.702V133.834C201.344 134.102 201.121 134.325 200.853 134.325ZM132.169 133.343H200.362V121.193H132.169V133.343Z" fill="#2A2628"/>
<path d="M137.435 134.328C137.167 134.328 136.944 134.105 136.944 133.838V124.454C136.944 124.187 137.167 123.963 137.435 123.963C137.703 123.963 137.926 124.187 137.926 124.454V133.838C137.926 134.105 137.703 134.328 137.435 134.328Z" fill="#2A2628"/>
<path d="M145.714 134.328C145.446 134.328 145.223 134.105 145.223 133.838V124.454C145.223 124.187 145.446 123.963 145.714 123.963C145.982 123.963 146.205 124.187 146.205 124.454V133.838C146.205 134.105 145.982 134.328 145.714 134.328Z" fill="#2A2628"/>
<path d="M153.992 134.328C153.725 134.328 153.501 134.105 153.501 133.838V124.454C153.501 124.187 153.725 123.963 153.992 123.963C154.26 123.963 154.483 124.187 154.483 124.454V133.838C154.483 134.105 154.26 134.328 153.992 134.328Z" fill="#2A2628"/>
<path d="M162.271 134.328C162.003 134.328 161.78 134.105 161.78 133.838V124.454C161.78 124.187 162.003 123.963 162.271 123.963C162.539 123.963 162.762 124.187 162.762 124.454V133.838C162.762 134.105 162.539 134.328 162.271 134.328Z" fill="#2A2628"/>
<path d="M170.55 134.328C170.282 134.328 170.059 134.105 170.059 133.838V124.454C170.059 124.187 170.282 123.963 170.55 123.963C170.818 123.963 171.041 124.187 171.041 124.454V133.838C171.041 134.105 170.818 134.328 170.55 134.328Z" fill="#2A2628"/>
<path d="M178.828 134.328C178.561 134.328 178.337 134.105 178.337 133.838V124.454C178.337 124.187 178.561 123.963 178.828 123.963C179.096 123.963 179.319 124.187 179.319 124.454V133.838C179.319 134.105 179.096 134.328 178.828 134.328Z" fill="#2A2628"/>
<path d="M187.107 134.328C186.839 134.328 186.616 134.105 186.616 133.838V124.454C186.616 124.187 186.839 123.963 187.107 123.963C187.375 123.963 187.598 124.187 187.598 124.454V133.838C187.598 134.105 187.375 134.328 187.107 134.328Z" fill="#2A2628"/>
<path d="M195.385 134.328C195.118 134.328 194.895 134.105 194.895 133.838V124.454C194.895 124.187 195.118 123.963 195.385 123.963C195.653 123.963 195.876 124.187 195.876 124.454V133.838C195.876 134.105 195.653 134.328 195.385 134.328Z" fill="#2A2628"/>
<path d="M209.132 107.572H139.957V120.704H209.132V107.572Z" fill="#F9D300"/>
<path d="M209.132 121.193H139.957C139.689 121.193 139.466 120.97 139.466 120.702V107.57C139.466 107.302 139.689 107.079 139.957 107.079H209.132C209.4 107.079 209.623 107.302 209.623 107.57V120.702C209.623 120.97 209.4 121.193 209.132 121.193ZM140.448 120.211H208.652V108.061H140.448V120.211Z" fill="#2A2628"/>
<path d="M145.714 121.197C145.446 121.197 145.223 120.973 145.223 120.706V111.322C145.223 111.055 145.446 110.832 145.714 110.832C145.982 110.832 146.205 111.055 146.205 111.322V120.706C146.205 120.973 145.982 121.197 145.714 121.197Z" fill="#2A2628"/>
<path d="M153.992 121.197C153.725 121.197 153.501 120.973 153.501 120.706V111.322C153.501 111.055 153.725 110.832 153.992 110.832C154.26 110.832 154.483 111.055 154.483 111.322V120.706C154.483 120.973 154.26 121.197 153.992 121.197Z" fill="#2A2628"/>
<path d="M162.271 121.197C162.003 121.197 161.78 120.973 161.78 120.706V111.322C161.78 111.055 162.003 110.832 162.271 110.832C162.539 110.832 162.762 111.055 162.762 111.322V120.706C162.762 120.973 162.539 121.197 162.271 121.197Z" fill="#2A2628"/>
<path d="M170.55 121.197C170.282 121.197 170.059 120.973 170.059 120.706V111.322C170.059 111.055 170.282 110.832 170.55 110.832C170.818 110.832 171.041 111.055 171.041 111.322V120.706C171.041 120.973 170.818 121.197 170.55 121.197Z" fill="#2A2628"/>
<path d="M178.828 121.197C178.561 121.197 178.337 120.973 178.337 120.706V111.322C178.337 111.055 178.561 110.832 178.828 110.832C179.096 110.832 179.319 111.055 179.319 111.322V120.706C179.319 120.973 179.096 121.197 178.828 121.197Z" fill="#2A2628"/>
<path d="M187.107 121.197C186.839 121.197 186.616 120.973 186.616 120.706V111.322C186.616 111.055 186.839 110.832 187.107 110.832C187.375 110.832 187.598 111.055 187.598 111.322V120.706C187.598 120.973 187.375 121.197 187.107 121.197Z" fill="#2A2628"/>
<path d="M195.385 121.197C195.118 121.197 194.895 120.973 194.895 120.706V111.322C194.895 111.055 195.118 110.832 195.385 110.832C195.653 110.832 195.876 111.055 195.876 111.322V120.706C195.876 120.973 195.653 121.197 195.385 121.197Z" fill="#2A2628"/>
<path d="M203.664 121.197C203.396 121.197 203.173 120.973 203.173 120.706V111.322C203.173 111.055 203.396 110.832 203.664 110.832C203.932 110.832 204.155 111.055 204.155 111.322V120.706C204.155 120.973 203.932 121.197 203.664 121.197Z" fill="#2A2628"/>
<path d="M217.7 68.1768H148.525V81.3089H217.7V68.1768Z" fill="#FCE147"/>
<path d="M217.7 81.7985H148.525C148.257 81.7985 148.034 81.5754 148.034 81.3076V68.1755C148.034 67.9077 148.257 67.6846 148.525 67.6846H217.7C217.968 67.6846 218.191 67.9077 218.191 68.1755V81.3076C218.191 81.5754 217.968 81.7985 217.7 81.7985ZM149.016 80.8167H217.209V68.6664H149.016V80.8167Z" fill="#2A2628"/>
<path d="M154.282 81.7977C154.015 81.7977 153.792 81.5746 153.792 81.3068V71.9235C153.792 71.6558 154.015 71.4326 154.282 71.4326C154.55 71.4326 154.773 71.6558 154.773 71.9235V81.3068C154.773 81.5746 154.55 81.7977 154.282 81.7977Z" fill="#2A2628"/>
<path d="M162.561 81.7977C162.293 81.7977 162.07 81.5746 162.07 81.3068V71.9235C162.07 71.6558 162.293 71.4326 162.561 71.4326C162.829 71.4326 163.052 71.6558 163.052 71.9235V81.3068C163.052 81.5746 162.829 81.7977 162.561 81.7977Z" fill="#2A2628"/>
<path d="M170.84 81.7977C170.572 81.7977 170.349 81.5746 170.349 81.3068V71.9235C170.349 71.6558 170.572 71.4326 170.84 71.4326C171.107 71.4326 171.33 71.6558 171.33 71.9235V81.3068C171.33 81.5746 171.107 81.7977 170.84 81.7977Z" fill="#2A2628"/>
<path d="M179.118 81.7977C178.851 81.7977 178.627 81.5746 178.627 81.3068V71.9235C178.627 71.6558 178.851 71.4326 179.118 71.4326C179.386 71.4326 179.609 71.6558 179.609 71.9235V81.3068C179.609 81.5746 179.386 81.7977 179.118 81.7977Z" fill="#2A2628"/>
<path d="M187.397 81.7977C187.129 81.7977 186.906 81.5746 186.906 81.3068V71.9235C186.906 71.6558 187.129 71.4326 187.397 71.4326C187.664 71.4326 187.888 71.6558 187.888 71.9235V81.3068C187.888 81.5746 187.664 81.7977 187.397 81.7977Z" fill="#2A2628"/>
<path d="M195.676 81.7977C195.409 81.7977 195.186 81.5746 195.186 81.3068V71.9235C195.186 71.6558 195.409 71.4326 195.676 71.4326C195.944 71.4326 196.167 71.6558 196.167 71.9235V81.3068C196.167 81.5746 195.944 81.7977 195.676 81.7977Z" fill="#2A2628"/>
<path d="M203.955 81.7977C203.688 81.7977 203.464 81.5746 203.464 81.3068V71.9235C203.464 71.6558 203.688 71.4326 203.955 71.4326C204.223 71.4326 204.446 71.6558 204.446 71.9235V81.3068C204.446 81.5746 204.223 81.7977 203.955 81.7977Z" fill="#2A2628"/>
<path d="M212.234 81.7977C211.966 81.7977 211.743 81.5746 211.743 81.3068V71.9235C211.743 71.6558 211.966 71.4326 212.234 71.4326C212.501 71.4326 212.725 71.6558 212.725 71.9235V81.3068C212.725 81.5746 212.501 81.7977 212.234 81.7977Z" fill="#2A2628"/>
<path d="M212.233 55.0454H143.058V68.1775H212.233V55.0454Z" fill="#FCE147"/>
<path d="M212.234 68.6667H143.059C142.791 68.6667 142.568 68.4435 142.568 68.1757V55.0437C142.568 54.7759 142.791 54.5527 143.059 54.5527H212.234C212.502 54.5527 212.725 54.7759 212.725 55.0437V68.1757C212.725 68.4435 212.502 68.6667 212.234 68.6667ZM143.55 67.6848H211.754V55.5346H143.55V67.6848Z" fill="#2A2628"/>
<path d="M148.816 68.6664C148.548 68.6664 148.325 68.4432 148.325 68.1754V58.7922C148.325 58.5244 148.548 58.3013 148.816 58.3013C149.084 58.3013 149.307 58.5244 149.307 58.7922V68.1754C149.307 68.4432 149.084 68.6664 148.816 68.6664Z" fill="#2A2628"/>
<path d="M157.094 68.6664C156.827 68.6664 156.604 68.4432 156.604 68.1754V58.7922C156.604 58.5244 156.827 58.3013 157.094 58.3013C157.362 58.3013 157.585 58.5244 157.585 58.7922V68.1754C157.585 68.4432 157.362 68.6664 157.094 68.6664Z" fill="#2A2628"/>
<path d="M165.373 68.6664C165.105 68.6664 164.882 68.4432 164.882 68.1754V58.7922C164.882 58.5244 165.105 58.3013 165.373 58.3013C165.641 58.3013 165.864 58.5244 165.864 58.7922V68.1754C165.864 68.4432 165.641 68.6664 165.373 68.6664Z" fill="#2A2628"/>
<path d="M173.652 68.6664C173.384 68.6664 173.161 68.4432 173.161 68.1754V58.7922C173.161 58.5244 173.384 58.3013 173.652 58.3013C173.92 58.3013 174.143 58.5244 174.143 58.7922V68.1754C174.143 68.4432 173.92 68.6664 173.652 68.6664Z" fill="#2A2628"/>
<path d="M181.93 68.6664C181.663 68.6664 181.439 68.4432 181.439 68.1754V58.7922C181.439 58.5244 181.663 58.3013 181.93 58.3013C182.198 58.3013 182.421 58.5244 182.421 58.7922V68.1754C182.421 68.4432 182.198 68.6664 181.93 68.6664Z" fill="#2A2628"/>
<path d="M190.209 68.6664C189.941 68.6664 189.718 68.4432 189.718 68.1754V58.7922C189.718 58.5244 189.941 58.3013 190.209 58.3013C190.477 58.3013 190.7 58.5244 190.7 58.7922V68.1754C190.7 68.4432 190.477 68.6664 190.209 68.6664Z" fill="#2A2628"/>
<path d="M198.487 68.6664C198.22 68.6664 197.997 68.4432 197.997 68.1754V58.7922C197.997 58.5244 198.22 58.3013 198.487 58.3013C198.755 58.3013 198.978 58.5244 198.978 58.7922V68.1754C198.978 68.4432 198.755 68.6664 198.487 68.6664Z" fill="#2A2628"/>
<path d="M206.766 68.6664C206.499 68.6664 206.275 68.4432 206.275 68.1754V58.7922C206.275 58.5244 206.499 58.3013 206.766 58.3013C207.034 58.3013 207.257 58.5244 207.257 58.7922V68.1754C207.257 68.4432 207.034 68.6664 206.766 68.6664Z" fill="#2A2628"/>
<path d="M209.132 81.3086H139.957V94.4407H209.132V81.3086Z" fill="#F9D300"/>
<path d="M209.132 94.9299H139.957C139.689 94.9299 139.466 94.7067 139.466 94.4389V81.3068C139.466 81.0391 139.689 80.8159 139.957 80.8159H209.132C209.4 80.8159 209.623 81.0391 209.623 81.3068V94.4389C209.623 94.7067 209.4 94.9299 209.132 94.9299ZM140.448 93.948H208.652V81.7978H140.448V93.948Z" fill="#2A2628"/>
<path d="M145.714 94.9291C145.446 94.9291 145.223 94.7059 145.223 94.4381V85.0549C145.223 84.7871 145.446 84.564 145.714 84.564C145.982 84.564 146.205 84.7871 146.205 85.0549V94.4381C146.205 94.7059 145.982 94.9291 145.714 94.9291Z" fill="#2A2628"/>
<path d="M153.992 94.9291C153.725 94.9291 153.501 94.7059 153.501 94.4381V85.0549C153.501 84.7871 153.725 84.564 153.992 84.564C154.26 84.564 154.483 84.7871 154.483 85.0549V94.4381C154.483 94.7059 154.26 94.9291 153.992 94.9291Z" fill="#2A2628"/>
<path d="M162.271 94.9291C162.003 94.9291 161.78 94.7059 161.78 94.4381V85.0549C161.78 84.7871 162.003 84.564 162.271 84.564C162.539 84.564 162.762 84.7871 162.762 85.0549V94.4381C162.762 94.7059 162.539 94.9291 162.271 94.9291Z" fill="#2A2628"/>
<path d="M170.55 94.9291C170.282 94.9291 170.059 94.7059 170.059 94.4381V85.0549C170.059 84.7871 170.282 84.564 170.55 84.564C170.818 84.564 171.041 84.7871 171.041 85.0549V94.4381C171.041 94.7059 170.818 94.9291 170.55 94.9291Z" fill="#2A2628"/>
<path d="M178.828 94.9291C178.561 94.9291 178.337 94.7059 178.337 94.4381V85.0549C178.337 84.7871 178.561 84.564 178.828 84.564C179.096 84.564 179.319 84.7871 179.319 85.0549V94.4381C179.319 94.7059 179.096 94.9291 178.828 94.9291Z" fill="#2A2628"/>
<path d="M187.107 94.9291C186.839 94.9291 186.616 94.7059 186.616 94.4381V85.0549C186.616 84.7871 186.839 84.564 187.107 84.564C187.375 84.564 187.598 84.7871 187.598 85.0549V94.4381C187.598 94.7059 187.375 94.9291 187.107 94.9291Z" fill="#2A2628"/>
<path d="M195.385 94.9291C195.118 94.9291 194.895 94.7059 194.895 94.4381V85.0549C194.895 84.7871 195.118 84.564 195.385 84.564C195.653 84.564 195.876 84.7871 195.876 85.0549V94.4381C195.876 94.7059 195.653 94.9291 195.385 94.9291Z" fill="#2A2628"/>
<path d="M203.664 94.9291C203.396 94.9291 203.173 94.7059 203.173 94.4381V85.0549C203.173 84.7871 203.396 84.564 203.664 84.564C203.932 84.564 204.155 84.7871 204.155 85.0549V94.4381C204.155 94.7059 203.932 94.9291 203.664 94.9291Z" fill="#2A2628"/>
<path d="M192.284 160.098H123.109V173.23H192.284V160.098Z" fill="#FCE147"/>
<path d="M192.285 173.724H123.11C122.842 173.724 122.619 173.501 122.619 173.233V160.101C122.619 159.833 122.842 159.61 123.11 159.61H192.285C192.552 159.61 192.776 159.833 192.776 160.101V173.233C192.776 173.501 192.552 173.724 192.285 173.724ZM123.6 172.742H191.794V160.592H123.6V172.742Z" fill="#2A2628"/>
<path d="M128.866 173.723C128.598 173.723 128.375 173.5 128.375 173.232V163.849C128.375 163.581 128.598 163.358 128.866 163.358C129.134 163.358 129.357 163.581 129.357 163.849V173.232C129.357 173.5 129.134 173.723 128.866 173.723Z" fill="#2A2628"/>
<path d="M137.146 173.723C136.878 173.723 136.655 173.5 136.655 173.232V163.849C136.655 163.581 136.878 163.358 137.146 163.358C137.413 163.358 137.637 163.581 137.637 163.849V173.232C137.637 173.5 137.413 173.723 137.146 173.723Z" fill="#2A2628"/>
<path d="M145.424 173.723C145.156 173.723 144.933 173.5 144.933 173.232V163.849C144.933 163.581 145.156 163.358 145.424 163.358C145.692 163.358 145.915 163.581 145.915 163.849V173.232C145.915 173.5 145.692 173.723 145.424 173.723Z" fill="#2A2628"/>
<path d="M153.703 173.723C153.435 173.723 153.212 173.5 153.212 173.232V163.849C153.212 163.581 153.435 163.358 153.703 163.358C153.971 163.358 154.194 163.581 154.194 163.849V173.232C154.194 173.5 153.971 173.723 153.703 173.723Z" fill="#2A2628"/>
<path d="M161.981 173.723C161.713 173.723 161.49 173.5 161.49 173.232V163.849C161.49 163.581 161.713 163.358 161.981 163.358C162.249 163.358 162.472 163.581 162.472 163.849V173.232C162.472 173.5 162.249 173.723 161.981 173.723Z" fill="#2A2628"/>
<path d="M170.26 173.723C169.992 173.723 169.769 173.5 169.769 173.232V163.849C169.769 163.581 169.992 163.358 170.26 163.358C170.528 163.358 170.751 163.581 170.751 163.849V173.232C170.751 173.5 170.528 173.723 170.26 173.723Z" fill="#2A2628"/>
<path d="M178.539 173.723C178.271 173.723 178.048 173.5 178.048 173.232V163.849C178.048 163.581 178.271 163.358 178.539 163.358C178.807 163.358 179.03 163.581 179.03 163.849V173.232C179.03 173.5 178.807 173.723 178.539 173.723Z" fill="#2A2628"/>
<path d="M186.817 173.723C186.549 173.723 186.326 173.5 186.326 173.232V163.849C186.326 163.581 186.549 163.358 186.817 163.358C187.085 163.358 187.308 163.581 187.308 163.849V173.232C187.308 173.5 187.085 173.723 186.817 173.723Z" fill="#2A2628"/>
<path d="M196.568 146.966H127.393V160.098H196.568V146.966Z" fill="#F9D300"/>
<path d="M196.569 160.592H127.394C127.126 160.592 126.903 160.369 126.903 160.102V146.969C126.903 146.702 127.126 146.479 127.394 146.479H196.569C196.837 146.479 197.06 146.702 197.06 146.969V160.102C197.06 160.369 196.837 160.592 196.569 160.592ZM127.885 159.611H196.089V147.46H127.885V159.611Z" fill="#2A2628"/>
<path d="M133.151 160.592C132.883 160.592 132.66 160.369 132.66 160.101V150.717C132.66 150.45 132.883 150.227 133.151 150.227C133.419 150.227 133.642 150.45 133.642 150.717V160.101C133.642 160.369 133.419 160.592 133.151 160.592Z" fill="#2A2628"/>
<path d="M141.43 160.592C141.162 160.592 140.939 160.369 140.939 160.101V150.717C140.939 150.45 141.162 150.227 141.43 150.227C141.698 150.227 141.921 150.45 141.921 150.717V160.101C141.921 160.369 141.698 160.592 141.43 160.592Z" fill="#2A2628"/>
<path d="M149.708 160.592C149.44 160.592 149.217 160.369 149.217 160.101V150.717C149.217 150.45 149.44 150.227 149.708 150.227C149.976 150.227 150.199 150.45 150.199 150.717V160.101C150.199 160.369 149.976 160.592 149.708 160.592Z" fill="#2A2628"/>
<path d="M157.987 160.592C157.719 160.592 157.496 160.369 157.496 160.101V150.717C157.496 150.45 157.719 150.227 157.987 150.227C158.255 150.227 158.478 150.45 158.478 150.717V160.101C158.478 160.369 158.255 160.592 157.987 160.592Z" fill="#2A2628"/>
<path d="M166.266 160.592C165.998 160.592 165.775 160.369 165.775 160.101V150.717C165.775 150.45 165.998 150.227 166.266 150.227C166.534 150.227 166.757 150.45 166.757 150.717V160.101C166.757 160.369 166.534 160.592 166.266 160.592Z" fill="#2A2628"/>
<path d="M174.544 160.592C174.276 160.592 174.053 160.369 174.053 160.101V150.717C174.053 150.45 174.276 150.227 174.544 150.227C174.812 150.227 175.035 150.45 175.035 150.717V160.101C175.035 160.369 174.812 160.592 174.544 160.592Z" fill="#2A2628"/>
<path d="M182.823 160.592C182.555 160.592 182.332 160.369 182.332 160.101V150.717C182.332 150.45 182.555 150.227 182.823 150.227C183.091 150.227 183.314 150.45 183.314 150.717V160.101C183.314 160.369 183.091 160.592 182.823 160.592Z" fill="#2A2628"/>
<path d="M191.101 160.592C190.833 160.592 190.61 160.369 190.61 160.101V150.717C190.61 150.45 190.833 150.227 191.101 150.227C191.369 150.227 191.592 150.45 191.592 150.717V160.101C191.592 160.369 191.369 160.592 191.101 160.592Z" fill="#2A2628"/>
<path d="M100.115 57.5654C100.115 57.5654 117.598 56.6617 128.465 65.342C134.356 70.0504 156.816 91.5616 156.816 91.5616L142.088 117.48L100.126 57.5654H100.115Z" fill="#2962F6"/>
<path d="M63.8969 178.288L57.4814 200H149.785L147.509 177.998L63.8969 178.288Z" fill="#2A2628"/>
<path d="M108.438 44.0974C110.133 46.4181 113.034 47.1768 114.92 45.7933C116.806 44.4098 116.951 41.4197 115.255 39.1101C113.559 36.7894 110.658 36.0307 108.772 37.4142C106.887 38.7977 106.742 41.7879 108.438 44.0974Z" fill="#2A2628"/>
<path d="M113.024 50.8137C114.719 53.1344 117.62 53.8931 119.506 52.5096C121.391 51.1261 121.537 48.136 119.841 45.8264C118.145 43.5057 115.244 42.747 113.358 44.1305C111.473 45.514 111.328 48.5042 113.024 50.8137Z" fill="#2A2628"/>
<path d="M117.608 56.6624C119.304 58.9831 122.205 59.7418 124.091 58.3583C125.976 56.9748 126.121 53.9846 124.426 51.6751C122.73 49.3544 119.829 48.5957 117.943 49.9792C116.058 51.3627 115.913 54.3528 117.608 56.6624Z" fill="#2A2628"/>
<path d="M99.5342 5.96023C99.5342 5.96023 103.685 2.78041 108.862 7.16521C114.039 11.55 121.402 27.8285 108.304 36.2522C95.2052 44.6759 99.5342 5.96023 99.5342 5.96023Z" fill="#2A2628"/>
<path d="M95.4389 5.15812C95.4389 5.15812 80.1758 1.85557 74.9431 22.4853C71.2612 36.9898 87.9524 42.4122 87.9524 42.4122L92.6385 33.7765L103.104 13.024C103.104 13.024 105.112 5.59325 95.4501 5.15812H95.4389Z" fill="#2A2628"/>
<path d="M36.4505 111.743C36.4505 111.743 35.9708 101.847 26.8664 146.956C25.2486 172.238 39.82 173.554 51.2785 176.522L64.1429 154.911L65.504 131.28L36.4505 111.743Z" fill="#F7B49F"/>
<path d="M140.347 111.602L176.04 61.0034L207.213 86.3081C207.213 86.3081 175.582 165.826 148.024 177.117C120.465 188.408 140.347 111.602 140.347 111.602Z" fill="#F7B49F"/>
<path d="M64.143 178.534V131.975L31.0952 111.055C31.72 109.571 32.3337 108.098 32.9585 106.636C33.8399 104.572 34.7548 102.519 35.6808 100.522C45.8005 78.5536 60.6508 63.748 83.2443 57.79L95.0152 56.4399C111.829 56.4399 127.327 65.8567 134.858 80.8967C134.925 81.0417 135.003 81.1644 135.07 81.3095C136.018 83.2397 136.989 85.2591 137.971 87.4125C140.325 92.5337 142.746 98.3243 145.134 104.796L140.325 111.613C140.325 111.613 151.471 159.845 155.008 178.545H64.143V178.534Z" fill="#2962F6"/>
<path d="M214.859 7.0666L170.831 0.486498C169.033 0.217812 167.358 1.45742 167.089 3.25524L153.571 93.7067C153.302 95.5046 154.542 97.1798 156.34 97.4485L200.368 104.029C202.166 104.297 203.841 103.058 204.11 101.26L217.628 10.8083C217.897 9.01052 216.657 7.33529 214.859 7.0666Z" fill="#2A2628"/>
<path d="M216.964 38.5285C196.245 26.8468 186.103 27.0923 184.062 32.3474C182.02 37.5913 198.309 46.8518 198.309 46.8518C198.309 46.8518 177.099 45.2005 178.271 54.2044C178.661 57.1611 182.109 59.1917 186.561 60.5752C180.145 63.1972 177.836 66.444 178.561 69.5457C179.587 73.8859 191.481 73.7743 196.401 73.54C186.126 76.0392 182.444 79.8104 183.281 83.3695C184.419 88.2118 200.898 86.7837 200.898 86.7837L206.343 86.4043L205.048 95.0623C205.048 95.0623 214.822 90.4655 219.798 82.1199C219.798 82.1199 237.694 50.2101 216.975 38.5285H216.964Z" fill="#F7B49F"/>
<path d="M212.59 48.8936C212.59 48.8936 212.501 48.8936 212.457 48.8824C206.978 47.5436 198.376 47.4097 198.287 47.4097C197.974 47.4097 197.729 47.1531 197.74 46.8406C197.74 46.5394 197.997 46.2939 198.298 46.2939C198.655 46.2939 207.123 46.4278 212.713 47.8002C213.014 47.8783 213.193 48.1795 213.126 48.4696C213.059 48.7262 212.836 48.8936 212.579 48.8936H212.59Z" fill="#2A2628"/>
<path d="M210.114 61.6713C210.114 61.6713 210.036 61.6713 209.991 61.6601C197.684 58.9824 186.761 61.1023 186.65 61.1246C186.349 61.1804 186.059 60.9907 185.992 60.6895C185.936 60.3882 186.126 60.0981 186.427 60.0312C186.538 60.0089 197.684 57.8444 210.225 60.5667C210.526 60.6337 210.716 60.9238 210.649 61.225C210.593 61.4816 210.359 61.6601 210.102 61.6601L210.114 61.6713Z" fill="#2A2628"/>
<path d="M196.39 74.1006C196.111 74.1006 195.877 73.8998 195.843 73.6209C195.799 73.3196 196.011 73.0295 196.323 72.9961C196.39 72.9961 203.319 72.0254 208.975 72.0254C209.288 72.0254 209.533 72.2709 209.533 72.5833C209.533 72.8957 209.288 73.1411 208.975 73.1411C203.397 73.1411 196.546 74.0895 196.479 74.1006C196.457 74.1006 196.424 74.1006 196.401 74.1006H196.39Z" fill="#2A2628"/>
<path d="M177.236 15.2816L178.116 9.38906C178.326 7.98737 177.359 6.68125 175.958 6.47177L174.976 6.325C173.574 6.11551 172.268 7.08199 172.058 8.48368L171.178 14.3762C170.968 15.7779 171.935 17.084 173.336 17.2935L174.318 17.4403C175.72 17.6498 177.026 16.6833 177.236 15.2816Z" fill="#E6E6E7"/>
<path d="M174.689 11.5183C173.496 11.3398 172.67 10.2241 172.848 9.03026C173.027 7.83643 174.143 7.01079 175.337 7.18931C176.53 7.36782 177.356 8.48355 177.178 9.67738C176.999 10.8712 175.883 11.6968 174.689 11.5183Z" fill="#2A2628"/>
<path d="M173.93 16.574C172.736 16.3955 171.911 15.2797 172.089 14.0859C172.268 12.8921 173.383 12.0665 174.577 12.245C175.771 12.4235 176.597 13.5392 176.418 14.733C176.24 15.9269 175.124 16.7525 173.93 16.574Z" fill="#2A2628"/>
<path d="M184.887 16.4369L185.767 10.5443C185.977 9.14264 185.01 7.83653 183.609 7.62704L182.626 7.48027C181.225 7.27079 179.919 8.23726 179.709 9.63895L178.828 15.5315C178.619 16.9332 179.585 18.2393 180.987 18.4488L181.969 18.5955C183.371 18.805 184.677 17.8386 184.887 16.4369Z" fill="#E6E6E7"/>
<path d="M182.332 12.6687C181.138 12.4902 180.312 11.3745 180.491 10.1806C180.669 8.98682 181.785 8.16118 182.979 8.3397C184.172 8.51821 184.998 9.63394 184.82 10.8278C184.641 12.0216 183.525 12.8472 182.332 12.6687Z" fill="#2A2628"/>
<path d="M183.961 16.3175C184.387 15.1876 183.817 13.9258 182.687 13.4993C181.557 13.0728 180.295 13.643 179.869 14.7729C179.442 15.9029 180.013 17.1646 181.143 17.5911C182.273 18.0176 183.534 17.4474 183.961 16.3175Z" fill="#2A2628"/>
<path d="M94.5915 69.2453C88.2765 69.2453 83.1888 64.0907 83.2557 57.7757C83.3673 47.1205 83.066 33.464 81.8945 27.3833L106.072 41.7427C106.072 41.7427 105.938 50.133 105.927 57.9096C105.927 64.1688 100.851 69.2453 94.5915 69.2453Z" fill="#F7B49F"/>
<path d="M83.7572 30.7858L90.6858 44.1299C94.0442 47.0196 98.2728 48.4589 102.579 47.5328C110.278 45.8816 113.525 40.024 113.636 32.1358C113.636 31.7676 113.636 31.3883 113.636 31.0201C113.614 29.7593 113.525 28.4651 113.357 27.1262C113.357 27.0481 113.335 26.97 113.324 26.8919C113.324 26.8473 113.313 26.7803 113.302 26.7357C111.952 16.5491 106.897 8.8506 97.9158 9.95517C86.6804 11.361 82.4853 20.4207 83.7684 30.7858H83.7572Z" fill="#F7B49F"/>
<path d="M100.058 48.4924C97.7373 48.4924 94.9592 47.8007 92.2814 45.4242C92.0471 45.2234 92.0248 44.8663 92.2368 44.632C92.4376 44.3977 92.7947 44.3754 93.029 44.5874C98.7861 49.6863 104.8 46.3502 105.045 46.2052C105.313 46.049 105.648 46.1494 105.804 46.4172C105.96 46.685 105.86 47.0197 105.603 47.1759C105.559 47.1982 103.249 48.4924 100.069 48.4924H100.058Z" fill="#2A2628"/>
<path d="M105.079 32.4847C104.833 32.4847 104.61 32.3285 104.543 32.0719C104.465 31.7706 104.632 31.4694 104.934 31.3801C105.826 31.1347 106.351 30.7888 106.417 30.4095C106.529 29.74 105.436 28.7135 104.878 28.323C104.777 28.2561 104.699 28.1445 104.666 28.033C104.074 26.1251 105.57 23.5143 105.636 23.4027C105.793 23.1349 106.127 23.0457 106.395 23.2019C106.663 23.3581 106.752 23.6928 106.596 23.9606C106.25 24.563 105.436 26.3371 105.692 27.542C106.239 27.966 107.756 29.2603 107.522 30.6103C107.377 31.4582 106.607 32.083 105.235 32.4735C105.19 32.4847 105.134 32.4959 105.09 32.4959L105.079 32.4847Z" fill="#D86C6C"/>
<path d="M107.812 25.913C107.812 26.4932 108.281 26.9618 108.861 26.9618C109.441 26.9618 109.91 26.4932 109.91 25.913C109.91 25.3329 109.441 24.8643 108.861 24.8643C108.281 24.8643 107.812 25.3329 107.812 25.913Z" fill="#2A2628"/>
<path d="M108.861 27.5194C107.98 27.5194 107.254 26.7942 107.254 25.9128C107.254 25.0314 107.98 24.3062 108.861 24.3062C109.742 24.3062 110.468 25.0314 110.468 25.9128C110.468 26.7942 109.742 27.5194 108.861 27.5194ZM108.861 25.4219C108.593 25.4219 108.37 25.645 108.37 25.9128C108.37 26.1806 108.593 26.4037 108.861 26.4037C109.129 26.4037 109.352 26.1806 109.352 25.9128C109.352 25.645 109.129 25.4219 108.861 25.4219Z" fill="#2A2628"/>
<path d="M95.4395 25.913C95.4395 26.4932 95.9081 26.9618 96.4882 26.9618C97.0684 26.9618 97.537 26.4932 97.537 25.913C97.537 25.3329 97.0684 24.8643 96.4882 24.8643C95.9081 24.8643 95.4395 25.3329 95.4395 25.913Z" fill="#2A2628"/>
<path d="M96.488 27.5194C95.6066 27.5194 94.8813 26.7942 94.8813 25.9128C94.8813 25.0314 95.6066 24.3062 96.488 24.3062C97.3694 24.3062 98.0946 25.0314 98.0946 25.9128C98.0946 26.7942 97.3694 27.5194 96.488 27.5194ZM96.488 25.4219C96.2202 25.4219 95.9971 25.645 95.9971 25.9128C95.9971 26.1806 96.2202 26.4037 96.488 26.4037C96.7558 26.4037 96.9789 26.1806 96.9789 25.9128C96.9789 25.645 96.7558 25.4219 96.488 25.4219Z" fill="#2A2628"/>
<path d="M100.025 22.1276C99.9136 22.1276 99.802 22.0942 99.7016 22.0272C99.5789 21.938 96.7673 19.9631 93.7994 21.5363C93.5205 21.6814 93.1858 21.5809 93.0407 21.302C92.8957 21.0342 92.9961 20.6884 93.275 20.5433C96.8788 18.6354 100.215 21.0119 100.36 21.1123C100.605 21.2909 100.661 21.6367 100.483 21.8933C100.371 22.0495 100.204 22.1276 100.025 22.1276Z" fill="#2A2628"/>
<path d="M106.987 22.1191C106.876 22.1191 106.764 22.0857 106.675 22.0187C106.418 21.8402 106.351 21.5055 106.53 21.2489C106.586 21.1596 107.958 19.1959 111.685 20.0885C111.986 20.1555 112.175 20.4567 112.097 20.758C112.03 21.0592 111.718 21.2377 111.428 21.1708C108.494 20.479 107.489 21.8179 107.456 21.8737C107.344 22.0299 107.177 22.108 106.999 22.108L106.987 22.1191Z" fill="#2A2628"/>
<path d="M99.1213 8.50732C99.1213 8.50732 102.301 15.079 97.3362 17.7678C92.3823 20.4567 95.8746 22.6213 91.1104 24.1275L86.3463 25.6337L80.9238 23.2572L84.0813 13.0372L93.0741 9.47801L99.1102 8.50732H99.1213Z" fill="#2A2628"/>
<path d="M87.2058 34.8841C86.726 35.3861 86.1347 35.7766 85.4652 36.0109C82.7652 36.9593 79.6635 35.1072 78.5366 31.8939C77.4097 28.6695 78.6816 25.3 81.3817 24.3516C82.7987 23.8495 84.3272 24.1285 85.6214 24.9653C85.6214 24.9653 86.9492 25.9248 87.9533 28.2901L87.1946 34.8841H87.2058Z" fill="#F7B49F"/>
<path d="M84.4832 31.6121C84.1931 31.6121 83.9477 31.389 83.9253 31.0878C83.8807 30.4518 83.6799 29.9832 83.2894 29.6596C82.5976 29.0683 81.5712 29.1352 81.5488 29.1352C81.2588 29.1576 80.9687 28.9344 80.9464 28.622C80.924 28.3096 81.1472 28.0418 81.4596 28.0195C81.5154 28.0195 82.9658 27.9079 84.0146 28.8117C84.6283 29.3361 84.963 30.0724 85.0299 31.0097C85.0522 31.3221 84.8179 31.5787 84.5167 31.601C84.5055 31.601 84.4944 31.601 84.4721 31.601L84.4832 31.6121Z" fill="#2A2628"/>
<path d="M82.4192 44.0974C80.7233 46.4181 77.8224 47.1768 75.9368 45.7933C74.0513 44.4098 73.9062 41.4197 75.6021 39.1101C77.298 36.7894 80.1989 36.0307 82.0845 37.4142C83.9701 38.7977 84.1151 41.7879 82.4192 44.0974Z" fill="#2A2628"/>
<path d="M77.8328 50.8137C76.1369 53.1344 73.236 53.8931 71.3504 52.5096C69.4648 51.1261 69.3198 48.136 71.0157 45.8264C72.7116 43.5057 75.6125 42.747 77.4981 44.1305C79.3836 45.514 79.5287 48.5042 77.8328 50.8137Z" fill="#2A2628"/>
<path d="M73.2361 56.6624C71.5402 58.9831 68.6393 59.7418 66.7537 58.3583C64.8682 56.9748 64.7231 53.9846 66.419 51.6751C68.1149 49.3544 71.0158 48.5957 72.9014 49.9792C74.787 51.3627 74.932 54.3528 73.2361 56.6624Z" fill="#2A2628"/>
<path d="M103.261 36.0637C101.632 36.0637 99.2217 35.9632 97.8828 35.4054C97.6039 35.2827 97.4588 34.9591 97.5816 34.6802C97.7043 34.4012 98.0278 34.2562 98.3068 34.3789C100.181 35.1599 104.834 34.9145 104.89 34.9145C105.191 34.9033 105.459 35.1376 105.481 35.4389C105.492 35.7513 105.258 36.0079 104.957 36.0302C104.878 36.0302 104.209 36.0637 103.272 36.0637H103.261Z" fill="#2A2628"/>
<path d="M103.294 38.2204C103.294 38.2204 103.204 38.2204 103.149 38.1981C101.776 37.8299 100.248 38.1646 100.237 38.1758C99.9353 38.2427 99.6341 38.053 99.5671 37.7518C99.5002 37.4505 99.6899 37.1493 99.9911 37.0823C100.069 37.0712 101.787 36.6807 103.439 37.1158C103.74 37.1939 103.918 37.4952 103.84 37.7964C103.773 38.0419 103.55 38.2092 103.305 38.2092L103.294 38.2204Z" fill="#2A2628"/>
<path d="M36.4174 132.752L69.1082 94.0256C69.1082 94.0256 70.8153 71.8896 88.8119 66.2775C88.8119 66.2775 101.319 39.1877 111.372 45.9044C116.426 49.285 105.548 71.6107 105.548 71.6107C105.548 71.6107 121.257 86.316 119.695 92.8095C118.133 99.303 99.244 111.565 99.244 111.565L70.938 164.16C63.8978 177.248 46.6375 180.628 35.179 171.167C33.9182 170.118 32.7913 168.98 31.7983 167.742" fill="#F7B49F"/>
<path d="M50.1518 177.113C44.5955 177.113 39.1954 175.194 34.8217 171.579C33.5498 170.531 32.3895 169.348 31.363 168.076C31.1733 167.831 31.2068 167.485 31.4523 167.295C31.6977 167.105 32.0436 167.139 32.2333 167.384C33.2151 168.6 34.3197 169.727 35.5358 170.72C40.869 175.127 47.8088 176.89 54.6147 175.563C61.3983 174.235 67.1778 169.973 70.458 163.892L98.764 111.297C98.8086 111.219 98.8756 111.141 98.9537 111.096C99.1434 110.973 117.687 98.8787 119.171 92.6752C120.387 87.6098 109.486 76.0398 105.179 72.012C105.001 71.8446 104.956 71.5768 105.057 71.3649C108.025 65.273 114.886 48.9165 111.07 46.3726C109.598 45.3908 108.047 45.1453 106.317 45.6362C97.9718 47.9904 89.4142 66.3218 89.3361 66.5115C89.2692 66.6565 89.1465 66.7681 88.9903 66.8127C81.7046 69.0888 76.2375 74.3439 72.7453 82.444C70.1233 88.5247 69.677 94.0141 69.677 94.0699C69.677 94.1815 69.6212 94.293 69.5431 94.3823L36.8524 133.109C36.6515 133.343 36.3057 133.377 36.0714 133.176C35.8371 132.975 35.8036 132.629 36.0044 132.395L68.5836 93.8021C68.684 92.7757 69.2754 87.7326 71.7188 82.0424C75.2557 73.8195 81.024 68.2185 88.4324 65.8309C89.4923 63.5883 97.6037 46.9416 106.027 44.5763C108.069 43.9961 109.977 44.2973 111.706 45.4577C116.794 48.8607 107.969 67.9061 106.251 71.4987C108.493 73.6409 121.77 86.6503 120.264 92.9542C118.724 99.3919 101.453 110.817 99.6901 111.977L71.451 164.439C68.0146 170.821 61.9562 175.284 54.849 176.678C53.2982 176.979 51.7362 177.136 50.1853 177.136L50.1518 177.113Z" fill="#2A2628"/>
<path d="M88.8114 66.2769C88.8114 66.2769 83.3555 75.158 81.5034 78.0589L88.8114 66.2769Z" fill="#F7B49F"/>
<path d="M81.5038 78.6196C81.4034 78.6196 81.2918 78.5861 81.2026 78.5304C80.946 78.363 80.8679 78.0171 81.0352 77.7605C82.865 74.9042 88.2874 66.0788 88.3432 65.9896C88.4994 65.7218 88.8453 65.6437 89.1131 65.8111C89.3809 65.9673 89.4589 66.3132 89.2916 66.5809C89.2358 66.6702 83.8022 75.5067 81.9836 78.3742C81.872 78.5415 81.6935 78.6308 81.515 78.6308L81.5038 78.6196Z" fill="#2A2628"/>
<path d="M108.862 80.6932C108.717 80.6932 108.583 80.6374 108.471 80.537C108.248 80.325 108.248 79.968 108.471 79.7449C110.234 77.9597 109.453 76.2415 109.408 76.1634C109.274 75.8844 109.397 75.5497 109.665 75.4158C109.944 75.282 110.267 75.3935 110.412 75.6725C110.457 75.7729 111.584 78.1494 109.263 80.5147C109.152 80.6263 109.007 80.6821 108.862 80.6821V80.6932Z" fill="#2A2628"/>
<path d="M114.585 88.0916C114.429 88.0916 114.284 88.0246 114.172 87.9131C113.971 87.6788 113.983 87.3329 114.217 87.1209C115.679 85.8044 115.366 83.3386 115.366 83.3163C115.321 83.015 115.533 82.7249 115.846 82.6915C116.147 82.6468 116.426 82.8588 116.471 83.1712C116.493 83.294 116.872 86.2395 114.964 87.9577C114.853 88.0581 114.719 88.1028 114.585 88.1028V88.0916Z" fill="#2A2628"/>
<path d="M107.835 53.8055C106.641 53.4485 105.581 52.846 104.655 52.0203C104.321 51.7191 104.265 51.217 104.488 50.8377L105.369 49.2756C106.061 48.0483 107.623 47.6132 108.85 48.305C110.078 48.9967 110.513 50.5587 109.821 51.786L108.94 53.348C108.716 53.7385 108.259 53.9505 107.835 53.8166V53.8055Z" fill="#F7B49F"/>
<path d="M108.081 54.394C107.947 54.394 107.802 54.3717 107.668 54.3382C106.396 53.9589 105.258 53.3118 104.276 52.4304C103.763 51.9617 103.64 51.1807 103.997 50.5559L104.879 48.9939C105.291 48.2687 105.95 47.7443 106.753 47.5212C107.556 47.298 108.393 47.3984 109.118 47.8112C109.844 48.2241 110.368 48.8823 110.591 49.6857C110.814 50.489 110.714 51.3258 110.301 52.051L109.42 53.613C109.141 54.1151 108.616 54.4052 108.081 54.4052V54.394ZM107.59 48.5142C107.411 48.5142 107.233 48.5365 107.054 48.5923C106.541 48.7373 106.117 49.072 105.849 49.5406L104.968 51.1026C104.867 51.27 104.901 51.482 105.024 51.6047C105.883 52.3857 106.887 52.9436 107.991 53.2783C108.159 53.3229 108.348 53.2337 108.449 53.0663L109.33 51.5043C109.587 51.0357 109.654 50.5001 109.509 49.9869C109.364 49.4737 109.029 49.0497 108.572 48.7819C108.27 48.6146 107.936 48.5253 107.59 48.5253V48.5142Z" fill="#2A2628"/>
<path d="M193.188 32.8628C193.02 34.1012 192.597 35.2393 191.916 36.2769C191.67 36.6451 191.191 36.779 190.767 36.6228L189.082 35.998C187.765 35.507 187.085 34.0343 187.587 32.7177C188.078 31.4012 189.551 30.7206 190.867 31.2226L192.552 31.8475C192.965 32.0037 193.255 32.4165 193.188 32.8628Z" fill="#F7B49F"/>
<path d="M191.124 37.2459C190.946 37.2459 190.756 37.2124 190.577 37.1455L188.893 36.5207C188.112 36.2306 187.498 35.6504 187.152 34.9029C186.806 34.1442 186.773 33.2962 187.063 32.5264C187.665 30.9197 189.462 30.1053 191.068 30.6966L192.753 31.3214C193.422 31.5669 193.846 32.2475 193.746 32.9392C193.567 34.2558 193.11 35.4831 192.385 36.5876C192.106 37.0116 191.626 37.2571 191.124 37.2571V37.2459ZM189.986 31.6115C189.183 31.6115 188.413 32.1024 188.112 32.9057C187.922 33.4078 187.944 33.9434 188.167 34.4343C188.39 34.914 188.781 35.2934 189.283 35.4719L190.968 36.0967C191.146 36.1637 191.358 36.1079 191.459 35.9628C192.095 34.9921 192.496 33.921 192.653 32.7718C192.675 32.6045 192.552 32.426 192.374 32.3479L190.689 31.7231C190.455 31.6338 190.22 31.6003 189.997 31.6003L189.986 31.6115Z" fill="#2A2628"/>
<path d="M186.65 52.0206C186.929 53.2367 186.929 54.4528 186.65 55.669C186.549 56.1041 186.148 56.3942 185.701 56.3942H183.905C182.499 56.3942 181.35 55.2562 181.35 53.8392C181.35 52.4334 182.488 51.2842 183.905 51.2842H185.701C186.148 51.2842 186.561 51.5743 186.65 52.0094V52.0206Z" fill="#F7B49F"/>
<path d="M185.69 56.9518H183.894C182.176 56.9518 180.781 55.5572 180.781 53.839C180.781 52.1207 182.176 50.7261 183.894 50.7261H185.69C186.405 50.7261 187.04 51.217 187.186 51.8864C187.476 53.1807 187.476 54.4861 187.186 55.7803C187.029 56.4609 186.405 56.9407 185.69 56.9407V56.9518ZM183.894 51.8418C182.79 51.8418 181.897 52.7344 181.897 53.839C181.897 54.9435 182.79 55.8361 183.894 55.8361H185.69C185.88 55.8361 186.059 55.7134 186.103 55.546C186.36 54.4191 186.36 53.2699 186.103 52.143C186.07 51.9757 185.891 51.853 185.69 51.853H183.894V51.8418Z" fill="#2A2628"/>
<path d="M185.813 66.0762C186.092 67.2924 186.092 68.5085 185.813 69.7246C185.712 70.1598 185.311 70.4499 184.865 70.4499H183.068C181.662 70.4499 180.513 69.3118 180.513 67.8949C180.513 66.489 181.651 65.3398 183.068 65.3398H184.865C185.311 65.3398 185.724 65.6299 185.813 66.0651V66.0762Z" fill="#F7B49F"/>
<path d="M184.854 71.0075H183.058C181.339 71.0075 179.945 69.6128 179.945 67.8946C179.945 66.1764 181.339 64.7817 183.058 64.7817H184.854C185.568 64.7817 186.204 65.2727 186.349 65.9421C186.639 67.2363 186.639 68.5417 186.349 69.836C186.204 70.5054 185.568 70.9963 184.854 70.9963V71.0075ZM183.058 65.8975C181.953 65.8975 181.061 66.79 181.061 67.8946C181.061 68.9992 181.953 69.8918 183.058 69.8918H184.854C185.044 69.8918 185.222 69.769 185.267 69.6017C185.523 68.4748 185.523 67.3256 185.267 66.1987C185.233 66.0313 185.055 65.9086 184.854 65.9086H183.058V65.8975Z" fill="#2A2628"/>
<path d="M190.9 80.8726C191.179 82.0887 191.179 83.3049 190.9 84.521C190.8 84.9562 190.398 85.2462 189.952 85.2462H188.156C186.75 85.2462 185.601 84.1082 185.601 82.6912C185.601 81.2854 186.739 80.1362 188.156 80.1362H189.952C190.398 80.1362 190.811 80.4263 190.9 80.8614V80.8726Z" fill="#F7B49F"/>
<path d="M189.952 85.8039H188.156C186.438 85.8039 185.043 84.4092 185.043 82.691C185.043 80.9728 186.438 79.5781 188.156 79.5781H189.952C190.666 79.5781 191.302 80.069 191.447 80.7385C191.737 82.0327 191.737 83.3381 191.447 84.6324C191.291 85.313 190.666 85.7927 189.952 85.7927V85.8039ZM188.156 80.6939C187.051 80.6939 186.159 81.5864 186.159 82.691C186.159 83.7956 187.051 84.6881 188.156 84.6881H189.952C190.142 84.6881 190.32 84.5654 190.365 84.3981C190.622 83.2712 190.622 82.122 190.365 80.9951C190.331 80.8277 190.153 80.705 189.952 80.705H188.156V80.6939Z" fill="#2A2628"/>
<path d="M140.336 112.156C140.08 112.156 139.845 111.978 139.79 111.71C139.756 111.532 135.985 93.6464 132.883 85.5797C132.772 85.2896 132.917 84.9661 133.207 84.8545C133.497 84.7429 133.821 84.888 133.932 85.1781C137.067 93.334 140.85 111.297 140.894 111.487C140.961 111.788 140.76 112.089 140.459 112.145C140.426 112.145 140.381 112.156 140.348 112.156H140.336Z" fill="#2A2628"/>
</svg>
