<svg width="209" height="200" viewBox="0 0 209 200" fill="none" xmlns="http://www.w3.org/2000/svg">
<path d="M78.8852 194.594L10.6467 148.211C4.8957 144.304 4.70817 135.896 10.2716 131.732L122.916 47.4981C126.378 44.9117 131.097 44.8023 134.668 47.2324L202.907 93.6155C208.658 97.5225 208.845 105.93 203.282 110.095L90.6373 194.328C87.1757 196.915 82.4561 197.024 78.8852 194.594Z" fill="#2A2628"/>
<path d="M76.4396 197.525L10.6469 152.806C2.37978 147.031 4.70831 135.897 10.2718 131.732L122.916 52.0928C126.378 49.5064 131.098 49.397 134.669 51.8272L205.322 95.9208C211.073 99.8277 208.846 110.533 203.282 114.698L92.9972 197.157C88.1213 200.806 81.4717 200.955 76.4396 197.532V197.525Z" fill="#2A2628"/>
<path d="M200.703 101.906C200.719 102.578 200.555 103.844 199.305 104.774L180.653 118.722L86.6601 189.007C86.0506 189.461 85.3317 189.695 84.5738 189.695C83.8784 189.695 83.1986 189.492 82.6203 189.093L65.172 177.232L14.3818 142.71C13.0925 141.835 12.8738 140.585 12.8581 139.913C12.8425 139.241 13.0066 137.983 14.2568 137.045L51.2398 109.392L126.902 52.8195C127.511 52.3663 128.23 52.124 128.988 52.124C129.691 52.124 130.363 52.335 130.941 52.7257L179.637 85.8252L199.18 99.1088C200.469 99.984 200.688 101.242 200.703 101.906Z" fill="#FCFCFC"/>
<path d="M181.302 129.403L181.278 107.407H160.001L181.302 129.403Z" fill="#2962F6"/>
<path d="M94.935 25.2204C94.935 25.2204 83.6127 9.81143 96.365 4.834C109.117 -0.135624 94.935 25.2204 94.935 25.2204Z" fill="#282828"/>
<path d="M120.728 7.45987C120.447 7.09262 120.15 6.73318 119.838 6.38937C117.603 3.91238 114.282 1.04469 111.024 0.357068C108.875 -0.0961363 106.656 -0.0492525 104.468 0.122653C102.78 0.247674 101.077 0.450835 99.5138 1.09157C97.029 2.09956 95.4584 5.15478 93.841 7.28797C93.0908 8.28814 90.7701 11.3824 93.4346 11.3512C95.2553 11.3356 96.5446 16.2974 99.8108 18.3602C103.851 20.9075 106.617 19.04 108.5 18.7197C109.687 18.5165 111.196 18.0711 112.313 18.4384L113.852 14.2423C113.852 14.2423 116.767 9.12423 120.728 7.46769V7.45987Z" fill="#282828"/>
<path d="M120.979 24.4082C120.471 24.3692 119.47 23.2752 119.041 23.0174C117.642 22.1578 117.697 20.7514 116.306 19.8918C115.181 19.1964 114.001 19.6652 112.993 18.8057C112.79 18.6338 112.563 18.5088 112.313 18.4306L113.852 14.2346C113.852 14.2346 116.767 9.1165 120.729 7.45996C120.729 7.45996 120.729 7.45996 120.729 7.46777C120.893 7.80377 128.425 16.3912 120.979 24.4082Z" fill="#282828"/>
<path d="M180.653 118.721L86.6602 189.007C86.0507 189.46 85.3318 189.695 84.5739 189.695C83.8785 189.695 83.1987 189.492 82.6204 189.093L74.4002 183.506L64.7423 132.067L52.8105 142.835C50.8727 134.919 52.7949 119.839 51.2399 109.384C48.6301 91.8729 53.0918 76.1592 59.2335 68.1421C66.9458 58.0623 74.1815 47.5448 101.311 48.7403L117.369 48.3105C117.369 48.3105 170.808 51.7877 178.614 81.3476C179.004 82.8088 179.34 84.3012 179.637 85.8171C181.708 96.4518 181.607 108.149 180.653 118.713V118.721Z" fill="#2962F6"/>
<path d="M100.498 54.773L109.086 57.836L120.025 53.7806C119.127 44.6618 118.369 31.1439 119.392 23.8613L99.5842 37.0355C99.5842 37.0355 100.334 46.5059 100.506 54.7808L100.498 54.773Z" fill="#F7B49F"/>
<path d="M117.955 26.7988L112.68 38.3711C109.969 40.9575 106.46 42.3562 102.78 41.7545C96.2008 40.6918 93.2159 35.8863 92.7705 29.2211C92.7471 28.9085 92.7315 28.596 92.7236 28.2756C92.6846 27.2129 92.708 26.1112 92.794 24.9703C92.794 24.9078 92.8018 24.8375 92.8174 24.775C92.8174 24.7359 92.8174 24.6812 92.8252 24.6422C93.5285 15.9766 97.4588 9.25666 105.101 9.80363C114.657 10.4991 118.588 17.9769 117.955 26.7988Z" fill="#F7B49F"/>
<path d="M104.444 42.3952C102.038 42.3952 100.288 41.5278 100.256 41.5122C100.061 41.4184 99.9906 41.1762 100.084 40.9887C100.178 40.7933 100.42 40.723 100.608 40.8168C100.827 40.9262 106.093 43.5125 110.789 38.918C110.946 38.7695 111.188 38.7695 111.344 38.918C111.493 39.0743 111.493 39.3165 111.344 39.4728C109 41.7622 106.492 42.3873 104.444 42.3873V42.3952Z" fill="#2A2628"/>
<path d="M99.9906 29.073C99.9906 29.073 99.9359 29.073 99.9046 29.0652C98.7638 28.8074 98.1074 28.3307 97.959 27.6509C97.7089 26.5413 98.9513 25.3849 99.3655 25.0411C99.5842 23.7674 98.4512 21.9859 98.4356 21.9702C98.3184 21.7905 98.3731 21.5483 98.5528 21.4311C98.7325 21.3139 98.9748 21.3686 99.092 21.5483C99.1467 21.6342 100.506 23.7518 100.1 25.3536C100.077 25.4396 100.03 25.5099 99.9593 25.5646C99.5921 25.8537 98.5684 26.8305 98.7169 27.479C98.8185 27.9244 99.5139 28.1744 100.077 28.2995C100.288 28.3464 100.42 28.5573 100.373 28.7683C100.334 28.948 100.17 29.073 99.9906 29.073Z" fill="#D86C6C"/>
<path d="M97.4276 23.7121C97.4511 24.2044 97.076 24.6185 96.5915 24.642C96.0993 24.6654 95.6851 24.2904 95.6617 23.8059C95.6382 23.3136 96.0133 22.8995 96.4978 22.876C96.99 22.8526 97.4042 23.2277 97.4276 23.7121Z" fill="#2A2628"/>
<path d="M96.5369 25.0335C96.2243 25.0335 95.9196 24.9163 95.6851 24.7053C95.4351 24.4787 95.2866 24.1662 95.2632 23.8224C95.2241 23.1191 95.7711 22.5175 96.4744 22.4862C96.8025 22.4628 97.1385 22.5878 97.3964 22.8144C97.6464 23.041 97.7949 23.3535 97.8183 23.6973C97.8496 24.4006 97.3104 25.0023 96.6072 25.0335C96.5837 25.0335 96.5603 25.0335 96.5369 25.0335ZM96.5369 23.2598C96.5369 23.2598 96.5212 23.2598 96.5134 23.2598C96.2399 23.2754 96.029 23.5098 96.0446 23.7833C96.0446 23.9161 96.1071 24.0333 96.2087 24.1271C96.3103 24.2209 96.4197 24.2521 96.5681 24.2521C96.8416 24.2365 97.0526 24.0021 97.0369 23.7286C97.0213 23.4629 96.8025 23.2598 96.5447 23.2598H96.5369Z" fill="#2A2628"/>
<path d="M107.875 23.1819C107.898 23.6741 107.523 24.0883 107.039 24.1117C106.547 24.1351 106.132 23.7601 106.109 23.2756C106.086 22.7833 106.461 22.3692 106.945 22.3458C107.429 22.3223 107.851 22.6974 107.875 23.1819Z" fill="#2A2628"/>
<path d="M106.992 24.5013C106.32 24.5013 105.757 23.9699 105.718 23.2901C105.703 22.9463 105.82 22.6181 106.046 22.3681C106.273 22.118 106.586 21.9696 106.929 21.9461C107.633 21.8992 108.234 22.454 108.265 23.1573C108.305 23.8605 107.758 24.4622 107.054 24.4934C107.031 24.4934 107.007 24.4934 106.992 24.4934V24.5013ZM106.992 22.7275C106.992 22.7275 106.976 22.7275 106.968 22.7275C106.836 22.7275 106.718 22.79 106.625 22.8916C106.531 22.9932 106.492 23.1182 106.5 23.251C106.515 23.5245 106.726 23.7199 107.023 23.7199C107.297 23.7042 107.508 23.4698 107.492 23.1963C107.476 22.9307 107.258 22.7275 107 22.7275H106.992Z" fill="#2A2628"/>
<path d="M103.819 20.1027C103.702 20.1027 103.593 20.0558 103.515 19.9542C103.382 19.7901 103.405 19.5401 103.577 19.4072C103.687 19.3135 106.375 17.1959 109.453 18.6337C109.649 18.7274 109.735 18.954 109.641 19.1494C109.547 19.3447 109.313 19.4307 109.125 19.3369C106.492 18.1101 104.171 19.9308 104.07 20.0089C103.999 20.0636 103.913 20.0949 103.827 20.0949L103.819 20.1027Z" fill="#2A2628"/>
<path d="M97.9433 20.3992C97.8261 20.3992 97.7089 20.3445 97.6308 20.2429C97.5839 20.1882 96.654 19.0631 94.1536 19.7897C93.9426 19.8523 93.7316 19.7272 93.6691 19.5241C93.6066 19.3131 93.7238 19.1021 93.9348 19.0396C97.0057 18.141 98.2012 19.7038 98.2559 19.7663C98.3887 19.9382 98.3496 20.1882 98.1777 20.3133C98.1074 20.368 98.0293 20.3914 97.9433 20.3914V20.3992Z" fill="#2A2628"/>
<path d="M101.616 33.1448C100.35 33.1448 99.3108 32.7697 99.2483 32.7463C99.0452 32.6759 98.9436 32.4493 99.0139 32.2462C99.0921 32.043 99.3108 31.9414 99.514 32.0118C99.5374 32.0118 101.788 32.8322 103.507 31.9571C104.359 31.5273 104.952 30.7459 105.273 29.6285C105.335 29.4254 105.546 29.3003 105.757 29.3629C105.96 29.4254 106.085 29.6363 106.023 29.8473C105.64 31.1757 104.913 32.1212 103.859 32.6603C103.124 33.0276 102.335 33.1526 101.616 33.1526V33.1448Z" fill="#D86C6C"/>
<path d="M104.023 8.63965C104.023 8.63965 101.624 14.3281 105.929 16.391C110.235 18.4539 107.375 20.4308 111.461 21.4935L115.548 22.5561L120.025 20.3136L116.915 11.8199L109.164 9.20225L104.023 8.63965Z" fill="#282828"/>
<path d="M115.22 30.4092C115.65 30.8077 116.158 31.1124 116.736 31.2843C119.056 31.9641 121.596 30.2763 122.409 27.5024C123.221 24.7363 122.002 21.939 119.682 21.2591C118.463 20.8997 117.181 21.1966 116.126 21.9624C116.126 21.9624 115.04 22.8297 114.298 24.8691L115.22 30.4092Z" fill="#F7B49F"/>
<path d="M117.361 27.4401C117.142 27.4401 116.97 27.2604 116.978 27.0416C116.994 26.2758 117.244 25.6507 117.72 25.1975C118.541 24.4161 119.729 24.4396 119.783 24.4474C120.002 24.4474 120.166 24.6349 120.158 24.8459C120.15 25.0569 119.994 25.2366 119.76 25.2288C119.744 25.2288 118.83 25.2131 118.252 25.7679C117.931 26.0727 117.767 26.5102 117.759 27.0572C117.759 27.2682 117.58 27.4401 117.369 27.4401H117.361Z" fill="#2A2628"/>
<path d="M108.883 57.8977C103.468 57.8977 100.287 55.1081 100.24 55.0612C100.084 54.9206 100.069 54.6705 100.209 54.5065C100.358 54.3424 100.6 54.3346 100.764 54.4752C101.061 54.7487 108.234 60.9998 119.814 53.4438C119.994 53.3266 120.236 53.3813 120.353 53.561C120.471 53.7407 120.424 53.9829 120.236 54.1001C115.829 56.9756 111.985 57.8977 108.875 57.8977H108.883Z" fill="#2A2628"/>
<path d="M9.79517 64.7033C9.79517 64.7033 8.13863 126.214 29.7362 142.404C51.3337 158.595 71.8529 129.433 55.3969 97.9904C38.9409 66.5474 33.9635 58.1396 33.9635 58.1396L9.79517 64.7033Z" fill="#F7B49F"/>
<path d="M32.3599 18.1328L114.102 50.299C117.825 51.764 119.66 55.979 118.195 59.7019L99.2675 107.801C97.8025 111.523 93.5875 113.358 89.8646 111.893L8.12226 79.7268C4.39943 78.2618 2.56491 74.0467 4.02987 70.3239L22.9571 22.2252C24.422 18.5023 28.6371 16.6678 32.3599 18.1328Z" fill="#00E0E3"/>
<path d="M114.633 68.7423L19.3955 31.2656L15.8361 40.3109L111.074 77.7877L114.633 68.7423Z" fill="#2A2628"/>
<path d="M91.2957 75.2038L58.5828 62.3311L57.361 65.4358L90.0739 78.3086L91.2957 75.2038Z" fill="#FCFCFC"/>
<path d="M8.81841 26.2759C22.2426 22.408 28.0093 23.9239 28.4625 27.2058C28.9235 30.4798 18.3591 33.5663 18.3591 33.5663C18.3591 33.5663 30.705 35.4963 28.8141 40.4893C28.189 42.1302 25.9464 42.8179 23.2115 43.0054C26.5246 45.373 27.3998 47.5453 26.5637 49.2174C25.3916 51.5616 18.6092 49.8894 15.8274 49.0846C21.3597 51.9054 22.9537 54.5621 21.9926 56.4765C20.6877 59.0863 9.88109 55.5701 9.88109 55.5701L7.96669 60.2115C7.96669 60.2115 3.00489 56.2577 1.29365 50.8115C1.29365 50.8115 -4.61363 30.1438 8.81841 26.2759Z" fill="#F7B49F"/>
<path d="M18.3592 33.9486C18.3592 33.9486 18.3045 33.9486 18.2732 33.9408C18.2264 33.9329 13.4052 32.8624 10.1078 32.8624C10.0687 32.8624 10.0218 32.8781 9.99055 32.8624C9.77957 32.8624 9.59985 32.6905 9.59985 32.4717C9.59985 32.253 9.77176 32.0811 9.99055 32.0811C10.0296 32.0811 10.0765 32.0811 10.1156 32.0811C13.499 32.0811 18.2498 33.1281 18.453 33.175C18.6639 33.2219 18.7968 33.4329 18.7499 33.6438C18.7108 33.8235 18.5467 33.9486 18.367 33.9486H18.3592Z" fill="#2A2628"/>
<path d="M23.2117 43.3961C23.157 43.3961 23.1023 43.3883 23.0476 43.3571C22.9851 43.3336 17.0387 40.6457 9.66243 40.505C9.44364 40.505 9.27174 40.3253 9.27955 40.1065C9.27955 39.8955 9.45927 39.7236 9.67025 39.7236C17.2184 39.8643 23.3054 42.6226 23.368 42.646C23.5633 42.732 23.6493 42.9664 23.5633 43.1617C23.5008 43.3024 23.3601 43.3883 23.2117 43.3883V43.3961Z" fill="#2A2628"/>
<path d="M15.8352 49.4748C15.7883 49.4748 15.7414 49.467 15.6945 49.4513C15.6554 49.4357 11.8735 47.9667 8.69329 47.2087C8.48231 47.1619 8.34948 46.9509 8.40417 46.7399C8.45106 46.5289 8.66984 46.3961 8.87301 46.4508C12.1079 47.2166 15.9446 48.709 15.9836 48.7246C16.1868 48.8028 16.2806 49.0294 16.2024 49.2325C16.1399 49.3888 15.9914 49.4826 15.8352 49.4826V49.4748Z" fill="#2A2628"/>
<path d="M120.674 66.0484C110.938 56.0232 105.187 54.4761 103.163 57.0937C101.139 59.7114 108.781 67.6268 108.781 67.6268C108.781 67.6268 97.1072 63.1651 96.2712 68.4395C95.9977 70.1741 97.6073 71.8854 99.8812 73.4091C95.8336 73.8232 93.9895 75.2688 93.8879 77.1363C93.7395 79.7539 100.459 81.6683 103.272 82.356C97.0682 82.059 94.3646 83.5749 94.2474 85.7081C94.0833 88.6227 105.21 90.9356 105.21 90.9356L104.569 95.913C104.569 95.913 110.844 94.9441 115.032 91.0684C115.032 91.0684 130.418 76.0658 120.689 66.0406L120.674 66.0484Z" fill="#F7B49F"/>
<path d="M116.587 71.2373C116.517 71.2373 116.455 71.2216 116.392 71.1826C113.54 69.5182 108.719 68.0179 108.672 68.0023C108.469 67.9398 108.352 67.721 108.414 67.5179C108.477 67.3147 108.695 67.1975 108.899 67.26C109.102 67.3225 113.852 68.7993 116.783 70.5106C116.97 70.62 117.033 70.8544 116.923 71.0419C116.853 71.1669 116.72 71.2373 116.587 71.2373Z" fill="#2A2628"/>
<path d="M113.063 78.0187C113.001 78.0187 112.938 78.0031 112.876 77.9719C106.406 74.4322 99.9047 73.8071 99.8422 73.7992C99.6234 73.7758 99.4672 73.5883 99.4906 73.3773C99.514 73.1663 99.7016 73.0022 99.9126 73.0257C99.9751 73.0257 106.632 73.6664 113.251 77.292C113.438 77.3936 113.509 77.6359 113.407 77.8234C113.337 77.9562 113.204 78.0265 113.063 78.0265V78.0187Z" fill="#2A2628"/>
<path d="M110.508 84.2936C110.508 84.2936 110.438 84.2936 110.399 84.278C107.265 83.356 103.249 82.7465 103.202 82.7387C102.991 82.7074 102.843 82.5121 102.874 82.2933C102.905 82.0823 103.108 81.9338 103.319 81.9651C103.358 81.9651 107.429 82.5824 110.617 83.5279C110.82 83.5904 110.946 83.8092 110.883 84.0123C110.836 84.1842 110.68 84.2936 110.508 84.2936Z" fill="#2A2628"/>
<path d="M61.0854 125.895C61.0854 125.895 61.0619 125.895 61.0463 125.895C60.8275 125.871 60.6712 125.684 60.6947 125.473C62.2887 108.236 55.1546 98.3276 55.0843 98.226C54.9593 98.0541 54.9905 97.8041 55.1703 97.679C55.3422 97.554 55.5844 97.5853 55.7172 97.765C55.7876 97.8666 63.1091 107.993 61.4839 125.543C61.4682 125.746 61.2963 125.895 61.0932 125.895H61.0854Z" fill="#2A2628"/>
<path d="M104.562 95.9209C104.562 95.9209 148.327 152.611 164.432 148.321C180.536 144.031 189.577 126.965 170.8 113.268C152.023 99.57 120.322 79.207 120.322 79.207L104.562 95.9131V95.9209Z" fill="#F7B49F"/>
<path d="M164.424 148.711C164.252 148.711 164.096 148.594 164.049 148.422C163.994 148.211 164.119 148 164.322 147.945C172.956 145.648 179.372 139.686 180.669 132.747C181.919 126.051 178.332 119.253 170.565 113.588C152.015 100.054 120.424 79.7457 120.103 79.5425C119.924 79.4253 119.869 79.1831 119.986 79.0034C120.103 78.8236 120.346 78.7689 120.525 78.8862C120.846 79.0893 152.453 99.4132 171.019 112.955C179.043 118.807 182.739 125.887 181.427 132.896C180.075 140.123 173.441 146.328 164.517 148.703C164.486 148.711 164.447 148.719 164.416 148.719L164.424 148.711Z" fill="#2A2628"/>
<path d="M148.835 98.3822C148.632 98.3822 148.46 98.2259 148.444 98.0149L147.725 86.7473C147.71 86.5285 147.874 86.3488 148.093 86.3332C148.335 86.3098 148.491 86.4817 148.507 86.7005L149.226 97.968C149.241 98.1868 149.077 98.3666 148.858 98.3822C148.851 98.3822 148.843 98.3822 148.835 98.3822Z" fill="#2A2628"/>
<path d="M52.8104 143.234C52.6932 143.234 52.5682 143.179 52.4979 143.077C52.3729 142.905 52.4041 142.655 52.5838 142.53C52.6776 142.46 62.2418 135.412 67.8678 128.723C68.0084 128.559 68.2506 128.536 68.4147 128.676C68.5788 128.817 68.6023 129.059 68.4616 129.223C62.7809 135.99 53.1386 143.093 53.0449 143.163C52.9745 143.218 52.8964 143.241 52.8104 143.241V143.234Z" fill="#2A2628"/>
<path d="M66.7191 170.949C66.6488 170.949 66.5707 170.926 66.5003 170.886L38.683 152.508C38.5032 152.391 38.4564 152.149 38.5736 151.969C38.6908 151.789 38.933 151.735 39.1127 151.86L66.9301 170.238C67.1098 170.355 67.1567 170.597 67.0395 170.777C66.9613 170.894 66.8441 170.949 66.7113 170.949H66.7191Z" fill="#2A2628"/>
<path d="M28.2594 77.5817C27.5952 77.5817 26.931 77.4567 26.2903 77.2067C23.5398 76.1283 22.1802 73.0028 23.2663 70.2523C23.7898 68.9162 24.8056 67.8691 26.1184 67.2987C27.4311 66.7283 28.8923 66.7048 30.2207 67.2284C31.5568 67.7519 32.6039 68.7677 33.1743 70.0804C33.7447 71.3931 33.7681 72.8543 33.2446 74.1827C32.7211 75.5189 31.7053 76.5659 30.3926 77.1363C29.7049 77.4333 28.9782 77.5817 28.2516 77.5817H28.2594ZM28.2594 67.6347C27.6421 67.6347 27.017 67.7597 26.4309 68.0176C25.3057 68.502 24.4462 69.4006 23.993 70.5414C23.071 72.8934 24.2274 75.5579 26.5794 76.48C27.7202 76.9254 28.9626 76.9097 30.0878 76.4175C31.213 75.933 32.0725 75.0344 32.5257 73.8936C32.9711 72.7528 32.9477 71.5104 32.4632 70.3852C31.9788 69.26 31.0802 68.4004 29.9394 67.9472C29.3924 67.7363 28.8298 67.6269 28.2594 67.6269V67.6347Z" fill="#2A2628"/>
<path d="M21.516 74.8389C20.8674 74.8389 20.2032 74.7217 19.5625 74.4639C16.812 73.3855 15.4524 70.26 16.5385 67.5095C17.6168 64.759 20.7346 63.3994 23.4929 64.4855C26.2434 65.5639 27.603 68.6894 26.5168 71.4399C25.6886 73.5496 23.6648 74.8389 21.5238 74.8389H21.516ZM21.5238 64.8997C19.6953 64.8997 17.9685 66.0014 17.2574 67.7986C16.3354 70.1506 17.4918 72.8151 19.8438 73.7372C22.1958 74.6592 24.8603 73.5028 25.7823 71.1508C26.7044 68.7988 25.5479 66.1343 23.1959 65.2122C22.649 64.9935 22.0786 64.8919 21.5238 64.8919V64.8997Z" fill="#2A2628"/>
</svg>
