<svg width="135" height="135" viewBox="0 0 135 135" fill="none" xmlns="http://www.w3.org/2000/svg">
<circle cx="67.5" cy="67.5" r="67.5" fill="white"/>
<path d="M58.3159 51.3506H43.2331C42.7323 51.3506 42.3281 50.9464 42.3281 50.4456C42.3281 49.9449 42.7323 49.5406 43.2331 49.5406H58.3159C58.8166 49.5406 59.2209 49.9449 59.2209 50.4456C59.2209 50.9464 58.8166 51.3506 58.3159 51.3506Z" fill="#283C93"/>
<path d="M73.0974 49.5406H58.0146V63.4168H73.0974V49.5406Z" fill="#283C93"/>
<path d="M58.0144 63.417H42.9316V76.0865H58.0144V63.417Z" fill="#283C93"/>
<path d="M66.709 38.6815H49.3216C48.7918 38.6815 48.3623 39.111 48.3623 39.6408V44.3587C48.3623 44.8885 48.7918 45.318 49.3216 45.318H66.709C67.2388 45.318 67.6683 44.8885 67.6683 44.3587V39.6408C67.6683 39.111 67.2388 38.6815 66.709 38.6815Z" fill="#00E0E3"/>
<path d="M49.8701 77.2935H44.9471C42.8415 77.2935 41.1221 75.5801 41.1221 73.4685V36.4734C41.1221 34.3679 42.8355 32.6484 44.9471 32.6484H71.0886C73.1941 32.6484 74.9136 34.3618 74.9136 36.4734V62.5124C74.9136 63.0131 74.5093 63.4173 74.0086 63.4173C73.5078 63.4173 73.1036 63.0131 73.1036 62.5124V36.4734C73.1036 35.3633 72.1987 34.4584 71.0886 34.4584H44.9471C43.837 34.4584 42.932 35.3633 42.932 36.4734V73.4746C42.932 74.5846 43.837 75.4896 44.9471 75.4896H49.8701C50.3708 75.4896 50.7751 75.8938 50.7751 76.3946C50.7751 76.8953 50.3708 77.2996 49.8701 77.2996V77.2935Z" fill="#252D32"/>
<path d="M50.4733 60.4006C49.9726 60.4006 49.5684 59.9964 49.5684 59.4956V54.6691C49.5684 54.1684 49.9726 53.7642 50.4733 53.7642C50.9741 53.7642 51.3783 54.1684 51.3783 54.6691V59.4956C51.3783 59.9964 50.9741 60.4006 50.4733 60.4006Z" fill="#252D32"/>
<path d="M52.8867 57.9874H48.0602C47.5595 57.9874 47.1553 57.5832 47.1553 57.0825C47.1553 56.5817 47.5595 56.1775 48.0602 56.1775H52.8867C53.3875 56.1775 53.7917 56.5817 53.7917 57.0825C53.7917 57.5832 53.3875 57.9874 52.8867 57.9874Z" fill="#252D32"/>
<path d="M67.2636 59.6948C67.0343 59.6948 66.7991 59.6043 66.6241 59.4294L63.2093 56.0146C62.8534 55.6587 62.8534 55.0855 63.2093 54.7356C63.5653 54.3796 64.1384 54.3796 64.4884 54.7356L67.9031 58.1503C68.2591 58.5063 68.2591 59.0794 67.9031 59.4294C67.7282 59.6043 67.4929 59.6948 67.2636 59.6948Z" fill="#252D32"/>
<path d="M63.8489 59.6948C63.6196 59.6948 63.3843 59.6043 63.2093 59.4294C62.8534 59.0734 62.8534 58.5003 63.2093 58.1503L66.6241 54.7356C66.98 54.3796 67.5532 54.3796 67.9031 54.7356C68.2591 55.0915 68.2591 55.6647 67.9031 56.0146L64.4884 59.4294C64.3134 59.6043 64.0781 59.6948 63.8489 59.6948Z" fill="#252D32"/>
<path d="M52.8867 70.6575H48.0602C47.5595 70.6575 47.1553 70.2533 47.1553 69.7525C47.1553 69.2518 47.5595 68.8475 48.0602 68.8475H52.8867C53.3875 68.8475 53.7917 69.2518 53.7917 69.7525C53.7917 70.2533 53.3875 70.6575 52.8867 70.6575Z" fill="#252D32"/>
<path d="M67.9697 68.8473H63.1432C62.6425 68.8473 62.2383 68.4431 62.2383 67.9423C62.2383 67.4416 62.6425 67.0374 63.1432 67.0374H67.9697C68.4705 67.0374 68.8747 67.4416 68.8747 67.9423C68.8747 68.4431 68.4705 68.8473 67.9697 68.8473Z" fill="#252D32"/>
<path d="M67.9697 72.4669H63.1432C62.6425 72.4669 62.2383 72.0627 62.2383 71.562C62.2383 71.0612 62.6425 70.657 63.1432 70.657H67.9697C68.4705 70.657 68.8747 71.0612 68.8747 71.562C68.8747 72.0627 68.4705 72.4669 67.9697 72.4669Z" fill="#252D32"/>
<path d="M42.3407 103.224C42.0692 103.224 41.7977 103.104 41.6167 102.868C41.315 102.47 41.3935 101.903 41.7917 101.601L44.953 99.2002L34.3589 85.8067L31.0708 88.3949C30.6787 88.7026 30.1115 88.6362 29.7978 88.2441C29.4901 87.8519 29.5565 87.2848 29.9486 86.9711L33.9486 83.8278C34.3408 83.5202 34.9079 83.5865 35.2156 83.9787L46.9379 98.802C47.0887 98.9951 47.1551 99.2364 47.1249 99.4777C47.0948 99.7191 46.9681 99.9363 46.775 100.087L42.8776 103.049C42.7147 103.176 42.5217 103.236 42.3286 103.236L42.3407 103.224Z" fill="#252D32"/>
<path d="M45.8947 98.7774C45.5991 98.7774 45.3095 98.6326 45.1345 98.3671C44.863 97.9509 44.9837 97.3898 45.4 97.1183C47.3547 95.8513 49.406 95.1696 51.4874 95.0912C53.8101 95.0007 55.8373 94.9826 57.6231 94.9645C61.3938 94.9283 64.1207 94.8981 66.0755 94.2465C71.4027 92.4728 91.5714 82.6509 94.8957 79.9903C95.0887 79.8394 95.1189 79.7429 95.1189 79.7429C95.0224 79.3689 93.2426 78.488 90.9379 78.9103C83.7525 80.2135 77.1221 82.85 77.0557 82.8741C76.5912 83.0611 76.0663 82.8319 75.8793 82.3673C75.6923 81.9028 75.9215 81.3779 76.3861 81.1909C76.6636 81.0823 83.2517 78.4639 90.6182 77.1245C93.315 76.6298 96.0721 77.4745 96.7659 79.0008C97.146 79.8334 96.8685 80.7323 96.0359 81.396C92.5247 84.2074 72.2292 94.1017 66.6607 95.9539C64.4345 96.696 61.5929 96.7261 57.6532 96.7623C55.8795 96.7804 53.8644 96.7985 51.5658 96.889C49.8102 96.9554 48.0726 97.5406 46.3954 98.6266C46.2446 98.7231 46.0757 98.7714 45.9067 98.7714L45.8947 98.7774Z" fill="#252D32"/>
<path d="M35.9511 85.9271C35.6796 85.9271 35.4202 85.8064 35.2392 85.5832C34.9315 85.191 34.9979 84.6239 35.39 84.3102C37.4051 82.7295 38.9194 81.4083 39.758 80.4973C42.7505 77.2635 46.3643 75.4838 49.9419 75.4838H69.8995C71.993 75.4838 73.7969 76.9076 74.189 78.8683C74.4424 80.1413 74.1227 81.4445 73.3142 82.4339C72.5058 83.4233 71.3052 83.9905 70.0262 83.9905L59.3717 84.6601C58.8649 84.6963 58.4426 84.3102 58.4124 83.8155C58.3823 83.3148 58.7624 82.8864 59.2571 82.8562L69.9659 82.1866C70.7562 82.1866 71.444 81.8608 71.9145 81.2876C72.3912 80.7084 72.5661 79.9784 72.4153 79.2243C72.1921 78.1082 71.1363 77.2997 69.8995 77.2997H49.9419C46.8771 77.2997 43.7339 78.8744 41.0913 81.7341C40.1743 82.7295 38.6298 84.0749 36.5062 85.7401C36.3433 85.8728 36.1442 85.9331 35.9511 85.9331V85.9271Z" fill="#252D32"/>
<path d="M73.5562 71.864H89.5319C90.1184 71.864 90.5938 71.3886 90.5938 70.8022V68.0993C90.5938 67.5129 90.1184 67.0375 89.5319 67.0375H73.5562C72.9698 67.0375 72.4944 67.5129 72.4944 68.0993V70.8022C72.4944 71.3886 72.9698 71.864 73.5562 71.864Z" fill="#00E0E3"/>
<path d="M77.7789 77.2933H93.7546C94.341 77.2933 94.8164 76.8179 94.8164 76.2315V73.5287C94.8164 72.9422 94.341 72.4668 93.7546 72.4668H77.7789C77.1924 72.4668 76.717 72.9422 76.717 73.5287V76.2315C76.717 76.8179 77.1924 77.2933 77.7789 77.2933Z" fill="#00E0E3"/>
<path d="M89.0851 62.8142C82.9313 62.8142 77.9238 57.8068 77.9238 51.653C77.9238 45.4992 82.9313 40.4917 89.0851 40.4917C95.2389 40.4917 100.246 45.4992 100.246 51.653C100.246 57.8068 95.2389 62.8142 89.0851 62.8142ZM89.0851 42.3016C83.9268 42.3016 79.7338 46.4947 79.7338 51.653C79.7338 56.8113 83.9268 61.0043 89.0851 61.0043C94.2434 61.0043 98.4364 56.8113 98.4364 51.653C98.4364 46.4947 94.2434 42.3016 89.0851 42.3016Z" fill="#00E0E3"/>
<path d="M89.0856 47.7313C88.5849 47.7313 88.1807 47.3271 88.1807 46.8264V45.0164C88.1807 44.5157 88.5849 44.1115 89.0856 44.1115C89.5864 44.1115 89.9906 44.5157 89.9906 45.0164V46.8264C89.9906 47.3271 89.5864 47.7313 89.0856 47.7313Z" fill="#252D32"/>
<path d="M89.0856 59.1936C88.5849 59.1936 88.1807 58.7894 88.1807 58.2886V56.4787C88.1807 55.9779 88.5849 55.5737 89.0856 55.5737C89.5864 55.5737 89.9906 55.9779 89.9906 56.4787V58.2886C89.9906 58.7894 89.5864 59.1936 89.0856 59.1936Z" fill="#252D32"/>
<path d="M89.1277 57.2093C87.2333 57.2093 85.9965 55.9423 85.6526 55.5441C85.3268 55.164 85.369 54.5909 85.7491 54.2651C86.1292 53.9393 86.7023 53.9815 87.0281 54.3616C87.185 54.5426 87.9995 55.4476 89.2121 55.3933C89.8335 55.3692 90.8471 55.0977 91.0945 54.4461C91.2453 54.0358 91.1246 53.4325 90.7988 53.0162C90.4248 52.5396 89.8758 52.425 89.013 52.2802C88.096 52.1294 86.9557 51.9363 86.2318 50.8745C85.6285 49.9937 85.5259 48.8051 85.9542 47.8579C86.5998 46.4462 88.277 45.9454 89.556 46.0721C91.0884 46.229 92.0055 47.2546 92.3312 47.689C92.6329 48.0872 92.5484 48.6543 92.1503 48.956C91.7521 49.2576 91.185 49.1732 90.8833 48.775C90.7385 48.5879 90.2136 47.9605 89.375 47.876C88.6993 47.8097 87.8547 48.0631 87.6013 48.6121C87.4565 48.9318 87.4505 49.4627 87.728 49.8609C88.0055 50.2651 88.4882 50.3677 89.3147 50.5004C90.2438 50.6573 91.4021 50.8504 92.2287 51.9062C92.9466 52.8292 93.1699 54.072 92.7898 55.0796C92.2287 56.5758 90.5515 57.161 89.2785 57.2032C89.2302 57.2032 89.1759 57.2032 89.1277 57.2032V57.2093Z" fill="#252D32"/>
<path d="M92.736 73.0699H73.967C72.4888 73.0699 71.2822 71.8632 71.2822 70.3851V68.5088C71.2822 67.0307 72.4888 65.8241 73.967 65.8241H92.736C94.2141 65.8241 95.4207 67.0307 95.4207 68.5088V70.3851C95.4207 71.8632 94.2141 73.0699 92.736 73.0699ZM73.967 67.6401C73.4843 67.6401 73.0922 68.0322 73.0922 68.5149V70.3912C73.0922 70.8738 73.4843 71.266 73.967 71.266H92.736C93.2186 71.266 93.6108 70.8738 93.6108 70.3912V68.5149C93.6108 68.0322 93.2186 67.6401 92.736 67.6401H73.967Z" fill="#252D32"/>
<path d="M96.9586 78.5004H78.1896C76.7115 78.5004 75.5049 77.2938 75.5049 75.8157V73.9394C75.5049 72.4613 76.7115 71.2546 78.1896 71.2546H96.9586C98.4368 71.2546 99.6434 72.4613 99.6434 73.9394V75.8157C99.6434 77.2938 98.4368 78.5004 96.9586 78.5004ZM78.1896 73.0706C77.707 73.0706 77.3148 73.4628 77.3148 73.9454V75.8217C77.3148 76.3044 77.707 76.6965 78.1896 76.6965H96.9586C97.4413 76.6965 97.8334 76.3044 97.8334 75.8217V73.9454C97.8334 73.4628 97.4413 73.0706 96.9586 73.0706H78.1896Z" fill="#252D32"/>
</svg>
