<svg width="217" height="200" viewBox="0 0 217 200" fill="none" xmlns="http://www.w3.org/2000/svg">
<path d="M99.9373 200C155.131 200 199.875 155.228 199.875 100C199.875 44.7715 155.131 0 99.9373 0C44.7434 0 0 44.7715 0 100C0 155.228 44.7434 200 99.9373 200Z" fill="white"/>
<mask id="mask0_638_10666" style="mask-type:luminance" maskUnits="userSpaceOnUse" x="0" y="0" width="200" height="200">
<path d="M99.9373 200C155.131 200 199.875 155.228 199.875 100C199.875 44.7715 155.131 0 99.9373 0C44.7434 0 0 44.7715 0 100C0 155.228 44.7434 200 99.9373 200Z" fill="white"/>
</mask>
<g mask="url(#mask0_638_10666)">
<path d="M105.161 131.203C105.161 131.203 137.217 125.843 145.155 119.487C153.093 113.131 145.872 86.7112 145.872 86.7112L141.468 59.3034L157.538 56.9399L163.241 101.221L155.877 120.88L94.7517 103.205L96.5401 133.212L105.17 131.203H105.161Z" fill="#1450EC"/>
<path d="M141.46 59.2945L138.423 53.5716L136.846 51.6217L151.33 48.9966L149.896 58.0537L141.46 59.2945Z" fill="#E87D72"/>
<path d="M106.165 156.719H115.79L114.744 160.096L97.7797 186.668L54.0408 166.503L41.3958 156.264L106.165 156.719Z" fill="#0F0F0F"/>
<path d="M91.5635 180.917C91.5635 180.917 134.113 100.888 154.907 111.769C175.701 122.649 158.433 217.407 158.433 217.407H117.798L91.5635 180.917Z" fill="#0F0F0F"/>
<path d="M99.5602 180.14C99.5602 180.14 113.175 185.973 117.967 179.093C122.767 172.214 137.698 146.039 137.698 146.039C137.698 146.039 124.201 185.171 121.324 197.976L99.5518 180.14H99.5602Z" fill="#0F0F0F"/>
<path d="M120.303 203.724L119.476 203.555C123.593 182.959 138.22 143.388 138.372 142.991L139.165 143.287C139.022 143.683 124.411 183.195 120.311 203.724H120.303Z" fill="#2C272B"/>
<path d="M14.9418 232.657H-29.4129C-29.4129 232.657 -33.8079 231.577 -27.6583 225.82C-23.2127 221.658 -6.55224 202.312 2.35581 191.887C5.43483 188.291 10.9264 188.097 14.2417 191.482L17.2785 194.571L14.9334 232.665L14.9418 232.657Z" fill="#352E31"/>
<path d="M119.889 204.06C119.889 204.06 119.83 204.06 119.805 204.06C119.577 204.018 119.425 203.79 119.476 203.562C123.593 182.966 138.22 143.395 138.372 142.998C138.456 142.779 138.692 142.669 138.912 142.754C139.131 142.838 139.241 143.074 139.156 143.294C139.013 143.691 124.402 183.203 120.303 203.731C120.261 203.934 120.083 204.069 119.889 204.069V204.06Z" fill="#2962F6"/>
<path d="M27.2404 232.657H14.9412L17.2863 194.563H24.6675L33.2634 194.664C33.3562 194.664 33.4574 194.664 33.5502 194.664C27.0042 192.199 28.0417 183.277 28.1345 182.551C28.4888 181.218 28.9022 179.799 29.3661 178.289C31.0195 172.979 33.8539 164.353 37.321 157.414C37.321 157.414 123.576 182.838 127.675 205.696C131.775 228.554 84.9234 237.637 27.2319 232.657H27.2404Z" fill="#3D3D3D"/>
<path d="M14.9418 232.657H-29.4129C-29.4129 232.657 -33.8079 231.577 -27.6583 225.82C-23.2127 221.658 -6.55224 202.312 2.35581 191.887C5.43483 188.291 10.9264 188.097 14.2417 191.482L17.2785 194.571L14.9334 232.665L14.9418 232.657Z" fill="#352E31"/>
<path d="M37.3302 157.422L74.0591 156.628L86.6872 175.435L37.1699 160.832L37.3302 157.422Z" fill="#3D3D3D"/>
<path d="M96.8944 198.758C96.2618 198.656 76.2355 195.474 33.5511 194.672C27.005 192.208 28.0426 183.285 28.1354 182.56C28.4897 181.226 28.903 179.808 29.367 178.297C29.367 178.297 30.8095 190.697 40.4683 191.473C50.1271 192.258 83.5998 194.225 96.8776 198.749L96.8944 198.758Z" fill="#0F0F0F"/>
<path d="M98.109 199.38C98.109 199.38 98.0584 199.38 98.0415 199.38C79.4493 196.24 46.5418 195.337 33.2557 195.092C33.0195 195.092 32.8339 194.898 32.8423 194.662C32.8423 194.434 33.0363 194.248 33.2641 194.248C46.5671 194.493 79.5168 195.396 98.1681 198.544C98.3958 198.587 98.5561 198.798 98.5139 199.034C98.4802 199.237 98.3031 199.389 98.1006 199.389L98.109 199.38Z" fill="#2962F6"/>
<path d="M122.639 65.4241C120.8 65.7533 118.953 66.0825 117.114 66.4117C114.507 66.8759 111.302 65.2975 110.5 62.723C109.707 60.2413 109.252 57.6584 109.134 55.0586C109.007 52.3659 111.471 49.7746 114.069 49.3103C115.908 48.9811 117.755 48.6519 119.594 48.3227C122.209 47.8585 124.023 49.6817 124.149 52.3744C124.267 54.9826 124.723 57.5571 125.516 60.0388C126.326 62.6048 125.254 64.9514 122.639 65.4156V65.4241Z" fill="#2962F6"/>
<path d="M176.594 67.1222C158.82 68.1604 141.156 69.1565 123.585 70.1272C120.978 70.5914 118.009 68.9285 117.216 66.3625C115.562 61.0531 114.584 55.5496 114.297 49.987C114.153 47.3028 116.372 44.7114 118.979 44.2472C135.799 39.0813 152.73 33.907 169.761 28.7412C172.376 28.2769 174.215 30.1002 174.089 32.7928C173.616 42.7363 175.379 52.6544 179.26 61.8213C180.306 64.3113 179.209 66.6579 176.594 67.1222Z" fill="#3D3D3D"/>
<path d="M184.827 70.7617C179.277 70.7111 173.751 70.652 168.243 70.5845C165.695 71.0403 162.667 69.4534 161.697 66.9971C157.606 56.6738 155.64 45.6246 155.91 34.5247C155.969 31.8827 158.264 29.3589 160.811 28.9031C165.957 26.9363 171.128 24.9696 176.316 23.0028C178.872 22.547 180.677 24.3281 180.517 26.9701C179.673 40.2139 182.035 53.4578 187.392 65.5959C188.455 68.0184 187.383 70.3144 184.819 70.7702L184.827 70.7617Z" fill="#2962F6"/>
<path d="M187.079 70.8937C181.411 70.8431 175.759 70.7755 170.124 70.708C167.517 71.1723 164.43 69.5516 163.434 67.0446C159.25 56.4935 157.242 45.1995 157.521 33.8548C157.588 31.1622 159.925 28.5708 162.532 28.1065C167.795 26.0976 173.076 24.0802 178.374 22.0712C180.989 21.607 182.836 23.4302 182.668 26.1229C181.807 39.6538 184.22 53.193 189.694 65.6012C190.783 68.0744 189.686 70.421 187.071 70.8853L187.079 70.8937Z" fill="#0F0F0F"/>
<path d="M195.338 44.2383C197.751 57.7691 195.676 69.4514 190.699 70.3377C185.73 71.224 179.749 60.9767 177.337 47.4458C174.924 33.915 176.999 22.2327 181.976 21.3464C186.945 20.4601 192.926 30.7074 195.338 44.2383Z" fill="#2962F6"/>
<path d="M193.66 44.5367C195.76 56.3456 194.191 66.5085 190.142 67.2344C186.667 67.8506 182.5 61.3089 180.062 51.9732C179.665 50.4369 179.302 48.8247 179.007 47.1534C178.712 45.4821 178.484 43.853 178.332 42.2661C177.396 32.6603 179.049 25.0803 182.525 24.4557C186.574 23.7382 191.559 32.7194 193.66 44.5367Z" fill="#3D3D3D"/>
<path d="M191.854 44.8549C192.571 48.8644 189.897 52.6966 185.89 53.4141C184.414 53.6757 182.955 53.4816 181.672 52.9245C181.563 52.5362 181.453 52.1395 181.352 51.7428C180.955 50.2065 180.593 48.5943 180.297 46.923C180.002 45.2517 179.774 43.6226 179.623 42.0357C179.58 41.6221 179.547 41.2169 179.513 40.8117C180.525 39.8495 181.824 39.1573 183.301 38.8956C187.307 38.1782 191.137 40.8539 191.854 44.8634V44.8549Z" fill="#2962F6"/>
<path d="M190.091 70.8129C187.687 70.8129 185.081 68.6098 182.693 64.5075C180.146 60.1435 178.096 54.1082 176.923 47.5158C175.751 40.9234 175.59 34.5505 176.476 29.5788C177.387 24.4636 179.311 21.3911 181.9 20.9268C184.49 20.471 187.358 22.6825 189.982 27.1731C192.529 31.5371 194.579 37.5724 195.752 44.1648C196.924 50.7572 197.085 57.1301 196.199 62.1018C195.288 67.217 193.364 70.2895 190.775 70.7538C190.547 70.796 190.319 70.8129 190.091 70.8129ZM182.567 21.7118C182.39 21.7118 182.221 21.7287 182.044 21.754C179.859 22.1423 178.13 25.046 177.303 29.7223C176.434 34.6012 176.594 40.8728 177.75 47.3639C178.906 53.8634 180.922 59.7974 183.419 64.077C185.815 68.1793 188.438 70.3064 190.623 69.9181C192.808 69.5298 194.537 66.6261 195.364 61.9499C196.233 57.071 196.072 50.7994 194.917 44.3083C193.761 37.8172 191.745 31.8747 189.248 27.5952C187.046 23.8136 184.642 21.7118 182.567 21.7118Z" fill="#3D3D3D"/>
<path d="M155.48 61.9247C155.48 61.9247 151.735 46.5875 156.501 48.225C156.501 48.225 156.307 36.146 159.782 37.0323C164.894 38.3407 162.811 62.4649 162.811 62.4649L155.48 61.9247Z" fill="#F7B49F"/>
<path d="M121.257 109.589L112.247 135.275V157.914L37.3386 157.424C37.3386 157.424 39.9452 70.3135 82.6381 67.165L121.265 109.598L121.257 109.589Z" fill="#2962F6"/>
<path d="M108.181 103.999C108.181 103.999 100.934 143.317 90.8115 157.911H112.247V135.273L119.096 115.318L108.181 103.999Z" fill="#1450EC"/>
<path d="M85.6065 103.206C85.6065 103.206 145.339 134.184 157.057 133.197C168.774 132.209 174.324 123.464 174.915 96.8582C175.514 70.2439 174.915 63.0944 174.915 63.0944L148.916 60.9082L144.352 99.4327C144.352 99.4327 119.94 84.5429 110.213 78.381C100.487 72.2275 89.3772 70.6322 76.6731 74.6079L77.6685 98.6393L85.6065 103.206Z" fill="#2962F6"/>
<path d="M149.095 60.9025C149.095 60.9025 145.349 45.5653 150.115 47.2028C150.115 47.2028 151.482 36.179 154.207 38.2639C156.931 40.3488 160.466 61.9239 160.466 61.9239L149.095 60.9025Z" fill="#F7B49F"/>
<path d="M160.465 61.9247C160.465 61.9247 156.719 46.5875 161.485 48.225C161.485 48.225 161.291 36.146 164.767 37.0323C169.879 38.3407 167.795 62.4649 167.795 62.4649L160.465 61.9247Z" fill="#F7B49F"/>
<path d="M167.796 62.4649C167.796 62.4649 163.022 46.5875 167.796 48.225C167.796 48.225 167.602 36.146 171.078 37.0323C176.19 38.3407 174.924 63.0896 174.924 63.0896L167.805 62.4649H167.796Z" fill="#F7B49F"/>
<path d="M76.6829 74.61L82.8156 67.165L100.784 74.0107L76.6829 74.61Z" fill="#2962F6"/>
<path d="M143.594 109.298C143.594 109.298 143.569 109.298 143.561 109.298C143.324 109.281 143.156 109.079 143.173 108.842L143.94 99.3968C143.957 99.1604 144.168 98.9916 144.396 99.0085C144.632 99.0254 144.801 99.2279 144.784 99.4643L144.016 108.91C143.999 109.129 143.814 109.298 143.594 109.298Z" fill="#2A2628"/>
<path d="M119.391 120.346C119.332 120.346 119.265 120.329 119.206 120.303L88.5504 105.194C88.3395 105.093 88.2552 104.839 88.3564 104.628C88.4576 104.417 88.7107 104.333 88.9216 104.434L119.577 119.544C119.788 119.645 119.872 119.898 119.771 120.109C119.695 120.261 119.551 120.346 119.391 120.346Z" fill="#2A2628"/>
<path d="M195.904 24.782C195.803 24.782 195.702 24.7483 195.626 24.6807C195.449 24.5288 195.432 24.2587 195.592 24.0814L204.188 14.3068C204.34 14.1295 204.61 14.1127 204.787 14.273C204.964 14.425 204.981 14.6951 204.821 14.8723L196.225 24.647C196.14 24.7398 196.022 24.7905 195.904 24.7905V24.782Z" fill="#2A2628"/>
<path d="M125.499 66.2769C121.948 57.9541 121.585 46.9134 121.585 46.8036L122.429 46.7783C122.429 46.8881 122.792 57.7684 126.275 65.9477L125.499 66.2769Z" fill="#2962F6"/>
</g>
<path d="M105.161 131.203C105.161 131.203 137.217 125.843 145.155 119.487C153.092 113.131 145.872 86.7112 145.872 86.7112L141.468 59.3034L157.538 56.9399L163.241 101.221L155.876 120.88L94.7515 103.205L96.5398 133.212L105.169 131.203H105.161Z" fill="#1450EC"/>
<path d="M141.46 59.2945L138.423 53.5716L136.845 51.6217L151.329 48.9966L149.895 58.0537L141.46 59.2945Z" fill="#E87D72"/>
<path d="M37.3302 157.422L74.0591 156.628L86.6872 175.435L37.1699 160.832L37.3302 157.422Z" fill="#3D3D3D"/>
<path d="M122.64 65.4241C120.801 65.7533 118.954 66.0825 117.115 66.4117C114.508 66.8759 111.303 65.2975 110.501 62.723C109.708 60.2413 109.253 57.6584 109.135 55.0586C109.008 52.3659 111.471 49.7746 114.07 49.3103C115.909 48.9811 117.756 48.6519 119.595 48.3227C122.21 47.8585 124.024 49.6817 124.15 52.3744C124.268 54.9826 124.724 57.5571 125.517 60.0388C126.327 62.6048 125.255 64.9514 122.64 65.4156V65.4241Z" fill="#2962F6"/>
<path d="M176.594 67.1222C158.82 68.1604 141.156 69.1565 123.585 70.1272C120.978 70.5914 118.009 68.9285 117.216 66.3625C115.562 61.0531 114.584 55.5496 114.297 49.987C114.153 47.3028 116.372 44.7114 118.979 44.2472C135.799 39.0813 152.73 33.907 169.761 28.7412C172.376 28.2769 174.215 30.1002 174.089 32.7928C173.616 42.7363 175.379 52.6544 179.26 61.8213C180.306 64.3113 179.209 66.6579 176.594 67.1222Z" fill="#3D3D3D"/>
<path d="M184.828 70.7617C179.277 70.7111 173.752 70.652 168.244 70.5845C165.696 71.0403 162.668 69.4534 161.698 66.9971C157.606 56.6738 155.641 45.6246 155.911 34.5247C155.97 31.8827 158.264 29.3589 160.812 28.9031C165.958 26.9363 171.129 24.9696 176.317 23.0028C178.873 22.547 180.678 24.3281 180.518 26.9701C179.674 40.2139 182.036 53.4578 187.393 65.5959C188.455 68.0184 187.384 70.3144 184.82 70.7702L184.828 70.7617Z" fill="#2962F6"/>
<path d="M187.08 70.8937C181.412 70.8431 175.76 70.7755 170.125 70.708C167.518 71.1723 164.431 69.5516 163.435 67.0446C159.251 56.4935 157.243 45.1995 157.522 33.8548C157.589 31.1622 159.926 28.5708 162.533 28.1065C167.796 26.0976 173.077 24.0802 178.375 22.0712C180.99 21.607 182.837 23.4302 182.669 26.1229C181.808 39.6538 184.221 53.193 189.695 65.6012C190.784 68.0744 189.687 70.421 187.072 70.8853L187.08 70.8937Z" fill="#0F0F0F"/>
<path d="M195.338 44.2383C197.751 57.7691 195.676 69.4514 190.699 70.3377C185.73 71.224 179.749 60.9767 177.337 47.4458C174.924 33.915 176.999 22.2327 181.976 21.3464C186.945 20.4601 192.926 30.7074 195.338 44.2383Z" fill="#2962F6"/>
<path d="M193.66 44.5367C195.76 56.3456 194.191 66.5085 190.142 67.2344C186.667 67.8506 182.499 61.3089 180.061 51.9732C179.665 50.4369 179.302 48.8247 179.007 47.1534C178.712 45.4821 178.484 43.853 178.332 42.2661C177.396 32.6603 179.049 25.0803 182.525 24.4557C186.574 23.7382 191.559 32.7194 193.66 44.5367Z" fill="#3D3D3D"/>
<path d="M191.855 44.8549C192.572 48.8644 189.898 52.6966 185.891 53.4141C184.415 53.6757 182.956 53.4816 181.673 52.9245C181.564 52.5362 181.454 52.1395 181.353 51.7428C180.956 50.2065 180.594 48.5943 180.298 46.923C180.003 45.2517 179.775 43.6226 179.624 42.0357C179.581 41.6221 179.548 41.2169 179.514 40.8117C180.526 39.8495 181.825 39.1573 183.302 38.8956C187.308 38.1782 191.138 40.8539 191.855 44.8634V44.8549Z" fill="#2962F6"/>
<path d="M190.092 70.8129C187.688 70.8129 185.082 68.6098 182.694 64.5075C180.147 60.1435 178.097 54.1082 176.924 47.5158C175.752 40.9234 175.591 34.5505 176.477 29.5788C177.388 24.4636 179.312 21.3911 181.901 20.9268C184.491 20.471 187.359 22.6825 189.983 27.1731C192.53 31.5371 194.58 37.5724 195.753 44.1648C196.925 50.7572 197.086 57.1301 196.2 62.1018C195.289 67.217 193.365 70.2895 190.776 70.7538C190.548 70.796 190.32 70.8129 190.092 70.8129ZM182.568 21.7118C182.391 21.7118 182.222 21.7287 182.045 21.754C179.86 22.1423 178.131 25.046 177.304 29.7223C176.435 34.6012 176.595 40.8728 177.751 47.3639C178.907 53.8634 180.923 59.7974 183.42 64.077C185.816 68.1793 188.439 70.3064 190.624 69.9181C192.809 69.5298 194.538 66.6261 195.365 61.9499C196.234 57.071 196.073 50.7994 194.918 44.3083C193.762 37.8172 191.746 31.8747 189.249 27.5952C187.047 23.8136 184.643 21.7118 182.568 21.7118Z" fill="#3D3D3D"/>
<path d="M155.481 61.9247C155.481 61.9247 151.736 46.5875 156.502 48.225C156.502 48.225 156.308 36.146 159.783 37.0323C164.895 38.3407 162.812 62.4649 162.812 62.4649L155.481 61.9247Z" fill="#F7B49F"/>
<path d="M121.257 109.589L112.247 135.275V157.914L37.3386 157.424C37.3386 157.424 39.9452 70.3135 82.6381 67.165L121.265 109.598L121.257 109.589Z" fill="#2962F6"/>
<path d="M108.181 103.999C108.181 103.999 100.934 143.317 90.8115 157.911H112.247V135.273L119.096 115.318L108.181 103.999Z" fill="#1450EC"/>
<path d="M85.6072 103.205C85.6072 103.205 145.34 134.184 157.057 133.196C168.774 132.208 174.325 123.464 174.916 96.8577C175.514 70.2434 174.916 63.0939 174.916 63.0939L148.917 60.9077L144.353 99.4322C144.353 99.4322 119.94 84.5424 110.214 78.3805C100.488 72.227 89.3779 70.6317 76.6738 74.6074L77.6692 98.6388L85.6072 103.205Z" fill="#2962F6"/>
<path d="M149.094 60.9025C149.094 60.9025 145.349 45.5653 150.115 47.2028C150.115 47.2028 151.482 36.179 154.207 38.2639C156.931 40.3488 160.466 61.9239 160.466 61.9239L149.094 60.9025Z" fill="#F7B49F"/>
<path d="M160.466 61.9247C160.466 61.9247 156.72 46.5875 161.486 48.225C161.486 48.225 161.292 36.146 164.768 37.0323C169.88 38.3407 167.796 62.4649 167.796 62.4649L160.466 61.9247Z" fill="#F7B49F"/>
<path d="M167.797 62.4649C167.797 62.4649 163.023 46.5875 167.797 48.225C167.797 48.225 167.603 36.146 171.079 37.0323C176.191 38.3407 174.925 63.0896 174.925 63.0896L167.806 62.4649H167.797Z" fill="#F7B49F"/>
<path d="M76.6829 74.61L82.8156 67.165L100.784 74.0107L76.6829 74.61Z" fill="#2962F6"/>
<path d="M143.594 109.298C143.594 109.298 143.569 109.298 143.561 109.298C143.324 109.281 143.156 109.079 143.173 108.842L143.94 99.3968C143.957 99.1604 144.168 98.9916 144.396 99.0085C144.632 99.0254 144.801 99.2279 144.784 99.4643L144.016 108.91C143.999 109.129 143.814 109.298 143.594 109.298Z" fill="#2A2628"/>
<path d="M119.392 120.346C119.333 120.346 119.266 120.329 119.207 120.303L88.5514 105.194C88.3405 105.093 88.2562 104.839 88.3574 104.628C88.4586 104.417 88.7117 104.333 88.9226 104.434L119.578 119.544C119.789 119.645 119.873 119.898 119.772 120.109C119.696 120.261 119.552 120.346 119.392 120.346Z" fill="#2A2628"/>
<path d="M195.904 24.782C195.803 24.782 195.702 24.7483 195.626 24.6807C195.449 24.5288 195.432 24.2587 195.592 24.0814L204.188 14.3068C204.34 14.1295 204.61 14.1127 204.787 14.273C204.964 14.425 204.981 14.6951 204.821 14.8723L196.225 24.647C196.14 24.7398 196.022 24.7905 195.904 24.7905V24.782Z" fill="#2A2628"/>
<path d="M200.763 42.5681C200.569 42.5681 200.4 42.433 200.35 42.2389C200.299 42.011 200.442 41.7831 200.67 41.7324L216.301 38.1703C216.538 38.1197 216.757 38.2632 216.807 38.4911C216.858 38.719 216.715 38.9469 216.487 38.9975L200.856 42.5596C200.856 42.5596 200.788 42.5681 200.763 42.5681Z" fill="#2A2628"/>
<path d="M215.07 62.7678C215.07 62.7678 215.011 62.7678 214.977 62.7593L201.977 59.8725C201.75 59.8219 201.606 59.594 201.657 59.3661C201.708 59.1382 201.927 58.9947 202.163 59.0453L215.162 61.9321C215.39 61.9828 215.534 62.2107 215.483 62.4386C215.441 62.6327 215.264 62.7678 215.07 62.7678Z" fill="#2A2628"/>
<path d="M200.762 33.0374C200.602 33.0374 200.45 32.9445 200.374 32.7841C200.282 32.5731 200.374 32.3199 200.585 32.227L209.426 28.2767C209.637 28.1838 209.89 28.2767 209.983 28.4877C210.075 28.6987 209.983 28.952 209.772 29.0448L200.931 32.9952C200.872 33.0205 200.813 33.0289 200.762 33.0289V33.0374Z" fill="#2A2628"/>
<path d="M213.004 51.5249H212.987L204.484 51.1028C204.247 51.0944 204.07 50.8918 204.087 50.6639C204.095 50.436 204.298 50.2503 204.526 50.2672L213.029 50.6892C213.265 50.6977 213.442 50.9002 213.425 51.1282C213.417 51.3561 213.231 51.5333 213.004 51.5333V51.5249Z" fill="#2A2628"/>
<path d="M208.573 71.1834C208.514 71.1834 208.447 71.1665 208.388 71.1412L201.259 67.7057C201.049 67.6044 200.964 67.3512 201.065 67.1402C201.167 66.9292 201.42 66.8448 201.631 66.946L208.759 70.3815C208.97 70.4828 209.054 70.736 208.953 70.9471C208.877 71.099 208.733 71.1834 208.573 71.1834Z" fill="#2A2628"/>
<path d="M125.5 66.2769C121.949 57.9541 121.586 46.9134 121.586 46.8036L122.43 46.7783C122.43 46.8881 122.792 57.7684 126.276 65.9477L125.5 66.2769Z" fill="#2962F6"/>
<path d="M89.7749 38.2651L92.9298 65.0904H101.652C101.433 63.5289 101.45 62.0601 101.627 62.0601C101.813 63.3094 102.158 64.297 102.572 65.0904H104.014C103.415 63.1068 103.348 60.2622 103.593 60.2538C103.964 62.7776 105.027 64.2801 105.853 65.0904H110.501C110.501 65.0904 106.908 63.3432 106.418 52.505C105.82 38.4339 96.7934 32.2804 89.7749 38.2651Z" fill="#2A2628"/>
<path d="M78.353 66.1673C79.0447 65.357 80.0063 63.922 80.251 61.9806C80.251 61.9806 80.1497 64.1753 79.3821 66.1673H90.5762L93.8071 38.7511C93.8071 38.7511 89.2096 34.9611 85.6329 36.7422C82.0646 38.5317 77.2985 42.2372 76.7923 53.3033C76.2946 64.3694 72.6167 66.1673 72.6167 66.1673H78.353Z" fill="#2A2628"/>
<path d="M99.3322 59.2946C99.3322 59.2946 96.346 66.3259 95.4181 72.5131C94.8697 76.1596 93.2838 76.7336 89.6059 76.4635C85.1603 76.1343 80.4363 73.8636 81.6257 69.5672C83.296 63.5404 86.8052 53.8333 86.8896 47.9077L99.3322 59.2946Z" fill="#F7B49F"/>
<path d="M90.6267 60.5555C92.6428 62.2943 95.8821 63.0793 98.5056 62.767C104.039 62.1086 104.318 58.0992 104.394 53.3554C104.394 53.1359 104.394 52.908 104.394 52.6885C104.377 51.9288 104.326 51.1523 104.225 50.3504C104.225 50.2997 104.208 50.2575 104.2 50.2069C104.2 50.1731 104.2 50.1394 104.183 50.114C103.373 44.0028 100.345 39.3771 94.9542 40.044C88.2141 40.8881 85.7003 46.324 86.4679 52.545" fill="#F7B49F"/>
<path d="M98.1421 63.5054C96.59 63.5054 94.7595 63.0833 93.0892 61.6146C92.912 61.4627 92.8952 61.1926 93.0554 61.0153C93.2073 60.838 93.4772 60.8212 93.6544 60.9815C97.0793 64.0118 101.221 62.0873 101.398 62.0029C101.609 61.9016 101.862 61.9945 101.963 62.2055C102.065 62.4165 101.972 62.6697 101.769 62.771C101.744 62.7879 100.192 63.5138 98.1506 63.5138L98.1421 63.5054Z" fill="#2A2628"/>
<path d="M88.5346 55.0006C88.2478 55.3045 87.8935 55.5324 87.4886 55.6759C85.869 56.2414 84.0131 55.1357 83.3383 53.2027C82.6634 51.2697 83.4226 49.2439 85.0423 48.6783C85.8943 48.3829 86.8138 48.5433 87.5898 49.0498C87.5898 49.0498 88.3912 49.6237 88.9902 51.0418" fill="#F7B49F"/>
<path d="M86.8973 53.1248C86.678 53.1248 86.4924 52.9559 86.4756 52.7365C86.4502 52.382 86.3321 52.1203 86.1213 51.9346C85.7332 51.6054 85.1512 51.6391 85.1427 51.6391C84.915 51.656 84.7041 51.4872 84.6872 51.2509C84.6703 51.0145 84.839 50.8119 85.0752 50.7951C85.109 50.7951 86.0116 50.7275 86.6696 51.2846C87.0576 51.6138 87.2685 52.0781 87.3107 52.6605C87.3276 52.8968 87.1504 53.091 86.9227 53.1079C86.9142 53.1079 86.9058 53.1079 86.8889 53.1079L86.8973 53.1248Z" fill="#2A2628"/>
<path d="M89.5557 50.5414C89.5557 51.4445 90.2896 52.1789 91.1922 52.1789C92.0948 52.1789 92.8287 51.4445 92.8287 50.5414C92.8287 49.6382 92.0948 48.9038 91.1922 48.9038C90.2896 48.9038 89.5557 49.6382 89.5557 50.5414Z" fill="#E88585"/>
<path d="M102.251 49.9743C102.327 50.8774 103.12 51.5443 104.023 51.4683C104.132 51.4599 104.225 51.443 104.326 51.4092C104.309 51.1898 104.293 50.9619 104.267 50.7424C104.191 49.9911 104.065 49.223 103.896 48.4296C103.896 48.3874 103.879 48.3367 103.862 48.2945C103.862 48.2692 103.845 48.2354 103.845 48.2017C103.812 48.2017 103.77 48.2017 103.736 48.2017C102.833 48.2776 102.167 49.0711 102.243 49.9743H102.251Z" fill="#E88585"/>
<path d="M93.3772 37.7939C93.3772 37.7939 94.6426 39.2711 94.3051 41.7274C93.7906 45.5343 86.2238 48.5393 86.2238 48.5393L82.6724 46.9777L84.7391 40.284L93.3688 37.7939H93.3772Z" fill="#2A2628"/>
<path d="M100.353 47.3502C100.412 47.6456 100.699 47.8313 100.994 47.7723C101.29 47.7132 101.475 47.4262 101.416 47.1307C101.357 46.8353 101.07 46.6496 100.775 46.7087C100.48 46.7678 100.294 47.0548 100.353 47.3502Z" fill="#2A2628"/>
<path d="M100.876 48.2043C100.69 48.2043 100.505 48.1536 100.353 48.0439C100.142 47.9004 99.99 47.6894 99.9394 47.4361C99.8297 46.9128 100.167 46.4063 100.69 46.2966C100.943 46.246 101.196 46.2966 101.416 46.4317C101.635 46.5667 101.778 46.7862 101.829 47.0394C101.939 47.5628 101.601 48.0692 101.078 48.1789C101.011 48.1958 100.943 48.1958 100.884 48.1958L100.876 48.2043ZM100.758 47.2673C100.766 47.3264 100.842 47.3771 100.901 47.3602C100.969 47.3433 101.011 47.2842 100.994 47.2167C100.985 47.166 100.909 47.1154 100.85 47.1238C100.783 47.1407 100.741 47.1998 100.758 47.2673Z" fill="#2A2628"/>
<path d="M94.6503 47.8898C94.7094 48.1852 94.9962 48.3709 95.2915 48.3118C95.5867 48.2527 95.7723 47.9657 95.7132 47.6703C95.6542 47.3749 95.3674 47.1892 95.0721 47.2483C94.7769 47.3073 94.5913 47.5943 94.6503 47.8898Z" fill="#2A2628"/>
<path d="M95.1813 48.7477C94.7342 48.7477 94.3293 48.4354 94.2365 47.9796C94.1268 47.4563 94.4643 46.9498 94.9873 46.8401C95.2403 46.7894 95.4934 46.8401 95.7127 46.9751C95.9236 47.1186 96.0755 47.3296 96.1261 47.5829C96.1767 47.8361 96.1261 48.0893 95.9911 48.3088C95.8477 48.5198 95.6368 48.6717 95.3838 48.7224C95.3163 48.7393 95.2572 48.7393 95.1897 48.7393L95.1813 48.7477ZM95.0632 47.8108C95.0801 47.8783 95.1391 47.9205 95.2066 47.9036C95.2657 47.8952 95.3078 47.8192 95.2994 47.7601C95.291 47.701 95.215 47.6504 95.156 47.6673C95.0885 47.6842 95.0463 47.7432 95.0632 47.8108Z" fill="#2A2628"/>
<path d="M98.7836 52.0746C98.7077 52.0746 98.6318 52.0746 98.5474 52.0746C98.3112 52.0661 98.1341 51.872 98.1425 51.6356C98.151 51.3993 98.3534 51.222 98.5812 51.2305C99.6694 51.2811 100.319 50.935 100.327 50.935C100.471 50.8337 100.682 50.6396 100.656 50.4623C100.572 49.9137 99.0704 49.1878 98.075 48.867C97.8557 48.7995 97.7292 48.5547 97.8051 48.3352C97.8726 48.1158 98.1088 47.9892 98.3365 48.0651C98.8258 48.2255 101.306 49.078 101.491 50.3442C101.542 50.6818 101.458 51.1798 100.766 51.661C100.699 51.7032 99.9815 52.0915 98.7836 52.0915V52.0746Z" fill="#D86C6C"/>
<path d="M97.4428 57.6777C97.0716 57.6777 96.7089 57.5764 96.3461 57.3822C94.1275 56.1667 94.3637 54.0396 94.8024 53.0773C94.8783 52.917 95.0302 52.8241 95.2157 52.8326L100.935 53.2124C101.07 53.2208 101.188 53.2968 101.264 53.4065C101.332 53.5247 101.348 53.6598 101.298 53.7864C101.247 53.913 100.041 56.8758 98.1935 57.5342C97.9405 57.627 97.6874 57.6692 97.4428 57.6692V57.6777ZM95.4773 53.6935C95.3085 54.2928 95.0976 55.7362 96.751 56.6394C97.1391 56.8505 97.5187 56.8842 97.9067 56.7407C98.919 56.3778 99.8047 54.9428 100.269 54.0059L95.4773 53.6851V53.6935Z" fill="#D86C6C"/>
<path d="M102.032 44.4998C102.082 44.7952 101.585 45.116 100.927 45.2257C100.269 45.3354 99.695 45.1835 99.6444 44.8881C99.5938 44.5926 100.092 44.2719 100.749 44.1622C101.407 44.0524 101.981 44.2044 102.032 44.4998Z" fill="#2A2628"/>
<path d="M94.8698 45.6624C94.9205 45.9578 94.4228 46.2786 93.7648 46.3883C93.1068 46.498 92.5332 46.3461 92.4825 46.0507C92.4319 45.7552 92.9296 45.4345 93.5876 45.3248C94.2456 45.215 94.8192 45.367 94.8698 45.6624Z" fill="#2A2628"/>
<path d="M91.4368 37.8361C91.2596 37.8361 91.0993 37.7264 91.0403 37.5491C90.1714 34.9831 87.7926 34.3416 87.7672 34.3331C87.5395 34.274 87.4045 34.0461 87.4636 33.8182C87.5226 33.5903 87.7504 33.4553 87.9781 33.5144C88.0962 33.5481 90.8294 34.2825 91.8417 37.279C91.9176 37.4985 91.7995 37.7433 91.5802 37.8108C91.538 37.8277 91.4874 37.8361 91.4452 37.8361H91.4368Z" fill="#2A2628"/>
<path d="M91.5115 37.8363C91.5115 37.8363 91.4441 37.8363 91.4103 37.8195C91.1825 37.7604 91.0476 37.5325 91.1066 37.3046C91.773 34.6963 90.1787 32.8984 90.1112 32.8224C89.9509 32.6536 89.9678 32.3835 90.1365 32.2231C90.3052 32.0627 90.5752 32.0796 90.7355 32.2484C90.8198 32.3328 92.7094 34.4515 91.9249 37.5071C91.8743 37.7013 91.7056 37.8279 91.52 37.8279L91.5115 37.8363Z" fill="#2A2628"/>
<path d="M110.222 78.3798C110.222 78.3798 89.8756 61.0083 71.1906 70.7154C52.5056 80.4141 79.0442 88.3654 79.0442 88.3654H105.178L110.222 78.3882V78.3798Z" fill="#2962F6"/>
</svg>
