<svg width="135" height="135" viewBox="0 0 135 135" fill="none" xmlns="http://www.w3.org/2000/svg">
<circle cx="67.5" cy="67.5" r="67.5" fill="white"/>
<path d="M53.9208 98.2331H30.5414C30.023 98.2331 29.6045 97.8147 29.6045 97.2962V39.8315C29.6045 39.313 30.023 38.8945 30.5414 38.8945H64.4581C64.6143 38.8945 64.7642 38.932 64.9016 39.007L76.5819 45.2656C76.888 45.428 77.0754 45.7466 77.0754 46.0901V54.8098C77.0754 55.3282 76.6569 55.7467 76.1385 55.7467C75.62 55.7467 75.2015 55.3282 75.2015 54.8098V46.6523L64.2208 40.7684H31.4783V96.3593H53.9208C54.4393 96.3593 54.8578 96.7778 54.8578 97.2962C54.8578 97.8147 54.4393 98.2331 53.9208 98.2331Z" fill="#252D32"/>
<path d="M66.0505 51.2122C65.6883 51.2122 65.351 50.9998 65.1948 50.6563L62.5277 44.6475C62.3153 44.1728 62.5277 43.6231 63.0024 43.4107C63.4771 43.1984 64.0268 43.4107 64.2391 43.8855L66.5565 49.101L75.0825 46.0529C75.5759 45.878 76.1069 46.1341 76.2818 46.6213C76.4567 47.1085 76.2006 47.6457 75.7134 47.8205L66.3691 51.156C66.2629 51.1935 66.1567 51.2122 66.0568 51.2122H66.0505Z" fill="#252D32"/>
<path d="M82.3843 55.7593C81.8659 55.7593 81.4474 55.3408 81.4474 54.8223V34.5223H38.0365C37.5181 34.5223 37.0996 34.1038 37.0996 33.5854C37.0996 33.0669 37.5181 32.6484 38.0365 32.6484H82.3843C82.9028 32.6484 83.3213 33.0669 83.3213 33.5854V54.8223C83.3213 55.3408 82.9028 55.7593 82.3843 55.7593Z" fill="#00E0E3"/>
<path d="M81.1356 59.5071C69.5802 59.5071 60.2109 68.8763 60.2109 80.4318C60.2109 84.2794 61.254 87.8834 63.0654 90.9815L67.7063 87.6148L70.0174 87.9646C68.5621 85.816 67.7063 83.2238 67.7063 80.4318C67.7063 73.0175 73.7214 67.0025 81.1356 67.0025C88.5498 67.0025 94.5649 73.0175 94.5649 80.4318C94.5649 87.846 88.5498 93.861 81.1356 93.861C77.8626 93.861 74.8645 92.6867 72.5346 90.7442L73.3279 93.2364L69.0493 97.5088C72.4659 99.9323 76.6321 101.356 81.1356 101.356C92.691 101.356 102.06 91.9872 102.06 80.4318C102.06 68.8763 92.691 59.5071 81.1356 59.5071Z" fill="#283C93"/>
<path d="M81.135 86.3659C84.4122 86.3659 87.0689 83.7092 87.0689 80.432C87.0689 77.1548 84.4122 74.4982 81.135 74.4982C77.8579 74.4982 75.2012 77.1548 75.2012 80.432C75.2012 83.7092 77.8579 86.3659 81.135 86.3659Z" fill="#283C93"/>
<path d="M81.1358 102.606C77.8066 102.606 74.6023 101.888 71.6104 100.463C71.1419 100.239 70.9421 99.6827 71.1669 99.2142C71.3918 98.7458 71.9477 98.5459 72.4162 98.7707C75.152 100.07 78.0814 100.732 81.1358 100.732C92.329 100.732 101.436 91.6251 101.436 80.432C101.436 69.2388 92.329 60.1319 81.1358 60.1319C69.9427 60.1319 60.8358 69.2388 60.8358 80.432C60.8358 82.6744 61.198 84.873 61.9101 86.9717C62.0788 87.4589 61.8164 87.9961 61.323 88.1585C60.8358 88.3271 60.2986 88.0648 60.1362 87.5714C59.3554 85.2728 58.9619 82.8742 58.9619 80.4257C58.9619 68.202 68.9058 58.2518 81.1358 58.2518C93.3658 58.2518 103.31 68.202 103.31 80.4257C103.31 92.6495 93.3658 102.6 81.1358 102.6V102.606Z" fill="#252D32"/>
<path d="M81.1359 94.4854C79.4869 94.4854 77.8692 94.2044 76.3326 93.6422C75.8454 93.4673 75.5956 92.9301 75.7705 92.4429C75.9454 91.9557 76.4888 91.7059 76.9697 91.8808C78.3002 92.368 79.6993 92.6116 81.1359 92.6116C87.8506 92.6116 93.316 87.1462 93.316 80.4315C93.316 73.7169 87.8506 68.2515 81.1359 68.2515C74.4213 68.2515 68.9559 73.7169 68.9559 80.4315C68.9559 81.4309 69.0746 82.4241 69.3182 83.386C69.4431 83.8857 69.137 84.3979 68.6373 84.5228C68.1314 84.6477 67.6254 84.3417 67.5005 83.842C67.2257 82.7301 67.082 81.5871 67.082 80.4378C67.082 72.6863 73.3844 66.3839 81.1359 66.3839C88.8874 66.3839 95.1898 72.6863 95.1898 80.4378C95.1898 88.1893 88.8874 94.4917 81.1359 94.4917V94.4854Z" fill="#252D32"/>
<path d="M81.1352 86.9906C80.7167 86.9906 80.3045 86.9532 79.8985 86.872C79.3926 86.772 79.0553 86.2848 79.1552 85.7726C79.2551 85.2667 79.7423 84.9294 80.2545 85.0293C80.5419 85.0856 80.8417 85.1105 81.1415 85.1105C83.7274 85.1105 85.8261 83.0118 85.8261 80.4259C85.8261 77.84 83.7274 75.7413 81.1415 75.7413C78.5556 75.7413 76.4569 77.84 76.4569 80.4259C76.4569 80.6758 76.4756 80.9318 76.5193 81.1817C76.6005 81.6939 76.257 82.1748 75.7448 82.256C75.2389 82.331 74.7517 81.9937 74.6705 81.4815C74.6142 81.1317 74.583 80.7819 74.583 80.4259C74.583 76.8094 77.525 73.8674 81.1415 73.8674C84.758 73.8674 87.7 76.8094 87.7 80.4259C87.7 84.0424 84.758 86.9844 81.1415 86.9844L81.1352 86.9906Z" fill="#252D32"/>
<path d="M61.1478 100.107C60.8979 100.107 60.6481 100.007 60.4669 99.8136C60.1109 99.4388 60.1296 98.8454 60.5107 98.4894L80.4984 79.7509C80.8732 79.3948 81.4666 79.4136 81.8226 79.7946C82.1786 80.1694 82.1599 80.7628 81.7789 81.1188L61.7911 99.8573C61.61 100.026 61.3789 100.113 61.1478 100.113V100.107Z" fill="#252D32"/>
<path d="M64.8952 103.231C64.8202 103.231 64.739 103.218 64.6578 103.199C64.3143 103.112 64.0519 102.831 63.977 102.487L62.9464 97.5902L57.7058 95.6789C57.381 95.5602 57.1499 95.2729 57.1 94.9356C57.05 94.5983 57.1874 94.2548 57.4622 94.0487L67.4561 86.5533C67.7372 86.3409 68.1182 86.3034 68.4368 86.4658L72.1845 88.3397C72.4093 88.4521 72.578 88.6457 72.6529 88.8831L73.9022 92.6308C74.0083 92.9431 73.9396 93.2929 73.721 93.5427L65.601 102.912C65.4199 103.118 65.1575 103.237 64.8952 103.237V103.231ZM59.9732 94.5109L64.0769 96.0037C64.383 96.1161 64.6079 96.3722 64.6703 96.6908L65.4199 100.251L71.9534 92.712L70.9977 89.8387L68.112 88.3959L59.967 94.5046L59.9732 94.5109Z" fill="#252D32"/>
<path d="M43.0342 67.0023C42.7968 67.0023 42.5532 66.9087 42.3721 66.7275C42.0036 66.359 42.0036 65.7656 42.3721 65.4033L46.7444 61.031C47.038 60.7374 47.4877 60.675 47.8562 60.8686L54.1461 64.2978L64.8958 54.7411C65.283 54.3976 65.8764 54.4351 66.22 54.8161C66.5635 55.2033 66.526 55.7967 66.145 56.1403L54.9019 66.1341C54.6083 66.3965 54.1774 66.4464 53.8338 66.2591L47.5814 62.8486L43.7025 66.7275C43.5214 66.9087 43.2778 67.0023 43.0404 67.0023H43.0342Z" fill="#00E0E3"/>
<path d="M55.5264 73.2481H37.4125C36.8941 73.2481 36.4756 72.8296 36.4756 72.3112V48.5757C36.4756 48.0573 36.8941 47.6388 37.4125 47.6388C37.9309 47.6388 38.3494 48.0573 38.3494 48.5757V71.3742H55.5264C56.0448 71.3742 56.4633 71.7927 56.4633 72.3112C56.4633 72.8296 56.0448 73.2481 55.5264 73.2481Z" fill="#252D32"/>
<path d="M53.652 80.1192H38.0365C37.5181 80.1192 37.0996 79.7007 37.0996 79.1823C37.0996 78.6639 37.5181 78.2454 38.0365 78.2454H53.652C54.1704 78.2454 54.5889 78.6639 54.5889 79.1823C54.5889 79.7007 54.1704 80.1192 53.652 80.1192Z" fill="#252D32"/>
<path d="M53.652 86.9899H38.0365C37.5181 86.9899 37.0996 86.5714 37.0996 86.053C37.0996 85.5346 37.5181 85.1161 38.0365 85.1161H53.652C54.1704 85.1161 54.5889 85.5346 54.5889 86.053C54.5889 86.5714 54.1704 86.9899 53.652 86.9899Z" fill="#252D32"/>
</svg>
