<svg width="200" height="200" viewBox="0 0 200 200" fill="none" xmlns="http://www.w3.org/2000/svg">
<rect width="200" height="200" rx="100" fill="white"/>
<path d="M141.308 145.056H58.7163C56.4781 145.056 54.6519 143.23 54.6519 140.992V102.897C54.6519 101.672 55.654 100.67 56.8789 100.67C58.1039 100.67 59.106 101.672 59.106 102.897V140.602H140.918V102.641C140.918 101.416 141.921 100.414 143.145 100.414C144.37 100.414 145.373 101.416 145.373 102.641V140.992C145.373 143.23 143.546 145.056 141.308 145.056Z" fill="#0068DE"/>
<path d="M90.6675 121C90.6675 118.239 92.9061 116 95.6675 116H105.667C108.429 116 110.667 118.239 110.667 121V142.667H90.6675V121Z" fill="#99CCFF"/>
<path d="M140.874 105.125C138.435 105.125 136.063 104.412 133.981 103.02C132.667 102.141 131.553 101.038 130.673 99.7799C128.424 103.009 124.683 105.136 120.451 105.136C116.22 105.136 112.478 103.02 110.229 99.7911C107.979 103.02 104.238 105.136 100.006 105.136C95.7749 105.136 92.0445 103.02 89.784 99.7911C87.5347 103.02 83.7931 105.136 79.5617 105.136C75.3302 105.136 71.5887 103.02 69.3393 99.7799C68.4596 101.038 67.346 102.141 66.0321 103.02C62.5133 105.381 58.1704 105.782 54.106 104.112C49.7854 102.341 46.8456 97.9314 46.7009 93.0541C46.6563 92.7869 46.6563 92.5196 46.7009 92.2412L54.9745 59.3184C55.3643 57.4031 57.068 56 59.0279 56H140.94C142.9 56 144.604 57.3919 144.994 59.3184L153.189 91.896C153.278 92.141 153.334 92.4083 153.334 92.6866C153.334 97.7087 150.35 102.308 145.907 104.123C144.248 104.802 142.544 105.136 140.874 105.136V105.125ZM110.229 90.4484C111.454 90.4484 112.456 91.4506 112.456 92.6755C112.456 97.0852 116.041 100.671 120.451 100.671C124.861 100.671 128.446 97.0852 128.446 92.6755C128.446 91.4506 129.449 90.4484 130.673 90.4484C131.898 90.4484 132.901 91.4506 132.901 92.6755C132.901 95.3369 134.237 97.8201 136.464 99.3122C138.724 100.827 141.553 101.072 144.225 99.9804C146.909 98.878 148.746 96.1052 148.88 93.0096L140.684 60.4431H59.2951L51.1551 92.7423C51.1773 95.9493 53.0481 98.8557 55.8097 99.9804C58.4822 101.072 61.3106 100.827 63.5711 99.3122C65.7982 97.809 67.1345 95.3369 67.1345 92.6755C67.1345 91.4506 68.1367 90.4484 69.3616 90.4484C70.5865 90.4484 71.5887 91.4506 71.5887 92.6755C71.5887 97.0852 75.1743 100.671 79.5839 100.671C83.9936 100.671 87.5792 97.0852 87.5792 92.6755C87.5792 91.4506 88.5814 90.4484 89.8063 90.4484C91.0312 90.4484 92.0334 91.4506 92.0334 92.6755C92.0334 97.0852 95.619 100.671 100.029 100.671C104.438 100.671 108.024 97.0852 108.024 92.6755C108.024 91.4506 109.026 90.4484 110.251 90.4484H110.229Z" fill="#0068DE"/>
<path d="M111.732 144.5H90.3744C89.4502 144.5 88.7041 143.754 88.7041 142.83V126.104C88.7041 119.301 94.2496 113.755 101.053 113.755C107.857 113.755 113.403 119.301 113.403 126.104V142.83C113.403 143.754 112.656 144.5 111.732 144.5ZM92.0447 141.16H110.062V126.104C110.062 121.138 106.02 117.096 101.053 117.096C96.0869 117.096 92.0447 121.138 92.0447 126.104V141.16Z" fill="#0068DE"/>
<rect x="69.334" y="109.333" width="13.3333" height="14.6667" rx="1" fill="#99CCFF"/>
<rect x="120.001" y="109.333" width="13.3333" height="14.6667" rx="1" fill="#99CCFF"/>
</svg>
