<svg width="200" height="200" viewBox="0 0 200 200" fill="none" xmlns="http://www.w3.org/2000/svg">
<rect width="200" height="200" rx="100" fill="white"/>
<path d="M138.824 145.204H61.8228V151.514H138.824V145.204Z" fill="white"/>
<path d="M138.823 153.334H61.8212C60.815 153.334 60 152.519 60 151.513V145.202C60 144.196 60.815 143.381 61.8212 143.381H138.823C139.829 143.381 140.644 144.196 140.644 145.202V151.513C140.644 152.519 139.829 153.334 138.823 153.334ZM63.6425 149.691H137.002V147.023H63.6425V149.691Z" fill="#0068DE"/>
<path d="M116.231 76.3079H84.4141V88.3189H116.231V76.3079Z" fill="white"/>
<path d="M116.232 90.1383H84.415C83.4087 90.1383 82.5938 89.3233 82.5938 88.3171V76.3061C82.5938 75.2999 83.4087 74.4849 84.415 74.4849H116.232C117.238 74.4849 118.053 75.2999 118.053 76.3061V88.3171C118.053 89.3233 117.238 90.1383 116.232 90.1383ZM86.2362 86.4959H114.411V78.1273H86.2362V86.4959Z" fill="#0068DE"/>
<path d="M100.321 78.1295C99.315 78.1295 98.5 77.3145 98.5 76.3083V71.4365C98.5 70.4302 99.315 69.6152 100.321 69.6152C101.327 69.6152 102.142 70.4302 102.142 71.4365V76.3083C102.142 77.3145 101.327 78.1295 100.321 78.1295Z" fill="#0068DE"/>
<path d="M134.604 89.4902H107.026V145.202H134.604V89.4902Z" fill="#99CCFF"/>
<path d="M134.602 147.021H107.024C106.018 147.021 105.203 146.206 105.203 145.2V89.4885C105.203 88.4822 106.018 87.6672 107.024 87.6672H134.602C135.609 87.6672 136.424 88.4822 136.424 89.4885V145.2C136.424 146.206 135.609 147.021 134.602 147.021ZM108.846 143.379H132.781V91.3097H108.846V143.379Z" fill="#0068DE"/>
<path d="M93.6195 89.4902H66.0415V145.202H93.6195V89.4902Z" fill="#99CCFF"/>
<path d="M93.6179 147.021H66.04C65.0337 147.021 64.2188 146.206 64.2188 145.2V89.4885C64.2188 88.4822 65.0337 87.6672 66.04 87.6672H93.6179C94.6242 87.6672 95.4392 88.4822 95.4392 89.4885V145.2C95.4392 146.206 94.6242 147.021 93.6179 147.021ZM67.8612 143.379H91.7967V91.3097H67.8612V143.379Z" fill="#0068DE"/>
<path d="M122.3 83.834H78.3491V145.205H122.3V83.834Z" fill="white"/>
<path d="M122.3 92.3027H78.3491V98.6861H122.3V92.3027Z" fill="#99CCFF"/>
<path d="M122.3 102.964H78.3491V109.348H122.3V102.964Z" fill="#99CCFF"/>
<path d="M122.3 113.625H78.3491V120.009H122.3V113.625Z" fill="#99CCFF"/>
<path d="M107.251 129.683H93.396V145.204H107.251V129.683Z" fill="white"/>
<path d="M107.252 147.024H93.3969C92.3907 147.024 91.5757 146.209 91.5757 145.203V129.681C91.5757 128.675 92.3907 127.86 93.3969 127.86H107.252C108.258 127.86 109.073 128.675 109.073 129.681V145.203C109.073 146.209 108.258 147.024 107.252 147.024ZM95.2181 143.381H105.431V131.502H95.2181V143.381Z" fill="#0068DE"/>
<path d="M122.298 147.024H78.3471C77.3409 147.024 76.5259 146.209 76.5259 145.203V83.8322C76.5259 82.826 77.3409 82.011 78.3471 82.011H122.298C123.304 82.011 124.119 82.826 124.119 83.8322V145.203C124.119 146.209 123.304 147.024 122.298 147.024ZM80.1683 143.382H120.477V85.6534H80.1683V143.382Z" fill="#0068DE"/>
<path d="M129.088 134.978C129.088 139.927 126.051 143.943 122.299 143.943C118.547 143.943 115.51 139.932 115.51 134.978C115.51 130.024 118.552 122.662 122.299 122.662C126.046 122.662 129.088 130.029 129.088 134.978Z" fill="#99CCFF"/>
<path d="M122.3 145.763C117.551 145.763 113.69 140.927 113.69 134.976C113.69 129.349 117.123 120.839 122.3 120.839C127.477 120.839 130.91 129.349 130.91 134.976C130.91 140.923 127.049 145.763 122.3 145.763ZM122.3 124.486C120.164 124.486 117.332 130.469 117.332 134.981C117.332 138.851 119.609 142.125 122.3 142.125C124.991 142.125 127.267 138.856 127.267 134.981C127.267 130.469 124.435 124.486 122.3 124.486Z" fill="#0068DE"/>
<path d="M122.3 151.195C121.294 151.195 120.479 150.38 120.479 149.373V136.994C120.479 135.987 121.294 135.172 122.3 135.172C123.306 135.172 124.121 135.987 124.121 136.994V149.373C124.121 150.38 123.306 151.195 122.3 151.195Z" fill="#0068DE"/>
<path d="M85.1373 134.978C85.1373 139.927 82.1004 143.943 78.3487 143.943C74.597 143.943 71.5601 139.932 71.5601 134.978C71.5601 130.024 74.6015 122.662 78.3487 122.662C82.0959 122.662 85.1373 130.029 85.1373 134.978Z" fill="#99CCFF"/>
<path d="M78.3496 145.763C73.6008 145.763 69.7397 140.927 69.7397 134.976C69.7397 129.349 73.1728 120.839 78.3496 120.839C83.5264 120.839 86.9595 129.349 86.9595 134.976C86.9595 140.923 83.0985 145.763 78.3496 145.763ZM78.3496 124.486C76.2142 124.486 73.3822 130.469 73.3822 134.981C73.3822 138.851 75.6587 142.125 78.3496 142.125C81.0405 142.125 83.317 138.856 83.317 134.981C83.317 130.469 80.485 124.486 78.3496 124.486Z" fill="#0068DE"/>
<path d="M78.3471 151.195C77.3409 151.195 76.5259 150.38 76.5259 149.373V136.994C76.5259 135.987 77.3409 135.172 78.3471 135.172C79.3533 135.172 80.1683 135.987 80.1683 136.994V149.373C80.1683 150.38 79.3533 151.195 78.3471 151.195Z" fill="#0068DE"/>
<path d="M110.358 49.6929C109.306 49.0691 108.336 48.8961 107.439 48.8187C105.668 48.6593 104.038 49.4197 102.759 50.5352C101.794 51.3775 100.71 52.5158 100.268 53.695C99.385 51.0952 96.3345 48.459 93.3613 48.6684C92.4644 48.7322 91.4855 48.8779 90.42 49.4789C85.9762 51.9922 85.4617 59.6914 93.1564 66.1204C94.3584 67.1266 95.7653 68.101 97.3862 69.0207C98.3105 69.5443 100.1 70.4822 100.145 70.4594C100.15 70.4594 100.218 70.4412 100.318 70.3911C100.801 70.1726 102.167 69.4942 102.936 69.0753C104.58 68.192 106.005 67.2495 107.235 66.2661C115.075 60.0056 114.743 52.2927 110.358 49.6883V49.6929Z" fill="#99CCFF"/>
<path d="M108.796 67.5821C108.673 67.6595 108.591 67.7506 108.486 67.8371C107.13 68.9253 105.581 69.9361 103.888 70.8467C103.073 71.2883 101.675 71.9849 101.147 72.2262C101.056 72.2672 100.969 72.3037 100.878 72.3355C100.455 72.5176 100.113 72.5586 99.5714 72.3902C99.5441 72.3811 99.5213 72.3719 99.494 72.3628C98.8657 72.1488 97.9688 71.6526 96.4116 70.7693C94.7315 69.8177 93.2108 68.7705 91.8813 67.6641C87.565 64.058 85.1928 59.7281 85.211 55.4709C85.2201 52.6344 86.3174 50.1757 88.298 48.5412C88.6577 48.2452 89.0447 47.9811 89.45 47.7489C90.8887 46.9339 92.2273 46.7518 93.2336 46.6835C96.0291 46.4923 98.6608 48.0085 100.4 50.0437C100.719 49.7113 101.069 49.3789 101.456 49.042C103.319 47.3938 105.468 46.638 107.621 46.8338C108.614 46.9203 109.948 47.1297 111.378 47.9766C113.713 49.3653 115.184 51.8421 115.407 54.7698C115.744 59.168 113.335 63.8349 108.791 67.5776L108.796 67.5821ZM100.824 68.5883C100.969 68.643 101.115 68.7113 101.247 68.7978C101.106 68.7022 100.96 68.6339 100.814 68.5838C100.814 68.5838 100.819 68.5838 100.824 68.5838V68.5883ZM100.177 68.2605C100.746 67.9782 101.493 67.6003 101.989 67.3317C103.478 66.5349 104.821 65.6562 105.991 64.7182C106.082 64.6454 106.169 64.5771 106.255 64.5042C109.779 61.5994 111.664 58.1664 111.428 55.0839C111.3 53.4448 110.558 52.1426 109.338 51.4187C108.65 51.0089 108.013 50.8814 107.266 50.8177C105.996 50.7039 104.903 51.3595 104.211 51.9332C104.165 51.9742 104.115 52.0106 104.07 52.0516C102.713 53.2354 102.276 54.0367 102.135 54.4101C101.834 55.1978 101.074 55.7168 100.232 55.7032C99.3893 55.6895 98.6472 55.1477 98.374 54.3463C97.7593 52.5297 95.4919 50.5309 93.4976 50.6675C92.7418 50.7175 92.0953 50.8359 91.4032 51.2275C90.0054 52.0152 89.1995 53.5814 89.195 55.4846C89.1859 58.4851 91.0936 61.8088 94.4356 64.5999C95.5784 65.556 96.9033 66.4621 98.3694 67.2953C98.8794 67.5821 99.617 67.9782 100.168 68.2651L100.177 68.2605Z" fill="#0068DE"/>
<path d="M103.629 62.6258H97.0183C96.3081 62.6258 95.7344 62.0521 95.7344 61.3418C95.7344 60.6315 96.3081 60.0579 97.0183 60.0579H103.629C104.34 60.0579 104.913 60.6315 104.913 61.3418C104.913 62.0521 104.34 62.6258 103.629 62.6258Z" fill="white"/>
<path d="M100.321 65.9349C99.6103 65.9349 99.0366 65.3612 99.0366 64.6509V58.0398C99.0366 57.3295 99.6103 56.7559 100.321 56.7559C101.031 56.7559 101.605 57.3295 101.605 58.0398V64.6509C101.605 65.3612 101.031 65.9349 100.321 65.9349Z" fill="white"/>
</svg>
