<svg width="135" height="135" viewBox="0 0 135 135" fill="none" xmlns="http://www.w3.org/2000/svg">
<circle cx="67.5" cy="67.5" r="67.5" fill="white"/>
<path d="M24.4541 91.2615V91.7758C24.4541 95.2473 27.2676 98.0684 30.7467 98.0684H104.382C107.854 98.0684 110.675 95.2549 110.675 91.7758V91.2615H24.4541Z" fill="#283C93"/>
<path d="M104.76 98.8224H30.3685C26.2768 98.8224 22.9414 95.4946 22.9414 91.3954V90.8811C22.9414 90.2533 23.4481 89.7466 24.0759 89.7466H111.053C111.681 89.7466 112.187 90.2533 112.187 90.8811V91.3954C112.187 95.4871 108.86 98.8224 104.76 98.8224ZM25.2482 92.0155C25.5583 94.5719 27.7365 96.5535 30.3685 96.5535H104.76C107.392 96.5535 109.571 94.5719 109.881 92.0155H25.2482Z" fill="#252D32"/>
<path d="M27.8571 87.4792C27.2294 87.4792 26.7227 86.9725 26.7227 86.3447V39.8687C26.7227 37.3502 28.7799 35.293 31.2984 35.293H106.515C107.142 35.293 107.649 35.7997 107.649 36.4275C107.649 37.0552 107.142 37.5619 106.515 37.5619H31.2984C30.0278 37.5619 28.9916 38.5981 28.9916 39.8687V86.3447C28.9916 86.9725 28.4849 87.4792 27.8571 87.4792Z" fill="#252D32"/>
<path d="M107.271 87.4783C106.643 87.4783 106.137 86.9716 106.137 86.3438V43.2341C106.137 42.6063 106.643 42.0996 107.271 42.0996C107.899 42.0996 108.406 42.6063 108.406 43.2341V86.3438C108.406 86.9716 107.899 87.4783 107.271 87.4783Z" fill="#252D32"/>
<path d="M73.887 56.6209L75.1424 55.8116L66.823 42.9392L53.8145 51.3418L57.2254 56.6209H73.887Z" fill="#00E0E3"/>
<path d="M74.8622 71.0975H55.7276C55.1603 71.0975 54.6914 70.6361 54.6914 70.0613C54.6914 69.4865 55.1528 69.0252 55.7276 69.0252H74.1437L80.3531 52.4619C80.5043 52.0611 80.89 51.7888 81.3211 51.7888H88.8086C89.3759 51.7888 89.8448 52.2502 89.8448 52.825C89.8448 53.3998 89.3834 53.8611 88.8086 53.8611H82.0321L75.8228 70.4243C75.6715 70.8252 75.2858 71.0975 74.8547 71.0975H74.8622Z" fill="#252D32"/>
<path d="M76.4051 64.8946H53.6553C53.0881 64.8946 52.6191 64.4332 52.6191 63.8584C52.6191 63.2836 53.0805 62.8223 53.6553 62.8223H76.4051C76.9724 62.8223 77.4413 63.2836 77.4413 63.8584C77.4413 64.4332 76.9799 64.8946 76.4051 64.8946Z" fill="#252D32"/>
<path d="M79.1657 58.6934H50.9024C50.3351 58.6934 49.8662 58.232 49.8662 57.6572C49.8662 57.0824 50.3276 56.6211 50.9024 56.6211H79.1657C79.733 56.6211 80.2019 57.0824 80.2019 57.6572C80.2019 58.232 79.7405 58.6934 79.1657 58.6934Z" fill="#252D32"/>
<path d="M70.8926 81.4357C68.8052 81.4357 67.1035 79.734 67.1035 77.6465C67.1035 75.5591 68.8052 73.8574 70.8926 73.8574C72.9801 73.8574 74.6818 75.5591 74.6818 77.6465C74.6818 79.734 72.9801 81.4357 70.8926 81.4357ZM70.8926 75.9222C69.9397 75.9222 69.1682 76.6936 69.1682 77.6465C69.1682 78.5995 69.9397 79.3709 70.8926 79.3709C71.8456 79.3709 72.617 78.5995 72.617 77.6465C72.617 76.6936 71.8456 75.9222 70.8926 75.9222Z" fill="#252D32"/>
<path d="M59.8653 81.4357C57.7779 81.4357 56.0762 79.734 56.0762 77.6465C56.0762 75.5591 57.7779 73.8574 59.8653 73.8574C61.9527 73.8574 63.6544 75.5591 63.6544 77.6465C63.6544 79.734 61.9527 81.4357 59.8653 81.4357ZM59.8653 75.9222C58.9123 75.9222 58.1409 76.6936 58.1409 77.6465C58.1409 78.5995 58.9123 79.3709 59.8653 79.3709C60.8182 79.3709 61.5897 78.5995 61.5897 77.6465C61.5897 76.6936 60.8182 75.9222 59.8653 75.9222Z" fill="#252D32"/>
</svg>
