<svg width="212" height="200" viewBox="0 0 212 200" fill="none" xmlns="http://www.w3.org/2000/svg">
<path d="M161.429 114.415H160.019L136.327 76.8662C135.509 75.0644 133.759 73.9155 131.836 73.9155H29.0943C27.1707 73.9155 25.4212 75.0644 24.6031 76.8662L1.42443 114.372H0.00568416V117.827C-0.124875 120.621 2.00759 123.197 4.96694 123.197H156.459C159.401 123.197 161.525 120.638 161.421 117.862V114.406L161.429 114.415Z" fill="#2A2628"/>
<path d="M156.459 119.41H4.96679C1.33724 119.41 -1.06505 115.51 0.475552 112.116L24.6029 73.0786C25.4211 71.2769 27.1706 70.1279 29.0942 70.1279H131.827C133.75 70.1279 135.5 71.2769 136.318 73.0786L160.95 112.116C162.491 115.51 160.089 119.41 156.459 119.41Z" fill="#748FFC"/>
<path d="M129.791 0H31.645C28.304 0 25.5957 2.70834 25.5957 6.04925V64.0698C25.5957 67.4107 28.304 70.119 31.645 70.119H129.791C133.132 70.119 135.84 67.4107 135.84 64.0698V6.04925C135.84 2.70834 133.132 0 129.791 0Z" fill="#2A2628"/>
<path d="M134 65.1583V4.95305C134 3.48689 132.811 2.29834 131.345 2.29834L31.0148 2.29834C29.5487 2.29834 28.3601 3.48689 28.3601 4.95305V65.1583C28.3601 66.6245 29.5487 67.813 31.0148 67.813H131.345C132.811 67.813 134 66.6245 134 65.1583Z" fill="white"/>
<g clip-path="url(#clip0_638_10834)">
<path d="M94.7988 58.8469H43.5511C43.4068 58.8469 43.2935 58.7347 43.2935 58.5918V11.2551C43.2935 11.1122 43.4068 11 43.5511 11C43.6954 11 43.8087 11.1122 43.8087 11.2551V58.3367H94.7936C94.9379 58.3367 95.0513 58.449 95.0513 58.5918C95.0513 58.7347 94.9379 58.8469 94.7936 58.8469H94.7988Z" fill="#1E1E1E"/>
<path d="M93.6185 60.1275C93.5515 60.1275 93.4845 60.102 93.4381 60.051C93.3351 59.949 93.3351 59.7908 93.4381 59.6888L94.5511 58.5867L93.4381 57.4847C93.3351 57.3826 93.3351 57.2245 93.4381 57.1224C93.5412 57.0204 93.7009 57.0204 93.804 57.1224L95.0973 58.403C95.1436 58.449 95.1746 58.5153 95.1746 58.5816C95.1746 58.6479 95.1488 58.7143 95.0973 58.7602L93.804 60.0408C93.7524 60.0918 93.6855 60.1173 93.6236 60.1173L93.6185 60.1275Z" fill="#1E1E1E"/>
<path d="M44.844 12.7908C44.777 12.7908 44.71 12.7653 44.6637 12.7143L43.5507 11.6173L42.4378 12.7143C42.3347 12.8163 42.175 12.8163 42.0719 12.7143C41.9689 12.6122 41.9689 12.4541 42.0719 12.352L43.3704 11.0765C43.4734 10.9745 43.6332 10.9745 43.7362 11.0765L45.0295 12.3571C45.1326 12.4592 45.1326 12.6173 45.0295 12.7194C44.978 12.7704 44.911 12.7959 44.8492 12.7959L44.844 12.7908Z" fill="#1E1E1E"/>
<path d="M90.6509 48.7907V19.153L81.1444 18.4336L71.6378 26.4999L62.1313 23.8673L52.5887 32.8622L43.5459 35.3213V52.204" fill="#DA77F2"/>
<path d="M43.8033 52.204H43.2881V35.1223L52.4546 32.6376L62.059 23.5815L71.5758 26.2142L81.0566 18.1733L90.9084 18.9182V48.7907H90.3931V19.3927L81.2318 18.6988L71.6995 26.7805L62.2033 24.1478L52.7173 33.0917L43.8033 35.5152V52.204Z" fill="#1E1E1E"/>
<path d="M52.4032 50.9233H90.6509V33.0712L81.1444 36.561L71.6378 32.959L62.1313 40.1529L52.6248 36.561L43.5459 47.3314V55.4845" fill="#FFE066"/>
<path d="M43.8033 55.4848H43.2881V47.2399L52.5421 36.2603L62.0899 39.8623L71.5964 32.6685L81.1442 36.2909L90.9084 32.7042V51.1787H52.403V50.6685H90.3931V33.4389L81.1442 36.8368L71.6789 33.2501L62.1723 40.4389L52.7019 36.8674L43.8033 47.4236V55.4848Z" fill="#1E1E1E"/>
<mask id="mask0_638_10834" style="mask-type:luminance" maskUnits="userSpaceOnUse" x="43" y="33" width="48" height="23">
<path d="M52.4032 50.9848H90.6509V33.1379L81.1444 36.6277L71.6378 33.0205L62.1313 40.2144L52.6248 36.6277L43.5459 47.3981V55.5511" fill="white"/>
</mask>
<g mask="url(#mask0_638_10834)">
<path d="M89.6002 33.5766C89.4044 33.5766 89.2446 33.4185 89.2446 33.2246C89.2446 33.0307 89.4044 32.8726 89.6002 32.8726C89.796 32.8726 89.9557 33.0307 89.9557 33.2246C89.9557 33.4185 89.796 33.5766 89.6002 33.5766Z" fill="#1E1E1E"/>
<path d="M89.6002 36.311C89.4044 36.311 89.2446 36.1529 89.2446 35.959C89.2446 35.7651 89.4044 35.6069 89.6002 35.6069C89.796 35.6069 89.9557 35.7651 89.9557 35.959C89.9557 36.1529 89.796 36.311 89.6002 36.311Z" fill="#1E1E1E"/>
<path d="M89.6002 39.0459C89.4044 39.0459 89.2446 38.8877 89.2446 38.6938C89.2446 38.5 89.4044 38.3418 89.6002 38.3418C89.796 38.3418 89.9557 38.5 89.9557 38.6938C89.9557 38.8877 89.796 39.0459 89.6002 39.0459Z" fill="#1E1E1E"/>
<path d="M89.6002 41.7807C89.4044 41.7807 89.2446 41.6226 89.2446 41.4287C89.2446 41.2348 89.4044 41.0767 89.6002 41.0767C89.796 41.0767 89.9557 41.2348 89.9557 41.4287C89.9557 41.6226 89.796 41.7807 89.6002 41.7807Z" fill="#1E1E1E"/>
<path d="M89.6002 44.5151C89.4044 44.5151 89.2446 44.357 89.2446 44.1631C89.2446 43.9692 89.4044 43.811 89.6002 43.811C89.796 43.811 89.9557 43.9692 89.9557 44.1631C89.9557 44.357 89.796 44.5151 89.6002 44.5151Z" fill="#1E1E1E"/>
<path d="M89.6002 47.25C89.4044 47.25 89.2446 47.0918 89.2446 46.8979C89.2446 46.7041 89.4044 46.5459 89.6002 46.5459C89.796 46.5459 89.9557 46.7041 89.9557 46.8979C89.9557 47.0918 89.796 47.25 89.6002 47.25Z" fill="#1E1E1E"/>
<path d="M89.6002 49.9848C89.4044 49.9848 89.2446 49.8267 89.2446 49.6328C89.2446 49.4389 89.4044 49.2808 89.6002 49.2808C89.796 49.2808 89.9557 49.4389 89.9557 49.6328C89.9557 49.8267 89.796 49.9848 89.6002 49.9848Z" fill="#1E1E1E"/>
<path d="M89.6002 52.7192C89.4044 52.7192 89.2446 52.5611 89.2446 52.3672C89.2446 52.1733 89.4044 52.0151 89.6002 52.0151C89.796 52.0151 89.9557 52.1733 89.9557 52.3672C89.9557 52.5611 89.796 52.7192 89.6002 52.7192Z" fill="#1E1E1E"/>
<path d="M89.6002 55.459C89.4044 55.459 89.2446 55.3008 89.2446 55.1069C89.2446 54.913 89.4044 54.7549 89.6002 54.7549C89.796 54.7549 89.9557 54.913 89.9557 55.1069C89.9557 55.3008 89.796 55.459 89.6002 55.459Z" fill="#1E1E1E"/>
<path d="M87.3638 33.5766C87.168 33.5766 87.0083 33.4185 87.0083 33.2246C87.0083 33.0307 87.168 32.8726 87.3638 32.8726C87.5596 32.8726 87.7194 33.0307 87.7194 33.2246C87.7194 33.4185 87.5596 33.5766 87.3638 33.5766Z" fill="#1E1E1E"/>
<path d="M87.3638 36.311C87.168 36.311 87.0083 36.1529 87.0083 35.959C87.0083 35.7651 87.168 35.6069 87.3638 35.6069C87.5596 35.6069 87.7194 35.7651 87.7194 35.959C87.7194 36.1529 87.5596 36.311 87.3638 36.311Z" fill="#1E1E1E"/>
<path d="M87.3638 39.0459C87.168 39.0459 87.0083 38.8877 87.0083 38.6938C87.0083 38.5 87.168 38.3418 87.3638 38.3418C87.5596 38.3418 87.7194 38.5 87.7194 38.6938C87.7194 38.8877 87.5596 39.0459 87.3638 39.0459Z" fill="#1E1E1E"/>
<path d="M87.3638 41.7807C87.168 41.7807 87.0083 41.6226 87.0083 41.4287C87.0083 41.2348 87.168 41.0767 87.3638 41.0767C87.5596 41.0767 87.7194 41.2348 87.7194 41.4287C87.7194 41.6226 87.5596 41.7807 87.3638 41.7807Z" fill="#1E1E1E"/>
<path d="M87.3638 44.5151C87.168 44.5151 87.0083 44.357 87.0083 44.1631C87.0083 43.9692 87.168 43.811 87.3638 43.811C87.5596 43.811 87.7194 43.9692 87.7194 44.1631C87.7194 44.357 87.5596 44.5151 87.3638 44.5151Z" fill="#1E1E1E"/>
<path d="M87.3638 47.25C87.168 47.25 87.0083 47.0918 87.0083 46.8979C87.0083 46.7041 87.168 46.5459 87.3638 46.5459C87.5596 46.5459 87.7194 46.7041 87.7194 46.8979C87.7194 47.0918 87.5596 47.25 87.3638 47.25Z" fill="#1E1E1E"/>
<path d="M87.3638 49.9848C87.168 49.9848 87.0083 49.8267 87.0083 49.6328C87.0083 49.4389 87.168 49.2808 87.3638 49.2808C87.5596 49.2808 87.7194 49.4389 87.7194 49.6328C87.7194 49.8267 87.5596 49.9848 87.3638 49.9848Z" fill="#1E1E1E"/>
<path d="M87.3638 52.7192C87.168 52.7192 87.0083 52.5611 87.0083 52.3672C87.0083 52.1733 87.168 52.0151 87.3638 52.0151C87.5596 52.0151 87.7194 52.1733 87.7194 52.3672C87.7194 52.5611 87.5596 52.7192 87.3638 52.7192Z" fill="#1E1E1E"/>
<path d="M87.3638 55.459C87.168 55.459 87.0083 55.3008 87.0083 55.1069C87.0083 54.913 87.168 54.7549 87.3638 54.7549C87.5596 54.7549 87.7194 54.913 87.7194 55.1069C87.7194 55.3008 87.5596 55.459 87.3638 55.459Z" fill="#1E1E1E"/>
<path d="M85.1221 33.5766C84.9263 33.5766 84.7666 33.4185 84.7666 33.2246C84.7666 33.0307 84.9263 32.8726 85.1221 32.8726C85.3179 32.8726 85.4777 33.0307 85.4777 33.2246C85.4777 33.4185 85.3179 33.5766 85.1221 33.5766Z" fill="#1E1E1E"/>
<path d="M85.1221 36.311C84.9263 36.311 84.7666 36.1529 84.7666 35.959C84.7666 35.7651 84.9263 35.6069 85.1221 35.6069C85.3179 35.6069 85.4777 35.7651 85.4777 35.959C85.4777 36.1529 85.3179 36.311 85.1221 36.311Z" fill="#1E1E1E"/>
<path d="M85.1221 39.0459C84.9263 39.0459 84.7666 38.8877 84.7666 38.6938C84.7666 38.5 84.9263 38.3418 85.1221 38.3418C85.3179 38.3418 85.4777 38.5 85.4777 38.6938C85.4777 38.8877 85.3179 39.0459 85.1221 39.0459Z" fill="#1E1E1E"/>
<path d="M85.1221 41.7807C84.9263 41.7807 84.7666 41.6226 84.7666 41.4287C84.7666 41.2348 84.9263 41.0767 85.1221 41.0767C85.3179 41.0767 85.4777 41.2348 85.4777 41.4287C85.4777 41.6226 85.3179 41.7807 85.1221 41.7807Z" fill="#1E1E1E"/>
<path d="M85.1221 44.5151C84.9263 44.5151 84.7666 44.357 84.7666 44.1631C84.7666 43.9692 84.9263 43.811 85.1221 43.811C85.3179 43.811 85.4777 43.9692 85.4777 44.1631C85.4777 44.357 85.3179 44.5151 85.1221 44.5151Z" fill="#1E1E1E"/>
<path d="M85.1221 47.25C84.9263 47.25 84.7666 47.0918 84.7666 46.8979C84.7666 46.7041 84.9263 46.5459 85.1221 46.5459C85.3179 46.5459 85.4777 46.7041 85.4777 46.8979C85.4777 47.0918 85.3179 47.25 85.1221 47.25Z" fill="#1E1E1E"/>
<path d="M85.1221 49.9848C84.9263 49.9848 84.7666 49.8267 84.7666 49.6328C84.7666 49.4389 84.9263 49.2808 85.1221 49.2808C85.3179 49.2808 85.4777 49.4389 85.4777 49.6328C85.4777 49.8267 85.3179 49.9848 85.1221 49.9848Z" fill="#1E1E1E"/>
<path d="M85.1221 52.7192C84.9263 52.7192 84.7666 52.5611 84.7666 52.3672C84.7666 52.1733 84.9263 52.0151 85.1221 52.0151C85.3179 52.0151 85.4777 52.1733 85.4777 52.3672C85.4777 52.5611 85.3179 52.7192 85.1221 52.7192Z" fill="#1E1E1E"/>
<path d="M85.1221 55.459C84.9263 55.459 84.7666 55.3008 84.7666 55.1069C84.7666 54.913 84.9263 54.7549 85.1221 54.7549C85.3179 54.7549 85.4777 54.913 85.4777 55.1069C85.4777 55.3008 85.3179 55.459 85.1221 55.459Z" fill="#1E1E1E"/>
<path d="M82.8809 33.5766C83.0773 33.5766 83.2364 33.419 83.2364 33.2246C83.2364 33.0302 83.0773 32.8726 82.8809 32.8726C82.6846 32.8726 82.5254 33.0302 82.5254 33.2246C82.5254 33.419 82.6846 33.5766 82.8809 33.5766Z" fill="#1E1E1E"/>
<path d="M82.8809 36.311C82.6851 36.311 82.5254 36.1529 82.5254 35.959C82.5254 35.7651 82.6851 35.6069 82.8809 35.6069C83.0767 35.6069 83.2364 35.7651 83.2364 35.959C83.2364 36.1529 83.0767 36.311 82.8809 36.311Z" fill="#1E1E1E"/>
<path d="M82.8809 39.0459C83.0773 39.0459 83.2364 38.8883 83.2364 38.6938C83.2364 38.4994 83.0773 38.3418 82.8809 38.3418C82.6846 38.3418 82.5254 38.4994 82.5254 38.6938C82.5254 38.8883 82.6846 39.0459 82.8809 39.0459Z" fill="#1E1E1E"/>
<path d="M82.8809 41.7807C82.6851 41.7807 82.5254 41.6226 82.5254 41.4287C82.5254 41.2348 82.6851 41.0767 82.8809 41.0767C83.0767 41.0767 83.2364 41.2348 83.2364 41.4287C83.2364 41.6226 83.0767 41.7807 82.8809 41.7807Z" fill="#1E1E1E"/>
<path d="M82.8809 44.5151C83.0773 44.5151 83.2364 44.3575 83.2364 44.1631C83.2364 43.9687 83.0773 43.811 82.8809 43.811C82.6846 43.811 82.5254 43.9687 82.5254 44.1631C82.5254 44.3575 82.6846 44.5151 82.8809 44.5151Z" fill="#1E1E1E"/>
<path d="M82.8809 47.25C82.6851 47.25 82.5254 47.0918 82.5254 46.8979C82.5254 46.7041 82.6851 46.5459 82.8809 46.5459C83.0767 46.5459 83.2364 46.7041 83.2364 46.8979C83.2364 47.0918 83.0767 47.25 82.8809 47.25Z" fill="#1E1E1E"/>
<path d="M82.8809 49.9897C83.0773 49.9897 83.2364 49.8321 83.2364 49.6377C83.2364 49.4433 83.0773 49.2856 82.8809 49.2856C82.6846 49.2856 82.5254 49.4433 82.5254 49.6377C82.5254 49.8321 82.6846 49.9897 82.8809 49.9897Z" fill="#1E1E1E"/>
<path d="M82.8809 52.7192C82.6851 52.7192 82.5254 52.5611 82.5254 52.3672C82.5254 52.1733 82.6851 52.0151 82.8809 52.0151C83.0767 52.0151 83.2364 52.1733 83.2364 52.3672C83.2364 52.5611 83.0767 52.7192 82.8809 52.7192Z" fill="#1E1E1E"/>
<path d="M82.8809 55.459C82.6851 55.459 82.5254 55.3008 82.5254 55.1069C82.5254 54.913 82.6851 54.7549 82.8809 54.7549C83.0767 54.7549 83.2364 54.913 83.2364 55.1069C83.2364 55.3008 83.0767 55.459 82.8809 55.459Z" fill="#1E1E1E"/>
<path d="M80.6446 33.5766C80.4488 33.5766 80.2891 33.4185 80.2891 33.2246C80.2891 33.0307 80.4488 32.8726 80.6446 32.8726C80.8404 32.8726 81.0001 33.0307 81.0001 33.2246C81.0001 33.4185 80.8404 33.5766 80.6446 33.5766Z" fill="#1E1E1E"/>
<path d="M80.6446 36.311C80.4488 36.311 80.2891 36.1529 80.2891 35.959C80.2891 35.7651 80.4488 35.6069 80.6446 35.6069C80.8404 35.6069 81.0001 35.7651 81.0001 35.959C81.0001 36.1529 80.8404 36.311 80.6446 36.311Z" fill="#1E1E1E"/>
<path d="M80.6446 39.0459C80.4488 39.0459 80.2891 38.8877 80.2891 38.6938C80.2891 38.5 80.4488 38.3418 80.6446 38.3418C80.8404 38.3418 81.0001 38.5 81.0001 38.6938C81.0001 38.8877 80.8404 39.0459 80.6446 39.0459Z" fill="#1E1E1E"/>
<path d="M80.6446 41.7807C80.4488 41.7807 80.2891 41.6226 80.2891 41.4287C80.2891 41.2348 80.4488 41.0767 80.6446 41.0767C80.8404 41.0767 81.0001 41.2348 81.0001 41.4287C81.0001 41.6226 80.8404 41.7807 80.6446 41.7807Z" fill="#1E1E1E"/>
<path d="M80.6446 44.5151C80.4488 44.5151 80.2891 44.357 80.2891 44.1631C80.2891 43.9692 80.4488 43.811 80.6446 43.811C80.8404 43.811 81.0001 43.9692 81.0001 44.1631C81.0001 44.357 80.8404 44.5151 80.6446 44.5151Z" fill="#1E1E1E"/>
<path d="M80.6446 47.25C80.4488 47.25 80.2891 47.0918 80.2891 46.8979C80.2891 46.7041 80.4488 46.5459 80.6446 46.5459C80.8404 46.5459 81.0001 46.7041 81.0001 46.8979C81.0001 47.0918 80.8404 47.25 80.6446 47.25Z" fill="#1E1E1E"/>
<path d="M80.6446 49.9848C80.4488 49.9848 80.2891 49.8267 80.2891 49.6328C80.2891 49.4389 80.4488 49.2808 80.6446 49.2808C80.8404 49.2808 81.0001 49.4389 81.0001 49.6328C81.0001 49.8267 80.8404 49.9848 80.6446 49.9848Z" fill="#1E1E1E"/>
<path d="M80.6446 52.7192C80.4488 52.7192 80.2891 52.5611 80.2891 52.3672C80.2891 52.1733 80.4488 52.0151 80.6446 52.0151C80.8404 52.0151 81.0001 52.1733 81.0001 52.3672C81.0001 52.5611 80.8404 52.7192 80.6446 52.7192Z" fill="#1E1E1E"/>
<path d="M80.6446 55.459C80.4488 55.459 80.2891 55.3008 80.2891 55.1069C80.2891 54.913 80.4488 54.7549 80.6446 54.7549C80.8404 54.7549 81.0001 54.913 81.0001 55.1069C81.0001 55.3008 80.8404 55.459 80.6446 55.459Z" fill="#1E1E1E"/>
<path d="M78.4034 33.5766C78.5997 33.5766 78.7589 33.419 78.7589 33.2246C78.7589 33.0302 78.5997 32.8726 78.4034 32.8726C78.207 32.8726 78.0479 33.0302 78.0479 33.2246C78.0479 33.419 78.207 33.5766 78.4034 33.5766Z" fill="#1E1E1E"/>
<path d="M78.4034 36.311C78.2076 36.311 78.0479 36.1529 78.0479 35.959C78.0479 35.7651 78.2076 35.6069 78.4034 35.6069C78.5992 35.6069 78.7589 35.7651 78.7589 35.959C78.7589 36.1529 78.5992 36.311 78.4034 36.311Z" fill="#1E1E1E"/>
<path d="M78.4034 39.0459C78.5997 39.0459 78.7589 38.8883 78.7589 38.6938C78.7589 38.4994 78.5997 38.3418 78.4034 38.3418C78.207 38.3418 78.0479 38.4994 78.0479 38.6938C78.0479 38.8883 78.207 39.0459 78.4034 39.0459Z" fill="#1E1E1E"/>
<path d="M78.4034 41.7807C78.2076 41.7807 78.0479 41.6226 78.0479 41.4287C78.0479 41.2348 78.2076 41.0767 78.4034 41.0767C78.5992 41.0767 78.7589 41.2348 78.7589 41.4287C78.7589 41.6226 78.5992 41.7807 78.4034 41.7807Z" fill="#1E1E1E"/>
<path d="M78.4034 44.5151C78.5997 44.5151 78.7589 44.3575 78.7589 44.1631C78.7589 43.9687 78.5997 43.811 78.4034 43.811C78.207 43.811 78.0479 43.9687 78.0479 44.1631C78.0479 44.3575 78.207 44.5151 78.4034 44.5151Z" fill="#1E1E1E"/>
<path d="M78.4034 47.25C78.2076 47.25 78.0479 47.0918 78.0479 46.8979C78.0479 46.7041 78.2076 46.5459 78.4034 46.5459C78.5992 46.5459 78.7589 46.7041 78.7589 46.8979C78.7589 47.0918 78.5992 47.25 78.4034 47.25Z" fill="#1E1E1E"/>
<path d="M78.4034 49.9897C78.5997 49.9897 78.7589 49.8321 78.7589 49.6377C78.7589 49.4433 78.5997 49.2856 78.4034 49.2856C78.207 49.2856 78.0479 49.4433 78.0479 49.6377C78.0479 49.8321 78.207 49.9897 78.4034 49.9897Z" fill="#1E1E1E"/>
<path d="M78.4034 52.7192C78.2076 52.7192 78.0479 52.5611 78.0479 52.3672C78.0479 52.1733 78.2076 52.0151 78.4034 52.0151C78.5992 52.0151 78.7589 52.1733 78.7589 52.3672C78.7589 52.5611 78.5992 52.7192 78.4034 52.7192Z" fill="#1E1E1E"/>
<path d="M78.4034 55.459C78.2076 55.459 78.0479 55.3008 78.0479 55.1069C78.0479 54.913 78.2076 54.7549 78.4034 54.7549C78.5992 54.7549 78.7589 54.913 78.7589 55.1069C78.7589 55.3008 78.5992 55.459 78.4034 55.459Z" fill="#1E1E1E"/>
<path d="M76.1622 33.5766C76.3585 33.5766 76.5177 33.419 76.5177 33.2246C76.5177 33.0302 76.3585 32.8726 76.1622 32.8726C75.9658 32.8726 75.8066 33.0302 75.8066 33.2246C75.8066 33.419 75.9658 33.5766 76.1622 33.5766Z" fill="#1E1E1E"/>
<path d="M76.1622 36.311C75.9664 36.311 75.8066 36.1529 75.8066 35.959C75.8066 35.7651 75.9664 35.6069 76.1622 35.6069C76.358 35.6069 76.5177 35.7651 76.5177 35.959C76.5177 36.1529 76.358 36.311 76.1622 36.311Z" fill="#1E1E1E"/>
<path d="M76.1622 39.0459C76.3585 39.0459 76.5177 38.8883 76.5177 38.6938C76.5177 38.4994 76.3585 38.3418 76.1622 38.3418C75.9658 38.3418 75.8066 38.4994 75.8066 38.6938C75.8066 38.8883 75.9658 39.0459 76.1622 39.0459Z" fill="#1E1E1E"/>
<path d="M76.1622 41.7807C75.9664 41.7807 75.8066 41.6226 75.8066 41.4287C75.8066 41.2348 75.9664 41.0767 76.1622 41.0767C76.358 41.0767 76.5177 41.2348 76.5177 41.4287C76.5177 41.6226 76.358 41.7807 76.1622 41.7807Z" fill="#1E1E1E"/>
<path d="M76.1622 44.5151C76.3585 44.5151 76.5177 44.3575 76.5177 44.1631C76.5177 43.9687 76.3585 43.811 76.1622 43.811C75.9658 43.811 75.8066 43.9687 75.8066 44.1631C75.8066 44.3575 75.9658 44.5151 76.1622 44.5151Z" fill="#1E1E1E"/>
<path d="M76.1622 47.25C75.9664 47.25 75.8066 47.0918 75.8066 46.8979C75.8066 46.7041 75.9664 46.5459 76.1622 46.5459C76.358 46.5459 76.5177 46.7041 76.5177 46.8979C76.5177 47.0918 76.358 47.25 76.1622 47.25Z" fill="#1E1E1E"/>
<path d="M76.1622 49.9897C76.3585 49.9897 76.5177 49.8321 76.5177 49.6377C76.5177 49.4433 76.3585 49.2856 76.1622 49.2856C75.9658 49.2856 75.8066 49.4433 75.8066 49.6377C75.8066 49.8321 75.9658 49.9897 76.1622 49.9897Z" fill="#1E1E1E"/>
<path d="M76.1622 52.7192C75.9664 52.7192 75.8066 52.5611 75.8066 52.3672C75.8066 52.1733 75.9664 52.0151 76.1622 52.0151C76.358 52.0151 76.5177 52.1733 76.5177 52.3672C76.5177 52.5611 76.358 52.7192 76.1622 52.7192Z" fill="#1E1E1E"/>
<path d="M76.1622 55.459C75.9664 55.459 75.8066 55.3008 75.8066 55.1069C75.8066 54.913 75.9664 54.7549 76.1622 54.7549C76.358 54.7549 76.5177 54.913 76.5177 55.1069C76.5177 55.3008 76.358 55.459 76.1622 55.459Z" fill="#1E1E1E"/>
<path d="M73.9205 33.5766C73.7247 33.5766 73.5649 33.4185 73.5649 33.2246C73.5649 33.0307 73.7247 32.8726 73.9205 32.8726C74.1163 32.8726 74.276 33.0307 74.276 33.2246C74.276 33.4185 74.1163 33.5766 73.9205 33.5766Z" fill="#1E1E1E"/>
<path d="M73.9205 36.311C73.7247 36.311 73.5649 36.1529 73.5649 35.959C73.5649 35.7651 73.7247 35.6069 73.9205 35.6069C74.1163 35.6069 74.276 35.7651 74.276 35.959C74.276 36.1529 74.1163 36.311 73.9205 36.311Z" fill="#1E1E1E"/>
<path d="M73.9205 39.0459C73.7247 39.0459 73.5649 38.8877 73.5649 38.6938C73.5649 38.5 73.7247 38.3418 73.9205 38.3418C74.1163 38.3418 74.276 38.5 74.276 38.6938C74.276 38.8877 74.1163 39.0459 73.9205 39.0459Z" fill="#1E1E1E"/>
<path d="M73.9205 41.7807C73.7247 41.7807 73.5649 41.6226 73.5649 41.4287C73.5649 41.2348 73.7247 41.0767 73.9205 41.0767C74.1163 41.0767 74.276 41.2348 74.276 41.4287C74.276 41.6226 74.1163 41.7807 73.9205 41.7807Z" fill="#1E1E1E"/>
<path d="M73.9205 44.5151C73.7247 44.5151 73.5649 44.357 73.5649 44.1631C73.5649 43.9692 73.7247 43.811 73.9205 43.811C74.1163 43.811 74.276 43.9692 74.276 44.1631C74.276 44.357 74.1163 44.5151 73.9205 44.5151Z" fill="#1E1E1E"/>
<path d="M73.9205 47.25C73.7247 47.25 73.5649 47.0918 73.5649 46.8979C73.5649 46.7041 73.7247 46.5459 73.9205 46.5459C74.1163 46.5459 74.276 46.7041 74.276 46.8979C74.276 47.0918 74.1163 47.25 73.9205 47.25Z" fill="#1E1E1E"/>
<path d="M73.9205 49.9848C73.7247 49.9848 73.5649 49.8267 73.5649 49.6328C73.5649 49.4389 73.7247 49.2808 73.9205 49.2808C74.1163 49.2808 74.276 49.4389 74.276 49.6328C74.276 49.8267 74.1163 49.9848 73.9205 49.9848Z" fill="#1E1E1E"/>
<path d="M73.9205 52.7192C73.7247 52.7192 73.5649 52.5611 73.5649 52.3672C73.5649 52.1733 73.7247 52.0151 73.9205 52.0151C74.1163 52.0151 74.276 52.1733 74.276 52.3672C74.276 52.5611 74.1163 52.7192 73.9205 52.7192Z" fill="#1E1E1E"/>
<path d="M73.9205 55.459C73.7247 55.459 73.5649 55.3008 73.5649 55.1069C73.5649 54.913 73.7247 54.7549 73.9205 54.7549C74.1163 54.7549 74.276 54.913 74.276 55.1069C74.276 55.3008 74.1163 55.459 73.9205 55.459Z" fill="#1E1E1E"/>
<path d="M71.6841 33.5766C71.4883 33.5766 71.3286 33.4185 71.3286 33.2246C71.3286 33.0307 71.4883 32.8726 71.6841 32.8726C71.8799 32.8726 72.0397 33.0307 72.0397 33.2246C72.0397 33.4185 71.8799 33.5766 71.6841 33.5766Z" fill="#1E1E1E"/>
<path d="M71.6841 36.311C71.4883 36.311 71.3286 36.1529 71.3286 35.959C71.3286 35.7651 71.4883 35.6069 71.6841 35.6069C71.8799 35.6069 72.0397 35.7651 72.0397 35.959C72.0397 36.1529 71.8799 36.311 71.6841 36.311Z" fill="#1E1E1E"/>
<path d="M71.6841 39.0459C71.4883 39.0459 71.3286 38.8877 71.3286 38.6938C71.3286 38.5 71.4883 38.3418 71.6841 38.3418C71.8799 38.3418 72.0397 38.5 72.0397 38.6938C72.0397 38.8877 71.8799 39.0459 71.6841 39.0459Z" fill="#1E1E1E"/>
<path d="M71.6841 41.7807C71.4883 41.7807 71.3286 41.6226 71.3286 41.4287C71.3286 41.2348 71.4883 41.0767 71.6841 41.0767C71.8799 41.0767 72.0397 41.2348 72.0397 41.4287C72.0397 41.6226 71.8799 41.7807 71.6841 41.7807Z" fill="#1E1E1E"/>
<path d="M71.6841 44.5151C71.4883 44.5151 71.3286 44.357 71.3286 44.1631C71.3286 43.9692 71.4883 43.811 71.6841 43.811C71.8799 43.811 72.0397 43.9692 72.0397 44.1631C72.0397 44.357 71.8799 44.5151 71.6841 44.5151Z" fill="#1E1E1E"/>
<path d="M71.6841 47.25C71.4883 47.25 71.3286 47.0918 71.3286 46.8979C71.3286 46.7041 71.4883 46.5459 71.6841 46.5459C71.8799 46.5459 72.0397 46.7041 72.0397 46.8979C72.0397 47.0918 71.8799 47.25 71.6841 47.25Z" fill="#1E1E1E"/>
<path d="M71.6841 49.9848C71.4883 49.9848 71.3286 49.8267 71.3286 49.6328C71.3286 49.4389 71.4883 49.2808 71.6841 49.2808C71.8799 49.2808 72.0397 49.4389 72.0397 49.6328C72.0397 49.8267 71.8799 49.9848 71.6841 49.9848Z" fill="#1E1E1E"/>
<path d="M71.6841 52.7192C71.4883 52.7192 71.3286 52.5611 71.3286 52.3672C71.3286 52.1733 71.4883 52.0151 71.6841 52.0151C71.8799 52.0151 72.0397 52.1733 72.0397 52.3672C72.0397 52.5611 71.8799 52.7192 71.6841 52.7192Z" fill="#1E1E1E"/>
<path d="M71.6841 55.459C71.4883 55.459 71.3286 55.3008 71.3286 55.1069C71.3286 54.913 71.4883 54.7549 71.6841 54.7549C71.8799 54.7549 72.0397 54.913 72.0397 55.1069C72.0397 55.3008 71.8799 55.459 71.6841 55.459Z" fill="#1E1E1E"/>
<path d="M69.4429 33.5766C69.2471 33.5766 69.0874 33.4185 69.0874 33.2246C69.0874 33.0307 69.2471 32.8726 69.4429 32.8726C69.6387 32.8726 69.7985 33.0307 69.7985 33.2246C69.7985 33.4185 69.6387 33.5766 69.4429 33.5766Z" fill="#1E1E1E"/>
<path d="M69.4429 36.311C69.2471 36.311 69.0874 36.1529 69.0874 35.959C69.0874 35.7651 69.2471 35.6069 69.4429 35.6069C69.6387 35.6069 69.7985 35.7651 69.7985 35.959C69.7985 36.1529 69.6387 36.311 69.4429 36.311Z" fill="#1E1E1E"/>
<path d="M69.4429 39.0459C69.2471 39.0459 69.0874 38.8877 69.0874 38.6938C69.0874 38.5 69.2471 38.3418 69.4429 38.3418C69.6387 38.3418 69.7985 38.5 69.7985 38.6938C69.7985 38.8877 69.6387 39.0459 69.4429 39.0459Z" fill="#1E1E1E"/>
<path d="M69.4429 41.7807C69.2471 41.7807 69.0874 41.6226 69.0874 41.4287C69.0874 41.2348 69.2471 41.0767 69.4429 41.0767C69.6387 41.0767 69.7985 41.2348 69.7985 41.4287C69.7985 41.6226 69.6387 41.7807 69.4429 41.7807Z" fill="#1E1E1E"/>
<path d="M69.4429 44.5151C69.2471 44.5151 69.0874 44.357 69.0874 44.1631C69.0874 43.9692 69.2471 43.811 69.4429 43.811C69.6387 43.811 69.7985 43.9692 69.7985 44.1631C69.7985 44.357 69.6387 44.5151 69.4429 44.5151Z" fill="#1E1E1E"/>
<path d="M69.4429 47.25C69.2471 47.25 69.0874 47.0918 69.0874 46.8979C69.0874 46.7041 69.2471 46.5459 69.4429 46.5459C69.6387 46.5459 69.7985 46.7041 69.7985 46.8979C69.7985 47.0918 69.6387 47.25 69.4429 47.25Z" fill="#1E1E1E"/>
<path d="M69.4429 49.9848C69.2471 49.9848 69.0874 49.8267 69.0874 49.6328C69.0874 49.4389 69.2471 49.2808 69.4429 49.2808C69.6387 49.2808 69.7985 49.4389 69.7985 49.6328C69.7985 49.8267 69.6387 49.9848 69.4429 49.9848Z" fill="#1E1E1E"/>
<path d="M69.4429 52.7192C69.2471 52.7192 69.0874 52.5611 69.0874 52.3672C69.0874 52.1733 69.2471 52.0151 69.4429 52.0151C69.6387 52.0151 69.7985 52.1733 69.7985 52.3672C69.7985 52.5611 69.6387 52.7192 69.4429 52.7192Z" fill="#1E1E1E"/>
<path d="M69.4429 55.459C69.2471 55.459 69.0874 55.3008 69.0874 55.1069C69.0874 54.913 69.2471 54.7549 69.4429 54.7549C69.6387 54.7549 69.7985 54.913 69.7985 55.1069C69.7985 55.3008 69.6387 55.459 69.4429 55.459Z" fill="#1E1E1E"/>
<path d="M67.2017 33.5766C67.0059 33.5766 66.8462 33.4185 66.8462 33.2246C66.8462 33.0307 67.0059 32.8726 67.2017 32.8726C67.3975 32.8726 67.5572 33.0307 67.5572 33.2246C67.5572 33.4185 67.3975 33.5766 67.2017 33.5766Z" fill="#1E1E1E"/>
<path d="M67.2017 36.311C67.0059 36.311 66.8462 36.1529 66.8462 35.959C66.8462 35.7651 67.0059 35.6069 67.2017 35.6069C67.3975 35.6069 67.5572 35.7651 67.5572 35.959C67.5572 36.1529 67.3975 36.311 67.2017 36.311Z" fill="#1E1E1E"/>
<path d="M67.2017 39.0459C67.0059 39.0459 66.8462 38.8877 66.8462 38.6938C66.8462 38.5 67.0059 38.3418 67.2017 38.3418C67.3975 38.3418 67.5572 38.5 67.5572 38.6938C67.5572 38.8877 67.3975 39.0459 67.2017 39.0459Z" fill="#1E1E1E"/>
<path d="M67.2017 41.7807C67.0059 41.7807 66.8462 41.6226 66.8462 41.4287C66.8462 41.2348 67.0059 41.0767 67.2017 41.0767C67.3975 41.0767 67.5572 41.2348 67.5572 41.4287C67.5572 41.6226 67.3975 41.7807 67.2017 41.7807Z" fill="#1E1E1E"/>
<path d="M67.2017 44.5151C67.0059 44.5151 66.8462 44.357 66.8462 44.1631C66.8462 43.9692 67.0059 43.811 67.2017 43.811C67.3975 43.811 67.5572 43.9692 67.5572 44.1631C67.5572 44.357 67.3975 44.5151 67.2017 44.5151Z" fill="#1E1E1E"/>
<path d="M67.2017 47.25C67.0059 47.25 66.8462 47.0918 66.8462 46.8979C66.8462 46.7041 67.0059 46.5459 67.2017 46.5459C67.3975 46.5459 67.5572 46.7041 67.5572 46.8979C67.5572 47.0918 67.3975 47.25 67.2017 47.25Z" fill="#1E1E1E"/>
<path d="M67.2017 49.9848C67.0059 49.9848 66.8462 49.8267 66.8462 49.6328C66.8462 49.4389 67.0059 49.2808 67.2017 49.2808C67.3975 49.2808 67.5572 49.4389 67.5572 49.6328C67.5572 49.8267 67.3975 49.9848 67.2017 49.9848Z" fill="#1E1E1E"/>
<path d="M67.2017 52.7192C67.0059 52.7192 66.8462 52.5611 66.8462 52.3672C66.8462 52.1733 67.0059 52.0151 67.2017 52.0151C67.3975 52.0151 67.5572 52.1733 67.5572 52.3672C67.5572 52.5611 67.3975 52.7192 67.2017 52.7192Z" fill="#1E1E1E"/>
<path d="M67.2017 55.459C67.0059 55.459 66.8462 55.3008 66.8462 55.1069C66.8462 54.913 67.0059 54.7549 67.2017 54.7549C67.3975 54.7549 67.5572 54.913 67.5572 55.1069C67.5572 55.3008 67.3975 55.459 67.2017 55.459Z" fill="#1E1E1E"/>
<path d="M64.9654 33.5766C64.7696 33.5766 64.6099 33.4185 64.6099 33.2246C64.6099 33.0307 64.7696 32.8726 64.9654 32.8726C65.1612 32.8726 65.3209 33.0307 65.3209 33.2246C65.3209 33.4185 65.1612 33.5766 64.9654 33.5766Z" fill="#1E1E1E"/>
<path d="M64.9654 36.311C64.7696 36.311 64.6099 36.1529 64.6099 35.959C64.6099 35.7651 64.7696 35.6069 64.9654 35.6069C65.1612 35.6069 65.3209 35.7651 65.3209 35.959C65.3209 36.1529 65.1612 36.311 64.9654 36.311Z" fill="#1E1E1E"/>
<path d="M64.9654 39.0459C64.7696 39.0459 64.6099 38.8877 64.6099 38.6938C64.6099 38.5 64.7696 38.3418 64.9654 38.3418C65.1612 38.3418 65.3209 38.5 65.3209 38.6938C65.3209 38.8877 65.1612 39.0459 64.9654 39.0459Z" fill="#1E1E1E"/>
<path d="M64.9654 41.7807C64.7696 41.7807 64.6099 41.6226 64.6099 41.4287C64.6099 41.2348 64.7696 41.0767 64.9654 41.0767C65.1612 41.0767 65.3209 41.2348 65.3209 41.4287C65.3209 41.6226 65.1612 41.7807 64.9654 41.7807Z" fill="#1E1E1E"/>
<path d="M64.9654 44.5151C64.7696 44.5151 64.6099 44.357 64.6099 44.1631C64.6099 43.9692 64.7696 43.811 64.9654 43.811C65.1612 43.811 65.3209 43.9692 65.3209 44.1631C65.3209 44.357 65.1612 44.5151 64.9654 44.5151Z" fill="#1E1E1E"/>
<path d="M64.9654 47.25C64.7696 47.25 64.6099 47.0918 64.6099 46.8979C64.6099 46.7041 64.7696 46.5459 64.9654 46.5459C65.1612 46.5459 65.3209 46.7041 65.3209 46.8979C65.3209 47.0918 65.1612 47.25 64.9654 47.25Z" fill="#1E1E1E"/>
<path d="M64.9654 49.9848C64.7696 49.9848 64.6099 49.8267 64.6099 49.6328C64.6099 49.4389 64.7696 49.2808 64.9654 49.2808C65.1612 49.2808 65.3209 49.4389 65.3209 49.6328C65.3209 49.8267 65.1612 49.9848 64.9654 49.9848Z" fill="#1E1E1E"/>
<path d="M64.9654 52.7192C64.7696 52.7192 64.6099 52.5611 64.6099 52.3672C64.6099 52.1733 64.7696 52.0151 64.9654 52.0151C65.1612 52.0151 65.3209 52.1733 65.3209 52.3672C65.3209 52.5611 65.1612 52.7192 64.9654 52.7192Z" fill="#1E1E1E"/>
<path d="M64.9654 55.459C64.7696 55.459 64.6099 55.3008 64.6099 55.1069C64.6099 54.913 64.7696 54.7549 64.9654 54.7549C65.1612 54.7549 65.3209 54.913 65.3209 55.1069C65.3209 55.3008 65.1612 55.459 64.9654 55.459Z" fill="#1E1E1E"/>
<path d="M62.7242 33.5766C62.9205 33.5766 63.0797 33.419 63.0797 33.2246C63.0797 33.0302 62.9205 32.8726 62.7242 32.8726C62.5278 32.8726 62.3687 33.0302 62.3687 33.2246C62.3687 33.419 62.5278 33.5766 62.7242 33.5766Z" fill="#1E1E1E"/>
<path d="M62.7242 36.311C62.5284 36.311 62.3687 36.1529 62.3687 35.959C62.3687 35.7651 62.5284 35.6069 62.7242 35.6069C62.92 35.6069 63.0797 35.7651 63.0797 35.959C63.0797 36.1529 62.92 36.311 62.7242 36.311Z" fill="#1E1E1E"/>
<path d="M62.7242 39.0459C62.9205 39.0459 63.0797 38.8883 63.0797 38.6938C63.0797 38.4994 62.9205 38.3418 62.7242 38.3418C62.5278 38.3418 62.3687 38.4994 62.3687 38.6938C62.3687 38.8883 62.5278 39.0459 62.7242 39.0459Z" fill="#1E1E1E"/>
<path d="M62.7242 41.7807C62.5284 41.7807 62.3687 41.6226 62.3687 41.4287C62.3687 41.2348 62.5284 41.0767 62.7242 41.0767C62.92 41.0767 63.0797 41.2348 63.0797 41.4287C63.0797 41.6226 62.92 41.7807 62.7242 41.7807Z" fill="#1E1E1E"/>
<path d="M62.7242 44.5151C62.9205 44.5151 63.0797 44.3575 63.0797 44.1631C63.0797 43.9687 62.9205 43.811 62.7242 43.811C62.5278 43.811 62.3687 43.9687 62.3687 44.1631C62.3687 44.3575 62.5278 44.5151 62.7242 44.5151Z" fill="#1E1E1E"/>
<path d="M62.7242 47.25C62.5284 47.25 62.3687 47.0918 62.3687 46.8979C62.3687 46.7041 62.5284 46.5459 62.7242 46.5459C62.92 46.5459 63.0797 46.7041 63.0797 46.8979C63.0797 47.0918 62.92 47.25 62.7242 47.25Z" fill="#1E1E1E"/>
<path d="M62.7242 49.9897C62.9205 49.9897 63.0797 49.8321 63.0797 49.6377C63.0797 49.4433 62.9205 49.2856 62.7242 49.2856C62.5278 49.2856 62.3687 49.4433 62.3687 49.6377C62.3687 49.8321 62.5278 49.9897 62.7242 49.9897Z" fill="#1E1E1E"/>
<path d="M62.7242 52.7192C62.5284 52.7192 62.3687 52.5611 62.3687 52.3672C62.3687 52.1733 62.5284 52.0151 62.7242 52.0151C62.92 52.0151 63.0797 52.1733 63.0797 52.3672C63.0797 52.5611 62.92 52.7192 62.7242 52.7192Z" fill="#1E1E1E"/>
<path d="M62.7242 55.459C62.5284 55.459 62.3687 55.3008 62.3687 55.1069C62.3687 54.913 62.5284 54.7549 62.7242 54.7549C62.92 54.7549 63.0797 54.913 63.0797 55.1069C63.0797 55.3008 62.92 55.459 62.7242 55.459Z" fill="#1E1E1E"/>
<path d="M60.4825 33.5766C60.6788 33.5766 60.838 33.419 60.838 33.2246C60.838 33.0302 60.6788 32.8726 60.4825 32.8726C60.2861 32.8726 60.127 33.0302 60.127 33.2246C60.127 33.419 60.2861 33.5766 60.4825 33.5766Z" fill="#1E1E1E"/>
<path d="M60.4825 36.311C60.2867 36.311 60.127 36.1529 60.127 35.959C60.127 35.7651 60.2867 35.6069 60.4825 35.6069C60.6783 35.6069 60.838 35.7651 60.838 35.959C60.838 36.1529 60.6783 36.311 60.4825 36.311Z" fill="#1E1E1E"/>
<path d="M60.4825 39.0459C60.6788 39.0459 60.838 38.8883 60.838 38.6938C60.838 38.4994 60.6788 38.3418 60.4825 38.3418C60.2861 38.3418 60.127 38.4994 60.127 38.6938C60.127 38.8883 60.2861 39.0459 60.4825 39.0459Z" fill="#1E1E1E"/>
<path d="M60.4825 41.7807C60.2867 41.7807 60.127 41.6226 60.127 41.4287C60.127 41.2348 60.2867 41.0767 60.4825 41.0767C60.6783 41.0767 60.838 41.2348 60.838 41.4287C60.838 41.6226 60.6783 41.7807 60.4825 41.7807Z" fill="#1E1E1E"/>
<path d="M60.4825 44.5151C60.6788 44.5151 60.838 44.3575 60.838 44.1631C60.838 43.9687 60.6788 43.811 60.4825 43.811C60.2861 43.811 60.127 43.9687 60.127 44.1631C60.127 44.3575 60.2861 44.5151 60.4825 44.5151Z" fill="#1E1E1E"/>
<path d="M60.4825 47.25C60.2867 47.25 60.127 47.0918 60.127 46.8979C60.127 46.7041 60.2867 46.5459 60.4825 46.5459C60.6783 46.5459 60.838 46.7041 60.838 46.8979C60.838 47.0918 60.6783 47.25 60.4825 47.25Z" fill="#1E1E1E"/>
<path d="M60.4825 49.9897C60.6788 49.9897 60.838 49.8321 60.838 49.6377C60.838 49.4433 60.6788 49.2856 60.4825 49.2856C60.2861 49.2856 60.127 49.4433 60.127 49.6377C60.127 49.8321 60.2861 49.9897 60.4825 49.9897Z" fill="#1E1E1E"/>
<path d="M60.4825 52.7192C60.2867 52.7192 60.127 52.5611 60.127 52.3672C60.127 52.1733 60.2867 52.0151 60.4825 52.0151C60.6783 52.0151 60.838 52.1733 60.838 52.3672C60.838 52.5611 60.6783 52.7192 60.4825 52.7192Z" fill="#1E1E1E"/>
<path d="M60.4825 55.459C60.2867 55.459 60.127 55.3008 60.127 55.1069C60.127 54.913 60.2867 54.7549 60.4825 54.7549C60.6783 54.7549 60.838 54.913 60.838 55.1069C60.838 55.3008 60.6783 55.459 60.4825 55.459Z" fill="#1E1E1E"/>
<path d="M58.2413 33.5766C58.0455 33.5766 57.8857 33.4185 57.8857 33.2246C57.8857 33.0307 58.0455 32.8726 58.2413 32.8726C58.4371 32.8726 58.5968 33.0307 58.5968 33.2246C58.5968 33.4185 58.4371 33.5766 58.2413 33.5766Z" fill="#1E1E1E"/>
<path d="M58.2413 36.311C58.0455 36.311 57.8857 36.1529 57.8857 35.959C57.8857 35.7651 58.0455 35.6069 58.2413 35.6069C58.4371 35.6069 58.5968 35.7651 58.5968 35.959C58.5968 36.1529 58.4371 36.311 58.2413 36.311Z" fill="#1E1E1E"/>
<path d="M58.2413 39.0459C58.0455 39.0459 57.8857 38.8877 57.8857 38.6938C57.8857 38.5 58.0455 38.3418 58.2413 38.3418C58.4371 38.3418 58.5968 38.5 58.5968 38.6938C58.5968 38.8877 58.4371 39.0459 58.2413 39.0459Z" fill="#1E1E1E"/>
<path d="M58.2413 41.7807C58.0455 41.7807 57.8857 41.6226 57.8857 41.4287C57.8857 41.2348 58.0455 41.0767 58.2413 41.0767C58.4371 41.0767 58.5968 41.2348 58.5968 41.4287C58.5968 41.6226 58.4371 41.7807 58.2413 41.7807Z" fill="#1E1E1E"/>
<path d="M58.2413 44.5151C58.0455 44.5151 57.8857 44.357 57.8857 44.1631C57.8857 43.9692 58.0455 43.811 58.2413 43.811C58.4371 43.811 58.5968 43.9692 58.5968 44.1631C58.5968 44.357 58.4371 44.5151 58.2413 44.5151Z" fill="#1E1E1E"/>
<path d="M58.2413 47.25C58.0455 47.25 57.8857 47.0918 57.8857 46.8979C57.8857 46.7041 58.0455 46.5459 58.2413 46.5459C58.4371 46.5459 58.5968 46.7041 58.5968 46.8979C58.5968 47.0918 58.4371 47.25 58.2413 47.25Z" fill="#1E1E1E"/>
<path d="M58.2413 49.9848C58.0455 49.9848 57.8857 49.8267 57.8857 49.6328C57.8857 49.4389 58.0455 49.2808 58.2413 49.2808C58.4371 49.2808 58.5968 49.4389 58.5968 49.6328C58.5968 49.8267 58.4371 49.9848 58.2413 49.9848Z" fill="#1E1E1E"/>
<path d="M58.2413 52.7192C58.0455 52.7192 57.8857 52.5611 57.8857 52.3672C57.8857 52.1733 58.0455 52.0151 58.2413 52.0151C58.4371 52.0151 58.5968 52.1733 58.5968 52.3672C58.5968 52.5611 58.4371 52.7192 58.2413 52.7192Z" fill="#1E1E1E"/>
<path d="M58.2413 55.459C58.0455 55.459 57.8857 55.3008 57.8857 55.1069C57.8857 54.913 58.0455 54.7549 58.2413 54.7549C58.4371 54.7549 58.5968 54.913 58.5968 55.1069C58.5968 55.3008 58.4371 55.459 58.2413 55.459Z" fill="#1E1E1E"/>
<path d="M56.0049 33.5766C55.8091 33.5766 55.6494 33.4185 55.6494 33.2246C55.6494 33.0307 55.8091 32.8726 56.0049 32.8726C56.2007 32.8726 56.3605 33.0307 56.3605 33.2246C56.3605 33.4185 56.2007 33.5766 56.0049 33.5766Z" fill="#1E1E1E"/>
<path d="M56.0049 36.311C55.8091 36.311 55.6494 36.1529 55.6494 35.959C55.6494 35.7651 55.8091 35.6069 56.0049 35.6069C56.2007 35.6069 56.3605 35.7651 56.3605 35.959C56.3605 36.1529 56.2007 36.311 56.0049 36.311Z" fill="#1E1E1E"/>
<path d="M56.0049 39.0459C55.8091 39.0459 55.6494 38.8877 55.6494 38.6938C55.6494 38.5 55.8091 38.3418 56.0049 38.3418C56.2007 38.3418 56.3605 38.5 56.3605 38.6938C56.3605 38.8877 56.2007 39.0459 56.0049 39.0459Z" fill="#1E1E1E"/>
<path d="M56.0049 41.7807C55.8091 41.7807 55.6494 41.6226 55.6494 41.4287C55.6494 41.2348 55.8091 41.0767 56.0049 41.0767C56.2007 41.0767 56.3605 41.2348 56.3605 41.4287C56.3605 41.6226 56.2007 41.7807 56.0049 41.7807Z" fill="#1E1E1E"/>
<path d="M56.0049 44.5151C55.8091 44.5151 55.6494 44.357 55.6494 44.1631C55.6494 43.9692 55.8091 43.811 56.0049 43.811C56.2007 43.811 56.3605 43.9692 56.3605 44.1631C56.3605 44.357 56.2007 44.5151 56.0049 44.5151Z" fill="#1E1E1E"/>
<path d="M56.0049 47.25C55.8091 47.25 55.6494 47.0918 55.6494 46.8979C55.6494 46.7041 55.8091 46.5459 56.0049 46.5459C56.2007 46.5459 56.3605 46.7041 56.3605 46.8979C56.3605 47.0918 56.2007 47.25 56.0049 47.25Z" fill="#1E1E1E"/>
<path d="M56.0049 49.9848C55.8091 49.9848 55.6494 49.8267 55.6494 49.6328C55.6494 49.4389 55.8091 49.2808 56.0049 49.2808C56.2007 49.2808 56.3605 49.4389 56.3605 49.6328C56.3605 49.8267 56.2007 49.9848 56.0049 49.9848Z" fill="#1E1E1E"/>
<path d="M56.0049 52.7192C55.8091 52.7192 55.6494 52.5611 55.6494 52.3672C55.6494 52.1733 55.8091 52.0151 56.0049 52.0151C56.2007 52.0151 56.3605 52.1733 56.3605 52.3672C56.3605 52.5611 56.2007 52.7192 56.0049 52.7192Z" fill="#1E1E1E"/>
<path d="M56.0049 55.459C55.8091 55.459 55.6494 55.3008 55.6494 55.1069C55.6494 54.913 55.8091 54.7549 56.0049 54.7549C56.2007 54.7549 56.3605 54.913 56.3605 55.1069C56.3605 55.3008 56.2007 55.459 56.0049 55.459Z" fill="#1E1E1E"/>
<path d="M53.7637 33.5766C53.9601 33.5766 54.1193 33.419 54.1193 33.2246C54.1193 33.0302 53.9601 32.8726 53.7637 32.8726C53.5674 32.8726 53.4082 33.0302 53.4082 33.2246C53.4082 33.419 53.5674 33.5766 53.7637 33.5766Z" fill="#1E1E1E"/>
<path d="M53.7637 36.311C53.5679 36.311 53.4082 36.1529 53.4082 35.959C53.4082 35.7651 53.5679 35.6069 53.7637 35.6069C53.9595 35.6069 54.1193 35.7651 54.1193 35.959C54.1193 36.1529 53.9595 36.311 53.7637 36.311Z" fill="#1E1E1E"/>
<path d="M53.7637 39.0459C53.9601 39.0459 54.1193 38.8883 54.1193 38.6938C54.1193 38.4994 53.9601 38.3418 53.7637 38.3418C53.5674 38.3418 53.4082 38.4994 53.4082 38.6938C53.4082 38.8883 53.5674 39.0459 53.7637 39.0459Z" fill="#1E1E1E"/>
<path d="M53.7637 41.7807C53.5679 41.7807 53.4082 41.6226 53.4082 41.4287C53.4082 41.2348 53.5679 41.0767 53.7637 41.0767C53.9595 41.0767 54.1193 41.2348 54.1193 41.4287C54.1193 41.6226 53.9595 41.7807 53.7637 41.7807Z" fill="#1E1E1E"/>
<path d="M53.7637 44.5151C53.9601 44.5151 54.1193 44.3575 54.1193 44.1631C54.1193 43.9687 53.9601 43.811 53.7637 43.811C53.5674 43.811 53.4082 43.9687 53.4082 44.1631C53.4082 44.3575 53.5674 44.5151 53.7637 44.5151Z" fill="#1E1E1E"/>
<path d="M53.7637 47.25C53.5679 47.25 53.4082 47.0918 53.4082 46.8979C53.4082 46.7041 53.5679 46.5459 53.7637 46.5459C53.9595 46.5459 54.1193 46.7041 54.1193 46.8979C54.1193 47.0918 53.9595 47.25 53.7637 47.25Z" fill="#1E1E1E"/>
<path d="M53.7637 49.9897C53.9601 49.9897 54.1193 49.8321 54.1193 49.6377C54.1193 49.4433 53.9601 49.2856 53.7637 49.2856C53.5674 49.2856 53.4082 49.4433 53.4082 49.6377C53.4082 49.8321 53.5674 49.9897 53.7637 49.9897Z" fill="#1E1E1E"/>
<path d="M53.7637 52.7192C53.5679 52.7192 53.4082 52.5611 53.4082 52.3672C53.4082 52.1733 53.5679 52.0151 53.7637 52.0151C53.9595 52.0151 54.1193 52.1733 54.1193 52.3672C54.1193 52.5611 53.9595 52.7192 53.7637 52.7192Z" fill="#1E1E1E"/>
<path d="M53.7637 55.459C53.5679 55.459 53.4082 55.3008 53.4082 55.1069C53.4082 54.913 53.5679 54.7549 53.7637 54.7549C53.9595 54.7549 54.1193 54.913 54.1193 55.1069C54.1193 55.3008 53.9595 55.459 53.7637 55.459Z" fill="#1E1E1E"/>
<path d="M51.522 33.5766C51.3262 33.5766 51.1665 33.4185 51.1665 33.2246C51.1665 33.0307 51.3262 32.8726 51.522 32.8726C51.7178 32.8726 51.8776 33.0307 51.8776 33.2246C51.8776 33.4185 51.7178 33.5766 51.522 33.5766Z" fill="#1E1E1E"/>
<path d="M51.522 36.311C51.3262 36.311 51.1665 36.1529 51.1665 35.959C51.1665 35.7651 51.3262 35.6069 51.522 35.6069C51.7178 35.6069 51.8776 35.7651 51.8776 35.959C51.8776 36.1529 51.7178 36.311 51.522 36.311Z" fill="#1E1E1E"/>
<path d="M51.522 39.0459C51.3262 39.0459 51.1665 38.8877 51.1665 38.6938C51.1665 38.5 51.3262 38.3418 51.522 38.3418C51.7178 38.3418 51.8776 38.5 51.8776 38.6938C51.8776 38.8877 51.7178 39.0459 51.522 39.0459Z" fill="#1E1E1E"/>
<path d="M51.522 41.7807C51.3262 41.7807 51.1665 41.6226 51.1665 41.4287C51.1665 41.2348 51.3262 41.0767 51.522 41.0767C51.7178 41.0767 51.8776 41.2348 51.8776 41.4287C51.8776 41.6226 51.7178 41.7807 51.522 41.7807Z" fill="#1E1E1E"/>
<path d="M51.522 44.5151C51.3262 44.5151 51.1665 44.357 51.1665 44.1631C51.1665 43.9692 51.3262 43.811 51.522 43.811C51.7178 43.811 51.8776 43.9692 51.8776 44.1631C51.8776 44.357 51.7178 44.5151 51.522 44.5151Z" fill="#1E1E1E"/>
<path d="M51.522 47.25C51.3262 47.25 51.1665 47.0918 51.1665 46.8979C51.1665 46.7041 51.3262 46.5459 51.522 46.5459C51.7178 46.5459 51.8776 46.7041 51.8776 46.8979C51.8776 47.0918 51.7178 47.25 51.522 47.25Z" fill="#1E1E1E"/>
<path d="M51.522 49.9848C51.3262 49.9848 51.1665 49.8267 51.1665 49.6328C51.1665 49.4389 51.3262 49.2808 51.522 49.2808C51.7178 49.2808 51.8776 49.4389 51.8776 49.6328C51.8776 49.8267 51.7178 49.9848 51.522 49.9848Z" fill="#1E1E1E"/>
<path d="M51.522 52.7192C51.3262 52.7192 51.1665 52.5611 51.1665 52.3672C51.1665 52.1733 51.3262 52.0151 51.522 52.0151C51.7178 52.0151 51.8776 52.1733 51.8776 52.3672C51.8776 52.5611 51.7178 52.7192 51.522 52.7192Z" fill="#1E1E1E"/>
<path d="M51.522 55.459C51.3262 55.459 51.1665 55.3008 51.1665 55.1069C51.1665 54.913 51.3262 54.7549 51.522 54.7549C51.7178 54.7549 51.8776 54.913 51.8776 55.1069C51.8776 55.3008 51.7178 55.459 51.522 55.459Z" fill="#1E1E1E"/>
<path d="M49.2808 33.5766C49.085 33.5766 48.9253 33.4185 48.9253 33.2246C48.9253 33.0307 49.085 32.8726 49.2808 32.8726C49.4766 32.8726 49.6364 33.0307 49.6364 33.2246C49.6364 33.4185 49.4766 33.5766 49.2808 33.5766Z" fill="#1E1E1E"/>
<path d="M49.2808 36.311C49.085 36.311 48.9253 36.1529 48.9253 35.959C48.9253 35.7651 49.085 35.6069 49.2808 35.6069C49.4766 35.6069 49.6364 35.7651 49.6364 35.959C49.6364 36.1529 49.4766 36.311 49.2808 36.311Z" fill="#1E1E1E"/>
<path d="M49.2808 39.0459C49.085 39.0459 48.9253 38.8877 48.9253 38.6938C48.9253 38.5 49.085 38.3418 49.2808 38.3418C49.4766 38.3418 49.6364 38.5 49.6364 38.6938C49.6364 38.8877 49.4766 39.0459 49.2808 39.0459Z" fill="#1E1E1E"/>
<path d="M49.2808 41.7807C49.085 41.7807 48.9253 41.6226 48.9253 41.4287C48.9253 41.2348 49.085 41.0767 49.2808 41.0767C49.4766 41.0767 49.6364 41.2348 49.6364 41.4287C49.6364 41.6226 49.4766 41.7807 49.2808 41.7807Z" fill="#1E1E1E"/>
<path d="M49.2808 44.5151C49.085 44.5151 48.9253 44.357 48.9253 44.1631C48.9253 43.9692 49.085 43.811 49.2808 43.811C49.4766 43.811 49.6364 43.9692 49.6364 44.1631C49.6364 44.357 49.4766 44.5151 49.2808 44.5151Z" fill="#1E1E1E"/>
<path d="M49.2808 47.25C49.085 47.25 48.9253 47.0918 48.9253 46.8979C48.9253 46.7041 49.085 46.5459 49.2808 46.5459C49.4766 46.5459 49.6364 46.7041 49.6364 46.8979C49.6364 47.0918 49.4766 47.25 49.2808 47.25Z" fill="#1E1E1E"/>
<path d="M49.2808 49.9848C49.085 49.9848 48.9253 49.8267 48.9253 49.6328C48.9253 49.4389 49.085 49.2808 49.2808 49.2808C49.4766 49.2808 49.6364 49.4389 49.6364 49.6328C49.6364 49.8267 49.4766 49.9848 49.2808 49.9848Z" fill="#1E1E1E"/>
<path d="M49.2808 52.7192C49.085 52.7192 48.9253 52.5611 48.9253 52.3672C48.9253 52.1733 49.085 52.0151 49.2808 52.0151C49.4766 52.0151 49.6364 52.1733 49.6364 52.3672C49.6364 52.5611 49.4766 52.7192 49.2808 52.7192Z" fill="#1E1E1E"/>
<path d="M49.2808 55.459C49.085 55.459 48.9253 55.3008 48.9253 55.1069C48.9253 54.913 49.085 54.7549 49.2808 54.7549C49.4766 54.7549 49.6364 54.913 49.6364 55.1069C49.6364 55.3008 49.4766 55.459 49.2808 55.459Z" fill="#1E1E1E"/>
<path d="M47.0445 33.5766C46.8487 33.5766 46.689 33.4185 46.689 33.2246C46.689 33.0307 46.8487 32.8726 47.0445 32.8726C47.2403 32.8726 47.4 33.0307 47.4 33.2246C47.4 33.4185 47.2403 33.5766 47.0445 33.5766Z" fill="#1E1E1E"/>
<path d="M47.0445 36.311C46.8487 36.311 46.689 36.1529 46.689 35.959C46.689 35.7651 46.8487 35.6069 47.0445 35.6069C47.2403 35.6069 47.4 35.7651 47.4 35.959C47.4 36.1529 47.2403 36.311 47.0445 36.311Z" fill="#1E1E1E"/>
<path d="M47.0445 39.0459C46.8487 39.0459 46.689 38.8877 46.689 38.6938C46.689 38.5 46.8487 38.3418 47.0445 38.3418C47.2403 38.3418 47.4 38.5 47.4 38.6938C47.4 38.8877 47.2403 39.0459 47.0445 39.0459Z" fill="#1E1E1E"/>
<path d="M47.0445 41.7807C46.8487 41.7807 46.689 41.6226 46.689 41.4287C46.689 41.2348 46.8487 41.0767 47.0445 41.0767C47.2403 41.0767 47.4 41.2348 47.4 41.4287C47.4 41.6226 47.2403 41.7807 47.0445 41.7807Z" fill="#1E1E1E"/>
<path d="M47.0445 44.5151C46.8487 44.5151 46.689 44.357 46.689 44.1631C46.689 43.9692 46.8487 43.811 47.0445 43.811C47.2403 43.811 47.4 43.9692 47.4 44.1631C47.4 44.357 47.2403 44.5151 47.0445 44.5151Z" fill="#1E1E1E"/>
<path d="M47.0445 47.25C46.8487 47.25 46.689 47.0918 46.689 46.8979C46.689 46.7041 46.8487 46.5459 47.0445 46.5459C47.2403 46.5459 47.4 46.7041 47.4 46.8979C47.4 47.0918 47.2403 47.25 47.0445 47.25Z" fill="#1E1E1E"/>
<path d="M47.0445 49.9848C46.8487 49.9848 46.689 49.8267 46.689 49.6328C46.689 49.4389 46.8487 49.2808 47.0445 49.2808C47.2403 49.2808 47.4 49.4389 47.4 49.6328C47.4 49.8267 47.2403 49.9848 47.0445 49.9848Z" fill="#1E1E1E"/>
<path d="M47.0445 52.7192C46.8487 52.7192 46.689 52.5611 46.689 52.3672C46.689 52.1733 46.8487 52.0151 47.0445 52.0151C47.2403 52.0151 47.4 52.1733 47.4 52.3672C47.4 52.5611 47.2403 52.7192 47.0445 52.7192Z" fill="#1E1E1E"/>
<path d="M47.0445 55.459C46.8487 55.459 46.689 55.3008 46.689 55.1069C46.689 54.913 46.8487 54.7549 47.0445 54.7549C47.2403 54.7549 47.4 54.913 47.4 55.1069C47.4 55.3008 47.2403 55.459 47.0445 55.459Z" fill="#1E1E1E"/>
<path d="M44.8033 33.5766C44.6075 33.5766 44.4478 33.4185 44.4478 33.2246C44.4478 33.0307 44.6075 32.8726 44.8033 32.8726C44.9991 32.8726 45.1588 33.0307 45.1588 33.2246C45.1588 33.4185 44.9991 33.5766 44.8033 33.5766Z" fill="#1E1E1E"/>
<path d="M44.8033 36.311C44.6075 36.311 44.4478 36.1529 44.4478 35.959C44.4478 35.7651 44.6075 35.6069 44.8033 35.6069C44.9991 35.6069 45.1588 35.7651 45.1588 35.959C45.1588 36.1529 44.9991 36.311 44.8033 36.311Z" fill="#1E1E1E"/>
<path d="M44.8033 39.0459C44.6075 39.0459 44.4478 38.8877 44.4478 38.6938C44.4478 38.5 44.6075 38.3418 44.8033 38.3418C44.9991 38.3418 45.1588 38.5 45.1588 38.6938C45.1588 38.8877 44.9991 39.0459 44.8033 39.0459Z" fill="#1E1E1E"/>
<path d="M44.8033 41.7807C44.6075 41.7807 44.4478 41.6226 44.4478 41.4287C44.4478 41.2348 44.6075 41.0767 44.8033 41.0767C44.9991 41.0767 45.1588 41.2348 45.1588 41.4287C45.1588 41.6226 44.9991 41.7807 44.8033 41.7807Z" fill="#1E1E1E"/>
<path d="M44.8033 44.5151C44.6075 44.5151 44.4478 44.357 44.4478 44.1631C44.4478 43.9692 44.6075 43.811 44.8033 43.811C44.9991 43.811 45.1588 43.9692 45.1588 44.1631C45.1588 44.357 44.9991 44.5151 44.8033 44.5151Z" fill="#1E1E1E"/>
<path d="M44.8033 47.25C44.6075 47.25 44.4478 47.0918 44.4478 46.8979C44.4478 46.7041 44.6075 46.5459 44.8033 46.5459C44.9991 46.5459 45.1588 46.7041 45.1588 46.8979C45.1588 47.0918 44.9991 47.25 44.8033 47.25Z" fill="#1E1E1E"/>
<path d="M44.8033 49.9848C44.6075 49.9848 44.4478 49.8267 44.4478 49.6328C44.4478 49.4389 44.6075 49.2808 44.8033 49.2808C44.9991 49.2808 45.1588 49.4389 45.1588 49.6328C45.1588 49.8267 44.9991 49.9848 44.8033 49.9848Z" fill="#1E1E1E"/>
<path d="M44.8033 52.7192C44.6075 52.7192 44.4478 52.5611 44.4478 52.3672C44.4478 52.1733 44.6075 52.0151 44.8033 52.0151C44.9991 52.0151 45.1588 52.1733 45.1588 52.3672C45.1588 52.5611 44.9991 52.7192 44.8033 52.7192Z" fill="#1E1E1E"/>
<path d="M44.8033 55.459C44.6075 55.459 44.4478 55.3008 44.4478 55.1069C44.4478 54.913 44.6075 54.7549 44.8033 54.7549C44.9991 54.7549 45.1588 54.913 45.1588 55.1069C45.1588 55.3008 44.9991 55.459 44.8033 55.459Z" fill="#1E1E1E"/>
</g>
<path d="M45.9367 58.5916H90.6509V47.3314L81.1444 40.1528L71.4163 43.7396L62.1313 50.9232L52.6248 47.3314L43.5459 50.9232V58.5916H45.9367Z" fill="#00E0E3"/>
<path d="M90.6507 58.8468H43.5457C43.4014 58.8468 43.2881 58.7346 43.2881 58.5917V50.9183C43.2881 50.8162 43.3499 50.7193 43.4478 50.6836L52.5267 47.0917C52.5885 47.0662 52.6555 47.0662 52.7122 47.0917L62.0848 50.6326L71.2564 43.5407C71.2564 43.5407 71.2976 43.5101 71.3234 43.505L81.0515 39.9132C81.1339 39.8826 81.2266 39.8979 81.2988 39.9489L90.8053 47.1275C90.8672 47.1734 90.9084 47.2499 90.9084 47.3315V58.5917C90.9084 58.7346 90.795 58.8468 90.6507 58.8468ZM43.8033 58.3366H90.3931V47.4591L81.103 40.4387L71.5501 43.9642L62.296 51.1172C62.2239 51.1734 62.1311 51.1887 62.0435 51.153L52.6297 47.5968L43.8085 51.0866V58.3315L43.8033 58.3366Z" fill="#1E1E1E"/>
<path d="M120 19.1069H98.7354V19.6171H120V19.1069Z" fill="#1E1E1E"/>
<path d="M120 22.6685H98.7354V23.1787H120V22.6685Z" fill="#1E1E1E"/>
<path d="M120 26.2295H98.7354V26.7397H120V26.2295Z" fill="#1E1E1E"/>
<path d="M120 29.791H98.7354V30.3012H120V29.791Z" fill="#1E1E1E"/>
<path d="M120 33.3521H98.7354V33.8623H120V33.3521Z" fill="#1E1E1E"/>
<path d="M120 36.9131H98.7354V37.4233H120V36.9131Z" fill="#1E1E1E"/>
<path d="M120 40.4692H98.7354V40.9794H120V40.4692Z" fill="#1E1E1E"/>
<path d="M120 44.0308H98.7354V44.541H120V44.0308Z" fill="#1E1E1E"/>
<path d="M120 47.5918H98.7354V48.102H120V47.5918Z" fill="#1E1E1E"/>
<path d="M120 51.1528H98.7354V51.663H120V51.1528Z" fill="#1E1E1E"/>
<path d="M120 54.7144H98.7354V55.2246H120V54.7144Z" fill="#1E1E1E"/>
<path d="M120 58.2754H98.7354V58.7856H120V58.2754Z" fill="#1E1E1E"/>
</g>
<path d="M41.8893 81.0435H31.9146C33.2724 78.6151 33.96 77.3966 35.3178 74.9595H44.5962C43.5169 77.3879 42.9686 78.6064 41.8893 81.0435Z" fill="#2A2628"/>
<path d="M54.4059 81.0435H44.4312C45.4408 78.6151 45.9456 77.3966 46.964 74.9595H56.2424C55.5113 77.3879 55.1457 78.6064 54.4059 81.0435Z" fill="#2A2628"/>
<path d="M66.922 81.0435H56.9473C57.6088 78.6151 57.9395 77.3966 58.601 74.9595H67.8794C67.4965 77.3879 67.305 78.6064 66.922 81.0435Z" fill="#2A2628"/>
<path d="M79.4464 81.0435H69.4717C69.785 78.6151 69.9417 77.3966 70.255 74.9595H79.5335C79.4986 77.3879 79.4812 78.6064 79.4464 81.0435Z" fill="#2A2628"/>
<path d="M91.9631 81.0435H81.9884C81.9536 78.6151 81.9362 77.3966 81.9014 74.9595H91.1798C91.4931 77.3879 91.6498 78.6064 91.9631 81.0435Z" fill="#2A2628"/>
<path d="M104.479 81.0435H94.5043C94.1213 78.6151 93.9298 77.3966 93.5469 74.9595H102.825C103.487 77.3879 103.818 78.6064 104.479 81.0435Z" fill="#2A2628"/>
<path d="M116.996 81.0435H107.021C106.29 78.6151 105.924 77.3966 105.185 74.9595H114.463C115.473 77.3879 115.977 78.6064 116.996 81.0435Z" fill="#2A2628"/>
<path d="M129.512 81.0435H119.537C118.458 78.6151 117.909 77.3966 116.83 74.9595H126.108C127.466 77.3879 128.154 78.6064 129.512 81.0435Z" fill="#2A2628"/>
<path d="M38.1548 89.4346H27.2227C28.5805 87.0062 29.2681 85.7877 30.6259 83.3506H40.8618C39.7825 85.779 39.2341 86.9975 38.1548 89.4346Z" fill="#2A2628"/>
<path d="M51.8731 89.4346H40.9409C41.9506 87.0062 42.4554 85.7877 43.4738 83.3506H53.7096C52.9785 85.779 52.6129 86.9975 51.8731 89.4346Z" fill="#2A2628"/>
<path d="M65.5987 89.4346H54.6665C55.328 87.0062 55.6588 85.7877 56.3203 83.3506H66.5561C66.1731 85.779 65.9816 86.9975 65.5987 89.4346Z" fill="#2A2628"/>
<path d="M79.3252 89.4346H68.3931C68.7064 87.0062 68.8631 85.7877 69.1764 83.3506H79.4123C79.3775 85.779 79.36 86.9975 79.3252 89.4346Z" fill="#2A2628"/>
<path d="M93.0431 89.4346H82.111C82.0761 87.0062 82.0587 85.7877 82.0239 83.3506H92.2598C92.5731 85.779 92.7298 86.9975 93.0431 89.4346Z" fill="#2A2628"/>
<path d="M106.769 89.4346H95.8363C95.4534 87.0062 95.2619 85.7877 94.8789 83.3506H105.115C105.776 85.779 106.107 86.9975 106.769 89.4346Z" fill="#2A2628"/>
<path d="M120.486 89.4346H109.554C108.823 87.0062 108.457 85.7877 107.717 83.3506H117.953C118.963 85.779 119.468 86.9975 120.486 89.4346Z" fill="#2A2628"/>
<path d="M134.212 89.4346H123.28C122.2 87.0062 121.652 85.7877 120.573 83.3506H130.809C132.166 85.779 132.854 86.9975 134.212 89.4346Z" fill="#2A2628"/>
<path d="M34.4125 97.8223H22.5229C23.8808 95.3939 24.5684 94.1754 25.9262 91.7383H37.1195C36.0402 94.1667 35.4918 95.3852 34.4125 97.8223Z" fill="#2A2628"/>
<path d="M49.3398 97.8223H37.4502C38.4599 95.3939 38.9647 94.1754 39.983 91.7383H51.185C50.4539 94.1667 50.0883 95.3852 49.3485 97.8223H49.3398Z" fill="#2A2628"/>
<path d="M98.6303 91.7485H54.04C53.3785 94.1769 53.0477 95.3955 52.3862 97.8326H109.066C108.405 95.4042 108.074 94.1856 107.413 91.7485H98.639H98.6303Z" fill="#2A2628"/>
<path d="M123.985 97.8223H112.095C111.364 95.3939 110.999 94.1754 110.259 91.7383H121.461C122.47 94.1667 122.975 95.3852 123.994 97.8223H123.985Z" fill="#2A2628"/>
<path d="M138.903 97.8223H127.014C125.934 95.3939 125.386 94.1754 124.307 91.7383H135.5C136.858 94.1667 137.545 95.3852 138.903 97.8223Z" fill="#2A2628"/>
<path d="M106.324 114.405H50.3318C50.1925 114.405 50.0532 114.335 49.9749 114.222C49.8966 114.109 49.8705 113.952 49.9227 113.821L54.3965 101.845C54.4574 101.671 54.6228 101.558 54.8056 101.558H102.869C103.06 101.558 103.234 101.688 103.287 101.871L106.751 113.848C106.786 113.978 106.759 114.117 106.681 114.231C106.603 114.335 106.472 114.405 106.333 114.405H106.324ZM50.9497 113.534H105.741L102.529 102.428H55.1015L50.9497 113.534Z" fill="#2A2628"/>
<path d="M210.015 161.032L211.599 182.696C212.287 192.036 204.889 200 195.523 200H183.172L187.69 175.046L184.931 156.793L210.015 161.024V161.032Z" fill="#F7B49F"/>
<path d="M75.9739 109.427C75.2253 112.526 77.7234 121.63 70.0378 130.151C69.9769 130.221 43.6126 131.622 43.6126 131.622L40.8447 112.082C40.8447 112.082 40.836 105.963 45.0574 102.934C45.6928 102.473 46.5023 102.316 47.2595 102.499L47.4075 102.542C47.4075 102.542 48.1212 95.6314 52.5777 96.2493C52.5777 96.2493 55.772 88.2243 60.2981 89.7649C60.2981 89.7649 62.7091 90.3481 63.5882 93.0637C63.5882 93.0637 68.7757 86.292 72.8753 86.3529C76.9748 86.4139 74.999 89.3993 71.7002 94.0037C68.4014 98.6081 66.6607 110.263 69.5156 110.768C69.5156 110.768 67.0262 109.462 68.0794 107.182C68.0794 107.182 67.8531 94.9699 71.5958 96.6323C75.3385 98.2861 76.7311 106.355 75.9739 109.445V109.427Z" fill="#F7B49F"/>
<path d="M60.0023 104.326C60.0023 104.326 59.9762 104.326 59.9675 104.326C59.7238 104.308 59.5497 104.091 59.5671 103.856C60.011 98.7202 63.0835 93.0801 63.2141 92.8451C63.3272 92.6362 63.597 92.5578 63.8059 92.671C64.0148 92.7841 64.0932 93.054 63.98 93.2629C63.9452 93.3151 60.8727 98.9726 60.4375 103.925C60.4201 104.151 60.2286 104.326 60.0023 104.326Z" fill="#2A2628"/>
<path d="M50.8811 104.299C50.6461 104.299 50.4546 104.116 50.4459 103.881C50.3414 100.704 52.1083 96.2651 52.1867 96.0824C52.2737 95.8561 52.5261 95.7516 52.7524 95.8387C52.9787 95.9257 53.0832 96.1781 52.9961 96.4044C52.9787 96.4479 51.2292 100.852 51.3163 103.855C51.3163 104.099 51.1335 104.299 50.8985 104.308H50.8811V104.299Z" fill="#2A2628"/>
<path d="M46.5198 108.392C46.2848 108.392 46.0933 108.209 46.0846 107.974C45.9714 104.858 46.9724 102.465 47.0159 102.36C47.1117 102.142 47.3641 102.038 47.5817 102.134C47.7993 102.23 47.9037 102.482 47.8167 102.7C47.808 102.726 46.8505 105.023 46.955 107.948C46.955 108.192 46.7722 108.392 46.5372 108.401H46.5198V108.392Z" fill="#2A2628"/>
<path d="M68.0797 107.598C67.836 107.598 67.6445 107.406 67.6445 107.162C67.6445 100.469 69.7596 96.6654 69.8553 96.5C69.9772 96.2911 70.2383 96.2215 70.4472 96.3347C70.6561 96.4565 70.7257 96.7176 70.6126 96.9265C70.5952 96.9613 68.5236 100.713 68.5149 107.154C68.5149 107.397 68.3234 107.589 68.0797 107.589V107.598Z" fill="#2A2628"/>
<path d="M34.2558 177.943L44.1435 126.842C44.1435 126.842 53.1956 119.653 65.7032 126.842C78.2107 134.032 59.9237 165.993 59.9237 165.993L34.2471 177.943H34.2558Z" fill="#F7B49F"/>
<path d="M50.141 150.646L37.0851 171.092C33.0029 177.481 32.5851 185.68 36.38 192.234C38.4603 195.829 41.7156 198.91 46.8074 199.78C60.9165 202.174 78.1677 184.078 78.1677 184.078L73.163 158.515L50.141 150.646Z" fill="#F7B49F"/>
<path d="M146.964 53.6348C146.964 53.6348 133.89 54.4094 133.595 66.83C133.351 77.414 146.964 53.6348 146.964 53.6348Z" fill="#2A2628"/>
<path d="M140.531 59.7871C140.531 59.7871 146.241 51.8403 159.227 61.5104C172.214 71.1718 164.067 86.5082 153.909 90.2248C153.021 90.5468 148.913 90.7644 148.191 90.9559C140.366 93.0623 143.83 90.2596 143.83 90.2596L140.531 59.7957V59.7871Z" fill="#2A2628"/>
<path d="M135.117 111.731H135.413C143.064 111.731 149.253 105.517 149.244 97.8658C149.235 88.5091 149.531 78.1079 150.428 73.46L129.651 85.7935C129.651 85.7935 129.834 97.4655 129.756 106.326C129.73 109.303 132.141 111.731 135.117 111.731Z" fill="#F7B49F"/>
<path d="M151.638 82.6186L141.219 90.252C137.529 91.2007 133.734 90.6959 130.766 88.3371C125.465 84.1244 125.204 78.3885 128.12 72.2609C128.25 71.9737 128.398 71.6865 128.546 71.3992C129.042 70.4418 129.608 69.4757 130.252 68.5095C130.287 68.4486 130.33 68.3964 130.365 68.3442C130.391 68.3093 130.417 68.2658 130.444 68.231C135.37 60.9023 141.715 57.7166 148.217 61.9903C156.338 67.3519 156.59 75.1158 151.646 82.6186H151.638Z" fill="#F7B49F"/>
<path d="M145.292 87.03C145.292 87.03 149.845 78.4479 145.615 73.2255L147.817 70.9712L157.852 79.6577L152.604 84.9236L149.305 90.7988H149.201C148.652 90.7988 148.121 90.5464 147.782 90.1199L145.301 87.0387L145.292 87.03Z" fill="#2A2628"/>
<path d="M133.481 78.3791C131.592 78.3791 129.817 77.1693 128.929 76.2728C128.763 76.0987 128.763 75.8289 128.929 75.6548C129.103 75.4894 129.373 75.4894 129.547 75.6548C129.677 75.7854 132.75 78.8317 135.457 76.8472C135.648 76.708 135.927 76.7428 136.066 76.943C136.205 77.1345 136.17 77.413 135.97 77.5523C135.161 78.1441 134.308 78.3791 133.481 78.3791Z" fill="#D86C6C"/>
<path d="M136.118 89.2945C131.566 89.2945 128.842 87.0924 128.703 86.9793C128.52 86.8226 128.494 86.5528 128.642 86.37C128.79 86.1872 129.068 86.1611 129.251 86.3091C129.294 86.3439 133.429 89.6601 139.922 87.9019C140.148 87.841 140.392 87.9715 140.453 88.2065C140.514 88.4416 140.375 88.6766 140.148 88.7375C138.686 89.1379 137.337 89.2945 136.118 89.2945Z" fill="#2A2628"/>
<path d="M133.516 69.3522C133.081 69.9266 133.072 70.6491 133.481 70.9537C133.89 71.2583 134.578 71.0407 135.004 70.4663C135.431 69.8918 135.448 69.1694 135.039 68.8647C134.63 68.5601 133.942 68.7777 133.516 69.3522Z" fill="#2A2628"/>
<path d="M133.925 71.5306C133.673 71.5306 133.429 71.461 133.22 71.3043C132.602 70.843 132.585 69.8769 133.168 69.0935C133.429 68.7453 133.777 68.4842 134.151 68.3624C134.569 68.2231 134.987 68.284 135.3 68.519C135.918 68.9804 135.936 69.9465 135.353 70.7298C134.961 71.2521 134.421 71.5393 133.916 71.5393L133.925 71.5306ZM133.864 69.607C133.568 70.0074 133.551 70.46 133.742 70.5993C133.925 70.7386 134.36 70.5993 134.656 70.1989C134.952 69.7985 134.97 69.3459 134.778 69.2067C134.665 69.1283 134.508 69.1544 134.413 69.1892C134.212 69.2502 134.012 69.4068 133.855 69.6157L133.864 69.607Z" fill="#2A2628"/>
<path d="M139 66.2449C138.791 66.5844 138.007 66.48 137.241 66.0186C136.484 65.5573 136.032 64.9045 136.24 64.5651C136.449 64.2256 137.233 64.3301 137.999 64.7914C138.756 65.2527 139.208 65.9055 139 66.2449Z" fill="#2A2628"/>
<path d="M140.296 74.5064C139.722 75.6728 138.312 76.1428 137.146 75.5683C135.979 74.9938 135.509 73.5838 136.084 72.4175C136.658 71.2511 138.068 70.7811 139.234 71.3556C140.401 71.9301 140.871 73.3401 140.296 74.5064Z" fill="#E88585"/>
<path d="M128.371 69.233C127.797 70.1469 128.058 71.348 128.963 71.9225C129.868 72.4969 131.07 72.2184 131.644 71.3045C132.219 70.3906 131.957 69.1894 131.052 68.615C130.147 68.0405 128.946 68.319 128.371 69.233Z" fill="#F7B49F"/>
<path d="M151.255 77.8323C151.255 77.8323 146.32 77.2404 143.726 75.4039C141.132 73.5587 137.999 64.7938 143.195 58.2571C147.364 53.0086 155.833 64.0017 155.833 64.0017L158.218 71.0955L154.754 77.7018C154.754 77.7018 152.491 77.1012 151.255 77.841V77.8323Z" fill="#2A2628"/>
<path d="M146.963 53.6348C146.963 53.6348 163.109 54.5661 165.459 65.8116C165.459 65.8116 166.008 70.7119 161.464 72.1307C156.921 73.5494 147.686 62.8174 147.686 62.8174L141.732 57.891L146.972 53.6348H146.963Z" fill="#2A2628"/>
<path d="M140.723 79.8082C140.905 80.374 141.201 80.8962 141.637 81.3401C143.351 83.0983 146.441 82.8546 148.539 80.8092C150.636 78.7637 150.941 75.6738 149.226 73.9243C148.321 73.0017 147.042 72.6275 145.719 72.7841C145.719 72.7841 144.326 73.0104 142.655 74.4553L140.723 79.8169V79.8082Z" fill="#F7B49F"/>
<path d="M144.282 78.3344C144.204 78.3344 144.134 78.317 144.065 78.2734C143.856 78.1516 143.786 77.8818 143.908 77.6816C144.308 76.9939 144.848 76.5675 145.501 76.4021C146.632 76.1148 147.686 76.7328 147.729 76.7676C147.938 76.8895 147.999 77.1593 147.877 77.3595C147.755 77.5684 147.485 77.6293 147.285 77.5075C147.285 77.5075 146.484 77.0462 145.71 77.2464C145.283 77.3595 144.935 77.6555 144.657 78.1255C144.578 78.2647 144.43 78.3431 144.282 78.3431V78.3344Z" fill="#2A2628"/>
<path d="M123.854 98.7456C123.854 98.7456 97.8992 96.6654 79.2118 110.687C60.5244 124.701 50.1406 150.656 50.1406 150.656C50.1406 150.656 62.0825 176.298 78.1674 184.088L82.8414 179.727L79.882 199.99H183.181L187.698 175.053C187.698 175.053 205.35 167.785 210.015 161.04C210.015 161.04 204.305 101.644 167.966 98.6412H157.582L123.846 98.7456H123.854Z" fill="#2962F6"/>
<path d="M39.5742 167.637C39.4959 167.637 39.4088 167.611 39.3392 167.568C39.139 167.437 39.0781 167.167 39.2086 166.967L49.7752 150.421C49.9058 150.221 50.1756 150.16 50.3758 150.29C50.576 150.421 50.6369 150.691 50.5064 150.891L39.9398 167.437C39.8527 167.568 39.7135 167.637 39.5742 167.637Z" fill="#2A2628"/>
<path d="M83.1718 180.005L82.519 179.43C82.519 179.43 93.8168 166.479 97.2287 162.553C97.3854 162.371 97.6639 162.353 97.8467 162.51C98.0295 162.667 98.0469 162.945 97.8902 163.128C94.487 167.045 83.1805 180.005 83.1805 180.005H83.1718Z" fill="#2A2628"/>
<path d="M187.698 175.482C187.698 175.482 187.655 175.482 187.628 175.482C187.393 175.447 187.228 175.22 187.263 174.985C187.28 174.907 188.569 166.63 189.213 156.777C189.23 156.533 189.43 156.342 189.674 156.368C189.918 156.385 190.092 156.594 190.083 156.829C189.439 166.725 188.142 175.038 188.125 175.116C188.09 175.334 187.907 175.482 187.698 175.482Z" fill="#2A2628"/>
<defs>
<clipPath id="clip0_638_10834">
<rect width="78" height="55" fill="white" transform="translate(42 11)"/>
</clipPath>
</defs>
</svg>
