<svg width="200" height="200" viewBox="0 0 200 200" fill="none" xmlns="http://www.w3.org/2000/svg">
<rect width="200" height="200" rx="100" fill="white"/>
<path d="M100.003 147.107C98.6769 147.107 97.6025 146.032 97.6025 144.706V130.624C97.6025 129.298 98.6769 128.223 100.003 128.223C101.33 128.223 102.404 129.298 102.404 130.624V144.706C102.404 146.032 101.33 147.107 100.003 147.107Z" fill="#0068DE"/>
<path d="M122.265 147.108H77.7403C76.4138 147.108 75.3394 146.034 75.3394 144.708C75.3394 143.381 76.4138 142.307 77.7403 142.307H122.265C123.592 142.307 124.666 143.381 124.666 144.708C124.666 146.034 123.592 147.108 122.265 147.108Z" fill="#0068DE"/>
<path d="M150.933 60.8778C150.933 58.0388 148.628 55.7339 145.789 55.7339H54.2123C51.3672 55.7339 49.0684 58.0388 49.0684 60.8778V116.045H150.933V60.8778Z" fill="white"/>
<path d="M150.933 118.446H49.0684C47.7419 118.446 46.6675 117.371 46.6675 116.045V60.8776C46.6675 56.7181 50.0528 53.3328 54.2124 53.3328H145.789C149.949 53.3328 153.334 56.7181 153.334 60.8776V116.045C153.334 117.371 152.26 118.446 150.933 118.446ZM51.4693 113.644H148.532V60.8776C148.532 59.3651 147.302 58.1346 145.789 58.1346H54.2124C52.6998 58.1346 51.4693 59.3651 51.4693 60.8776V113.644Z" fill="#0068DE"/>
<path d="M49.0684 116.046V125.134C49.0684 127.973 51.3732 130.278 54.2123 130.278H145.789C148.628 130.278 150.933 127.973 150.933 125.134V116.046H49.0684Z" fill="#99CCFF"/>
<path d="M145.789 132.679H54.2124C50.0528 132.679 46.6675 129.293 46.6675 125.134V116.046C46.6675 114.72 47.7419 113.645 49.0684 113.645H150.933C152.26 113.645 153.334 114.72 153.334 116.046V125.134C153.334 129.293 149.949 132.679 145.789 132.679ZM51.4693 118.447V125.134C51.4693 126.646 52.6998 127.877 54.2124 127.877H145.789C147.302 127.877 148.532 126.646 148.532 125.134V118.447H51.4693Z" fill="#0068DE"/>
<path d="M83.2219 66.8796H62.3159V85.7328H83.2219V66.8796Z" fill="#99CCFF"/>
<path d="M127.776 104.901C127.062 104.901 126.384 104.583 125.927 104.03L121.3 98.4363C120.453 97.4159 120.597 95.9033 121.618 95.057C122.638 94.2107 124.151 94.3548 124.997 95.3751L127.572 98.4903L133.292 89.9671C134.031 88.8687 135.525 88.5745 136.624 89.3128C137.728 90.0511 138.016 91.5457 137.278 92.6441L129.763 103.838C129.343 104.469 128.647 104.859 127.89 104.901C127.848 104.901 127.812 104.901 127.77 104.901H127.776Z" fill="#0068DE"/>
<path d="M69.9859 98.2615C69.9859 100.05 68.5333 101.503 66.7447 101.503C64.956 101.503 63.5034 100.05 63.5034 98.2615C63.5034 96.4728 64.956 95.0203 66.7447 95.0203C68.5333 95.0203 69.9859 96.4728 69.9859 98.2615Z" fill="#0068DE"/>
<path d="M83.775 98.2615C83.775 100.05 82.3224 101.503 80.5337 101.503C78.745 101.503 77.2925 100.05 77.2925 98.2615C77.2925 96.4728 78.745 95.0203 80.5337 95.0203C82.3224 95.0203 83.775 96.4728 83.775 98.2615Z" fill="#0068DE"/>
<path d="M97.5616 98.2615C97.5616 100.05 96.109 101.503 94.3203 101.503C92.5317 101.503 91.0791 100.05 91.0791 98.2615C91.0791 96.4728 92.5317 95.0203 94.3203 95.0203C96.109 95.0203 97.5616 96.4728 97.5616 98.2615Z" fill="#0068DE"/>
</svg>
