<svg width="223" height="200" viewBox="0 0 223 200" fill="none" xmlns="http://www.w3.org/2000/svg">
<path d="M184.132 7.93896V119.317C184.132 123.48 180.752 126.843 176.596 126.843H7.93896C3.7757 126.843 0.412109 123.472 0.412109 119.317V7.93896C0.412109 3.78394 3.78394 0.412109 7.93896 0.412109H176.588C180.752 0.412109 184.123 3.78394 184.123 7.93896H184.132Z" fill="#E6E6E7"/>
<path d="M176.588 127.264H7.93906C3.56145 127.264 0 123.703 0 119.325V7.93906C0 3.56145 3.56145 0 7.93906 0H176.588C180.974 0 184.536 3.56145 184.536 7.93906V119.317C184.536 123.694 180.966 127.256 176.588 127.256V127.264ZM7.93906 0.824409C4.01487 0.824409 0.824409 4.01487 0.824409 7.93906V119.317C0.824409 123.241 4.01487 126.431 7.93906 126.431H176.588C180.521 126.431 183.711 123.241 183.711 119.317V7.93906C183.711 4.01487 180.513 0.824409 176.588 0.824409H7.93906Z" fill="#2A2628"/>
<path d="M184.132 7.93896V24.1386H0.412109V7.93896C0.412109 3.78394 3.78394 0.412109 7.93896 0.412109H176.588C180.752 0.412109 184.123 3.78394 184.123 7.93896H184.132Z" fill="#2962F6"/>
<path d="M184.132 24.5591H0.412204C0.18137 24.5591 0 24.3778 0 24.1469V7.93906C0 3.56145 3.56145 0 7.93906 0H176.588C180.974 0 184.536 3.56145 184.536 7.93906V24.1387C184.536 24.3695 184.354 24.5509 184.123 24.5509L184.132 24.5591ZM0.824409 23.7347H183.719V7.93906C183.719 4.01487 180.521 0.824409 176.597 0.824409H7.93906C4.01487 0.824409 0.824409 4.01487 0.824409 7.93906V23.7265V23.7347Z" fill="#2A2628"/>
<path d="M10.5775 14.3538C11.7249 14.3538 12.655 13.4236 12.655 12.2762C12.655 11.1289 11.7249 10.1987 10.5775 10.1987C9.43013 10.1987 8.5 11.1289 8.5 12.2762C8.5 13.4236 9.43013 14.3538 10.5775 14.3538Z" fill="white"/>
<path d="M10.5776 14.7724C9.20084 14.7724 8.08789 13.6512 8.08789 12.2827C8.08789 10.9142 9.20909 9.79297 10.5776 9.79297C11.9461 9.79297 13.0673 10.9142 13.0673 12.2827C13.0673 13.6512 11.9461 14.7724 10.5776 14.7724ZM10.5776 10.6091C9.65427 10.6091 8.9123 11.3593 8.9123 12.2744C8.9123 13.1895 9.66251 13.9397 10.5776 13.9397C11.4927 13.9397 12.2429 13.1895 12.2429 12.2744C12.2429 11.3593 11.4927 10.6091 10.5776 10.6091Z" fill="#2A2628"/>
<path d="M17.535 14.3538C18.6824 14.3538 19.6125 13.4236 19.6125 12.2762C19.6125 11.1289 18.6824 10.1987 17.535 10.1987C16.3877 10.1987 15.4575 11.1289 15.4575 12.2762C15.4575 13.4236 16.3877 14.3538 17.535 14.3538Z" fill="white"/>
<path d="M17.5351 14.7724C16.1584 14.7724 15.0454 13.6512 15.0454 12.2827C15.0454 10.9142 16.1666 9.79297 17.5351 9.79297C18.9036 9.79297 20.0248 10.9142 20.0248 12.2827C20.0248 13.6512 18.9036 14.7724 17.5351 14.7724ZM17.5351 10.6091C16.6118 10.6091 15.8698 11.3593 15.8698 12.2744C15.8698 13.1895 16.62 13.9397 17.5351 13.9397C18.4502 13.9397 19.2004 13.1895 19.2004 12.2744C19.2004 11.3593 18.4502 10.6091 17.5351 10.6091Z" fill="#2A2628"/>
<path d="M24.4925 14.3538C25.6399 14.3538 26.5701 13.4236 26.5701 12.2762C26.5701 11.1289 25.6399 10.1987 24.4925 10.1987C23.3452 10.1987 22.415 11.1289 22.415 12.2762C22.415 13.4236 23.3452 14.3538 24.4925 14.3538Z" fill="white"/>
<path d="M24.4926 14.7724C23.1159 14.7724 22.0029 13.6512 22.0029 12.2827C22.0029 10.9142 23.1241 9.79297 24.4926 9.79297C25.8612 9.79297 26.9824 10.9142 26.9824 12.2827C26.9824 13.6512 25.8612 14.7724 24.4926 14.7724ZM24.4926 10.6091C23.5693 10.6091 22.8273 11.3593 22.8273 12.2744C22.8273 13.1895 23.5775 13.9397 24.4926 13.9397C25.4077 13.9397 26.1579 13.1895 26.1579 12.2744C26.1579 11.3593 25.4077 10.6091 24.4926 10.6091Z" fill="#2A2628"/>
<path d="M194.107 16.7114V128.089C194.107 132.252 190.727 135.616 186.572 135.616H17.9224C13.7591 135.616 10.3955 132.244 10.3955 128.089V16.7114C10.3955 12.5482 13.7673 9.18457 17.9224 9.18457H186.572C190.727 9.18457 194.107 12.5564 194.107 16.7114Z" fill="#E6E6E7"/>
<path d="M186.571 136.036H17.922C13.5444 136.036 9.98291 132.475 9.98291 128.097V16.7115C9.98291 12.3339 13.5444 8.77246 17.922 8.77246H186.571C190.957 8.77246 194.519 12.3339 194.519 16.7115V128.089C194.519 132.467 190.949 136.028 186.571 136.028V136.036ZM17.922 9.59687C13.9978 9.59687 10.8073 12.7873 10.8073 16.7115V128.089C10.8073 132.013 13.9978 135.204 17.922 135.204H186.571C190.504 135.204 193.694 132.013 193.694 128.089V16.7115C193.694 12.7873 190.495 9.59687 186.571 9.59687H17.922Z" fill="#2A2628"/>
<path d="M194.107 16.7114V32.9111H10.3872V16.7114C10.3872 12.5482 13.759 9.18457 17.9141 9.18457H186.563C190.718 9.18457 194.098 12.5564 194.098 16.7114H194.107Z" fill="#00E0E3"/>
<path d="M194.107 33.3218H10.3873C10.1565 33.3218 9.9751 33.1405 9.9751 32.9096V16.7018C9.9751 12.3241 13.5365 8.7627 17.9142 8.7627H186.563C190.949 8.7627 194.511 12.3241 194.511 16.7018V32.9096C194.511 33.1405 194.329 33.3218 194.099 33.3218H194.107ZM10.7995 32.4974H193.695V16.7018C193.695 12.7776 190.496 9.5871 186.572 9.5871H17.9224C13.9982 9.5871 10.8077 12.7776 10.8077 16.7018V32.4974H10.7995Z" fill="#2A2628"/>
<path d="M20.5609 23.1262C21.7083 23.1262 22.6384 22.1961 22.6384 21.0487C22.6384 19.9013 21.7083 18.9712 20.5609 18.9712C19.4135 18.9712 18.4834 19.9013 18.4834 21.0487C18.4834 22.1961 19.4135 23.1262 20.5609 23.1262Z" fill="white"/>
<path d="M20.5605 23.5385C19.1838 23.5385 18.0708 22.4173 18.0708 21.0488C18.0708 19.6803 19.192 18.5591 20.5605 18.5591C21.929 18.5591 23.0502 19.6803 23.0502 21.0488C23.0502 22.4173 21.929 23.5385 20.5605 23.5385ZM20.5605 19.3752C19.6372 19.3752 18.8952 20.1255 18.8952 21.0406C18.8952 21.9556 19.6454 22.7059 20.5605 22.7059C21.4756 22.7059 22.2258 21.9556 22.2258 21.0406C22.2258 20.1255 21.4756 19.3752 20.5605 19.3752Z" fill="#2A2628"/>
<path d="M27.5184 23.1262C28.6658 23.1262 29.5959 22.1961 29.5959 21.0487C29.5959 19.9013 28.6658 18.9712 27.5184 18.9712C26.3711 18.9712 25.4409 19.9013 25.4409 21.0487C25.4409 22.1961 26.3711 23.1262 27.5184 23.1262Z" fill="white"/>
<path d="M27.518 23.5385C26.1413 23.5385 25.0283 22.4173 25.0283 21.0488C25.0283 19.6803 26.1495 18.5591 27.518 18.5591C28.8866 18.5591 30.0077 19.6803 30.0077 21.0488C30.0077 22.4173 28.8866 23.5385 27.518 23.5385ZM27.518 19.3752C26.5947 19.3752 25.8527 20.1255 25.8527 21.0406C25.8527 21.9556 26.6029 22.7059 27.518 22.7059C28.4331 22.7059 29.1833 21.9556 29.1833 21.0406C29.1833 20.1255 28.4331 19.3752 27.518 19.3752Z" fill="#2A2628"/>
<path d="M34.4774 23.1262C35.6248 23.1262 36.5549 22.1961 36.5549 21.0487C36.5549 19.9013 35.6248 18.9712 34.4774 18.9712C33.33 18.9712 32.3999 19.9013 32.3999 21.0487C32.3999 22.1961 33.33 23.1262 34.4774 23.1262Z" fill="white"/>
<path d="M34.4775 23.5385C33.1007 23.5385 31.9878 22.4173 31.9878 21.0488C31.9878 19.6803 33.109 18.5591 34.4775 18.5591C35.846 18.5591 36.9672 19.6803 36.9672 21.0488C36.9672 22.4173 35.846 23.5385 34.4775 23.5385ZM34.4775 19.3752C33.5542 19.3752 32.8122 20.1255 32.8122 21.0406C32.8122 21.9556 33.5624 22.7059 34.4775 22.7059C35.3926 22.7059 36.1428 21.9556 36.1428 21.0406C36.1428 20.1255 35.3926 19.3752 34.4775 19.3752Z" fill="#2A2628"/>
<path d="M204.271 24.1567V135.534C204.271 139.698 200.891 143.061 196.736 143.061H28.0869C23.9319 143.061 20.5601 139.689 20.5601 135.534V24.1567C20.5601 19.9935 23.9319 16.6299 28.0869 16.6299H196.736C200.899 16.6299 204.271 20.0017 204.271 24.1567Z" fill="white"/>
<path d="M196.736 143.482H28.087C23.7094 143.482 20.1479 139.92 20.1479 135.543V24.1568C20.1479 19.7792 23.7094 16.2178 28.087 16.2178H196.736C201.122 16.2178 204.684 19.7792 204.684 24.1568V135.534C204.684 139.912 201.114 143.473 196.736 143.473V143.482ZM28.087 17.0422C24.1628 17.0422 20.9724 20.2326 20.9724 24.1568V135.534C20.9724 139.459 24.1628 142.649 28.087 142.649H196.736C200.669 142.649 203.859 139.459 203.859 135.534V24.1568C203.859 20.2326 200.66 17.0422 196.736 17.0422H28.087Z" fill="#2A2628"/>
<path d="M204.711 24.1567V40.3646H20.9995V24.1567C20.9995 19.9935 24.3713 16.6299 28.5264 16.6299H197.176C201.339 16.6299 204.711 20.0017 204.711 24.1567Z" fill="#2962F6"/>
<path d="M204.271 40.775H20.5602C20.3293 40.775 20.1479 40.5936 20.1479 40.3628V24.1632C20.1479 19.7856 23.7094 16.2241 28.087 16.2241H196.736C201.122 16.2241 204.684 19.7856 204.684 24.1632V40.3628C204.684 40.5936 204.502 40.775 204.271 40.775ZM20.9641 39.9506H203.859V24.1632C203.859 20.239 200.66 17.0485 196.736 17.0485H28.087C24.1628 17.0485 20.9724 20.239 20.9724 24.1632V39.9506H20.9641Z" fill="#2A2628"/>
<path d="M30.7259 30.5681C31.8733 30.5681 32.8035 29.638 32.8035 28.4906C32.8035 27.3432 31.8733 26.4131 30.7259 26.4131C29.5786 26.4131 28.6484 27.3432 28.6484 28.4906C28.6484 29.638 29.5786 30.5681 30.7259 30.5681Z" fill="white"/>
<path d="M30.7256 30.9902C29.3488 30.9902 28.2358 29.869 28.2358 28.5005C28.2358 27.1319 29.357 26.0107 30.7256 26.0107C32.0941 26.0107 33.2153 27.1319 33.2153 28.5005C33.2153 29.869 32.0941 30.9902 30.7256 30.9902ZM30.7256 26.8269C29.8022 26.8269 29.0602 27.5771 29.0602 28.4922C29.0602 29.4073 29.8105 30.1575 30.7256 30.1575C31.6406 30.1575 32.3909 29.4073 32.3909 28.4922C32.3909 27.5771 31.6406 26.8269 30.7256 26.8269Z" fill="#2A2628"/>
<path d="M37.6835 30.5681C38.8308 30.5681 39.761 29.638 39.761 28.4906C39.761 27.3432 38.8308 26.4131 37.6835 26.4131C36.5361 26.4131 35.606 27.3432 35.606 28.4906C35.606 29.638 36.5361 30.5681 37.6835 30.5681Z" fill="white"/>
<path d="M37.6831 30.9902C36.3063 30.9902 35.1934 29.869 35.1934 28.5005C35.1934 27.1319 36.3146 26.0107 37.6831 26.0107C39.0516 26.0107 40.1728 27.1319 40.1728 28.5005C40.1728 29.869 39.0516 30.9902 37.6831 30.9902ZM37.6831 26.8269C36.7597 26.8269 36.0178 27.5771 36.0178 28.4922C36.0178 29.4073 36.768 30.1575 37.6831 30.1575C38.5982 30.1575 39.3484 29.4073 39.3484 28.4922C39.3484 27.5771 38.5982 26.8269 37.6831 26.8269Z" fill="#2A2628"/>
<path d="M44.6425 30.5681C45.7898 30.5681 46.72 29.638 46.72 28.4906C46.72 27.3432 45.7898 26.4131 44.6425 26.4131C43.4951 26.4131 42.5649 27.3432 42.5649 28.4906C42.5649 29.638 43.4951 30.5681 44.6425 30.5681Z" fill="white"/>
<path d="M44.6425 30.9902C43.2658 30.9902 42.1528 29.869 42.1528 28.5005C42.1528 27.1319 43.274 26.0107 44.6425 26.0107C46.0111 26.0107 47.1323 27.1319 47.1323 28.5005C47.1323 29.869 46.0111 30.9902 44.6425 30.9902ZM44.6425 26.8269C43.7192 26.8269 42.9772 27.5771 42.9772 28.4922C42.9772 29.4073 43.7275 30.1575 44.6425 30.1575C45.5576 30.1575 46.3078 29.4073 46.3078 28.4922C46.3078 27.5771 45.5576 26.8269 44.6425 26.8269Z" fill="#2A2628"/>
<path d="M148.114 134.8C148.114 134.8 130.538 92.7635 141.915 89.6967C152.104 86.9515 161.906 118.774 161.906 118.774C161.906 118.774 169.021 111.032 173.976 114.751C173.976 114.751 180.464 108.774 186.655 111.865C186.655 111.865 193.152 108.46 197.488 114.033C201.824 119.606 205.229 156.128 205.229 156.128L215.996 188.42H164.643L158.807 170.357C158.807 170.357 144.907 153.951 144.264 150.241C143.027 143.127 148.122 134.8 148.122 134.8H148.114Z" fill="#F7B49F"/>
<path d="M146.72 98.1135L143.06 99.3748C142.392 99.6057 141.658 99.2512 141.428 98.5751L140.562 96.0607C139.985 94.3789 140.875 92.5487 142.557 91.9716C144.239 91.3945 146.069 92.2849 146.646 93.9667L147.512 96.4811C147.743 97.1489 147.388 97.8826 146.712 98.1135H146.72Z" fill="#00E0E3"/>
<path d="M155.4 153.968C155.26 153.968 155.12 153.894 155.046 153.762C152.581 149.442 147.923 135.518 147.725 134.933C147.651 134.718 147.766 134.487 147.989 134.413C148.203 134.339 148.434 134.463 148.508 134.677C148.558 134.817 153.331 149.112 155.763 153.366C155.878 153.564 155.804 153.812 155.606 153.927C155.54 153.96 155.475 153.985 155.4 153.985V153.968Z" fill="#2A2628"/>
<path d="M160.001 174.056L161.18 181.632C161.18 181.632 161.411 190.222 163.151 200H222.492C222.492 200 219.112 185.062 212.599 175.581L208.642 166.389L159.993 174.056H160.001Z" fill="#00E0E3"/>
<path d="M169.737 181.371C169.58 181.371 169.424 181.28 169.358 181.124L167.965 177.875C167.874 177.669 167.965 177.422 168.179 177.331C168.385 177.241 168.632 177.331 168.723 177.546L170.116 180.794C170.207 181 170.116 181.247 169.902 181.338C169.853 181.363 169.795 181.371 169.737 181.371Z" fill="#2A2628"/>
<path d="M176.695 180.289C176.555 180.289 176.423 180.223 176.341 180.091L174.626 177.313C174.511 177.123 174.569 176.868 174.758 176.744C174.956 176.62 175.203 176.686 175.327 176.876L177.042 179.654C177.165 179.852 177.099 180.099 176.91 180.223C176.844 180.264 176.77 180.281 176.695 180.281V180.289Z" fill="#2A2628"/>
<path d="M184.577 179.637C184.429 179.637 184.288 179.563 184.214 179.423L182.516 176.397C182.409 176.199 182.475 175.944 182.673 175.837C182.87 175.73 183.126 175.795 183.233 175.993L184.931 179.019C185.039 179.217 184.973 179.472 184.775 179.58C184.709 179.612 184.643 179.629 184.577 179.629V179.637Z" fill="#2A2628"/>
<path d="M191.222 179.062C191.048 179.062 190.884 178.947 190.826 178.773C190.447 177.52 189.779 176.35 188.897 175.385C188.74 175.22 188.757 174.956 188.922 174.8C189.086 174.651 189.35 174.66 189.507 174.825C190.471 175.88 191.197 177.158 191.609 178.526C191.675 178.74 191.551 178.971 191.337 179.037C191.296 179.045 191.255 179.054 191.213 179.054L191.222 179.062Z" fill="#2A2628"/>
<path d="M198.155 177.513C197.99 177.513 197.833 177.414 197.767 177.249C197.363 176.186 196.786 175.197 196.044 174.331C195.896 174.158 195.912 173.894 196.086 173.746C196.259 173.597 196.514 173.622 196.671 173.787C197.479 174.727 198.105 175.79 198.542 176.953C198.625 177.167 198.518 177.406 198.303 177.48C198.254 177.497 198.204 177.505 198.155 177.505V177.513Z" fill="#2A2628"/>
<path d="M205.905 176.86C205.764 176.86 205.624 176.786 205.55 176.654L203.745 173.48C203.629 173.282 203.703 173.035 203.901 172.919C204.099 172.804 204.346 172.878 204.462 173.076L206.267 176.25C206.383 176.448 206.309 176.703 206.111 176.811C206.045 176.844 205.979 176.868 205.905 176.868V176.86Z" fill="#2A2628"/>
<path d="M163.851 125.386C163.678 125.386 163.522 125.279 163.464 125.106C162.771 123.037 161.535 118.931 161.518 118.89C161.452 118.675 161.576 118.445 161.79 118.379C162.005 118.313 162.235 118.436 162.301 118.651C162.318 118.692 163.555 122.781 164.239 124.842C164.313 125.056 164.198 125.287 163.975 125.361C163.934 125.378 163.884 125.386 163.843 125.386H163.851Z" fill="#2A2628"/>
<path d="M173.975 114.75C173.975 114.75 176.102 116.498 176.299 117.784L173.975 114.75Z" fill="white"/>
<path d="M176.299 118.195C176.101 118.195 175.92 118.046 175.895 117.848C175.755 116.925 174.271 115.532 173.719 115.07C173.546 114.93 173.521 114.666 173.661 114.493C173.801 114.32 174.065 114.295 174.238 114.435C174.469 114.625 176.489 116.323 176.711 117.725C176.744 117.947 176.596 118.162 176.365 118.195C176.34 118.195 176.324 118.195 176.299 118.195Z" fill="#2A2628"/>
<path d="M186.654 111.865C186.654 111.865 187.998 112.78 188.913 113.976L186.654 111.865Z" fill="white"/>
<path d="M188.913 114.386C188.789 114.386 188.666 114.329 188.583 114.221C187.718 113.092 186.432 112.21 186.423 112.202C186.234 112.07 186.184 111.814 186.316 111.625C186.448 111.435 186.704 111.386 186.885 111.517C186.943 111.559 188.287 112.482 189.235 113.719C189.375 113.9 189.342 114.156 189.16 114.296C189.086 114.353 188.996 114.378 188.913 114.378V114.386Z" fill="#2A2628"/>
<path d="M108.993 104.107C107.229 101.633 103.791 101.065 101.326 102.829L100.056 103.736C95.4477 102.639 93.3702 99.7291 93.8319 95.0134L95.1015 94.1066C97.5747 92.3424 98.1435 88.9046 96.3793 86.4396C94.6151 83.9664 91.1773 83.3975 88.7123 85.1618L87.4427 86.0686L87.3768 86.1181C86.5111 86.7364 86 87.7257 86 88.7891C86.0247 93.6202 87.5581 107.248 103.403 113.109C104.417 113.488 105.563 113.332 106.445 112.697L107.715 111.79C110.188 110.026 110.757 106.588 108.993 104.115V104.107Z" fill="#3D3D3D"/>
<path d="M121.135 59.9844C111.572 59.9844 103.814 67.7338 103.814 77.3052C103.814 81.5014 105.307 85.3432 107.788 88.344L103.814 97.4455L112.553 92.3507C115.084 93.7934 118.011 94.626 121.135 94.626C130.698 94.626 138.456 86.8766 138.456 77.3052C138.456 67.7338 130.707 59.9844 121.135 59.9844Z" fill="#2962F6"/>
<path d="M113.229 78.7038C114.18 78.7038 114.952 77.9324 114.952 76.9808C114.952 76.0292 114.18 75.2578 113.229 75.2578C112.277 75.2578 111.506 76.0292 111.506 76.9808C111.506 77.9324 112.277 78.7038 113.229 78.7038Z" fill="white"/>
<path d="M121.135 78.7038C122.087 78.7038 122.858 77.9324 122.858 76.9808C122.858 76.0292 122.087 75.2578 121.135 75.2578C120.184 75.2578 119.412 76.0292 119.412 76.9808C119.412 77.9324 120.184 78.7038 121.135 78.7038Z" fill="white"/>
<path d="M129.041 78.7038C129.993 78.7038 130.764 77.9324 130.764 76.9808C130.764 76.0292 129.993 75.2578 129.041 75.2578C128.09 75.2578 127.318 76.0292 127.318 76.9808C127.318 77.9324 128.09 78.7038 129.041 78.7038Z" fill="white"/>
</svg>
