<svg width="200" height="200" viewBox="0 0 200 200" fill="none" xmlns="http://www.w3.org/2000/svg">
<g clip-path="url(#clip0_638_8119)">
<path d="M147.893 76.4829C163.111 76.4829 175.448 66.3661 175.448 53.8863C175.448 41.4066 163.111 31.2898 147.893 31.2898C132.676 31.2898 120.339 41.4066 120.339 53.8863C120.339 66.3661 132.676 76.4829 147.893 76.4829Z" fill="#F9D300"/>
<path d="M147.894 76.8725C132.485 76.8725 119.957 66.5597 119.957 53.894C119.957 41.2284 132.493 30.9155 147.894 30.9155C163.294 30.9155 175.83 41.2284 175.83 53.894C175.83 66.5597 163.294 76.8725 147.894 76.8725ZM147.894 31.6718C132.913 31.6718 120.721 41.6409 120.721 53.8864C120.721 66.1319 132.913 76.101 147.894 76.101C162.874 76.101 175.066 66.1319 175.066 53.8864C175.066 41.6409 162.874 31.6718 147.894 31.6718Z" fill="#2A2628"/>
<mask id="mask0_638_8119" style="mask-type:luminance" maskUnits="userSpaceOnUse" x="120" y="31" width="56" height="46">
<path d="M147.893 76.4829C163.111 76.4829 175.448 66.3661 175.448 53.8863C175.448 41.4066 163.111 31.2898 147.893 31.2898C132.676 31.2898 120.339 41.4066 120.339 53.8863C120.339 66.3661 132.676 76.4829 147.893 76.4829Z" fill="white"/>
</mask>
<g mask="url(#mask0_638_8119)">
<path d="M171.575 86.3984C171.361 86.3984 171.193 86.2303 171.193 86.0164V24.3534C171.193 24.1395 171.361 23.9714 171.575 23.9714C171.788 23.9714 171.957 24.1395 171.957 24.3534V86.0164C171.957 86.2303 171.788 86.3984 171.575 86.3984Z" fill="#2A2628"/>
<path d="M166.9 86.3984C166.686 86.3984 166.518 86.2303 166.518 86.0164V24.3534C166.518 24.1395 166.686 23.9714 166.9 23.9714C167.113 23.9714 167.281 24.1395 167.281 24.3534V86.0164C167.281 86.2303 167.113 86.3984 166.9 86.3984Z" fill="#2A2628"/>
<path d="M162.232 86.3984C162.018 86.3984 161.85 86.2303 161.85 86.0164V24.3534C161.85 24.1395 162.018 23.9714 162.232 23.9714C162.446 23.9714 162.614 24.1395 162.614 24.3534V86.0164C162.614 86.2303 162.446 86.3984 162.232 86.3984Z" fill="#2A2628"/>
<path d="M157.557 86.3984C157.343 86.3984 157.175 86.2303 157.175 86.0164V24.3534C157.175 24.1395 157.343 23.9714 157.557 23.9714C157.771 23.9714 157.939 24.1395 157.939 24.3534V86.0164C157.939 86.2303 157.771 86.3984 157.557 86.3984Z" fill="#2A2628"/>
<path d="M152.882 86.3984C152.668 86.3984 152.5 86.2303 152.5 86.0164V24.3534C152.5 24.1395 152.668 23.9714 152.882 23.9714C153.096 23.9714 153.264 24.1395 153.264 24.3534V86.0164C153.264 86.2303 153.096 86.3984 152.882 86.3984Z" fill="#2A2628"/>
<path d="M148.207 86.3984C147.993 86.3984 147.825 86.2303 147.825 86.0164V24.3534C147.825 24.1395 147.993 23.9714 148.207 23.9714C148.421 23.9714 148.589 24.1395 148.589 24.3534V86.0164C148.589 86.2303 148.421 86.3984 148.207 86.3984Z" fill="#2A2628"/>
<path d="M143.531 86.3984C143.317 86.3984 143.149 86.2303 143.149 86.0164V24.3534C143.149 24.1395 143.317 23.9714 143.531 23.9714C143.745 23.9714 143.913 24.1395 143.913 24.3534V86.0164C143.913 86.2303 143.745 86.3984 143.531 86.3984Z" fill="#2A2628"/>
<path d="M138.856 86.3984C138.642 86.3984 138.474 86.2303 138.474 86.0164V24.3534C138.474 24.1395 138.642 23.9714 138.856 23.9714C139.07 23.9714 139.238 24.1395 139.238 24.3534V86.0164C139.238 86.2303 139.07 86.3984 138.856 86.3984Z" fill="#2A2628"/>
<path d="M134.181 86.3984C133.967 86.3984 133.799 86.2303 133.799 86.0164V24.3534C133.799 24.1395 133.967 23.9714 134.181 23.9714C134.395 23.9714 134.563 24.1395 134.563 24.3534V86.0164C134.563 86.2303 134.395 86.3984 134.181 86.3984Z" fill="#2A2628"/>
<path d="M129.514 86.3984C129.3 86.3984 129.132 86.2303 129.132 86.0164V24.3534C129.132 24.1395 129.3 23.9714 129.514 23.9714C129.727 23.9714 129.896 24.1395 129.896 24.3534V86.0164C129.896 86.2303 129.727 86.3984 129.514 86.3984Z" fill="#2A2628"/>
<path d="M124.838 86.3984C124.625 86.3984 124.457 86.2303 124.457 86.0164V24.3534C124.457 24.1395 124.625 23.9714 124.838 23.9714C125.052 23.9714 125.22 24.1395 125.22 24.3534V86.0164C125.22 86.2303 125.052 86.3984 124.838 86.3984Z" fill="#2A2628"/>
</g>
<path d="M147.893 72.228C163.111 72.228 175.448 62.1112 175.448 49.6315C175.448 37.1517 163.111 27.0349 147.893 27.0349C132.676 27.0349 120.339 37.1517 120.339 49.6315C120.339 62.1112 132.676 72.228 147.893 72.228Z" fill="#F9D300"/>
<path d="M147.894 72.6098C132.485 72.6098 119.957 62.297 119.957 49.6313C119.957 36.9657 132.493 26.6528 147.894 26.6528C163.294 26.6528 175.83 36.9657 175.83 49.6313C175.83 62.297 163.294 72.6098 147.894 72.6098ZM147.894 27.4091C132.913 27.4091 120.721 37.3782 120.721 49.6237C120.721 61.8692 132.913 71.8383 147.894 71.8383C162.874 71.8383 175.066 61.8692 175.066 49.6237C175.066 37.3782 162.874 27.4091 147.894 27.4091Z" fill="#2A2628"/>
<path d="M124.189 124.151C124.189 124.151 138.91 124.151 158.351 135.205C160.04 136.167 161.95 136.695 163.897 136.725L199.916 137.252V197.922C199.916 197.922 138.253 201.031 115.931 192.896L124.189 124.151Z" fill="#F7B49F"/>
<path d="M80.2413 168.733C80.2413 168.733 32.6725 147.29 25.1785 130.026C17.6845 112.761 31.03 106.467 38.631 110.301C46.2243 114.136 77.9572 138.284 95.2293 140.17L121.668 137.367L120.828 166.686C120.828 166.686 88.2166 172.56 80.2337 168.726L80.2413 168.733Z" fill="#F7B49F"/>
<path d="M96.0162 168.733C96.0162 168.733 48.4474 147.29 40.9534 130.026C33.4594 112.761 46.8049 106.467 54.4059 110.301C61.9992 114.136 93.7321 138.284 111.004 140.17L137.443 137.367L136.603 166.686C136.603 166.686 103.991 172.56 96.0086 168.726L96.0162 168.733Z" fill="#F7B49F"/>
<path d="M64.0006 171.391C64.0006 171.391 16.4317 149.948 8.93775 132.684C1.44377 115.419 14.7893 109.125 22.3903 112.96C29.9835 116.795 61.7165 140.942 78.9886 142.829L105.428 140.025L104.587 169.344C104.587 169.344 71.9758 175.219 63.9929 171.384L64.0006 171.391Z" fill="#F7B49F"/>
<path d="M73.5801 173.08C69.4015 173.08 65.8645 172.713 63.8325 171.735C63.6416 171.644 63.5652 171.414 63.6568 171.223C63.7485 171.032 63.9777 170.956 64.1687 171.048C71.5404 174.585 100.898 169.612 104.221 169.031L105.038 140.461L79.0344 143.218C79.0344 143.218 78.9809 143.218 78.9504 143.218C66.0555 141.805 44.9028 127.91 32.2677 119.613C27.7453 116.642 24.1702 114.297 22.2222 113.311C22.0312 113.22 21.9625 112.99 22.0541 112.799C22.1458 112.608 22.375 112.54 22.566 112.631C24.5521 113.632 28.1425 115.993 32.6878 118.979C45.2542 127.237 66.2847 141.049 78.9962 142.462L105.397 139.666C105.504 139.659 105.619 139.689 105.695 139.765C105.779 139.842 105.817 139.949 105.817 140.056L104.977 169.375C104.977 169.558 104.839 169.711 104.664 169.741C103.663 169.925 85.8714 173.095 73.5877 173.095L73.5801 173.08Z" fill="#2A2628"/>
<path d="M67.9538 115.212C78.204 108.093 79.4764 92.1894 70.7957 79.6903C62.1151 67.1911 46.7686 62.8294 36.5184 69.9482C26.2682 77.067 24.9958 92.9705 33.6765 105.47C42.3571 117.969 57.7036 122.33 67.9538 115.212Z" fill="#F9D300"/>
<path d="M56.7435 119.025C54.5892 119.025 52.3586 118.712 50.1127 118.07C43.5507 116.206 37.5998 111.814 33.3525 105.695C24.5675 93.0446 25.889 76.8649 36.2935 69.6383C41.3506 66.132 47.7598 65.2229 54.3448 67.1021C60.9068 68.9661 66.8577 73.3586 71.105 79.4775C75.3524 85.5965 77.392 92.7085 76.8496 99.5073C76.2996 106.329 73.2211 112.028 68.164 115.534C64.8333 117.849 60.9144 119.025 56.7435 119.025ZM47.7217 66.9111C43.7035 66.9111 39.9297 68.0417 36.7289 70.2647C26.6682 77.2545 25.4307 92.9529 33.9789 105.252C38.1269 111.226 43.9326 115.511 50.319 117.329C56.6823 119.14 62.8624 118.277 67.7285 114.9C72.5947 111.524 75.5586 106.031 76.0857 99.4386C76.6128 92.8154 74.6267 85.8791 70.4786 79.9053C66.3306 73.9315 60.5248 69.646 54.1385 67.8278C51.9614 67.2091 49.8071 66.9035 47.7217 66.9035V66.9111Z" fill="#2A2628"/>
<mask id="mask1_638_8119" style="mask-type:luminance" maskUnits="userSpaceOnUse" x="27" y="66" width="50" height="53">
<path d="M67.9538 115.211C78.204 108.093 79.4764 92.1892 70.7957 79.69C62.1151 67.1909 46.7686 62.8292 36.5184 69.948C26.2682 77.0667 24.9958 92.9702 33.6765 105.469C42.3571 117.969 57.7036 122.33 67.9538 115.211Z" fill="white"/>
</mask>
<g mask="url(#mask1_638_8119)">
<path d="M39.3494 130.744C39.2271 130.744 39.1125 130.683 39.0362 130.583C38.9139 130.408 38.9598 130.171 39.1355 130.049L89.7829 94.878C89.9586 94.7557 90.1954 94.8016 90.3176 94.9773C90.4399 95.153 90.394 95.3898 90.2183 95.512L39.5709 130.683C39.5021 130.728 39.4258 130.751 39.3494 130.751V130.744Z" fill="#2A2628"/>
<path d="M36.6831 126.901C36.5609 126.901 36.4463 126.84 36.3699 126.741C36.2477 126.565 36.2935 126.328 36.4692 126.206L87.1166 91.0355C87.2923 90.9209 87.5291 90.9591 87.6514 91.1348C87.7736 91.3105 87.7278 91.5473 87.5521 91.6695L36.9046 126.84C36.8359 126.886 36.7595 126.909 36.6831 126.909V126.901Z" fill="#2A2628"/>
<path d="M34.0171 123.059C33.8949 123.059 33.7803 122.998 33.7039 122.898C33.5817 122.723 33.6275 122.486 33.8032 122.364L84.4506 87.193C84.6263 87.0784 84.8631 87.1166 84.9854 87.2923C85.1076 87.468 85.0617 87.7048 84.886 87.827L34.2386 122.998C34.1699 123.043 34.0935 123.066 34.0171 123.066V123.059Z" fill="#2A2628"/>
<path d="M31.3511 119.224C31.2288 119.224 31.1143 119.163 31.0379 119.063C30.9156 118.888 30.9615 118.651 31.1372 118.529L81.7846 83.3582C81.9603 83.236 82.1971 83.2818 82.3193 83.4575C82.4416 83.6332 82.3957 83.87 82.22 83.9922L31.5726 119.163C31.5039 119.209 31.4275 119.232 31.3511 119.232V119.224Z" fill="#2A2628"/>
<path d="M28.6851 115.381C28.5628 115.381 28.4482 115.32 28.3719 115.221C28.2496 115.045 28.2955 114.808 28.4712 114.686L79.1186 79.5157C79.2943 79.4011 79.5311 79.4393 79.6533 79.615C79.7755 79.7907 79.7297 80.0275 79.554 80.1498L28.9066 115.32C28.8378 115.366 28.7614 115.389 28.6851 115.389V115.381Z" fill="#2A2628"/>
<path d="M26.019 111.546C25.8968 111.546 25.7822 111.485 25.7058 111.386C25.5836 111.21 25.6294 110.973 25.8051 110.851L76.4526 75.6807C76.6283 75.5585 76.8651 75.6043 76.9873 75.78C77.1095 75.9557 77.0637 76.1925 76.888 76.3147L26.2406 111.485C26.1718 111.531 26.0954 111.554 26.019 111.554V111.546Z" fill="#2A2628"/>
<path d="M23.353 107.704C23.2308 107.704 23.1162 107.643 23.0398 107.544C22.9176 107.368 22.9634 107.131 23.1391 107.009L73.7865 71.8384C73.9622 71.7162 74.1991 71.762 74.3213 71.9377C74.4435 72.1134 74.3977 72.3502 74.222 72.4725L23.5746 107.643C23.5058 107.689 23.4294 107.712 23.353 107.712V107.704Z" fill="#2A2628"/>
<path d="M20.6868 103.869C20.5645 103.869 20.45 103.808 20.3736 103.709C20.2513 103.533 20.2972 103.296 20.4729 103.174L71.1203 68.0035C71.296 67.8889 71.5328 67.9271 71.655 68.1028C71.7773 68.2785 71.7314 68.5153 71.5557 68.6376L20.9083 103.808C20.8395 103.854 20.7632 103.877 20.6868 103.877V103.869Z" fill="#2A2628"/>
<path d="M18.0207 100.027C17.8985 100.027 17.7839 99.9655 17.7075 99.8662C17.5853 99.6905 17.6312 99.4537 17.8069 99.3315L68.4543 64.1609C68.63 64.0387 68.8668 64.0845 68.989 64.2602C69.1112 64.4359 69.0654 64.6727 68.8897 64.795L18.2423 99.9655C18.1735 100.011 18.0971 100.034 18.0207 100.034V100.027Z" fill="#2A2628"/>
<path d="M15.3547 96.192C15.2325 96.192 15.1179 96.1309 15.0415 96.0316C14.9193 95.8559 14.9651 95.619 15.1408 95.4968L65.7883 60.3263C65.964 60.2117 66.2008 60.2499 66.323 60.4256C66.4452 60.6013 66.3994 60.8381 66.2237 60.9603L15.5763 96.1232C15.5075 96.1691 15.4311 96.192 15.3547 96.192Z" fill="#2A2628"/>
<path d="M12.6887 92.3494C12.5665 92.3494 12.4519 92.2883 12.3755 92.1889C12.2533 92.0133 12.2991 91.7764 12.4748 91.6542L63.1222 56.4837C63.2979 56.3614 63.5348 56.4073 63.657 56.583C63.7792 56.7587 63.7334 56.9955 63.5577 57.1177L12.9103 92.2806C12.8415 92.3265 12.7651 92.3494 12.6887 92.3494Z" fill="#2A2628"/>
</g>
<path d="M71.4521 112.783C81.7023 105.664 82.9747 89.7609 74.294 77.2618C65.6134 64.7626 50.2669 60.401 40.0167 67.5198C29.7665 74.6385 28.4941 90.542 37.1748 103.041C45.8554 115.54 61.2019 119.902 71.4521 112.783Z" fill="#F9D300"/>
<path d="M60.2422 116.596C58.0804 116.596 55.8574 116.283 53.6115 115.641C47.0495 113.777 41.0986 109.385 36.8512 103.266C28.0662 90.6152 29.3878 74.4432 39.7923 67.209C50.1968 59.9824 65.8188 64.3978 74.6038 77.0482C83.3888 89.6986 82.0672 105.878 71.6627 113.105C68.3321 115.419 64.4132 116.596 60.2422 116.596ZM51.2281 64.4971C47.2939 64.4971 43.4973 65.5742 40.2354 67.843C30.1746 74.8328 28.9371 90.5312 37.4853 102.83C41.6333 108.804 47.4391 113.09 53.8254 114.908C60.1888 116.718 66.3688 115.855 71.2349 112.478C81.2957 105.489 82.5332 89.7902 73.985 77.4836C68.2099 69.1722 59.4249 64.4971 51.2281 64.4971Z" fill="#2A2628"/>
<path d="M57.2706 183.66C57.2706 183.66 9.70176 162.225 2.20777 144.952C-5.28621 127.688 8.05934 121.393 15.6603 125.228C23.2536 129.063 54.9865 153.21 72.2586 155.097L98.6976 152.294L112.425 179.245C112.425 179.245 65.2458 187.487 57.2706 183.652V183.66Z" fill="#F7B49F"/>
<path d="M72.2586 155.487C72.2586 155.487 72.228 155.487 72.2204 155.487C59.3332 154.073 38.1804 140.186 25.5453 131.882C21.0153 128.91 17.4402 126.557 15.4922 125.572C12.7268 124.174 9.18229 124.182 6.23359 125.587C6.04261 125.679 5.81344 125.595 5.72177 125.404C5.6301 125.213 5.71413 124.984 5.90511 124.892C9.06007 123.387 12.8644 123.379 15.836 124.884C17.8221 125.885 21.4125 128.246 25.9655 131.232C38.5318 139.49 59.5547 153.294 72.2662 154.715L98.667 151.919C98.8733 151.896 99.0643 152.049 99.0872 152.255C99.1101 152.462 98.9573 152.653 98.7511 152.676L72.3044 155.479C72.3044 155.479 72.2738 155.479 72.2662 155.479L72.2586 155.487Z" fill="#2A2628"/>
<path d="M172.117 79.3782C169.184 80.3178 168.473 81.2804 167.778 85.2451C167.748 85.4284 167.549 85.4284 167.518 85.2451C166.823 81.2804 166.113 80.3178 163.179 79.3782C163.042 79.3324 163.042 79.0726 163.179 79.0268C166.113 78.0872 166.823 77.1247 167.518 73.16C167.549 72.9766 167.748 72.9766 167.778 73.16C168.473 77.1247 169.184 78.0872 172.117 79.0268C172.255 79.0726 172.255 79.3324 172.117 79.3782Z" fill="white"/>
<path d="M167.648 85.7645C167.396 85.7645 167.19 85.5811 167.144 85.3138C166.472 81.4713 165.868 80.6386 163.065 79.7448C162.843 79.6761 162.698 79.4546 162.698 79.2025C162.698 78.9504 162.843 78.7365 163.065 78.6601C165.861 77.7663 166.472 76.9336 167.144 73.0912C167.19 72.8238 167.396 72.6328 167.648 72.6328C167.9 72.6328 168.107 72.8161 168.153 73.0835C168.825 76.926 169.436 77.7587 172.232 78.6524C172.453 78.7212 172.599 78.9427 172.599 79.1948C172.599 79.4469 172.453 79.6608 172.232 79.7372C169.436 80.631 168.825 81.4636 168.153 85.3061C168.107 85.5735 167.9 85.7645 167.648 85.7645ZM163.852 79.2025C166.151 80.0275 167.014 81.0664 167.648 83.9158C168.275 81.0664 169.138 80.0351 171.445 79.2025C169.146 78.3774 168.282 77.3385 167.648 74.4891C167.022 77.3385 166.159 78.3698 163.852 79.2025Z" fill="#2A2628"/>
<path d="M44.0014 45.7583C41.0679 46.698 40.3575 47.6605 39.6623 51.6252C39.6318 51.8085 39.4332 51.8085 39.4026 51.6252C38.7074 47.6605 37.997 46.698 35.0636 45.7583C34.9261 45.7125 34.9261 45.4528 35.0636 45.4069C37.997 44.4673 38.7074 43.5048 39.4026 39.5401C39.4332 39.3568 39.6318 39.3568 39.6623 39.5401C40.3575 43.5048 41.0679 44.4673 44.0014 45.4069C44.1389 45.4528 44.1389 45.7125 44.0014 45.7583Z" fill="white"/>
<path d="M39.5324 52.1447C39.2803 52.1447 39.0741 51.9537 39.0282 51.6863C38.356 47.8438 37.7449 47.0112 34.949 46.1174C34.7274 46.0486 34.5823 45.8271 34.5823 45.575C34.5823 45.3229 34.7274 45.109 34.949 45.0326C37.7449 44.1389 38.356 43.3062 39.0282 39.4637C39.0741 39.1963 39.2803 39.0054 39.5324 39.0054C39.7845 39.0054 39.9908 39.1887 40.0366 39.4561C40.7089 43.2986 41.3123 44.1312 44.1159 45.025C44.3374 45.0938 44.4826 45.3153 44.4826 45.5674C44.4826 45.8195 44.3374 46.0334 44.1159 46.1098C41.32 47.0035 40.7089 47.8362 40.0366 51.6787C39.9908 51.9461 39.7845 52.137 39.5324 52.137V52.1447ZM35.7434 45.5827C38.0428 46.4153 38.906 47.4466 39.5324 50.296C40.1588 47.4466 41.0221 46.4153 43.3214 45.5827C41.0221 44.75 40.1588 43.7187 39.5324 40.8693C38.906 43.7187 38.0428 44.75 35.7434 45.5827Z" fill="#2A2628"/>
<path d="M27.3709 64.6728C27.6662 64.6728 27.9057 64.4333 27.9057 64.138C27.9057 63.8427 27.6662 63.6033 27.3709 63.6033C27.0756 63.6033 26.8362 63.8427 26.8362 64.138C26.8362 64.4333 27.0756 64.6728 27.3709 64.6728Z" fill="white"/>
<path d="M27.371 65.0548C26.8669 65.0548 26.4543 64.6423 26.4543 64.1381C26.4543 63.6339 26.8669 63.2214 27.371 63.2214C27.8752 63.2214 28.2877 63.6339 28.2877 64.1381C28.2877 64.6423 27.8752 65.0548 27.371 65.0548ZM27.371 63.9853C27.287 63.9853 27.2183 64.0541 27.2183 64.1381C27.2183 64.3062 27.5238 64.3062 27.5238 64.1381C27.5238 64.0541 27.4551 63.9853 27.371 63.9853Z" fill="#2A2628"/>
<path d="M107.49 157.083C134.475 157.083 156.35 130.413 156.35 97.5135C156.35 64.614 134.475 37.9436 107.49 37.9436C80.5057 37.9436 58.6304 64.614 58.6304 97.5135C58.6304 130.413 80.5057 157.083 107.49 157.083Z" fill="#F9D300"/>
<path d="M107.49 157.465C80.3407 157.465 58.2483 130.568 58.2483 97.5134C58.2483 64.4589 80.3407 37.5615 107.49 37.5615C134.64 37.5615 156.732 64.4589 156.732 97.5134C156.732 130.568 134.64 157.465 107.49 157.465ZM107.49 38.3254C80.7608 38.3254 59.0122 64.879 59.0122 97.5134C59.0122 130.148 80.7608 156.701 107.49 156.701C134.219 156.701 155.968 130.148 155.968 97.5134C155.968 64.879 134.219 38.3254 107.49 38.3254Z" fill="#2A2628"/>
<mask id="mask2_638_8119" style="mask-type:luminance" maskUnits="userSpaceOnUse" x="58" y="37" width="99" height="121">
<path d="M107.49 157.083C134.475 157.083 156.35 130.413 156.35 97.5135C156.35 64.614 134.475 37.9436 107.49 37.9436C80.5057 37.9436 58.6304 64.614 58.6304 97.5135C58.6304 130.413 80.5057 157.083 107.49 157.083Z" fill="white"/>
</mask>
<g mask="url(#mask2_638_8119)">
<path d="M176.953 46.7056H43.6425C43.4286 46.7056 43.2605 46.5375 43.2605 46.3236C43.2605 46.1097 43.4286 45.9417 43.6425 45.9417H176.945C177.159 45.9417 177.327 46.1097 177.327 46.3236C177.327 46.5375 177.159 46.7056 176.945 46.7056H176.953Z" fill="#2A2628"/>
<path d="M176.953 56.8044H43.6425C43.4286 56.8044 43.2605 56.6364 43.2605 56.4225C43.2605 56.2086 43.4286 56.0405 43.6425 56.0405H176.945C177.159 56.0405 177.327 56.2086 177.327 56.4225C177.327 56.6364 177.159 56.8044 176.945 56.8044H176.953Z" fill="#2A2628"/>
<path d="M176.953 66.9111H43.6425C43.4286 66.9111 43.2605 66.7431 43.2605 66.5292C43.2605 66.3153 43.4286 66.1472 43.6425 66.1472H176.945C177.159 66.1472 177.327 66.3153 177.327 66.5292C177.327 66.7431 177.159 66.9111 176.945 66.9111H176.953Z" fill="#2A2628"/>
<path d="M176.953 77.0176H43.6425C43.4286 77.0176 43.2605 76.8495 43.2605 76.6356C43.2605 76.4217 43.4286 76.2537 43.6425 76.2537H176.945C177.159 76.2537 177.327 76.4217 177.327 76.6356C177.327 76.8495 177.159 77.0176 176.945 77.0176H176.953Z" fill="#2A2628"/>
<path d="M176.953 87.1243H43.6425C43.4286 87.1243 43.2605 86.9562 43.2605 86.7423C43.2605 86.5284 43.4286 86.3604 43.6425 86.3604H176.945C177.159 86.3604 177.327 86.5284 177.327 86.7423C177.327 86.9562 177.159 87.1243 176.945 87.1243H176.953Z" fill="#2A2628"/>
<path d="M176.953 97.2231H43.6425C43.4286 97.2231 43.2605 97.0551 43.2605 96.8412C43.2605 96.6273 43.4286 96.4592 43.6425 96.4592H176.945C177.159 96.4592 177.327 96.6273 177.327 96.8412C177.327 97.0551 177.159 97.2231 176.945 97.2231H176.953Z" fill="#2A2628"/>
<path d="M176.953 107.33H43.6425C43.4286 107.33 43.2605 107.162 43.2605 106.948C43.2605 106.734 43.4286 106.566 43.6425 106.566H176.945C177.159 106.566 177.327 106.734 177.327 106.948C177.327 107.162 177.159 107.33 176.945 107.33H176.953Z" fill="#2A2628"/>
<path d="M176.953 117.436H43.6425C43.4286 117.436 43.2605 117.268 43.2605 117.054C43.2605 116.84 43.4286 116.672 43.6425 116.672H176.945C177.159 116.672 177.327 116.84 177.327 117.054C177.327 117.268 177.159 117.436 176.945 117.436H176.953Z" fill="#2A2628"/>
<path d="M176.953 127.543H43.6425C43.4286 127.543 43.2605 127.375 43.2605 127.161C43.2605 126.947 43.4286 126.779 43.6425 126.779H176.945C177.159 126.779 177.327 126.947 177.327 127.161C177.327 127.375 177.159 127.543 176.945 127.543H176.953Z" fill="#2A2628"/>
<path d="M176.953 137.642H43.6425C43.4286 137.642 43.2605 137.474 43.2605 137.26C43.2605 137.046 43.4286 136.878 43.6425 136.878H176.945C177.159 136.878 177.327 137.046 177.327 137.26C177.327 137.474 177.159 137.642 176.945 137.642H176.953Z" fill="#2A2628"/>
<path d="M176.953 147.748H43.6425C43.4286 147.748 43.2605 147.58 43.2605 147.366C43.2605 147.152 43.4286 146.984 43.6425 146.984H176.945C177.159 146.984 177.327 147.152 177.327 147.366C177.327 147.58 177.159 147.748 176.945 147.748H176.953Z" fill="#2A2628"/>
</g>
<path d="M98.2849 157.083C125.269 157.083 147.145 130.413 147.145 97.5135C147.145 64.614 125.269 37.9436 98.2849 37.9436C71.3004 37.9436 49.425 64.614 49.425 97.5135C49.425 130.413 71.3004 157.083 98.2849 157.083Z" fill="#FCE147"/>
<path d="M98.285 157.465C71.1356 157.465 49.0432 130.568 49.0432 97.5134C49.0432 64.4589 71.1356 37.5615 98.285 37.5615C125.435 37.5615 147.527 64.4589 147.527 97.5134C147.527 130.568 125.435 157.465 98.285 157.465ZM98.285 38.3254C71.5557 38.3254 49.8071 64.879 49.8071 97.5134C49.8071 130.148 71.5557 156.701 98.285 156.701C125.014 156.701 146.763 130.148 146.763 97.5134C146.763 64.879 125.014 38.3254 98.285 38.3254Z" fill="#2A2628"/>
<path d="M40.0748 81.7615C40.0748 82.0595 39.838 82.2963 39.5401 82.2963C39.2422 82.2963 39.0054 82.0595 39.0054 81.7615C39.0054 81.4636 39.2422 81.2268 39.5401 81.2268C39.838 81.2268 40.0748 81.4636 40.0748 81.7615Z" fill="white"/>
<path d="M39.5324 82.6784C39.0282 82.6784 38.6157 82.2658 38.6157 81.7617C38.6157 81.2575 39.0282 80.845 39.5324 80.845C40.0366 80.845 40.4491 81.2575 40.4491 81.7617C40.4491 82.2658 40.0366 82.6784 39.5324 82.6784ZM39.5324 81.6089C39.4484 81.6089 39.3796 81.6776 39.3796 81.7617C39.3796 81.9297 39.6852 81.9297 39.6852 81.7617C39.6852 81.6776 39.6164 81.6089 39.5324 81.6089Z" fill="#2A2628"/>
<path d="M172.224 106.757C172.52 106.757 172.759 106.517 172.759 106.222C172.759 105.927 172.52 105.687 172.224 105.687C171.929 105.687 171.689 105.927 171.689 106.222C171.689 106.517 171.929 106.757 172.224 106.757Z" fill="white"/>
<path d="M172.224 107.146C171.72 107.146 171.307 106.734 171.307 106.23C171.307 105.725 171.72 105.313 172.224 105.313C172.728 105.313 173.141 105.725 173.141 106.23C173.141 106.734 172.728 107.146 172.224 107.146ZM172.224 106.077C172.14 106.077 172.071 106.146 172.071 106.23C172.071 106.398 172.377 106.398 172.377 106.23C172.377 106.146 172.308 106.077 172.224 106.077Z" fill="#2A2628"/>
<path d="M162.545 65.7423C162.841 65.7423 163.08 65.5029 163.08 65.2076C163.08 64.9123 162.841 64.6729 162.545 64.6729C162.25 64.6729 162.011 64.9123 162.011 65.2076C162.011 65.5029 162.25 65.7423 162.545 65.7423Z" fill="white"/>
<path d="M162.545 66.1244C162.041 66.1244 161.629 65.7119 161.629 65.2077C161.629 64.7035 162.041 64.291 162.545 64.291C163.05 64.291 163.462 64.7035 163.462 65.2077C163.462 65.7119 163.05 66.1244 162.545 66.1244ZM162.545 65.0549C162.461 65.0549 162.393 65.1237 162.393 65.2077C162.393 65.3758 162.698 65.3758 162.698 65.2077C162.698 65.1237 162.629 65.0549 162.545 65.0549Z" fill="#2A2628"/>
<path d="M129.865 151.698C129.865 151.698 111.333 149.276 95.9933 156.419C80.6616 163.569 76.8879 165.074 66.6973 167.297C56.5067 169.52 31.3281 164.364 35.3921 181.032C39.4562 197.701 71.9148 193.576 83.8853 196.356C87.575 197.212 119.178 205.271 149.253 194.248L149.857 153.959L129.858 151.69L129.865 151.698Z" fill="#F7B49F"/>
<path d="M35.3997 181.422C35.224 181.422 35.0712 181.307 35.0254 181.131C34.1698 177.633 34.5441 174.806 36.1331 172.728C39.7006 168.068 48.7224 167.854 56.6823 167.663C60.4713 167.572 64.0465 167.488 66.6132 166.93C76.8573 164.7 80.715 163.126 95.8329 156.083C111.088 148.971 129.728 151.3 129.911 151.323L149.903 153.592C150.109 153.615 150.262 153.806 150.239 154.012C150.216 154.219 150.017 154.371 149.819 154.349L129.819 152.08C129.628 152.057 111.21 149.757 96.1537 156.77C80.9748 163.844 77.1017 165.425 66.7813 167.671C64.1381 168.244 60.5248 168.336 56.7053 168.427C48.9133 168.618 40.0901 168.825 36.7442 173.194C35.2851 175.104 34.9643 177.64 35.774 180.948C35.8275 181.154 35.6976 181.36 35.4914 181.406C35.4608 181.406 35.4303 181.414 35.3997 181.414V181.422Z" fill="#2A2628"/>
<path d="M47.9584 192.239C47.8515 192.239 47.7369 192.193 47.6681 192.101C47.5306 191.941 47.5536 191.696 47.7216 191.566C47.7598 191.536 51.312 188.534 51.4495 184.676C51.5717 181.223 45.3535 179.367 41.2436 178.144C40.854 178.03 40.4797 177.915 40.1283 177.808C36.2476 176.617 35.2851 177.671 35.2775 177.678C35.14 177.831 34.9032 177.862 34.7427 177.732C34.5823 177.602 34.5441 177.38 34.6664 177.212C34.7809 177.06 35.9268 175.723 40.3499 177.075C40.7013 177.182 41.0756 177.296 41.4652 177.411C46.0639 178.778 52.3586 180.658 52.2134 184.699C52.0683 188.908 48.3709 192.025 48.2105 192.155C48.1418 192.216 48.0501 192.246 47.9661 192.246L47.9584 192.239Z" fill="#2A2628"/>
</g>
<defs>
<clipPath id="clip0_638_8119">
<rect width="199.908" height="200" fill="white"/>
</clipPath>
</defs>
</svg>
