<svg width="200" height="200" viewBox="0 0 200 200" fill="none" xmlns="http://www.w3.org/2000/svg">
<rect width="200" height="200" rx="100" fill="white"/>
<path d="M126.376 103.309L88.1763 133.071C88.1763 133.071 96.383 142.406 99.3194 145.33C112.591 158.512 116.515 147.959 119.157 148.113C132.018 148.895 163.627 128.724 135.185 108.861C133.044 107.374 126.376 103.309 126.376 103.309Z" fill="#99CCFF"/>
<path d="M110.963 153.24C107.27 153.24 103.167 150.944 98.4095 146.238C95.4731 143.328 87.5356 134.3 87.2022 133.916C86.9714 133.646 86.856 133.3 86.8945 132.954C86.933 132.608 87.0997 132.274 87.3818 132.056L125.581 102.294C126.005 101.974 126.582 101.935 127.03 102.204C127.3 102.371 133.763 106.308 135.904 107.808C148.419 116.553 148.983 124.978 147.239 130.492C143.79 141.468 128.505 149.406 119.888 149.406C119.606 149.406 119.324 149.406 119.067 149.38C118.875 149.431 118.234 149.944 117.759 150.329C116.323 151.483 114.156 153.24 110.95 153.24H110.963ZM90.0361 133.236C92.2417 135.736 97.9223 142.122 100.218 144.405C104.398 148.559 108.014 150.662 110.963 150.662C113.259 150.662 114.797 149.419 116.157 148.329C117.17 147.521 118.029 146.815 119.093 146.815C119.119 146.815 119.208 146.815 119.234 146.815C119.452 146.815 119.67 146.841 119.901 146.841C127.582 146.841 141.726 139.494 144.803 129.722C146.932 122.978 143.341 116.13 134.442 109.911C132.788 108.757 128.261 105.961 126.453 104.859L90.0361 133.236Z" fill="#0068DE"/>
<path d="M99.8339 87.4174C89.3319 80.0698 78.5734 80.8392 70.4949 90.777C66.4813 95.701 48.901 128.707 42.4254 146.48H39.4248C36.7705 146.48 34.6162 148.634 34.6162 151.289C34.6162 153.943 36.7705 156.097 39.4248 156.097H52.6069C52.9531 155.469 78.1503 121.706 78.1503 121.706L88.1778 133.067L126.378 103.305C126.378 103.305 106.168 91.8541 99.8339 87.4174Z" fill="white"/>
<path d="M52.6055 157.382H39.4234C36.0638 157.382 33.3325 154.65 33.3325 151.291C33.3325 147.931 36.0638 145.2 39.4234 145.2H41.5264C48.3098 127.042 65.4285 94.9722 69.5062 89.9712C74.1481 84.265 79.88 81.2388 86.0863 81.2388C90.8436 81.2388 95.7164 82.957 100.576 86.368C106.783 90.715 126.812 102.076 127.017 102.192C127.389 102.41 127.633 102.781 127.658 103.217C127.684 103.641 127.505 104.064 127.171 104.32L88.9715 134.082C88.4329 134.493 87.6763 134.429 87.2275 133.916L78.2386 123.734C70.8013 133.698 54.3238 155.817 53.7082 156.766C53.4774 157.125 53.0543 157.369 52.6183 157.369L52.6055 157.382ZM39.4234 147.764C37.4872 147.764 35.8971 149.342 35.8971 151.291C35.8971 153.24 37.4743 154.817 39.4234 154.817H51.9515C54.8238 150.842 70.1858 130.235 77.123 120.939C77.3538 120.631 77.7129 120.439 78.0976 120.426C78.4823 120.4 78.8541 120.567 79.1106 120.862L88.3431 131.325L124.081 103.487C119.08 100.627 104.423 92.2024 99.1016 88.4838C94.6905 85.3934 90.3051 83.8162 86.0863 83.8162C80.6109 83.8162 75.6997 86.4321 71.4937 91.5997C67.5443 96.4468 49.9639 129.556 43.6294 146.931C43.4499 147.444 42.9626 147.777 42.424 147.777H39.4234V147.764Z" fill="#006AE3"/>
<path d="M98.7558 64.5082C98.7558 64.5082 98.6532 64.5082 98.6019 64.5082C98.7174 63.2259 98.7943 62.3796 98.7943 62.3796C98.7943 49.095 88.023 39.2598 74.7384 39.2598C61.4538 39.2598 50.6824 49.095 50.6824 62.3796C50.6824 62.3796 50.7594 63.2131 50.8748 64.5082C50.8235 64.5082 50.7722 64.5082 50.7209 64.5082C46.9125 64.5082 43.835 67.9063 43.835 72.0866C43.835 76.2669 46.9125 79.6778 50.7209 79.6778C51.1697 79.6778 51.6185 79.6265 52.0545 79.5368C53.465 91.0775 62.813 96.4759 74.7384 96.4759C86.6637 96.4759 96.0117 91.0775 97.4222 79.5368C97.8582 79.6265 98.2942 79.6778 98.7558 79.6778C102.564 79.6778 105.642 76.2797 105.642 72.0866C105.642 67.8935 102.564 64.5082 98.7558 64.5082Z" fill="white"/>
<path d="M74.737 97.7383C61.6319 97.7383 52.8481 91.4935 50.9632 80.9402C50.8862 80.9402 50.7965 80.9402 50.7195 80.9402C46.2186 80.9402 42.5513 76.9651 42.5513 72.0667C42.5513 67.6427 45.5647 63.9497 49.4885 63.3086L49.4116 62.4879C49.4116 48.6775 60.5419 37.9575 74.7498 37.9575C88.9577 37.9575 100.088 48.6775 100.088 62.3597L99.9983 63.2957C103.922 63.9497 106.936 67.6299 106.936 72.0538C106.936 77.0292 103.153 81.0941 98.5108 80.9145C96.6386 91.4679 87.8549 97.7126 74.7498 97.7126L74.737 97.7383ZM52.0531 78.2345C52.3224 78.2345 52.5788 78.3115 52.7968 78.4782C53.0918 78.6833 53.2841 79.0039 53.3226 79.3629C54.5536 89.4162 62.35 95.1737 74.737 95.1737C87.124 95.1737 94.9204 89.4033 96.1514 79.3629C96.1898 79.0039 96.3822 78.6833 96.6771 78.4782C96.972 78.273 97.3439 78.1961 97.6901 78.273C98.0492 78.3499 98.4082 78.3884 98.7544 78.3884C101.845 78.3884 104.358 75.5545 104.358 72.0795C104.358 68.6045 101.845 65.7834 98.7544 65.7834H98.6006C98.2415 65.7834 97.8953 65.6424 97.6517 65.3731C97.408 65.1038 97.2926 64.7447 97.3183 64.3985L97.5106 62.2699C97.5106 50.1394 87.5087 40.5478 74.737 40.5478C61.9653 40.5478 51.9633 50.1265 51.9633 62.3725L52.1557 64.3857C52.1942 64.7447 52.0659 65.1038 51.8223 65.3602C51.5787 65.6295 51.2324 65.7834 50.8734 65.7834C50.8477 65.7834 50.758 65.7834 50.7323 65.7834C47.6292 65.7834 45.1159 68.6045 45.1159 72.0795C45.1159 75.5545 47.6292 78.3884 50.7195 78.3884C51.0529 78.3884 51.412 78.3499 51.7838 78.273C51.8736 78.2474 51.9633 78.2474 52.0531 78.2474V78.2345Z" fill="#006AE3"/>
<path d="M65.8781 70.7116C65.8781 71.4297 65.2882 72.0196 64.5702 72.0196C63.8521 72.0196 63.2622 71.4297 63.2622 70.7116V69.596C63.2622 68.8651 63.8521 68.2881 64.5702 68.2881C65.2882 68.2881 65.8781 68.8779 65.8781 69.596V70.7116Z" fill="#006AE3"/>
<path d="M86.818 70.7116C86.818 71.4297 86.2282 72.0196 85.5101 72.0196C84.7792 72.0196 84.2021 71.4297 84.2021 70.7116V69.596C84.2021 68.8651 84.792 68.2881 85.5101 68.2881C86.2282 68.2881 86.818 68.8779 86.818 69.596V70.7116Z" fill="#006AE3"/>
<path d="M74.2369 61.5602C73.9419 61.5602 73.6342 61.5474 73.3392 61.5089C71.0055 61.2781 68.9153 60.1368 67.4278 58.3288C64.8889 55.2256 65.3633 50.635 68.4665 48.096C69.7232 47.0702 71.3132 46.5958 72.9161 46.7625C74.5318 46.9292 75.9808 47.7114 77.0066 48.968C77.8658 50.0195 78.2761 51.3531 78.135 52.7123C77.994 54.0716 77.34 55.3026 76.2757 56.1617C75.7243 56.6105 74.9165 56.5207 74.4677 55.9822C74.0189 55.4308 74.1086 54.6229 74.6472 54.1741C75.1729 53.751 75.5063 53.1355 75.5704 52.4559C75.6346 51.7762 75.4422 51.1094 75.0062 50.5837C74.4164 49.8528 73.5701 49.404 72.6468 49.3142C71.7107 49.2245 70.8003 49.4937 70.0694 50.0836C68.0562 51.7249 67.7612 54.6999 69.4026 56.7003C70.4541 57.9826 71.9415 58.7904 73.5829 58.9571C75.237 59.1238 76.8527 58.6365 78.135 57.5851C79.802 56.2258 80.8535 54.2895 81.0587 52.1481C81.2767 50.0067 80.6484 47.9037 79.2763 46.2367C78.8275 45.6853 78.9044 44.8775 79.4558 44.4287C80.0072 43.9799 80.815 44.0568 81.2639 44.6082C83.0591 46.8137 83.8926 49.5835 83.6105 52.4046C83.3284 55.2256 81.9563 57.7774 79.7507 59.5726C78.1735 60.8677 76.2372 61.5474 74.224 61.5474L74.2369 61.5602Z" fill="#006AE3"/>
<path d="M84.4064 81.4281C84.4064 76.6451 80.0722 72.7598 74.7379 72.7598C69.4035 72.7598 65.0693 76.6323 65.0693 81.4281C65.0693 86.2239 69.4035 90.0836 74.7379 90.0836C80.0722 90.0836 84.4064 86.2111 84.4064 81.4281Z" fill="white"/>
<path d="M74.7262 91.3694C68.6866 91.3694 63.7754 86.907 63.7754 81.4316C63.7754 75.9562 68.6866 71.481 74.7262 71.481C80.7659 71.481 85.6771 75.9434 85.6771 81.4316C85.6771 86.9198 80.7659 91.3694 74.7262 91.3694ZM74.7262 74.0456C70.0971 74.0456 66.34 77.3539 66.34 81.4316C66.34 85.5093 70.0971 88.8048 74.7262 88.8048C79.3553 88.8048 83.1125 85.4965 83.1125 81.4316C83.1125 77.3667 79.3553 74.0456 74.7262 74.0456Z" fill="#006AE3"/>
<path d="M79.3038 81.4284C79.3038 79.1716 77.2649 77.3379 74.7388 77.3379C72.2127 77.3379 70.1738 79.1716 70.1738 81.4284C70.1738 83.6853 72.2127 85.519 74.7388 85.519C77.2649 85.519 79.3038 83.6853 79.3038 81.4284Z" fill="white"/>
<path d="M74.7242 86.8047C71.5057 86.8047 68.877 84.394 68.877 81.4319C68.877 78.4698 71.5057 76.0591 74.7242 76.0591C77.9428 76.0591 80.5715 78.4698 80.5715 81.4319C80.5715 84.394 77.9428 86.8047 74.7242 86.8047ZM74.7242 78.6237C72.9162 78.6237 71.4416 79.8803 71.4416 81.4319C71.4416 82.9835 72.9162 84.2402 74.7242 84.2402C76.5323 84.2402 78.0069 82.9835 78.0069 81.4319C78.0069 79.8803 76.5323 78.6237 74.7242 78.6237Z" fill="#006AE3"/>
<path d="M157.717 154.24L147.189 147.265L125.775 145.944L137.905 140.302C145.945 135.993 145.817 128.646 142.214 123.119C138.61 117.592 132.019 114.31 123.954 119.618C117.606 123.786 103.706 141.148 103.706 141.148C97.3204 147.893 97.9359 152.022 99.2951 155.369C100.642 158.703 105.489 160.793 107.951 160.806L125.441 160.972C129.019 160.985 149.689 160.536 149.689 160.536C151.844 162.024 157.46 162.947 158.935 160.806C160.422 158.651 159.884 155.702 157.729 154.228L157.717 154.24Z" fill="white"/>
<path d="M155.408 163.37C153.28 163.37 150.856 162.754 149.317 161.844C146.509 161.908 129.326 162.267 125.62 162.267H125.428L107.938 162.1C104.963 162.1 99.6411 159.651 98.1023 155.855C96.6149 152.175 96.0122 147.431 102.783 140.275C103.283 139.634 116.811 122.785 123.261 118.553C126.185 116.63 129.121 115.655 131.955 115.655C136.43 115.655 140.457 118.053 143.303 122.426C145.612 125.978 146.407 129.837 145.522 133.287C144.663 136.634 142.252 139.455 138.533 141.442L130.929 144.981L147.304 145.994C147.522 146.007 147.74 146.084 147.932 146.2L158.46 153.175C161.204 155.073 161.897 158.83 160.012 161.562C159.191 162.754 157.614 163.382 155.447 163.382L155.408 163.37ZM149.676 159.279C149.933 159.279 150.189 159.356 150.407 159.51C151.331 160.151 153.459 160.818 155.421 160.818C156.639 160.818 157.575 160.549 157.883 160.1C158.96 158.535 158.576 156.381 156.998 155.304L146.778 148.533L125.71 147.238C125.12 147.2 124.633 146.777 124.531 146.2C124.415 145.623 124.723 145.046 125.249 144.802L137.379 139.16C140.431 137.531 142.342 135.326 143.034 132.659C143.739 129.914 143.073 126.773 141.162 123.836C139.803 121.746 136.789 118.233 131.968 118.233C129.634 118.233 127.185 119.066 124.684 120.708C118.581 124.721 104.873 141.801 104.732 141.968C98.6153 148.444 99.3462 152.034 100.5 154.906C101.641 157.728 106.04 159.536 107.963 159.548L125.633 159.715C129.634 159.715 149.458 159.292 149.664 159.279H149.689H149.676Z" fill="#006AE3"/>
<path d="M165.384 61.8338C165.384 49.0108 154.985 38.6113 142.162 38.6113C129.339 38.6113 118.939 49.0108 118.939 61.8338C118.939 74.6567 129.339 85.0562 142.162 85.0562C154.985 85.0562 165.384 74.6567 165.384 61.8338Z" fill="white"/>
<path d="M142.16 86.342C128.645 86.342 117.655 75.3527 117.655 61.8372C117.655 48.3218 128.645 37.3325 142.16 37.3325C155.675 37.3325 166.665 48.3218 166.665 61.8372C166.665 75.3527 155.675 86.342 142.16 86.342ZM142.16 39.8971C130.068 39.8971 120.22 49.7324 120.22 61.8372C120.22 73.9422 130.068 83.7774 142.16 83.7774C154.252 83.7774 164.1 73.9293 164.1 61.8372C164.1 49.7452 154.252 39.8971 142.16 39.8971Z" fill="#0068DE"/>
<path d="M157.01 57.1573H147.341V47.4888H136.967V57.1573H127.312V67.5183H136.967V77.1868H147.341V67.5183H157.01V57.1573Z" fill="#B5FDFF"/>
<path d="M148.625 78.4727H135.686V68.8042H126.018V55.8658H135.686V46.1973H148.625V55.8658H158.293V68.8042H148.625V78.4727ZM138.251 75.9081H146.06V66.2396H155.728V58.4304H146.06V48.7619H138.251V58.4304H128.582V66.2396H138.251V75.9081Z" fill="#0068DE"/>
</svg>
