<svg width="200" height="200" viewBox="0 0 200 200" fill="none" xmlns="http://www.w3.org/2000/svg">
<rect width="200" height="200" rx="100" fill="white"/>
<path d="M118.697 60.6006H41.2188V153.353H118.697V60.6006Z" fill="#99CCFF"/>
<path d="M118.697 154.575H41.219C40.5485 154.575 40 154.026 40 153.356V60.6037C40 59.9333 40.5485 59.3848 41.219 59.3848H118.697C119.368 59.3848 119.916 59.9333 119.916 60.6037V153.356C119.916 154.026 119.368 154.575 118.697 154.575ZM42.438 152.137H117.478V61.8227H42.438V152.137Z" fill="#006AE3"/>
<path d="M118.697 54.3848H41.2188V147.137H118.697V54.3848Z" fill="white"/>
<path d="M118.697 148.356H41.219C40.5485 148.356 40 147.808 40 147.137V54.385C40 53.7146 40.5485 53.166 41.219 53.166H118.697C119.368 53.166 119.916 53.7146 119.916 54.385V147.137C119.916 147.808 119.368 148.356 118.697 148.356ZM42.438 145.918H117.478V55.604H42.438V145.918Z" fill="#006AE3"/>
<path d="M85.8695 50.1883L86.3327 40.9241C86.3327 37.4012 83.4803 34.5488 79.9575 34.5488C76.4346 34.5488 73.5822 37.4012 73.5822 40.9241L74.0454 50.1883H65.4272V61.6467H94.4877V50.1883H85.8695Z" fill="#99CCFF"/>
<path d="M94.4879 62.8684H65.4275C64.757 62.8684 64.2085 62.3199 64.2085 61.6494V50.191C64.2085 49.5206 64.757 48.972 65.4275 48.972H72.7657L72.3635 40.9877C72.3635 36.7457 75.7644 33.3325 79.9577 33.3325C84.151 33.3325 87.5519 36.7335 87.5519 40.9268L87.1497 48.972H94.4879C95.1584 48.972 95.7069 49.5206 95.7069 50.191V61.6494C95.7069 62.3199 95.1584 62.8684 94.4879 62.8684ZM66.6465 60.4304H93.269V51.41H85.8698C85.5406 51.41 85.2115 51.2759 84.9921 51.0321C84.7605 50.7883 84.6386 50.4592 84.663 50.1301L85.1262 40.8658C85.1262 38.0865 82.8101 35.7705 79.9699 35.7705C77.1297 35.7705 74.8136 38.0865 74.8136 40.9268L75.2768 50.1301C75.289 50.4592 75.1793 50.7883 74.9477 51.0321C74.7161 51.2759 74.3992 51.41 74.07 51.41H66.6708V60.4304H66.6465Z" fill="#006AE3"/>
<path d="M81.6413 41.3565C81.6413 40.4301 80.8855 39.6865 79.9713 39.6865C79.057 39.6865 78.2891 40.4301 78.2891 41.3565C78.2891 42.2829 79.0448 43.0265 79.9713 43.0265C80.8977 43.0265 81.6413 42.2708 81.6413 41.3565Z" fill="#006AE3"/>
<path d="M106.997 75.8276H91.7478C91.0773 75.8276 90.5288 75.2791 90.5288 74.6086C90.5288 73.9382 91.0773 73.3896 91.7478 73.3896H106.997C107.668 73.3896 108.216 73.9382 108.216 74.6086C108.216 75.2791 107.668 75.8276 106.997 75.8276Z" fill="#006AE3"/>
<path d="M106.997 88.6401H91.7478C91.0773 88.6401 90.5288 88.0916 90.5288 87.4211C90.5288 86.7507 91.0773 86.2021 91.7478 86.2021H106.997C107.668 86.2021 108.216 86.7507 108.216 87.4211C108.216 88.0916 107.668 88.6401 106.997 88.6401Z" fill="#006AE3"/>
<path d="M106.997 101.448H91.7478C91.0773 101.448 90.5288 100.899 90.5288 100.229C90.5288 99.5583 91.0773 99.0098 91.7478 99.0098H106.997C107.668 99.0098 108.216 99.5583 108.216 100.229C108.216 100.899 107.668 101.448 106.997 101.448Z" fill="#006AE3"/>
<path d="M106.994 114.245H52.2009C51.5305 114.245 50.9819 113.696 50.9819 113.026C50.9819 112.355 51.5305 111.807 52.2009 111.807H106.982C107.652 111.807 108.201 112.355 108.201 113.026C108.201 113.696 107.652 114.245 106.982 114.245H106.994Z" fill="#006AE3"/>
<path d="M106.994 127.062H52.2009C51.5305 127.062 50.9819 126.513 50.9819 125.843C50.9819 125.173 51.5305 124.624 52.2009 124.624H106.982C107.652 124.624 108.201 125.173 108.201 125.843C108.201 126.513 107.652 127.062 106.982 127.062H106.994Z" fill="#006AE3"/>
<path d="M68.4256 103.377C61.0873 96.3311 50.6772 91.7843 50.6772 82.0568C50.6772 76.4251 54.6877 72.8535 59.6246 72.8535C63.9276 72.8535 68.4256 74.8039 68.4256 79.3019C68.4256 74.8161 72.9236 72.8535 77.2266 72.8535C82.1635 72.8535 86.1739 76.4373 86.1739 82.0568C86.1739 91.7843 75.7638 96.3433 68.4256 103.377Z" fill="#99CCFF"/>
<path d="M68.4258 104.598C68.1211 104.598 67.8163 104.489 67.5847 104.257C65.6587 102.404 63.4768 100.698 61.3557 99.0521C55.5046 94.4809 49.4585 89.7634 49.4585 82.0595C49.4585 76.0133 53.7371 71.6372 59.6248 71.6372C63.1111 71.6372 66.6339 72.7952 68.4258 75.3185C70.2177 72.8074 73.7284 71.6372 77.2268 71.6372C83.1145 71.6372 87.3931 76.0255 87.3931 82.0595C87.3931 89.7634 81.347 94.4931 75.4959 99.0521C73.3871 100.698 71.1929 102.404 69.2669 104.257C69.0353 104.489 68.7306 104.598 68.4258 104.598ZM59.6248 74.0752C55.078 74.0752 51.8965 77.3542 51.8965 82.0595C51.8965 88.581 57.2234 92.7377 62.8551 97.1383C64.7201 98.5888 66.6339 100.088 68.4258 101.722C70.2177 100.1 72.1315 98.601 73.9965 97.1383C79.6282 92.7377 84.9552 88.581 84.9552 82.0717C84.9552 77.3664 81.7736 74.0874 77.2268 74.0874C74.411 74.0874 69.6448 75.1844 69.6448 79.3168C69.6448 79.9872 69.0963 80.5358 68.4258 80.5358C67.7554 80.5358 67.2068 79.9872 67.2068 79.3168C67.2068 75.1966 62.4406 74.0874 59.6248 74.0874V74.0752Z" fill="#006AE3"/>
<path d="M160.082 134.739C160.082 117.783 146.344 104.033 129.376 104.033C112.407 104.033 98.6694 117.783 98.6694 134.739C98.6694 151.695 112.42 165.445 129.376 165.445C146.332 165.445 160.082 151.695 160.082 134.739Z" fill="white"/>
<path d="M129.388 166.667C111.786 166.667 97.4634 152.344 97.4634 134.742C97.4634 117.14 111.786 102.817 129.388 102.817C146.991 102.817 161.314 117.14 161.314 134.742C161.314 152.344 146.991 166.667 129.388 166.667ZM129.388 105.255C113.127 105.255 99.9013 118.481 99.9013 134.742C99.9013 151.003 113.127 164.229 129.388 164.229C145.65 164.229 158.876 151.003 158.876 134.742C158.876 118.481 145.65 105.255 129.388 105.255Z" fill="#0068DE"/>
<path d="M153.474 134.74C153.474 121.441 142.686 110.653 129.375 110.653C116.064 110.653 105.276 121.441 105.276 134.74C105.276 148.039 116.064 158.839 129.375 158.839C142.686 158.839 153.474 148.051 153.474 134.74Z" fill="#99CCFF"/>
<path d="M129.389 160.058C115.431 160.058 104.07 148.697 104.07 134.74C104.07 120.783 115.431 109.434 129.389 109.434C143.346 109.434 154.707 120.783 154.707 134.74C154.707 148.697 143.346 160.058 129.389 160.058ZM129.389 111.872C116.772 111.872 106.508 122.136 106.508 134.74C106.508 147.344 116.772 157.62 129.389 157.62C142.005 157.62 152.269 147.357 152.269 134.74C152.269 122.124 142.005 111.872 129.389 111.872Z" fill="#0068DE"/>
<path d="M125.244 153.233C125.28 152.99 125.816 148.808 125.816 148.565C123.257 148.284 121.148 147.589 119.648 146.736V142.835C121.599 143.725 123.903 144.42 126.377 144.664L127.633 135.01L126.694 134.729C122.318 133.51 119.722 131.365 119.722 126.489C119.722 121.613 122.964 118.127 129.583 118.127H129.79L130.119 115.567H133.203L132.838 118.322C134.825 118.602 136.202 119.212 137.336 119.748V123.722C135.995 123.112 134.337 122.588 132.35 122.344C132.314 122.747 131.253 130.743 131.18 131.145C136.458 132.608 139.055 134.51 139.055 139.788C139.055 145.066 135.849 148.589 128.913 148.711L128.34 153.209H125.256L125.244 153.233ZM128.206 130.317C128.291 129.914 129.181 122.527 129.266 122.162C126.219 122.247 124.476 123.697 124.476 126.014C124.476 128.33 125.17 129.341 128.206 130.317ZM130.558 135.912C130.522 136.314 129.461 144.274 129.388 144.713C132.679 144.347 134.13 142.64 134.13 140.288C134.13 138.057 133.313 136.887 130.558 135.912Z" fill="#B5FDFF" stroke="#0068DE" stroke-width="2" stroke-miterlimit="10"/>
</svg>
