<svg width="200" height="200" viewBox="0 0 200 200" fill="none" xmlns="http://www.w3.org/2000/svg">
<rect width="200" height="200" rx="100" fill="white"/>
<path d="M148.076 68.9333C158.901 87.6763 152.477 111.646 133.734 122.465C114.991 133.29 91.0217 126.866 80.2024 108.123C69.3831 89.3802 75.8015 65.4105 94.5445 54.5912C113.287 43.7667 137.257 50.1903 148.076 68.9333Z" fill="#99CCFF"/>
<path d="M133.263 73.0723H116.47V104.25H133.263V73.0723Z" fill="white"/>
<path d="M133.27 106.337H116.477C115.322 106.337 114.386 105.402 114.386 104.247V73.0692C114.386 71.9141 115.322 70.9785 116.477 70.9785H133.27C134.425 70.9785 135.361 71.9141 135.361 73.0692V104.247C135.361 105.402 134.425 106.337 133.27 106.337ZM118.568 102.156H131.18V75.1599H118.568V102.156Z" fill="#0068DE"/>
<path d="M98.0508 69.2495L60.1206 107.18V143.322C60.1206 145.544 61.9186 147.342 64.1399 147.342H131.956C134.178 147.342 135.976 145.539 135.976 143.322V107.18L98.0508 69.2495Z" fill="white"/>
<path d="M131.964 149.435H64.1471C60.7759 149.435 58.0371 146.69 58.0371 143.324V107.182C58.0371 106.628 58.2566 106.095 58.6486 105.703L96.5736 67.7724C96.9656 67.3804 97.4988 67.1609 98.0528 67.1609C98.6068 67.1609 99.1399 67.3804 99.5319 67.7724L137.462 105.703C137.854 106.095 138.074 106.628 138.074 107.182V143.324C138.074 146.696 135.33 149.435 131.964 149.435ZM62.2132 108.049V143.324C62.2132 144.391 63.0809 145.253 64.1419 145.253H131.958C133.025 145.253 133.887 144.385 133.887 143.324V108.049L98.0528 72.2099L62.2132 108.049Z" fill="#0068DE"/>
<path d="M48.7582 120.635C48.225 120.635 47.6867 120.432 47.279 120.024C46.4636 119.208 46.4636 117.886 47.279 117.066L96.5721 67.7724C97.3875 66.957 98.7098 66.957 99.5304 67.7724C100.346 68.5878 100.346 69.9101 99.5304 70.7307L50.2373 120.024C49.8296 120.432 49.2965 120.635 48.7582 120.635Z" fill="#0068DE"/>
<path d="M147.348 120.635C146.815 120.635 146.277 120.432 145.869 120.024L96.5705 70.7307C95.7551 69.9154 95.7551 68.5878 96.5705 67.7724C97.3859 66.957 98.7135 66.957 99.5288 67.7724L148.822 117.066C149.637 117.881 149.637 119.208 148.822 120.024C148.414 120.432 147.876 120.635 147.343 120.635H147.348Z" fill="#0068DE"/>
<path d="M109.912 122.093C109.912 115.544 104.602 110.239 98.0583 110.239C91.5144 110.239 86.2041 115.549 86.2041 122.093V147.343H109.912V122.093Z" fill="#99CCFF"/>
<path d="M109.909 149.436H86.201C85.0459 149.436 84.1104 148.501 84.1104 147.345V122.095C84.1104 114.407 90.3667 108.15 98.0552 108.15C105.744 108.15 112 114.407 112 122.095V147.345C112 148.501 111.064 149.436 109.909 149.436ZM88.2917 145.255H107.819V122.095C107.819 116.712 103.439 112.332 98.0552 112.332C92.6717 112.332 88.2917 116.712 88.2917 122.095V145.255Z" fill="#0068DE"/>
</svg>
