<svg width="139" height="200" viewBox="0 0 139 200" fill="none" xmlns="http://www.w3.org/2000/svg">
<path d="M42.2776 71.7998C42.2776 71.7998 40.9158 89.1187 42.2776 112.893C43.6394 136.667 45.3321 181.53 45.3321 181.53H72.4991L65.3669 113.57L82.6858 181.53H108.837C108.837 181.53 86.425 88.7802 79.6313 71.7998H42.2699H42.2776Z" fill="#333333"/>
<path d="M46.1861 181.528L45.332 185.375L57.019 193.115L66.3517 186.022L65.7669 181.528H46.1861Z" fill="#F7B49F"/>
<path d="M45.3324 185.376C45.3324 185.376 34.8842 197.24 36.623 198.748C38.3695 200.256 67.7216 200.572 68.1216 198.748C68.5217 196.925 66.352 186.023 66.352 186.023C66.352 186.023 60.5124 185.899 59.3199 186.769C58.1273 187.638 56.7809 192.008 56.7809 192.008C56.7809 192.008 57.6118 184.384 45.3324 185.376Z" fill="#2A2628"/>
<path d="M107.714 181.528L109.407 185.375L97.7199 193.115L88.2026 187.245L87.1255 181.528H107.714Z" fill="#F7B49F"/>
<path d="M109.407 185.376C109.407 185.376 119.855 197.24 118.116 198.748C116.37 200.256 87.0175 200.572 86.6174 198.748C86.2174 196.925 88.3947 186.023 88.3947 186.023C88.3947 186.023 94.2344 185.899 95.4269 186.769C96.6195 187.638 97.9659 192.008 97.9659 192.008C97.9659 192.008 97.135 184.384 109.414 185.376H109.407Z" fill="#2A2628"/>
<path d="M65.3672 113.576L61.5049 95.6338L65.7673 181.528H72.4994L65.3672 113.576Z" fill="black"/>
<path d="M125.879 49.7325C125.879 49.7325 128.234 51.2482 128.957 54.7027C129.688 58.1573 119.062 63.2429 119.062 63.2429L124.025 49.04L125.879 49.7325Z" fill="#F7B49F"/>
<path d="M42.4547 71.7987L41.4853 64.0356L39.3156 64.4665L27.1055 47.2245C27.1055 47.2245 35.8303 37.1225 46.8018 33.0986C50.741 39.1306 59.7967 38.3843 62.6973 31.7906L63.0743 30.9366C63.0743 30.9366 81.1856 30.5057 91.3184 36.33L83.9862 50.5636L83.3245 71.7987H42.4547Z" fill="#2962F6"/>
<path d="M46.8019 33.0984C46.8019 33.0984 53.7264 30.5287 63.0667 30.9441L62.6897 31.7981C59.7891 38.3918 50.7334 39.1304 46.7942 33.1061L46.8019 33.0984Z" fill="#2962F6"/>
<path d="M124.949 46.2861H63.3438V89.1409H124.949V46.2861Z" fill="#FCE147"/>
<path d="M126.687 55.1567C126.687 55.1567 119.07 61.5811 121.34 63.9277C124.725 67.4284 130.649 59.0652 130.819 57.0956C130.988 55.126 128.295 53.718 126.687 55.1567Z" fill="#F7B49F"/>
<path d="M123.417 68.3521H63.3437C63.1282 68.3521 62.959 68.1829 62.959 67.9675C62.959 67.752 63.1282 67.5828 63.3437 67.5828H123.417C123.633 67.5828 123.802 67.752 123.802 67.9675C123.802 68.1829 123.633 68.3521 123.417 68.3521Z" fill="#2A2628"/>
<path d="M126.587 59.7964C126.587 59.7964 118.64 65.4283 121.24 68.5674C122.894 70.5601 130.55 63.7049 130.719 61.7352C130.888 59.7656 128.195 58.3576 126.587 59.7964Z" fill="#F7B49F"/>
<path d="M126.133 64.22C126.133 64.22 118.493 69.4364 121.925 72.891C123.74 74.7221 130.095 68.1285 130.265 66.1588C130.434 64.1892 127.741 62.7812 126.133 64.22Z" fill="#F7B49F"/>
<path d="M126.133 68.5678C126.133 68.5678 119.147 73.9228 122.825 76.5771C125.318 78.3698 129.819 72.2147 129.98 70.3759C130.134 68.5448 127.634 67.2291 126.133 68.5678Z" fill="#F7B49F"/>
<path d="M114.139 19.9961H79.6777V46.3322H114.139V19.9961Z" fill="#00E0E3"/>
<path d="M94.0422 89.7796C93.8267 89.7796 93.6575 89.6103 93.6575 89.3949V46.5478C93.6575 46.3324 93.8267 46.1631 94.0422 46.1631C94.2576 46.1631 94.4269 46.3324 94.4269 46.5478V89.3949C94.4269 89.6103 94.2576 89.7796 94.0422 89.7796Z" fill="#2A2628"/>
<path d="M96.912 46.6705C96.6966 46.6705 96.5273 46.5013 96.5273 46.2858V19.9882C96.5273 19.7728 96.6966 19.6035 96.912 19.6035C97.1275 19.6035 97.2967 19.7728 97.2967 19.9882V46.2858C97.2967 46.5013 97.1275 46.6705 96.912 46.6705Z" fill="#2A2628"/>
<path d="M114.138 33.545H79.6777C79.4622 33.545 79.293 33.3758 79.293 33.1603C79.293 32.9449 79.4622 32.7756 79.6777 32.7756H114.138C114.354 32.7756 114.523 32.9449 114.523 33.1603C114.523 33.3758 114.354 33.545 114.138 33.545Z" fill="#2A2628"/>
<path d="M96.9119 20.3811C95.4193 20.3811 94.8115 15.7879 94.8115 13.8721C94.8115 11.6717 95.4193 10.7715 96.9119 10.7715C98.4046 10.7715 99.0124 11.6717 99.0124 13.8721C99.0124 15.7879 98.4122 20.3811 96.9119 20.3811ZM96.9119 11.5486C96.258 11.5486 95.5809 11.5486 95.5809 13.8798C95.5809 16.6034 96.4349 19.5271 96.9119 19.6194C97.3813 19.5271 98.2353 16.6034 98.2353 13.8798C98.2353 11.5486 97.5582 11.5486 96.9043 11.5486H96.9119Z" fill="#2A2628"/>
<path d="M96.5812 20.3729C95.1656 20.3729 92.5881 17.48 91.611 16.072C90.3646 14.264 90.3492 13.1792 91.5802 12.3328C92.8036 11.4865 93.8191 11.8789 95.0656 13.6946C96.1504 15.2719 98.2662 19.3958 97.0352 20.2421C96.9044 20.3344 96.7505 20.3729 96.5812 20.3729ZM92.7343 12.6637C92.4573 12.6637 92.2419 12.8175 92.0188 12.9637C91.4802 13.333 90.9263 13.7177 92.2496 15.6335C93.7961 17.8724 96.1658 19.7959 96.6043 19.6035C96.9429 19.265 95.9811 16.3721 94.4346 14.1255C93.6499 12.9868 93.1344 12.6637 92.7343 12.6637Z" fill="#2A2628"/>
<path d="M97.2429 20.3734C97.0736 20.3734 96.9197 20.3349 96.7889 20.2426C95.5579 19.3963 97.6737 15.2724 98.7586 13.6951C100.005 11.8871 101.021 11.4947 102.244 12.3333C103.467 13.1796 103.46 14.2645 102.213 16.0725C101.244 17.4805 98.6662 20.3734 97.2429 20.3734ZM99.3895 14.1337C97.843 16.3726 96.8813 19.2655 97.2275 19.6117C97.6583 19.8041 100.028 17.8806 101.575 15.6417C102.898 13.7259 102.344 13.3412 101.805 12.9719C101.267 12.6026 100.713 12.2179 99.3895 14.1337Z" fill="#2A2628"/>
<path d="M50.7795 27.6515C47.9636 26.4744 45.817 23.6507 45.0784 20.7424C45.0784 20.7424 45.9401 15.1644 46.571 14.5797C47.4789 13.7256 48.7176 12.9101 49.5408 13.064C52.5106 13.6179 50.9642 8.99391 53.9417 9.65559C56.8423 10.3019 56.0267 10.0634 59.2274 9.18626C62.428 8.30916 64.79 15.5106 64.7516 16.1492C64.7131 16.7878 62.1895 20.0654 62.1895 20.0654L50.7795 27.6669V27.6515Z" fill="#2A2628"/>
<path d="M55.1112 37.1531C52.6338 37.1531 50.6411 35.1296 50.6642 32.6522C50.7103 28.4744 50.5872 23.1195 50.1333 20.7344L59.6121 26.3663C59.6121 26.3663 59.5583 29.6516 59.5583 32.706C59.5583 35.1604 57.5656 37.1531 55.1112 37.1531Z" fill="#F7B49F"/>
<path d="M50.8642 22.0731L53.5801 27.3049C54.8958 28.4359 56.5499 29.0053 58.2426 28.636C61.2586 27.9897 62.5358 25.6969 62.5819 22.5963C62.5819 22.4501 62.5819 22.3039 62.5819 22.1577C62.5742 21.6653 62.5358 21.1575 62.4742 20.6267C62.4742 20.5959 62.4665 20.5651 62.4588 20.5343C62.4588 20.5113 62.4588 20.4959 62.4511 20.4728C61.9203 16.4797 59.9429 13.4637 56.4191 13.8945C52.0106 14.4408 50.3718 17.9954 50.8719 22.0654L50.8642 22.0731Z" fill="#F7B49F"/>
<path d="M57.2498 29.1829C56.3111 29.1829 55.1801 28.9059 54.0953 27.9365C53.9337 27.798 53.9184 27.5518 54.0645 27.3902C54.203 27.2287 54.4492 27.2133 54.6108 27.3595C56.7728 29.2752 59.0348 28.0288 59.1348 27.975C59.3194 27.8673 59.558 27.9365 59.658 28.1212C59.7657 28.3058 59.6964 28.5366 59.5195 28.6443C59.5041 28.652 58.5578 29.1829 57.2652 29.1829H57.2498Z" fill="#2A2628"/>
<path d="M59.2196 22.9041C59.0504 22.9041 58.8965 22.7964 58.8503 22.6195C58.7965 22.4117 58.9119 22.204 59.1196 22.1424C59.4812 22.0424 59.5736 21.927 59.5812 21.8885C59.6043 21.7654 59.335 21.4423 59.0427 21.2346C58.9734 21.1884 58.9196 21.1115 58.8965 21.0345C58.6503 20.2344 59.2273 19.2034 59.2889 19.088C59.3966 18.9033 59.6274 18.8418 59.8121 18.9495C59.9967 19.0572 60.0583 19.288 59.9505 19.4727C59.8351 19.6727 59.5505 20.2805 59.6043 20.7037C59.8813 20.9268 60.4276 21.4423 60.3352 22.027C60.266 22.4271 59.9275 22.7195 59.3196 22.8887C59.2889 22.8964 59.2504 22.9041 59.2119 22.9041H59.2196Z" fill="#D86C6C"/>
<path d="M60.2969 20.1574C60.2969 20.5036 60.5739 20.7806 60.9201 20.7806C61.2663 20.7806 61.5433 20.5036 61.5433 20.1574C61.5433 19.8112 61.2663 19.5342 60.9201 19.5342C60.5739 19.5342 60.2969 19.8112 60.2969 20.1574Z" fill="#2A2628"/>
<path d="M55.4341 20.1574C55.4341 20.5036 55.7111 20.7806 56.0573 20.7806C56.4035 20.7806 56.6805 20.5036 56.6805 20.1574C56.6805 19.8112 56.4035 19.5342 56.0573 19.5342C55.7111 19.5342 55.4341 19.8112 55.4341 20.1574Z" fill="#2A2628"/>
<path d="M54.9109 18.834C54.7955 18.834 54.6878 18.7878 54.6108 18.6878C54.48 18.5262 54.5031 18.28 54.6724 18.1492C55.9265 17.1414 57.3345 17.9569 57.396 17.9954C57.5807 18.1031 57.6345 18.3416 57.5268 18.5262C57.4191 18.7109 57.1806 18.7648 57.0036 18.657C56.9575 18.634 55.988 18.08 55.1571 18.7494C55.0879 18.8032 55.0032 18.834 54.9186 18.834H54.9109Z" fill="#2A2628"/>
<path d="M59.9659 18.8348C59.889 18.8348 59.8121 18.8118 59.7428 18.7656C59.5736 18.6425 59.5274 18.4194 59.6428 18.2424C59.6659 18.2039 60.266 17.3422 61.8432 17.7192C62.051 17.7654 62.1741 17.9731 62.1279 18.1809C62.0818 18.3886 61.874 18.5194 61.6663 18.4655C60.6353 18.2193 60.2968 18.6579 60.2814 18.681C60.2045 18.781 60.089 18.8348 59.9659 18.8348Z" fill="#2A2628"/>
<path d="M58.4271 24.8282C58.1117 24.8282 57.7731 24.7743 57.4423 24.6358C56.8884 24.3896 56.496 23.928 56.2651 23.2663C56.1959 23.0663 56.3036 22.8432 56.5037 22.7739C56.7037 22.7047 56.9268 22.8124 56.9961 23.0124C57.1576 23.4741 57.4038 23.7741 57.7578 23.928C58.4887 24.2512 59.435 23.8665 59.4427 23.8588C59.6351 23.7741 59.8659 23.8588 59.9505 24.0588C60.0351 24.2512 59.9505 24.482 59.7505 24.5666C59.712 24.582 59.135 24.8282 58.4348 24.8282H58.4271Z" fill="#D86C6C"/>
<path d="M56.8807 13.334C56.8807 13.334 58.1272 15.9114 56.1806 16.9655C54.2341 18.0195 55.6113 18.8659 53.7416 19.4583L51.872 20.0507L49.7485 19.1198L50.9872 15.1113L54.511 13.7187L56.8807 13.3417V13.334Z" fill="#2A2628"/>
<path d="M52.2106 23.6731C52.0183 23.8654 51.7951 24.0193 51.5259 24.1116C50.4718 24.4809 49.2562 23.7577 48.8099 22.4959C48.3714 21.2341 48.8638 19.9108 49.9255 19.5415C50.4795 19.3491 51.0796 19.4568 51.5874 19.7877C51.5874 19.7877 52.1106 20.1647 52.503 21.0879L52.2106 23.6731Z" fill="#F7B49F"/>
<path d="M51.1413 22.5574C50.9412 22.5574 50.772 22.4035 50.7566 22.2035C50.7104 21.5957 50.1718 21.5803 50.0026 21.5957C49.8025 21.5957 49.6102 21.4495 49.5948 21.2417C49.5794 21.034 49.7333 20.8493 49.9487 20.834C50.0103 20.8263 50.6181 20.7955 51.072 21.1802C51.3413 21.411 51.5029 21.7495 51.526 22.1573C51.5414 22.3727 51.3798 22.5497 51.1721 22.5651C51.1644 22.5651 51.1567 22.5651 51.1413 22.5651V22.5574Z" fill="#2A2628"/>
<path d="M24.6436 60.1043L28.729 49.5176L39.3158 64.4668L34.5071 65.667L24.6436 60.1043Z" fill="#F7B49F"/>
<path d="M24.6436 60.1044C24.6436 60.1044 18.2346 75.6152 28.5751 80.7008C36.1997 84.4478 59.1659 69.4986 59.1659 69.4986L60.2892 58.8503L56.7193 54.634L35.8612 63.7359L24.6436 60.1044Z" fill="#F7B49F"/>
<path d="M69.9219 53.7566C70.0219 55.1492 69.014 56.2571 66.1365 55.7955C64.4362 55.5262 62.1819 56.5649 60.62 57.4651C59.5352 58.0959 58.7812 58.6499 58.7812 58.6499L54.7265 63.5278L52.126 63.3355C52.3491 61.989 52.5722 60.6426 52.7107 59.7347C52.7107 59.7347 52.7107 59.727 52.7107 59.7194C52.7107 59.7194 52.7107 59.7117 52.7107 59.704C53.0262 58.2575 54.8419 52.918 58.0195 51.0638C58.8966 50.5483 60.6431 49.1403 62.5665 49.448C64.4823 49.7558 69.8142 52.3794 69.9142 53.7643L69.9219 53.7566Z" fill="#F7B49F"/>
<path d="M58.7964 55.026C59.7889 55.2338 61.42 53.1026 63.3435 53.4103C65.267 53.7181 70.5911 56.3417 70.6911 57.7266C70.7911 59.1115 69.7832 60.2194 66.9057 59.7655C64.0282 59.3038 59.5504 62.6199 59.5504 62.6199C59.5504 62.6199 57.8116 54.8183 58.7964 55.026Z" fill="#F7B49F"/>
<path d="M59.2659 58.6039C60.2584 58.8117 61.8895 56.6805 63.813 56.9882C65.7364 57.296 71.0606 59.9196 71.1606 61.3045C71.2606 62.6894 70.2527 63.7973 67.3752 63.3433C64.4977 62.8894 60.0199 66.1978 60.0199 66.1978C60.0199 66.1978 58.2811 58.3962 59.2659 58.6039Z" fill="#F7B49F"/>
<path d="M58.4195 61.9047C59.412 62.1124 61.0431 59.9812 62.9665 60.289C64.89 60.5968 70.2142 63.2204 70.3142 64.6053C70.4142 65.9901 69.4063 67.0981 66.5288 66.6441C63.6513 66.1902 59.1735 69.4986 59.1735 69.4986C59.1735 69.4986 57.4346 61.697 58.4195 61.9047Z" fill="#F7B49F"/>
<path d="M68.8369 56.2265C68.7677 56.2265 68.6908 56.2034 68.6292 56.1649C68.5984 56.1418 65.3439 54.0722 63.282 53.7875C63.0742 53.7567 62.928 53.5644 62.9511 53.3567C62.9819 53.1489 63.1742 53.0028 63.382 53.0258C65.6055 53.3336 68.8985 55.4263 69.037 55.511C69.2139 55.6264 69.2678 55.8649 69.1524 56.0418C69.0754 56.1572 68.9523 56.2188 68.8292 56.2188L68.8369 56.2265Z" fill="#0F1E4C"/>
<path d="M69.5986 60.0043C69.5294 60.0043 69.4601 59.9889 69.3986 59.9505C68.3445 59.3273 65.4054 57.6731 64.4206 57.5346C64.2129 57.5038 64.0667 57.3115 64.0898 57.1037C64.1206 56.896 64.3129 56.7498 64.5207 56.7729C65.8363 56.9576 69.3832 59.0503 69.7833 59.2888C69.9679 59.3965 70.0218 59.635 69.9141 59.8197C69.8448 59.9428 69.714 60.0043 69.5832 60.0043H69.5986Z" fill="#0F1E4C"/>
<path d="M69.2062 63.796C69.1292 63.796 69.0523 63.7729 68.9907 63.7268C67.6443 62.8035 65.2208 61.3417 64.4129 61.3417H64.4052C64.1975 61.3417 64.0205 61.1724 64.0205 60.957C64.0205 60.7415 64.1898 60.5723 64.4052 60.5723H64.4129C65.7285 60.5723 69.06 62.8343 69.4293 63.0959C69.6063 63.219 69.6524 63.4575 69.5293 63.6344C69.4524 63.7421 69.337 63.8037 69.2139 63.8037L69.2062 63.796Z" fill="#0F1E4C"/>
<path d="M29.0212 67.2513C28.9289 67.2513 28.8288 67.2128 28.7519 67.1436C28.598 66.9974 28.5903 66.7512 28.7442 66.5973C32.545 62.6349 37.5614 62.5042 37.7768 62.5042C37.9768 62.4811 38.1615 62.6657 38.1692 62.8811C38.1692 63.0966 38.0076 63.2658 37.7922 63.2735C37.746 63.2735 32.8681 63.412 29.2982 67.1359C29.2212 67.2128 29.1212 67.2513 29.0212 67.2513Z" fill="#0F1E4C"/>
<path d="M122.879 64.9597C122.209 64.9597 121.702 64.7058 121.663 64.6827C121.471 64.5827 121.402 64.3519 121.502 64.1672C121.602 63.9826 121.832 63.9056 122.017 64.0057C122.063 64.0287 123.087 64.5365 123.964 63.7902C125.041 62.867 128.249 59.9741 128.288 59.9433C128.449 59.8048 128.688 59.8125 128.834 59.9741C128.98 60.1356 128.965 60.3742 128.803 60.5203C128.772 60.5511 125.556 63.4517 124.464 64.3827C123.925 64.8366 123.356 64.9751 122.871 64.9751L122.879 64.9597Z" fill="#0F1E4C"/>
<path d="M122.509 69.3758C122.032 69.3758 121.748 69.2834 121.717 69.2758C121.517 69.2065 121.409 68.9834 121.479 68.7833C121.548 68.5833 121.763 68.4756 121.963 68.5448C122.032 68.5679 123.533 69.0218 125.618 67.2292C127.703 65.4442 127.988 65.0057 127.995 64.9903C128.08 64.7979 128.295 64.721 128.495 64.8056C128.688 64.8902 128.772 65.1288 128.688 65.3288C128.565 65.6135 127.626 66.5213 126.118 67.8139C124.595 69.1219 123.287 69.3758 122.502 69.3758H122.509Z" fill="#0F1E4C"/>
<path d="M123.056 73.607C122.186 73.607 121.717 73.2223 121.671 73.1838C121.509 73.0453 121.494 72.7991 121.632 72.6375C121.771 72.476 122.009 72.4606 122.171 72.5914C122.209 72.6222 123.925 73.8916 127.272 70.1294C127.41 69.9678 127.657 69.9601 127.818 70.0986C127.98 70.2371 127.995 70.4833 127.849 70.6448C125.718 73.0453 124.102 73.607 123.056 73.607Z" fill="#0F1E4C"/>
<path d="M120.717 15.9576C120.609 15.9576 120.509 15.9114 120.432 15.8268C120.294 15.6652 120.301 15.4267 120.463 15.2805L128.749 7.81747C128.903 7.67128 129.149 7.68667 129.295 7.84824C129.434 8.00981 129.426 8.24832 129.265 8.3945L120.978 15.8576C120.901 15.9268 120.809 15.9576 120.724 15.9576H120.717Z" fill="#2A2628"/>
<path d="M124.033 22.2194C123.825 22.2194 123.648 22.0501 123.648 21.8424C123.648 21.6269 123.817 21.4577 124.025 21.45L134.743 21.3115C134.966 21.2807 135.127 21.4808 135.135 21.6885C135.135 21.9039 134.966 22.0732 134.758 22.0809L124.041 22.2194H124.033Z" fill="#2A2628"/>
<path d="M114.138 12.233C114.138 12.233 114.085 12.233 114.054 12.2253C113.846 12.1792 113.715 11.9714 113.761 11.7637L115.885 2.40027C115.931 2.19253 116.131 2.06174 116.347 2.1079C116.554 2.15406 116.685 2.3618 116.639 2.56953L114.515 11.933C114.477 12.1099 114.315 12.233 114.138 12.233Z" fill="#2A2628"/>
<path d="M1.45433 56.1412C1.45433 56.4336 1.21582 56.6721 0.923454 56.6721C0.631087 56.6721 0.392578 56.4336 0.392578 56.1412C0.392578 55.8489 0.631087 55.6104 0.923454 55.6104C1.21582 55.6104 1.45433 55.8489 1.45433 56.1412Z" fill="white"/>
<path d="M0.915572 57.0567C0.407777 57.0567 0 56.6413 0 56.1412C0 55.6411 0.41547 55.2256 0.915572 55.2256C1.41567 55.2256 1.83114 55.6411 1.83114 56.1412C1.83114 56.6413 1.41567 57.0567 0.915572 57.0567ZM0.915572 55.9873C0.830939 55.9873 0.769386 56.0565 0.769386 56.1335C0.769386 56.295 1.06945 56.295 1.06945 56.1335C1.06945 56.0488 1.0002 55.9873 0.923264 55.9873H0.915572Z" fill="#2A2628"/>
<path d="M16.8033 39.5693C17.0965 39.5693 17.3342 39.3316 17.3342 39.0384C17.3342 38.7452 17.0965 38.5076 16.8033 38.5076C16.5101 38.5076 16.2725 38.7452 16.2725 39.0384C16.2725 39.3316 16.5101 39.5693 16.8033 39.5693Z" fill="white"/>
<path d="M16.8035 39.9542C16.2957 39.9542 15.8879 39.5387 15.8879 39.0386C15.8879 38.5385 16.3034 38.123 16.8035 38.123C17.3036 38.123 17.7191 38.5385 17.7191 39.0386C17.7191 39.5387 17.3036 39.9542 16.8035 39.9542ZM16.8035 38.8847C16.7189 38.8847 16.6573 38.954 16.6573 39.0309C16.6573 39.1925 16.9574 39.1925 16.9574 39.0309C16.9574 38.9463 16.8881 38.8847 16.8112 38.8847H16.8035Z" fill="#2A2628"/>
<path d="M103.305 0.915643C103.305 1.20801 103.067 1.44652 102.775 1.44652C102.482 1.44652 102.244 1.20801 102.244 0.915643C102.244 0.623276 102.482 0.384766 102.775 0.384766C103.067 0.384766 103.305 0.623276 103.305 0.915643Z" fill="white"/>
<path d="M102.775 1.83114C102.267 1.83114 101.859 1.41567 101.859 0.91557C101.859 0.415469 102.275 0 102.775 0C103.275 0 103.69 0.415469 103.69 0.91557C103.69 1.41567 103.275 1.83114 102.775 1.83114ZM102.775 0.761693C102.69 0.761693 102.629 0.830937 102.629 0.907876C102.629 1.06945 102.929 1.06945 102.929 0.907876C102.929 0.823244 102.859 0.761693 102.782 0.761693H102.775Z" fill="#2A2628"/>
<path d="M138.359 38.4999C138.359 38.7922 138.12 39.0307 137.828 39.0307C137.536 39.0307 137.297 38.7922 137.297 38.4999C137.297 38.2075 137.536 37.969 137.828 37.969C138.12 37.969 138.359 38.2075 138.359 38.4999Z" fill="white"/>
<path d="M137.828 39.4229C137.32 39.4229 136.912 39.0075 136.912 38.5074C136.912 38.0073 137.328 37.5918 137.828 37.5918C138.328 37.5918 138.743 38.0073 138.743 38.5074C138.743 39.0075 138.328 39.4229 137.828 39.4229ZM137.828 38.3535C137.743 38.3535 137.682 38.4227 137.682 38.4997C137.682 38.6612 137.982 38.6612 137.982 38.4997C137.982 38.415 137.913 38.3535 137.836 38.3535H137.828Z" fill="#2A2628"/>
</svg>
