<svg width="135" height="135" viewBox="0 0 135 135" fill="none" xmlns="http://www.w3.org/2000/svg">
<circle cx="67.5" cy="67.5" r="67.5" fill="white"/>
<path d="M97.2031 94.9251H99.6817C101.422 94.9251 102.836 93.5105 102.836 91.7705V50.5105C102.836 48.7705 101.422 47.356 99.6817 47.356H97.2031V94.9251Z" fill="#00E0E3"/>
<path d="M36.4896 94.9251H34.011C32.271 94.9251 30.8564 93.5105 30.8564 91.7705V50.5105C30.8564 48.7705 32.271 47.356 34.011 47.356H36.4896V94.9251Z" fill="#00E0E3"/>
<path d="M99.7251 96.1755H33.9671C31.5636 96.1755 29.6045 94.2164 29.6045 91.813V50.4654C29.6045 48.0619 31.5636 46.1028 33.9671 46.1028H54.3279C54.8474 46.1028 55.2668 46.5221 55.2668 47.0416C55.2668 47.5612 54.8474 47.9805 54.3279 47.9805H33.9671C32.5963 47.9805 31.4822 49.0946 31.4822 50.4654V91.813C31.4822 93.1837 32.5963 94.2978 33.9671 94.2978H99.7251C101.096 94.2978 102.21 93.1837 102.21 91.813V50.4654C102.21 49.0946 101.096 47.9805 99.7251 47.9805H79.3643C78.8448 47.9805 78.4254 47.5612 78.4254 47.0416C78.4254 46.5221 78.8448 46.1028 79.3643 46.1028H99.7251C102.129 46.1028 104.088 48.0619 104.088 50.4654V91.813C104.088 94.2164 102.129 96.1755 99.7251 96.1755Z" fill="black"/>
<path d="M74.2257 44.3517C73.9065 44.3517 73.5998 44.189 73.4246 43.9011C71.985 41.5289 69.4626 40.0955 66.6898 40.0643C66.6648 40.0643 66.6335 40.0643 66.6084 40.0643C63.8482 40.0643 61.2444 41.5226 59.7985 43.876C59.5294 44.3204 58.9473 44.4519 58.5092 44.1827C58.0648 43.9136 57.9271 43.3315 58.2025 42.8934C59.9926 39.9829 63.2035 38.1865 66.6084 38.1865C66.6397 38.1865 66.6773 38.1865 66.7086 38.1865C70.1386 38.2241 73.2493 39.9954 75.0332 42.9247C75.3023 43.3691 75.1646 43.9449 74.7202 44.214C74.57 44.3079 74.401 44.3517 74.232 44.3517H74.2257Z" fill="#00E0E3"/>
<path d="M70.6834 47.3063C70.3642 47.3063 70.0575 47.1436 69.8822 46.8557C69.1937 45.7228 67.992 45.0405 66.665 45.0218H66.6275C65.3068 45.0218 64.0675 45.7165 63.3728 46.8432C63.1036 47.2876 62.5215 47.419 62.0834 47.1499C61.639 46.8807 61.5013 46.2986 61.7767 45.8605C62.8094 44.1831 64.6621 43.144 66.6275 43.144H66.6838C68.6617 43.1628 70.458 44.1831 71.4845 45.8793C71.7537 46.3237 71.6097 46.8995 71.1716 47.1686C71.0214 47.2625 70.8524 47.3063 70.6834 47.3063Z" fill="#00E0E3"/>
<path d="M77.7432 40.7844C77.424 40.7844 77.1173 40.6216 76.942 40.3337C74.7639 36.741 70.9646 34.5691 66.7647 34.5253C62.5148 34.4502 58.6279 36.6158 56.3934 40.2398C56.118 40.6842 55.5422 40.8157 55.104 40.5465C54.6596 40.2711 54.5282 39.6953 54.7973 39.2572C57.3761 35.0698 61.8451 32.6037 66.7835 32.6475C71.6343 32.6976 76.0344 35.2075 78.5506 39.3573C78.8197 39.8017 78.6758 40.3775 78.2314 40.6467C78.0812 40.7406 77.9122 40.7844 77.7432 40.7844Z" fill="#00E0E3"/>
<path d="M66.5331 51.7373C67.2244 51.7373 67.7849 51.1768 67.7849 50.4855C67.7849 49.7941 67.2244 49.2336 66.5331 49.2336C65.8417 49.2336 65.2812 49.7941 65.2812 50.4855C65.2812 51.1768 65.8417 51.7373 66.5331 51.7373Z" fill="#00E0E3"/>
<path d="M67.7282 60.3555H48.4439C47.6427 60.3555 46.998 59.9362 46.998 59.4166C46.998 58.8971 47.649 58.4778 48.4439 58.4778H67.7282C68.5293 58.4778 69.174 58.8971 69.174 59.4166C69.174 59.9362 68.5231 60.3555 67.7282 60.3555Z" fill="#283C93"/>
<path d="M67.7289 67.242H55.1919C54.3908 67.242 53.7461 66.8226 53.7461 66.3031C53.7461 65.7836 54.397 65.3643 55.1919 65.3643H67.7289C68.5301 65.3643 69.1748 65.7836 69.1748 66.3031C69.1748 66.8226 68.5238 67.242 67.7289 67.242Z" fill="#283C93"/>
<path d="M85.1349 70.9974H73.8686C73.349 70.9974 72.9297 70.578 72.9297 70.0585V58.7921C72.9297 58.2726 73.349 57.8533 73.8686 57.8533H82.0054C82.5249 57.8533 82.9442 58.2726 82.9442 58.7921C82.9442 59.3116 82.5249 59.731 82.0054 59.731H74.8074V69.1196H84.1961V66.303C84.1961 65.7835 84.6154 65.3642 85.1349 65.3642C85.6544 65.3642 86.0738 65.7835 86.0738 66.303V70.0585C86.0738 70.578 85.6544 70.9974 85.1349 70.9974Z" fill="#00E0E3"/>
<path d="M80.1286 67.2411C79.8282 67.2349 79.5653 67.1034 79.3963 66.8906L76.8926 63.7611C76.5672 63.3542 76.636 62.7659 77.0366 62.4404C77.4434 62.1149 78.0318 62.1838 78.3573 62.5844L80.1724 64.8502L85.067 59.411C85.4175 59.0229 86.0059 58.9979 86.3939 59.3422C86.782 59.6864 86.807 60.281 86.4628 60.6691L80.8296 66.9282C80.6481 67.1285 80.3977 67.2411 80.1286 67.2411Z" fill="#283C93"/>
<path d="M67.7291 78.5057H48.4449C47.6437 78.5057 46.999 78.0863 46.999 77.5668C46.999 77.0473 47.65 76.6279 48.4449 76.6279H67.7291C68.5303 76.6279 69.175 77.0473 69.175 77.5668C69.175 78.0863 68.524 78.5057 67.7291 78.5057Z" fill="#283C93"/>
<path d="M67.7289 85.3924H55.1919C54.3908 85.3924 53.7461 84.973 53.7461 84.4535C53.7461 83.934 54.397 83.5146 55.1919 83.5146H67.7289C68.5301 83.5146 69.1748 83.934 69.1748 84.4535C69.1748 84.973 68.5238 85.3924 67.7289 85.3924Z" fill="#283C93"/>
<path d="M85.1349 89.149H73.8686C73.349 89.149 72.9297 88.7296 72.9297 88.2101V76.9437C72.9297 76.4242 73.349 76.0049 73.8686 76.0049H82.0054C82.5249 76.0049 82.9442 76.4242 82.9442 76.9437C82.9442 77.4633 82.5249 77.8826 82.0054 77.8826H74.8074V87.2713H84.1961V84.4547C84.1961 83.9352 84.6154 83.5158 85.1349 83.5158C85.6544 83.5158 86.0738 83.9352 86.0738 84.4547V88.2101C86.0738 88.7296 85.6544 89.149 85.1349 89.149Z" fill="#00E0E3"/>
<path d="M80.1286 85.3915C79.8282 85.3853 79.5653 85.2538 79.3963 85.041L76.8926 81.9115C76.5672 81.5046 76.636 80.9163 77.0366 80.5908C77.4434 80.2653 78.0318 80.3342 78.3573 80.7348L80.1724 83.0005L85.067 77.5614C85.4175 77.1733 86.0059 77.1483 86.3939 77.4925C86.782 77.8368 86.807 78.4314 86.4628 78.8195L80.8296 85.0786C80.6481 85.2788 80.3977 85.3915 80.1286 85.3915Z" fill="#283C93"/>
</svg>
