<svg width="108" height="90" viewBox="0 0 108 90" fill="none" xmlns="http://www.w3.org/2000/svg">
<g clip-path="url(#clip0_638_757)">
<path d="M106.755 89.583C98.0097 85.5551 92.0023 77.2072 90.9319 67.5918L85.9783 23.1171C85.0075 14.4107 79.9792 6.6883 72.4284 2.31006L69.1592 0.416992H0.414062L3.68329 2.31006C11.2341 6.6883 16.2624 14.4107 17.2332 23.1171L22.1868 67.5918C23.2572 77.2072 29.2646 85.5467 38.0102 89.583H106.747H106.755Z" fill="#E9ECEF" stroke="#2A2628" stroke-width="2.34192" stroke-linecap="round" stroke-linejoin="round"/>
<path d="M38.3926 69.91H80.8843" stroke="#2A2628" stroke-width="2.34192" stroke-linecap="round" stroke-linejoin="round"/>
<path d="M40.832 78.0909H83.3154" stroke="#2A2628" stroke-width="2.34192" stroke-linecap="round" stroke-linejoin="round"/>
<path d="M33.6777 40.1715H76.1611" stroke="#2A2628" stroke-width="2.34192" stroke-linecap="round" stroke-linejoin="round"/>
<path d="M35.1055 50.9961H77.5972" stroke="#2A2628" stroke-width="2.34192" stroke-linecap="round" stroke-linejoin="round"/>
<path d="M36.3105 61.1619H78.8023" stroke="#2A2628" stroke-width="2.34192" stroke-linecap="round" stroke-linejoin="round"/>
<path d="M47.578 21.3241L44.707 30.0722L48.6152 28.888L51.2123 32.2238L53.9173 23.4257L47.578 21.3241Z" fill="#FFF083" stroke="#2A2628" stroke-width="2.34192" stroke-linecap="round" stroke-linejoin="round"/>
<path d="M53.0957 24.2428L56.7632 32.6823L58.4144 29.3882L62.0736 30.3473L58.2734 21.9661L53.0957 24.2428Z" fill="#FFF083" stroke="#2A2628" stroke-width="2.34192" stroke-linecap="round" stroke-linejoin="round"/>
<path d="M59.2779 18.4551C59.6098 21.8993 57.104 24.9599 53.6771 25.3018C50.2502 25.6354 47.205 23.1169 46.8648 19.6727C46.5246 16.2284 49.0388 13.1678 52.4657 12.8259C55.8925 12.4923 58.9377 15.0109 59.2779 18.4551Z" fill="#2962F6" stroke="#2A2628" stroke-width="2.34192" stroke-linecap="round" stroke-linejoin="round"/>
</g>
<defs>
<clipPath id="clip0_638_757">
<rect width="107.171" height="90" fill="white"/>
</clipPath>
</defs>
</svg>
