<svg width="60" height="60" viewBox="0 0 60 60" fill="none" xmlns="http://www.w3.org/2000/svg">
<path d="M30.308 38.3341L50.429 18.2401C50.6244 18.0437 50.8571 17.8886 51.1135 17.7838C51.3699 17.679 51.6447 17.6268 51.9216 17.6301C52.1986 17.6335 52.472 17.6924 52.7258 17.8033C52.9796 17.9143 53.2085 18.0751 53.399 18.2761C53.7893 18.6873 54.004 19.2345 53.9972 19.8014C53.9905 20.3683 53.763 20.9103 53.363 21.3121L31.754 42.8911C31.5601 43.0863 31.3293 43.2409 31.0749 43.3459C30.8206 43.4508 30.5479 43.504 30.2727 43.5023C29.9976 43.5006 29.7256 43.4441 29.4725 43.3361C29.2195 43.2281 28.9905 43.0707 28.799 42.8731L6.61402 20.1601C6.22139 19.7535 6.00195 19.2103 6.00195 18.6451C6.00195 18.0799 6.22139 17.5367 6.61402 17.1301C6.80696 16.9314 7.0378 16.7735 7.29288 16.6656C7.54796 16.5578 7.82208 16.5022 8.09902 16.5022C8.37597 16.5022 8.65009 16.5578 8.90517 16.6656C9.16025 16.7735 9.39109 16.9314 9.58402 17.1301L30.308 38.3341Z" fill="white"/>
</svg>
