<svg width="47" height="47" viewBox="0 0 47 47" fill="none" xmlns="http://www.w3.org/2000/svg">
<path d="M41.125 14.2567V9.79167C41.125 7.6375 39.3625 5.875 37.2083 5.875H9.79167C7.61792 5.875 5.875 7.6375 5.875 9.79167V37.2083C5.875 39.3625 7.61792 41.125 9.79167 41.125H37.2083C39.3625 41.125 41.125 39.3625 41.125 37.2083V32.7433C42.2804 32.0579 43.0833 30.8242 43.0833 29.375V17.625C43.0833 16.1758 42.2804 14.9421 41.125 14.2567ZM39.1667 17.625V29.375H25.4583V17.625H39.1667ZM9.79167 37.2083V9.79167H37.2083V13.7083H25.4583C23.3042 13.7083 21.5417 15.4708 21.5417 17.625V29.375C21.5417 31.5292 23.3042 33.2917 25.4583 33.2917H37.2083V37.2083H9.79167Z" fill="#212529"/>
<path d="M31.334 26.4375C32.9563 26.4375 34.2715 25.1223 34.2715 23.5C34.2715 21.8777 32.9563 20.5625 31.334 20.5625C29.7116 20.5625 28.3965 21.8777 28.3965 23.5C28.3965 25.1223 29.7116 26.4375 31.334 26.4375Z" fill="#212529"/>
</svg>
