<svg width="40" height="40" viewBox="0 0 40 40" fill="none" xmlns="http://www.w3.org/2000/svg">
<path d="M22.2222 10H33.3333V14.4444H22.2222V10ZM22.2222 25.5556H33.3333V30H22.2222V25.5556ZM35.5556 0H4.44444C2 0 0 2 0 4.44444V35.5556C0 38 2 40 4.44444 40H35.5556C38 40 40 38 40 35.5556V4.44444C40 2 38 0 35.5556 0ZM35.5556 35.5556H4.44444V4.44444H35.5556V35.5556ZM17.7778 6.66667H6.66667V17.7778H17.7778V6.66667ZM15.5556 15.5556H8.88889V8.88889H15.5556V15.5556ZM17.7778 22.2222H6.66667V33.3333H17.7778V22.2222ZM15.5556 31.1111H8.88889V24.4444H15.5556V31.1111Z" fill="black"/>
</svg>
