<svg width="25" height="25" viewBox="0 0 25 25" fill="none" xmlns="http://www.w3.org/2000/svg">
<g clip-path="url(#clip0_509_614)">
<path d="M12.5 22.9165C13.6458 22.9165 14.5833 21.979 14.5833 20.8332H10.4167C10.4167 21.979 11.3542 22.9165 12.5 22.9165ZM18.75 16.6665V11.4582C18.75 8.26025 17.0521 5.58317 14.0625 4.87484V4.1665C14.0625 3.30192 13.3646 2.604 12.5 2.604C11.6354 2.604 10.9375 3.30192 10.9375 4.1665V4.87484C7.95832 5.58317 6.24999 8.24984 6.24999 11.4582V16.6665L4.16666 18.7498V19.7915H20.8333V18.7498L18.75 16.6665ZM16.6667 17.7082H8.33332V11.4582C8.33332 8.87484 9.90624 6.77067 12.5 6.77067C15.0937 6.77067 16.6667 8.87484 16.6667 11.4582V17.7082Z" fill="#495057"/>
</g>
<defs>
<clipPath id="clip0_509_614">
<rect width="25" height="25" fill="white"/>
</clipPath>
</defs>
</svg>
