<svg width="25" height="25" viewBox="0 0 25 25" fill="none" xmlns="http://www.w3.org/2000/svg">
<g clip-path="url(#clip0_509_608)">
<path d="M19.7917 14.5832V6.24984C19.7917 5.104 18.8542 4.1665 17.7083 4.1665H3.12501C1.97917 4.1665 1.04167 5.104 1.04167 6.24984V14.5832C1.04167 15.729 1.97917 16.6665 3.12501 16.6665H17.7083C18.8542 16.6665 19.7917 15.729 19.7917 14.5832ZM17.7083 14.5832H3.12501V6.24984H17.7083V14.5832ZM10.4167 7.2915C8.68751 7.2915 7.29167 8.68734 7.29167 10.4165C7.29167 12.1457 8.68751 13.5415 10.4167 13.5415C12.1458 13.5415 13.5417 12.1457 13.5417 10.4165C13.5417 8.68734 12.1458 7.2915 10.4167 7.2915ZM23.9583 7.2915V18.7498C23.9583 19.8957 23.0208 20.8332 21.875 20.8332H4.16667C4.16667 19.7915 4.16667 19.8957 4.16667 18.7498H21.875V7.2915C23.0208 7.2915 22.9167 7.2915 23.9583 7.2915Z" fill="#495057"/>
</g>
<defs>
<clipPath id="clip0_509_608">
<rect width="25" height="25" fill="white"/>
</clipPath>
</defs>
</svg>
