<svg width="47" height="46" viewBox="0 0 47 46" fill="none" xmlns="http://www.w3.org/2000/svg">
<g clip-path="url(#clip0_638_1180)">
<path fill-rule="evenodd" clip-rule="evenodd" d="M39.166 5.75H7.83268C5.67852 5.75 3.91602 7.475 3.91602 9.58333V36.4167C3.91602 38.525 5.67852 40.25 7.83268 40.25H39.166C41.3202 40.25 43.0827 38.525 43.0827 36.4167V9.58333C43.0827 7.475 41.3202 5.75 39.166 5.75ZM39.166 36.4167H7.83268V9.58333H39.166V36.4167Z" fill="#212529"/>
<path fill-rule="evenodd" clip-rule="evenodd" d="M38.0113 19.9717L35.2304 17.25L29.0225 23.3258L26.2613 20.6042L23.5 23.3067L29.0225 28.75L38.0113 19.9717Z" fill="#212529"/>
<path d="M19.5827 13.4167H9.79102V17.25H19.5827V13.4167Z" fill="#212529"/>
<path d="M19.5827 21.0833H9.79102V24.9167H19.5827V21.0833Z" fill="#212529"/>
<path d="M19.5827 28.75H9.79102V32.5833H19.5827V28.75Z" fill="#212529"/>
</g>
<defs>
<clipPath id="clip0_638_1180">
<rect width="47" height="46" fill="white"/>
</clipPath>
</defs>
</svg>
