<svg width="26" height="25" viewBox="0 0 26 25" fill="none" xmlns="http://www.w3.org/2000/svg">
<g clip-path="url(#clip0_509_627)">
<path d="M13 2.0835C7.25 2.0835 2.58333 6.75016 2.58333 12.5002C2.58333 18.2502 7.25 22.9168 13 22.9168C18.75 22.9168 23.4167 18.2502 23.4167 12.5002C23.4167 6.75016 18.75 2.0835 13 2.0835ZM7.86458 19.0418C8.3125 18.1043 11.0417 17.1877 13 17.1877C14.9583 17.1877 17.6979 18.1043 18.1354 19.0418C16.7187 20.1668 14.9375 20.8335 13 20.8335C11.0625 20.8335 9.28125 20.1668 7.86458 19.0418ZM19.625 17.5314C18.1354 15.7189 14.5208 15.1043 13 15.1043C11.4792 15.1043 7.86458 15.7189 6.375 17.5314C5.3125 16.1356 4.66667 14.396 4.66667 12.5002C4.66667 7.90641 8.40625 4.16683 13 4.16683C17.5937 4.16683 21.3333 7.90641 21.3333 12.5002C21.3333 14.396 20.6875 16.1356 19.625 17.5314ZM13 6.25016C10.9792 6.25016 9.35417 7.87516 9.35417 9.896C9.35417 11.9168 10.9792 13.5418 13 13.5418C15.0208 13.5418 16.6458 11.9168 16.6458 9.896C16.6458 7.87516 15.0208 6.25016 13 6.25016ZM13 11.4585C12.1354 11.4585 11.4375 10.7606 11.4375 9.896C11.4375 9.03141 12.1354 8.3335 13 8.3335C13.8646 8.3335 14.5625 9.03141 14.5625 9.896C14.5625 10.7606 13.8646 11.4585 13 11.4585Z" fill="#495057"/>
</g>
<defs>
<clipPath id="clip0_509_627">
<rect width="25" height="25" fill="white" transform="translate(0.5)"/>
</clipPath>
</defs>
</svg>
