<svg width="335" height="50" viewBox="0 0 335 50" fill="none" xmlns="http://www.w3.org/2000/svg">
<rect x="0.5" y="0.5" width="334" height="49" rx="7.5" fill="white"/>
<path d="M15.6 20.55V19.38H23.58V20.55H20.25V30H18.93V20.55H15.6ZM27.3773 30.18C25.0823 30.165 23.6573 28.53 23.6573 26.07C23.6573 23.64 25.0973 21.945 27.2573 21.93C28.9373 21.945 30.6923 22.965 30.7073 25.92V26.46H24.9173C24.9923 28.125 25.9673 29.04 27.3773 29.04C28.3373 29.04 28.9373 28.635 29.2073 28.14H30.5573C30.1973 29.34 29.0123 30.165 27.3773 30.18ZM24.9173 25.38H29.4173C29.4023 24.045 28.5623 23.055 27.2573 23.07C25.8773 23.055 25.0073 24.15 24.9173 25.38ZM33.0926 22.05L34.9826 25.29L36.8726 22.05H38.3126L35.7626 26.01L38.3126 30H36.8726L34.9826 26.91L33.0926 30H31.6526L34.1726 26.01L31.6526 22.05H33.0926ZM43.3184 22.05V23.1H41.6384V27.72C41.6234 28.74 42.1334 28.905 42.6584 28.89C42.8984 28.905 43.2284 28.875 43.4084 28.86V30.03C43.2284 30.075 42.9134 30.105 42.5384 30.09C41.4734 30.105 40.3634 29.445 40.3484 28.05V23.1H39.1484V22.05H40.3484V20.13H41.6384V22.05H43.3184Z" fill="#212529"/>
<g clip-path="url(#clip0_194_1808)">
<path d="M307.5 14.583C301.74 14.583 297.083 19.2393 297.083 24.9997C297.083 30.7601 301.74 35.4163 307.5 35.4163C313.26 35.4163 317.917 30.7601 317.917 24.9997C317.917 19.2393 313.26 14.583 307.5 14.583ZM312.708 28.7393L311.24 30.208L307.5 26.4684L303.76 30.208L302.292 28.7393L306.031 24.9997L302.292 21.2601L303.76 19.7913L307.5 23.5309L311.24 19.7913L312.708 21.2601L308.969 24.9997L312.708 28.7393Z" fill="#CED4DA"/>
</g>
<rect x="0.5" y="0.5" width="334" height="49" rx="7.5" stroke="#DEE2E6"/>
<defs>
<clipPath id="clip0_194_1808">
<rect width="25" height="25" fill="white" transform="translate(295 12.5)"/>
</clipPath>
</defs>
</svg>
