<svg width="25" height="25" viewBox="0 0 25 25" fill="none" xmlns="http://www.w3.org/2000/svg">
<g id="Assignment" clip-path="url(#clip0_194_1959)">
<path id="Vector" d="M19.7917 3.12533H15.4375C15 1.91699 13.8542 1.04199 12.5 1.04199C11.1458 1.04199 10 1.91699 9.5625 3.12533H5.20833C4.0625 3.12533 3.125 4.06283 3.125 5.20866V19.792C3.125 20.9378 4.0625 21.8753 5.20833 21.8753H19.7917C20.9375 21.8753 21.875 20.9378 21.875 19.792V5.20866C21.875 4.06283 20.9375 3.12533 19.7917 3.12533ZM12.5 3.12533C13.0729 3.12533 13.5417 3.59408 13.5417 4.16699C13.5417 4.73991 13.0729 5.20866 12.5 5.20866C11.9271 5.20866 11.4583 4.73991 11.4583 4.16699C11.4583 3.59408 11.9271 3.12533 12.5 3.12533ZM14.5833 17.7087H7.29167V15.6253H14.5833V17.7087ZM17.7083 13.542H7.29167V11.4587H17.7083V13.542ZM17.7083 9.37533H7.29167V7.29199H17.7083V9.37533Z" fill="#2962F6"/>
</g>
<defs>
<clipPath id="clip0_194_1959">
<rect width="25" height="25" fill="white"/>
</clipPath>
</defs>
</svg>
