<svg width="45" height="45" viewBox="0 0 45 45" fill="none" xmlns="http://www.w3.org/2000/svg">
<g id="Group 1261153530">
<rect id="Rectangle 39512" width="45" height="45" rx="22.5" fill="#03C75A"/>
<g id="Group 1261153160">
<rect id="Rectangle 3725" x="10.3594" y="10.1455" width="25.4234" height="23.8509" fill="white"/>
<g id="Group">
<path id="Vector" d="M8.60899 7.03276C9.08077 6.98034 9.55255 7.00655 10.0243 7.00655C18.9881 7.00655 27.9518 7.00655 36.9417 7.00655C37.2038 6.98034 37.5183 7.03276 37.7018 7.26865C38.0687 7.63559 37.9377 8.15978 37.9639 8.63156C37.9639 17.805 37.9639 26.9522 37.9639 36.1256C37.9901 36.6498 37.4659 37.0691 36.9417 36.9905C27.5848 36.9905 18.228 36.9905 8.87109 36.9905C8.39932 37.0167 7.95375 36.5973 8.00617 36.1256C8.00617 26.7163 8.00617 17.307 8.00617 7.89768C7.95375 7.50454 8.24206 7.1376 8.60899 7.03276ZM14.7421 14.5025C14.7421 19.5086 14.7421 24.5147 14.7421 29.4945C16.603 29.4945 18.4901 29.4945 20.3509 29.4945C20.3772 27.0046 20.3247 24.5409 20.3772 22.0509C20.98 22.9159 21.5566 23.807 22.1856 24.6457C23.234 26.2707 24.4135 27.8171 25.4356 29.4683C27.3227 29.5207 29.2098 29.4683 31.0969 29.4945C31.1231 29.2586 31.1494 29.0227 31.1494 28.7868C31.1232 24.0167 31.1756 19.2465 31.1231 14.4763C29.2623 14.4501 27.4014 14.4763 25.5405 14.4763C25.5143 16.9663 25.5667 19.4562 25.5143 21.9461C23.7844 19.4824 22.1332 16.94 20.3772 14.5025C18.5163 14.4239 16.6292 14.5025 14.7421 14.5025Z" fill="#03C75A"/>
</g>
</g>
</g>
</svg>
