<svg width="26" height="25" viewBox="0 0 26 25" fill="none" xmlns="http://www.w3.org/2000/svg">
<g id="Account circle" clip-path="url(#clip0_194_1988)">
<path id="Vector" d="M13 2.08301C7.25 2.08301 2.58334 6.74967 2.58334 12.4997C2.58334 18.2497 7.25 22.9163 13 22.9163C18.75 22.9163 23.4167 18.2497 23.4167 12.4997C23.4167 6.74967 18.75 2.08301 13 2.08301ZM13 5.20801C14.7292 5.20801 16.125 6.60384 16.125 8.33301C16.125 10.0622 14.7292 11.458 13 11.458C11.2708 11.458 9.875 10.0622 9.875 8.33301C9.875 6.60384 11.2708 5.20801 13 5.20801ZM13 19.9997C10.3958 19.9997 8.09375 18.6663 6.75 16.6455C6.78125 14.5726 10.9167 13.4372 13 13.4372C15.0729 13.4372 19.2188 14.5726 19.25 16.6455C17.9063 18.6663 15.6042 19.9997 13 19.9997Z" fill="#2962F6"/>
</g>
<defs>
<clipPath id="clip0_194_1988">
<rect width="25" height="25" fill="white" transform="translate(0.5)"/>
</clipPath>
</defs>
</svg>
