<svg width="30" height="30" viewBox="0 0 30 30" fill="none" xmlns="http://www.w3.org/2000/svg">
<g id="Assignment" clip-path="url(#clip0_194_2389)">
<path id="Vector" d="M8.75 18.75H17.5V21.25H8.75V18.75ZM8.75 13.75H21.25V16.25H8.75V13.75ZM8.75 8.75H21.25V11.25H8.75V8.75ZM23.75 3.75H18.525C18 2.3 16.625 1.25 15 1.25C13.375 1.25 12 2.3 11.475 3.75H6.25C6.075 3.75 5.9125 3.7625 5.75 3.8C5.2625 3.9 4.825 4.15 4.4875 4.4875C4.2625 4.7125 4.075 4.9875 3.95 5.2875C3.825 5.575 3.75 5.9 3.75 6.25V23.75C3.75 24.0875 3.825 24.425 3.95 24.725C4.075 25.025 4.2625 25.2875 4.4875 25.525C4.825 25.8625 5.2625 26.1125 5.75 26.2125C5.9125 26.2375 6.075 26.25 6.25 26.25H23.75C25.125 26.25 26.25 25.125 26.25 23.75V6.25C26.25 4.875 25.125 3.75 23.75 3.75ZM15 3.4375C15.5125 3.4375 15.9375 3.8625 15.9375 4.375C15.9375 4.8875 15.5125 5.3125 15 5.3125C14.4875 5.3125 14.0625 4.8875 14.0625 4.375C14.0625 3.8625 14.4875 3.4375 15 3.4375ZM23.75 23.75H6.25V6.25H23.75V23.75Z" fill="#343A40"/>
</g>
<defs>
<clipPath id="clip0_194_2389">
<rect width="30" height="30" fill="white"/>
</clipPath>
</defs>
</svg>
