<svg width="30" height="30" viewBox="0 0 30 30" fill="none" xmlns="http://www.w3.org/2000/svg">
<g id="mdi:coupon-outline">
<path id="Vector" d="M18.5 10L20 11.5L11.5 20L10 18.5L18.5 10ZM5 5H25C26.3875 5 27.5 6.1125 27.5 7.5V12.5C26.837 12.5 26.2011 12.7634 25.7322 13.2322C25.2634 13.7011 25 14.337 25 15C25 15.663 25.2634 16.2989 25.7322 16.7678C26.2011 17.2366 26.837 17.5 27.5 17.5V22.5C27.5 23.8875 26.3875 25 25 25H5C4.33696 25 3.70107 24.7366 3.23223 24.2678C2.76339 23.7989 2.5 23.163 2.5 22.5V17.5C3.8875 17.5 5 16.3875 5 15C5 14.337 4.73661 13.7011 4.26777 13.2322C3.79893 12.7634 3.16304 12.5 2.5 12.5V7.5C2.5 6.83696 2.76339 6.20107 3.23223 5.73223C3.70107 5.26339 4.33696 5 5 5ZM5 7.5V10.675C5.7596 11.113 6.39044 11.7433 6.82907 12.5026C7.26769 13.2618 7.49862 14.1232 7.49862 15C7.49862 15.8768 7.26769 16.7382 6.82907 17.4974C6.39044 18.2567 5.7596 18.887 5 19.325V22.5H25V19.325C24.2404 18.887 23.6096 18.2567 23.1709 17.4974C22.7323 16.7382 22.5014 15.8768 22.5014 15C22.5014 14.1232 22.7323 13.2618 23.1709 12.5026C23.6096 11.7433 24.2404 11.113 25 10.675V7.5H5ZM11.875 10C12.9125 10 13.75 10.8375 13.75 11.875C13.75 12.9125 12.9125 13.75 11.875 13.75C10.8375 13.75 10 12.9125 10 11.875C10 10.8375 10.8375 10 11.875 10ZM18.125 16.25C19.1625 16.25 20 17.0875 20 18.125C20 19.1625 19.1625 20 18.125 20C17.0875 20 16.25 19.1625 16.25 18.125C16.25 17.0875 17.0875 16.25 18.125 16.25Z" fill="#343A40"/>
</g>
</svg>
