<svg width="25" height="25" viewBox="0 0 25 25" fill="none" xmlns="http://www.w3.org/2000/svg">
<g clip-path="url(#clip0_509_619)">
<path d="M7.29167 15.6248H14.5833V17.7082H7.29167V15.6248ZM7.29167 11.4582H17.7083V13.5415H7.29167V11.4582ZM7.29167 7.2915H17.7083V9.37484H7.29167V7.2915ZM19.7917 3.12484H15.4375C15 1.9165 13.8542 1.0415 12.5 1.0415C11.1458 1.0415 10 1.9165 9.5625 3.12484H5.20833C5.0625 3.12484 4.92708 3.13525 4.79167 3.1665C4.38542 3.24984 4.02083 3.45817 3.73958 3.73942C3.55208 3.92692 3.39583 4.15609 3.29167 4.40609C3.1875 4.64567 3.125 4.9165 3.125 5.20817V19.7915C3.125 20.0728 3.1875 20.354 3.29167 20.604C3.39583 20.854 3.55208 21.0728 3.73958 21.2707C4.02083 21.5519 4.38542 21.7603 4.79167 21.8436C4.92708 21.8644 5.0625 21.8748 5.20833 21.8748H19.7917C20.9375 21.8748 21.875 20.9373 21.875 19.7915V5.20817C21.875 4.06234 20.9375 3.12484 19.7917 3.12484ZM12.5 2.86442C12.9271 2.86442 13.2812 3.21859 13.2812 3.64567C13.2812 4.07275 12.9271 4.42692 12.5 4.42692C12.0729 4.42692 11.7188 4.07275 11.7188 3.64567C11.7188 3.21859 12.0729 2.86442 12.5 2.86442ZM19.7917 19.7915H5.20833V5.20817H19.7917V19.7915Z" fill="#495057"/>
</g>
<defs>
<clipPath id="clip0_509_619">
<rect width="25" height="25" fill="white"/>
</clipPath>
</defs>
</svg>
