<svg width="25" height="26" viewBox="0 0 25 26" fill="none" xmlns="http://www.w3.org/2000/svg">
<g clip-path="url(#clip0_194_1798)">
<path d="M16.1458 15.0833H15.3229L15.0312 14.8021C16.0521 13.6146 16.6667 12.0729 16.6667 10.3958C16.6667 6.65625 13.6354 3.625 9.89583 3.625C6.15625 3.625 3.125 6.65625 3.125 10.3958C3.125 14.1354 6.15625 17.1667 9.89583 17.1667C11.5729 17.1667 13.1146 16.5521 14.3021 15.5312L14.5833 15.8229V16.6458L19.7917 21.8438L21.3438 20.2917L16.1458 15.0833ZM9.89583 15.0833C7.30208 15.0833 5.20833 12.9896 5.20833 10.3958C5.20833 7.80208 7.30208 5.70833 9.89583 5.70833C12.4896 5.70833 14.5833 7.80208 14.5833 10.3958C14.5833 12.9896 12.4896 15.0833 9.89583 15.0833Z" fill="#2962F6"/>
</g>
<defs>
<clipPath id="clip0_194_1798">
<rect width="25" height="25" fill="white" transform="translate(0 0.5)"/>
</clipPath>
</defs>
</svg>
