<svg width="100" height="87" viewBox="0 0 100 87" fill="none" xmlns="http://www.w3.org/2000/svg">
<path d="M82.6954 81.0471H59.5967C58.4221 81.0471 57.4707 80.0958 57.4707 78.9212C57.4707 77.7466 58.4221 76.7952 59.5967 76.7952H82.6954C83.7583 76.7952 84.6247 76.0139 84.6247 75.0572V50.5873C84.6247 49.4127 85.576 48.4613 86.7506 48.4613C87.9252 48.4613 88.8766 49.4127 88.8766 50.5873V75.0572C88.8766 78.3578 86.1022 81.0471 82.6954 81.0471Z" fill="black"/>
<path d="M86.2351 55.2008C85.0605 55.2008 84.1091 54.2495 84.1091 53.0749V36.6464C84.1091 18.783 68.8074 4.25194 49.9979 4.25194C31.1884 4.25194 15.8867 18.783 15.8867 36.6464V53.0749C15.8867 54.2495 14.9353 55.2008 13.7607 55.2008C12.5861 55.2008 11.6348 54.2495 11.6348 53.0749V36.6464C11.6348 16.4391 28.8445 0 49.9979 0C71.1513 0 88.3611 16.4391 88.3611 36.6464V53.0749C88.3611 54.2495 87.4097 55.2008 86.2351 55.2008Z" fill="black"/>
<path d="M19.3149 30.0454H16.1525C16.1525 30.0454 16.11 30.0454 16.094 30.0454C14.7813 30.0454 13.5163 30.2048 12.3098 30.5078C6.43681 31.9906 2.12109 37.1089 2.12109 46.2825C2.12109 57.3428 8.37676 62.5302 16.0887 62.5302C16.0887 62.5302 16.1259 62.5302 16.1472 62.5302H19.3096C20.3141 62.5302 21.1326 61.7489 21.1326 60.7922V31.778C21.1326 30.816 20.3141 30.04 19.3096 30.04L19.3149 30.0454Z" fill="white"/>
<path d="M19.3144 64.6613H16.1521C16.1521 64.6613 16.1149 64.6613 16.0936 64.6613C6.31413 64.6613 0 57.4489 0 46.2876C0 36.843 4.29978 30.3375 11.7938 28.4507C13.1916 28.0999 14.6373 27.9192 16.0936 27.9192C16.1149 27.9192 16.1361 27.9192 16.1521 27.9192H19.3144C21.4936 27.9192 23.2634 29.6519 23.2634 31.7831V60.7973C23.2634 62.9286 21.4936 64.6613 19.3144 64.6613ZM16.2318 60.4093H19.0168V32.1711H16.2424C16.1467 32.1764 16.0564 32.1764 15.966 32.1711C14.9031 32.1818 13.8507 32.3146 12.8355 32.5751C7.30271 33.9729 4.25726 38.8414 4.25726 46.2929C4.25726 55.0838 8.63144 60.3509 15.966 60.4147C16.0511 60.4093 16.1361 60.4093 16.2371 60.4147L16.2318 60.4093Z" fill="black"/>
<path d="M87.6919 30.5129C86.4854 30.2099 85.2258 30.0452 83.913 30.0452C83.913 30.0452 83.8705 30.0452 83.8545 30.0452H80.6922C79.6876 30.0452 78.8691 30.8211 78.8691 31.7831V60.7973C78.8691 61.754 79.6876 62.5353 80.6922 62.5353H83.8545C83.8545 62.5353 83.8971 62.5353 83.913 62.5353C91.625 62.5353 97.8806 57.3533 97.8806 46.2929C97.8806 37.1193 93.5702 31.9957 87.6919 30.5182V30.5129Z" fill="white"/>
<path d="M83.9062 64.6613C83.9062 64.6613 83.8636 64.6613 83.8477 64.6613H80.6853C78.5062 64.6613 76.7363 62.9286 76.7363 60.7973V31.7831C76.7363 29.6519 78.5062 27.9192 80.6853 27.9192H83.8477C83.8477 27.9192 83.8849 27.9192 83.9062 27.9192C85.3625 27.9192 86.8081 28.0999 88.2059 28.4507C95.7 30.3375 99.9998 36.843 99.9998 46.2876C99.9998 57.4489 93.6803 64.6613 83.9062 64.6613ZM80.9883 60.4093H83.7627C83.8583 60.404 83.9487 60.404 84.039 60.4093C91.3736 60.3456 95.7478 55.0785 95.7478 46.2876C95.7478 38.836 92.7024 33.9676 87.1695 32.5698C86.1544 32.3146 85.102 32.1764 84.039 32.1658C83.954 32.1711 83.869 32.1658 83.768 32.1658H80.983V60.404L80.9883 60.4093Z" fill="black"/>
<path d="M68.8547 82.2112C68.8547 83.1467 68.0575 83.9014 67.0795 83.9014H52.5857C51.6025 83.9014 50.8105 83.1414 50.8105 82.2112V75.6367C50.8105 74.7012 51.6025 73.9465 52.5857 73.9465H67.0795C68.0575 73.9465 68.8547 74.7012 68.8547 75.6367V82.2112Z" fill="#FFF083"/>
<path d="M67.0805 86.0274H52.5867C50.4342 86.0274 48.6855 84.3159 48.6855 82.2112V75.6367C48.6855 73.532 50.4342 71.8206 52.5867 71.8206H67.0805C69.2331 71.8206 70.9817 73.532 70.9817 75.6367V82.2112C70.9817 84.3159 69.2331 86.0274 67.0805 86.0274ZM52.9375 81.7754H66.7297V76.0672H52.9375V81.7754Z" fill="black"/>
<path d="M60.6855 35.7855C59.5694 35.1212 58.533 34.9405 57.5816 34.8554C55.6948 34.6853 53.9621 35.4985 52.6015 36.6837C51.5704 37.582 50.4224 38.7938 49.9494 40.0481C49.0086 37.279 45.7612 34.4727 42.5935 34.696C41.6368 34.7597 40.5951 34.9192 39.463 35.5623C34.7327 38.2357 34.18 46.4366 42.3756 53.2823C43.6565 54.3559 45.1553 55.3923 46.8826 56.3702C47.8659 56.9283 49.774 57.9275 49.8165 57.9063C49.8218 57.9063 49.8909 57.885 50.0025 57.8372C50.5181 57.6033 51.969 56.8805 52.7875 56.434C54.5361 55.4933 56.0562 54.4888 57.3637 53.4417C65.7134 46.7768 65.3573 38.5599 60.6855 35.7908V35.7855Z" fill="white"/>
<mask id="mask0_638_809" style="mask-type:luminance" maskUnits="userSpaceOnUse" x="36" y="34" width="28" height="24">
<path d="M60.6855 35.7856C59.5694 35.1213 58.533 34.9406 57.5816 34.8555C55.6948 34.6855 53.9621 35.4986 52.6015 36.6839C51.5704 37.5821 50.4224 38.7939 49.9494 40.0482C49.0086 37.2791 45.7612 34.4729 42.5935 34.6961C41.6368 34.7599 40.5951 34.9193 39.463 35.5624C34.7327 38.2358 34.18 46.4368 42.3756 53.2824C43.6565 54.356 45.1553 55.3924 46.8826 56.3704C47.8659 56.9284 49.774 57.9276 49.8165 57.9064C49.8218 57.9064 49.8909 57.8851 50.0025 57.8373C50.5181 57.6034 51.969 56.8806 52.7875 56.4341C54.5361 55.4934 56.0562 54.4889 57.3637 53.4418C65.7134 46.7769 65.3573 38.56 60.6855 35.791V35.7856Z" fill="white"/>
</mask>
<g mask="url(#mask0_638_809)">
<path d="M36.4598 34.4783H36.0293V57.9277H36.4598V34.4783Z" fill="#2962F6"/>
<path d="M36.8856 34.4783H36.4551V57.9277H36.8856V34.4783Z" fill="#2962F6"/>
<path d="M37.3153 34.4783H36.8848V57.9277H37.3153V34.4783Z" fill="#2962F6"/>
<path d="M37.7391 34.4783H37.3086V57.9277H37.7391V34.4783Z" fill="#2962F6"/>
<path d="M38.1707 34.4783H37.7402V57.9277H38.1707V34.4783Z" fill="#2962F6"/>
<path d="M38.5965 34.4783H38.166V57.9277H38.5965V34.4783Z" fill="#2962F6"/>
<path d="M39.0262 34.4783H38.5957V57.9277H39.0262V34.4783Z" fill="#2962F6"/>
<path d="M39.4579 34.4783H39.0273V57.9277H39.4579V34.4783Z" fill="#2962F6"/>
<path d="M39.8817 34.4783H39.4512V57.9277H39.8817V34.4783Z" fill="#2962F6"/>
<path d="M40.3133 34.4783H39.8828V57.9277H40.3133V34.4783Z" fill="#2962F6"/>
<path d="M40.7391 34.4783H40.3086V57.9277H40.7391V34.4783Z" fill="#2962F6"/>
<path d="M41.1688 34.4783H40.7383V57.9277H41.1688V34.4783Z" fill="#2962F6"/>
<path d="M41.5946 34.4783H41.1641V57.9277H41.5946V34.4783Z" fill="#2962F6"/>
<path d="M42.0243 34.4783H41.5938V57.9277H42.0243V34.4783Z" fill="#2962F6"/>
<path d="M42.45 34.4783H42.0195V57.9277H42.45V34.4783Z" fill="#2962F6"/>
<path d="M42.8797 34.4783H42.4492V57.9277H42.8797V34.4783Z" fill="#2962F6"/>
<path d="M43.3055 34.4783H42.875V57.9277H43.3055V34.4783Z" fill="#2962F6"/>
<path d="M43.7372 34.4783H43.3066V57.9277H43.7372V34.4783Z" fill="#2962F6"/>
<path d="M44.1668 34.4783H43.7363V57.9277H44.1668V34.4783Z" fill="#2962F6"/>
<path d="M44.5926 34.4783H44.1621V57.9277H44.5926V34.4783Z" fill="#2962F6"/>
<path d="M45.0223 34.4783H44.5918V57.9277H45.0223V34.4783Z" fill="#2962F6"/>
<path d="M45.4481 34.4783H45.0176V57.9277H45.4481V34.4783Z" fill="#2962F6"/>
<path d="M45.8778 34.4783H45.4473V57.9277H45.8778V34.4783Z" fill="#2962F6"/>
<path d="M46.3036 34.4783H45.873V57.9277H46.3036V34.4783Z" fill="#2962F6"/>
<path d="M46.7332 34.4783H46.3027V57.9277H46.7332V34.4783Z" fill="#2962F6"/>
<path d="M47.159 34.4783H46.7285V57.9277H47.159V34.4783Z" fill="#2962F6"/>
<path d="M47.5887 34.4783H47.1582V57.9277H47.5887V34.4783Z" fill="#2962F6"/>
<path d="M48.0204 34.4783H47.5898V57.9277H48.0204V34.4783Z" fill="#2962F6"/>
<path d="M48.4442 34.4783H48.0137V57.9277H48.4442V34.4783Z" fill="#2962F6"/>
<path d="M48.8758 34.4783H48.4453V57.9277H48.8758V34.4783Z" fill="#2962F6"/>
<path d="M49.2996 34.4783H48.8691V57.9277H49.2996V34.4783Z" fill="#2962F6"/>
<path d="M49.7313 34.4783H49.3008V57.9277H49.7313V34.4783Z" fill="#2962F6"/>
<path d="M50.1571 34.4783H49.7266V57.9277H50.1571V34.4783Z" fill="#2962F6"/>
<path d="M50.5868 34.4783H50.1562V57.9277H50.5868V34.4783Z" fill="#2962F6"/>
<path d="M51.0125 34.4783H50.582V57.9277H51.0125V34.4783Z" fill="#2962F6"/>
<path d="M51.4422 34.4783H51.0117V57.9277H51.4422V34.4783Z" fill="#2962F6"/>
<path d="M51.8739 34.4783H51.4434V57.9277H51.8739V34.4783Z" fill="#2962F6"/>
<path d="M52.2977 34.4783H51.8672V57.9277H52.2977V34.4783Z" fill="#2962F6"/>
<path d="M52.7293 34.4783H52.2988V57.9277H52.7293V34.4783Z" fill="#2962F6"/>
<path d="M53.1551 34.4783H52.7246V57.9277H53.1551V34.4783Z" fill="#2962F6"/>
<path d="M53.5848 34.4783H53.1543V57.9277H53.5848V34.4783Z" fill="#2962F6"/>
<path d="M54.0106 34.4783H53.5801V57.9277H54.0106V34.4783Z" fill="#2962F6"/>
<path d="M54.4403 34.4783H54.0098V57.9277H54.4403V34.4783Z" fill="#2962F6"/>
<path d="M54.8661 34.4783H54.4355V57.9277H54.8661V34.4783Z" fill="#2962F6"/>
<path d="M55.2957 34.4783H54.8652V57.9277H55.2957V34.4783Z" fill="#2962F6"/>
<path d="M55.7215 34.4783H55.291V57.9277H55.7215V34.4783Z" fill="#2962F6"/>
<path d="M56.1532 34.4783H55.7227V57.9277H56.1532V34.4783Z" fill="#2962F6"/>
<path d="M56.5829 34.4783H56.1523V57.9277H56.5829V34.4783Z" fill="#2962F6"/>
<path d="M57.0067 34.4783H56.5762V57.9277H57.0067V34.4783Z" fill="#2962F6"/>
<path d="M57.4383 34.4783H57.0078V57.9277H57.4383V34.4783Z" fill="#2962F6"/>
<path d="M57.8621 34.4783H57.4316V57.9277H57.8621V34.4783Z" fill="#2962F6"/>
<path d="M58.2938 34.4783H57.8633V57.9277H58.2938V34.4783Z" fill="#2962F6"/>
<path d="M58.7176 34.4783H58.2871V57.9277H58.7176V34.4783Z" fill="#2962F6"/>
<path d="M59.1493 34.4783H58.7188V57.9277H59.1493V34.4783Z" fill="#2962F6"/>
<path d="M59.5731 34.4783H59.1426V57.9277H59.5731V34.4783Z" fill="#2962F6"/>
<path d="M60.0047 34.4783H59.5742V57.9277H60.0047V34.4783Z" fill="#2962F6"/>
<path d="M60.4344 34.4783H60.0039V57.9277H60.4344V34.4783Z" fill="#2962F6"/>
<path d="M60.8602 34.4783H60.4297V57.9277H60.8602V34.4783Z" fill="#2962F6"/>
<path d="M61.2918 34.4783H60.8613V57.9277H61.2918V34.4783Z" fill="#2962F6"/>
<path d="M61.7176 34.4783H61.2871V57.9277H61.7176V34.4783Z" fill="#2962F6"/>
<path d="M62.1454 34.4783H61.7148V57.9277H62.1454V34.4783Z" fill="#2962F6"/>
<path d="M62.5731 34.4783H62.1426V57.9277H62.5731V34.4783Z" fill="#2962F6"/>
<path d="M63.0028 34.4783H62.5723V57.9277H63.0028V34.4783Z" fill="#2962F6"/>
<path d="M63.4286 34.4783H62.998V57.9277H63.4286V34.4783Z" fill="#2962F6"/>
<path d="M65.7078 34.4783H63.4277V57.9277H65.7078V34.4783Z" fill="#2962F6"/>
</g>
<path d="M49.817 60.0267C49.6628 60.0267 49.5246 60.0267 49.2908 59.9629C49.1685 59.931 49.0516 59.8885 48.94 59.8407C48.4085 59.6281 47.5209 59.1763 45.8308 58.2196C44.045 57.2045 42.4239 56.0936 41.0101 54.9084C36.0885 50.8 33.5161 45.7083 33.9519 40.9461C34.2389 37.789 35.8653 35.1475 38.4164 33.7072C39.9471 32.8408 41.3715 32.6442 42.4452 32.5698C42.6099 32.5591 42.7747 32.5538 42.9448 32.5538C45.7138 32.5538 48.3128 34.1324 50.0668 36.1627C50.4122 35.8013 50.7896 35.4452 51.2042 35.0837C53.1866 33.3564 55.4508 32.5273 57.7734 32.7399C58.8311 32.8302 60.2502 33.0534 61.7755 33.957C64.2895 35.4505 65.8521 38.1186 66.0753 41.2756C66.4049 46.0538 63.7155 51.0923 58.6929 55.0998C57.2472 56.2584 55.5996 57.3373 53.7978 58.3047C52.9315 58.7724 51.4433 59.5165 50.8799 59.7716C50.5929 59.9044 50.2528 60.032 49.8223 60.032L49.817 60.0267ZM42.9448 36.8058C42.8757 36.8058 42.8066 36.8058 42.7428 36.8111C41.9349 36.8642 41.2493 36.9865 40.5105 37.4064C39.1712 38.1611 38.3474 39.5536 38.1879 41.3288C37.885 44.6347 39.9631 48.488 43.742 51.6451C44.9591 52.6655 46.3676 53.6275 47.9302 54.5151C48.4723 54.8234 49.2589 55.2433 49.8435 55.5462C50.4548 55.2486 51.2467 54.8446 51.7729 54.5576C53.3567 53.7072 54.7864 52.7718 56.0354 51.7726C59.8941 48.69 62.0572 44.8738 61.8287 41.5626C61.7065 39.7928 60.9145 38.3896 59.6017 37.6083C58.8683 37.1725 58.188 37.0396 57.396 36.9705C57.2844 36.9599 57.1781 36.9546 57.0772 36.9546C55.7909 36.9546 54.6908 37.6774 53.9945 38.2833C52.5488 39.543 52.0811 40.3987 51.9323 40.792C51.6134 41.6317 50.8055 42.1792 49.9073 42.1685C49.0091 42.1526 48.2172 41.5786 47.9302 40.7282C47.303 38.8786 45.0335 36.8058 42.9395 36.8058H42.9448Z" fill="black"/>
</svg>
