<svg width="36" height="36" viewBox="0 0 36 36" fill="none" xmlns="http://www.w3.org/2000/svg">
<path d="M10.3998 3.80621L12.4748 3.18121C13.4194 2.89624 14.4353 2.96475 15.3331 3.37395C16.2309 3.78315 16.949 4.50507 17.3535 5.40496L18.6448 8.27746C18.9927 9.05129 19.0896 9.91463 18.922 10.7463C18.7543 11.5781 18.3304 12.3364 17.7098 12.915L15.4535 15.0187C15.4257 15.0447 15.4028 15.0757 15.386 15.11C15.1498 15.5925 15.5085 16.8812 16.6323 18.8287C17.8998 21.0237 18.8785 21.8912 19.3323 21.7575L22.2935 20.8512C23.1045 20.6036 23.9727 20.6159 24.7763 20.8864C25.5799 21.157 26.2787 21.6723 26.7748 22.36L28.6098 24.9012C29.1859 25.6991 29.4527 26.6791 29.3608 27.6589C29.2688 28.6388 28.8243 29.5519 28.1098 30.2287L26.531 31.7225C25.982 32.2425 25.3154 32.622 24.5879 32.8285C23.8605 33.0351 23.0939 33.0626 22.3535 32.9087C17.9573 31.9937 14.0185 28.4537 10.5035 22.3662C6.98728 16.275 5.89103 11.0875 7.30353 6.82121C7.53998 6.10696 7.94487 5.46013 8.48401 4.93535C9.02314 4.41058 9.67942 4.02329 10.3998 3.80621ZM10.9423 5.60121C10.51 5.7314 10.1155 5.96372 9.79197 6.27854C9.46845 6.59336 9.22546 6.98143 9.08353 7.40996C7.86603 11.0862 8.85228 15.7562 12.1273 21.4287C15.3998 27.0975 18.9473 30.285 22.7348 31.0725C23.1792 31.1649 23.6394 31.1483 24.0761 31.0243C24.5127 30.9002 24.9129 30.6723 25.2423 30.36L26.8198 28.8675C27.2047 28.5031 27.4442 28.0115 27.4938 27.4838C27.5435 26.9562 27.3999 26.4285 27.0898 25.9987L25.2548 23.4562C24.9877 23.086 24.6115 22.8086 24.1789 22.6629C23.7463 22.5172 23.2789 22.5105 22.8423 22.6437L19.8735 23.5525C18.231 24.0412 16.686 22.6725 15.0085 19.765C13.5873 17.305 13.0948 15.5275 13.7023 14.2862C13.8198 14.0462 13.9798 13.83 14.1748 13.6475L16.431 11.5437C16.7653 11.2322 16.9937 10.8238 17.084 10.3759C17.1744 9.92794 17.1222 9.46296 16.9348 9.04621L15.6435 6.17496C15.4257 5.69028 15.039 5.30146 14.5554 5.08109C14.0719 4.86072 13.5247 4.82389 13.016 4.97746L10.941 5.60246L10.9423 5.60121Z" fill="white"/>
</svg>
