<svg width="31" height="30" viewBox="0 0 31 30" fill="none" xmlns="http://www.w3.org/2000/svg">
<g id="Frame 253">
<g id="Group 316">
<path id="Vector" d="M15.7405 5C9.51808 5 4.5 9.01442 4.5 13.888C4.5 17.0514 6.58752 19.8213 9.7188 21.403L8.65898 25.3613C8.639 25.4207 8.63593 25.4843 8.65011 25.5453C8.66429 25.6063 8.69516 25.6621 8.73927 25.7065C8.80359 25.7633 8.88635 25.7946 8.97211 25.7948C9.04322 25.7891 9.11068 25.761 9.1648 25.7146L13.7252 22.6395C14.3984 22.7324 15.077 22.7807 15.7566 22.784C21.9709 22.784 26.9971 18.7696 26.9971 13.888C26.9971 9.00639 21.9549 5 15.7405 5Z" fill="#392020"/>
</g>
</g>
</svg>
