<svg width="27" height="26" viewBox="0 0 27 26" fill="none" xmlns="http://www.w3.org/2000/svg">
<path d="M14.7984 12.3886C13.9279 12.1752 12.9964 12.5613 12.4713 13.2896C11.174 15.0815 9.90717 18.4891 10.7642 20.7179C11.0317 21.4157 11.8549 21.9543 12.6915 22.0728C13.1623 22.1406 13.745 21.9678 14.1921 21.8154C14.8187 21.6054 15.3099 21.2633 15.5233 21.016C15.7367 20.7687 15.9772 20.3589 16.2143 20.2742C16.4548 20.1963 16.8951 20.3792 17.2135 20.4435C17.5319 20.5079 18.1315 20.4808 18.7548 20.264C19.2053 20.1082 19.7709 19.8914 20.1029 19.5527C20.6957 18.9497 21.0005 18.025 20.8041 17.3035C20.2079 15.095 17.2271 12.9847 14.795 12.3886H14.7984Z" fill="white"/>
<path d="M4.37111 13.7192C3.77834 14.6711 4.4795 15.8261 5.18406 16.4866C5.92587 17.181 6.61688 17.5469 7.63984 17.4046C8.55779 17.2793 9.1167 16.6086 8.79829 15.6466C8.53408 14.8506 7.65 14.0613 6.97932 13.5837C6.28832 13.0926 5.07567 12.8352 4.37111 13.7192Z" fill="white"/>
<path d="M21.7581 7.95823C22.8014 8.36809 22.9233 9.71623 22.7506 10.6647C22.5677 11.6639 22.2289 12.3685 21.3211 12.863C20.5082 13.3068 19.658 13.1001 19.343 12.1381C19.0821 11.3421 19.3226 10.1803 19.5801 9.39783C19.8443 8.59165 20.664 7.66354 21.7581 7.95823Z" fill="white"/>
<path d="M7.44494 7.14861C6.41521 8.09027 7.03847 9.61117 7.47204 10.414C7.99707 11.3861 8.86761 12.5073 10.0904 12.4802C12.5259 12.426 11.1642 8.47305 10.2124 7.43654C9.90412 7.1012 9.45699 6.76585 9.00987 6.68455C8.45775 6.58293 8.29177 6.62697 7.44494 7.14861Z" fill="white"/>
<path d="M14.1018 4.67415C12.8316 5.33128 12.8858 6.47619 13.1737 7.63802C13.4006 8.54582 13.7766 9.83637 14.6268 10.3479C15.5786 10.9203 16.7608 10.314 17.1266 9.31473C17.4992 8.29516 17.401 6.99783 16.9979 6.00874C16.6422 5.13143 15.643 4.10847 14.0984 4.67076L14.1018 4.67415Z" fill="white"/>
<path d="M19.5269 24.418C19.2119 24.5298 18.8935 24.6314 18.5785 24.733L18.4803 24.7669C18.1585 24.8719 17.8435 24.9803 17.5284 25.0921C16.4581 25.4647 15.3504 25.8508 14.1174 25.9592C10.869 26.2505 8.376 24.9803 6.70268 22.1892C6.15732 21.278 5.37486 20.6175 4.23673 20.1195C1.45238 18.8933 -0.200611 16.4646 0.0195628 13.931C0.219413 11.6547 1.31012 10.0796 3.18329 9.33102C3.00715 8.47743 3.00715 7.39351 3.00715 7.37657C3.14264 5.42889 4.41965 3.52184 6.18103 2.6276C7.43094 1.99079 8.75198 1.93659 9.96124 2.45484C10.1442 2.21434 10.405 1.9095 10.7776 1.51319L10.7911 1.49626C12.5424 -0.387074 15.4486 -0.505635 17.6978 1.21511C17.8739 1.3506 18.4193 1.95014 18.4227 1.95353C18.592 2.14322 18.7275 2.29565 18.8325 2.42776C21.7388 2.43792 23.1716 3.08827 24.8043 5.08677C27.0331 7.81353 26.4641 11.5666 25.8408 14.1511C25.7528 14.5102 25.6579 14.8692 25.5631 15.2283C25.3531 16.0277 25.1329 16.8576 25.0211 17.6604C24.7433 19.6521 23.8864 21.4304 22.6127 22.6735C21.7117 23.5475 20.6278 24.0285 19.5269 24.4146V24.418ZM4.7787 18.8866C6.1641 19.4963 7.17012 20.3499 7.85435 21.4982C9.27701 23.876 11.2281 24.8651 13.9921 24.6178C15.0625 24.523 16.0448 24.1809 17.0813 23.8184C17.4065 23.7067 17.7317 23.5915 18.0636 23.4865L18.1619 23.4526C19.4863 23.0258 20.7396 22.6194 21.6711 21.7116C22.7347 20.6784 23.4494 19.1745 23.6865 17.4775C23.8085 16.5934 24.0388 15.7262 24.2624 14.8862C24.3538 14.5339 24.4487 14.185 24.5333 13.8361C25.0889 11.5294 25.6139 8.19969 23.7644 5.93698C22.4264 4.30092 21.4272 3.73186 18.4667 3.77589C18.1686 3.77928 17.9078 3.58959 17.8164 3.30844C17.6267 3.05779 17.0271 2.41421 16.8713 2.27533C15.4215 1.17446 13.213 0.869595 11.7768 2.4142L11.7599 2.43113C11.2789 2.946 11.0282 3.26102 10.9266 3.41345C10.9198 3.52184 10.886 3.63023 10.825 3.72846C10.6285 4.04009 10.2119 4.13494 9.90027 3.93847C8.6673 3.16617 7.53256 3.4507 6.79413 3.82669C5.46632 4.50076 4.46368 5.99117 4.35529 7.45448C4.35529 7.73223 4.45352 8.89408 4.55514 9.30055C4.62627 9.37846 4.67708 9.4733 4.70757 9.57831C4.80241 9.93736 4.58901 10.3066 4.22996 10.4014C2.47535 10.8689 1.53707 12.0612 1.36431 14.0495C1.15769 16.4172 3.07489 18.1346 4.78208 18.8866H4.7787Z" fill="white"/>
</svg>
