<svg width="13" height="13" viewBox="0 0 13 13" fill="none" xmlns="http://www.w3.org/2000/svg">
<g id="Group 1261153534">
<path id="Vector" d="M6.49993 8.23424C7.45723 8.23424 8.23327 7.4582 8.23327 6.50091C8.23327 5.54362 7.45723 4.76758 6.49993 4.76758C5.54264 4.76758 4.7666 5.54362 4.7666 6.50091C4.7666 7.4582 5.54264 8.23424 6.49993 8.23424Z" fill="#212529"/>
<path id="Vector_2" d="M4.87467 1.08398L3.88342 2.16732H2.16634C1.57051 2.16732 1.08301 2.65482 1.08301 3.25065V9.75065C1.08301 10.3465 1.57051 10.834 2.16634 10.834H10.833C11.4288 10.834 11.9163 10.3465 11.9163 9.75065V3.25065C11.9163 2.65482 11.4288 2.16732 10.833 2.16732H9.11592L8.12467 1.08398H4.87467ZM6.49967 9.20898C5.00467 9.20898 3.79134 7.99565 3.79134 6.50065C3.79134 5.00565 5.00467 3.79232 6.49967 3.79232C7.99467 3.79232 9.20801 5.00565 9.20801 6.50065C9.20801 7.99565 7.99467 9.20898 6.49967 9.20898Z" fill="#212529"/>
</g>
</svg>
