<svg width="45" height="45" viewBox="0 0 45 45" fill="none" xmlns="http://www.w3.org/2000/svg">
<g id="Group 1261153530">
<rect id="Rectangle 39512" width="45" height="45" rx="22.5" fill="#FAE100"/>
<g id="Group 1261153553">
<path id="Vector" d="M22.8623 11C16.8632 11 12 15.5021 12 21.0573C12 25.1601 13.7167 27.1192 16.0678 28.9032L16.0795 28.9079V33.7229C16.0795 33.9517 16.3384 34.0801 16.5203 33.9447L20.6394 30.8834L20.7281 30.9207C21.4185 31.0492 22.1322 31.1146 22.8623 31.1146C28.8614 31.1146 33.7222 26.6102 33.7222 21.0573C33.7222 15.5044 28.859 11 22.8623 11ZM19.2213 23.6072C20.2872 23.6072 21.1969 22.9697 21.4721 21.9843H23.0465C22.6617 23.8804 21.1876 25.125 19.2236 25.125C16.9402 25.125 15.1302 23.4204 15.1302 21.0479C15.1302 18.6755 16.9402 16.9709 19.2236 16.9709C21.2086 16.9709 22.692 18.2388 23.0582 20.1699H21.4885C21.2505 19.1215 20.3082 18.4677 19.2236 18.4677C17.6889 18.4677 16.6673 19.5628 16.6673 21.0479C16.6673 22.5331 17.8288 23.6072 19.2236 23.6072M29.6008 24.9686H28.157V21.7088C28.157 20.9592 27.7208 20.5552 27.049 20.5552C26.3003 20.5552 25.8198 21.0153 25.8198 21.9446V24.9686H24.376V16.9965H25.8198V19.9948C26.165 19.4694 26.7248 19.2102 27.4852 19.2102C28.101 19.2102 28.6048 19.411 28.9943 19.8267C29.3978 20.24 29.5984 20.8004 29.5984 21.529V24.9686H29.6008Z" fill="#020303"/>
<rect id="Rectangle 39522" x="14.2363" y="14.8311" width="16.6111" height="12.1389" rx="6.06944" fill="#020303"/>
</g>
</g>
</svg>
