<svg width="25" height="25" viewBox="0 0 25 25" fill="none" xmlns="http://www.w3.org/2000/svg">
<g id="Payments" clip-path="url(#clip0_194_1925)">
<path id="Vector" d="M19.7917 14.5837V6.25033C19.7917 5.10449 18.8542 4.16699 17.7083 4.16699H3.12499C1.97916 4.16699 1.04166 5.10449 1.04166 6.25033V14.5837C1.04166 15.7295 1.97916 16.667 3.12499 16.667H17.7083C18.8542 16.667 19.7917 15.7295 19.7917 14.5837ZM10.4167 13.542C8.68749 13.542 7.29166 12.1462 7.29166 10.417C7.29166 8.68783 8.68749 7.29199 10.4167 7.29199C12.1458 7.29199 13.5417 8.68783 13.5417 10.417C13.5417 12.1462 12.1458 13.542 10.4167 13.542ZM23.9583 7.29199V18.7503C23.9583 19.8962 23.0208 20.8337 21.875 20.8337H4.16666V18.7503H21.875V7.29199H23.9583Z" fill="#2962F6"/>
</g>
<defs>
<clipPath id="clip0_194_1925">
<rect width="25" height="25" fill="white"/>
</clipPath>
</defs>
</svg>
