<svg width="81" height="100" viewBox="0 0 81 100" fill="none" xmlns="http://www.w3.org/2000/svg">
<path d="M53.4385 2.25403H7.0723C4.41075 2.25403 2.25 4.41478 2.25 7.07633V92.9268C2.25 95.594 4.41075 97.7492 7.0723 97.7492H73.6336C76.2952 97.7492 78.4559 95.5884 78.4559 92.9268V27.2715L53.4385 2.25403Z" fill="white"/>
<path d="M73.6344 100H7.07309C3.1736 100 0 96.8264 0 92.9269V7.07638C0 3.1769 3.1736 0.0032959 7.07309 0.0032959H53.4336C54.0301 0.0032959 54.604 0.239628 55.026 0.66165L80.0435 25.6791C80.4655 26.1011 80.7019 26.6751 80.7019 27.2715V92.9269C80.7019 96.8264 77.5282 100 73.6288 100H73.6344ZM7.07309 4.50486C5.65509 4.50486 4.50157 5.65839 4.50157 7.07638V92.9269C4.50157 94.3449 5.65509 95.4984 7.07309 95.4984H73.6344C75.0524 95.4984 76.2059 94.3449 76.2059 92.9269V28.2056L52.5052 4.50486H7.07309Z" fill="black"/>
<path d="M53.4395 22.4492C53.4395 25.1107 55.6002 27.2715 58.2618 27.2715H78.4569L53.4395 2.25403V22.4492Z" fill="white"/>
<path d="M78.4557 29.5222H58.2606C54.3611 29.5222 51.1875 26.3486 51.1875 22.4491V2.25392C51.1875 1.34235 51.7333 0.520812 52.5774 0.17194C53.4158 -0.176931 54.3892 0.0143851 55.0307 0.661485L80.0482 25.6789C80.6896 26.3204 80.8866 27.2883 80.5377 28.1323C80.1889 28.9763 79.3673 29.5222 78.4557 29.5222ZM55.6891 7.68956V22.4491C55.6891 23.8671 56.8426 25.0206 58.2606 25.0206H73.0201L55.6891 7.68393V7.68956Z" fill="black"/>
<path d="M24.5287 68.8657H17.6582V82.3029H24.5287V68.8657Z" fill="#2962F6"/>
<path d="M37.3705 56.8691H30.5V82.303H37.3705V56.8691Z" fill="#2962F6"/>
<path d="M50.2104 62.5975H43.3398V82.3031H50.2104V62.5975Z" fill="#2962F6"/>
<path d="M63.0502 46.1216H56.1797V82.3029H63.0502V46.1216Z" fill="#2962F6"/>
<path d="M41.1387 17.0135H14.9227C13.6791 17.0135 12.6719 16.0063 12.6719 14.7627C12.6719 13.5192 13.6791 12.512 14.9227 12.512H41.1387C42.3822 12.512 43.3894 13.5192 43.3894 14.7627C43.3894 16.0063 42.3822 17.0135 41.1387 17.0135Z" fill="black"/>
<path d="M28.5793 26.4387H14.9227C13.6791 26.4387 12.6719 25.4315 12.6719 24.1879C12.6719 22.9444 13.6791 21.9371 14.9227 21.9371H28.5793C29.8228 21.9371 30.8301 22.9444 30.8301 24.1879C30.8301 25.4315 29.8228 26.4387 28.5793 26.4387Z" fill="black"/>
</svg>
