<svg width="30" height="30" viewBox="0 0 30 30" fill="none" xmlns="http://www.w3.org/2000/svg">
<g id="Frame 253">
<g id="Group 316">
<path id="Vector" d="M15.2405 5C9.01808 5 4 9.01442 4 13.888C4 17.0514 6.08752 19.8213 9.2188 21.403L8.15898 25.3613C8.139 25.4207 8.13593 25.4843 8.15011 25.5453C8.16429 25.6063 8.19516 25.6621 8.23927 25.7065C8.30359 25.7633 8.38635 25.7946 8.47211 25.7948C8.54322 25.7891 8.61068 25.761 8.6648 25.7146L13.2252 22.6395C13.8984 22.7324 14.577 22.7807 15.2566 22.784C21.4709 22.784 26.4971 18.7696 26.4971 13.888C26.4971 9.00639 21.4549 5 15.2405 5Z" fill="#392020"/>
</g>
</g>
</svg>
