<svg width="46" height="46" viewBox="0 0 46 46" fill="none" xmlns="http://www.w3.org/2000/svg">
<g clip-path="url(#clip0_638_1172)">
<path d="M36.4167 26.8333V34.5H32.5833V26.8333H36.4167ZM13.4167 26.8333V34.5H11.5C10.4458 34.5 9.58333 33.6375 9.58333 32.5833V26.8333H13.4167ZM23 1.91666C13.4742 1.91666 5.75 9.64082 5.75 19.1667V32.5833C5.75 35.765 8.31833 38.3333 11.5 38.3333H17.25V23H9.58333V19.1667C9.58333 11.7492 15.5825 5.74999 23 5.74999C30.4175 5.74999 36.4167 11.7492 36.4167 19.1667V23H28.75V38.3333H36.4167V40.25H23V44.0833H34.5C37.6817 44.0833 40.25 41.515 40.25 38.3333V19.1667C40.25 9.64082 32.5258 1.91666 23 1.91666Z" fill="#212529"/>
</g>
<defs>
<clipPath id="clip0_638_1172">
<rect width="46" height="46" fill="white"/>
</clipPath>
</defs>
</svg>
