<svg width="26" height="26" viewBox="0 0 26 26" fill="none" xmlns="http://www.w3.org/2000/svg">
<path d="M19.4993 14.0807H14.0827V19.4974C14.0827 19.7847 13.9685 20.0603 13.7654 20.2634C13.5622 20.4666 13.2867 20.5807 12.9993 20.5807C12.712 20.5807 12.4365 20.4666 12.2333 20.2634C12.0302 20.0603 11.916 19.7847 11.916 19.4974V14.0807H6.49935C6.21203 14.0807 5.93648 13.9666 5.73332 13.7634C5.53015 13.5603 5.41602 13.2847 5.41602 12.9974C5.41602 12.7101 5.53015 12.4345 5.73332 12.2314C5.93648 12.0282 6.21203 11.9141 6.49935 11.9141H11.916V6.4974C11.916 6.21008 12.0302 5.93453 12.2333 5.73136C12.4365 5.5282 12.712 5.41406 12.9993 5.41406C13.2867 5.41406 13.5622 5.5282 13.7654 5.73136C13.9685 5.93453 14.0827 6.21008 14.0827 6.4974V11.9141H19.4993C19.7867 11.9141 20.0622 12.0282 20.2654 12.2314C20.4685 12.4345 20.5827 12.7101 20.5827 12.9974C20.5827 13.2847 20.4685 13.5603 20.2654 13.7634C20.0622 13.9666 19.7867 14.0807 19.4993 14.0807Z" fill="#212529"/>
</svg>
