<svg width="103" height="80" viewBox="0 0 103 80" fill="none" xmlns="http://www.w3.org/2000/svg">
<path d="M29.4197 39.1395C29.4197 45.551 24.2378 50.7517 17.8495 50.7517C11.4612 50.7517 6.2793 45.551 6.2793 39.1395C6.2793 32.728 11.4612 27.5273 17.8495 27.5273C24.2378 27.5273 29.4197 32.7231 29.4197 39.1395Z" fill="white"/>
<path d="M17.8488 52.7373C10.3776 52.7373 4.30078 46.6384 4.30078 39.1401C4.30078 31.6418 10.3776 25.543 17.8488 25.543C25.32 25.543 31.3968 31.6418 31.3968 39.1401C31.3968 46.6384 25.32 52.7373 17.8488 52.7373ZM17.8488 29.5129C12.5581 29.5129 8.25641 33.8303 8.25641 39.1401C8.25641 44.45 12.5581 48.7673 17.8488 48.7673C23.1394 48.7673 27.4412 44.45 27.4412 39.1401C27.4412 33.8303 23.1394 29.5129 17.8488 29.5129Z" fill="black"/>
<path d="M33.7224 66.6795C33.7224 57.8811 26.6171 50.75 17.8505 50.75C9.08381 50.75 1.97852 57.8811 1.97852 66.6795V78.0138H33.7224V66.6795Z" fill="#2962F6"/>
<path d="M33.7217 79.9994H1.97781C0.885071 79.9994 0 79.1111 0 78.0144V66.6801C0 56.7999 8.00519 48.7656 17.8498 48.7656C27.6943 48.7656 35.6995 56.8048 35.6995 66.6801V78.0144C35.6995 79.1111 34.8144 79.9994 33.7217 79.9994ZM3.95562 76.0294H31.7439V66.6801C31.7439 58.9883 25.5088 52.7356 17.8498 52.7356C10.1907 52.7356 3.95562 58.9933 3.95562 66.6801V76.0294Z" fill="black"/>
<path d="M96.4724 39.1395C96.4724 45.551 91.2906 50.7517 84.9022 50.7517C78.5139 50.7517 73.332 45.551 73.332 39.1395C73.332 32.728 78.5139 27.5273 84.9022 27.5273C91.2906 27.5273 96.4724 32.7231 96.4724 39.1395Z" fill="white"/>
<path d="M84.9035 52.7373C77.4323 52.7373 71.3555 46.6384 71.3555 39.1401C71.3555 31.6418 77.4323 25.543 84.9035 25.543C92.3747 25.543 98.4515 31.6418 98.4515 39.1401C98.4515 46.6384 92.3747 52.7373 84.9035 52.7373ZM84.9035 29.5129C79.6128 29.5129 75.3111 33.8303 75.3111 39.1401C75.3111 44.45 79.6128 48.7673 84.9035 48.7673C90.1941 48.7673 94.4959 44.45 94.4959 39.1401C94.4959 33.8303 90.1941 29.5129 84.9035 29.5129Z" fill="black"/>
<path d="M100.775 66.6795C100.775 57.8811 93.6699 50.75 84.9032 50.75C76.1365 50.75 69.0312 57.8811 69.0312 66.6795V78.0138H100.775V66.6795Z" fill="#2962F6"/>
<path d="M100.774 79.9994H69.0305C67.9378 79.9994 67.0527 79.1111 67.0527 78.0144V66.6801C67.0527 56.7999 75.0629 48.7656 84.9025 48.7656C94.7421 48.7656 102.752 56.8048 102.752 66.6801V78.0144C102.752 79.1111 101.867 79.9994 100.774 79.9994ZM71.0084 76.0294H98.7966V66.6801C98.7966 58.9883 92.5616 52.7356 84.9025 52.7356C77.2434 52.7356 71.0084 58.9933 71.0084 66.6801V76.0294Z" fill="black"/>
<path d="M66.504 17.2142C66.504 25.6305 59.7102 32.449 51.3242 32.449C42.9383 32.449 36.1445 25.6305 36.1445 17.2142C36.1445 8.79785 42.9383 1.98438 51.3242 1.98438C59.7102 1.98438 66.504 8.80281 66.504 17.2142Z" fill="white"/>
<path d="M51.3235 34.4346C41.8647 34.4346 34.166 26.708 34.166 17.2148C34.166 7.72161 41.8647 0 51.3235 0C60.7824 0 68.4811 7.72161 68.4811 17.2148C68.4811 26.708 60.7824 34.4346 51.3235 34.4346ZM51.3235 3.96998C44.0452 3.96998 38.1216 9.91502 38.1216 17.2148C38.1216 24.5146 44.0452 30.4646 51.3235 30.4646C58.6019 30.4646 64.5254 24.5196 64.5254 17.2148C64.5254 9.91005 58.6019 3.96998 51.3235 3.96998Z" fill="black"/>
<path d="M76.1069 57.3211C76.1069 43.585 65.0114 32.4492 51.325 32.4492C37.6385 32.4492 26.543 43.585 26.543 57.3211V78.0146H76.1069V57.3211Z" fill="white"/>
<path d="M76.1062 80.0002H26.5423C25.4495 80.0002 24.5645 79.112 24.5645 78.0152V57.3217C24.5645 42.5137 36.5698 30.4648 51.3243 30.4648C66.0787 30.4648 78.0841 42.5137 78.0841 57.3217V78.0152C78.0841 79.112 77.199 80.0002 76.1062 80.0002ZM28.5201 76.0303H74.1284V57.3217C74.1284 44.7022 63.8982 34.4348 51.3243 34.4348C38.7503 34.4348 28.5201 44.7022 28.5201 57.3217V76.0303Z" fill="black"/>
<path d="M76.1062 80.0002H26.5423C25.4495 80.0002 24.5645 79.112 24.5645 78.0152V57.3217C24.5645 42.5137 36.5698 30.4648 51.3243 30.4648C66.0787 30.4648 78.0841 42.5137 78.0841 57.3217V78.0152C78.0841 79.112 77.199 80.0002 76.1062 80.0002ZM28.5201 76.0303H74.1284V57.3217C74.1284 44.7022 63.8982 34.4348 51.3243 34.4348C38.7503 34.4348 28.5201 44.7022 28.5201 57.3217V76.0303Z" fill="black"/>
</svg>
