<svg width="45" height="45" viewBox="0 0 45 45" fill="none" xmlns="http://www.w3.org/2000/svg">
<g id="Group 1261153530">
<rect id="Rectangle 39512" width="45" height="45" rx="22.5" fill="#004599"/>
<g id="Group 1261152915">
<path id="Vector" d="M7.90491 20.1C7.73037 20.5002 7.44299 20.921 7.08392 21.3012C6.71427 21.7015 6.26234 22.0505 5.80042 22.3279L5 21.3935C5.57475 21.065 6.11895 20.6131 6.52974 20.0383C6.94053 19.4736 7.19676 18.8165 7.19676 18.0778V17.2157H8.53138V18.0572C8.53138 18.786 8.79819 19.4019 9.1984 19.9049C9.59861 20.4285 10.1428 20.8188 10.6764 21.0756L9.95769 22.0505C8.97214 21.5169 8.32511 20.8805 7.90433 20.1H7.90491ZM7.19676 22.7898H12.5864V26.7214H7.19676V22.7898ZM8.45968 23.8677V25.6536H11.3135V23.8677H8.45968ZM12.5864 22.4202H11.3135V17H12.5864V19.1556H14.075V20.2334H12.5864V22.4202Z" fill="white"/>
<path id="Vector_2" d="M17.6838 21.2913C17.3247 20.9527 17.0473 20.5931 16.8834 20.2646C16.7294 20.6342 16.452 21.0344 16.0929 21.4141C15.7233 21.7937 15.2819 22.1839 14.7895 22.4819L13.999 21.5269C14.6255 21.1161 15.1897 20.6442 15.5699 20.1C15.9495 19.5664 16.1858 18.9505 16.1858 18.2524V17.2157H17.541V18.2318C17.541 19.0016 17.7872 19.597 18.1874 20.0795C18.5671 20.5725 19.1113 20.9416 19.6555 21.219L18.9367 22.2151C18.4848 21.9689 18.0435 21.6503 17.6844 21.2913H17.6838ZM21.1123 26.3941C20.6604 26.7737 20.0345 27 19.2952 27C18.5559 27 17.94 26.7743 17.4987 26.3941C17.0467 25.9939 16.7905 25.4391 16.7905 24.7515C16.7905 24.0639 17.0473 23.5403 17.4987 23.1401C17.94 22.7399 18.5559 22.5036 19.2952 22.5036C20.0345 22.5036 20.6604 22.7399 21.1123 23.1401C21.5537 23.5403 21.8205 24.0951 21.8205 24.7515C21.8205 25.408 21.5537 25.9939 21.1123 26.3941ZM20.2091 23.91C19.9728 23.7049 19.6649 23.5815 19.2952 23.5815C18.5559 23.5815 18.0429 24.0539 18.0429 24.7521C18.0429 25.4503 18.5559 25.9328 19.2952 25.9328C20.0345 25.9328 20.5681 25.4603 20.5681 24.7521C20.5681 24.413 20.4242 24.1157 20.2091 23.9106V23.91ZM20.7021 19.8338H18.9056V18.7043H20.7021V17H21.975V22.4713H20.7021V19.8332V19.8338Z" fill="white"/>
<path id="Vector_3" d="M25.4729 23.2312V22.5536C24.498 22.3379 23.9638 21.6503 23.9638 20.8287C23.9638 20.3768 24.1894 19.9355 24.5591 19.6175H23.3167V18.6014H28.8398V19.6175H27.6385C28.0082 19.9461 28.2239 20.3874 28.2239 20.8493C28.2239 21.6603 27.7314 22.3273 26.7558 22.543V23.1695C27.6285 23.1184 28.5012 23.0567 29.3634 22.9644V17H30.6263V20.244H32.0638V21.3218H30.6263V25.6131H29.3634V23.9911C27.3617 24.2167 25.3084 24.3707 23.2039 24.4324L23.0811 23.2829C23.8815 23.2829 24.6719 23.2623 25.4729 23.2318V23.2312ZM24.8159 17.0411H27.3312V18.109H24.8159V17.0411ZM25.175 20.8293C25.175 21.2707 25.524 21.6198 26.0888 21.6198C26.6536 21.6198 27.0027 21.2707 27.0027 20.8293C27.0027 20.388 26.6642 20.0283 26.0888 20.0283C25.5135 20.0283 25.175 20.3874 25.175 20.8293Z" fill="white"/>
<path id="Vector_4" d="M35.6886 20.9833C36.0065 21.5892 36.469 22.0306 37.0332 22.4102L36.2733 23.3858C35.9142 23.1395 35.534 22.7799 35.2366 22.4102C34.9187 22.0405 34.6719 21.6503 34.5796 21.3324C34.2922 22.2357 33.6763 22.965 32.8959 23.5809L32.1055 22.6465C32.7214 22.1128 33.1833 21.6403 33.4812 21.0244C33.7686 20.4185 33.9126 19.6798 33.9126 18.622H32.414V17.5542H36.6535V18.622H35.1855C35.1855 19.6175 35.3601 20.3774 35.6886 20.9833ZM39.1171 20.7676H38.3367V25.254H37.1049V17.1234H38.3367V19.6898H39.1171V17H40.3595V25.6025H39.1171V20.7676Z" fill="white"/>
</g>
</g>
</svg>
