<svg width="160" height="100" viewBox="0 0 160 100" fill="none" xmlns="http://www.w3.org/2000/svg">
<mask id="mask0_194_1385" style="mask-type:alpha" maskUnits="userSpaceOnUse" x="0" y="0" width="160" height="100">
<rect width="160" height="100" rx="6" fill="#E9ECEF"/>
</mask>
<g mask="url(#mask0_194_1385)">
<rect width="160" height="100" rx="6" fill="#F3D9FA"/>
<path d="M81.1949 93.3082C86.6516 93.3082 91.0751 87.1072 91.0751 79.4578C91.0751 71.8084 86.6516 65.6074 81.1949 65.6074C75.7382 65.6074 71.3146 71.8084 71.3146 79.4578C71.3146 87.1072 75.7382 93.3082 81.1949 93.3082Z" fill="white"/>
<path d="M91.0749 76.5234C91.0749 76.5234 92.3554 81.7665 92.6736 87.75C92.6736 87.75 100.004 101.244 95.0909 104.942C95.0909 104.942 90.4415 108.6 85.0531 106.857C85.0531 106.857 81.2772 105.382 82.2533 101.415C82.2533 101.415 84.4824 98.6309 84.3937 96.645C84.3768 96.2702 84.0173 95.2497 83.8781 94.9024C83.5614 94.1099 83.3227 94.0885 83.5614 93.0589" fill="white"/>
<path d="M88.0794 107.642C87.0895 107.642 86.04 107.502 84.9568 107.151L84.94 107.145C84.9002 107.13 80.9239 105.523 81.952 101.342L81.9689 101.276L82.0117 101.223C82.0331 101.195 84.1674 98.5056 84.0832 96.659C84.0695 96.3606 83.7497 95.4182 83.5906 95.0174C83.5202 94.8414 83.4529 94.7053 83.3948 94.5844C83.1637 94.1116 83.0612 93.847 83.2601 92.9902L83.8614 93.1294C83.7038 93.8118 83.7665 93.9372 83.9501 94.3136C84.0113 94.4375 84.0863 94.592 84.1643 94.7879C84.2653 95.0418 84.6799 96.1663 84.7013 96.6314C84.7885 98.576 82.8639 101.136 82.538 101.553C81.7072 105.104 84.9293 106.473 85.1588 106.567C86.1517 106.887 87.1217 107.017 88.0396 107.017C91.9027 107.017 94.8646 104.729 94.9013 104.7C97.2987 102.895 96.5139 98.4628 95.4337 95.0617C94.2389 91.2966 92.4213 87.9323 92.403 87.8986L92.3693 87.8374L92.3662 87.767C92.0541 81.8845 90.7889 76.6491 90.7766 76.5971L91.3764 76.4502C91.3886 76.5022 92.6585 81.7498 92.9797 87.6645C93.2352 88.1449 94.8967 91.3302 96.0212 94.8659C97.6827 100.095 97.4318 103.568 95.2792 105.188C95.1262 105.308 92.1046 107.642 88.0824 107.642H88.0794Z" fill="black"/>
<path d="M71.3954 77.4336C71.3954 77.4336 69.9297 83.2718 70.1959 87.7484C70.1959 87.7484 62.866 101.242 67.7786 104.94C67.7786 104.94 72.4281 108.598 77.8165 106.856C77.8165 106.856 81.5923 105.381 80.6162 101.414C80.6162 101.414 78.3871 98.6292 78.4759 96.6433C78.4927 96.2685 79.0634 95.1042 79.1613 94.7432C79.4382 93.7135 79.478 94.0088 79.3082 93.0587" fill="white"/>
<path d="M74.789 107.641C70.7668 107.641 67.7437 105.307 67.5861 105.184C65.4381 103.567 65.1887 100.094 66.8486 94.8648C67.9594 91.3658 69.5995 88.2111 69.881 87.6802C69.6392 83.219 71.0804 77.4175 71.0942 77.3594L71.6924 77.5093C71.6786 77.5674 70.2405 83.3536 70.5006 87.7307L70.5052 87.8195L70.4639 87.8975C70.392 88.0306 63.3161 101.199 67.9609 104.696C68.0114 104.736 72.5491 108.23 77.7081 106.567C77.933 106.477 81.1596 105.108 80.3288 101.554C80.0029 101.134 78.0768 98.5764 78.1655 96.6318C78.1777 96.3656 78.3506 95.9342 78.6122 95.3039C78.7193 95.0484 78.8295 94.7837 78.8601 94.6644C78.9228 94.4333 78.9733 94.2681 79.0116 94.1396C79.084 93.9009 79.085 93.5847 79.0146 93.191L79.0008 93.1145L79.6082 93.0059L79.622 93.0824C79.7444 93.7632 79.7536 93.8198 79.6021 94.3186C79.5639 94.4425 79.5164 94.6016 79.4552 94.8235C79.4124 94.9811 79.3053 95.2396 79.1798 95.5395C79.033 95.8914 78.7882 96.4819 78.7805 96.6579C78.6979 98.5045 80.8322 101.194 80.8536 101.222L80.8964 101.275L80.9132 101.341C81.9414 105.522 77.9666 107.129 77.9253 107.144L77.9085 107.15C76.8268 107.5 75.7758 107.641 74.7874 107.641H74.789Z" fill="black"/>
<path d="M76.7641 91.9107C77.5383 92.2733 78.3369 92.5196 79.1462 92.6864C79.9571 92.8455 80.7756 92.9312 81.5972 92.9113C81.8022 92.9143 82.0072 92.8868 82.2122 92.8776L82.5197 92.8608L82.8257 92.8164L83.4392 92.7338C83.6412 92.6894 83.8431 92.6481 84.0481 92.6084L84.3541 92.5472C84.4535 92.5181 84.553 92.4875 84.654 92.4615L85.2613 92.2963C85.4679 92.2473 85.6591 92.1616 85.8626 92.1004C86.063 92.0346 86.2665 91.9688 86.4746 91.9092C86.2986 92.0285 86.1166 92.1417 85.933 92.2549C85.8427 92.3131 85.7494 92.3651 85.6561 92.4202C85.5627 92.4753 85.4709 92.5319 85.373 92.5747L84.784 92.8409C84.6861 92.8853 84.5851 92.9281 84.4857 92.9694L84.1766 93.0689C83.9701 93.1362 83.7635 93.2005 83.5539 93.2616C83.3428 93.3121 83.1271 93.3473 82.9129 93.3902L82.5916 93.4498L82.2657 93.4789C82.0485 93.4927 81.8297 93.5217 81.6125 93.5217C80.7374 93.5401 79.8592 93.41 79.03 93.1454C78.2023 92.8822 77.4067 92.4875 76.7687 91.9092L76.7641 91.9107Z" fill="black"/>
<path d="M81.3005 89.7309C84.3643 89.7309 86.848 86.7684 86.848 83.114C86.848 79.4596 84.3643 76.4971 81.3005 76.4971C78.2367 76.4971 75.753 79.4596 75.753 83.114C75.753 86.7684 78.2367 89.7309 81.3005 89.7309Z" fill="#F9D2DC"/>
<path d="M108.095 68.373L106.263 69.4914L105.202 69.2542L103.578 69.9473L100.071 73.4141L103.46 76.7631L107.649 72.5528L109.512 69.8188L108.968 68.3623L108.095 68.373Z" fill="white"/>
<path d="M106.154 69.3222C106.154 69.3222 107.3 67.2079 110.265 66.9355C110.265 66.9355 111.83 66.9264 112.355 68.0249" fill="white"/>
<path d="M106.154 69.6319C106.104 69.6319 106.053 69.6196 106.007 69.5936C105.857 69.5125 105.802 69.3259 105.883 69.1759C105.934 69.0841 107.144 66.9132 110.237 66.6286C110.248 66.6286 110.253 66.6271 110.268 66.6286C110.389 66.6286 112.041 66.6516 112.633 67.8939C112.707 68.0484 112.641 68.232 112.488 68.3054C112.335 68.3789 112.15 68.3146 112.076 68.1601C111.665 67.2987 110.41 67.2482 110.277 67.2467C109.13 67.3553 108.134 67.7608 107.318 68.4508C106.703 68.9709 106.426 69.4682 106.423 69.4728C106.367 69.5753 106.261 69.6334 106.153 69.6334L106.154 69.6319Z" fill="black"/>
<path d="M100.151 73.6015C100.55 72.2934 99.2295 69.841 102.36 68.718C102.36 68.718 102.167 66.4736 104.416 67.133C104.416 67.133 105.56 67.361 105.957 69.0791" fill="white"/>
<path d="M100.151 73.9112C100.12 73.9112 100.091 73.9066 100.06 73.8974C99.8966 73.8469 99.8048 73.6756 99.8553 73.5119C99.9501 73.2028 99.9302 72.7775 99.9103 72.3277C99.8537 71.0946 99.7772 69.4178 102.049 68.5075C102.061 68.1434 102.155 67.4503 102.664 67.0326C103.1 66.6762 103.715 66.6088 104.494 66.8353C104.659 66.8735 105.843 67.2147 106.258 69.0108C106.296 69.1776 106.192 69.3428 106.027 69.3811C105.862 69.4193 105.695 69.3153 105.657 69.15C105.314 67.666 104.393 67.4442 104.353 67.4365C104.347 67.4365 104.336 67.4319 104.33 67.4304C103.757 67.2621 103.328 67.2881 103.057 67.5084C102.608 67.8741 102.667 68.6849 102.669 68.6926C102.68 68.8318 102.597 68.9619 102.465 69.0093C100.412 69.7452 100.47 71.0441 100.528 72.2986C100.551 72.8035 100.573 73.2809 100.447 73.6924C100.406 73.8255 100.284 73.9112 100.152 73.9112H100.151Z" fill="black"/>
<path d="M107.699 70.0473C107.699 70.0473 111.739 66.9171 113.603 68.3629C113.603 68.3629 114.911 69.5118 113.663 70.621L113.127 71.4671L107.964 75.7203" fill="white"/>
<path d="M107.964 76.028C107.875 76.028 107.786 75.9898 107.725 75.9148C107.617 75.7832 107.636 75.5889 107.768 75.4803L112.893 71.2592L113.403 70.456C113.418 70.4315 113.436 70.4101 113.458 70.3902C113.747 70.1332 113.894 69.8578 113.894 69.5733C113.894 69.073 113.461 68.6507 113.404 68.5987C112.027 67.5507 108.957 69.4631 107.887 70.2908C107.753 70.3948 107.558 70.3704 107.454 70.2357C107.35 70.1011 107.375 69.9068 107.509 69.8027C107.682 69.6696 111.763 66.5455 113.791 68.1183C113.796 68.1229 113.801 68.126 113.807 68.1305C113.836 68.1566 114.509 68.7563 114.51 69.5687C114.51 70.0261 114.307 70.4484 113.9 70.8217L113.387 71.631C113.371 71.6586 113.348 71.683 113.323 71.7044L108.16 75.9576C108.102 76.0051 108.033 76.028 107.964 76.028Z" fill="black"/>
<path d="M104.754 76.657C104.754 76.657 102.072 90.512 94.5971 83.7635C94.5971 83.7635 93.1773 82.5687 91.0966 77.4572C91.0966 77.4572 82.4663 69.9881 89.3525 68.8789C95.1647 70.7806 97.7655 77.1864 97.7655 77.1864C97.7655 77.1864 98.0501 77.318 100.189 73.435" fill="white"/>
<path d="M98.4539 85.9253C97.1764 85.9253 95.8147 85.2781 94.3904 83.9915C94.3384 83.9486 92.9094 82.7063 90.8394 77.6392C90.2489 77.1175 85.7264 73.0265 86.4623 70.4394C86.7408 69.4587 87.697 68.8314 89.3049 68.5714C89.3539 68.5637 89.4028 68.5668 89.4503 68.5836C94.5388 70.2481 97.1825 75.1867 97.871 76.6585C98.154 76.2929 98.7507 75.4086 99.9211 73.285C100.004 73.1366 100.192 73.0816 100.34 73.1642C100.49 73.2468 100.544 73.4335 100.461 73.5834C98.1831 77.7188 97.8924 77.5841 97.6369 77.4648C97.5665 77.4327 97.5099 77.373 97.4808 77.3011C97.4548 77.2384 94.883 71.0575 89.3279 69.194C88.0228 69.4174 87.2579 69.8932 87.0544 70.6077C86.7867 71.547 87.4216 72.976 88.8872 74.7415C90.0332 76.1215 91.2846 77.2093 91.2984 77.2215C91.3351 77.2537 91.3642 77.2934 91.3826 77.3378C93.3914 82.2749 94.7836 83.5141 94.7973 83.5264C96.5002 85.0639 98.0607 85.6071 99.4407 85.145C102.987 83.9593 104.436 76.6708 104.451 76.5973C104.483 76.4306 104.644 76.3204 104.812 76.3526C104.979 76.3847 105.089 76.5469 105.057 76.7136C104.996 77.0288 103.521 84.4305 99.6365 85.7295C99.251 85.858 98.8562 85.9222 98.4539 85.9222V85.9253Z" fill="black"/>
<path d="M108.62 71.146C108.62 71.146 112.118 68.9567 114.673 71.2745C114.673 71.2745 115.661 72.2445 114.217 73.1961C114.217 73.1961 113.744 73.6184 111.047 74.2854C111.047 74.2854 108.193 78.049 103.711 76.4105" fill="white"/>
<path d="M105.935 77.1293C105.216 77.1293 104.436 77.0039 103.605 76.7009C103.444 76.6428 103.363 76.4653 103.421 76.3047C103.479 76.144 103.657 76.0614 103.817 76.1211C108.026 77.6602 110.69 74.2454 110.802 74.1001C110.844 74.0435 110.906 74.0037 110.973 73.9868C113.479 73.3672 113.999 72.9756 114.019 72.9587C114.03 72.948 114.034 72.9465 114.047 72.9388C114.444 72.6772 114.66 72.4018 114.689 72.1234C114.726 71.7746 114.457 71.4977 114.454 71.4946C112.114 69.3741 108.816 71.389 108.782 71.4089C108.637 71.4992 108.447 71.4548 108.357 71.311C108.267 71.1672 108.311 70.976 108.455 70.8857C108.493 70.8627 109.389 70.3058 110.621 70.0412C112.284 69.6832 113.756 70.0305 114.879 71.0479C114.908 71.0754 115.367 71.5344 115.304 72.1785C115.258 72.6512 114.954 73.0781 114.398 73.4468C114.255 73.56 113.611 73.9639 111.219 74.5621C110.829 75.0241 108.888 77.1308 105.933 77.1308L105.935 77.1293Z" fill="black"/>
<path d="M104.31 69.0552C104.31 69.0552 107.064 68.7186 108.788 71.7295L104.31 69.0552Z" fill="white"/>
<path d="M104.31 69.0546C106.197 68.4534 108.303 69.8778 108.788 71.729C108.486 71.449 108.222 71.169 107.929 70.8921C106.907 69.9496 105.693 69.3208 104.312 69.0546H104.31Z" fill="black"/>
<path d="M51.4084 72.9814L53.4891 73.5139L54.2143 73.6118L56.1894 73.1605L61.1999 75.8914L58.3038 79.6412L53.0622 76.8476L50.4797 74.7806L50.5731 73.2278L51.4084 72.9814Z" fill="white"/>
<path d="M54.152 73.5071C54.152 73.5071 52.4355 71.8226 49.521 72.4315C49.521 72.4315 48.0216 72.8813 47.8426 74.0869" fill="white"/>
<path d="M47.8425 74.3956C47.8272 74.3956 47.8119 74.3956 47.7966 74.3925C47.6283 74.3681 47.512 74.2105 47.5365 74.0422C47.7415 72.6591 49.3617 72.1573 49.4306 72.1359C49.4382 72.1328 49.4474 72.1313 49.4566 72.1298C52.4981 71.4949 54.2927 73.213 54.3661 73.2864C54.487 73.4057 54.49 73.6016 54.3707 73.7224C54.2514 73.8433 54.0571 73.8464 53.9347 73.727C53.9178 73.7102 52.2946 72.1726 49.5973 72.7295C49.4734 72.7708 48.2862 73.1854 48.147 74.1309C48.124 74.2839 47.9924 74.3941 47.8425 74.3941V74.3956Z" fill="black"/>
<path d="M61.1466 75.8342C60.3801 74.702 60.9233 71.9681 57.6003 71.8151C57.6003 71.8151 57.126 69.6135 55.1707 70.9032C55.1707 70.9032 54.1442 71.4571 54.2696 73.2165" fill="white"/>
<path d="M61.1466 76.1436C61.0472 76.1436 60.9508 76.0961 60.8911 76.0074C60.6509 75.6509 60.5316 75.1889 60.4046 74.6993C60.091 73.483 59.7666 72.2239 57.5865 72.1229C57.4473 72.1168 57.3279 72.0158 57.2989 71.8797C57.2989 71.872 57.1168 71.0795 56.5798 70.8623C56.2555 70.7307 55.8393 70.8316 55.3406 71.1606C55.3329 71.1652 55.3253 71.1698 55.3176 71.1744C55.2855 71.1927 54.47 71.6762 54.5787 73.1939C54.5909 73.3637 54.4624 73.5121 54.2926 73.5243C54.1166 73.5335 53.9743 73.4081 53.9621 73.2382C53.8305 71.3993 54.8632 70.7261 55.0086 70.6404C55.6863 70.1952 56.2937 70.0789 56.8154 70.2916C57.4258 70.541 57.7181 71.1759 57.8359 71.5201C60.2746 71.7236 60.6938 73.3484 61.0013 74.5448C61.1145 74.9808 61.2201 75.3939 61.4006 75.6616C61.4955 75.8024 61.4587 75.9952 61.318 76.09C61.2644 76.1252 61.2048 76.1436 61.1451 76.1436H61.1466Z" fill="black"/>
<path d="M52.8866 74.6516C52.8866 74.6516 48.1056 72.8463 46.7485 74.7756C46.7485 74.7756 45.8367 76.258 47.3544 76.9526L48.1147 77.6029L54.2987 80.1517" fill="white"/>
<path d="M54.2986 80.461C54.2589 80.461 54.2191 80.4534 54.1808 80.4381L47.9969 77.8892C47.9663 77.877 47.9387 77.8601 47.9143 77.8387L47.186 77.216C46.6888 76.9789 46.369 76.6362 46.2344 76.1971C45.9973 75.4199 46.4654 74.6473 46.4853 74.6152C46.4884 74.609 46.4914 74.6044 46.496 74.5999C47.1325 73.6957 48.4375 73.3882 50.3729 73.6865C51.7544 73.8992 52.9447 74.3459 52.9951 74.3643C53.1543 74.4239 53.2353 74.6029 53.1741 74.762C53.1145 74.9211 52.9355 75.0022 52.7764 74.9426C51.5111 74.4652 48.0137 73.5381 47.0055 74.9456C46.9688 75.0099 46.6766 75.5408 46.825 76.0212C46.9091 76.2935 47.1294 76.5123 47.4813 76.6729C47.5073 76.6851 47.5318 76.7005 47.5532 76.7188L48.2769 77.3369L54.4164 79.8674C54.574 79.9316 54.649 80.1122 54.5847 80.2698C54.5358 80.3891 54.421 80.461 54.2986 80.461Z" fill="black"/>
<path d="M57.6431 80.1056C57.6431 80.1056 63.4782 92.215 69.4388 83.9151C69.4388 83.9151 70.8096 81.3969 71.2059 77.9102C71.2059 77.9102 77.3378 68.902 70.4287 69.8628C65.4319 73.3877 64.4773 78.5573 64.4773 78.5573C64.4773 78.5573 64.2478 78.7746 61.0609 75.6902" fill="white"/>
<path d="M64.9958 87.1328C64.8765 87.1328 64.7556 87.1282 64.6347 87.1175C60.5514 86.7626 57.4931 80.5067 57.3645 80.2405C57.2911 80.0875 57.3554 79.9024 57.5084 79.8289C57.6629 79.7555 57.8465 79.8197 57.9199 79.9727C57.9505 80.0355 60.9553 86.1781 64.6883 86.5025C66.2519 86.6371 67.7619 85.713 69.174 83.7547C69.2888 83.5359 70.528 81.1171 70.8967 77.8783C70.9029 77.8278 70.9197 77.7804 70.9487 77.739C71.8958 76.3468 74.1402 72.3889 73.1641 70.8161C72.7831 70.2042 71.9019 69.9839 70.5433 70.1613C65.7684 73.567 64.7893 78.5667 64.7786 78.6172C64.7663 78.6815 64.7342 78.7412 64.6868 78.7855C64.4787 78.9829 64.2431 79.2047 60.8451 75.9154C60.7227 75.7976 60.7197 75.6017 60.8375 75.4793C60.9568 75.357 61.1511 75.3539 61.2735 75.4717C63.0773 77.2174 63.9019 77.8722 64.2584 78.117C64.5873 76.8288 65.9413 72.6505 70.2465 69.6136C70.2863 69.5845 70.3337 69.5662 70.3811 69.5601C72.0457 69.3291 73.158 69.6412 73.6843 70.4918C75.0061 72.6199 71.9218 77.3872 71.498 78.0236C71.0895 81.4904 69.7615 83.9613 69.7049 84.0668C69.6988 84.0775 69.6927 84.0882 69.685 84.099C68.2377 86.1154 66.6604 87.1343 64.9912 87.1343L64.9958 87.1328Z" fill="black"/>
<path d="M52.3281 75.9727C52.3281 75.9727 48.3427 74.9063 46.5802 77.8728C46.5802 77.8728 45.9208 79.0906 47.5807 79.5756C47.5807 79.5756 48.156 79.8403 50.9313 79.6858C50.9313 79.6858 54.7637 82.4458 58.5671 79.5634" fill="white"/>
<path d="M54.8159 81.1793C52.8132 81.1793 51.2389 80.2553 50.8457 80.0013C48.3841 80.1314 47.6497 79.934 47.4799 79.8682C46.8404 79.6785 46.4242 79.3603 46.2422 78.9212C45.9928 78.3245 46.2972 77.7493 46.311 77.7248C47.0913 76.4121 48.3963 75.6471 50.0914 75.5018C51.346 75.3947 52.368 75.6624 52.4108 75.6732C52.576 75.7175 52.674 75.8858 52.6296 76.0511C52.5852 76.2163 52.4169 76.3142 52.2517 76.2698C52.1982 76.2561 48.4651 75.309 46.8495 78.0292C46.8495 78.0292 46.6797 78.3689 46.8159 78.6871C46.926 78.9457 47.2137 79.1446 47.6711 79.2792C47.6849 79.2838 47.7002 79.2884 47.7139 79.2945C47.7277 79.2991 48.3412 79.5209 50.9176 79.3771C50.9895 79.3741 51.0584 79.3939 51.115 79.4353C51.2649 79.5423 54.8128 82.0239 58.3852 79.3174C58.5213 79.2149 58.7141 79.2409 58.8181 79.3771C58.9206 79.5133 58.8946 79.706 58.7585 79.8101C57.3999 80.8397 56.0322 81.1778 54.8204 81.1778L54.8159 81.1793Z" fill="black"/>
<path d="M55.8331 72.7109C55.8331 72.7109 53.1022 73.1975 52.3388 76.5817L55.8331 72.7109Z" fill="white"/>
<path d="M55.833 72.7102C54.5892 73.3711 53.6162 74.3258 52.9155 75.5283C52.7151 75.8802 52.5452 76.2244 52.3387 76.5809C52.2576 74.6685 53.8549 72.6872 55.833 72.7102Z" fill="black"/>
<path d="M63.7949 30.8391C63.7949 30.8391 69.3027 24.698 78.6933 23.9452C78.6933 23.9452 92.2454 21.8447 97.158 36.665C97.158 36.665 105.559 67.8893 81.6644 68.1662C81.6644 68.1662 61.3379 68.4033 60.3465 51.6828C60.3465 51.6828 57.3356 39.7157 63.7934 30.8406L63.7949 30.8391Z" fill="white"/>
<path d="M83.8109 80.1023C86.6275 80.7127 87.5913 79.0435 87.5913 79.0435C88.5093 77.2092 89.9689 77.714 89.9689 77.714C93.324 77.9818 93.0838 75.1851 93.0838 75.1851C93.1312 72.1788 95.6525 72.2446 95.6525 72.2446C97.952 72.292 97.7393 69.5167 97.7393 69.5167C93.3133 68.9093 91.9149 65.7929 91.8032 65.9229C83.69 75.3105 74.6604 70.4698 70.4026 66.9755C70.2711 66.8669 69.1925 70.0965 64.8475 71.1354C64.8475 71.1354 64.9087 73.9183 67.1913 73.6444C67.1913 73.6444 69.6943 73.3308 70.037 76.3188C70.037 76.3188 70.0722 79.1246 73.3845 78.5295C73.3845 78.5295 74.7874 77.8823 75.8813 79.6188C75.8813 79.6188 77.0043 81.1854 79.7474 80.3011C79.7474 80.3011 81.5543 78.6412 83.8109 80.1007V80.1023Z" fill="#F3A7B9"/>
<path d="M78.1579 80.858C76.4474 80.858 75.6916 79.839 75.6534 79.784C75.6503 79.7794 75.6473 79.7748 75.6442 79.7702C74.7033 78.277 73.5513 78.7666 73.5023 78.788C73.4824 78.7972 73.4579 78.8048 73.4365 78.8079C72.2707 79.0175 71.3466 78.8507 70.6934 78.3106C69.8305 77.5977 69.7632 76.4931 69.757 76.3401C69.653 75.4512 69.3378 74.7949 68.8192 74.3879C68.1017 73.8249 67.2373 73.9244 67.2281 73.9259C66.5442 74.007 65.9705 73.8509 65.5207 73.4608C64.6088 72.6698 64.5675 71.2041 64.566 71.1414C64.5629 71.0083 64.6532 70.892 64.7833 70.8614C68.1996 70.0445 69.5352 67.8169 69.9728 67.084C70.1258 66.8286 70.19 66.723 70.3461 66.6955C70.4256 66.6802 70.5189 66.7062 70.5832 66.7582C81.2131 75.4787 88.8169 68.9506 91.5921 65.7393C91.6487 65.675 91.7329 65.6322 91.8247 65.6383C91.9884 65.6444 92.0618 65.7438 92.2393 65.984C92.7472 66.671 94.2955 68.7609 97.7807 69.2397C97.9123 69.2581 98.0132 69.3652 98.0239 69.4983C98.0285 69.5595 98.131 71.0236 97.3018 71.9003C96.8933 72.3332 96.338 72.5444 95.6495 72.5306C95.6388 72.5306 94.7576 72.5214 94.1043 73.1517C93.6315 73.6077 93.3837 74.2915 93.3684 75.182C93.3791 75.3365 93.4204 76.4411 92.631 77.2351C92.0328 77.8364 91.1316 78.0934 89.949 77.9985C89.9245 77.997 89.9016 77.9924 89.8786 77.9832C89.8297 77.9664 88.6348 77.5931 87.8454 79.172C87.8423 79.1766 87.8408 79.1827 87.8377 79.1873C87.7933 79.2623 86.7362 81.0278 83.7528 80.3806C83.7191 80.373 83.687 80.3607 83.6595 80.3424C81.6216 79.0221 80.0075 80.4525 79.9402 80.5137C79.9112 80.5413 79.8744 80.5612 79.8362 80.5734C79.1982 80.7784 78.6398 80.8595 78.1579 80.8595V80.858ZM76.1154 79.4596C76.1934 79.5621 77.2017 80.8044 79.6098 80.0502C79.9356 79.7855 81.7471 78.4636 83.9211 79.8375C86.3873 80.3531 87.2732 79.0251 87.3451 78.9073C88.2707 77.0683 89.7486 77.3636 90.0194 77.4355C91.0108 77.5105 91.7528 77.3085 92.2255 76.8389C92.8742 76.1902 92.8038 75.2202 92.8038 75.211C92.8038 75.2018 92.8038 75.1927 92.8038 75.1835C92.8207 74.1263 93.1282 73.3032 93.7187 72.7371C94.5449 71.9446 95.6189 71.963 95.6617 71.9645C96.188 71.9737 96.5889 71.8284 96.8887 71.5117C97.3783 70.9945 97.4563 70.1592 97.4625 69.7629C93.9589 69.1984 92.3602 67.0963 91.8063 66.3497C88.234 70.3703 84.1353 72.1221 79.6235 71.5606C75.6197 71.0619 72.2401 68.8068 70.4532 67.3809C69.9911 68.1519 68.6142 70.4376 65.1489 71.3525C65.1948 71.7473 65.3539 72.5704 65.8925 73.037C66.2214 73.3216 66.636 73.4287 67.1592 73.3659C67.2036 73.3598 68.2669 73.2359 69.168 73.9442C69.8121 74.4491 70.1992 75.2386 70.3185 76.2881C70.3185 76.2973 70.3201 76.3065 70.3201 76.3172C70.3201 76.3263 70.3461 77.2994 71.0544 77.8792C71.57 78.3015 72.3273 78.4284 73.308 78.2571C73.5696 78.1592 75.0123 77.7186 76.1139 79.4596H76.1154Z" fill="black"/>
<path d="M68.4824 70.1368C68.4824 70.1368 69.7079 71.5964 70.4208 72.0033L71.6616 70.7519C71.6616 70.7519 70.4422 69.7467 69.87 68.9404L68.4809 70.1368H68.4824Z" fill="white"/>
<path d="M70.4209 72.2841C70.3735 72.2841 70.3245 72.2718 70.2817 72.2474C69.5336 71.8205 68.3188 70.3778 68.2668 70.3166C68.1674 70.1988 68.1811 70.0229 68.2989 69.9219L69.6881 68.7255C69.7478 68.6735 69.8273 68.649 69.9069 68.6597C69.9864 68.6689 70.0568 68.7117 70.1027 68.776C70.6458 69.5425 71.8315 70.5231 71.8438 70.5339C71.905 70.5843 71.9417 70.6578 71.9463 70.7373C71.9509 70.8169 71.9203 70.8934 71.8652 70.95L70.6244 72.2015C70.5693 72.2566 70.4974 72.2856 70.424 72.2856L70.4209 72.2841ZM68.8803 70.1651C69.2551 70.592 69.9115 71.2958 70.3827 71.64L71.2471 70.7679C70.9074 70.4727 70.2756 69.8974 69.8289 69.3482L68.8803 70.1651Z" fill="black"/>
<path d="M94.0246 68.8788C94.0246 68.8788 92.9475 70.4515 92.279 70.9273L90.9204 69.8044C90.9204 69.8044 92.0342 68.6845 92.5253 67.8262L94.0246 68.8803V68.8788Z" fill="white"/>
<path d="M92.2776 71.2105C92.2134 71.2105 92.1491 71.1891 92.0971 71.1462L90.7385 70.0217C90.6773 69.9713 90.6406 69.8978 90.636 69.8183C90.6315 69.7387 90.6621 69.6622 90.7171 69.6056C90.7278 69.5949 91.811 68.501 92.2761 67.6855C92.3159 67.6167 92.3817 67.5677 92.4597 67.5494C92.5377 67.5325 92.6188 67.5494 92.6831 67.5938L94.1824 68.6479C94.3094 68.7366 94.34 68.911 94.2528 69.038C94.2084 69.1038 93.139 70.6582 92.4368 71.1569C92.3878 71.1921 92.3312 71.209 92.2731 71.209L92.2776 71.2105ZM91.3337 69.7815L92.2792 70.5649C92.7137 70.1763 93.2981 69.4128 93.6301 68.9493L92.6066 68.2287C92.2165 68.8192 91.6427 69.4541 91.3337 69.7815Z" fill="black"/>
<path d="M83.9379 77.8373C83.9256 77.8373 83.9134 77.8357 83.9012 77.8327C83.8262 77.8128 83.7818 77.7363 83.8017 77.6613C84.5407 74.9136 82.5487 73.8549 82.4661 73.8151C82.4018 73.7983 82.3559 73.7386 82.3605 73.6682C82.3666 73.5917 82.4294 73.5321 82.5105 73.5397C82.6068 73.5474 83.1836 73.8625 83.6365 74.5021C84.0679 75.1094 84.4932 76.1651 84.071 77.7348C84.0542 77.7975 83.9975 77.8388 83.9364 77.8388L83.9379 77.8373Z" fill="black"/>
<path d="M86.5111 76.9605C86.482 76.9605 86.453 76.9513 86.427 76.933C84.9475 75.8238 84.6278 74.6702 84.6201 73.8991C84.614 73.2703 84.8159 72.7869 84.9032 72.718C84.9644 72.6706 85.0516 72.6813 85.099 72.7425C85.1403 72.7961 85.1372 72.8695 85.0959 72.9184C85.0516 73.0026 84.1565 74.8813 86.5937 76.7096C86.6549 76.7555 86.6687 76.8442 86.6213 76.9054C86.5937 76.9422 86.5524 76.962 86.5096 76.962L86.5111 76.9605Z" fill="black"/>
<path d="M89.2986 75.4283C89.2252 75.4283 89.164 75.3717 89.1594 75.2967C88.9758 72.4572 86.7498 72.0946 86.6595 72.0839C86.5922 72.0885 86.531 72.0456 86.5126 71.9798C86.4928 71.9049 86.5387 71.8284 86.6136 71.8085C86.7069 71.7855 87.3526 71.8972 87.9875 72.3562C88.5918 72.7938 89.3354 73.6551 89.4394 75.2784C89.444 75.3549 89.3858 75.4222 89.3093 75.4268C89.3063 75.4268 89.3032 75.4268 89.3002 75.4268L89.2986 75.4283Z" fill="black"/>
<path d="M91.4562 73.7718C91.4425 73.7718 91.4272 73.7703 91.4134 73.7642C89.6555 73.1889 88.9823 72.2006 88.7268 71.4724C88.5188 70.8788 88.5555 70.3555 88.6152 70.2622C88.658 70.1979 88.7437 70.1796 88.8095 70.2224C88.8661 70.2591 88.886 70.3295 88.863 70.3907C88.8477 70.484 88.6044 72.551 91.5006 73.4995C91.574 73.524 91.6138 73.602 91.5893 73.6755C91.5694 73.7351 91.5159 73.7718 91.4562 73.7718Z" fill="black"/>
<path d="M79.3727 78.0604C79.3161 78.0604 79.2625 78.0252 79.2411 77.9701C78.6674 76.4494 78.9872 75.3585 79.3559 74.7114C79.7445 74.0306 80.2876 73.6588 80.3824 73.6435C80.4589 73.6312 80.5308 73.6802 80.5446 73.7567C80.5569 73.824 80.5171 73.8898 80.4544 73.9127C80.3763 73.9602 78.4991 75.2101 79.5027 77.8707C79.5303 77.9426 79.4936 78.0237 79.4217 78.0512C79.4048 78.0573 79.388 78.0604 79.3727 78.0604Z" fill="black"/>
<path d="M76.7244 77.4422C76.6862 77.4422 76.6495 77.4269 76.6219 77.3963C76.5699 77.3397 76.573 77.251 76.6311 77.1989C78.8771 75.1397 77.8015 73.3588 77.7495 73.2793C77.7036 73.2334 77.6929 73.1615 77.7296 73.1049C77.7709 73.0391 77.8566 73.0207 77.9224 73.062C78.0157 73.1217 78.2651 73.5853 78.3202 74.211C78.3875 74.979 78.1825 76.1571 76.8193 77.4055C76.7918 77.43 76.7581 77.4422 76.7244 77.4422Z" fill="black"/>
<path d="M73.8006 76.1909C73.7256 76.1909 73.6629 76.1312 73.6614 76.0562C73.6063 74.4299 74.2611 73.4997 74.8195 73.0056C75.4055 72.4869 76.0373 72.3094 76.1322 72.3263C76.2087 72.3385 76.2607 72.4104 76.2485 72.4854C76.2378 72.5542 76.1796 72.6017 76.1123 72.6032C76.0236 72.6231 73.8434 73.2029 73.9398 76.0455C73.9429 76.1236 73.8817 76.1878 73.8052 76.1909C73.8036 76.1909 73.8021 76.1909 73.8006 76.1909Z" fill="black"/>
<path d="M71.4918 74.7538C71.4383 74.7538 71.3863 74.7232 71.3633 74.6696C71.3327 74.5992 71.3633 74.5166 71.4352 74.4845C74.2243 73.2575 73.7791 71.2242 73.7546 71.1324C73.7255 71.0743 73.7393 71.0024 73.7913 70.9611C73.851 70.9121 73.9397 70.9213 73.9887 70.9825C74.059 71.0682 74.1447 71.5868 73.9963 72.1973C73.8142 72.9469 73.2421 73.9964 71.5484 74.7415C71.5301 74.7492 71.5117 74.7538 71.4918 74.7538Z" fill="black"/>
<path d="M86.1396 75.5751C86.1396 75.5751 84.446 76.4502 83.6321 76.5512L82.9681 74.9187C82.9681 74.9187 84.4796 74.4598 85.318 73.9365L86.1396 75.5751Z" fill="white"/>
<path d="M83.6319 76.8332C83.5187 76.8332 83.4146 76.7643 83.3703 76.6572L82.7063 75.0248C82.6757 74.9513 82.6787 74.8687 82.7124 74.7968C82.7461 74.7249 82.8088 74.6714 82.8853 74.6484C82.9006 74.6438 84.3724 74.194 85.1679 73.6968C85.2352 73.6555 85.3179 73.6433 85.3944 73.6647C85.4709 73.6861 85.5351 73.7396 85.5703 73.81L86.3919 75.4486C86.4607 75.5863 86.4056 75.7545 86.2695 75.8265C86.1991 75.8632 84.5208 76.7261 83.6671 76.8316C83.6548 76.8316 83.6441 76.8332 83.6319 76.8332ZM83.3443 75.0936L83.8063 76.2304C84.3739 76.0942 85.249 75.6979 85.76 75.4486L85.2001 74.3302C84.5758 74.6653 83.7711 74.9529 83.3443 75.0936Z" fill="black"/>
<path d="M90.5564 72.4088C90.5564 72.4088 89.2086 73.7567 88.4635 74.1009L87.3359 72.7469C87.3359 72.7469 88.6379 71.8504 89.2774 71.0977L90.5579 72.4103L90.5564 72.4088Z" fill="white"/>
<path d="M88.4636 74.3842C88.3809 74.3842 88.3014 74.349 88.2463 74.2832L87.1188 72.9292C87.0683 72.868 87.0453 72.7885 87.056 72.7105C87.0667 72.6324 87.1096 72.562 87.1754 72.5162C87.1876 72.507 88.4544 71.6319 89.0618 70.9159C89.1138 70.8547 89.1872 70.8195 89.2668 70.8164C89.3433 70.8164 89.4228 70.844 89.4779 70.9021L90.7585 72.2148C90.8671 72.3249 90.8655 72.5024 90.7554 72.611C90.6988 72.6676 89.3632 73.9987 88.5814 74.3597C88.5431 74.3765 88.5033 74.3857 88.4636 74.3857V74.3842ZM87.7476 72.8007L88.5339 73.7447C89.0327 73.4433 89.7472 72.7992 90.1587 72.406L89.2851 71.5095C88.7925 72.0189 88.1117 72.5361 87.7491 72.8007H87.7476Z" fill="black"/>
<path d="M76.9875 76.0245C76.9875 76.0245 78.7591 76.7298 79.5792 76.7497L80.0795 75.0591C80.0795 75.0591 78.5296 74.7516 77.6438 74.3125L76.9875 76.0245Z" fill="white"/>
<path d="M79.5792 77.0332C79.5792 77.0332 79.5746 77.0332 79.5715 77.0332C78.7102 77.0118 76.9569 76.3172 76.8819 76.2881C76.7381 76.2315 76.6677 76.0694 76.7228 75.924L77.3791 74.212C77.4082 74.1371 77.4663 74.0789 77.5398 74.0499C77.6132 74.0208 77.6958 74.0239 77.7677 74.0606C78.6092 74.4767 80.1177 74.7796 80.133 74.7827C80.211 74.798 80.2783 74.8454 80.3196 74.9143C80.361 74.9816 80.3717 75.0642 80.3487 75.1407L79.8484 76.8313C79.8132 76.9521 79.7031 77.0332 79.5776 77.0332H79.5792ZM77.3516 75.8628C77.8855 76.0617 78.7958 76.3708 79.3726 76.4488L79.7215 75.2723C79.2824 75.1728 78.4531 74.9663 77.7999 74.6939L77.3516 75.8628Z" fill="black"/>
<path d="M72.2812 73.308C72.2812 73.308 73.7546 74.5182 74.5302 74.7859L75.5201 73.3279C75.5201 73.3279 74.137 72.5644 73.4256 71.876L72.2812 73.308Z" fill="white"/>
<path d="M74.5303 75.0694C74.4997 75.0694 74.4676 75.0648 74.4385 75.0541C73.6246 74.7726 72.1651 73.5778 72.1023 73.5273C71.983 73.4293 71.9646 73.2534 72.061 73.1325L73.2054 71.7005C73.2559 71.6378 73.3293 71.5996 73.4074 71.595C73.4869 71.5919 73.5649 71.6179 73.6215 71.6745C74.2962 72.3278 75.6426 73.0744 75.6563 73.0821C75.7252 73.1203 75.7757 73.1861 75.794 73.2641C75.8124 73.3406 75.7971 73.4232 75.7527 73.489L74.7629 74.947C74.7093 75.0266 74.6206 75.071 74.5288 75.071L74.5303 75.0694ZM72.6776 73.2641C73.1258 73.616 73.9 74.1867 74.4263 74.4376L75.1163 73.4217C74.7277 73.1937 74.001 72.7455 73.4609 72.2865L72.6791 73.2641H72.6776Z" fill="black"/>
<path d="M85.2355 23.3163C85.2355 23.3163 96.1194 20.6925 104.199 36.4354C104.199 36.4354 107.843 31.6009 113.886 35.7225C113.886 35.7225 115.78 37.1591 115.62 39.76C115.62 39.76 117.711 42.4588 119.691 39.584C119.691 39.584 119.627 42.24 117.341 42.318C117.341 42.318 119.105 43.8739 117.659 46.5957C117.659 46.5957 115.213 53.3136 107.32 51.369C107.32 51.369 112.522 47.6544 108.72 42.1482C108.72 42.1482 109.843 45.2065 106.241 47.8854C106.241 47.8854 109.928 43.2023 104.103 38.6875C104.103 38.6875 107.173 49.9416 96.4391 48.7284" fill="white"/>
<path d="M110.042 52.0268C109.196 52.0268 108.265 51.9182 107.246 51.6673C107.129 51.6382 107.04 51.5433 107.017 51.4255C106.994 51.3077 107.043 51.1868 107.141 51.1165C107.326 50.9834 111.304 48.0536 109.188 43.5632C109.18 43.7193 109.163 43.8845 109.137 44.0574C108.974 45.1176 108.371 46.6858 106.426 48.1316C106.303 48.2234 106.128 48.2096 106.021 48.0995C105.912 47.9878 105.905 47.8149 106 47.6925C106.012 47.6757 107.328 45.9652 107.045 43.6933C106.858 42.1985 106.036 40.7895 104.595 39.4967C104.895 41.1628 105.239 44.7688 103.253 47.0867C101.843 48.7329 99.5387 49.3877 96.4069 49.0342C96.2371 49.0159 96.1163 48.8629 96.1346 48.6931C96.153 48.5233 96.3075 48.4024 96.4758 48.4207C99.3918 48.7497 101.514 48.1668 102.784 46.6858C105.167 43.9059 103.821 38.8189 103.807 38.7669C103.772 38.6384 103.822 38.5022 103.934 38.4288C104.044 38.3554 104.19 38.36 104.295 38.441C106.296 39.9909 107.429 41.735 107.661 43.6244C107.797 44.7336 107.6 45.7113 107.331 46.4655C109.151 44.3404 108.47 42.3469 108.434 42.249C108.382 42.1037 108.444 41.94 108.584 41.8696C108.721 41.7992 108.89 41.8405 108.978 41.9675C112.17 46.5894 109.238 50.044 107.998 51.1976C110.891 51.7698 113.32 51.1976 115.228 49.4948C116.76 48.127 117.367 46.5022 117.373 46.4854C117.378 46.4716 117.384 46.4594 117.39 46.4472C118.698 43.987 117.203 42.6024 117.139 42.5443C117.046 42.4602 117.012 42.3271 117.055 42.2092C117.098 42.0914 117.208 42.0104 117.333 42.0058C118.404 41.9691 118.917 41.2775 119.162 40.6395C118.718 41.0067 118.244 41.1995 117.74 41.2133C117.72 41.2133 117.7 41.2133 117.682 41.2133C116.377 41.2133 115.419 39.997 115.38 39.945C115.334 39.8853 115.311 39.8119 115.315 39.7369C115.462 37.3839 113.837 36.0681 113.709 35.9687C107.995 32.0766 104.591 36.4292 104.448 36.6174C104.384 36.7015 104.28 36.7459 104.176 36.7382C104.07 36.7291 103.977 36.6663 103.928 36.5715C101.656 32.1454 97.6783 26.4189 91.6275 24.2724C88.0168 22.9919 85.3379 23.6054 85.3104 23.6115C85.1436 23.6513 84.9784 23.5488 84.9386 23.3835C84.8988 23.2183 85.0014 23.0515 85.1666 23.0117C85.2813 22.9842 88.0199 22.3493 91.7927 23.6757C97.8741 25.8146 101.909 31.4126 104.269 35.8907C105.307 34.8228 108.857 31.9113 114.064 35.4623C114.068 35.4653 114.071 35.4684 114.076 35.4715C114.157 35.5327 116.042 36.9922 115.936 39.6497C116.158 39.8991 116.873 40.6181 117.725 40.5952C118.331 40.5768 118.908 40.176 119.438 39.4049C119.516 39.2917 119.659 39.2443 119.787 39.2871C119.917 39.3299 120.005 39.4523 120 39.5885C119.979 40.5049 119.504 42.1679 117.928 42.5474C118.398 43.2435 119.007 44.6969 117.941 46.7195C117.86 46.9321 117.214 48.537 115.655 49.9384C114.507 50.9696 112.687 52.0253 110.042 52.0253V52.0268Z" fill="black"/>
<path d="M114.749 40.752C114.749 40.752 115.163 42.1993 117.264 42.34L114.749 40.752Z" fill="white"/>
<path d="M117.266 42.6475C117.266 42.6475 117.252 42.6475 117.244 42.6475C114.954 42.4946 114.472 40.9034 114.452 40.8361C114.405 40.6724 114.5 40.5011 114.663 40.4536C114.827 40.4062 114.997 40.5011 115.044 40.6632C115.061 40.7198 115.447 41.9071 117.284 42.0295C117.454 42.0402 117.582 42.1886 117.572 42.3584C117.561 42.5221 117.425 42.646 117.264 42.646L117.266 42.6475Z" fill="black"/>
<path d="M112.445 47.0967C112.445 47.0967 111.772 50.5038 108.941 51.561L112.445 47.0967Z" fill="white"/>
<path d="M108.942 51.8705C108.816 51.8705 108.699 51.794 108.653 51.6701C108.593 51.511 108.674 51.332 108.833 51.2723C111.463 50.2901 112.135 47.0696 112.141 47.0359C112.175 46.8692 112.337 46.7605 112.503 46.7942C112.67 46.8279 112.779 46.99 112.747 47.1568C112.718 47.3037 112.006 50.746 109.049 51.8506C109.014 51.8644 108.977 51.8705 108.94 51.8705H108.942Z" fill="black"/>
<path d="M71.2042 24.7752C71.2042 24.7752 60.5575 23.1994 54.2205 40.3728C54.2205 40.3728 49.9475 36.0844 44.5269 40.997C44.5269 40.997 42.8471 42.6799 43.3642 45.2349C43.3642 45.2349 41.6629 48.1953 39.3068 45.6189C39.3068 45.6189 39.7352 48.2412 42.0102 48.0041C42.0102 48.0041 40.4757 49.7879 42.2825 52.2848C42.2825 52.2848 45.6269 58.6034 53.1787 55.594C53.1787 55.594 47.5164 52.629 50.5273 46.6531C50.5273 46.6531 49.8342 49.8369 53.7707 51.9972C53.7707 51.9972 49.4747 47.8648 54.626 42.5942C54.626 42.5942 53.223 54.5934 63.6877 51.9176" fill="white"/>
<path d="M49.2926 56.7095C47.3083 56.7095 45.786 56.0394 44.7258 55.3234C42.9893 54.15 42.1295 52.6476 42.0209 52.4487C40.6868 50.5914 41.0907 49.0676 41.4609 48.3148C39.8499 48.1557 39.1507 46.5723 39.0039 45.6681C38.9825 45.5334 39.0513 45.4003 39.1737 45.3407C39.2976 45.281 39.4445 45.3101 39.5363 45.4095C40.1681 46.101 40.7939 46.4193 41.3982 46.3535C42.2427 46.2617 42.8547 45.4493 43.0398 45.1708C42.5717 42.5547 44.2377 40.8503 44.3097 40.7769C44.3127 40.7738 44.3173 40.7693 44.3204 40.7662C48.9973 36.5268 52.9201 38.9379 54.0859 39.8513C55.9463 34.9586 59.3106 28.718 64.9483 25.8571C68.4503 24.0808 71.1354 24.4511 71.2486 24.4679C71.4169 24.4924 71.5331 24.65 71.5087 24.8183C71.4842 24.9865 71.3251 25.1028 71.1583 25.0783C71.1094 25.0707 68.5054 24.7295 65.187 26.4277C62.0981 28.0082 57.7378 31.7274 54.5097 40.477C54.4729 40.5765 54.3888 40.6499 54.2863 40.6713C54.1838 40.6943 54.0767 40.6622 54.0017 40.5872C53.835 40.422 49.8663 36.5757 44.7411 41.216C44.6309 41.3292 43.1989 42.8561 43.6671 45.1693C43.6824 45.2428 43.6701 45.3193 43.6319 45.385C43.5982 45.4432 42.7935 46.8186 41.4671 46.9654C40.9668 47.0221 40.4695 46.8951 39.98 46.5922C40.3104 47.1904 40.9132 47.8069 41.9781 47.6937C42.1035 47.6815 42.2244 47.7457 42.284 47.8574C42.3422 47.9691 42.3269 48.1053 42.2443 48.2016C42.1892 48.2659 40.8995 49.8432 42.5334 52.0999C42.5411 52.1121 42.5487 52.1244 42.5564 52.1366C42.564 52.1519 43.3902 53.6788 45.0945 54.8232C47.218 56.249 49.7042 56.4816 52.4902 55.5177C51.1025 54.5447 47.7245 51.5277 50.2519 46.5095C50.3223 46.3703 50.4844 46.3061 50.6313 46.3581C50.7782 46.4101 50.8623 46.5631 50.8302 46.7146C50.8088 46.8155 50.4079 48.884 52.5024 50.7382C52.1322 50.0284 51.8017 49.0875 51.7849 47.9691C51.7558 46.0659 52.637 44.1825 54.4056 42.3726C54.4974 42.2778 54.6397 42.2533 54.759 42.3099C54.8784 42.3665 54.9488 42.4935 54.9335 42.6235C54.9319 42.6373 54.7728 44.0509 54.9794 45.7629C55.1675 47.3143 55.7061 49.4393 57.2008 50.7444C58.6741 52.031 60.8313 52.3232 63.6127 51.6118C63.7795 51.5705 63.9462 51.67 63.9891 51.8352C64.0319 52.0004 63.931 52.1687 63.7657 52.2116C60.7747 52.9765 58.4278 52.6384 56.7938 51.2095C54.372 49.092 54.2022 45.206 54.2618 43.4497C53.0073 44.9306 52.3831 46.4422 52.403 47.9523C52.4351 50.241 53.9711 51.7556 53.9864 51.7709C54.0981 51.878 54.1119 52.0509 54.0201 52.1764C53.9283 52.3003 53.7585 52.3385 53.6238 52.2636C51.4988 51.0978 50.6864 49.6275 50.3789 48.5994C50.3284 48.4311 50.2901 48.2705 50.2611 48.1175C48.7801 52.8557 53.1236 55.2118 53.3255 55.3173C53.4326 55.3739 53.4969 55.4871 53.4907 55.6065C53.4846 55.7273 53.4081 55.8329 53.2964 55.8773C51.8017 56.4724 50.4676 56.7065 49.2957 56.7065L49.2926 56.7095Z" fill="black"/>
<path d="M44.3633 46.0967C44.3633 46.0967 44.1521 47.5868 42.0898 48.0152L44.3633 46.0967Z" fill="white"/>
<path d="M42.0897 48.3244C41.9458 48.3244 41.8173 48.2234 41.7883 48.0781C41.7531 47.9113 41.8602 47.7476 42.0285 47.714C43.8353 47.3391 44.051 46.1045 44.0602 46.0525C44.0862 45.8857 44.2438 45.771 44.4106 45.7939C44.5788 45.8199 44.6936 45.9729 44.6706 46.1412C44.6615 46.2116 44.4029 47.8517 42.1539 48.3183C42.1325 48.3229 42.1111 48.3244 42.0912 48.3244H42.0897Z" fill="black"/>
<path d="M47.5166 52.0693C47.5166 52.0693 48.6518 55.3526 51.5984 56.0104L47.5166 52.0693Z" fill="white"/>
<path d="M51.5998 56.319C51.5769 56.319 51.5554 56.3159 51.5325 56.3113C48.4512 55.6228 47.2747 52.309 47.2257 52.1698C47.1707 52.0092 47.2563 51.8332 47.417 51.7766C47.5776 51.7215 47.7536 51.8057 47.8102 51.9679C47.8224 52.0046 48.9301 55.0981 51.6686 55.71C51.8354 55.7468 51.9394 55.912 51.9027 56.0788C51.8706 56.2226 51.7436 56.3205 51.6013 56.3205L51.5998 56.319Z" fill="black"/>
<path d="M91.5538 11.5939C91.5538 11.5939 91.0077 11.7163 89.6996 11.9275C89.6996 11.9275 91.1928 14.0342 89.4349 15.2612C89.4349 15.2612 86.2358 12.362 84.1857 17.9049C84.1857 17.9049 86.2634 20.6955 83.8736 23.3086L82.9067 23.1464C82.9067 23.1464 74.1234 21.9898 75.2158 13.7404C75.2158 13.7404 76.299 4.69703 87.0329 8.05827C87.0329 8.05827 89.9551 8.82018 91.0276 6.30957C91.0276 6.30957 92.1 8.13171 89.6674 9.86205C89.6674 9.86205 90.8409 9.95385 91.5538 11.5939Z" fill="white"/>
<path d="M83.8722 23.6162C83.8554 23.6162 83.8386 23.6162 83.8217 23.6116L82.8548 23.4495C82.7722 23.4388 80.5768 23.1374 78.4838 21.7956C76.5301 20.5426 74.3224 18.1207 74.9084 13.6993C74.9252 13.5554 75.3735 10.081 78.314 8.17928C80.5079 6.76104 83.4683 6.62029 87.1172 7.76009C87.2977 7.80598 89.8053 8.38429 90.7446 6.18732C90.7905 6.08022 90.893 6.00832 91.0093 6.00067C91.1225 5.99302 91.2357 6.05116 91.2954 6.15213C91.3061 6.17202 92.3327 7.98039 90.3147 9.74593C90.7737 9.9693 91.3933 10.4466 91.8385 11.4702C91.8752 11.5543 91.8722 11.6507 91.8309 11.7333C91.7896 11.8159 91.7131 11.8741 91.6228 11.8955C91.6029 11.9001 91.1776 11.9949 90.1939 12.1586C90.4172 12.5977 90.6972 13.3321 90.5672 14.0833C90.4662 14.6616 90.1449 15.142 89.6125 15.5137C89.4947 15.5964 89.3356 15.5857 89.2285 15.4893C89.2193 15.4801 88.1988 14.5805 87.0315 14.8696C86.0416 15.1144 85.2002 16.1227 84.5316 17.8652C84.9294 18.5002 86.317 21.0949 84.1017 23.5168C84.0436 23.581 83.9594 23.6178 83.8737 23.6178L83.8722 23.6162ZM82.6605 7.6178C81.1061 7.6178 79.7674 7.97733 78.6552 8.69487C75.9579 10.4359 75.5265 13.7436 75.5219 13.7773C75.0859 17.0651 76.1889 19.5833 78.8005 21.2663C80.7787 22.5407 82.9252 22.8375 82.9466 22.8406L83.7559 22.9752C85.7678 20.6237 84.0145 18.1911 83.938 18.0871C83.8768 18.0029 83.86 17.8943 83.8967 17.7964C84.6509 15.757 85.6576 14.5698 86.8892 14.2684C88.0382 13.9869 89.025 14.5682 89.4366 14.8696C89.7242 14.6203 89.8955 14.3281 89.9567 13.9808C90.1174 13.072 89.4534 12.1158 89.4473 12.1066C89.3861 12.0194 89.3738 11.9062 89.4151 11.8083C89.4564 11.7104 89.5452 11.64 89.6507 11.6231C90.33 11.5145 90.8043 11.4288 91.1011 11.3722C90.4876 10.2692 89.6783 10.1758 89.6416 10.1712C89.513 10.159 89.406 10.0672 89.3723 9.94329C89.3402 9.81937 89.3845 9.68779 89.4901 9.61282C90.4188 8.9519 90.9114 8.216 90.9527 7.42197C90.9588 7.30569 90.9542 7.1986 90.9435 7.09916C89.5926 9.01615 86.9841 8.36593 86.955 8.35828C85.3792 7.86565 83.9457 7.61934 82.6605 7.61934V7.6178Z" fill="black"/>
<path d="M77.2964 20.0167C77.2964 20.0167 74.4415 16.4795 70.7743 18.0813C70.7743 18.0813 68.6538 18.6857 70.1639 21.7577C70.1639 21.7577 71.1369 23.0046 70.5754 24.4795C70.5754 24.4795 69.6391 26.9029 72.1956 28.009C72.1956 28.009 76.3983 29.1809 78.5356 23.8614C78.5356 23.8614 79.2868 21.5742 77.2964 20.0152V20.0167Z" fill="#F3A7B9"/>
<path d="M73.1672 28.4193C72.5384 28.4193 72.1269 28.3107 72.1131 28.3077C72.0993 28.3046 72.0871 28.2985 72.0733 28.2939C69.2766 27.0837 70.2772 24.3972 70.2879 24.3696C70.776 23.083 69.9544 21.9937 69.9192 21.9478C69.907 21.9309 69.8947 21.9126 69.8855 21.8942C69.2828 20.6672 69.1527 19.6468 69.5015 18.8634C69.8427 18.0969 70.5266 17.8369 70.6643 17.7925C74.3131 16.2121 77.2154 19.4494 77.5107 19.7936C79.6159 21.4658 78.8356 23.9336 78.828 23.9581C78.8264 23.9642 78.8234 23.9703 78.8218 23.9764C77.2736 27.8319 74.6298 28.4178 73.1672 28.4178V28.4193ZM72.2982 27.7171C72.6287 27.8013 76.2913 28.606 78.2451 23.7577C78.2955 23.594 78.857 21.6295 77.1068 20.2587C77.0884 20.245 77.0716 20.2281 77.0563 20.2098C77.0471 20.1991 76.351 19.3499 75.2387 18.7043C73.7777 17.8583 72.3181 17.7435 70.8984 18.3632C70.8861 18.3693 70.8723 18.3739 70.8601 18.3769C70.8402 18.383 70.3139 18.5467 70.063 19.122C69.8045 19.7171 69.9299 20.5708 70.4287 21.5944C70.5817 21.804 71.4384 23.0769 70.8647 24.5884C70.831 24.6772 70.0783 26.7395 72.2982 27.7156V27.7171Z" fill="black"/>
<path d="M80.9946 19.7229C80.9946 19.7229 83.2559 15.7803 87.1281 16.7808C87.1281 16.7808 89.3174 17.044 88.3123 20.3149C88.3123 20.3149 87.5488 21.7011 88.3352 23.0673C88.3352 23.0673 89.6433 25.3117 87.2933 26.808C87.2933 26.808 83.3278 28.6286 80.3781 23.7144C80.3781 23.7144 79.275 21.5741 80.9946 19.7213V19.7229Z" fill="#F3A7B9"/>
<path d="M85.5305 27.4358C84.022 27.4358 81.8771 26.81 80.1146 23.8741C80.1115 23.868 80.1085 23.8619 80.1054 23.8573C80.0932 23.8343 78.9335 21.5195 80.748 19.5368C80.9851 19.1497 83.3397 15.4932 87.192 16.4784C87.3359 16.5014 88.0519 16.6498 88.5108 17.352C88.979 18.0711 89.0111 19.0977 88.6103 20.4058C88.6042 20.4256 88.5965 20.4455 88.5858 20.4639C88.5583 20.5144 87.9188 21.72 88.6057 22.9148C88.6195 22.9378 90.0316 25.4331 87.4613 27.0701C87.4491 27.0778 87.4368 27.0839 87.4246 27.09C87.4062 27.0976 86.6413 27.4358 85.5321 27.4358H85.5305ZM80.6501 23.5666C83.3427 28.0416 86.831 26.6723 87.1477 26.5362C89.1871 25.222 88.1161 23.3034 88.0702 23.2223C87.2639 21.8209 87.9096 20.4272 88.0274 20.1962C88.3594 19.1007 88.3471 18.2333 87.9922 17.6886C87.6541 17.1669 87.0987 17.0873 87.0926 17.0873C87.0788 17.0858 87.0651 17.0828 87.0528 17.0797C85.5535 16.6926 84.1291 17.0353 82.821 18.1032C81.822 18.9171 81.2697 19.8672 81.2636 19.8764C81.2513 19.8963 81.2376 19.9162 81.2223 19.933C79.7122 21.5608 80.5736 23.409 80.6501 23.5666Z" fill="black"/>
<path d="M79.4047 25.7463C81.123 25.6096 82.3963 23.9952 82.2487 22.1404C82.1011 20.2857 80.5885 18.893 78.8702 19.0298C77.152 19.1665 75.8787 20.7809 76.0263 22.6356C76.1739 24.4904 77.6865 25.883 79.4047 25.7463Z" fill="#F3A7B9"/>
<path d="M79.1615 26.0687C77.3837 26.0687 75.8599 24.5939 75.7069 22.6646C75.6289 21.6901 75.9089 20.7446 76.4948 20.001C77.0854 19.2514 77.9161 18.7985 78.8341 18.7266C79.7505 18.6516 80.644 18.9699 81.3462 19.6155C82.0423 20.2565 82.4676 21.1454 82.5441 22.12C82.7048 24.141 81.3018 25.9081 79.417 26.058C79.3313 26.0641 79.2456 26.0687 79.1615 26.0687ZM79.0926 19.334C79.0238 19.334 78.9534 19.337 78.883 19.3416C78.138 19.4013 77.4617 19.7715 76.9783 20.3835C76.4887 21.0031 76.2562 21.7956 76.3204 22.6157C76.4535 24.2986 77.8197 25.5638 79.3665 25.443C80.9132 25.3206 82.0622 23.8518 81.9276 22.1689C81.8618 21.3489 81.5069 20.6038 80.9255 20.0683C80.4053 19.5895 79.7597 19.3325 79.0896 19.3325L79.0926 19.334Z" fill="black"/>
<path d="M85.0931 49.1663C87.1707 50.817 89.0357 49.7874 89.0357 49.7874C91.2602 48.8251 91.0812 46.0253 91.0812 46.0253C90.9466 44.0808 89.7517 43.2776 89.7517 43.2776C88.5018 42.277 86.9504 42.5111 86.9504 42.5111C85.6515 42.6136 84.7749 43.5346 84.7749 43.5346C83.6779 44.5275 83.9135 46.5287 83.9135 46.5287C83.9854 48.4288 85.0931 49.1678 85.0931 49.1678V49.1663Z" fill="white"/>
<path d="M86.6827 43.2642C86.6827 43.2642 87.7108 43.0072 88.5355 43.7155C88.5355 43.7155 89.637 44.4132 89.6875 46.4832C89.6875 46.4832 89.7977 48.6954 87.6971 49.3319C87.6971 49.3319 85.8734 49.9026 84.6877 47.8999C84.6877 47.8999 84.0176 46.6285 84.5362 44.9456C84.5362 44.9456 84.9922 43.4493 86.6827 43.2642Z" fill="black"/>
<path d="M87.8087 44.4026C87.8087 44.4026 88.1866 44.6718 88.1529 45.0268C88.1529 45.0268 88.1728 45.5454 87.6863 45.6892C87.6863 45.6892 87.0881 45.856 86.7698 45.1905C86.7698 45.1905 86.5755 44.7284 86.9611 44.4071C86.9611 44.4071 87.3635 44.095 87.8087 44.401V44.4026Z" fill="white"/>
<path d="M86.7717 43.9348C86.7717 43.9348 87.1083 43.9501 87.2291 44.1796C87.2291 44.1796 87.4464 44.4886 87.2062 44.7701C87.2062 44.7701 86.9063 45.1083 86.4489 44.8283C86.4489 44.8283 86.1475 44.6233 86.2561 44.2744C86.2561 44.2744 86.3785 43.9241 86.7717 43.9348Z" fill="white"/>
<path d="M85.4984 44.6841C85.4984 44.6841 85.6897 44.8203 85.6713 44.9993C85.6713 44.9993 85.682 45.2609 85.4357 45.3343C85.4357 45.3343 85.1343 45.4185 84.9721 45.0819C84.9721 45.0819 84.8742 44.8478 85.0685 44.6872C85.0685 44.6872 85.272 44.5296 85.4969 44.6841H85.4984Z" fill="white"/>
<path d="M87.2501 45.9961C87.2501 45.9961 87.9416 46.4888 87.8804 47.1405C87.8804 47.1405 87.9186 48.0906 87.0252 48.3553C87.0252 48.3553 85.9297 48.6613 85.3453 47.4419C85.3453 47.4419 84.9888 46.5943 85.6957 46.0068C85.6957 46.0068 86.4316 45.4362 87.2501 45.9961Z" fill="white"/>
<path d="M88.3869 45.5723C88.3869 45.5723 88.4726 46.1521 88.956 46.1888C88.956 46.1888 88.4267 46.3143 88.4863 46.8589C88.4863 46.8589 88.2813 46.2791 87.8545 46.2791C87.8545 46.2791 88.3854 46.2883 88.3869 45.5723Z" fill="white"/>
<path d="M90.189 44.1251C90.4751 44.5535 90.7627 45.19 90.8239 46.0758C90.8239 46.0758 91.3823 49.2106 88.3102 49.9312C88.3102 49.9312 85.9603 48.747 84.796 48.7302C84.796 48.7302 84.0693 48.3814 84.0004 46.5531C84.0004 46.5531 83.774 44.6285 84.8174 43.6738C84.8174 43.6738 85.4998 42.9532 86.5432 42.7421C86.4024 42.6105 86.2831 42.4759 86.1806 42.3428C84.2896 42.8675 83.7786 44.4862 83.7786 44.4862C82.9815 47.0626 84.2651 48.7669 84.2651 48.7669C85.6375 48.8113 88.5244 50.251 88.5244 50.251C91.0656 49.5885 91.364 47.2905 91.364 47.2905C91.5491 45.7759 91.2248 44.7494 90.9203 44.1557C90.6633 44.1557 90.4154 44.142 90.189 44.1236V44.1251Z" fill="black"/>
<path d="M86.0675 40.7333C86.0675 40.7333 85.7462 40.3845 85.5794 40.822C85.5794 40.822 85.5702 41.5564 86.1807 42.3443C86.3842 42.2877 86.6029 42.2449 86.8385 42.2173C86.5234 41.8609 86.2312 41.3805 86.0675 40.7348V40.7333Z" fill="black"/>
<path d="M92.8664 43.7689C92.8664 43.7689 91.9271 43.8867 90.6771 43.749C90.749 43.85 90.8347 43.9862 90.9219 44.156C91.6119 44.1575 92.3554 44.0734 92.8664 43.7689Z" fill="black"/>
<path d="M89.7622 43.608C89.2527 43.5055 88.7203 43.3541 88.1971 43.1353C88.1971 43.1353 87.7963 43.0205 87.3312 42.6702C87.0604 42.6671 86.8875 42.6916 86.8875 42.6916C86.7681 42.7008 86.6549 42.7191 86.5432 42.7421C87.0695 43.2378 87.8819 43.709 89.1411 43.9875C89.1411 43.9875 89.5847 44.0762 90.1891 44.1251C90.033 43.8926 89.88 43.7212 89.7622 43.608Z" fill="black"/>
<path d="M90.1893 44.1255C90.4157 44.1439 90.6636 44.1561 90.9206 44.1576C90.8334 43.9863 90.7477 43.8501 90.6758 43.7507C90.3851 43.7186 90.0776 43.6727 89.7624 43.6084C89.8802 43.7216 90.0332 43.893 90.1893 44.1255Z" fill="black"/>
<path d="M86.5435 42.7421C86.6551 42.7192 86.7684 42.7008 86.8877 42.6916C86.8877 42.6916 87.0606 42.6671 87.3314 42.6702C87.1707 42.5493 87.0024 42.3994 86.8403 42.2158C86.6047 42.2434 86.3843 42.2877 86.1824 42.3428C86.2849 42.4759 86.4058 42.609 86.545 42.7421H86.5435Z" fill="black"/>
<path d="M72.6608 44.3671C72.6608 44.3671 71.6082 44.2585 70.8907 45.0739C70.8907 45.0739 69.8993 45.92 70.1395 47.9777C70.1395 47.9777 70.343 50.1824 72.5109 50.5174C72.5109 50.5174 74.3957 50.8249 75.2892 48.6754C75.2892 48.6754 75.7727 47.3229 75.023 45.7287C75.023 45.7287 74.3605 44.3105 72.6608 44.3671Z" fill="black"/>
<path d="M71.706 45.6532C71.706 45.6532 71.3695 45.973 71.4536 46.3202C71.4536 46.3202 71.5056 46.8358 72.009 46.9108C72.009 46.9108 72.624 46.9919 72.8458 46.2881C72.8458 46.2881 72.9728 45.8031 72.546 45.54C72.546 45.54 72.1038 45.2875 71.706 45.6532Z" fill="white"/>
<path d="M72.6669 45.0443C72.6669 45.0443 72.3349 45.107 72.2492 45.3518C72.2492 45.3518 72.0763 45.6884 72.3547 45.9332C72.3547 45.9332 72.699 46.2269 73.1136 45.8842C73.1136 45.8842 73.3844 45.6379 73.2268 45.309C73.2268 45.309 73.057 44.98 72.6684 45.0458L72.6669 45.0443Z" fill="white"/>
<path d="M74.0332 45.6055C74.0332 45.6055 73.8634 45.7661 73.9062 45.9421C73.9062 45.9421 73.9322 46.2022 74.1862 46.2404C74.1862 46.2404 74.4968 46.2817 74.6085 45.9253C74.6085 45.9253 74.6727 45.6805 74.457 45.5474C74.457 45.5474 74.2336 45.4204 74.0317 45.6055H74.0332Z" fill="white"/>
<path d="M72.4834 47.1514C72.4834 47.1514 71.8684 47.7374 72.0214 48.3723C72.0214 48.3723 72.1178 49.3178 73.0388 49.4555C73.0388 49.4555 74.1663 49.6039 74.5733 48.3141C74.5733 48.3141 74.8074 47.4253 74.024 46.9433C74.024 46.9433 73.2147 46.4813 72.4834 47.1514Z" fill="white"/>
<path d="M71.2992 46.8916C71.2992 46.8916 71.2962 47.4776 70.8234 47.5831C70.8234 47.5831 71.365 47.6321 71.3834 48.1798C71.3834 48.1798 71.5058 47.577 71.9265 47.5174C71.9265 47.5174 71.4017 47.6015 71.2992 46.8916Z" fill="white"/>
<path d="M69.3101 45.7143C69.0883 46.1779 68.8924 46.8495 68.9567 47.7353C68.9567 47.7353 68.845 50.9176 71.989 51.1975C71.989 51.1975 74.1477 49.6936 75.2982 49.5131C75.2982 49.5131 75.9683 49.0648 75.7786 47.2458C75.7786 47.2458 75.7312 45.3089 74.5639 44.5102C74.5639 44.5102 73.7867 43.8922 72.7234 43.831C72.8442 43.6795 72.9437 43.5311 73.0263 43.3857C74.9723 43.6382 75.7067 45.1696 75.7067 45.1696C76.8587 47.6068 75.8291 49.4764 75.8291 49.4764C74.4766 49.7135 71.8222 51.5464 71.8222 51.5464C69.2122 51.248 68.5926 49.0159 68.5926 49.0159C68.1963 47.5425 68.3722 46.4808 68.5895 45.8489C68.8435 45.8122 69.0867 45.7648 69.3086 45.7143H69.3101Z" fill="black"/>
<path d="M72.9117 41.7751C72.9117 41.7751 73.1795 41.3849 73.4074 41.795C73.4074 41.795 73.5191 42.5201 73.0265 43.3861C72.8169 43.3585 72.5951 43.3463 72.3564 43.3524C72.6195 42.9562 72.8398 42.4375 72.9102 41.7751H72.9117Z" fill="black"/>
<path d="M66.61 45.7381C66.61 45.7381 67.557 45.7228 68.7749 45.4092C68.7183 45.5193 68.6525 45.6662 68.5897 45.8467C67.9074 45.9462 67.1577 45.9661 66.61 45.7366V45.7381Z" fill="black"/>
<path d="M69.659 45.1406C70.1486 44.9662 70.655 44.7428 71.143 44.4521C71.143 44.4521 71.524 44.2823 71.9355 43.8692C72.2033 43.8279 72.3777 43.8279 72.3777 43.8279C72.497 43.8203 72.6118 43.8233 72.725 43.8279C72.2737 44.3924 71.5362 44.9738 70.3291 45.4267C70.3291 45.4267 69.9023 45.5766 69.3102 45.7112C69.4311 45.4588 69.5596 45.2676 69.6606 45.139L69.659 45.1406Z" fill="black"/>
<path d="M69.3101 45.7138C69.0883 45.7643 68.845 45.8117 68.591 45.8484C68.6538 45.6664 68.7195 45.5195 68.7762 45.4109C69.0592 45.339 69.356 45.2487 69.6605 45.1416C69.5595 45.2701 69.4325 45.4614 69.3101 45.7138Z" fill="black"/>
<path d="M72.7235 43.8314C72.6103 43.8253 72.4955 43.8222 72.3762 43.8314C72.3762 43.8314 72.2018 43.8314 71.9341 43.8727C72.0763 43.7304 72.2217 43.5576 72.3563 43.3541C72.5935 43.348 72.8168 43.3602 73.0264 43.3877C72.9438 43.5331 72.8428 43.683 72.7235 43.8329V43.8314Z" fill="black"/>
<path d="M77.2154 50.8767C78.1946 50.277 80.1468 49.4661 82.5579 50.4712C82.9817 50.6487 82.9664 51.2638 82.7415 51.6371C82.5197 52.0058 81.8817 52.7202 80.7434 53.0339C80.1911 53.1853 79.5929 53.1823 79.0513 53.0492C78.4287 52.8962 77.5581 52.5963 77.2185 52.07C76.9844 51.7105 76.8177 51.1215 77.2154 50.8782V50.8767Z" fill="#303030"/>
<path d="M79.876 53.3805C79.5808 53.3805 79.2824 53.3453 78.9963 53.2749C78.3048 53.1051 77.4006 52.7792 77.0227 52.1963C76.8437 51.9225 76.6831 51.5002 76.7642 51.1407C76.8085 50.9418 76.9233 50.7827 77.0946 50.6771C78.0876 50.0682 80.1285 49.2038 82.6483 50.2548C82.8563 50.342 83.0063 50.5073 83.0812 50.7337C83.1837 51.0458 83.1287 51.4467 82.9435 51.7557C82.8334 51.9393 82.2138 52.871 80.8062 53.2581C80.511 53.3392 80.1958 53.3805 79.8776 53.3805H79.876ZM77.3379 51.0749C77.2736 51.1131 77.2369 51.1667 77.2201 51.2432C77.1742 51.4467 77.2843 51.7404 77.4144 51.9408C77.6439 52.2958 78.2451 52.6079 79.108 52.8205C79.6267 52.949 80.1866 52.9445 80.6823 52.8068C81.943 52.4595 82.4846 51.6104 82.5427 51.514C82.6574 51.3227 82.6972 51.0611 82.6376 50.8791C82.6054 50.7827 82.5503 50.7199 82.4693 50.6848C80.1422 49.7148 78.2558 50.5119 77.3394 51.0734L77.3379 51.0749Z" fill="black"/>
<path d="M75.2509 51.0912C75.2509 51.0912 78.9625 47.5356 84.7563 50.3354C84.7563 50.3354 79.7596 47.935 75.2509 51.0912Z" fill="black"/>
<path d="M81.6758 51.7831C82.1298 51.7469 82.4764 51.4473 82.4498 51.1137C82.4233 50.7802 82.0337 50.5391 81.5797 50.5752C81.1257 50.6113 80.7792 50.911 80.8058 51.2446C80.8323 51.5781 81.2219 51.8192 81.6758 51.7831Z" fill="white"/>
<path d="M75.9685 21.9285C75.8966 21.9285 75.8247 21.8979 75.7742 21.8398C75.2785 21.2599 74.7935 20.9539 74.3758 20.9539C74.0148 20.9539 73.8113 21.1819 73.8098 21.1834C73.718 21.2905 73.5558 21.3043 73.4487 21.2125C73.3416 21.1207 73.3278 20.9585 73.4196 20.8514C73.4334 20.8346 73.7746 20.4429 74.3758 20.4414C74.9572 20.4414 75.5585 20.7994 76.1643 21.5062C76.2561 21.6133 76.2439 21.7755 76.1368 21.8673C76.0878 21.9086 76.0297 21.9285 75.97 21.9285H75.9685Z" fill="black"/>
<path d="M82.1755 21.4365C82.1296 21.4365 82.0837 21.4243 82.0424 21.3982C81.9215 21.3248 81.8833 21.1672 81.9582 21.0464C82.4448 20.2523 82.9818 19.8041 83.557 19.7123C84.1491 19.6174 84.5484 19.9509 84.5652 19.9662C84.6723 20.058 84.6861 20.2202 84.5943 20.3273C84.504 20.4344 84.3434 20.4482 84.2348 20.3579C84.221 20.3472 83.9823 20.159 83.6274 20.2202C83.2158 20.2906 82.7905 20.6685 82.3943 21.3141C82.3453 21.3937 82.2612 21.4365 82.1755 21.4365Z" fill="black"/>
<path d="M74.5122 24.8574C74.0379 24.8574 73.7288 24.6004 73.7135 24.5866C73.6064 24.4948 73.5927 24.3327 73.6845 24.2256C73.7763 24.1185 73.9354 24.1047 74.044 24.195C74.0578 24.2057 74.2964 24.3923 74.6514 24.3327C75.0629 24.2623 75.4883 23.8844 75.8845 23.2388C75.9579 23.1179 76.1155 23.0797 76.2364 23.1546C76.3572 23.2281 76.3955 23.3857 76.3205 23.5065C75.834 24.3005 75.297 24.7488 74.7218 24.8406C74.6483 24.8529 74.5779 24.8574 74.5122 24.8574Z" fill="black"/>
<path d="M83.9044 24.1115C83.323 24.1115 82.7217 23.7535 82.1159 23.0466C82.0241 22.9395 82.0363 22.7774 82.1434 22.6856C82.2505 22.5938 82.4127 22.606 82.5045 22.7131C83.0002 23.293 83.4852 23.599 83.9028 23.599C84.2639 23.599 84.4674 23.371 84.4689 23.3695C84.5607 23.2624 84.7229 23.2486 84.83 23.3404C84.9371 23.4322 84.9508 23.5944 84.859 23.7015C84.8453 23.7183 84.5041 24.1099 83.9028 24.1115H83.9044Z" fill="black"/>
<path d="M103.455 35.524C103.455 35.524 104.776 34.3857 105.649 36.1252C105.649 36.1252 106.475 37.9673 105.085 39.4819C105.085 39.4819 103.852 39.9776 103.989 38.694C103.989 38.694 104.207 36.7693 103.455 35.524Z" fill="#F3A7B9"/>
<path d="M104.6 39.8852C104.405 39.8852 104.194 39.8424 104.017 39.7093C103.743 39.5027 103.63 39.1493 103.682 38.6628C103.683 38.6429 103.877 36.8223 103.19 35.684C103.112 35.5555 103.14 35.3888 103.253 35.2908C103.281 35.2679 103.92 34.7248 104.679 34.8762C105.186 34.9772 105.605 35.3505 105.924 35.987C105.967 36.0818 106.821 38.0462 105.311 39.6909C105.28 39.7246 105.242 39.7521 105.199 39.7689C105.155 39.7873 104.896 39.8852 104.598 39.8852H104.6ZM103.859 35.6244C104.489 36.9279 104.304 38.6521 104.295 38.7301C104.269 38.9764 104.301 39.1508 104.388 39.2166C104.505 39.3054 104.76 39.2625 104.909 39.2166C106.07 37.8871 105.397 36.3174 105.368 36.2501C105.146 35.808 104.872 35.5448 104.563 35.4821C104.294 35.427 104.032 35.528 103.859 35.6228V35.6244Z" fill="black"/>
<path d="M54.7595 39.3946C54.7595 39.3946 53.2754 38.4797 52.6879 40.334C52.6879 40.334 52.1632 42.2831 53.7757 43.5606C53.7757 43.5606 55.0716 43.8559 54.7335 42.6105C54.7335 42.6105 54.2148 40.744 54.7595 39.3962V39.3946Z" fill="#F3A7B9"/>
<path d="M54.0768 43.8995C53.8886 43.8995 53.7402 43.8689 53.7066 43.8613C53.6622 43.8506 53.6194 43.8307 53.5842 43.8016C51.8324 42.4155 52.3663 40.3409 52.3893 40.2537C52.6081 39.5622 52.963 39.1277 53.4465 38.9471C54.1732 38.6779 54.8907 39.1124 54.9213 39.1307C55.0498 39.2103 55.1018 39.3694 55.0452 39.5086C54.5465 40.7418 55.0254 42.5073 55.0299 42.5256C55.1585 42.9999 55.1034 43.3656 54.8647 43.6134C54.6429 43.8444 54.3231 43.898 54.0753 43.898L54.0768 43.8995ZM53.9085 43.2707C54.0615 43.2921 54.3201 43.2937 54.421 43.1866C54.496 43.1085 54.5006 42.9311 54.4348 42.6893C54.4149 42.6159 53.959 40.9422 54.3751 39.5561C54.19 39.4887 53.9162 39.4306 53.6591 39.527C53.3639 39.6387 53.1359 39.9416 52.9814 40.4266C52.9676 40.4832 52.5515 42.1401 53.907 43.2692L53.9085 43.2707Z" fill="black"/>
<path d="M64.5629 46.7568C64.5629 46.7568 63.1798 45.7011 61.5397 46.7323L62.574 47.7359C62.574 47.7359 61.3103 47.1745 59.8431 48.7212L60.328 49.1603C60.328 49.1603 56.6685 49.7952 55.9111 53.5925C55.9111 53.5925 56.1575 55.0306 57.4686 55.1913C57.4686 55.1913 56.5858 55.4207 55.9785 56.4489C55.9785 56.4489 57.363 66.196 65.3324 66.1195C65.3324 66.1195 64.6256 66.8906 63.7627 67.039C63.7627 67.039 69.7172 72.6079 80.4925 68.8091" fill="white"/>
<path d="M64.563 46.7586C63.6665 46.1956 62.4762 46.2553 61.6271 46.8718L61.6546 46.6163L62.7332 47.5756C62.9107 47.7317 62.7439 48.0239 62.5236 47.9566C62.3125 47.8892 62.0646 47.8724 61.8397 47.9045C61.1436 47.9948 60.5577 48.4614 60.0696 48.9357L60.0528 48.4936L60.5378 48.9327C60.6648 49.0474 60.6739 49.2417 60.5592 49.3687C60.4138 49.5094 60.2058 49.4819 60.0176 49.5599C59.6519 49.6624 59.2664 49.8384 58.9268 50.0097C58.0057 50.5039 57.2132 51.249 56.739 52.1807C56.687 52.2801 56.6028 52.4255 56.5676 52.531L56.4269 52.8967C56.3427 53.1047 56.28 53.4337 56.2157 53.654V53.5408C56.3504 54.1834 56.8185 54.8152 57.5085 54.8856C57.6814 54.9131 57.7992 55.0784 57.7671 55.2497C57.7304 55.4639 57.5406 55.4838 57.3678 55.5618C56.8965 55.7806 56.5125 56.1615 56.2479 56.6067L56.2876 56.4063C56.9868 60.3658 59.2909 64.8148 63.5701 65.644C64.1453 65.7756 64.742 65.7985 65.3341 65.8123C65.5085 65.8077 65.6538 65.95 65.6493 66.126C65.6263 66.3799 65.3448 66.5161 65.1903 66.6737C64.7864 66.9934 64.3488 67.2474 63.8195 67.3468L63.9786 66.8175C66.4693 68.8645 69.777 69.7748 72.9684 69.8238C75.5157 69.8727 78.0447 69.5499 80.4972 68.8125C78.4608 69.657 76.2838 70.2277 74.0745 70.422C70.3691 70.5918 66.4601 69.6616 63.5563 67.2673C63.3605 67.102 63.4676 66.767 63.7154 66.7379C64.2325 66.6431 64.742 66.2897 65.1092 65.9133L65.3402 66.4304C61.165 66.4916 58.272 63.776 56.7359 60.0935C56.2494 58.9292 55.8868 57.7465 55.6772 56.4951C55.665 56.4232 55.6818 56.3528 55.717 56.2947C55.9052 55.981 56.1362 55.6934 56.4146 55.4547C56.7099 55.2069 57.0189 55.011 57.3953 54.8948L57.4351 55.5006C56.7313 55.4241 56.1193 54.9269 55.8302 54.2935C55.7292 54.0793 55.6588 53.8896 55.6099 53.6479C55.6022 53.6096 55.6022 53.5699 55.6114 53.5347C55.6818 53.2899 55.7491 52.9303 55.844 52.6963L56.0015 52.2878C56.0199 52.2358 56.0612 52.1409 56.0918 52.0889C56.2509 51.7615 56.4422 51.4463 56.6548 51.1495C57.3555 50.2193 58.3408 49.514 59.4301 49.1086C59.7131 49.0045 59.9748 48.9189 60.2792 48.8592L60.1247 49.3916L59.6382 48.9541C59.5051 48.8408 59.4959 48.6343 59.6213 48.5119C60.3588 47.6858 61.572 47.0983 62.669 47.5328L62.4196 47.903L61.4297 46.8535C61.3609 46.7953 61.3502 46.6867 61.419 46.624C61.5506 46.5429 61.6944 46.4771 61.8351 46.4159C62.724 46.0319 63.8042 46.165 64.5661 46.7617L64.563 46.7586Z" fill="black"/>
<path d="M95.215 44.32C95.215 44.32 96.4129 43.0594 98.1953 43.8182L97.3324 44.9733C97.3324 44.9733 98.4921 44.2191 100.184 45.5149L99.7742 46.0244C99.7742 46.0244 103.487 46.0733 104.837 49.7023C104.837 49.7023 104.82 51.1603 103.55 51.5275C103.55 51.5275 104.457 51.6147 105.221 52.5342C105.221 52.5342 105.394 62.3778 97.5114 63.5619C97.5114 63.5619 98.3315 64.2121 99.2066 64.2228C99.2066 64.2228 94.2068 70.6623 82.9664 68.6137" fill="white"/>
<path d="M95.2151 44.3208C95.9739 43.4931 97.2254 43.2591 98.2596 43.6691C98.3392 43.692 98.3835 43.7762 98.3606 43.8542C98.356 43.8802 98.3392 43.8955 98.3269 43.9154L97.5161 45.1088L97.2101 44.7829C98.0898 44.2566 99.2296 44.4876 100.044 45.0292L100.374 45.2679C100.516 45.3704 100.541 45.5754 100.428 45.707L100.017 46.2164L99.7804 45.7146C100.091 45.7268 100.363 45.7682 100.659 45.8278C102.227 46.1369 103.694 47.0594 104.546 48.4256L104.766 48.8035C104.904 49.0146 105.014 49.3665 105.129 49.5945C105.144 49.6312 105.15 49.6679 105.149 49.7062C105.114 50.3962 104.838 51.0908 104.271 51.5115C104.083 51.6599 103.859 51.7486 103.64 51.8236L103.584 51.2193C104.151 51.3034 104.655 51.5742 105.082 51.9445C105.221 52.0638 105.343 52.1984 105.463 52.3361C105.51 52.3912 105.533 52.4601 105.533 52.5274C105.444 57.6404 103.163 63.0548 97.5604 63.8656L97.7058 63.3179C98.1326 63.6331 98.6941 63.9024 99.225 63.9115C99.4728 63.9069 99.6151 64.2267 99.4545 64.4088C99.199 64.7209 98.9404 64.9794 98.662 65.2395C95.6236 67.9964 91.4224 69.4193 87.3405 69.2204C85.8611 69.1638 84.397 68.9496 82.9711 68.6115C87.1707 69.1317 91.8844 68.7278 95.6312 66.6608C96.8597 65.9678 98.0515 65.1033 98.9664 64.0309L99.2066 64.5281C98.4952 64.5036 97.8832 64.2099 97.3233 63.8014C97.106 63.6438 97.207 63.2827 97.4686 63.2537C98.1265 63.142 98.7737 62.9829 99.3918 62.7335C103.345 61.1286 104.847 56.4975 104.915 52.5365L104.985 52.7278C104.792 52.4983 104.569 52.2963 104.315 52.1403C104.127 52.024 103.925 51.9338 103.714 51.8726C103.65 51.8542 103.567 51.8374 103.524 51.8312C103.354 51.8098 103.233 51.6538 103.255 51.484C103.27 51.36 103.357 51.2637 103.467 51.2269C103.959 51.0892 104.304 50.6823 104.441 50.1958C104.489 50.0412 104.523 49.8469 104.529 49.6955L104.549 49.8072C104.451 49.6006 104.338 49.2854 104.222 49.0927L104.024 48.7546C103.399 47.7555 102.41 47.0181 101.297 46.6372C100.932 46.5239 100.525 46.4092 100.149 46.3648C100.019 46.3465 99.8798 46.3342 99.7651 46.3296C99.5952 46.322 99.4621 46.1782 99.4698 46.0083C99.4728 45.9395 99.4973 45.8783 99.5371 45.8278L99.9471 45.3184L100.001 45.7575C99.6243 45.4928 99.202 45.2419 98.7599 45.1088C98.3254 44.9818 97.8312 44.9726 97.4227 45.1776C97.2131 45.2832 97.0051 45.0078 97.155 44.8349L98.0684 43.718L98.1357 43.9659C97.2009 43.4916 96.0137 43.6201 95.2181 44.3178L95.2151 44.3208Z" fill="black"/>
<path d="M68.044 53.669C69.3234 53.5671 70.3189 52.9602 70.2674 52.3133C70.2159 51.6664 69.137 51.2246 67.8575 51.3264C66.5781 51.4282 65.5826 52.0352 65.6341 52.682C65.6856 53.3289 66.7645 53.7708 68.044 53.669Z" fill="#F9D2DC"/>
<path d="M92.2678 51.7412C93.5472 51.6394 94.5427 51.0325 94.4912 50.3856C94.4398 49.7387 93.3608 49.2968 92.0814 49.3987C90.8019 49.5005 89.8065 50.1074 89.858 50.7543C89.9094 51.4012 90.9884 51.843 92.2678 51.7412Z" fill="#F9D2DC"/>
<path d="M86.739 9.76806C86.739 9.76806 88.2796 11.0838 90.0084 9.60742L86.739 9.76806Z" fill="white"/>
<path d="M88.292 10.6152C87.2715 10.6152 86.5494 10.0139 86.5387 10.0047C86.4087 9.89456 86.3934 9.69874 86.505 9.57023C86.6152 9.44018 86.811 9.42488 86.9395 9.53503C86.9977 9.58399 88.3104 10.6549 89.8082 9.37439C89.9382 9.26424 90.1325 9.27954 90.2427 9.40805C90.3528 9.5381 90.3375 9.73239 90.209 9.84255C89.5251 10.427 88.8627 10.6152 88.292 10.6152Z" fill="black"/>
<path d="M77.3012 18.809C77.3012 18.809 75.6718 16.3153 77.3042 13.8398L77.3012 18.809Z" fill="white"/>
<path d="M77.301 19.1166C77.2001 19.1166 77.1022 19.0677 77.0425 18.9774C76.9721 18.8688 75.3228 16.2832 77.0455 13.6701C77.1389 13.5278 77.3301 13.488 77.4724 13.5829C77.6147 13.6762 77.6545 13.869 77.5596 14.0097C76.0572 16.2893 77.5428 18.6163 77.5581 18.6393C77.6514 18.7816 77.6116 18.9728 77.4678 19.0661C77.4158 19.0998 77.3576 19.1166 77.2995 19.1166H77.301Z" fill="black"/>
<path d="M79.9921 54.193C79.9921 54.193 80.0809 55.2931 79.0466 56.0443C79.0466 56.0443 77.9619 56.8444 77.942 58.7461C77.942 58.7461 77.916 60.9125 80.2629 61.6285C80.2629 61.6285 81.5435 62.0202 82.5655 61.2996C82.5655 61.2996 83.8567 60.4504 83.7772 58.2581C83.7772 58.2581 83.7083 56.4237 81.7776 55.7107C81.7776 55.7107 79.8116 54.9549 79.8927 53.4709L79.9019 52.9951" fill="#C67777"/>
<path d="M81.0905 61.9662C80.5918 61.9662 80.223 61.8576 80.1955 61.8484C77.7124 61.0896 77.7124 58.7672 77.7124 58.7442C77.7339 56.7507 78.8629 55.8955 78.9104 55.8603C79.8237 55.1978 79.7656 54.2508 79.7641 54.2111C79.7641 54.1973 79.7641 54.1835 79.7641 54.1698C79.6876 53.9525 79.6493 53.7154 79.6631 53.4568L79.6723 52.9886C79.6753 52.8617 79.7748 52.7607 79.9063 52.7637C80.0333 52.7668 80.1343 52.8708 80.1312 52.9978L80.1221 53.4736C80.0517 54.7802 81.8417 55.4885 81.8601 55.4962C83.9071 56.2535 84.0035 58.1674 84.0065 58.2501C84.0907 60.5465 82.7489 61.4553 82.6923 61.492C82.1584 61.8683 81.5663 61.9678 81.092 61.9678L81.0905 61.9662ZM80.1465 54.8337C80.0379 55.2514 79.7809 55.793 79.1812 56.229C79.1429 56.2581 78.1898 56.9955 78.1714 58.7473C78.1714 58.8284 78.1821 60.753 80.3301 61.4078C80.3424 61.4109 81.5189 61.7566 82.4338 61.1095C82.4873 61.0728 83.6225 60.2879 83.5476 58.2638C83.5445 58.1965 83.4542 56.5717 81.6979 55.923C81.6382 55.9001 80.731 55.5436 80.1481 54.8322L80.1465 54.8337Z" fill="black"/>
<path d="M83.508 57.9933C83.8155 60.0266 82.4998 61.0685 82.4998 61.0685C81.5237 61.8701 80.1972 61.3974 80.1972 61.3974C77.7157 60.4458 78.2099 58.1784 78.2099 58.1784C78.2099 58.1784 79.7811 56.3027 83.508 57.9933Z" fill="#F5B3B4"/>
</g>
</svg>
