<svg width="177" height="30" viewBox="0 0 177 30" fill="none" xmlns="http://www.w3.org/2000/svg">
<path d="M90.667 11.2657H83.8421C83.617 11.2657 83.4347 11.0888 83.4347 10.8636V6.96602C83.4347 6.74085 83.617 6.55859 83.8421 6.55859H87.2519L87.9059 6.56929H101.813C102.038 6.56929 102.22 6.75158 102.22 6.97675V10.8744C102.22 11.0995 102.038 11.2818 101.813 11.2818H97.9743L95.3687 11.2603V23.4732L90.6723 25.5748V11.2657H90.667Z" fill="white"/>
<path d="M67.0088 25.6828C65.2986 25.6828 63.9261 25.1467 62.8164 24.0369C62.291 23.5115 61.8889 22.895 61.6155 22.2087C61.342 21.5118 61.2026 20.7183 61.2026 19.8498V12.3173C61.2026 11.4434 61.342 10.6446 61.6155 9.93693C61.8889 9.23997 62.291 8.61808 62.8164 8.09804C63.9208 6.99363 65.2932 6.45215 67.0088 6.45215H74.1714C74.9809 6.45215 75.7476 6.62906 76.4499 6.97754C77.1683 7.33674 77.8063 7.81924 78.3424 8.40897C78.8678 9.00942 79.286 9.72249 79.5755 10.5159C79.865 11.3201 80.0097 12.1672 80.0097 13.0464V16.9065C80.0097 17.0727 79.9615 17.1424 79.9132 17.196C79.8596 17.2442 79.7953 17.2925 79.6559 17.2925L66.2314 17.2603V19.5388C66.2314 20.0053 66.3279 20.4074 66.5209 20.729C66.7032 21.04 66.9338 21.2866 67.1965 21.4635C67.4377 21.6243 67.695 21.7423 67.9577 21.812C68.2151 21.8763 68.4242 21.9085 68.6011 21.9085H73.1313C73.4691 21.9085 73.8068 21.8656 74.1285 21.7798C74.3965 21.7101 75.0131 21.4313 75.0131 20.4288V20.3698C75.0131 20.2411 75.0506 20.1715 75.1096 20.1125C75.1793 20.0428 75.2543 20.016 75.3669 20.016H79.6505C79.7631 20.016 79.8382 20.0428 79.9079 20.1178C79.9776 20.1929 80.0044 20.2626 80.0044 20.3752V20.7719C80.0044 21.6297 79.865 22.3695 79.5916 22.9593C79.3181 23.5544 78.9321 24.0423 78.4174 24.4497C77.8974 24.8625 77.2702 25.1735 76.5625 25.3718C75.828 25.5809 75.0238 25.6828 74.1714 25.6828H67.0088ZM68.6011 10.2532C67.872 10.2532 67.2608 10.5428 66.8319 11.0842C66.4352 11.5882 66.2314 12.2798 66.2314 13.1429V13.797H75.0131V13.1429C75.0131 12.2798 74.8094 11.5882 74.4126 11.0842C73.9838 10.5428 73.3726 10.2532 72.6435 10.2532H68.6011Z" fill="white"/>
<path d="M144.917 25.9355C144.783 25.9355 144.676 25.898 144.574 25.8175C144.397 25.6835 144.193 25.4691 143.968 25.1903L141.421 22.129H138.376V25.4744C138.376 25.6406 138.322 25.6889 138.296 25.7157C138.247 25.7639 138.183 25.8068 138.049 25.8068H133.969C133.841 25.8068 133.787 25.7693 133.749 25.7317C133.728 25.6888 133.674 25.4905 133.674 24.6756V9.05304C133.674 8.65632 133.942 7.84141 134.521 7.34282C135.122 6.82814 135.846 6.57617 136.746 6.57617H143.925C145.217 6.57617 146.418 6.69948 147.485 6.9461C148.509 7.18199 149.415 7.59482 150.171 8.16847C150.916 8.73675 151.5 9.47121 151.908 10.3504C152.321 11.2404 152.53 12.3663 152.53 13.6959V15.1863C152.53 17.3736 152.138 18.2904 151.254 19.5074C150.407 20.6761 149.222 21.4321 147.64 21.8181L146.632 22.0593L149.769 25.9301H144.927L144.917 25.9355ZM138.371 18.4673H143.314C144.327 18.4673 145.099 18.3708 145.667 18.1778C146.273 17.9741 146.74 17.6792 147.056 17.3147C147.388 16.8643 147.517 16.4033 147.603 16.0119L147.613 15.9529C147.667 15.6902 147.667 15.6902 147.672 15.6259L147.689 15.4972V14.0229C147.689 13.3849 147.613 12.822 147.463 12.3502C147.286 11.7873 146.943 11.353 146.45 11.0474C146.037 10.774 145.48 10.5703 144.804 10.4523C144.182 10.3451 143.389 10.2968 142.445 10.2968H138.365V18.4619L138.371 18.4673Z" fill="white"/>
<path d="M40.4592 25.5004L40.4378 21.694V13.2179L44.5015 11.4005V17.6355L45.1717 17.6463H48.5921C49.9324 17.6463 51.187 17.1155 52.1198 16.1451C53.0527 15.1801 53.5405 13.9041 53.4923 12.5638C53.4011 9.95828 51.1495 7.84061 48.4796 7.84061H37.205V3.76074H48.5921C53.5405 3.76074 57.5668 7.79237 57.5668 12.7408C57.5668 17.6891 53.5405 21.7154 48.5921 21.7154H44.5123V25.479L44.4908 25.5004H40.4646H40.4592Z" fill="white"/>
<path d="M112.379 25.5004L112.358 21.6832V13.2179L116.422 11.4005V17.6355L117.092 17.6463H120.512C121.853 17.6463 123.107 17.1155 124.04 16.1451C124.973 15.1801 125.461 13.9095 125.412 12.5638C125.321 9.95828 123.07 7.84061 120.4 7.84061H109.125V3.76074H120.512C125.461 3.76074 129.487 7.79237 129.487 12.7408C129.487 17.6891 125.461 21.7154 120.512 21.7154H116.432V25.479L116.411 25.5004H112.385H112.379Z" fill="white"/>
<path d="M163.606 25.8597C159.611 25.8597 156.363 22.7019 156.363 18.8204V13.4807C156.363 9.59916 159.611 6.44141 163.606 6.44141H169.085C173.079 6.44141 176.328 9.59916 176.328 13.4807V18.8204C176.328 22.7019 173.079 25.8597 169.085 25.8597H163.606ZM165.053 10.6071C162.635 10.6071 160.673 12.5264 160.673 14.8907V17.4104C160.673 19.7747 162.641 21.694 165.053 21.694H167.637C170.055 21.694 172.017 19.7747 172.017 17.4104V14.8907C172.017 12.5264 170.05 10.6071 167.637 10.6071H165.053Z" fill="white"/>
<path d="M17.7392 14.2982C16.7313 14.0516 15.659 14.4966 15.0532 15.3383C13.5575 17.4077 12.0939 21.3375 13.0857 23.9108C13.3966 24.715 14.3456 25.3369 15.3106 25.4763C15.8521 25.5513 16.5222 25.353 17.0422 25.1814C17.766 24.9402 18.3343 24.5434 18.5809 24.2593C18.8275 23.9751 19.1063 23.498 19.3797 23.4015C19.6585 23.3157 20.1625 23.5194 20.5324 23.5945C20.9023 23.6696 21.5939 23.6374 22.3123 23.3908C22.8323 23.2139 23.4864 22.9619 23.867 22.5705C24.5479 21.8736 24.9018 20.8067 24.6766 19.9757C23.9904 17.4291 20.5485 14.9951 17.7392 14.3089V14.2982Z" fill="white"/>
<path d="M5.71471 15.8336C5.02848 16.9327 5.83802 18.2676 6.65293 19.0235C7.51072 19.8277 8.30416 20.2459 9.48899 20.0851C10.5451 19.9403 11.1939 19.1629 10.824 18.0532C10.5184 17.1364 9.49971 16.225 8.72234 15.6728C7.92352 15.1045 6.52426 14.8096 5.71471 15.8283V15.8336Z" fill="white"/>
<path d="M25.7765 9.18303C26.9775 9.66018 27.1222 11.2096 26.9238 12.3086C26.7094 13.4613 26.3234 14.2762 25.2726 14.8445C24.3344 15.3538 23.3533 15.1179 22.9887 14.0081C22.6885 13.0913 22.9673 11.7511 23.2621 10.845C23.5677 9.91217 24.5113 8.84528 25.7765 9.18303Z" fill="white"/>
<path d="M9.25337 8.24435C8.06855 9.33267 8.78695 11.0858 9.28554 12.0133C9.89135 13.1391 10.8939 14.4312 12.3093 14.399C15.1185 14.3401 13.5477 9.77229 12.4487 8.58211C12.0948 8.1961 11.5748 7.80474 11.0601 7.7136C10.4221 7.59565 10.2291 7.6439 9.25337 8.24972V8.24435Z" fill="white"/>
<path d="M16.9417 5.3933C15.4727 6.14923 15.5371 7.47345 15.8695 8.81375C16.1322 9.86455 16.5664 11.3496 17.5475 11.9393C18.6466 12.5988 20.0137 11.9018 20.4318 10.7492C20.8607 9.5697 20.7481 8.07927 20.2817 6.93733C19.8689 5.92942 18.7163 4.74459 16.9363 5.3933H16.9417Z" fill="white"/>
<path d="M23.1967 28.1725C22.8321 28.3012 22.4622 28.4192 22.103 28.5371L21.9904 28.5746C21.6205 28.6926 21.2559 28.8212 20.8914 28.9499C19.6583 29.3788 18.3769 29.8238 16.9562 29.9525C13.2087 30.2902 10.3298 28.8266 8.39976 25.6045C7.7725 24.5537 6.86647 23.7924 5.55833 23.2134C2.34698 21.7981 0.438385 18.9942 0.695723 16.0723C0.926254 13.4453 2.18613 11.6279 4.3467 10.7647C4.14297 9.77824 4.14297 8.52911 4.14297 8.50766C4.29845 6.26132 5.77278 4.05785 7.80468 3.0285C9.24684 2.29401 10.7694 2.22968 12.1633 2.83013C12.3724 2.55135 12.678 2.20286 13.1069 1.74179L13.123 1.72573C15.1442 -0.44556 18.4949 -0.584938 21.0951 1.40407C21.2988 1.55954 21.9261 2.25112 21.9314 2.25648C22.1298 2.47629 22.2853 2.65322 22.4032 2.80333C25.754 2.81406 27.4106 3.56997 29.2923 5.86993C31.8657 9.01695 31.2063 13.3488 30.4879 16.3296C30.3861 16.7424 30.2788 17.1606 30.1662 17.5734C29.9196 18.4956 29.6676 19.4552 29.539 20.3827C29.2173 22.6773 28.2308 24.736 26.7565 26.1674C25.7164 27.1753 24.4673 27.7329 23.1967 28.1779V28.1725ZM6.17485 21.7927C7.77249 22.495 8.93051 23.4815 9.72396 24.8057C11.3645 27.5506 13.6162 28.6926 16.8061 28.4084C18.0392 28.2959 19.1758 27.9045 20.3713 27.4863C20.7466 27.3576 21.1219 27.2236 21.5025 27.1003L21.6205 27.0628C23.1484 26.5695 24.5959 26.1031 25.6735 25.0577C26.9013 23.8621 27.7269 22.1304 28.0003 20.1736C28.1451 19.155 28.4078 18.1525 28.6651 17.1821C28.7723 16.7746 28.8796 16.3725 28.9761 15.9704C29.6194 13.3113 30.2252 9.46731 28.0861 6.8564C26.542 4.96926 25.3894 4.30982 21.9743 4.36343C21.6312 4.36343 21.3256 4.14898 21.2237 3.82731C21.0039 3.5378 20.3124 2.79797 20.1354 2.63177C18.4627 1.36117 15.9162 1.01268 14.2596 2.7926L14.2381 2.81403C13.6806 3.40913 13.3964 3.77371 13.2784 3.94527C13.2677 4.06858 13.2302 4.19725 13.1605 4.30983C12.93 4.66903 12.4528 4.78162 12.0936 4.55109C10.6729 3.66113 9.35943 3.98814 8.50699 4.42239C6.97369 5.19977 5.81567 6.92071 5.69236 8.60949C5.69236 8.93116 5.80495 10.2715 5.92289 10.7379C6.00331 10.829 6.06762 10.9363 6.09979 11.0596C6.21237 11.4724 5.96578 11.8959 5.55297 12.0085C3.52643 12.5446 2.44884 13.9224 2.24512 16.217C2.00386 18.9513 4.21803 20.9349 6.19095 21.7981L6.17485 21.7927Z" fill="white"/>
</svg>
