<svg width="25" height="25" viewBox="0 0 25 25" fill="none" xmlns="http://www.w3.org/2000/svg">
<path d="M18.0935 17.3201L22.3765 21.6021L20.9615 23.0171L16.6795 18.7341C15.0862 20.0113 13.1045 20.706 11.0625 20.7031C6.0945 20.7031 2.0625 16.6711 2.0625 11.7031C2.0625 6.73513 6.0945 2.70312 11.0625 2.70312C16.0305 2.70312 20.0625 6.73513 20.0625 11.7031C20.0654 13.7451 19.3707 15.7269 18.0935 17.3201ZM16.0875 16.5781C17.3566 15.273 18.0654 13.5236 18.0625 11.7031C18.0625 7.83612 14.9295 4.70312 11.0625 4.70312C7.1955 4.70312 4.0625 7.83612 4.0625 11.7031C4.0625 15.5701 7.1955 18.7031 11.0625 18.7031C12.8829 18.706 14.6324 17.9972 15.9375 16.7281L16.0875 16.5781Z" fill="black"/>
</svg>
