<svg width="174" height="192" viewBox="0 0 174 192" fill="none" xmlns="http://www.w3.org/2000/svg">
<path fill-rule="evenodd" clip-rule="evenodd" d="M0.0803878 166.827C0.526345 170.536 2.42872 173.426 4.86172 176.13C9.88015 181.707 16.1066 185.659 22.4742 189.407C24.7661 190.762 27.2725 191.721 30.0159 191.834C31.8449 191.908 33.8433 191.388 35.6158 190.395C36.1013 190.214 36.5755 189.938 37.0384 189.537C37.2472 189.35 37.4448 189.153 37.6367 188.95C38.3198 188.334 38.9238 187.634 39.4206 186.85C45.2236 179.014 120.015 78.4427 120.98 77.0427C122.092 75.4282 121.979 73.5767 120.799 72.4759C119.676 71.4259 117.886 71.409 116.351 72.5098C115.82 72.8936 115.34 73.3904 114.945 73.9154C111.97 77.8499 58.5967 149.576 39.1609 175.769C38.6303 174.453 37.9924 173.189 37.2077 171.969C35.469 169.277 33.0473 167.222 30.8175 164.981C29.4684 163.66 28.17 162.288 26.7644 161.029C22.0282 156.784 16.6937 154.453 10.1568 155.734C5.90605 156.57 3.08353 159.257 0.814234 162.661C0.00699561 163.874 -0.0946024 165.342 0.0860383 166.838L0.0803878 166.827Z" fill="#CED4DA"/>
<path fill-rule="evenodd" clip-rule="evenodd" d="M5.71384 171.23C5.1945 170.761 5.08725 170.169 5.43159 169.689C5.75336 169.231 6.40252 169.147 6.98961 169.508C7.40734 169.762 7.81378 170.039 8.192 170.344C10.3936 172.116 24.2803 182.514 26.8149 183.779C26.9448 183.841 27.069 183.92 27.1762 184.01C27.6278 184.417 27.7294 184.97 27.4359 185.421C27.131 185.901 26.6456 186.048 26.0641 185.777C24.9013 185.241 23.7836 184.603 22.6941 183.92C21.3449 183.079 20.0748 182.13 18.8216 181.148C18.3813 180.804 17.924 180.482 17.4724 180.149C17.4724 180.149 5.76465 171.281 5.71384 171.23Z" fill="white"/>
<path fill-rule="evenodd" clip-rule="evenodd" d="M9.74998 165.794C9.23063 165.325 9.12338 164.732 9.46772 164.253C9.78949 163.795 10.4387 163.711 11.0257 164.072C11.4378 164.326 11.8499 164.603 12.2225 164.907C14.4241 166.674 28.3108 177.078 30.8511 178.343C30.9809 178.405 31.1051 178.484 31.2123 178.574C31.6639 178.98 31.7656 179.534 31.4777 179.985C31.1672 180.465 30.6874 180.612 30.1003 180.341C28.9374 179.799 27.8197 179.167 26.7302 178.484C25.3867 177.643 24.1109 176.689 22.8577 175.712C22.4174 175.368 21.9602 175.046 21.5086 174.713C21.5086 174.713 9.80078 165.845 9.74432 165.794H9.74998Z" fill="white"/>
<path fill-rule="evenodd" clip-rule="evenodd" d="M170.656 3.51614C168.934 2.05972 167.038 0.942013 164.876 0.24203C163.064 -0.339408 161.827 0.11219 160.772 1.75489C158.982 4.53789 157.001 7.19105 155.099 9.90631C150.295 16.7707 95.2274 92.5325 90.4912 99.442C88.8993 101.762 88.0921 104.331 89.605 107.068C91.2816 110.1 93.7936 111.98 97.2935 112.347C98.3096 112.454 99.337 112.268 100.161 111.562C102.526 109.541 104.858 107.464 106.619 104.873C112.05 96.8792 167.625 19.9093 173.067 11.9329C174.41 9.95713 174.111 8.13379 173.044 6.25964C172.434 5.19273 171.593 4.30644 170.656 3.51614Z" fill="#7CD5C3"/>
<path fill-rule="evenodd" clip-rule="evenodd" d="M144.954 24.0078C149.34 26.9037 153.817 29.8616 158.226 32.7745C161.844 27.7222 165.056 23.24 167.585 19.6893C163.25 16.8499 158.779 13.9257 154.319 11.0073C152.682 13.3104 149.323 17.9676 144.954 24.0078Z" fill="#45AF9A"/>
<path fill-rule="evenodd" clip-rule="evenodd" d="M51.1905 170.987C52.7373 168.904 54.3912 166.68 56.1412 164.326C54.2388 162.915 52.4155 161.554 50.6655 160.256C48.9269 162.593 47.2729 164.817 45.7148 166.917C47.4479 168.204 49.2769 169.57 51.1849 170.987H51.1905Z" fill="#ADB5BD"/>
<path fill-rule="evenodd" clip-rule="evenodd" d="M173.885 166.827C173.439 170.536 171.537 173.426 169.104 176.13C164.085 181.707 157.859 185.659 151.491 189.407C149.199 190.762 146.693 191.721 143.95 191.834C142.121 191.908 140.122 191.388 138.35 190.395C137.864 190.214 137.39 189.938 136.927 189.537C136.718 189.35 136.521 189.153 136.334 188.95C135.651 188.334 135.042 187.634 134.551 186.85C128.748 179.014 53.9567 78.4427 52.9914 77.0427C51.8849 75.4282 51.9922 73.5767 53.172 72.4759C54.2954 71.4259 56.0848 71.409 57.6203 72.5098C58.1509 72.8936 58.6307 73.3904 59.0259 73.9154C62.0008 77.8499 115.375 149.576 134.81 175.769C135.341 174.453 135.979 173.189 136.764 171.969C138.502 169.277 140.93 167.222 143.154 164.981C144.503 163.66 145.801 162.288 147.207 161.029C151.943 156.784 157.283 154.453 163.814 155.734C168.065 156.57 170.888 159.257 173.157 162.661C173.964 163.874 174.066 165.342 173.885 166.838V166.827Z" fill="#CED4DA"/>
<path fill-rule="evenodd" clip-rule="evenodd" d="M168.245 171.23C168.765 170.761 168.872 170.169 168.528 169.689C168.206 169.231 167.557 169.147 166.97 169.508C166.557 169.762 166.151 170.039 165.773 170.344C163.571 172.116 149.684 182.514 147.15 183.779C147.02 183.841 146.896 183.92 146.789 184.01C146.337 184.417 146.241 184.97 146.529 185.421C146.834 185.901 147.319 186.048 147.906 185.777C149.069 185.241 150.187 184.603 151.276 183.92C152.626 183.079 153.896 182.13 155.149 181.148C155.589 180.804 156.046 180.482 156.498 180.149C156.498 180.149 168.206 171.281 168.262 171.23H168.245Z" fill="white"/>
<path fill-rule="evenodd" clip-rule="evenodd" d="M164.21 165.794C164.729 165.325 164.836 164.733 164.492 164.253C164.17 163.795 163.521 163.711 162.934 164.072C162.522 164.326 162.11 164.603 161.737 164.908C159.536 166.674 145.649 177.078 143.114 178.343C142.985 178.405 142.86 178.484 142.753 178.574C142.302 178.981 142.2 179.534 142.488 179.985C142.793 180.465 143.278 180.612 143.865 180.341C145.034 179.799 146.146 179.167 147.235 178.484C148.579 177.643 149.855 176.689 151.102 175.712C151.542 175.368 152 175.046 152.451 174.713C152.451 174.713 164.159 165.845 164.216 165.794H164.21Z" fill="white"/>
<path fill-rule="evenodd" clip-rule="evenodd" d="M0.921435 6.25964C-0.145474 8.13379 -0.450293 9.95713 0.898867 11.9329C6.34067 19.9149 61.9159 96.8792 67.3464 104.873C69.1077 107.464 71.4334 109.541 73.8043 111.562C74.6285 112.268 75.6559 112.454 76.672 112.347C80.1719 111.98 82.684 110.1 84.3662 107.068C85.879 104.336 85.0718 101.762 83.4799 99.442C78.7437 92.5325 23.6709 16.7707 18.8726 9.90631C16.9759 7.1967 14.9945 4.53789 13.1994 1.75489C12.1437 0.11219 10.9075 -0.339408 9.09543 0.24203C6.92775 0.936368 5.03102 2.05972 3.31494 3.51614C2.37786 4.30644 1.53675 5.19273 0.927086 6.25964H0.921435Z" fill="#7CD5C3"/>
<path fill-rule="evenodd" clip-rule="evenodd" d="M29.0049 24.0078C24.6187 26.9037 20.1422 29.8617 15.7335 32.7745C12.115 27.7222 8.90299 23.2401 6.37402 19.6894C10.7094 16.8499 15.1803 13.9258 19.6398 11.0073C21.2825 13.3105 24.6357 17.9677 29.0049 24.0078Z" fill="#45AF9A"/>
<path fill-rule="evenodd" clip-rule="evenodd" d="M122.769 170.987C121.222 168.904 119.568 166.68 117.818 164.326C119.721 162.915 121.544 161.554 123.294 160.256C125.033 162.593 126.687 164.817 128.245 166.917C126.512 168.204 124.677 169.57 122.769 170.987Z" fill="#ADB5BD"/>
</svg>
