<svg width="275" height="208" viewBox="0 0 275 208" fill="none" xmlns="http://www.w3.org/2000/svg">
<path d="M186.682 81.9518L192.61 88.7465L196.245 91.7894L199.066 93.729L204.812 89.5952L204.468 85.8115C202.357 82.1569 196.551 78.2901 194.614 75.9421L186.681 81.9518H186.682Z" fill="#3B454E"/>
<path d="M202.508 89.891C200.337 87.3397 199.065 86.7598 198.17 87.6208C197.249 88.5367 199.114 91.2348 200.675 93.1089C202.349 92.8632 203.254 92.0198 202.51 89.891H202.508Z" fill="#3B454E"/>
<path d="M204.48 87.1288C202.309 84.5775 201.363 84.1903 200.596 85.168C199.617 86.4163 201.443 88.6229 203.001 90.4952C204.686 90.2336 205.419 89.2841 204.48 87.1271V87.1288Z" fill="#3B454E"/>
<path d="M206.252 84.6795C204.635 83.0423 203.795 82.5525 203.114 83.1183C202.108 83.9457 203.36 85.7934 204.92 87.6675C206.55 87.4271 207.57 86.7994 206.252 84.6813V84.6795Z" fill="#FFD2EE"/>
<path d="M195.091 95.8507C197.353 98.7132 199.579 98.0343 198.518 95.6881C197.156 92.7513 194.925 90.7534 196.156 87.5355L191.278 86.4976C192.376 88.9163 191.928 89.1497 192.847 92.6275C193.237 94.1056 194.427 95.0074 195.091 95.8507Z" fill="#3B454E"/>
<path d="M198.801 90.5465C199.908 92.3181 199.637 92.2492 200.581 93.0908C202.82 95.0904 205.071 93.4019 203.119 90.6208C202.802 90.1699 202.526 89.7456 202.053 89.2523C197.958 85.2264 197.229 88.027 198.803 90.5447L198.801 90.5465Z" fill="#3B454E"/>
<path d="M200.846 87.5997C202.127 89.7585 201.58 89.3731 202.524 90.2165C204.762 92.2162 207.013 90.5277 205.062 87.7465C204.745 87.2956 204.328 86.9314 203.857 86.4381C201.075 82.978 199.568 85.4391 200.848 87.5997H200.846Z" fill="#3B454E"/>
<path d="M203.195 85.3152C203.455 85.8845 202.819 85.782 204.75 87.4846C206.34 88.9592 208.173 86.6395 205.688 84.0934C205.222 83.6161 204.509 82.923 203.832 82.9247C202.258 82.9283 202.934 84.7459 203.195 85.3152Z" fill="#3B454E"/>
<path d="M197.372 94.6359C199.81 98.0165 202.504 95.8576 201.328 93.8314C200.754 92.8431 200.15 92.4788 199.465 91.5418C198.259 90.6029 196.911 89.0223 195.829 90.0389C195.276 90.267 194.738 89.0647 194.136 88.9515C194.136 88.9515 194.637 90.8292 197.372 94.6359Z" fill="#3B454E"/>
<path d="M200.675 93.2142C200.645 93.2142 200.613 93.2018 200.592 93.1753C199.21 91.5168 197.051 88.58 198.094 87.544C198.392 87.2575 198.732 87.1231 199.106 87.1408C199.965 87.1833 201.072 88.0355 202.591 89.8195C202.63 89.8637 202.625 89.9326 202.579 89.9697C202.535 90.0086 202.466 90.0016 202.428 89.9574C200.95 88.2211 199.89 87.3937 199.097 87.353C198.782 87.3371 198.502 87.4485 198.247 87.6942C197.584 88.3537 198.523 90.3499 200.758 93.0356C200.795 93.0816 200.79 93.1487 200.744 93.1859C200.725 93.2018 200.7 93.2106 200.675 93.2106V93.2142Z" fill="#495057"/>
<path d="M203.001 90.6032C202.971 90.6032 202.939 90.5908 202.918 90.5643C201.383 88.7202 199.472 86.427 200.511 85.1027C200.787 84.7491 201.085 84.5758 201.422 84.5687C202.135 84.5546 203.044 85.276 204.562 87.06C204.601 87.1042 204.595 87.1731 204.549 87.2102C204.505 87.2491 204.436 87.2438 204.399 87.1979C202.959 85.5058 202.073 84.7809 201.443 84.7809C201.437 84.7809 201.432 84.7809 201.427 84.7809C201.156 84.7862 200.919 84.9294 200.681 85.2335C199.75 86.4217 201.599 88.6424 203.085 90.4264C203.122 90.4723 203.117 90.5395 203.07 90.5767C203.051 90.5926 203.026 90.6014 203.001 90.6014V90.6032Z" fill="#495057"/>
<path d="M204.919 87.7747C204.889 87.7747 204.857 87.7623 204.836 87.7358C203.699 86.3708 202.551 84.8344 202.651 83.7824C202.679 83.4782 202.812 83.2272 203.045 83.0362C203.846 82.3714 204.817 83.0751 206.327 84.6063C206.368 84.6487 206.368 84.7159 206.327 84.7583C206.285 84.8008 206.218 84.799 206.175 84.7583C204.537 83.0981 203.781 82.7074 203.182 83.2042C202.992 83.3616 202.888 83.5578 202.865 83.8071C202.773 84.7849 203.959 86.3496 205.003 87.6032C205.04 87.6491 205.034 87.7163 204.988 87.7534C204.969 87.7694 204.944 87.7782 204.919 87.7782V87.7747Z" fill="#495057"/>
<path d="M198.513 95.9414C198.479 95.9414 198.448 95.9272 198.426 95.8972L196.917 93.8427C195.525 91.8819 195.134 90.577 195.752 89.9617C196.057 89.6682 196.379 89.5356 196.738 89.5533C197.537 89.594 198.54 90.3879 200.089 92.209C200.128 92.2532 200.123 92.3221 200.077 92.3592C200.033 92.3981 199.964 92.3928 199.926 92.3469C198.439 90.5982 197.452 89.8026 196.728 89.7673C196.432 89.7531 196.161 89.8663 195.902 90.1156C195.378 90.6371 195.789 91.8836 197.091 93.7189L198.598 95.7716C198.634 95.8194 198.623 95.8866 198.575 95.9219C198.556 95.9361 198.534 95.9431 198.511 95.9431L198.513 95.9414Z" fill="#495057"/>
<path d="M67.3179 92.2405C63.9598 91.9753 63.1203 93.0839 65.4742 93.6444C68.416 94.3445 70.2686 95.2551 71.2392 96.1356L79.289 93.4481C77.2132 93.2218 70.676 92.504 67.3179 92.2388V92.2405Z" fill="#3B454E"/>
<path d="M144.57 187.544L146.197 193.598L138.558 196.404L135.436 191.577L144.57 187.544Z" fill="#FFD2EE"/>
<path d="M69.899 99.5497C69.899 99.5497 67.4885 100.824 67.0156 101.404C66.7801 101.693 66.0787 102.223 64.9275 102.883C63.0146 103.975 63.7568 106.001 65.8538 105.52C67.7312 105.091 68.9391 104.392 71.0007 103.043L69.9008 99.5497H69.899Z" fill="#3B454E"/>
<path d="M67.7474 97.4526C67.0903 97.9812 65.9656 98.5682 64.0829 99.4134C61.83 100.425 62.9157 103.22 64.7683 102.645C65.847 102.311 66.4952 102.129 68.2469 101.422L67.7492 97.4526H67.7474Z" fill="#3B454E"/>
<path d="M73.3138 101.311C73.3138 101.311 72.0864 102.172 69.8565 103.105C69.6635 103.48 67.7737 104.909 66.1177 105.761C64.6051 106.539 65.4907 108.427 66.6685 108.205C69.0188 107.761 71.7056 106.645 74.4012 105.308C77.1146 103.961 79.1001 103.01 81.67 102.485L73.3138 101.313V101.311Z" fill="#3B454E"/>
<path d="M63.6062 98.9837C65.6572 98.8475 67.3256 98.646 67.8782 98.5028L69.8158 94.8605C66.7394 95.5359 64.9948 95.7552 63.4575 96.0558C61.116 96.5402 61.7359 99.1092 63.6062 98.9837Z" fill="#3B454E"/>
<path d="M82.3606 94.1747L78.5225 93.3773L69.3374 95.0852L66.6648 96.8692L68.2836 103.303L71.7125 104.458L81.6698 102.483L82.3606 94.1747Z" fill="#3B454E"/>
<path d="M237.744 122.323L235.034 124.04L240.978 133.295L242.42 132.342L244.405 125.042L237.744 122.323Z" fill="#FFD2EE"/>
<path d="M86.4217 4.96481C73.3897 7.52144 69.1975 14.005 70.8853 20.2127C72.5732 26.4204 76.413 25.1385 81.4289 30.2695L104.661 25.9112C104.661 25.9112 104.128 18.0026 100.477 10.7252C96.8289 3.44603 92.796 0.120283 86.4217 4.96481Z" fill="black"/>
<path d="M113.069 39.5729C111.8 37.5255 106.737 29.3729 104.858 25.4513L100.779 29.7778L96.783 42.5486L99.8399 46.6682L113.069 39.5711V39.5729Z" fill="#FFD2EE"/>
<path d="M97.7723 43.8821C100.404 42.4376 103.746 38.9014 103.955 36.8682C98.1106 40.7243 96.7822 42.5472 96.7822 42.5472L97.7723 43.8803V43.8821Z" fill="black"/>
<path d="M95.7107 8.72363L82.9497 13.6389L76.9951 22.4563C77.2094 23.8265 85.3531 36.4983 85.6258 36.8926C89.6924 42.7396 91.7664 45.908 98.8491 41.4383C99.4619 41.0511 103.918 38.0966 105.675 36.6185L104.239 26.5281L102.56 20.0199L95.7107 8.7254V8.72363Z" fill="#FFD2EE"/>
<path d="M96.894 34.9834C97.5617 36.1503 96.8055 37.8388 95.2026 38.7529C93.5997 39.667 91.7595 39.4619 91.0918 38.295L96.894 34.9834Z" fill="#DB6A58"/>
<path d="M91.0918 38.2955L96.8945 34.9834L96.353 34.0379L90.5503 37.35L91.0918 38.2955Z" fill="white"/>
<path d="M85.0704 30.0889C85.4618 30.7307 85.4742 31.438 85.097 31.6678C84.7197 31.8977 84.0963 31.5635 83.7031 30.9199C83.3117 30.2781 83.2993 29.5709 83.6765 29.341C84.0538 29.1112 84.6772 29.4453 85.0704 30.0889Z" fill="#343A40"/>
<path d="M93.0324 25.2289C93.4239 25.8707 94.0491 26.2049 94.4263 25.9768C94.8036 25.747 94.7912 25.0398 94.3997 24.3979C94.0083 23.7561 93.3831 23.4202 93.0059 23.65C92.6286 23.8799 92.641 24.5871 93.0324 25.2289Z" fill="#343A40"/>
<path d="M80.1776 14.502C87.8891 17.2213 91.3959 16.3868 94.1713 13.9416C94.8532 16.9208 99.0348 21.9138 102.363 23.4361C100.886 21.2525 101.116 19.4084 101.98 18.8073L95.0817 5.41943L84.3167 8.40571L74.5879 17.3469C74.5879 17.3469 79.9225 14.3906 80.1776 14.5003V14.502Z" fill="black"/>
<path d="M94.4394 13.3379C93.0579 19.1354 78.1769 20.1733 77.8581 25.092C75.0561 19.9735 76.1879 14.1653 76.1879 14.1653L94.4394 13.3379Z" fill="black"/>
<path d="M94.0186 30.3969C93.7635 29.9019 94.1089 29.2194 94.789 28.8693C95.4691 28.5192 96.2272 28.6377 96.4822 29.131C96.7373 29.6261 96.3919 30.3085 95.7118 30.6586C95.0317 31.0087 94.2736 30.8902 94.0186 30.3969Z" fill="#DB8367"/>
<path d="M83.992 34.3499C84.0788 34.2809 84.1744 34.2173 84.2789 34.1642C84.9148 33.8371 85.6214 33.9468 85.8588 34.4082C86.0961 34.8697 85.7755 35.508 85.1397 35.8351C85.0883 35.8616 85.0352 35.8846 84.9838 35.9058L83.9902 34.3516L83.992 34.3499Z" fill="#DB8367"/>
<path d="M79.4822 27.0833C81.4428 25.6812 83.8356 24.1253 85.9043 23.6709C88.7665 21.3247 93.2527 20.5326 95.6845 19.7812C98.807 18.8176 100.456 18.2094 103.054 17.4367C103.368 18.3367 104.002 20.6864 104.002 20.6864C102.82 20.7059 102.695 21.0842 101.607 21.8869C99.3437 23.5613 96.4709 27.1947 94.914 28.3298C92.608 30.0112 88.1997 30.4038 88.1997 30.4038C88.1997 30.4038 86.2408 33.0134 83.7967 34.0425C82.0946 31.4063 80.5218 28.9239 79.4822 27.0833Z" fill="#3B454E"/>
<path d="M84.0893 30.2728C84.819 30.1349 85.0953 29.3446 85.0953 29.3446C85.0953 29.3446 84.1956 28.4658 83.6554 28.8354C83.0939 29.2208 82.4971 29.6381 82.4971 29.6381C82.4971 29.6381 83.3596 30.4107 84.0893 30.2728Z" fill="white"/>
<path d="M88.7881 22.0551L91.9301 20.0448L92.5482 20.2074L88.9758 23.3634L88.7881 22.0551Z" fill="black"/>
<path d="M82.5554 24.8433L80.3805 25.8157L80.2246 26.3833L83.124 25.8599L82.5554 24.8433Z" fill="black"/>
<path d="M92.6226 25.9465C91.9408 26.6943 90.9224 26.712 90.9224 26.712C90.9224 26.712 90.6797 25.4196 91.4608 24.9616C92.272 24.486 93.1434 23.9839 93.1434 23.9839C93.1434 23.9839 93.3045 25.1986 92.6226 25.9465Z" fill="white"/>
<path d="M101.516 21.7825C100.985 19.0473 104.117 17.9935 104.701 20.4317C105.285 22.8699 106.984 25.6581 104.235 26.528C104.235 26.528 102.048 24.5195 101.516 21.7825Z" fill="#FFD2EE"/>
<path d="M89.9188 33.9117C89.8497 33.9117 89.7824 33.9028 89.7186 33.8834C89.5344 33.8286 89.4016 33.6995 89.3201 33.4979L86.4208 25.1137C86.396 25.043 86.4332 24.967 86.504 24.9422C86.5749 24.9175 86.651 24.9546 86.6758 25.0253L89.5734 33.4042C89.6212 33.5209 89.6938 33.5952 89.7965 33.627C90.048 33.7013 90.4536 33.5103 90.7246 33.3211L91.6934 32.6457C91.7536 32.6033 91.8387 32.6174 91.8812 32.6793C91.9237 32.7412 91.9095 32.8243 91.8475 32.8667L90.8787 33.5422C90.7406 33.6376 90.3119 33.9117 89.9205 33.9117H89.9188Z" fill="#495057"/>
<path d="M80.503 2.53888C78.1917 4.38121 77.0688 3.95334 75.7457 5.72848C74.2332 7.7547 73.2183 13.2092 79.8193 8.40535L79.7343 7.52838C77.5842 7.60618 77.4336 6.82115 78.2997 5.76208C79.0294 4.8692 80.2568 4.40066 80.5012 2.53711L80.503 2.53888Z" fill="black"/>
<path d="M95.3133 0C92.607 1.19168 91.9836 0.974209 90.1062 2.16589C87.3982 3.84202 86.3284 6.10516 90.6358 5.68082L94.5695 3.50079C92.4707 3.02694 91.6807 3.32928 92.7912 2.52658C93.7246 1.85117 94.5978 1.73802 95.3133 0Z" fill="black"/>
<path d="M84.27 2.73874C81.0359 4.68362 80.2141 4.78617 79.1974 5.70557C77.8478 6.92377 77.2864 9.94541 82.6511 7.62216L82.6565 6.51181C81.6487 6.2961 82.389 4.97712 84.27 2.73874Z" fill="black"/>
<path d="M88.849 2.11472C85.6149 4.0596 82.5632 4.9843 82.1453 6.15653C81.5342 7.86803 83.9306 8.07489 87.2302 6.99814L86.6723 5.42809C85.6645 5.21238 86.9698 4.3531 88.849 2.11472Z" fill="black"/>
<path d="M72.3079 15.1894C68.0217 15.2389 69.7114 10.5022 73.4201 8.90741C72.4531 10.5553 72.6214 10.9036 73.8116 10.8187C75.1647 10.7232 72.3522 15.2583 72.3079 15.1894Z" fill="black"/>
<path d="M73.2648 24.4458C67.9195 22.013 65.1016 17.0111 67.7938 14.2812C68.7626 17.3506 73.7217 14.0761 73.7217 14.0761L74.1114 19.2654L73.2648 24.4458Z" fill="black"/>
<path d="M93.9393 4.68735C94.9488 3.56462 98.5832 6.04877 100.33 4.10742C100.466 6.2963 98.6469 6.05054 98.8046 8.0131C96.0965 7.38897 93.9375 4.68735 93.9375 4.68735H93.9393Z" fill="black"/>
<path d="M186.955 84.6751L195.258 76.0663C195.258 76.0663 174.877 54.6196 170.99 51.7535C170.99 51.7535 148.684 42.038 144.104 40.9895C140.64 40.1956 135.144 37.8794 129.065 38.035C122.987 38.1906 119.643 36.8239 114.662 38.0845C112.687 41.8806 117.129 49.2181 117.129 49.2181L162.201 66.6018L186.953 84.6751H186.955Z" fill="#3B454E"/>
<path d="M135.15 192.791C135.573 196.426 135.281 198.145 131.429 199.022C120.618 201.484 115.599 203.443 115.675 205.664C115.719 206.985 116.874 208 118.197 208H138.398C138.986 208 139.535 207.701 139.854 207.208L140.146 206.753L140.442 207.068C140.998 207.662 141.776 207.998 142.591 207.998H149.027C149.491 207.998 149.884 207.655 149.944 207.195L147.649 194.474C147.484 193.563 146.538 192.998 145.669 193.319C138.62 195.929 135.625 189.999 135.152 192.787L135.15 192.791Z" fill="#495057"/>
<path d="M134.735 192.69C134.657 192.69 134.581 192.647 134.542 192.571L134.085 191.675C134.032 191.569 134.072 191.44 134.179 191.385C134.285 191.332 134.414 191.373 134.469 191.479L134.926 192.375C134.979 192.481 134.938 192.61 134.832 192.665C134.8 192.681 134.767 192.688 134.735 192.688V192.69Z" fill="#495057"/>
<path d="M243.713 132.585C235.583 138.904 210.398 155.103 202.778 159.154C201.035 160.08 195.927 161.663 191.043 158.01C177.199 147.659 159.539 130.58 154.129 124.574C152.175 122.505 147.067 117.841 146.736 115.143L139.671 105.263L172.249 93.1709C186.324 107.894 183.772 119.223 201.926 138.571C205.782 135.389 224.184 126.63 234.825 123.058L243.714 132.587L243.713 132.585Z" fill="#495057"/>
<path d="M154.956 125.165C150.393 131.339 131.692 147.077 131.692 147.077C134.031 157.788 143.264 178.377 146.975 190.128L134.079 194.555C126.143 181.88 110.38 154.041 108.196 144.198C107.688 141.905 108.284 139.499 109.402 137.43C114.609 127.794 133.695 113.057 139.671 103.826L154.957 125.163L154.956 125.165Z" fill="#495057"/>
<path d="M129.18 149.034C129.164 149.034 129.149 149.031 129.133 149.024C129.08 148.999 129.057 148.935 129.082 148.882C129.305 148.407 130.251 147.466 131.269 147.09C130.115 146.757 127.669 145.68 126.854 145.06C126.806 145.024 126.797 144.957 126.835 144.91C126.87 144.862 126.937 144.853 126.985 144.89C127.874 145.567 130.924 146.87 131.707 146.971C131.758 146.978 131.799 147.021 131.801 147.074C131.803 147.127 131.767 147.173 131.716 147.183C130.637 147.406 129.509 148.485 129.277 148.974C129.259 149.013 129.22 149.036 129.18 149.036V149.034Z" fill="#495057"/>
<path d="M200.94 143.223C200.917 143.223 200.894 143.216 200.876 143.202C200.828 143.167 200.819 143.1 200.855 143.052C201.331 142.424 202.234 140.432 201.82 138.595C201.807 138.536 201.843 138.48 201.901 138.467C201.96 138.453 202.016 138.49 202.029 138.549C202.459 140.458 201.519 142.53 201.025 143.181C201.003 143.209 200.972 143.223 200.94 143.223Z" fill="#495057"/>
<path d="M243.278 132.678C246.163 130.374 254.087 127.446 258.026 128.279C269.08 130.615 273.874 130.615 274.707 128.518C275.201 127.271 274.542 125.834 273.311 125.268L255.194 116.953C254.647 116.702 254.016 116.744 253.519 117.066L253.062 117.363L252.915 116.944C252.639 116.153 252.054 115.508 251.296 115.16L245.313 112.407C244.881 112.209 244.378 112.359 244.134 112.761L237.912 120.876C237.221 121.504 237.253 122.632 238.002 123.219C244.082 127.984 240.632 133.751 243.278 132.681V132.678Z" fill="#495057"/>
<path d="M154.339 124.999C154.304 124.999 154.27 124.982 154.249 124.952C152.391 122.116 150.912 120.563 149.609 119.195C148.016 117.524 146.759 116.203 145.673 113.286C145.652 113.231 145.68 113.169 145.737 113.148C145.794 113.128 145.854 113.155 145.875 113.212C146.947 116.088 148.19 117.395 149.764 119.048C151.009 120.356 152.561 121.983 154.43 124.835C154.461 124.884 154.447 124.95 154.398 124.983C154.38 124.996 154.359 125.001 154.339 125.001V124.999Z" fill="#495057"/>
<path d="M134.046 101.42C135.014 105.176 136.801 106.422 136.297 108.192C138.546 107.911 141.089 106.809 145.459 105.222C150.165 103.512 157.123 102.223 162.814 104.023C168.505 105.821 178.894 101.553 181.549 99.0917C177.189 95.4495 176.707 91.6322 172.947 87.9918C167.536 82.753 168.112 80.4173 163.855 76.7574C157.471 71.2658 153.466 62.3034 150.198 58.8327C146.931 55.362 135.068 41.2191 127.611 40.6922C120.153 40.1654 118.571 36.7477 114.905 38.0012C111.239 39.2566 101.035 42.0501 100.171 56.4387C115.828 67.9347 112.659 74.4837 119.023 84.1232C125.425 93.8193 131.913 93.1669 134.044 101.42H134.046Z" fill="#3B454E"/>
<path d="M116.653 57.3902C118.52 64.9311 119.313 77.1272 117.919 85.37C117.535 87.642 116.166 89.6293 114.164 90.7785C102.874 97.2621 96.0387 99.1238 81.6695 102.483L78.5222 93.3776C87.872 88.9486 92.3353 86.7031 102.057 80.453L100.424 58.9285L116.653 57.3902Z" fill="#3B454E"/>
<path d="M101.359 80.2244L78.5222 92.1271C78.9703 94.1339 83.4761 103.98 83.4761 103.98C91.1858 102.76 117.271 90.7038 119.143 88.1613C121.013 85.6188 118.592 73.2317 120.245 55.9205L106.936 52.0926C106.936 52.0926 100.842 51.2245 100.389 54.2302C99.8785 57.6143 100.173 71.7642 101.359 80.2244Z" fill="#3B454E"/>
<path d="M153.384 63.3057C153.351 63.3057 153.319 63.2916 153.297 63.2633C147.497 55.4448 139.261 45.3438 132.96 41.6097C132.908 41.5796 132.892 41.5142 132.922 41.4629C132.952 41.4116 133.018 41.3957 133.069 41.4258C139.403 45.1776 147.66 55.3016 153.471 63.136C153.506 63.1837 153.496 63.2509 153.448 63.2862C153.429 63.3004 153.407 63.3075 153.384 63.3075V63.3057Z" fill="#495057"/>
<path d="M162.2 113.774C156.552 113.774 154.205 111.744 151.825 107.918C151.793 107.868 151.809 107.801 151.86 107.771C151.91 107.739 151.977 107.755 152.007 107.805C154.538 111.877 157.035 113.876 163.658 113.519C163.716 113.512 163.768 113.562 163.771 113.62C163.775 113.678 163.729 113.73 163.67 113.733C163.156 113.761 162.668 113.776 162.2 113.776V113.774Z" fill="#495057"/>
<path d="M162.287 75.7992C162.271 75.7992 162.257 75.7957 162.241 75.7886C161.531 75.4545 160.461 75.5164 159.221 75.5871C156.791 75.7268 153.463 75.9159 150.144 73.3151C150.098 73.278 150.089 73.2108 150.127 73.1648C150.164 73.1188 150.231 73.11 150.277 73.1471C153.533 75.6967 156.814 75.511 159.209 75.3731C160.477 75.3006 161.572 75.2388 162.332 75.5959C162.385 75.6207 162.408 75.6843 162.383 75.7374C162.365 75.7763 162.326 75.7992 162.285 75.7992H162.287Z" fill="#495057"/>
<path d="M105.366 81.4796C105.357 81.4796 105.346 81.4796 105.337 81.476L101.451 80.3958C101.395 80.3798 101.361 80.3215 101.377 80.2631C101.393 80.2066 101.451 80.173 101.508 80.1889L105.394 81.2692C105.451 81.2851 105.484 81.3434 105.468 81.4018C105.456 81.4495 105.412 81.4796 105.366 81.4796Z" fill="#495057"/>
<path d="M119.894 82.85C119.894 82.85 119.887 82.85 119.884 82.85C119.825 82.8447 119.781 82.7916 119.786 82.7333C120.015 80.235 119.942 75.9244 119.862 71.361C119.79 67.1106 119.714 62.7152 119.864 59.2144C119.866 59.156 119.917 59.1136 119.976 59.1118C120.034 59.1136 120.08 59.1649 120.078 59.2232C119.928 62.7169 120.004 67.1088 120.077 71.3575C120.155 75.928 120.229 80.2438 119.999 82.7527C119.993 82.8076 119.947 82.85 119.892 82.85H119.894Z" fill="#495057"/>
<path d="M98.7432 47.3739C100.762 43.6168 106.12 37.89 112.684 36.6523C115.162 37.0183 116.722 38.0261 116.722 38.0261L100.305 55.3409L98.7432 47.3722V47.3739Z" fill="#3B454E"/>
<path d="M100.681 54.5131C100.681 54.5131 100.667 54.5131 100.66 54.5114C100.602 54.5007 100.564 54.4442 100.575 54.3858C101.335 50.5031 103.379 48.3266 105.749 45.8054C106.267 45.2537 106.804 44.6826 107.348 44.0726C110.966 40.0096 113.802 37.8773 116.018 37.552C116.076 37.5431 116.131 37.5838 116.14 37.6422C116.149 37.7005 116.108 37.7553 116.049 37.7642C113.887 38.0806 111.092 40.1917 107.509 44.2159C106.964 44.8276 106.427 45.4005 105.906 45.9539C103.559 48.4504 101.535 50.6057 100.788 54.4283C100.777 54.4795 100.733 54.5149 100.683 54.5149L100.681 54.5131Z" fill="#495057"/>
<path d="M88.7033 101.917C88.6608 101.917 88.6201 101.89 88.6042 101.848L84.1746 90.5021C84.1533 90.4473 84.1799 90.3855 84.2348 90.3642C84.2897 90.343 84.3517 90.3695 84.3729 90.4243L88.8025 101.77C88.8238 101.825 88.7972 101.887 88.7423 101.908C88.7299 101.913 88.7157 101.915 88.7033 101.915V101.917Z" fill="#495057"/>
<path d="M183.643 81.5098C183.615 81.5098 183.588 81.4992 183.567 81.478C183.526 81.4355 183.526 81.3684 183.567 81.3259L191.689 73.4014C191.732 73.3607 191.799 73.3607 191.841 73.4014C191.882 73.4438 191.882 73.511 191.841 73.5535L183.719 81.478C183.698 81.4992 183.671 81.508 183.645 81.508L183.643 81.5098Z" fill="#495057"/>
<path d="M188.321 83.3278C188.294 83.3278 188.268 83.3171 188.247 83.2977C188.204 83.257 188.202 83.1881 188.245 83.1456L194.692 76.4959C194.733 76.4535 194.802 76.4535 194.844 76.4942C194.887 76.5348 194.888 76.6038 194.846 76.6462L188.399 83.2959C188.378 83.3171 188.349 83.3278 188.323 83.3278H188.321Z" fill="#495057"/>
<path d="M82.595 102.137C82.5525 102.137 82.5135 102.112 82.4958 102.071L78.8243 93.4199C78.8012 93.3651 78.826 93.3032 78.8809 93.2802C78.9358 93.2572 78.9978 93.282 79.0208 93.3368L82.6924 101.988C82.7154 102.043 82.6906 102.105 82.6357 102.128C82.6216 102.133 82.6074 102.137 82.5932 102.137H82.595Z" fill="#495057"/>
<path fill-rule="evenodd" clip-rule="evenodd" d="M74.03 37.986C72.6304 36.8062 70.9873 36.4039 69.2111 36.2488C65.5517 35.9261 62.0029 36.5876 58.4677 37.3669C57.1963 37.6467 55.9758 38.1395 54.9535 39.0135C54.2726 39.5984 53.7279 40.4502 53.4267 41.3981C53.3136 41.6239 53.2332 41.8815 53.2039 42.1806C53.1883 42.3151 53.1854 42.4533 53.186 42.5905C53.1454 43.038 53.1646 43.4937 53.2486 43.9369C53.7857 48.684 60.5284 109.685 60.6505 110.509C60.7918 111.457 61.4516 112.084 62.2387 112.088C62.9913 112.091 63.6389 111.498 63.8239 110.593C63.887 110.28 63.893 109.943 63.8583 109.621C63.6128 107.218 58.8117 63.7016 57.0413 47.8272C57.6701 48.1206 58.3209 48.3613 59.0087 48.5372C60.5322 48.9232 62.0851 48.85 63.6294 48.9091C64.5521 48.932 65.4786 48.992 66.3999 48.9734C69.5141 48.9158 72.2034 47.9676 74.1205 45.3284C75.3657 43.6109 75.4809 41.7059 75.1584 39.7306C75.043 39.0262 74.5904 38.4646 74.0265 37.9871L74.03 37.986Z" fill="#CED4DA"/>
<path fill-rule="evenodd" clip-rule="evenodd" d="M70.5419 38.2897C70.8843 38.2866 71.1214 38.461 71.1569 38.7476C71.1915 39.0192 70.9892 39.265 70.6593 39.3329C70.4255 39.3787 70.1896 39.4175 69.9507 39.4344C68.5701 39.5343 60.1225 40.4405 58.7911 40.8342C58.7249 40.8547 58.6532 40.8693 58.5852 40.8713C58.2854 40.8765 58.0664 40.7117 58.0201 40.4514C57.9694 40.1772 58.0937 39.9631 58.3955 39.8658C58.9909 39.6697 59.6059 39.5248 60.2216 39.4064C60.9842 39.2577 61.7593 39.1738 62.5329 39.1095C62.8042 39.0864 63.0782 39.0472 63.352 39.0196C63.352 39.0196 70.5084 38.2925 70.543 38.2932L70.5419 38.2897Z" fill="white"/>
<path fill-rule="evenodd" clip-rule="evenodd" d="M70.9066 41.5868C71.2479 41.5802 71.4862 41.7581 71.5251 42.0436C71.5597 42.3152 71.3574 42.561 71.0275 42.629C70.7937 42.6747 70.5578 42.7135 70.3189 42.7304C68.9383 42.8303 60.4907 43.7365 59.1628 44.1291C59.0966 44.1496 59.0248 44.1642 58.9533 44.1673C58.6536 44.1725 58.4346 44.0077 58.3882 43.7474C58.3375 43.4732 58.462 43.2591 58.7637 43.1618C59.3591 42.9657 59.9741 42.8208 60.5897 42.7025C61.3524 42.5537 62.1275 42.4698 62.9011 42.4055C63.1724 42.3824 63.4475 42.3467 63.7166 42.3167C63.7166 42.3167 70.8731 41.5896 70.9077 41.5903L70.9066 41.5868Z" fill="white"/>
<path fill-rule="evenodd" clip-rule="evenodd" d="M69.4117 44.8844C69.6501 44.8906 69.8214 45.074 69.8569 45.3606C69.8915 45.6322 69.7597 45.8714 69.5291 45.9276C69.3693 45.9657 69.2027 45.9945 69.0377 46.0037C68.0777 46.0572 62.2109 46.6744 61.293 47.0238C61.2478 47.0378 61.199 47.0529 61.1495 47.053C60.9421 47.0486 60.7821 46.877 60.7403 46.6191C60.6965 46.3427 60.777 46.1347 60.9828 46.048C61.3945 45.8746 61.8178 45.7509 62.2417 45.6539C62.7686 45.5325 63.308 45.4758 63.8448 45.4353C64.0353 45.422 64.2214 45.3948 64.4132 45.3735C64.4132 45.3735 69.3863 44.8885 69.4093 44.889L69.4117 44.8844Z" fill="white"/>
<path fill-rule="evenodd" clip-rule="evenodd" d="M60.9297 56.4599C58.0588 57.4377 46.5724 61.758 44.7704 63.0949C44.2622 63.4737 43.8794 63.9739 43.671 64.6184C43.634 64.7329 43.6029 64.8417 43.5718 64.9505C43.3437 65.273 43.2206 65.7003 43.2434 66.2045C43.2544 66.449 43.2908 66.6895 43.3317 66.9324C43.3523 67.1588 43.3903 67.3797 43.4505 67.5861C43.4569 67.607 43.46 67.629 43.4629 67.6509C43.4734 67.6477 60.1242 131.936 60.374 132.767C60.6473 133.685 61.39 134.21 62.1726 134.101C62.9182 133.996 63.4753 133.32 63.5248 132.396C63.5442 132.078 63.5006 131.74 63.4231 131.428C62.8321 129.067 51.7032 86.0592 47.7579 70.8973C47.8163 70.9135 47.8769 70.9367 47.9388 70.9518C50.312 71.6047 63.7017 72.6608 64.1191 72.6535C65.2675 72.6293 65.9764 71.864 65.9755 70.5939C65.9775 68.2624 66.0071 65.9337 65.9169 63.6002C65.8562 62.0015 65.9031 60.3809 65.4651 58.7962C64.7065 56.0786 63.8051 55.4844 60.9308 56.4633L60.9297 56.4599Z" fill="#CED4DA"/>
<path fill-rule="evenodd" clip-rule="evenodd" d="M54.7808 103.589C53.5914 100.909 27.178 42.711 26.6972 41.7385C26.2584 40.8521 25.4054 40.4757 24.6154 40.7702C24.4203 40.8421 24.2509 40.948 24.1098 41.0834C22.5608 41.4644 21.0485 41.9638 19.5178 42.404C16.3765 43.3093 13.246 44.2493 10.096 45.1267C8.07749 45.6915 6.0825 46.3443 4.01918 46.7399C3.44985 46.8477 3.11876 47.2441 3.12869 47.7561C3.17281 49.5964 2.94981 51.4242 2.83048 53.2543C2.74804 54.5387 2.44983 55.8901 2.60545 56.3798C2.76108 56.8694 3.51221 57.9756 4.36924 58.1067C5.2091 58.2316 24.628 53.2755 27.9567 52.5563C35.5098 69.1786 51.7082 104.839 52.0034 105.434C52.4336 106.293 53.2528 106.683 54.0049 106.439C54.7186 106.206 55.1507 105.446 55.0445 104.526C55.0063 104.206 54.907 103.885 54.7773 103.59L54.7808 103.589Z" fill="#CED4DA"/>
<path fill-rule="evenodd" clip-rule="evenodd" d="M18.1016 51.1866C18.4404 51.135 18.6989 51.2799 18.7748 51.5616C18.8453 51.8258 18.6782 52.0989 18.3567 52.2062C18.1326 52.2833 17.9007 52.3476 17.668 52.3968C16.3125 52.6759 8.0561 54.6787 6.78907 55.2432C6.7251 55.2707 6.65659 55.2957 6.58722 55.3058C6.29236 55.3514 6.05202 55.2161 5.97085 54.9666C5.88777 54.6986 5.97784 54.4723 6.26313 54.3343C6.8313 54.0628 7.41804 53.8389 8.01236 53.6394C8.74936 53.3956 9.50472 53.211 10.2655 53.0438C10.533 52.9838 10.7972 52.9133 11.0626 52.8463C11.0626 52.8463 18.0635 51.187 18.097 51.1842L18.1016 51.1866Z" fill="white"/>
<path fill-rule="evenodd" clip-rule="evenodd" d="M17.5514 48.0688C17.8913 48.0207 18.1488 48.1621 18.2247 48.4438C18.2951 48.7081 18.128 48.9811 17.8065 49.0884C17.5824 49.1655 17.3471 49.2309 17.1179 49.2791C15.7624 49.5582 7.50595 51.561 6.23892 52.1255C6.17495 52.1529 6.10641 52.178 6.03705 52.188C5.74219 52.2337 5.50187 52.0984 5.4207 51.8489C5.33761 51.5809 5.42766 51.3545 5.71295 51.2165C6.28112 50.945 6.86789 50.7211 7.46328 50.5251C8.20029 50.2813 8.95562 50.0967 9.71637 49.9295C9.98387 49.8695 10.2481 49.799 10.5135 49.732C10.5135 49.732 17.5156 48.0762 17.548 48.0699L17.5514 48.0688Z" fill="white"/>
<path fill-rule="evenodd" clip-rule="evenodd" d="M16.7895 45.615C17.1283 45.5634 17.3868 45.7083 17.4616 45.9865C17.5321 46.2508 17.365 46.5238 17.0435 46.6311C16.8194 46.7082 16.5841 46.7736 16.3549 46.8217C14.9994 47.1008 6.74294 49.1036 5.47591 49.6681C5.41194 49.6956 5.3434 49.7207 5.27404 49.7307C4.97918 49.7764 4.73887 49.6411 4.6577 49.3915C4.57461 49.1236 4.66466 48.8972 4.94995 48.7592C5.51812 48.4877 6.10489 48.2638 6.6992 48.0643C7.43513 47.8171 8.19155 47.636 8.95229 47.4688C9.2198 47.4087 9.48406 47.3382 9.7494 47.2712C9.7494 47.2712 16.7504 45.6119 16.7839 45.6091L16.7895 45.615Z" fill="white"/>
<path fill-rule="evenodd" clip-rule="evenodd" d="M100.093 125.962C98.5386 119.154 94.6674 110.851 87.5614 104.112C86.427 103.037 85.1841 102.018 83.8254 101.192C81.0831 99.5206 78.1748 98.5072 74.643 99.4572C72.3224 100.081 70.4171 99.0545 69.7717 97.3052C69.1296 95.5663 70.0103 93.7558 72.1369 92.6539C72.9224 92.2464 73.7901 91.8705 74.6621 91.7299C78.7976 91.0658 82.6751 91.6986 86.2415 93.5914C94.0524 97.7315 99.1855 104.075 103.176 111.311C107.749 119.602 110.203 128.413 109.327 137.932C109.023 141.269 105.001 150.31 103 153.246C102.518 153.952 101.98 154.653 101.337 155.238C99.8657 156.571 97.7074 156.771 96.189 155.811C94.6991 154.869 94.1853 152.892 94.9934 151.192C98.4536 143.92 102.006 135.738 100.093 125.962Z" fill="#CED4DA"/>
<path d="M95.3511 175.335C94.7507 172.82 91.6614 170.99 88.4046 170.649C86.8073 170.48 84.9952 170.603 82.9681 171.03C79.2104 171.817 75.637 173.039 72.0414 174.226C67.8121 175.622 63.5642 176.969 59.336 178.368C58.8996 178.511 58.4606 178.67 58.0578 178.859C57.5665 179.096 57.1269 179.388 56.8187 179.797C55.1397 182.023 54.037 182.391 54.9466 186.691C55.8562 190.991 61.9857 192.993 64.4564 192.902C66.927 192.811 72.4007 192.526 77.9797 190.796C83.5588 189.067 92.1207 185.096 94.2983 181.747C96.4769 178.401 95.9491 177.855 95.3476 175.336L95.3511 175.335Z" fill="#45AF9A"/>
<path d="M78.9338 106.199C75.2816 99.0948 71.5826 92.0243 67.6185 85.1199C65.8666 86.9754 63.1604 88.6689 59.6076 89.6865C49.1669 92.6793 46.5191 93.4659 36.2047 96.7552C33.8991 97.4891 32.0646 97.2567 30.5107 96.7237C32.8237 115.726 29.651 137.326 34.8256 158.409C35.8256 164.428 41.0184 171.985 48.846 178.062C60.7627 187.311 76.9071 187.383 86.894 177.55C95.3544 169.216 96.3056 158.773 94.2165 147.728C91.4391 133.036 85.7365 119.441 78.9303 106.2L78.9338 106.199Z" fill="#B7D8DF"/>
<path d="M68.1087 85.0019C67.3701 81.8319 64.9963 82.1367 62.0011 82.123C60.5341 82.1162 58.8433 82.3353 56.9334 82.7825C53.3959 83.616 49.9939 84.7508 46.5797 85.8589C42.5632 87.1652 38.5244 88.4364 34.5079 89.7427C34.0948 89.8746 33.6745 90.0202 33.2883 90.1895C32.8172 90.3928 32.3891 90.6362 32.0747 90.9511C30.3579 92.6736 28.813 92.6986 29.851 96.0467C31.6261 101.772 36.5492 100.375 38.2259 99.8402C45.7228 97.4549 53.2609 95.1408 60.8445 92.9613C63.4257 92.2182 65.3968 91.0082 66.682 89.6903C68.2736 88.0562 68.8474 88.172 68.1098 85.0054L68.1087 85.0019Z" fill="#45AF9A"/>
<path d="M90.0189 136.951C85.8181 137.921 85.7853 139.858 85.2336 142.349C84.9635 143.569 84.9413 144.95 85.1798 146.482C85.6199 149.328 85.4037 148.594 86.2223 151.309C87.1818 154.502 88.0971 157.712 89.0601 160.905C89.1615 161.232 89.2686 161.565 89.4155 161.866C89.5945 162.234 89.8296 162.562 90.1786 162.79C92.083 164.023 91.8393 165.304 96.3269 164.065C103.998 161.946 103.08 158.012 102.693 156.678C100.963 150.717 100.402 148.145 98.9509 142.086C98.4573 140.027 97.2512 138.524 95.7908 137.603C93.9766 136.464 94.229 135.974 90.0237 136.942L90.0189 136.951Z" fill="#45AF9A"/>
</svg>
