<svg width="286" height="185" viewBox="0 0 286 185" fill="none" xmlns="http://www.w3.org/2000/svg">
<path d="M284.889 147.509C283.101 145.4 279.428 143.802 275.891 142.586C271.675 141.134 266.949 140.171 262.276 139.259C251.938 137.239 240.851 136.708 229.981 136.154C224.557 135.877 219.12 135.675 213.682 135.539C193.97 135.327 174.224 134.646 154.521 135.233C144.386 135.534 134.294 136.182 124.32 137.169C115.222 138.071 106.206 139.302 97.7168 141.303C93.5432 142.29 89.5252 143.474 85.8185 144.906C82.008 146.377 78.8294 148.125 75.566 149.929C73.8116 150.896 71.9582 151.751 69.7417 152.4C67.5865 153.029 65.2804 153.476 62.9602 153.903C58.1169 154.796 53.3208 155.735 48.6142 156.816C43.7851 157.925 39.0267 159.137 34.4192 160.494C30.8775 161.533 27.133 162.848 25.1665 164.816C20.4411 169.547 29.2128 174.081 36.5225 175.984C44.9924 178.187 54.7073 178.793 63.8562 179.657C74.5426 180.668 85.262 181.588 96.0191 182.349C117.58 183.881 139.34 184.792 161.076 184.459C171.809 184.294 182.524 183.825 193.149 182.988C202.506 182.255 212.197 181.438 221.02 179.54C224.821 178.723 228.429 177.689 231.608 176.289C234.942 174.819 237.437 172.963 239.229 170.853C241.139 168.603 242.53 166.123 245.713 164.281C248.675 162.566 252.617 161.49 256.532 160.541C263.181 158.935 270.203 157.633 276.598 155.74C279.461 154.894 282.37 153.865 284.276 152.4C286.195 150.92 286.27 149.135 284.884 147.509H284.889Z" fill="#D2EBFF"/>
<mask id="mask0_288_34339" style="mask-type:luminance" maskUnits="userSpaceOnUse" x="23" y="135" width="263" height="50">
<path d="M284.889 147.509C283.101 145.4 279.428 143.802 275.891 142.586C271.675 141.134 266.949 140.171 262.276 139.259C251.938 137.239 240.851 136.708 229.981 136.154C224.557 135.877 219.12 135.675 213.682 135.539C193.97 135.327 174.224 134.646 154.521 135.233C144.386 135.534 134.294 136.182 124.32 137.169C115.222 138.071 106.206 139.302 97.7168 141.303C93.5432 142.29 89.5252 143.474 85.8185 144.906C82.008 146.377 78.8294 148.125 75.566 149.929C73.8116 150.896 71.9582 151.751 69.7417 152.4C67.5865 153.029 65.2804 153.476 62.9602 153.903C58.1169 154.796 53.3208 155.735 48.6142 156.816C43.7851 157.925 39.0267 159.137 34.4192 160.494C30.8775 161.533 27.133 162.848 25.1665 164.816C20.4411 169.547 29.2128 174.081 36.5225 175.984C44.9924 178.187 54.7073 178.793 63.8562 179.657C74.5426 180.668 85.262 181.588 96.0191 182.349C117.58 183.881 139.34 184.792 161.076 184.459C171.809 184.294 182.524 183.825 193.149 182.988C202.506 182.255 212.197 181.438 221.02 179.54C224.821 178.723 228.429 177.689 231.608 176.289C234.942 174.819 237.437 172.963 239.229 170.853C241.139 168.603 242.53 166.123 245.713 164.281C248.675 162.566 252.617 161.49 256.532 160.541C263.181 158.935 270.203 157.633 276.598 155.74C279.461 154.894 282.37 153.865 284.276 152.4C286.195 150.92 286.27 149.135 284.884 147.509H284.889Z" fill="white"/>
</mask>
<g mask="url(#mask0_288_34339)">
<path d="M179.902 132.504L60.6072 186.249L107.456 188.316L221.285 132.776L179.902 132.504Z" fill="#F3FAFF"/>
<path d="M236.527 133.58L124.9 188.429L136.407 188.504L246.119 133.641L236.527 133.58Z" fill="#F3FAFF"/>
</g>
<path fill-rule="evenodd" clip-rule="evenodd" d="M13.736 47.491C14.1301 45.8642 15.1125 44.7189 16.3225 43.6986C18.8136 41.5939 21.7449 40.311 24.7285 39.1266C25.8013 38.7002 26.9498 38.4654 28.1557 38.6275C28.9603 38.7377 29.807 39.1244 30.5275 39.7092C30.7293 39.8276 30.924 39.9873 31.1035 40.2051C31.1859 40.3018 31.2612 40.4079 31.3333 40.5149C31.5995 40.8425 31.8266 41.2067 31.9999 41.594C34.1201 45.559 61.4804 96.4292 61.8276 97.1323C62.2263 97.9414 62.078 98.7635 61.5075 99.1652C60.9618 99.5489 60.1768 99.4151 59.5639 98.8053C59.3523 98.5935 59.1694 98.334 59.0247 98.0665C57.9319 96.0724 38.4074 59.7876 31.2988 46.5415C30.9966 47.0883 30.6506 47.6052 30.2433 48.0904C29.3392 49.1624 28.171 49.892 27.0789 50.7202C26.4199 51.2054 25.7776 51.7213 25.0977 52.1735C22.802 53.7062 20.3442 54.3308 17.5538 53.2487C15.7396 52.5434 14.6482 51.1197 13.838 49.4197C13.5494 48.8133 13.5816 48.1471 13.7392 47.49L13.736 47.491Z" fill="#CED4DA"/>
<path fill-rule="evenodd" clip-rule="evenodd" d="M16.539 46.5276C16.2808 46.7055 16.1981 46.9717 16.3276 47.2223C16.4497 47.4603 16.7352 47.5527 17.0195 47.4338C17.2196 47.3477 17.4175 47.2548 17.6058 47.1425C18.6948 46.4959 25.5191 42.778 26.7313 42.3951C26.7921 42.3768 26.8538 42.3508 26.9059 42.3166C27.1334 42.1629 27.2076 41.9141 27.1006 41.679C26.9891 41.4303 26.7793 41.3226 26.5002 41.4028C25.9472 41.5579 25.4073 41.7647 24.8814 41.9933C24.2289 42.2748 23.6023 42.6153 22.9875 42.9709C22.7716 43.0952 22.545 43.2079 22.3248 43.3297C22.3248 43.3297 16.5656 46.5122 16.5401 46.531L16.539 46.5276Z" fill="white"/>
<path fill-rule="evenodd" clip-rule="evenodd" d="M17.9878 49.2312C17.7284 49.4057 17.6468 49.6752 17.7732 49.9268C17.8952 50.1648 18.1808 50.2572 18.465 50.1384C18.6651 50.0522 18.8631 49.9593 19.0513 49.8471C20.1403 49.2005 26.9646 45.4825 28.1737 45.1006C28.2344 45.0823 28.2962 45.0563 28.3515 45.0212C28.5789 44.8674 28.6532 44.6186 28.5461 44.3835C28.4347 44.1349 28.2248 44.0272 27.9457 44.1074C27.3927 44.2624 26.8528 44.4693 26.327 44.6978C25.6744 44.9794 25.0478 45.3199 24.4331 45.6754C24.2172 45.7997 23.9916 45.9158 23.7735 46.0333C23.7735 46.0333 18.0144 49.2158 17.9889 49.2346L17.9878 49.2312Z" fill="white"/>
<path fill-rule="evenodd" clip-rule="evenodd" d="M20.8384 50.962C20.6632 51.0923 20.6348 51.3304 20.7643 51.5803C20.8863 51.8177 21.1152 51.9415 21.3185 51.8657C21.4589 51.8125 21.5993 51.7482 21.7279 51.6689C22.4759 51.2075 27.2052 48.6225 28.0828 48.4222C28.1243 48.4097 28.169 48.3963 28.2062 48.3704C28.3591 48.2578 28.3855 48.0352 28.2763 47.8051C28.1586 47.559 27.9851 47.4334 27.7837 47.4715C27.3811 47.5479 26.9968 47.6706 26.6265 47.815C26.1658 47.9939 25.731 48.2317 25.307 48.4811C25.1572 48.5705 25.003 48.6464 24.8478 48.7299C24.8478 48.7299 20.8597 50.9519 20.8427 50.9644L20.8384 50.962Z" fill="white"/>
<path fill-rule="evenodd" clip-rule="evenodd" d="M33.1984 54.8722C35.7873 54.1806 46.3599 51.73 48.3649 51.857C48.9313 51.8942 49.4709 52.0889 49.9602 52.4837C50.0471 52.5538 50.1268 52.6225 50.2065 52.6913C50.5408 52.8263 50.8544 53.0956 51.1029 53.4983C51.2235 53.6936 51.3235 53.8986 51.4216 54.1077C51.5257 54.2938 51.6143 54.4844 51.6793 54.6749C51.6856 54.6944 51.695 54.713 51.7044 54.7315C51.6951 54.7343 73.4467 113.028 73.7025 113.799C73.9877 114.65 73.7269 115.432 73.1039 115.743C72.5097 116.038 71.7516 115.795 71.2306 115.103C71.049 114.866 70.9032 114.582 70.7954 114.301C69.9816 112.17 55.4228 73.1776 50.3061 59.4201C50.2724 59.4622 50.2408 59.5108 50.204 59.5539C48.8319 61.2593 39.7091 68.8431 39.4036 69.0483C38.5609 69.6097 37.6463 69.374 36.9794 68.3881C35.7527 66.58 34.5075 64.7881 33.3463 62.932C32.55 61.6609 31.6644 60.4271 31.1481 58.9763C30.2682 56.4844 30.6075 55.568 33.1994 54.8755L33.1984 54.8722Z" fill="#CED4DA"/>
<path fill-rule="evenodd" clip-rule="evenodd" d="M63.7675 88.0395C63.2149 85.3516 51.6354 26.6744 51.4706 25.6739C51.3209 24.7617 51.7426 24.0365 52.4736 23.8654C52.6537 23.8225 52.833 23.8191 53.0075 23.8529C54.3368 23.3645 55.7022 22.9869 57.0495 22.5538C59.8156 21.6665 62.5923 20.8118 65.35 19.8984C67.1184 19.3151 68.9164 18.8123 70.6279 18.0746C71.0994 17.87 71.5503 18.0107 71.8141 18.4142C72.7562 19.8688 73.8861 21.1783 74.9418 22.542C75.6818 23.4999 76.6142 24.4005 76.7602 24.8604C76.9061 25.3204 76.9448 26.5619 76.3903 27.0981C75.845 27.6209 59.0844 33.604 56.2803 34.731C59.581 51.4946 66.6661 87.4555 66.7663 88.0682C66.9076 88.9543 66.518 89.6736 65.841 89.8643C65.1982 90.0448 64.4815 89.6726 64.0714 88.9022C63.9298 88.6337 63.8325 88.3343 63.7706 88.0385L63.7675 88.0395Z" fill="#CED4DA"/>
<path fill-rule="evenodd" clip-rule="evenodd" d="M63.215 28.8697C62.9322 29.0083 62.817 29.2652 62.9139 29.5368C63.0053 29.7912 63.2801 29.9259 63.5804 29.8423C63.791 29.7859 64.0003 29.7147 64.2021 29.6309C65.3734 29.136 72.673 26.3698 73.9337 26.1562C73.9968 26.1445 74.062 26.1285 74.1196 26.0997C74.3662 25.9797 74.4729 25.7404 74.3975 25.4923C74.3136 25.2281 74.1222 25.0906 73.8324 25.1297C73.257 25.2104 72.6937 25.3401 72.138 25.4938C71.4509 25.6874 70.7823 25.9394 70.1192 26.2085C69.8854 26.3021 69.6482 26.3854 69.4122 26.4722C69.4122 26.4722 63.2438 28.8497 63.2171 28.8653L63.215 28.8697Z" fill="white"/>
<path fill-rule="evenodd" clip-rule="evenodd" d="M62.001 26.2064C61.7192 26.3484 61.603 26.6019 61.6999 26.8735C61.7913 27.1279 62.0661 27.2627 62.3664 27.179C62.5769 27.1226 62.7895 27.0505 62.9881 26.9676C64.1594 26.4727 71.459 23.7064 72.7197 23.4928C72.7828 23.4812 72.848 23.4651 72.9057 23.4363C73.1522 23.3163 73.2589 23.077 73.1836 22.8289C73.0996 22.5647 72.9082 22.4272 72.6184 22.4663C72.043 22.547 71.4797 22.6767 70.9251 22.8338C70.238 23.0275 69.5694 23.2794 68.9063 23.5485C68.6725 23.6421 68.4353 23.7255 68.1993 23.8122C68.1993 23.8122 62.0319 26.1932 62.0042 26.2054L62.001 26.2064Z" fill="white"/>
<path fill-rule="evenodd" clip-rule="evenodd" d="M61.2953 23.9384C61.0125 24.0769 60.8974 24.3339 60.9931 24.602C61.0846 24.8564 61.3594 24.9912 61.6596 24.9075C61.8702 24.8511 62.0827 24.779 62.2813 24.6961C63.4526 24.2012 70.7522 21.435 72.0129 21.2215C72.076 21.2098 72.1412 21.1938 72.1988 21.165C72.4454 21.045 72.552 20.8057 72.4767 20.5577C72.3927 20.2935 72.2014 20.1559 71.9116 20.195C71.3362 20.2757 70.7729 20.4054 70.2172 20.5591C69.529 20.7493 68.8615 21.0047 68.1984 21.2738C67.9646 21.3674 67.7274 21.4507 67.4914 21.5374C67.4914 21.5374 61.323 23.9149 61.2964 23.9306L61.2953 23.9384Z" fill="white"/>
<path fill-rule="evenodd" clip-rule="evenodd" d="M40.1887 128.768C37.7252 122.692 36.1542 114.283 37.754 105.453C38.0098 104.043 38.374 102.623 38.9236 101.294C40.031 98.6084 41.6059 96.3498 44.6683 95.3013C46.6804 94.6122 47.5208 92.8507 47.0663 91.1651C46.615 89.4892 45.0215 88.5281 42.898 88.7479C42.1135 88.8285 41.286 88.9755 40.5794 89.3073C37.2299 90.8833 34.7514 93.3365 33.1632 96.6112C29.6816 103.779 29.3042 111.304 30.2258 118.944C31.2813 127.7 34.1486 135.786 39.8031 142.739C41.7837 145.177 49.4684 150.167 52.4675 151.436C53.1904 151.741 53.9502 152.013 54.7247 152.142C56.4948 152.434 58.1656 151.498 58.7606 149.984C59.3444 148.498 58.6744 146.702 57.1917 145.79C50.8473 141.891 43.9566 137.331 40.1887 128.768Z" fill="#CED4DA"/>
<path d="M69.5577 163.649C68.6412 161.328 69.9529 158.258 72.198 156.292C73.2984 155.326 74.7172 154.482 76.461 153.768C79.6919 152.442 83.0213 151.56 86.3483 150.638C90.2609 149.552 94.1615 148.419 98.0752 147.337C98.4783 147.224 98.8921 147.123 99.2956 147.065C99.7904 146.998 100.277 147.003 100.729 147.169C103.189 148.074 104.212 147.795 105.866 151.703C107.52 155.612 104.033 160.4 102.14 161.613C100.248 162.825 96.0088 165.445 90.9075 166.965C85.8063 168.485 77.2637 169.767 73.8217 168.224C70.3808 166.684 70.4784 165.973 69.5609 163.648L69.5577 163.649Z" fill="#45AF9A"/>
<path d="M45.9811 101.824C44.8739 94.4255 43.8187 87.0295 43.0459 79.6284C45.3142 80.1861 48.1945 80.1326 51.3345 79.1216C60.5633 76.1524 62.9185 75.4209 72.2127 72.7473C74.2895 72.1486 75.5078 71.0353 76.3609 69.8299C84.7764 85.8314 98.5859 101.072 106.015 120.151C108.485 125.356 108.706 133.89 106.213 142.608C102.416 155.879 90.6458 164.138 78.1103 161.539C67.489 159.335 61.2387 151.67 56.892 141.991C51.1086 129.117 48.0488 115.612 45.9843 101.823L45.9811 101.824Z" fill="#B7D8DF"/>
<path d="M42.9458 80.651C41.7732 77.7062 43.7163 76.7055 45.9512 75.1216C47.0458 74.3457 48.4309 73.6345 50.1043 72.9922C53.2064 71.8068 56.3711 70.9355 59.5304 70.0364C63.2485 68.9807 66.9643 67.8851 70.6825 66.8295C71.0635 66.7189 71.4574 66.6156 71.8387 66.5494C72.3021 66.4659 72.7551 66.4374 73.1619 66.5263C75.3848 67.0141 76.5551 66.2229 77.6005 69.4686C79.3882 75.0185 74.9421 76.4774 73.3955 76.9263C66.4844 78.9393 59.5811 81.0314 52.7171 83.256C50.3801 84.0122 48.2458 84.0713 46.5661 83.6833C44.485 83.201 44.1185 83.5958 42.9469 80.6544L42.9458 80.651Z" fill="#45AF9A"/>
<path d="M53.1271 131.775C56.705 130.4 57.7559 131.892 59.4788 133.552C60.323 134.366 61.0712 135.43 61.7097 136.744C62.8984 139.185 62.6667 138.503 63.509 141.033C64.5026 144.006 65.5376 146.971 66.5281 149.946C66.6276 150.252 66.7261 150.566 66.7789 150.875C66.8435 151.253 66.8458 151.627 66.7119 151.982C65.977 153.908 66.8341 154.782 62.9048 156.093C56.1873 158.333 54.7707 154.803 54.3456 153.568C52.4462 148.048 51.4911 145.759 49.3367 140.305C48.6045 138.45 48.687 136.668 49.2638 135.21C49.9829 133.403 49.5388 133.149 53.1188 131.77L53.1271 131.775Z" fill="#45AF9A"/>
<path d="M112.696 145.306C112.696 145.306 111.515 144.603 110.138 148.003L106.588 154.515C106.588 154.515 94.7934 155.751 95.2314 159.941L127.579 169.126L134.102 153.296C134.102 153.296 135.76 150.833 133.281 150.044L112.696 145.306Z" fill="#705B6F"/>
<path d="M95.2312 159.941L95.3642 161.715L126.766 170.979L127.571 169.119L95.2312 159.941Z" fill="#4C3A54"/>
<path d="M94.6211 98.9173C94.6211 98.9173 94.3552 97.5726 90.9061 98.8156L83.6873 100.528C83.6873 100.528 74.8886 92.5851 72.0574 95.7121L86.8392 125.903L102.982 120.173C102.982 120.173 105.923 119.767 104.851 117.39L94.6211 98.9173Z" fill="#705B6F"/>
<path d="M72.0577 95.7124L70.8298 97.0023L84.9156 126.537L86.8396 125.904L72.0577 95.7124Z" fill="#4C3A54"/>
<path d="M160.529 102.498L137.473 88.911C137.473 88.911 129.065 83.3918 117.709 86.4563L95.02 96.2203C95.02 96.2203 92.924 96.8535 93.6044 99.4568C93.6044 99.4568 93.9329 110.839 102.458 117.124C102.458 117.124 104.71 120.736 107.463 119.954C107.463 119.954 118.249 116.538 123.059 113.864L136.44 121.096L173.082 116.303L160.529 102.49V102.498Z" fill="#45AF9A"/>
<path d="M157.472 105.328L141.916 106.696C141.916 106.696 128.604 107.11 123.724 116.913L112.555 138.271C112.555 138.271 109.247 143.485 112.696 145.306C112.696 145.306 124.568 152.28 133.86 151.232C133.86 151.232 136.769 152.342 139.037 149.364L148.673 134.432L175.718 138.357C175.718 138.357 192.221 140.413 199.408 128.475L157.472 105.335V105.328Z" fill="#379F8B"/>
<path d="M224.983 28.3095C226.125 41.0286 215.746 47.8142 203.131 49.792C186.777 52.3483 180.051 45.1562 178.909 32.4372C177.767 19.7181 187.16 8.48434 199.877 7.34299C212.602 6.20163 223.841 15.5904 224.983 28.3017V28.3095Z" fill="#FFD2EE"/>
<path d="M179.808 28.1846L176.109 33.5396C176.109 33.5396 174.881 35.0562 180.551 36.4711L179.808 28.1846Z" fill="#FFD2EE"/>
<path d="M180.716 28.3094C180.809 29.3413 181.717 30.0996 182.749 30.0058C183.781 29.912 184.54 29.0052 184.446 27.9733C184.352 26.9414 183.445 26.1831 182.413 26.2769C181.38 26.3707 180.622 27.2775 180.716 28.3094Z" fill="#0A032B"/>
<path d="M155.062 102.38C155.062 102.38 166.481 124.074 198.657 130.789C198.657 130.789 202.786 128.811 205.055 124.957L155.054 102.38H155.062Z" fill="#988EB1"/>
<path d="M227.212 46.1958C227.212 46.1958 240.5 51.582 261.985 39.8479C261.985 39.8479 274.952 33.3125 283.149 36.4395C283.149 36.4395 287.919 49.526 281.373 61.7839C281.373 61.7839 275.578 60.7285 261.031 63.7539C261.031 63.7539 233.665 72.2671 220.345 54.8341L227.212 46.1958Z" fill="#45AF9A"/>
<path d="M155.274 73.6198C155.274 73.6198 153.827 75.0583 150.988 75.6446C150.988 75.6446 149.173 76.1214 148.086 76.528C147.757 76.653 147.398 76.5358 147.194 76.2622C146.616 75.4804 145.935 73.8466 148.618 72.2518C148.618 72.2518 139.405 70.4928 140.171 66.4356C140.171 66.4356 140.617 61.3229 145.286 59.9549C145.286 59.9549 147.312 59.134 150.98 61.8232L152.591 62.9255L155.274 73.6277V73.6198Z" fill="#45AF9A"/>
<path d="M185.197 54.1699C185.197 54.1699 182.421 54.3654 166.216 58.9464C166.216 58.9464 160.639 60.0018 156.486 59.5484C156.486 59.5484 154.242 59.5875 153.874 61.2682L151.426 61.5184C151.426 61.5184 150.355 69.3906 155.712 74.5189L157.652 74.8472C157.652 74.8472 160.819 79.6941 174.686 77.7084L185.205 54.1699H185.197Z" fill="#988EB1"/>
<path d="M252.381 103.968C252.381 103.968 252.858 106.844 255.884 111.441L258.121 115.452C258.52 116.163 259.498 116.358 260.084 115.796C260.906 115.014 261.688 113.31 261.218 109.573C261.218 109.573 269.861 110.605 273.091 107.869C273.091 107.869 276.102 105.258 274.28 100.802C274.28 100.802 272.074 94.3834 266.889 95.7593C266.889 95.7593 261.875 96.4941 259.232 95.9547L252.381 103.968Z" fill="#45AF9A"/>
<path d="M184.775 56.1791C184.775 56.1791 183.61 55.8977 174.811 70.5946C174.811 70.5946 162.587 91.3578 156.181 96.3376C156.181 96.3376 152.083 99.9649 154.961 103.6C154.961 103.6 157.683 108.126 172.214 114.552C172.214 114.552 180.685 122.948 192.533 126.021C192.533 126.021 204.375 130.172 207.542 123.652C207.542 123.652 217.365 109.706 220.509 94.4614C220.509 94.4614 239.249 107.9 244.52 104.726C244.52 104.726 246.202 106.086 248.571 106.821C248.571 106.821 260.467 106.164 261.367 94.4536L258.895 91.8816C258.895 91.8816 260.217 88.4497 253.671 84.4472C253.671 84.4472 244.716 78.201 237.442 70.9933C235.964 69.5314 234.619 67.9366 233.383 66.2637C230.513 62.394 223.646 54.1778 219.344 57.5941L184.798 56.1869L184.775 56.1791Z" fill="#AFA4C5"/>
<path d="M183.508 22.6418C183.508 22.6418 186.44 21.1018 187.207 22.9311" stroke="#0A032B" stroke-linecap="round" stroke-linejoin="round"/>
<path d="M181.818 18.9833C181.818 18.9833 183.844 15.567 187.097 14.4961C187.097 14.4961 191.11 30.389 199.58 29.0991C199.58 29.0991 201.652 23.1266 207.213 26.6366C207.213 26.6366 210.795 29.0679 206.431 37.503C206.431 37.503 210.662 43.796 219.32 42.9987C219.32 42.9987 223.567 52.622 235.744 48.5725C235.744 48.5725 241.821 46.2351 236.182 39.8091C236.182 39.8091 232.029 35.0717 222.417 39.4417L208.316 20.7891L187.77 11.5098C187.77 11.5098 183.296 13.6752 181.818 18.9989V18.9833Z" fill="#0A032B"/>
<path d="M204.758 28.1924C204.758 28.1924 199.807 27.5044 202.802 35.8926" stroke="#0A032B" stroke-linecap="round" stroke-linejoin="round"/>
<path d="M201.872 32.0699C201.872 32.0699 203.491 31.5461 204.57 32.5233" stroke="#0A032B" stroke-linecap="round" stroke-linejoin="round"/>
<path d="M181.521 39.9889C181.521 39.9889 185.979 35.9238 188.357 38.8163C188.357 38.8163 191.822 42.8814 185.792 46.1413" stroke="#0A032B" stroke-linecap="round" stroke-linejoin="round"/>
<path d="M226.039 32.7108C226.078 31.6867 225.523 30.733 224.623 30.2874C220.322 28.1454 205.336 20.281 193.167 8.91433C192.541 8.32801 191.681 8.09349 190.852 8.28111C189.608 8.56254 187.77 9.19576 186.112 10.6342C185.604 11.072 185.299 11.6895 185.26 12.3697C185.221 13.0576 185.463 13.7534 185.925 14.2615C189.819 18.5455 203.905 33.0469 221.479 39.6684C221.643 39.7309 221.808 39.77 221.972 39.8013C223.09 39.9889 224.24 39.4338 224.725 38.3941C225.272 37.2371 225.945 35.3062 226.047 32.703L226.039 32.7108Z" fill="#45AF9A"/>
<path d="M191.407 8.89087C191.407 8.89087 195.662 3.56715 218.71 8.68761C218.71 8.68761 223.95 10.126 225.249 18.6862C225.249 18.6862 229.198 31.4834 225.1 31.6085C225.1 31.6085 202.888 26.1285 191.407 8.89087Z" fill="#45AF9A"/>
<path d="M231.592 8.3829C231.522 8.35163 231.444 8.34381 231.373 8.31254C230.795 8.12492 230.216 8.06238 229.629 8.0702C230.005 7.84349 230.396 7.64024 230.802 7.55425C231.663 7.35881 231.897 5.99856 230.857 5.86567C230.779 5.85785 230.708 5.86567 230.63 5.86567C229.926 5.81876 229.254 5.95166 228.597 6.16273C229.058 5.74059 229.512 5.31062 229.981 4.90411C230.802 4.19272 229.84 2.80902 228.996 3.52042C228.495 3.94256 228.01 4.38034 227.517 4.81812C227.862 4.14582 228.221 3.48133 228.612 2.84029C229.136 1.98037 227.807 1.26898 227.189 1.93346C226.845 2.30089 226.516 2.68394 226.196 3.07482C226.274 2.59013 226.352 2.09763 226.407 1.60513C226.501 0.784291 225.476 0.252701 224.913 0.917189C224.499 1.40969 224.108 1.91783 223.732 2.43378C223.576 1.78493 223.372 1.1439 223.106 0.526314C222.794 -0.200714 221.566 -0.200714 221.472 0.690481C221.401 1.38624 221.347 2.082 221.3 2.76994C220.737 1.97255 220.103 1.22989 219.391 0.534131C218.86 0.0103587 217.905 0.573219 217.999 1.27679C218.062 1.77711 218.171 2.2618 218.304 2.74648C217.866 2.48851 217.413 2.25398 216.951 2.04291C216.31 1.74584 215.481 2.41815 215.794 3.11391C216.146 3.91129 216.591 4.64614 217.092 5.34189C216.693 5.30281 216.294 5.26372 215.895 5.24027C215.113 5.19336 214.488 6.16273 215.207 6.73341C215.637 7.07738 216.099 7.35881 216.568 7.61679C215.848 7.80441 215.285 8.14056 215.098 8.92231C214.957 9.50862 215.512 9.91513 216.028 9.90731C216.654 9.90731 217.28 9.90731 217.905 9.8995C217.366 10.4076 217.076 11.0252 217.131 11.7757C217.17 12.3776 217.772 12.6044 218.281 12.4871C218.938 12.3307 219.579 12.1275 220.213 11.9086C219.931 12.4949 219.72 13.1047 219.626 13.7692C219.501 14.6056 220.565 15.0981 221.12 14.4571C221.495 14.0271 221.863 13.605 222.238 13.175C222.207 13.6206 222.176 14.0662 222.129 14.504C222.027 15.4812 223.263 15.833 223.74 15.0043C224.061 14.4493 224.319 13.8708 224.53 13.2767C224.78 13.9021 225.007 14.5431 225.226 15.1841C225.586 16.2317 227.119 15.6219 226.821 14.5822C226.602 13.8239 226.391 13.0656 226.172 12.2995C226.962 12.9171 227.752 13.5346 228.542 14.1522C228.941 14.4649 229.668 14.3946 229.864 13.8552C230.216 12.8936 229.528 12.1118 228.871 11.4786C228.464 11.0878 228.018 10.7282 227.564 10.3842C228.745 10.1809 229.919 9.90731 231.115 10.0324C232.022 10.1262 232.554 8.79723 231.616 8.42199L231.592 8.3829Z" fill="#6097FC"/>
<path d="M193.135 10.4312C193.135 10.4312 202.036 23.2519 223.27 31.085" stroke="#0A032B" stroke-linecap="round" stroke-linejoin="round"/>
<path d="M185.909 47.2907C185.909 47.2907 192.315 44.367 202.333 45.8132C202.333 45.8132 203.28 46.4308 208.387 44.6327C208.387 44.6327 219.438 38.9416 221.526 41.451C221.526 41.451 224.123 40.896 225.39 46.6653C225.39 46.6653 227.877 46.1728 229.981 50.4646C229.981 50.4646 232.703 54.0372 226.477 57.4691C226.477 57.4691 202.138 70.8839 183.743 56.3434C183.743 56.3434 182.116 55.6554 184.048 52.5753C184.048 52.5753 182.155 46.72 185.909 47.2985V47.2907Z" fill="#45AF9A"/>
<path d="M186.05 52.5129C186.05 52.5129 203.272 62.058 222.261 48.4321" stroke="#0A032B" stroke-linecap="round" stroke-linejoin="round"/>
<path d="M217.412 51.4575C217.412 51.4575 211.797 59.9708 197.226 59.6815" stroke="#0A032B" stroke-linecap="round" stroke-linejoin="round"/>
<path d="M184.462 58.5317C184.462 58.5317 170.384 86.4558 166.2 90.0675L158.755 98.2759C158.755 98.2759 156.252 100.348 156.526 102.63" stroke="#0A032B" stroke-linecap="round" stroke-linejoin="round"/>
<path d="M188.646 92.8433C188.646 92.8433 186.918 109.979 193.182 115.678" stroke="#0A032B" stroke-linecap="round" stroke-linejoin="round"/>
<path d="M203.382 67.436C203.382 67.436 208.52 81.7811 219.642 93.6325" stroke="#0A032B" stroke-linecap="round" stroke-linejoin="round"/>
<path d="M246.288 104.03C246.288 104.03 253.53 103.92 258.09 94.0625" stroke="#0A032B" stroke-linecap="round" stroke-linejoin="round"/>
<path d="M153.842 62.5112C153.842 62.5112 152.849 69.891 156.721 73.3854" stroke="#0A032B" stroke-linecap="round" stroke-linejoin="round"/>
<path d="M147.75 129.979C147.75 129.979 146.469 147.209 123.83 142.474C123.83 142.474 134.986 147.398 126.292 162.153C126.292 162.153 144.443 159.884 144.28 175.503C144.28 175.503 156.735 166.014 164.666 176.979C164.666 176.979 158.389 162.207 178.83 155.977C178.83 155.977 165.03 148.64 170.69 141.511C170.69 141.511 151.602 147.587 147.75 129.988V129.979Z" fill="#FFC9C9"/>
<path d="M33.1831 76C33.1831 76 32.4146 86.2647 18.8308 83.4438C18.8308 83.4438 25.5246 86.3773 20.308 95.1672C20.308 95.1672 31.199 93.8157 31.1009 103.12C31.1009 103.12 38.5741 97.4679 43.3328 104C43.3328 104 39.5662 95.1994 51.8308 91.4882C51.8308 91.4882 43.5508 87.1174 46.9468 82.8699C46.9468 82.8699 35.4943 86.4899 33.1831 76.0054V76Z" fill="#FFC9C9"/>
<g clip-path="url(#clip0_288_34339)">
<path d="M201.941 126.339C201.941 126.339 219.941 127.029 228.901 115.479" stroke="#0A032B" stroke-linecap="round" stroke-linejoin="round"/>
<path d="M225.641 125.629C225.641 125.629 219.441 131.879 209.181 131.169" stroke="#0A032B" stroke-linecap="round" stroke-linejoin="round"/>
<path d="M162.331 162.389C162.331 162.389 218.941 186.899 269.171 117.359" stroke="#0A032B" stroke-linecap="round" stroke-linejoin="round"/>
<path d="M167.551 169.159C167.551 169.159 214.131 185.559 253.861 144.079" stroke="#0A032B" stroke-linecap="round" stroke-linejoin="round"/>
<path d="M257.081 140.069C257.491 139.599 260.381 136.159 260.381 136.159" stroke="#0A032B" stroke-linecap="round" stroke-linejoin="round"/>
</g>
<defs>
<clipPath id="clip0_288_34339">
<rect width="107.84" height="57.88" fill="white" transform="translate(161.831 114.979)"/>
</clipPath>
</defs>
</svg>
