<svg width="216" height="219" viewBox="0 0 216 219" fill="none" xmlns="http://www.w3.org/2000/svg">
<path d="M47.9109 69.2532C47.7711 69.2456 47.635 69.2418 47.4951 69.2343C47.6085 69.2834 47.7446 69.2948 47.9109 69.2532Z" fill="#D8B29B"/>
<path d="M69.0457 66.0098C67.2691 65.9833 65.4848 65.8283 63.7157 65.9266C59.4781 66.1572 55.2443 65.9228 51.0105 65.9077C50.8102 65.9077 50.6098 65.9039 50.4095 65.9039C50.4435 64.7434 50.3717 63.5791 50.4208 62.4262C50.7157 55.3686 50.0201 48.3299 50.0466 41.2799C50.0579 38.5128 50.5758 38.9664 47.5063 38.8077C46.8486 38.7736 46.5953 39.0647 46.6029 39.696C46.6293 41.4727 46.5273 43.2607 46.6747 45.026C47.03 49.2561 46.9204 53.4936 47.03 57.7274C47.1018 60.4378 47.1132 63.1482 47.1207 65.8624C47.1207 66.7356 47.1283 67.6088 47.1321 68.482C47.1321 68.86 47.253 69.136 47.4874 69.238C47.6273 69.2456 47.7634 69.2532 47.9032 69.2569C54.3825 69.5858 60.873 69.1927 67.356 69.4082C70.1231 69.4989 69.6544 70.0054 69.9001 66.9435C69.953 66.2857 69.6695 66.0211 69.0382 66.0136L69.0457 66.0098Z" fill="#D8B29B"/>
<path fill-rule="evenodd" clip-rule="evenodd" d="M78.9613 63.0044C77.9936 63.8814 76.9465 64.0628 76.3114 63.545C75.6574 63.0119 75.6196 61.9762 76.3341 61.0349C78.1448 58.6647 85.3082 50.7869 87.2588 48.5301C88.0715 47.5926 89.164 47.4943 89.8293 48.0727C90.487 48.6435 90.5022 49.5848 89.7499 50.5865C87.9581 52.9718 80.7569 60.8194 78.9613 63.0006V63.0044Z" fill="#DDDDDD"/>
<path fill-rule="evenodd" clip-rule="evenodd" d="M95.401 64.8491C96.2137 65.7148 96.4367 66.6031 96.0436 67.0945C95.6391 67.6011 94.7621 67.5633 93.9153 66.9017C91.7795 65.2309 84.6086 58.7139 82.5597 56.9334C81.7092 56.1925 81.5504 55.2739 81.9927 54.7598C82.4312 54.2533 83.2288 54.3062 84.1285 55.0018C86.2756 56.6613 93.4277 63.2047 95.401 64.8529V64.8491Z" fill="#DDDDDD"/>
<path fill-rule="evenodd" clip-rule="evenodd" d="M21.9222 95.578C19.707 95.0904 18.9321 94.478 18.8414 92.9206C18.5427 87.995 18.1987 83.0657 18.1836 78.1364C18.176 74.2692 21.5026 70.7083 25.8876 69.5667C27.5736 69.1282 29.3843 68.9657 31.1496 68.8749C40.2409 68.4251 49.3284 69.0526 58.416 69.0715C60.5556 69.0753 62.6951 69.1509 64.8347 69.1887C72.0322 69.3172 76.0505 72.7874 76.0845 79.0511C76.1072 83.5231 75.9787 87.995 75.9031 92.467C75.8615 94.9846 75.0336 95.8238 72.1645 95.8767C63.9691 96.0355 55.7736 96.1942 47.5744 96.198C40.2674 96.198 32.9641 96.0128 25.657 95.8729C24.2357 95.8465 22.8181 95.6499 21.9146 95.578H21.9222Z" fill="#C83B30"/>
<path fill-rule="evenodd" clip-rule="evenodd" d="M12.9442 4.6349C13.0198 4.04898 13.0273 3.45171 13.1823 2.87712C13.5036 1.70905 14.5432 1.03618 15.802 1.10801C17.1099 1.17983 18.0776 2.01903 18.1306 3.21357C18.1873 4.52151 18.1041 81.6332 18.0625 85.1715C18.0587 85.5608 17.9907 85.9653 17.8395 86.332C17.3972 87.3942 16.2934 88.018 15.1291 87.9121C13.9043 87.8063 12.9933 86.9633 12.9404 85.8103C12.8912 84.7632 12.9631 4.63869 12.9442 4.63869V4.6349Z" fill="#B7D8DF"/>
<path fill-rule="evenodd" clip-rule="evenodd" d="M95.0576 6.71767C94.9329 6.13931 94.7363 5.57606 94.6909 4.98257C94.6002 3.77292 95.3563 2.79385 96.5659 2.43473C97.8209 2.06427 99.0155 2.52546 99.4653 3.63305C99.9605 4.84649 125.772 77.509 126.921 80.8544C127.045 81.2211 127.121 81.6256 127.102 82.0225C127.045 83.1717 126.214 84.128 125.08 84.4229C123.893 84.7329 122.751 84.249 122.309 83.1754C121.912 82.2077 95.0727 6.70633 95.0576 6.71389V6.71767Z" fill="#B7D8DF"/>
<path fill-rule="evenodd" clip-rule="evenodd" d="M13.4882 5.20556C12.9023 5.12996 12.305 5.12618 11.7304 4.96741C10.5623 4.6461 9.88946 3.60655 9.96128 2.34775C10.0331 1.03981 10.8723 0.0720881 12.0668 0.0191657C13.3748 -0.0375369 96.2173 0.0456241 99.7555 0.087206C100.145 0.0909862 100.546 0.159028 100.916 0.310235C101.978 0.752515 102.602 1.85633 102.5 3.02062C102.394 4.2454 101.551 5.15642 100.398 5.20935C99.351 5.25849 13.4957 5.18666 13.4957 5.20556H13.4882Z" fill="#FF5C50"/>
<path fill-rule="evenodd" clip-rule="evenodd" d="M92.982 92.7772C93.6587 94.9923 94.9213 95.9601 97.4578 96.0357C104.583 96.2511 103.249 96.4968 110.378 96.5082C119.545 96.5233 125.027 96.3381 134.197 96.202C139.183 96.1302 140.48 95.1171 140.544 91.0685C140.639 85.2546 140.567 79.4407 140.642 73.623C140.673 71.2529 139.917 69.17 138.548 67.1098C135.978 63.2275 132.349 61.1371 127.106 61.2996C122.83 61.432 122.244 61.6739 117.969 61.6701C109.21 61.6626 108.915 61.5227 100.157 61.4395C99.3403 61.432 98.52 61.3828 97.711 61.4395C95.1934 61.6247 93.5982 62.9327 93.2429 65.0496C93.1824 65.4011 93.1333 65.7527 93.1295 66.1043C92.982 74.0313 92.8233 81.9583 92.7137 89.8891C92.6985 90.9438 92.9102 91.9947 92.9896 92.7772H92.982Z" fill="#FF5C50"/>
<path fill-rule="evenodd" clip-rule="evenodd" d="M139.868 94.3722C138.59 83.508 129.37 73.6417 119.87 73.6455C105.929 73.6531 94.6794 82.9636 94.0557 94.788C94.8117 95.6007 95.8928 95.9863 97.4578 96.0355C104.583 96.2509 103.249 96.4966 110.378 96.508C119.545 96.5231 125.027 96.3379 134.197 96.2018C137.376 96.1564 139.055 95.7255 139.871 94.3722H139.868Z" fill="#C83B30"/>
<path fill-rule="evenodd" clip-rule="evenodd" d="M2.01904 92.7771C2.69569 94.9923 3.95826 95.96 6.49476 96.0356C13.6204 96.2511 9.31855 96.4968 16.448 96.5081C25.6149 96.5232 34.7856 96.338 43.9525 96.2019C48.9385 96.1301 50.2351 95.117 50.2994 91.0684C50.3939 85.2545 50.3221 79.4407 50.3977 73.623C50.4279 71.2528 49.6719 69.1699 48.3035 67.1097C45.733 63.2275 42.104 61.137 36.8609 61.2996C32.5855 61.4319 28.3101 61.6738 24.0385 61.6701C15.2799 61.6625 17.9525 61.5226 9.19002 61.4395C8.37351 61.4319 7.55321 61.3828 6.74425 61.4395C4.22666 61.6247 2.63142 62.9326 2.27609 65.0495C2.21561 65.4011 2.16646 65.7526 2.16268 66.1042C2.01526 74.0312 1.86027 81.9582 1.74686 89.889C1.73174 90.9437 1.94343 91.9946 2.02282 92.7771H2.01904Z" fill="#FF5C50"/>
<path fill-rule="evenodd" clip-rule="evenodd" d="M28.382 74.2128C14.7583 74.2203 3.7693 83.3381 3.20605 94.9016C3.95453 95.635 5.00542 95.9903 6.49102 96.0319C13.6166 96.2474 9.31481 96.4931 16.4442 96.5044C25.6111 96.5196 34.7818 96.3343 43.9488 96.1982C45.7292 96.1718 47.0372 96.0244 47.9898 95.6653C47.3358 84.5931 38.0025 74.2052 28.3782 74.209L28.382 74.2128Z" fill="#C83B30"/>
<path fill-rule="evenodd" clip-rule="evenodd" d="M3.4901 100.111C2.91174 100.035 2.31825 100.031 1.755 99.8725C0.598271 99.5512 -0.0632596 98.5116 0.00478353 97.2528C0.0766068 95.9449 0.904465 94.9772 2.08388 94.9243C3.3767 94.8676 136.495 94.9507 139.992 94.9923C140.378 94.9961 140.775 95.0641 141.138 95.2153C142.188 95.6576 142.801 96.7614 142.703 97.9257C142.597 99.1505 141.765 100.062 140.623 100.114C139.588 100.164 3.4901 100.092 3.4901 100.111Z" fill="#ADB5BD"/>
<path fill-rule="evenodd" clip-rule="evenodd" d="M119.231 78.7412C108.099 78.7488 99.1737 86.3961 99.1699 95.9486C99.1699 104.42 105.831 114.35 115.685 114.082C127.994 113.746 134.843 107.909 134.87 96.8369C134.889 87.6511 127.185 78.7374 119.228 78.7412H119.231Z" fill="#868E96"/>
<path fill-rule="evenodd" clip-rule="evenodd" d="M119.261 84.4872C124.368 84.3851 128.666 89.7794 128.643 96.4552C128.621 102.231 125.03 108.801 116.585 108.332C109.576 107.943 105.452 103.932 105.361 96.2359C105.274 89.1821 110.635 84.6497 119.265 84.4834L119.261 84.4872Z" fill="#DDDDDD"/>
<path fill-rule="evenodd" clip-rule="evenodd" d="M117.431 94.1492C118.403 94.1303 119.219 95.1548 119.216 96.4249C119.212 97.5249 118.528 98.7762 116.921 98.6855C115.587 98.6098 114.804 97.85 114.785 96.3833C114.77 95.0414 115.787 94.1795 117.431 94.1492Z" fill="#868E96"/>
<path fill-rule="evenodd" clip-rule="evenodd" d="M117.163 86.2185C117.538 86.2109 117.851 86.6041 117.848 87.0917C117.848 87.5151 117.583 87.9914 116.967 87.9574C116.457 87.9309 116.154 87.6361 116.147 87.0728C116.139 86.5587 116.532 86.2261 117.163 86.2147V86.2185Z" fill="#ADB5BD"/>
<path fill-rule="evenodd" clip-rule="evenodd" d="M108.367 91.2914C108.548 90.9625 109.044 90.8906 109.467 91.1364C109.83 91.348 110.117 91.8168 109.777 92.3309C109.497 92.7618 109.093 92.8752 108.601 92.5993C108.151 92.346 108.061 91.8433 108.367 91.2914Z" fill="#ADB5BD"/>
<path fill-rule="evenodd" clip-rule="evenodd" d="M108.363 101.449C108.171 101.131 108.356 100.662 108.779 100.42C109.146 100.213 109.69 100.197 109.97 100.749C110.201 101.207 110.098 101.615 109.615 101.899C109.172 102.163 108.688 101.989 108.363 101.449Z" fill="#ADB5BD"/>
<path fill-rule="evenodd" clip-rule="evenodd" d="M117.156 106.53C116.782 106.537 116.468 106.144 116.472 105.656C116.472 105.237 116.736 104.753 117.353 104.791C117.863 104.817 118.165 105.112 118.173 105.675C118.18 106.189 117.787 106.522 117.16 106.533L117.156 106.53Z" fill="#ADB5BD"/>
<path fill-rule="evenodd" clip-rule="evenodd" d="M125.953 101.456C125.771 101.785 125.276 101.857 124.853 101.615C124.49 101.403 124.202 100.935 124.543 100.421C124.822 99.9935 125.227 99.8763 125.718 100.152C126.168 100.406 126.259 100.908 125.953 101.46V101.456Z" fill="#ADB5BD"/>
<path fill-rule="evenodd" clip-rule="evenodd" d="M125.956 91.299C126.149 91.6203 125.964 92.0853 125.544 92.331C125.177 92.5389 124.629 92.554 124.353 92.0021C124.123 91.5447 124.225 91.1402 124.709 90.8491C125.151 90.5883 125.635 90.7622 125.96 91.299H125.956Z" fill="#ADB5BD"/>
<path fill-rule="evenodd" clip-rule="evenodd" d="M27.8153 78.7412C16.6827 78.7488 7.75769 86.3961 7.75391 95.9486C7.75391 104.42 14.4146 114.35 24.2695 114.082C36.5777 113.746 43.4274 107.909 43.4539 96.8369C43.4728 87.6511 35.7688 78.7374 27.8115 78.7412H27.8153Z" fill="#868E96"/>
<path fill-rule="evenodd" clip-rule="evenodd" d="M27.8459 84.4872C32.9529 84.3851 37.251 89.7794 37.2283 96.4552C37.2056 102.231 33.6145 108.801 25.1658 108.332C18.1573 107.943 14.0332 103.932 13.9424 96.2359C13.8555 89.1821 19.2158 84.6497 27.8459 84.4834V84.4872Z" fill="#DDDDDD"/>
<path fill-rule="evenodd" clip-rule="evenodd" d="M26.0154 94.1492C26.9869 94.1303 27.8034 95.1548 27.7997 96.4249C27.7959 97.5249 27.1117 98.7762 25.5051 98.6855C24.1707 98.6098 23.3882 97.85 23.3693 96.3833C23.3542 95.0414 24.3711 94.1795 26.0154 94.1492Z" fill="#868E96"/>
<path fill-rule="evenodd" clip-rule="evenodd" d="M25.7474 86.2185C26.1217 86.2109 26.4354 86.6041 26.4317 87.0917C26.4317 87.5151 26.167 87.9914 25.5509 87.9574C25.0405 87.9309 24.7381 87.6361 24.7306 87.0728C24.723 86.5587 25.1162 86.2261 25.7474 86.2147V86.2185Z" fill="#ADB5BD"/>
<path fill-rule="evenodd" clip-rule="evenodd" d="M16.9509 91.2914C17.1323 90.9625 17.6275 90.8906 18.0509 91.1364C18.4138 91.348 18.7011 91.8168 18.3609 92.3309C18.0811 92.7618 17.6767 92.8752 17.1852 92.5993C16.7354 92.346 16.6447 91.8433 16.9509 91.2914Z" fill="#ADB5BD"/>
<path fill-rule="evenodd" clip-rule="evenodd" d="M16.9473 101.449C16.7545 101.131 16.9398 100.662 17.3632 100.42C17.7298 100.213 18.2742 100.197 18.5539 100.749C18.7845 101.207 18.6824 101.615 18.1986 101.899C17.7563 102.163 17.2724 101.989 16.9473 101.449Z" fill="#ADB5BD"/>
<path fill-rule="evenodd" clip-rule="evenodd" d="M25.7399 106.53C25.3657 106.537 25.0519 106.144 25.0557 105.656C25.0557 105.237 25.3203 104.753 25.9365 104.791C26.4468 104.817 26.7492 105.112 26.7568 105.675C26.7643 106.189 26.3712 106.522 25.7437 106.533L25.7399 106.53Z" fill="#ADB5BD"/>
<path fill-rule="evenodd" clip-rule="evenodd" d="M34.5366 101.456C34.3551 101.785 33.8599 101.857 33.4365 101.615C33.0736 101.403 32.7864 100.935 33.1266 100.421C33.4063 99.9935 33.8108 99.8763 34.3022 100.152C34.752 100.406 34.8428 100.908 34.5366 101.46V101.456Z" fill="#ADB5BD"/>
<path fill-rule="evenodd" clip-rule="evenodd" d="M34.54 91.299C34.7328 91.6203 34.5476 92.0853 34.128 92.331C33.7613 92.5389 33.2132 92.554 32.9372 92.0021C32.7067 91.5447 32.8087 91.1402 33.2926 90.8491C33.7349 90.5883 34.2187 90.7622 34.5438 91.299H34.54Z" fill="#ADB5BD"/>
<path d="M150.17 214.34C175.669 214.34 196.34 193.669 196.34 168.17C196.34 142.671 175.669 122 150.17 122C124.671 122 104 142.671 104 168.17C104 193.669 124.671 214.34 150.17 214.34Z" fill="white"/>
<path d="M149.78 158.86C153.767 158.86 157 155.627 157 151.64C157 147.652 153.767 144.42 149.78 144.42C145.792 144.42 142.56 147.652 142.56 151.64C142.56 155.627 145.792 158.86 149.78 158.86Z" fill="#E9ECEF"/>
<path d="M131.89 159.12C135.623 159.12 138.65 156.094 138.65 152.36C138.65 148.627 135.623 145.6 131.89 145.6C128.156 145.6 125.13 148.627 125.13 152.36C125.13 156.094 128.156 159.12 131.89 159.12Z" fill="#E9ECEF"/>
<path d="M141.48 143.81C145.213 143.81 148.24 140.783 148.24 137.05C148.24 133.317 145.213 130.29 141.48 130.29C137.746 130.29 134.72 133.317 134.72 137.05C134.72 140.783 137.746 143.81 141.48 143.81Z" fill="#E9ECEF"/>
<path d="M116.42 159.8C119.59 159.8 122.16 157.23 122.16 154.06C122.16 150.89 119.59 148.32 116.42 148.32C113.25 148.32 110.68 150.89 110.68 154.06C110.68 157.23 113.25 159.8 116.42 159.8Z" fill="#E9ECEF"/>
<path d="M125.719 144.92C128.89 144.92 131.459 142.35 131.459 139.18C131.459 136.01 128.89 133.44 125.719 133.44C122.549 133.44 119.979 136.01 119.979 139.18C119.979 142.35 122.549 144.92 125.719 144.92Z" fill="#E9ECEF"/>
<path d="M143.08 122.83C143.08 126.53 146.08 129.53 149.78 129.53C153.48 129.53 156.48 126.27 156.48 122.56C156.48 122.56 149.61 121.44 143.67 122.68L143.07 122.82L143.08 122.83Z" fill="#E9ECEF"/>
<path d="M109.79 145.9C110.22 146 110.67 146.06 111.13 146.06C114.3 146.06 116.87 143.49 116.87 140.32C116.87 139.13 116.51 138.03 115.89 137.11C115.89 137.11 112.2 140.73 109.89 145.67L109.79 145.9Z" fill="#E9ECEF"/>
<path d="M158.46 143.81C162.194 143.81 165.22 140.783 165.22 137.05C165.22 133.317 162.194 130.29 158.46 130.29C154.727 130.29 151.7 133.317 151.7 137.05C151.7 140.783 154.727 143.81 158.46 143.81Z" fill="#E9ECEF"/>
<path d="M174.219 144.92C177.39 144.92 179.959 142.35 179.959 139.18C179.959 136.01 177.39 133.44 174.219 133.44C171.049 133.44 168.479 136.01 168.479 139.18C168.479 142.35 171.049 144.92 174.219 144.92Z" fill="#E9ECEF"/>
<path d="M190.15 145.9C189.72 146 189.27 146.06 188.81 146.06C185.64 146.06 183.07 143.49 183.07 140.32C183.07 139.13 183.43 138.03 184.05 137.11C184.05 137.11 187.74 140.73 190.05 145.67L190.15 145.9Z" fill="#E9ECEF"/>
<path d="M129.3 127.17C129.6 127.5 129.93 127.8 130.32 128.06C132.93 129.86 136.5 129.2 138.3 126.59C138.97 125.61 139.3 124.5 139.31 123.39C139.31 123.39 134.22 124.27 129.52 127.04L129.31 127.17H129.3Z" fill="#E9ECEF"/>
<path d="M170.79 127.17C170.49 127.5 170.16 127.8 169.77 128.06C167.16 129.86 163.59 129.2 161.79 126.59C161.12 125.61 160.79 124.5 160.78 123.39C160.78 123.39 165.87 124.27 170.57 127.04L170.78 127.17H170.79Z" fill="#E9ECEF"/>
<path d="M167.739 159.12C171.473 159.12 174.499 156.094 174.499 152.36C174.499 148.627 171.473 145.6 167.739 145.6C164.006 145.6 160.979 148.627 160.979 152.36C160.979 156.094 164.006 159.12 167.739 159.12Z" fill="#E9ECEF"/>
<path d="M183.21 159.8C186.38 159.8 188.95 157.23 188.95 154.06C188.95 150.89 186.38 148.32 183.21 148.32C180.04 148.32 177.47 150.89 177.47 154.06C177.47 157.23 180.04 159.8 183.21 159.8Z" fill="#E9ECEF"/>
<path d="M149.78 191.91C153.767 191.91 157 188.677 157 184.69C157 180.702 153.767 177.47 149.78 177.47C145.792 177.47 142.56 180.702 142.56 184.69C142.56 188.677 145.792 191.91 149.78 191.91Z" fill="#E9ECEF"/>
<path d="M131.89 190.74C135.623 190.74 138.65 187.713 138.65 183.98C138.65 180.247 135.623 177.22 131.89 177.22C128.156 177.22 125.13 180.247 125.13 183.98C125.13 187.713 128.156 190.74 131.89 190.74Z" fill="#E9ECEF"/>
<path d="M141.48 206.05C145.213 206.05 148.24 203.023 148.24 199.29C148.24 195.557 145.213 192.53 141.48 192.53C137.746 192.53 134.72 195.557 134.72 199.29C134.72 203.023 137.746 206.05 141.48 206.05Z" fill="#E9ECEF"/>
<path d="M116.42 188.02C119.59 188.02 122.16 185.45 122.16 182.28C122.16 179.11 119.59 176.54 116.42 176.54C113.25 176.54 110.68 179.11 110.68 182.28C110.68 185.45 113.25 188.02 116.42 188.02Z" fill="#E9ECEF"/>
<path d="M125.719 202.9C128.89 202.9 131.459 200.33 131.459 197.16C131.459 193.99 128.89 191.42 125.719 191.42C122.549 191.42 119.979 193.99 119.979 197.16C119.979 200.33 122.549 202.9 125.719 202.9Z" fill="#E9ECEF"/>
<path d="M143.08 213.51C143.08 209.81 146.08 206.81 149.78 206.81C153.48 206.81 156.48 209.81 156.48 213.51C156.48 213.51 149.55 215.34 143.67 213.65L143.07 213.51H143.08Z" fill="#E9ECEF"/>
<path d="M109.79 190.43C110.22 190.33 110.67 190.27 111.13 190.27C114.3 190.27 116.87 192.84 116.87 196.01C116.87 197.2 116.51 198.3 115.89 199.22C115.89 199.22 112.2 195.6 109.89 190.66L109.79 190.43Z" fill="#E9ECEF"/>
<path d="M158.46 206.05C162.194 206.05 165.22 203.023 165.22 199.29C165.22 195.557 162.194 192.53 158.46 192.53C154.727 192.53 151.7 195.557 151.7 199.29C151.7 203.023 154.727 206.05 158.46 206.05Z" fill="#E9ECEF"/>
<path d="M174.219 202.9C177.39 202.9 179.959 200.33 179.959 197.16C179.959 193.99 177.39 191.42 174.219 191.42C171.049 191.42 168.479 193.99 168.479 197.16C168.479 200.33 171.049 202.9 174.219 202.9Z" fill="#E9ECEF"/>
<path d="M190.351 190.43C189.921 190.33 189.471 190.27 189.011 190.27C185.841 190.27 183.271 192.84 183.271 196.01C183.271 197.2 183.631 198.3 184.251 199.22C184.251 199.22 187.941 195.6 190.251 190.66L190.351 190.43Z" fill="#E9ECEF"/>
<path d="M129.3 209.17C129.6 208.84 129.93 208.54 130.32 208.28C132.93 206.48 136.5 207.14 138.3 209.75C138.97 210.73 139.3 211.84 139.31 212.95C139.31 212.95 134.22 212.07 129.52 209.3L129.31 209.17H129.3Z" fill="#E9ECEF"/>
<path d="M170.27 209.4C169.97 209.07 169.64 208.77 169.25 208.51C166.64 206.71 163.07 207.37 161.27 209.98C160.6 210.96 160.27 212.07 160.26 213.18C160.26 213.18 165.35 212.3 170.05 209.53L170.26 209.4H170.27Z" fill="#E9ECEF"/>
<path d="M167.739 190.74C171.473 190.74 174.499 187.713 174.499 183.98C174.499 180.247 171.473 177.22 167.739 177.22C164.006 177.22 160.979 180.247 160.979 183.98C160.979 187.713 164.006 190.74 167.739 190.74Z" fill="#E9ECEF"/>
<path d="M183.21 188.02C186.38 188.02 188.95 185.45 188.95 182.28C188.95 179.11 186.38 176.54 183.21 176.54C180.04 176.54 177.47 179.11 177.47 182.28C177.47 185.45 180.04 188.02 183.21 188.02Z" fill="#E9ECEF"/>
<path d="M140.15 175.1C144.137 175.1 147.37 171.867 147.37 167.88C147.37 163.892 144.137 160.66 140.15 160.66C136.162 160.66 132.93 163.892 132.93 167.88C132.93 171.867 136.162 175.1 140.15 175.1Z" fill="#E9ECEF"/>
<path d="M123.071 175.1C127.058 175.1 130.291 171.867 130.291 167.88C130.291 163.892 127.058 160.66 123.071 160.66C119.083 160.66 115.851 163.892 115.851 167.88C115.851 171.867 119.083 175.1 123.071 175.1Z" fill="#E9ECEF"/>
<path d="M160.199 175.1C164.187 175.1 167.419 171.867 167.419 167.88C167.419 163.892 164.187 160.66 160.199 160.66C156.212 160.66 152.979 163.892 152.979 167.88C152.979 171.867 156.212 175.1 160.199 175.1Z" fill="#E9ECEF"/>
<path d="M177.28 175.1C181.267 175.1 184.5 171.867 184.5 167.88C184.5 163.892 181.267 160.66 177.28 160.66C173.292 160.66 170.06 163.892 170.06 167.88C170.06 171.867 173.292 175.1 177.28 175.1Z" fill="#E9ECEF"/>
<path d="M195.89 174.33L195.76 175.11C191.77 175.11 188.54 171.88 188.54 167.89C188.54 163.9 191.77 160.67 195.76 160.67C195.76 160.67 197.07 168.42 195.89 174.33Z" fill="#E9ECEF"/>
<path d="M104.5 174.33L104.63 175.11C108.62 175.11 111.85 171.88 111.85 167.89C111.85 163.9 108.62 160.67 104.63 160.67C104.63 160.67 103.32 168.42 104.5 174.33Z" fill="#E9ECEF"/>
<rect x="98" y="174" width="103" height="45" fill="#D9E7FF"/>
<path d="M149.91 191.6C186.311 191.6 215.82 182.552 215.82 171.39C215.82 160.228 186.311 151.18 149.91 151.18C113.509 151.18 84 160.228 84 171.39C84 182.552 113.509 191.6 149.91 191.6Z" fill="#45AF9A"/>
<mask id="mask0_288_34489" style="mask-type:alpha" maskUnits="userSpaceOnUse" x="84" y="151" width="132" height="41">
<path d="M149.91 191.6C186.311 191.6 215.82 182.552 215.82 171.39C215.82 160.228 186.311 151.18 149.91 151.18C113.509 151.18 84 160.228 84 171.39C84 182.552 113.509 191.6 149.91 191.6Z" fill="#45AF9A"/>
</mask>
<g mask="url(#mask0_288_34489)">
<path d="M149.88 214.34C175.379 214.34 196.05 193.669 196.05 168.17C196.05 142.671 175.379 122 149.88 122C124.381 122 103.71 142.671 103.71 168.17C103.71 193.669 124.381 214.34 149.88 214.34Z" fill="white"/>
<path d="M149.49 158.86C153.477 158.86 156.71 155.627 156.71 151.64C156.71 147.652 153.477 144.42 149.49 144.42C145.502 144.42 142.27 147.652 142.27 151.64C142.27 155.627 145.502 158.86 149.49 158.86Z" fill="#E9ECEF"/>
<path d="M131.6 159.12C135.333 159.12 138.36 156.094 138.36 152.36C138.36 148.627 135.333 145.6 131.6 145.6C127.866 145.6 124.84 148.627 124.84 152.36C124.84 156.094 127.866 159.12 131.6 159.12Z" fill="#E9ECEF"/>
<path d="M116.13 159.8C119.3 159.8 121.87 157.23 121.87 154.06C121.87 150.89 119.3 148.32 116.13 148.32C112.96 148.32 110.39 150.89 110.39 154.06C110.39 157.23 112.96 159.8 116.13 159.8Z" fill="#E9ECEF"/>
<path d="M167.449 159.12C171.183 159.12 174.209 156.094 174.209 152.36C174.209 148.627 171.183 145.6 167.449 145.6C163.716 145.6 160.689 148.627 160.689 152.36C160.689 156.094 163.716 159.12 167.449 159.12Z" fill="#E9ECEF"/>
<path d="M182.92 159.8C186.09 159.8 188.66 157.23 188.66 154.06C188.66 150.89 186.09 148.32 182.92 148.32C179.75 148.32 177.18 150.89 177.18 154.06C177.18 157.23 179.75 159.8 182.92 159.8Z" fill="#E9ECEF"/>
<path d="M149.49 191.91C153.477 191.91 156.71 188.677 156.71 184.69C156.71 180.702 153.477 177.47 149.49 177.47C145.502 177.47 142.27 180.702 142.27 184.69C142.27 188.677 145.502 191.91 149.49 191.91Z" fill="#E9ECEF"/>
<path d="M131.6 190.74C135.333 190.74 138.36 187.713 138.36 183.98C138.36 180.247 135.333 177.22 131.6 177.22C127.866 177.22 124.84 180.247 124.84 183.98C124.84 187.713 127.866 190.74 131.6 190.74Z" fill="#E9ECEF"/>
<path d="M116.13 188.02C119.3 188.02 121.87 185.45 121.87 182.28C121.87 179.11 119.3 176.54 116.13 176.54C112.96 176.54 110.39 179.11 110.39 182.28C110.39 185.45 112.96 188.02 116.13 188.02Z" fill="#E9ECEF"/>
<path d="M125.429 202.9C128.6 202.9 131.169 200.33 131.169 197.16C131.169 193.99 128.6 191.42 125.429 191.42C122.259 191.42 119.689 193.99 119.689 197.16C119.689 200.33 122.259 202.9 125.429 202.9Z" fill="#E9ECEF"/>
<path d="M109.5 190.43C109.93 190.33 110.38 190.27 110.84 190.27C114.01 190.27 116.58 192.84 116.58 196.01C116.58 197.2 116.22 198.3 115.6 199.22C115.6 199.22 111.91 195.6 109.6 190.66L109.5 190.43Z" fill="#E9ECEF"/>
<path d="M173.929 202.9C177.1 202.9 179.669 200.33 179.669 197.16C179.669 193.99 177.1 191.42 173.929 191.42C170.759 191.42 168.189 193.99 168.189 197.16C168.189 200.33 170.759 202.9 173.929 202.9Z" fill="#E9ECEF"/>
<path d="M190.06 190.43C189.63 190.33 189.18 190.27 188.72 190.27C185.55 190.27 182.98 192.84 182.98 196.01C182.98 197.2 183.34 198.3 183.96 199.22C183.96 199.22 187.65 195.6 189.96 190.66L190.06 190.43Z" fill="#E9ECEF"/>
<path d="M167.449 190.74C171.183 190.74 174.209 187.713 174.209 183.98C174.209 180.247 171.183 177.22 167.449 177.22C163.716 177.22 160.689 180.247 160.689 183.98C160.689 187.713 163.716 190.74 167.449 190.74Z" fill="#E9ECEF"/>
<path d="M182.92 188.02C186.09 188.02 188.66 185.45 188.66 182.28C188.66 179.11 186.09 176.54 182.92 176.54C179.75 176.54 177.18 179.11 177.18 182.28C177.18 185.45 179.75 188.02 182.92 188.02Z" fill="#E9ECEF"/>
<path d="M139.86 175.1C143.847 175.1 147.08 171.867 147.08 167.88C147.08 163.892 143.847 160.66 139.86 160.66C135.872 160.66 132.64 163.892 132.64 167.88C132.64 171.867 135.872 175.1 139.86 175.1Z" fill="#E9ECEF"/>
<path d="M122.781 175.1C126.768 175.1 130.001 171.867 130.001 167.88C130.001 163.892 126.768 160.66 122.781 160.66C118.793 160.66 115.561 163.892 115.561 167.88C115.561 171.867 118.793 175.1 122.781 175.1Z" fill="#E9ECEF"/>
<path d="M159.909 175.1C163.897 175.1 167.129 171.867 167.129 167.88C167.129 163.892 163.897 160.66 159.909 160.66C155.922 160.66 152.689 163.892 152.689 167.88C152.689 171.867 155.922 175.1 159.909 175.1Z" fill="#E9ECEF"/>
<path d="M176.99 175.1C180.977 175.1 184.21 171.867 184.21 167.88C184.21 163.892 180.977 160.66 176.99 160.66C173.002 160.66 169.77 163.892 169.77 167.88C169.77 171.867 173.002 175.1 176.99 175.1Z" fill="#E9ECEF"/>
<path d="M195.6 174.33L195.47 175.11C191.48 175.11 188.25 171.88 188.25 167.89C188.25 163.9 191.48 160.67 195.47 160.67C195.47 160.67 196.78 168.42 195.6 174.33Z" fill="#E9ECEF"/>
<path d="M104.21 174.33L104.34 175.11C108.33 175.11 111.56 171.88 111.56 167.89C111.56 163.9 108.33 160.67 104.34 160.67C104.34 160.67 103.03 168.42 104.21 174.33Z" fill="#E9ECEF"/>
</g>
</svg>
