<svg width="286" height="212" viewBox="0 0 286 212" fill="none" xmlns="http://www.w3.org/2000/svg">
<path d="M127.606 211.45C184.872 211.45 231.296 188.375 231.296 159.91C231.296 131.445 184.872 108.37 127.606 108.37C70.3396 108.37 23.916 131.445 23.916 159.91C23.916 188.375 70.3396 211.45 127.606 211.45Z" fill="#7CD5C3"/>
<path d="M127.086 172.14C142.191 172.14 154.436 165.586 154.436 157.5C154.436 149.415 142.191 142.86 127.086 142.86C111.981 142.86 99.7363 149.415 99.7363 157.5C99.7363 165.586 111.981 172.14 127.086 172.14Z" fill="#45AF9A"/>
<path d="M166.086 159.01C170.3 159.01 173.716 157.183 173.716 154.93C173.716 152.677 170.3 150.85 166.086 150.85C161.872 150.85 158.456 152.677 158.456 154.93C158.456 157.183 161.872 159.01 166.086 159.01Z" fill="#45AF9A"/>
<path d="M94.6452 149.163C97.0113 139.138 90.8027 129.093 80.7781 126.727C70.7534 124.361 60.7087 130.57 58.3427 140.594C55.9766 150.619 62.1852 160.664 72.2099 163.03C82.2346 165.396 92.2792 159.187 94.6452 149.163Z" fill="white"/>
<mask id="mask0_288_34409" style="mask-type:luminance" maskUnits="userSpaceOnUse" x="57" y="126" width="39" height="38">
<path d="M94.6452 149.162C97.0113 139.138 90.8027 129.093 80.7781 126.727C70.7534 124.361 60.7087 130.569 58.3427 140.594C55.9766 150.619 62.1852 160.663 72.2099 163.03C82.2346 165.396 92.2792 159.187 94.6452 149.162Z" fill="white"/>
</mask>
<g mask="url(#mask0_288_34409)">
<g opacity="0.28">
<path d="M69.3651 128.47C69.3651 129.61 68.4451 130.53 67.3051 130.53C66.1651 130.53 65.2451 129.61 65.2451 128.47C65.2451 127.33 66.1651 126.41 67.3051 126.41C68.4451 126.41 69.3651 127.33 69.3651 128.47Z" fill="#C4C4C4"/>
<path d="M69.3651 134.14C69.3651 135.28 68.4451 136.2 67.3051 136.2C66.1651 136.2 65.2451 135.28 65.2451 134.14C65.2451 133 66.1651 132.08 67.3051 132.08C68.4451 132.08 69.3651 133 69.3651 134.14Z" fill="#C4C4C4"/>
<path d="M69.3651 139.81C69.3651 140.95 68.4451 141.87 67.3051 141.87C66.1651 141.87 65.2451 140.95 65.2451 139.81C65.2451 138.67 66.1651 137.75 67.3051 137.75C68.4451 137.75 69.3651 138.67 69.3651 139.81Z" fill="#C4C4C4"/>
<path d="M69.3651 145.48C69.3651 146.62 68.4451 147.54 67.3051 147.54C66.1651 147.54 65.2451 146.62 65.2451 145.48C65.2451 144.34 66.1651 143.42 67.3051 143.42C68.4451 143.42 69.3651 144.34 69.3651 145.48Z" fill="#C4C4C4"/>
<path d="M69.3651 151.15C69.3651 152.29 68.4451 153.21 67.3051 153.21C66.1651 153.21 65.2451 152.29 65.2451 151.15C65.2451 150.01 66.1651 149.09 67.3051 149.09C68.4451 149.09 69.3651 150.01 69.3651 151.15Z" fill="#C4C4C4"/>
<path d="M69.3651 156.82C69.3651 157.96 68.4451 158.88 67.3051 158.88C66.1651 158.88 65.2451 157.96 65.2451 156.82C65.2451 155.68 66.1651 154.76 67.3051 154.76C68.4451 154.76 69.3651 155.68 69.3651 156.82Z" fill="#C4C4C4"/>
<path d="M69.3651 162.49C69.3651 163.63 68.4451 164.55 67.3051 164.55C66.1651 164.55 65.2451 163.63 65.2451 162.49C65.2451 161.35 66.1651 160.43 67.3051 160.43C68.4451 160.43 69.3651 161.35 69.3651 162.49Z" fill="#C4C4C4"/>
<path d="M74.3456 125.55C74.3456 126.69 73.4256 127.61 72.2856 127.61C71.1456 127.61 70.2256 126.69 70.2256 125.55C70.2256 124.41 71.1456 123.49 72.2856 123.49C73.4256 123.49 74.3456 124.41 74.3456 125.55Z" fill="#C4C4C4"/>
<path d="M74.3456 131.22C74.3456 132.36 73.4256 133.28 72.2856 133.28C71.1456 133.28 70.2256 132.36 70.2256 131.22C70.2256 130.08 71.1456 129.16 72.2856 129.16C73.4256 129.16 74.3456 130.08 74.3456 131.22Z" fill="#C4C4C4"/>
<path d="M72.2856 138.95C73.4233 138.95 74.3456 138.028 74.3456 136.89C74.3456 135.752 73.4233 134.83 72.2856 134.83C71.1479 134.83 70.2256 135.752 70.2256 136.89C70.2256 138.028 71.1479 138.95 72.2856 138.95Z" fill="#C4C4C4"/>
<path d="M72.2856 144.62C73.4233 144.62 74.3456 143.697 74.3456 142.56C74.3456 141.422 73.4233 140.5 72.2856 140.5C71.1479 140.5 70.2256 141.422 70.2256 142.56C70.2256 143.697 71.1479 144.62 72.2856 144.62Z" fill="#C4C4C4"/>
<path d="M72.2856 150.29C73.4233 150.29 74.3456 149.367 74.3456 148.23C74.3456 147.092 73.4233 146.17 72.2856 146.17C71.1479 146.17 70.2256 147.092 70.2256 148.23C70.2256 149.367 71.1479 150.29 72.2856 150.29Z" fill="#C4C4C4"/>
<path d="M72.2856 155.96C73.4233 155.96 74.3456 155.038 74.3456 153.9C74.3456 152.762 73.4233 151.84 72.2856 151.84C71.1479 151.84 70.2256 152.762 70.2256 153.9C70.2256 155.038 71.1479 155.96 72.2856 155.96Z" fill="#C4C4C4"/>
<path d="M74.3456 159.57C74.3456 160.71 73.4256 161.63 72.2856 161.63C71.1456 161.63 70.2256 160.71 70.2256 159.57C70.2256 158.43 71.1456 157.51 72.2856 157.51C73.4256 157.51 74.3456 158.43 74.3456 159.57Z" fill="#C4C4C4"/>
<path d="M57.3452 130.53C58.4829 130.53 59.4052 129.607 59.4052 128.47C59.4052 127.332 58.4829 126.41 57.3452 126.41C56.2074 126.41 55.2852 127.332 55.2852 128.47C55.2852 129.607 56.2074 130.53 57.3452 130.53Z" fill="#C4C4C4"/>
<path d="M57.3452 136.2C58.4829 136.2 59.4052 135.277 59.4052 134.14C59.4052 133.002 58.4829 132.08 57.3452 132.08C56.2074 132.08 55.2852 133.002 55.2852 134.14C55.2852 135.277 56.2074 136.2 57.3452 136.2Z" fill="#C4C4C4"/>
<path d="M59.4052 139.81C59.4052 140.95 58.4852 141.87 57.3452 141.87C56.2052 141.87 55.2852 140.95 55.2852 139.81C55.2852 138.67 56.2052 137.75 57.3452 137.75C58.4852 137.75 59.4052 138.67 59.4052 139.81Z" fill="#C4C4C4"/>
<path d="M59.4052 145.48C59.4052 146.62 58.4852 147.54 57.3452 147.54C56.2052 147.54 55.2852 146.62 55.2852 145.48C55.2852 144.34 56.2052 143.42 57.3452 143.42C58.4852 143.42 59.4052 144.34 59.4052 145.48Z" fill="#C4C4C4"/>
<path d="M59.4052 151.15C59.4052 152.29 58.4852 153.21 57.3452 153.21C56.2052 153.21 55.2852 152.29 55.2852 151.15C55.2852 150.01 56.2052 149.09 57.3452 149.09C58.4852 149.09 59.4052 150.01 59.4052 151.15Z" fill="#C4C4C4"/>
<path d="M59.4052 156.82C59.4052 157.96 58.4852 158.88 57.3452 158.88C56.2052 158.88 55.2852 157.96 55.2852 156.82C55.2852 155.68 56.2052 154.76 57.3452 154.76C58.4852 154.76 59.4052 155.68 59.4052 156.82Z" fill="#C4C4C4"/>
<path d="M57.3452 164.55C58.4829 164.55 59.4052 163.627 59.4052 162.49C59.4052 161.352 58.4829 160.43 57.3452 160.43C56.2074 160.43 55.2852 161.352 55.2852 162.49C55.2852 163.627 56.2074 164.55 57.3452 164.55Z" fill="#C4C4C4"/>
<path d="M64.3856 125.55C64.3856 126.69 63.4656 127.61 62.3256 127.61C61.1856 127.61 60.2656 126.69 60.2656 125.55C60.2656 124.41 61.1856 123.49 62.3256 123.49C63.4656 123.49 64.3856 124.41 64.3856 125.55Z" fill="#C4C4C4"/>
<path d="M64.3856 131.22C64.3856 132.36 63.4656 133.28 62.3256 133.28C61.1856 133.28 60.2656 132.36 60.2656 131.22C60.2656 130.08 61.1856 129.16 62.3256 129.16C63.4656 129.16 64.3856 130.08 64.3856 131.22Z" fill="#C4C4C4"/>
<path d="M64.3856 136.89C64.3856 138.03 63.4656 138.95 62.3256 138.95C61.1856 138.95 60.2656 138.03 60.2656 136.89C60.2656 135.75 61.1856 134.83 62.3256 134.83C63.4656 134.83 64.3856 135.75 64.3856 136.89Z" fill="#C4C4C4"/>
<path d="M64.3856 142.56C64.3856 143.7 63.4656 144.62 62.3256 144.62C61.1856 144.62 60.2656 143.7 60.2656 142.56C60.2656 141.42 61.1856 140.5 62.3256 140.5C63.4656 140.5 64.3856 141.42 64.3856 142.56Z" fill="#C4C4C4"/>
<path d="M64.3856 148.23C64.3856 149.37 63.4656 150.29 62.3256 150.29C61.1856 150.29 60.2656 149.37 60.2656 148.23C60.2656 147.09 61.1856 146.17 62.3256 146.17C63.4656 146.17 64.3856 147.09 64.3856 148.23Z" fill="#C4C4C4"/>
<path d="M64.3856 153.9C64.3856 155.04 63.4656 155.96 62.3256 155.96C61.1856 155.96 60.2656 155.04 60.2656 153.9C60.2656 152.76 61.1856 151.84 62.3256 151.84C63.4656 151.84 64.3856 152.76 64.3856 153.9Z" fill="#C4C4C4"/>
<path d="M64.3856 159.57C64.3856 160.71 63.4656 161.63 62.3256 161.63C61.1856 161.63 60.2656 160.71 60.2656 159.57C60.2656 158.43 61.1856 157.51 62.3256 157.51C63.4656 157.51 64.3856 158.43 64.3856 159.57Z" fill="#C4C4C4"/>
<path d="M87.7455 130.53C88.8833 130.53 89.8055 129.607 89.8055 128.47C89.8055 127.332 88.8833 126.41 87.7455 126.41C86.6078 126.41 85.6855 127.332 85.6855 128.47C85.6855 129.607 86.6078 130.53 87.7455 130.53Z" fill="#C4C4C4"/>
<path d="M87.7455 136.2C88.8833 136.2 89.8055 135.278 89.8055 134.14C89.8055 133.002 88.8833 132.08 87.7455 132.08C86.6078 132.08 85.6855 133.002 85.6855 134.14C85.6855 135.278 86.6078 136.2 87.7455 136.2Z" fill="#C4C4C4"/>
<path d="M89.8055 139.81C89.8055 140.95 88.8855 141.87 87.7455 141.87C86.6055 141.87 85.6855 140.95 85.6855 139.81C85.6855 138.67 86.6055 137.75 87.7455 137.75C88.8855 137.75 89.8055 138.67 89.8055 139.81Z" fill="#C4C4C4"/>
<path d="M89.8055 145.48C89.8055 146.62 88.8855 147.54 87.7455 147.54C86.6055 147.54 85.6855 146.62 85.6855 145.48C85.6855 144.34 86.6055 143.42 87.7455 143.42C88.8855 143.42 89.8055 144.34 89.8055 145.48Z" fill="#C4C4C4"/>
<path d="M89.8055 151.15C89.8055 152.29 88.8855 153.21 87.7455 153.21C86.6055 153.21 85.6855 152.29 85.6855 151.15C85.6855 150.01 86.6055 149.09 87.7455 149.09C88.8855 149.09 89.8055 150.01 89.8055 151.15Z" fill="#C4C4C4"/>
<path d="M89.8055 156.82C89.8055 157.96 88.8855 158.88 87.7455 158.88C86.6055 158.88 85.6855 157.96 85.6855 156.82C85.6855 155.68 86.6055 154.76 87.7455 154.76C88.8855 154.76 89.8055 155.68 89.8055 156.82Z" fill="#C4C4C4"/>
<path d="M87.7455 164.55C88.8833 164.55 89.8055 163.627 89.8055 162.49C89.8055 161.352 88.8833 160.43 87.7455 160.43C86.6078 160.43 85.6855 161.352 85.6855 162.49C85.6855 163.627 86.6078 164.55 87.7455 164.55Z" fill="#C4C4C4"/>
<path d="M94.7948 125.55C94.7948 126.69 93.8748 127.61 92.7348 127.61C91.5948 127.61 90.6748 126.69 90.6748 125.55C90.6748 124.41 91.5948 123.49 92.7348 123.49C93.8748 123.49 94.7948 124.41 94.7948 125.55Z" fill="#C4C4C4"/>
<path d="M94.7948 131.22C94.7948 132.36 93.8748 133.28 92.7348 133.28C91.5948 133.28 90.6748 132.36 90.6748 131.22C90.6748 130.08 91.5948 129.16 92.7348 129.16C93.8748 129.16 94.7948 130.08 94.7948 131.22Z" fill="#C4C4C4"/>
<path d="M94.7948 136.89C94.7948 138.03 93.8748 138.95 92.7348 138.95C91.5948 138.95 90.6748 138.03 90.6748 136.89C90.6748 135.75 91.5948 134.83 92.7348 134.83C93.8748 134.83 94.7948 135.75 94.7948 136.89Z" fill="#C4C4C4"/>
<path d="M94.7948 142.56C94.7948 143.7 93.8748 144.62 92.7348 144.62C91.5948 144.62 90.6748 143.7 90.6748 142.56C90.6748 141.42 91.5948 140.5 92.7348 140.5C93.8748 140.5 94.7948 141.42 94.7948 142.56Z" fill="#C4C4C4"/>
<path d="M94.7948 148.23C94.7948 149.37 93.8748 150.29 92.7348 150.29C91.5948 150.29 90.6748 149.37 90.6748 148.23C90.6748 147.09 91.5948 146.17 92.7348 146.17C93.8748 146.17 94.7948 147.09 94.7948 148.23Z" fill="#C4C4C4"/>
<path d="M94.7948 153.9C94.7948 155.04 93.8748 155.96 92.7348 155.96C91.5948 155.96 90.6748 155.04 90.6748 153.9C90.6748 152.76 91.5948 151.84 92.7348 151.84C93.8748 151.84 94.7948 152.76 94.7948 153.9Z" fill="#C4C4C4"/>
<path d="M94.7948 159.57C94.7948 160.71 93.8748 161.63 92.7348 161.63C91.5948 161.63 90.6748 160.71 90.6748 159.57C90.6748 158.43 91.5948 157.51 92.7348 157.51C93.8748 157.51 94.7948 158.43 94.7948 159.57Z" fill="#C4C4C4"/>
<path d="M79.8456 128.47C79.8456 129.61 78.9256 130.53 77.7856 130.53C76.6456 130.53 75.7256 129.61 75.7256 128.47C75.7256 127.33 76.6456 126.41 77.7856 126.41C78.9256 126.41 79.8456 127.33 79.8456 128.47Z" fill="#C4C4C4"/>
<path d="M79.8456 134.14C79.8456 135.28 78.9256 136.2 77.7856 136.2C76.6456 136.2 75.7256 135.28 75.7256 134.14C75.7256 133 76.6456 132.08 77.7856 132.08C78.9256 132.08 79.8456 133 79.8456 134.14Z" fill="#C4C4C4"/>
<path d="M79.8456 139.81C79.8456 140.95 78.9256 141.87 77.7856 141.87C76.6456 141.87 75.7256 140.95 75.7256 139.81C75.7256 138.67 76.6456 137.75 77.7856 137.75C78.9256 137.75 79.8456 138.67 79.8456 139.81Z" fill="#C4C4C4"/>
<path d="M79.8456 145.48C79.8456 146.62 78.9256 147.54 77.7856 147.54C76.6456 147.54 75.7256 146.62 75.7256 145.48C75.7256 144.34 76.6456 143.42 77.7856 143.42C78.9256 143.42 79.8456 144.34 79.8456 145.48Z" fill="#C4C4C4"/>
<path d="M79.8456 151.15C79.8456 152.29 78.9256 153.21 77.7856 153.21C76.6456 153.21 75.7256 152.29 75.7256 151.15C75.7256 150.01 76.6456 149.09 77.7856 149.09C78.9256 149.09 79.8456 150.01 79.8456 151.15Z" fill="#C4C4C4"/>
<path d="M79.8456 156.82C79.8456 157.96 78.9256 158.88 77.7856 158.88C76.6456 158.88 75.7256 157.96 75.7256 156.82C75.7256 155.68 76.6456 154.76 77.7856 154.76C78.9256 154.76 79.8456 155.68 79.8456 156.82Z" fill="#C4C4C4"/>
<path d="M79.8456 162.49C79.8456 163.63 78.9256 164.55 77.7856 164.55C76.6456 164.55 75.7256 163.63 75.7256 162.49C75.7256 161.35 76.6456 160.43 77.7856 160.43C78.9256 160.43 79.8456 161.35 79.8456 162.49Z" fill="#C4C4C4"/>
<path d="M84.8251 125.55C84.8251 126.69 83.9051 127.61 82.7651 127.61C81.6251 127.61 80.7051 126.69 80.7051 125.55C80.7051 124.41 81.6251 123.49 82.7651 123.49C83.9051 123.49 84.8251 124.41 84.8251 125.55Z" fill="#C4C4C4"/>
<path d="M84.8251 131.22C84.8251 132.36 83.9051 133.28 82.7651 133.28C81.6251 133.28 80.7051 132.36 80.7051 131.22C80.7051 130.08 81.6251 129.16 82.7651 129.16C83.9051 129.16 84.8251 130.08 84.8251 131.22Z" fill="#C4C4C4"/>
<path d="M82.7651 138.95C83.9028 138.95 84.8251 138.027 84.8251 136.89C84.8251 135.752 83.9028 134.83 82.7651 134.83C81.6274 134.83 80.7051 135.752 80.7051 136.89C80.7051 138.027 81.6274 138.95 82.7651 138.95Z" fill="#C4C4C4"/>
<path d="M82.7651 144.62C83.9028 144.62 84.8251 143.697 84.8251 142.56C84.8251 141.422 83.9028 140.5 82.7651 140.5C81.6274 140.5 80.7051 141.422 80.7051 142.56C80.7051 143.697 81.6274 144.62 82.7651 144.62Z" fill="#C4C4C4"/>
<path d="M82.7651 150.29C83.9028 150.29 84.8251 149.367 84.8251 148.23C84.8251 147.092 83.9028 146.17 82.7651 146.17C81.6274 146.17 80.7051 147.092 80.7051 148.23C80.7051 149.367 81.6274 150.29 82.7651 150.29Z" fill="#C4C4C4"/>
<path d="M82.7651 155.96C83.9028 155.96 84.8251 155.037 84.8251 153.9C84.8251 152.762 83.9028 151.84 82.7651 151.84C81.6274 151.84 80.7051 152.762 80.7051 153.9C80.7051 155.037 81.6274 155.96 82.7651 155.96Z" fill="#C4C4C4"/>
<path d="M84.8251 159.57C84.8251 160.71 83.9051 161.63 82.7651 161.63C81.6251 161.63 80.7051 160.71 80.7051 159.57C80.7051 158.43 81.6251 157.51 82.7651 157.51C83.9051 157.51 84.8251 158.43 84.8251 159.57Z" fill="#C4C4C4"/>
</g>
</g>
<path d="M168.217 0H164.227V153.82H168.217V0Z" fill="#91733A"/>
<path d="M168.006 1.52002L285.536 34.77L167.666 75.26" fill="#FF5C50"/>
<path d="M202.266 26.6499C199.916 21.7299 194.706 19.9399 189.526 20.7699C183.686 21.7099 179.146 25.7299 176.756 31.0799C175.266 34.4199 174.516 38.1199 174.366 41.7599C174.226 45.1599 174.436 48.9499 175.836 52.1099C177.046 54.8199 179.186 56.8499 182.156 57.4499C185.756 58.1799 189.456 56.9399 192.456 54.9699C197.256 51.8299 200.136 46.5899 200.476 40.8699C200.516 40.1499 199.726 39.9999 199.166 40.0199C195.086 40.1699 190.976 40.3099 186.926 40.8599C186.346 40.9399 185.386 41.2599 185.316 41.9699C185.256 42.6599 186.086 42.8899 186.626 42.8199C190.666 42.2699 194.786 42.1199 198.866 41.9799C198.426 41.6999 197.986 41.4099 197.556 41.1299C197.346 44.6999 196.076 48.6199 193.606 51.2499C191.546 53.4399 188.716 55.3699 185.646 55.6299C182.846 55.8699 180.496 54.4799 179.126 52.0699C177.736 49.6299 177.396 46.5499 177.296 43.7999C177.176 40.5099 177.586 37.1599 178.516 33.9999C179.866 29.4299 182.906 24.5799 187.686 23.0899C192.166 21.6899 197.236 22.9099 199.376 27.3999C199.936 28.5799 202.796 27.7199 202.276 26.6199L202.266 26.6499Z" fill="#FFF6FF"/>
<path d="M203.086 38.77C203.436 41.69 205.936 44.22 208.876 44.48C212.486 44.79 215.686 42.57 217.466 39.57C218.316 38.13 218.966 36.48 218.646 34.78C218.356 33.27 217.346 31.88 216.056 31.06C213.396 29.36 209.796 29.54 207.086 31.02C204.236 32.58 202.746 35.57 203.086 38.78C203.166 39.55 206.086 38.95 205.986 38C205.756 35.89 206.386 33.58 208.066 32.18C208.376 31.92 208.766 31.67 209.066 31.53C208.916 31.6 209.386 31.41 209.326 31.43C209.116 31.51 209.356 31.42 209.396 31.41C209.396 31.41 209.886 31.29 209.616 31.35C209.776 31.32 209.936 31.29 210.086 31.28C210.936 31.21 212.156 31.5 213.026 31.96C214.096 32.52 214.976 33.49 215.436 34.6C215.966 35.89 215.856 37.2 215.346 38.48C214.856 39.71 214.096 40.87 213.156 41.81C212.486 42.48 211.626 43.1 210.806 43.1C208.236 43.1 206.236 40.33 205.966 38.01C205.876 37.23 202.956 37.84 203.066 38.79L203.086 38.77Z" fill="#FFF6FF"/>
<path d="M222.966 43.9201C223.416 40.9301 224.186 38.0001 225.286 35.1801C225.836 33.7701 226.466 32.4001 227.166 31.0601C227.546 30.3501 227.936 29.6501 228.356 28.9601C228.576 28.6001 228.796 28.2401 229.036 27.9001C229.226 27.6201 229.866 27.1801 229.156 27.4401C228.526 27.6801 229.136 27.7001 229.446 28.0101C229.726 28.2901 229.906 28.6301 230.056 28.9901C230.306 29.6101 230.446 30.2801 230.576 30.9301C230.866 32.2901 231.076 33.6701 231.236 35.0601C231.576 37.9201 231.716 40.8001 231.596 43.6801C231.566 44.3101 234.456 43.8801 234.496 42.9001C234.596 40.3201 234.496 37.7201 234.226 35.1501C234.086 33.8301 233.916 32.5101 233.676 31.2001C233.456 30.0101 233.276 28.6601 232.646 27.6101C231.226 25.2701 227.766 26.0001 226.366 27.9901C224.816 30.2101 223.576 32.7001 222.566 35.2001C221.376 38.1501 220.546 41.2201 220.076 44.3601C219.936 45.2601 222.826 44.7401 222.956 43.9201H222.966Z" fill="#FFF6FF"/>
<path d="M224.206 39.8C225.366 39.41 226.556 39.07 227.756 38.81C228.046 38.74 228.346 38.68 228.636 38.62C229.086 38.53 228.336 38.67 228.786 38.59C228.946 38.56 229.106 38.53 229.266 38.51C229.886 38.41 230.506 38.32 231.126 38.25C231.696 38.19 232.646 37.86 232.756 37.19C232.866 36.51 231.926 36.39 231.476 36.44C228.856 36.74 226.266 37.3 223.766 38.14C223.296 38.3 222.366 38.69 222.536 39.36C222.706 39.98 223.756 39.95 224.206 39.8Z" fill="#FFF6FF"/>
<path d="M239.776 28.3101C239.836 32.4501 239.896 36.5901 239.956 40.7301C239.956 41.1001 239.926 41.5001 240.146 41.8301C240.416 42.2101 240.896 42.3501 241.356 42.3801C242.366 42.4401 243.416 42.0201 244.376 41.7701C246.416 41.2301 248.446 40.6901 250.486 40.1601C250.926 40.0401 251.886 39.6501 251.736 39.0401C251.596 38.4301 250.476 38.5901 250.086 38.6901C248.356 39.1501 246.616 39.6101 244.886 40.0601C244.456 40.1701 244.016 40.2901 243.586 40.4001C243.326 40.4701 243.066 40.5401 242.806 40.6101C242.686 40.6401 242.376 40.6701 242.286 40.7501C242.736 40.9201 242.936 40.8801 242.866 40.6301C242.856 40.5401 242.846 40.4501 242.846 40.3701C242.846 40.1901 242.846 40.0101 242.846 39.8401C242.846 39.3501 242.836 38.8601 242.826 38.3701C242.776 34.7701 242.716 31.1601 242.666 27.5601C242.656 26.6401 239.756 27.2001 239.766 28.3401L239.776 28.3101Z" fill="#FFF6FF"/>
<path d="M48.586 52.0999C49.266 52.9499 50.376 53.3099 51.426 53.5799C57.466 55.1299 63.966 54.8099 69.816 52.6799C70.826 52.3099 71.946 51.8899 72.946 52.2899C73.936 52.6899 74.4461 53.7399 75.0061 54.6499C78.3461 60.0799 86.406 61.8899 91.746 58.3999C94.866 56.3599 97.376 52.7399 101.106 52.6899C102.706 52.6699 104.216 53.3399 105.696 53.9399C111.616 56.3299 118.726 57.5499 124.136 54.1499C126.116 52.8999 127.726 51.1199 129.756 49.9499C135.546 46.6099 144.176 48.5099 148.206 43.1699C148.516 42.7599 148.796 42.2799 148.816 41.7599C148.866 40.3999 147.256 39.6699 145.926 39.3799C140.836 38.2599 135.536 38.1099 130.396 38.9499C129.056 39.1699 127.676 39.4499 126.356 39.1099C124.656 38.6699 123.416 37.2699 122.086 36.1199C116.626 31.3899 108.196 30.4499 101.816 33.8499C99.956 34.8399 98.146 36.1999 96.036 36.2599C93.5261 36.3199 91.416 34.5299 89.216 33.3199C81.406 29.0499 73.596 36.3299 69.306 40.4099C66.486 43.0899 43.526 45.7999 48.606 52.0799L48.586 52.0999Z" fill="white"/>
<path d="M0.575998 101.23C1.126 101.94 2.036 102.26 2.906 102.5C7.876 103.88 13.266 103.72 18.146 102.06C18.986 101.77 19.926 101.44 20.746 101.79C21.556 102.13 21.966 103.02 22.416 103.78C25.086 108.33 31.736 109.96 36.216 107.16C38.836 105.52 40.976 102.57 44.056 102.59C45.376 102.59 46.616 103.18 47.836 103.7C52.696 105.78 58.566 106.9 63.096 104.18C64.756 103.18 66.116 101.73 67.816 100.79C72.666 98.1201 79.776 99.8301 83.196 95.4801C83.466 95.1401 83.706 94.7501 83.726 94.3201C83.786 93.2001 82.466 92.5701 81.376 92.3001C77.186 91.2901 72.796 91.0801 68.526 91.6901C67.416 91.8501 66.266 92.0601 65.176 91.7601C63.776 91.3601 62.766 90.1901 61.686 89.2201C57.236 85.2101 50.276 84.3001 44.936 87.0101C43.376 87.8001 41.856 88.9001 40.106 88.9101C38.026 88.9101 36.306 87.4001 34.506 86.3701C28.116 82.7001 21.526 88.6101 17.906 91.9201C15.526 94.0901 -3.524 95.9601 0.575998 101.25V101.23Z" fill="white"/>
<path d="M185.146 96.29C185.726 97.03 186.666 97.37 187.576 97.62C192.756 99.06 198.376 98.89 203.466 97.16C204.346 96.86 205.316 96.51 206.176 96.88C207.026 97.24 207.446 98.16 207.916 98.95C210.706 103.69 217.636 105.39 222.296 102.47C225.026 100.76 227.256 97.68 230.466 97.7C231.846 97.7 233.136 98.32 234.406 98.86C239.476 101.03 245.586 102.2 250.316 99.36C252.046 98.32 253.466 96.8 255.236 95.83C260.296 93.04 267.706 94.83 271.276 90.29C271.556 89.94 271.806 89.53 271.826 89.09C271.886 87.92 270.516 87.26 269.376 86.99C265.006 85.93 260.426 85.72 255.976 86.35C254.816 86.52 253.616 86.74 252.486 86.42C251.026 86.01 249.976 84.78 248.846 83.77C244.206 79.59 236.946 78.64 231.386 81.47C229.766 82.3 228.176 83.44 226.356 83.45C224.186 83.45 222.396 81.88 220.516 80.8C213.856 76.98 206.986 83.13 203.206 86.58C200.726 88.85 180.866 90.79 185.136 96.3L185.146 96.29Z" fill="white"/>
</svg>
