<svg width="234" height="267" viewBox="0 0 234 267" fill="none" xmlns="http://www.w3.org/2000/svg">
<path fill-rule="evenodd" clip-rule="evenodd" d="M226.757 232.111C224.588 236.784 220.872 239.764 216.544 242.275C207.616 247.453 197.811 249.985 187.908 252.191C184.342 252.992 180.665 253.184 177.041 252.164C174.627 251.482 172.245 249.951 170.361 247.894C169.805 247.451 169.306 246.886 168.874 246.164C168.682 245.831 168.509 245.487 168.346 245.139C167.719 244.042 167.232 242.867 166.921 241.627C166.921 241.627 157.089 211.398 156.431 209.151C155.673 206.561 158.023 209.139 160.032 208.197C160.032 208.197 158.507 206.079 160.037 208.175C162.772 205.237 163.508 201.275 163.798 202.132C165.99 208.557 164.207 203.308 172.004 227.207C173.258 225.708 174.631 224.321 176.175 223.056C179.594 220.265 183.629 218.601 187.494 216.612C189.818 215.454 192.097 214.207 194.468 213.155C202.457 209.604 210.407 208.816 218.376 213.278C223.558 216.182 226.085 220.907 227.585 226.336C228.117 228.271 227.621 230.238 226.745 232.123L226.757 232.111Z" fill="#CED4DA"/>
<path fill-rule="evenodd" clip-rule="evenodd" d="M217.738 235.812C218.619 235.422 219.013 234.693 218.766 233.918C218.539 233.183 217.724 232.794 216.8 233.015C216.143 233.168 215.492 233.356 214.866 233.592C211.222 234.966 188.573 242.608 184.709 243.175C184.512 243.201 184.315 243.251 184.136 243.323C183.37 243.661 183.001 244.34 183.193 245.056C183.388 245.814 183.962 246.213 184.841 246.108C186.595 245.906 188.333 245.551 190.053 245.124C192.181 244.603 194.252 243.907 196.315 243.161C197.039 242.899 197.776 242.674 198.511 242.432C198.511 242.432 217.65 235.856 217.738 235.812Z" fill="white"/>
<path fill-rule="evenodd" clip-rule="evenodd" d="M214.788 226.431C215.669 226.041 216.063 225.313 215.816 224.538C215.589 223.803 214.774 223.414 213.85 223.635C213.201 223.79 212.542 223.975 211.924 224.214C208.283 225.581 185.631 233.231 181.76 233.796C181.563 233.821 181.367 233.871 181.188 233.943C180.422 234.281 180.053 234.961 180.238 235.674C180.44 236.434 181.007 236.831 181.892 236.729C183.648 236.518 185.384 236.171 187.104 235.745C189.225 235.221 191.305 234.52 193.366 233.781C194.09 233.519 194.827 233.294 195.561 233.052C195.561 233.052 214.7 226.476 214.795 226.434L214.788 226.431Z" fill="white"/>
<path fill-rule="evenodd" clip-rule="evenodd" d="M158.399 216.026C157.36 212.652 156.248 209.049 155.071 205.236C158.057 204.155 160.922 203.109 163.668 202.115C164.838 205.901 165.95 209.504 166.996 212.904C164.276 213.891 161.401 214.942 158.406 216.028L158.399 216.026Z" fill="#ADB5BD"/>
<path d="M152.96 196.632L158.993 191.728L158.996 191.727C158.996 191.727 73.6967 88.7603 69.8605 84.2264C69.3508 83.6213 68.7417 83.0561 68.0796 82.6304C66.1645 81.4107 64.0233 81.5551 62.7516 82.898C61.4158 84.3059 61.4098 86.5444 62.8539 88.4124C64.1073 90.0321 152.96 196.632 152.96 196.632Z" fill="#CED4DA"/>
<path fill-rule="evenodd" clip-rule="evenodd" d="M4.19814 9.88456C6.15568 8.01863 8.34598 6.5468 10.8825 5.5576C13.0088 4.7348 14.5184 5.19081 15.8947 7.08786C18.2277 10.3017 20.7811 13.3465 23.2444 16.4713C29.4652 24.3713 100.571 111.422 106.714 119.381C108.778 122.053 109.922 125.078 108.303 128.466C106.509 132.218 103.636 134.646 99.4766 135.329C98.269 135.527 97.0277 135.375 95.9932 134.586C93.0247 132.326 90.0927 129.996 87.8069 127.01C80.7584 117.8 8.96125 29.3355 1.90049 20.1459C0.156832 17.8693 0.387927 15.6619 1.53348 13.3403C2.18837 12.0185 3.13256 10.8973 4.19814 9.88456Z" fill="#7CD5C3"/>
<path fill-rule="evenodd" clip-rule="evenodd" d="M36.6487 33.3522C31.6244 37.1079 26.4968 40.944 21.4468 44.7215C16.7882 38.9464 12.653 33.8231 9.39563 29.7634C14.3633 26.0785 19.4865 22.2833 24.5966 18.4955C26.7054 21.129 31.0275 26.4509 36.6487 33.3522Z" fill="#45AF9A"/>
<path d="M112.921 192.781C112.921 192.781 111.64 210.011 89 205.276C89 205.276 100.156 210.2 91.462 224.954C91.462 224.954 109.614 222.686 109.45 238.304C109.45 238.304 121.906 228.816 129.837 239.781C129.837 239.781 123.559 225.008 144 218.779C144 218.779 130.2 211.442 135.86 204.312C135.86 204.312 116.773 210.389 112.921 192.79V192.781Z" fill="#FFC9C9"/>
<path d="M184.688 148.629C184.688 148.629 188.123 165.562 165.047 167.137C165.047 167.137 177.12 168.855 172.748 185.413C172.748 185.413 189.606 178.312 193.68 193.391C193.68 193.391 203.099 180.883 213.704 189.289C213.704 189.289 203.659 176.77 221.648 165.236C221.648 165.236 206.377 161.912 209.894 153.515C209.894 153.515 193.166 164.535 184.691 148.638L184.688 148.629Z" fill="#FFC9C9"/>
</svg>
