<svg width="330" height="30" viewBox="0 0 330 30" fill="none" xmlns="http://www.w3.org/2000/svg">
<path d="M89.9755 11.3317H83.2074C82.9484 11.3317 82.7432 11.1264 82.7432 10.8675V6.9679C82.7432 6.70891 82.9533 6.50366 83.2074 6.50366H86.677L87.2731 6.51343H101.181C101.44 6.51343 101.645 6.72356 101.645 6.97767V10.8772C101.645 11.1362 101.435 11.3415 101.181 11.3415H97.3396L94.7888 11.3219V23.519L89.9706 25.6741V11.3268L89.9755 11.3317Z" fill="white"/>
<path d="M66.3667 25.753C64.6368 25.753 63.2539 25.2106 62.1348 24.0916C61.6022 23.5589 61.1966 22.9383 60.923 22.2444C60.6444 21.5407 60.5027 20.7393 60.5027 19.8597V12.3245C60.5027 11.4449 60.6444 10.6337 60.923 9.92514C61.1966 9.22146 61.6071 8.59108 62.1348 8.06332C63.2539 6.94427 64.6368 6.40186 66.3667 6.40186H73.5354C74.3564 6.40186 75.1334 6.58266 75.8419 6.9345C76.5652 7.29611 77.2102 7.78478 77.7477 8.38095C78.2804 8.9869 78.7006 9.70524 78.9889 10.5115C79.2821 11.3227 79.4288 12.1779 79.4288 13.0624V16.9228C79.4288 17.1085 79.3652 17.1965 79.3115 17.2502C79.2284 17.3333 79.1404 17.3675 79.0134 17.3675L65.6435 17.3333V19.5567C65.6435 20.0112 65.7363 20.4021 65.9269 20.7198C66.1028 21.0179 66.3276 21.2573 66.5817 21.4332C66.8163 21.5896 67.0704 21.7069 67.3245 21.7753C67.5737 21.8388 67.7789 21.873 67.9549 21.873H72.4897C72.8269 21.873 73.1592 21.8291 73.4719 21.746C73.726 21.6776 74.3124 21.4137 74.3124 20.451V20.3924C74.3124 20.2653 74.3466 20.1774 74.4297 20.0943C74.5128 20.0112 74.6007 19.977 74.7278 19.977H79.0134C79.1404 19.977 79.2284 20.0112 79.3115 20.0943C79.3946 20.1774 79.4288 20.2653 79.4288 20.3924V20.7882C79.4288 21.6531 79.2871 22.4008 79.0085 23.0019C78.7349 23.598 78.3342 24.1062 77.8162 24.5167C77.2884 24.9321 76.658 25.2497 75.9446 25.4501C75.2067 25.6602 74.3955 25.7628 73.5354 25.7628H66.3667V25.753ZM67.9597 10.3161C67.2512 10.3161 66.655 10.5946 66.2348 11.1224C65.8438 11.6159 65.6484 12.3001 65.6484 13.1454V13.7416H74.3173V13.1454C74.3173 12.2952 74.1218 11.6159 73.7309 11.1224C73.3106 10.5946 72.7145 10.3112 72.0059 10.3112H67.9646L67.9597 10.3161Z" fill="white"/>
<path d="M144.303 26.0078C144.157 26.0078 144.039 25.9687 143.922 25.8807C143.741 25.739 143.536 25.5289 143.306 25.2455L140.775 22.2011H137.814V25.4898C137.814 25.6559 137.765 25.7243 137.716 25.7732C137.662 25.827 137.584 25.8758 137.428 25.8758H133.347C133.196 25.8758 133.132 25.827 133.084 25.783C133.054 25.739 132.991 25.5631 132.991 24.6884V9.06083C132.991 8.65524 133.264 7.81473 133.856 7.30652C134.467 6.78365 135.204 6.52954 136.118 6.52954H143.302C144.601 6.52954 145.804 6.65658 146.879 6.90092C147.91 7.14036 148.824 7.55573 149.586 8.13724C150.338 8.70898 150.93 9.45176 151.34 10.3411C151.76 11.2403 151.971 12.374 151.971 13.708V15.1985C151.971 17.4024 151.575 18.3259 150.685 19.5574C149.83 20.74 148.638 21.5023 147.035 21.8883L146.116 22.1131C146.116 22.1131 149.268 26.0029 149.273 26.0029C149.258 26.0029 149.244 26.0029 149.224 26.0029H144.308L144.303 26.0078ZM137.814 18.4237H142.701C143.707 18.4237 144.474 18.3308 145.036 18.1402C145.633 17.9399 146.092 17.6516 146.4 17.2949C146.727 16.8551 146.849 16.4055 146.932 16.0194C147.001 15.7067 146.996 15.7067 147.006 15.6432L147.02 15.5161V14.0452C147.02 13.41 146.947 12.8529 146.8 12.3886C146.625 11.8413 146.292 11.4162 145.813 11.1181C145.408 10.8493 144.856 10.6441 144.186 10.5317C143.565 10.4291 142.774 10.3753 141.836 10.3753H137.809V18.4237H137.814Z" fill="white"/>
<path d="M39.8073 25.5783C39.7633 25.5783 39.7242 25.5441 39.7242 25.4952V13.1906L43.8974 11.3239L43.9072 17.5886L44.5132 17.5983H47.9338C49.2581 17.5983 50.4993 17.0706 51.4229 16.1128C52.3465 15.155 52.8254 13.8991 52.7765 12.5749C52.6836 9.99958 50.4602 7.90808 47.8214 7.90808H36.543C36.5137 7.90808 36.4893 7.88366 36.4893 7.85434V3.76908C36.4893 3.73976 36.5137 3.71533 36.543 3.71533H47.9338C52.9182 3.71533 56.9741 7.77126 56.9741 12.7508C56.9741 17.7303 52.9182 21.7862 47.9338 21.7862H43.9121V25.4903C43.9121 25.5343 43.8779 25.5734 43.829 25.5734H39.8024L39.8073 25.5783Z" fill="white"/>
<path d="M111.754 25.5783C111.71 25.5783 111.671 25.5441 111.671 25.4952V13.1906L115.844 11.3239L115.854 17.5886L116.46 17.5983H119.881C121.205 17.5983 122.446 17.0706 123.365 16.1128C124.288 15.155 124.767 13.8991 124.718 12.5749C124.626 9.99958 122.402 7.90808 119.763 7.90808H108.485C108.456 7.90808 108.431 7.88366 108.431 7.85434V3.76908C108.431 3.73976 108.456 3.71533 108.485 3.71533H119.876C124.86 3.71533 128.911 7.77126 128.911 12.7508C128.911 17.7303 124.855 21.7862 119.876 21.7862H115.854V25.4903C115.854 25.5343 115.82 25.5734 115.771 25.5734H111.744L111.754 25.5783Z" fill="white"/>
<path d="M162.991 25.9351C158.964 25.9351 155.69 22.749 155.69 18.8348V13.4936C155.69 9.57943 158.964 6.39331 162.991 6.39331H168.473C172.5 6.39331 175.779 9.57943 175.779 13.4936V18.8348C175.779 22.749 172.505 25.9351 168.473 25.9351H162.991ZM164.437 10.6789C162.052 10.6789 160.112 12.5749 160.112 14.9059V17.4274C160.112 19.7583 162.052 21.6544 164.437 21.6544H167.022C169.407 21.6544 171.347 19.7583 171.347 17.4274V14.9059C171.347 12.5749 169.407 10.6789 167.022 10.6789H164.437Z" fill="white"/>
<path d="M17.0827 14.296C16.0761 14.0516 15.0059 14.4963 14.3951 15.3368C12.8997 17.4039 11.4386 21.3377 12.4258 23.908C12.7336 24.7143 13.6865 25.335 14.6492 25.4718C15.1916 25.55 15.8611 25.3496 16.3839 25.1737C17.1072 24.9294 17.674 24.5335 17.9184 24.2501C18.1676 23.9667 18.4412 23.4927 18.7149 23.3901C18.9934 23.3021 19.4968 23.5073 19.8681 23.5855C20.2346 23.6588 20.9286 23.6295 21.6469 23.3803C22.1649 23.2044 22.8197 22.9503 23.2008 22.5593C23.885 21.8605 24.2368 20.7952 24.012 19.9645C23.323 17.4137 19.8828 14.9801 17.073 14.2911L17.0827 14.296Z" fill="white"/>
<path d="M5.04871 15.8365C4.36457 16.936 5.17087 18.2701 5.98694 19.0324C6.8421 19.8338 7.63866 20.2541 8.82123 20.0928C9.88164 19.9462 10.5267 19.1741 10.1602 18.06C9.8572 17.1413 8.83589 16.2324 8.05891 15.6802C7.2575 15.1133 5.86478 14.8152 5.04871 15.8365Z" fill="white"/>
<path d="M25.118 9.18071C26.3201 9.65472 26.4667 11.2087 26.2615 12.3033C26.0514 13.4565 25.6604 14.2677 24.6098 14.8395C23.6715 15.3526 22.6893 15.1131 22.3277 14.0039C22.0296 13.0852 22.3033 11.7462 22.6013 10.8422C22.9043 9.90884 23.8523 8.84353 25.1131 9.18071H25.118Z" fill="white"/>
<path d="M8.5969 8.24866C7.40944 9.33839 8.12778 11.0927 8.62622 12.0163C9.23217 13.1402 10.2339 14.4352 11.6511 14.401C14.4658 14.3374 12.8923 9.7733 11.7928 8.58095C11.436 8.1949 10.9181 7.80397 10.405 7.71112C9.76971 7.59384 9.57424 7.64271 8.5969 8.24866Z" fill="white"/>
<path d="M16.2835 5.39336C14.8175 6.15079 14.881 7.47508 15.2133 8.81402C15.4723 9.86466 15.9072 11.3502 16.8943 11.9415C17.9938 12.6012 19.3572 11.9024 19.7823 10.7492C20.2124 9.57147 20.1 8.07615 19.6357 6.93267C19.2253 5.92113 18.072 4.73855 16.2884 5.38848L16.2835 5.39336Z" fill="white"/>
<path d="M22.5404 28.1788C22.1739 28.3059 21.8073 28.4232 21.4457 28.5404L21.3284 28.5795C20.9571 28.7017 20.5906 28.8287 20.2289 28.9509C18.9926 29.3809 17.7172 29.8256 16.2903 29.9527C12.5422 30.2899 9.65909 28.8239 7.73374 25.6035C7.10336 24.548 6.19932 23.7906 4.8897 23.214C1.67427 21.7968 -0.231509 18.9968 0.0225975 16.0745C0.252271 13.4455 1.51302 11.6277 3.67292 10.7676C3.46768 9.78541 3.4677 8.52953 3.47258 8.51487C3.62896 6.26701 5.10473 4.06312 7.13758 3.03203C8.57915 2.29903 10.1038 2.23551 11.5014 2.83657C11.7115 2.55803 12.0145 2.20618 12.4445 1.74684L12.4592 1.7273C14.4822 -0.447266 17.8345 -0.584095 20.4342 1.40478C20.6345 1.56115 21.2649 2.25017 21.2698 2.25994C21.4653 2.47984 21.6217 2.65576 21.7438 2.80725C25.0961 2.81702 26.7527 3.56957 28.634 5.87607C31.2093 9.02309 30.5496 13.3576 29.8313 16.3384C29.7335 16.7538 29.6211 17.1692 29.5136 17.5845C29.2693 18.5081 29.0152 19.4659 28.8881 20.3944C28.5656 22.6911 27.5785 24.7484 26.1076 26.1802C25.0716 27.1917 23.8206 27.7439 22.5452 28.1886L22.5404 28.1788ZM5.5152 21.7968C7.11314 22.5005 8.27618 23.4876 9.06782 24.8119C10.7097 27.5533 12.9625 28.7017 16.1535 28.4134C17.3898 28.301 18.5235 27.9101 19.7207 27.4898C20.0921 27.3579 20.4684 27.2308 20.8545 27.1038L20.9717 27.0647C22.5013 26.5711 23.9477 26.102 25.0228 25.0562C26.2493 23.8639 27.0752 22.1242 27.3488 20.1696C27.4905 19.1483 27.7544 18.1465 28.0134 17.1789C28.1209 16.7733 28.2284 16.3677 28.3262 15.967C28.9663 13.3038 29.5723 9.46288 27.4368 6.84852C25.8926 4.96226 24.7393 4.30257 21.3236 4.35144C20.9815 4.35632 20.6785 4.13642 20.571 3.8139C20.3511 3.52559 19.6572 2.78281 19.4813 2.62155C17.8101 1.35102 15.2592 0.999189 13.6026 2.78282L13.5831 2.80236C13.026 3.39853 12.7377 3.76015 12.6204 3.93607C12.6106 4.06312 12.5715 4.18528 12.5031 4.29768C12.2735 4.65929 11.7946 4.7668 11.433 4.54201C10.0109 3.65264 8.70132 3.98005 7.84615 4.41008C6.31174 5.19194 5.15848 6.91205 5.03143 8.59795C5.03143 8.92047 5.14381 10.2594 5.26109 10.7285C5.34416 10.8165 5.40282 10.9289 5.43703 11.0511C5.54943 11.4664 5.30018 11.8916 4.8897 11.9991C2.86662 12.5366 1.7818 13.9146 1.58144 16.2065C1.342 18.9381 3.55566 20.9221 5.52499 21.792L5.5152 21.7968Z" fill="white"/>
<g clip-path="url(#clip0_288_34115)">
<path fill-rule="evenodd" clip-rule="evenodd" d="M199.779 17.4744L205.966 23.6624C206.294 23.9907 206.74 24.1751 207.204 24.1751C207.668 24.1751 208.113 23.9907 208.442 23.6624C208.77 23.3341 208.954 22.8888 208.954 22.4245C208.954 21.9603 208.77 21.515 208.442 21.1867L202.252 14.9999L208.44 8.81305C208.603 8.6505 208.732 8.45753 208.82 8.24517C208.908 8.03281 208.953 7.80522 208.953 7.57539C208.953 7.34556 208.907 7.11798 208.819 6.90567C208.731 6.69335 208.602 6.50045 208.44 6.33797C208.277 6.17549 208.084 6.04662 207.872 5.95872C207.66 5.87081 207.432 5.8256 207.202 5.82565C206.972 5.82571 206.745 5.87103 206.533 5.95903C206.32 6.04704 206.127 6.176 205.965 6.33855L199.779 12.5254L193.592 6.33855C193.431 6.17133 193.238 6.03793 193.024 5.94611C192.811 5.8543 192.581 5.80591 192.349 5.80378C192.117 5.80166 191.886 5.84583 191.671 5.93372C191.456 6.02161 191.261 6.15146 191.096 6.31569C190.932 6.47992 190.802 6.67525 190.714 6.89028C190.626 7.10531 190.581 7.33572 190.583 7.56809C190.585 7.80045 190.633 8.03011 190.725 8.24366C190.816 8.45721 190.95 8.65037 191.117 8.81188L197.306 14.9999L191.118 21.1867C190.79 21.515 190.605 21.9603 190.605 22.4245C190.605 22.8888 190.79 23.3341 191.118 23.6624C191.446 23.9907 191.891 24.1751 192.356 24.1751C192.82 24.1751 193.265 23.9907 193.593 23.6624L199.779 17.4732V17.4744Z" fill="white"/>
</g>
<path d="M232.494 9.30007C231.97 10.5007 231.108 11.763 230.031 12.9037C228.922 14.1044 227.566 15.1516 226.18 15.9838L223.779 13.1805C225.503 12.195 227.136 10.8392 228.368 9.11495C229.601 7.42066 230.369 5.44958 230.369 3.23343V0.647038H234.373V3.17172C234.373 5.3579 235.174 7.20557 236.374 8.71474C237.575 10.2856 239.207 11.4563 240.808 12.2267L238.652 15.1516C235.695 13.5508 233.754 11.6414 232.492 9.30007H232.494ZM230.369 17.3695H246.538V29.1643H230.369V17.3695ZM234.158 20.603V25.9609H242.719V20.603H234.158ZM246.538 16.2606H242.719V0H246.538V6.46685H251.004V9.70028H246.538V16.2606Z" fill="white"/>
<path d="M261.829 12.8738C260.752 11.8583 259.92 10.7793 259.428 9.79372C258.966 10.9027 258.134 12.1033 257.057 13.2422C255.948 14.3812 254.624 15.5518 253.146 16.4457L250.775 13.5807C252.654 12.3484 254.347 10.9327 255.488 9.30007C256.626 7.69922 257.335 5.85155 257.335 3.75705V0.647038H261.401V3.69535C261.401 6.00494 262.14 7.7909 263.34 9.23836C264.479 10.7176 266.112 11.8248 267.744 12.6569L265.588 15.6453C264.232 14.9066 262.908 13.951 261.831 12.8738H261.829ZM272.115 28.1823C270.759 29.3212 268.881 30 266.663 30C264.446 30 262.598 29.323 261.274 28.1823C259.918 26.9817 259.149 25.3173 259.149 23.2546C259.149 21.1918 259.92 19.6209 261.274 18.4203C262.598 17.2197 264.446 16.5109 266.663 16.5109C268.881 16.5109 270.759 17.2197 272.115 18.4203C273.439 19.6209 274.239 21.2853 274.239 23.2546C274.239 25.2239 273.439 26.9817 272.115 28.1823ZM269.405 20.7299C268.696 20.1146 267.772 19.7444 266.663 19.7444C264.446 19.7444 262.906 21.1618 262.906 23.2563C262.906 25.3508 264.446 26.7983 266.663 26.7983C268.881 26.7983 270.482 25.3808 270.482 23.2563C270.482 22.2391 270.05 21.347 269.405 20.7317V20.7299ZM270.884 8.50141H265.495V5.11283H270.884V0H274.703V16.414H270.884V8.49965V8.50141Z" fill="white"/>
<path d="M285.198 18.6936V16.6608C282.273 16.0138 280.671 13.951 280.671 11.4862C280.671 10.1305 281.348 8.80642 282.457 7.85261H278.73V4.8043H295.299V7.85261H291.695C292.804 8.83815 293.451 10.1622 293.451 11.548C293.451 13.981 291.974 15.982 289.047 16.6291V18.5085C291.665 18.3551 294.283 18.17 296.87 17.8932V0H300.658V9.73202H304.971V12.9654H300.658V25.8392H296.87V20.9732C290.865 21.6502 284.705 22.1121 278.391 22.2972L278.023 18.8487C280.424 18.8487 282.795 18.787 285.198 18.6953V18.6936ZM283.227 0.123413H290.773V3.32687H283.227V0.123413ZM284.304 11.488C284.304 12.8121 285.352 13.8593 287.046 13.8593C288.74 13.8593 289.788 12.8121 289.788 11.488C289.788 10.164 288.772 9.08498 287.046 9.08498C285.32 9.08498 284.304 10.1622 284.304 11.488Z" fill="white"/>
<path d="M315.845 11.9499C316.799 13.7676 318.187 15.0917 319.879 16.2306L317.6 19.1573C316.522 18.4185 315.382 17.3396 314.49 16.2306C313.536 15.1216 312.795 13.951 312.519 12.9972C311.656 15.707 309.809 17.8949 307.467 19.7426L305.096 16.9394C306.944 15.3385 308.33 13.921 309.223 12.0733C310.086 10.2556 310.518 8.03949 310.518 4.86601H306.022V1.66255H318.74V4.86601H314.336C314.336 7.85261 314.86 10.1322 315.845 11.9499ZM326.131 11.3029H323.79V24.762H320.094V0.37024H323.79V8.06946H326.131V0H329.858V25.8075H326.131V11.3029Z" fill="white"/>
<defs>
<clipPath id="clip0_288_34115">
<rect width="28" height="28" fill="white" transform="translate(185.779 1)"/>
</clipPath>
</defs>
</svg>
