<svg width="1920" height="431" viewBox="0 0 1920 431" fill="none" xmlns="http://www.w3.org/2000/svg">
<mask id="mask0_1_706" style="mask-type:alpha" maskUnits="userSpaceOnUse" x="0" y="0" width="1920" height="431">
<rect width="1920" height="431" fill="#D9D9D9"/>
</mask>
<g mask="url(#mask0_1_706)">
<path d="M2028.88 168.37C1884.79 145.916 1727.61 111.052 1384.38 185.029C1266.75 210.38 1142.85 199.033 1128.02 198.888C1032.65 198.019 620.277 114.674 -108 169.819V398.461H2028.78L2028.88 168.37Z" fill="#63C7B3"/>
<path d="M1676.67 190.776C1673.58 185.705 1674.79 180.152 1678.7 176.482C1684.88 170.64 1692.02 172.861 1697.72 174.599C1690.91 173.199 1684.25 167.936 1684.15 160.982C1684.06 154.029 1693.76 148.476 1698.45 153.594C1692.22 143.792 1692.6 129.547 1700.91 121.434C1709.22 113.322 1725.2 114.24 1731.09 124.235C1733.79 128.774 1734.23 134.279 1734.42 139.591C1734.66 145.337 1734.52 151.711 1730.75 156.057C1734.13 151.566 1740.51 149.634 1745.82 151.469C1751.13 153.304 1754.94 158.761 1754.85 164.41C1755.04 155.429 1763.15 147.51 1772.13 146.882C1781.12 146.254 1789.95 152.339 1793.24 160.741C1796.52 169.094 1794.54 179.138 1788.84 186.14C1798.16 179.428 1813.32 184.015 1817.33 194.784C1815.26 186.816 1815.88 177.835 1820.47 170.978C1825.06 164.121 1834.09 160.016 1841.91 162.527C1848.62 164.652 1853.35 170.978 1855.43 177.69C1857.51 184.45 1857.36 191.645 1857.22 198.695C1857.36 193.625 1863.64 190.245 1868.42 191.983C1873.2 193.721 1876 198.985 1876.19 204.055C1879.43 193.866 1891.6 187.492 1901.84 190.631C1912.07 193.77 1919.22 203.427 1916.18 213.712C1922.99 207.58 1931.82 209.753 1938.34 214.002C1944.86 218.251 1951.67 229.647 1950.94 237.422C1939.45 241.043 1923.56 238.194 1911.78 235.78C1827.13 218.541 1740.55 211.105 1654.22 213.712C1648.9 213.857 1643.25 213.954 1638.76 211.105C1634.27 208.256 1632.68 201.351 1636.11 196.28C1636.11 196.28 1645.38 179.573 1676.62 190.921L1676.67 190.776Z" fill="#45AF9A"/>
<path d="M-24.0756 269.919C-32.0431 269.243 -33.9263 262.676 -30.5944 256.833C-27.2626 250.99 -19.4882 247.514 -12.9211 250.556C-13.5971 244.665 -11.231 237.953 -5.00188 233.703C1.22724 229.454 11.7057 228.681 16.3896 233.172C13.2509 225.446 21.8461 215.837 32.7109 213.036C43.5756 210.235 55.1647 213.277 62.5045 218.927C69.8442 224.577 73.4658 232.544 75.5905 240.56C83.9443 232.11 101.424 229.889 110.889 236.069C118.277 229.502 129.721 225.591 140.441 225.977C151.161 226.363 183.707 230.999 188.246 238.001C172.987 245.196 132.812 248.962 115.863 252.439C72.162 261.42 28.2201 269.533 -15.6735 277.597C-19.1985 278.225 -23.0615 278.852 -25.9588 277.597C-28.8561 276.341 -29.1941 272.285 -25.8139 271.175" fill="#45AF9A"/>
<path d="M-107.952 287.061V894.618H2028.83V230.565C2028.83 230.565 745.97 99.946 -107.952 287.013V287.061Z" fill="#7CD5C3"/>
<g opacity="0.2">
<path d="M1623.5 266.877C1630.09 266.877 1635.43 264.737 1635.43 262.097C1635.43 259.456 1630.09 257.316 1623.5 257.316C1616.92 257.316 1611.58 259.456 1611.58 262.097C1611.58 264.737 1616.92 266.877 1623.5 266.877Z" fill="#393939"/>
</g>
<path d="M1628.19 266.008C1634.32 266.008 1639.29 261.036 1639.29 254.902C1639.29 248.768 1634.32 243.796 1628.19 243.796C1622.05 243.796 1617.08 248.768 1617.08 254.902C1617.08 261.036 1622.05 266.008 1628.19 266.008Z" fill="white"/>
<path d="M1628.09 252.632C1629.05 252.632 1629.83 251.854 1629.83 250.894C1629.83 249.934 1629.05 249.156 1628.09 249.156C1627.13 249.156 1626.35 249.934 1626.35 250.894C1626.35 251.854 1627.13 252.632 1628.09 252.632Z" fill="#E5E5E5"/>
<path d="M1623.79 252.729C1624.7 252.729 1625.44 251.994 1625.44 251.087C1625.44 250.18 1624.7 249.445 1623.79 249.445C1622.89 249.445 1622.15 250.18 1622.15 251.087C1622.15 251.994 1622.89 252.729 1623.79 252.729Z" fill="#E5E5E5"/>
<path d="M1626.11 249.011C1627.02 249.011 1627.75 248.276 1627.75 247.369C1627.75 246.462 1627.02 245.727 1626.11 245.727C1625.21 245.727 1624.47 246.462 1624.47 247.369C1624.47 248.276 1625.21 249.011 1626.11 249.011Z" fill="#E5E5E5"/>
<path d="M1620.08 252.874C1620.85 252.874 1621.48 252.247 1621.48 251.473C1621.48 250.7 1620.85 250.073 1620.08 250.073C1619.3 250.073 1618.68 250.7 1618.68 251.473C1618.68 252.247 1619.3 252.874 1620.08 252.874Z" fill="#E5E5E5"/>
<path d="M1622.3 249.3C1623.07 249.3 1623.7 248.673 1623.7 247.9C1623.7 247.127 1623.07 246.5 1622.3 246.5C1621.52 246.5 1620.9 247.127 1620.9 247.9C1620.9 248.673 1621.52 249.3 1622.3 249.3Z" fill="#E5E5E5"/>
<path d="M1626.5 243.94C1626.5 244.81 1627.22 245.534 1628.09 245.534C1628.96 245.534 1629.69 244.81 1629.69 243.94C1629.69 243.94 1627.99 243.506 1626.59 243.94H1626.45H1626.5Z" fill="#E5E5E5"/>
<path d="M1618.48 249.494C1618.48 249.494 1618.67 249.494 1618.82 249.494C1619.59 249.494 1620.22 248.866 1620.22 248.093C1620.22 247.803 1620.12 247.562 1619.98 247.321C1619.98 247.321 1619.11 248.19 1618.53 249.397L1618.48 249.494Z" fill="#E5E5E5"/>
<path d="M1630.22 249.011C1631.12 249.011 1631.86 248.276 1631.86 247.369C1631.86 246.462 1631.12 245.727 1630.22 245.727C1629.31 245.727 1628.57 246.462 1628.57 247.369C1628.57 248.276 1629.31 249.011 1630.22 249.011Z" fill="#E5E5E5"/>
<path d="M1633.98 249.3C1634.76 249.3 1635.38 248.673 1635.38 247.9C1635.38 247.127 1634.76 246.5 1633.98 246.5C1633.21 246.5 1632.58 247.127 1632.58 247.9C1632.58 248.673 1633.21 249.3 1633.98 249.3Z" fill="#E5E5E5"/>
<path d="M1637.85 249.494C1637.85 249.494 1637.65 249.494 1637.51 249.494C1636.73 249.494 1636.11 248.866 1636.11 248.093C1636.11 247.803 1636.2 247.562 1636.35 247.321C1636.35 247.321 1637.22 248.19 1637.8 249.397L1637.85 249.494Z" fill="#E5E5E5"/>
<path d="M1623.17 245.002C1623.17 245.002 1623.31 245.147 1623.41 245.196C1624.04 245.63 1624.9 245.485 1625.34 244.858C1625.48 244.616 1625.58 244.375 1625.58 244.085C1625.58 244.085 1624.37 244.278 1623.21 244.954H1623.17V245.002Z" fill="#E5E5E5"/>
<path d="M1633.02 245.002C1633.02 245.002 1632.87 245.147 1632.78 245.196C1632.15 245.63 1631.28 245.485 1630.84 244.858C1630.7 244.616 1630.6 244.375 1630.6 244.085C1630.6 244.085 1631.81 244.278 1632.97 244.954H1633.02V245.002Z" fill="#E5E5E5"/>
<path d="M1632.44 252.729C1633.34 252.729 1634.08 251.994 1634.08 251.087C1634.08 250.18 1633.34 249.445 1632.44 249.445C1631.53 249.445 1630.8 250.18 1630.8 251.087C1630.8 251.994 1631.53 252.729 1632.44 252.729Z" fill="#E5E5E5"/>
<path d="M1636.16 252.874C1636.93 252.874 1637.56 252.247 1637.56 251.473C1637.56 250.7 1636.93 250.073 1636.16 250.073C1635.38 250.073 1634.76 250.7 1634.76 251.473C1634.76 252.247 1635.38 252.874 1636.16 252.874Z" fill="#E5E5E5"/>
<path d="M1628.09 260.6C1629.05 260.6 1629.83 259.822 1629.83 258.861C1629.83 257.901 1629.05 257.123 1628.09 257.123C1627.13 257.123 1626.35 257.901 1626.35 258.861C1626.35 259.822 1627.13 260.6 1628.09 260.6Z" fill="#E5E5E5"/>
<path d="M1623.79 260.31C1624.7 260.31 1625.44 259.575 1625.44 258.668C1625.44 257.761 1624.7 257.026 1623.79 257.026C1622.89 257.026 1622.15 257.761 1622.15 258.668C1622.15 259.575 1622.89 260.31 1623.79 260.31Z" fill="#E5E5E5"/>
<path d="M1626.11 264.028C1627.02 264.028 1627.75 263.293 1627.75 262.386C1627.75 261.48 1627.02 260.745 1626.11 260.745C1625.21 260.745 1624.47 261.48 1624.47 262.386C1624.47 263.293 1625.21 264.028 1626.11 264.028Z" fill="#E5E5E5"/>
<path d="M1620.08 259.682C1620.85 259.682 1621.48 259.055 1621.48 258.282C1621.48 257.508 1620.85 256.881 1620.08 256.881C1619.3 256.881 1618.68 257.508 1618.68 258.282C1618.68 259.055 1619.3 259.682 1620.08 259.682Z" fill="#E5E5E5"/>
<path d="M1622.3 263.255C1623.07 263.255 1623.7 262.628 1623.7 261.855C1623.7 261.082 1623.07 260.455 1622.3 260.455C1621.52 260.455 1620.9 261.082 1620.9 261.855C1620.9 262.628 1621.52 263.255 1622.3 263.255Z" fill="#E5E5E5"/>
<path d="M1626.5 265.815C1626.5 264.945 1627.22 264.221 1628.09 264.221C1628.96 264.221 1629.69 264.945 1629.69 265.815C1629.69 265.815 1627.99 266.249 1626.59 265.815H1626.45H1626.5Z" fill="#E5E5E5"/>
<path d="M1618.48 260.262C1618.48 260.262 1618.67 260.262 1618.82 260.262C1619.59 260.262 1620.22 260.89 1620.22 261.662C1620.22 261.952 1620.12 262.193 1619.98 262.435C1619.98 262.435 1619.11 261.566 1618.53 260.358L1618.48 260.262Z" fill="#E5E5E5"/>
<path d="M1630.22 264.028C1631.12 264.028 1631.86 263.293 1631.86 262.386C1631.86 261.48 1631.12 260.745 1630.22 260.745C1629.31 260.745 1628.57 261.48 1628.57 262.386C1628.57 263.293 1629.31 264.028 1630.22 264.028Z" fill="#E5E5E5"/>
<path d="M1633.98 263.255C1634.76 263.255 1635.38 262.628 1635.38 261.855C1635.38 261.082 1634.76 260.455 1633.98 260.455C1633.21 260.455 1632.58 261.082 1632.58 261.855C1632.58 262.628 1633.21 263.255 1633.98 263.255Z" fill="#E5E5E5"/>
<path d="M1637.89 260.262C1637.89 260.262 1637.7 260.262 1637.56 260.262C1636.78 260.262 1636.16 260.89 1636.16 261.662C1636.16 261.952 1636.25 262.193 1636.4 262.435C1636.4 262.435 1637.27 261.566 1637.85 260.358L1637.89 260.262Z" fill="#E5E5E5"/>
<path d="M1623.17 264.753C1623.17 264.753 1623.31 264.608 1623.41 264.56C1624.04 264.125 1624.9 264.27 1625.34 264.898C1625.48 265.139 1625.58 265.38 1625.58 265.67C1625.58 265.67 1624.37 265.477 1623.21 264.801H1623.17V264.753Z" fill="#E5E5E5"/>
<path d="M1633.06 264.801C1633.06 264.801 1632.92 264.656 1632.82 264.608C1632.2 264.173 1631.33 264.318 1630.89 264.946C1630.75 265.187 1630.65 265.429 1630.65 265.718C1630.65 265.718 1631.86 265.525 1633.02 264.849H1633.06V264.801Z" fill="#E5E5E5"/>
<path d="M1632.44 260.31C1633.34 260.31 1634.08 259.575 1634.08 258.668C1634.08 257.761 1633.34 257.026 1632.44 257.026C1631.53 257.026 1630.8 257.761 1630.8 258.668C1630.8 259.575 1631.53 260.31 1632.44 260.31Z" fill="#E5E5E5"/>
<path d="M1636.16 259.682C1636.93 259.682 1637.56 259.055 1637.56 258.282C1637.56 257.508 1636.93 256.881 1636.16 256.881C1635.38 256.881 1634.76 257.508 1634.76 258.282C1634.76 259.055 1635.38 259.682 1636.16 259.682Z" fill="#E5E5E5"/>
<path d="M1625.77 256.544C1626.73 256.544 1627.51 255.765 1627.51 254.805C1627.51 253.845 1626.73 253.067 1625.77 253.067C1624.81 253.067 1624.04 253.845 1624.04 254.805C1624.04 255.765 1624.81 256.544 1625.77 256.544Z" fill="#E5E5E5"/>
<path d="M1621.67 256.544C1622.63 256.544 1623.41 255.765 1623.41 254.805C1623.41 253.845 1622.63 253.067 1621.67 253.067C1620.71 253.067 1619.93 253.845 1619.93 254.805C1619.93 255.765 1620.71 256.544 1621.67 256.544Z" fill="#E5E5E5"/>
<path d="M1630.6 256.544C1631.56 256.544 1632.34 255.765 1632.34 254.805C1632.34 253.845 1631.56 253.067 1630.6 253.067C1629.64 253.067 1628.86 253.845 1628.86 254.805C1628.86 255.765 1629.64 256.544 1630.6 256.544Z" fill="#E5E5E5"/>
<path d="M1634.75 256.544C1635.71 256.544 1636.49 255.765 1636.49 254.805C1636.49 253.845 1635.71 253.067 1634.75 253.067C1633.79 253.067 1633.02 253.845 1633.02 254.805C1633.02 255.765 1633.79 256.544 1634.75 256.544Z" fill="#E5E5E5"/>
<path d="M1639.25 256.35V256.544C1638.23 256.544 1637.46 255.771 1637.46 254.805C1637.46 253.839 1638.23 253.067 1639.2 253.067C1639.2 253.067 1639.54 254.95 1639.2 256.35H1639.25Z" fill="#E5E5E5"/>
<path d="M1617.18 256.35V256.544C1618.19 256.544 1618.97 255.771 1618.97 254.805C1618.97 253.839 1618.19 253.067 1617.23 253.067C1617.23 253.067 1616.89 254.95 1617.23 256.35H1617.18Z" fill="#E5E5E5"/>
<g opacity="0.2">
<path d="M101.183 373.4C107.771 373.4 113.111 371.26 113.111 368.62C113.111 365.979 107.771 363.839 101.183 363.839C94.5963 363.839 89.2563 365.979 89.2563 368.62C89.2563 371.26 94.5963 373.4 101.183 373.4Z" fill="#393939"/>
</g>
<path d="M105.867 372.483C112.001 372.483 116.973 367.51 116.973 361.376C116.973 355.243 112.001 350.27 105.867 350.27C99.7332 350.27 94.7607 355.243 94.7607 361.376C94.7607 367.51 99.7332 372.483 105.867 372.483Z" fill="white"/>
<path d="M105.771 359.155C106.731 359.155 107.509 358.377 107.509 357.417C107.509 356.457 106.731 355.678 105.771 355.678C104.811 355.678 104.032 356.457 104.032 357.417C104.032 358.377 104.811 359.155 105.771 359.155Z" fill="#E5E5E5"/>
<path d="M101.473 359.204C102.379 359.204 103.114 358.468 103.114 357.562C103.114 356.655 102.379 355.92 101.473 355.92C100.566 355.92 99.8309 356.655 99.8309 357.562C99.8309 358.468 100.566 359.204 101.473 359.204Z" fill="#E5E5E5"/>
<path d="M103.79 355.534C104.697 355.534 105.432 354.799 105.432 353.892C105.432 352.985 104.697 352.25 103.79 352.25C102.883 352.25 102.148 352.985 102.148 353.892C102.148 354.799 102.883 355.534 103.79 355.534Z" fill="#E5E5E5"/>
<path d="M97.7532 359.396C98.5266 359.396 99.1535 358.769 99.1535 357.996C99.1535 357.223 98.5266 356.596 97.7532 356.596C96.9798 356.596 96.3528 357.223 96.3528 357.996C96.3528 358.769 96.9798 359.396 97.7532 359.396Z" fill="#E5E5E5"/>
<path d="M99.9758 355.823C100.749 355.823 101.376 355.196 101.376 354.423C101.376 353.65 100.749 353.023 99.9758 353.023C99.2024 353.023 98.5754 353.65 98.5754 354.423C98.5754 355.196 99.2024 355.823 99.9758 355.823Z" fill="#E5E5E5"/>
<path d="M104.176 350.463C104.176 351.332 104.901 352.057 105.77 352.057C106.639 352.057 107.363 351.332 107.363 350.463C107.363 350.463 105.673 350.029 104.273 350.463H104.128H104.176Z" fill="#E5E5E5"/>
<path d="M96.1125 356.017C96.1125 356.017 96.3057 356.017 96.4506 356.017C97.2232 356.017 97.8509 355.389 97.8509 354.616C97.8509 354.326 97.7543 354.085 97.6095 353.844C97.6095 353.844 96.7403 354.713 96.1608 355.92L96.1125 356.017Z" fill="#E5E5E5"/>
<path d="M107.846 355.534C108.753 355.534 109.488 354.799 109.488 353.892C109.488 352.985 108.753 352.25 107.846 352.25C106.939 352.25 106.204 352.985 106.204 353.892C106.204 354.799 106.939 355.534 107.846 355.534Z" fill="#E5E5E5"/>
<path d="M111.661 355.823C112.435 355.823 113.062 355.196 113.062 354.423C113.062 353.65 112.435 353.023 111.661 353.023C110.888 353.023 110.261 353.65 110.261 354.423C110.261 355.196 110.888 355.823 111.661 355.823Z" fill="#E5E5E5"/>
<path d="M115.524 356.017C115.524 356.017 115.331 356.017 115.186 356.017C114.413 356.017 113.786 355.389 113.786 354.616C113.786 354.326 113.882 354.085 114.027 353.844C114.027 353.844 114.896 354.713 115.476 355.92L115.524 356.017Z" fill="#E5E5E5"/>
<path d="M100.845 351.526C100.845 351.526 100.989 351.671 101.086 351.719C101.714 352.154 102.583 352.009 103.018 351.381C103.162 351.139 103.259 350.898 103.259 350.608C103.259 350.608 102.052 350.802 100.893 351.478H100.845V351.526Z" fill="#E5E5E5"/>
<path d="M110.696 351.526C110.696 351.526 110.551 351.671 110.454 351.719C109.826 352.154 108.957 352.009 108.523 351.381C108.378 351.139 108.281 350.898 108.281 350.608C108.281 350.608 109.488 350.802 110.647 351.478H110.696V351.526Z" fill="#E5E5E5"/>
<path d="M110.116 359.204C111.023 359.204 111.758 358.468 111.758 357.562C111.758 356.655 111.023 355.92 110.116 355.92C109.21 355.92 108.475 356.655 108.475 357.562C108.475 358.468 109.21 359.204 110.116 359.204Z" fill="#E5E5E5"/>
<path d="M113.833 359.396C114.607 359.396 115.234 358.769 115.234 357.996C115.234 357.223 114.607 356.596 113.833 356.596C113.06 356.596 112.433 357.223 112.433 357.996C112.433 358.769 113.06 359.396 113.833 359.396Z" fill="#E5E5E5"/>
<path d="M105.771 367.122C106.731 367.122 107.509 366.344 107.509 365.384C107.509 364.424 106.731 363.646 105.771 363.646C104.811 363.646 104.032 364.424 104.032 365.384C104.032 366.344 104.811 367.122 105.771 367.122Z" fill="#E5E5E5"/>
<path d="M101.473 366.833C102.379 366.833 103.114 366.098 103.114 365.191C103.114 364.284 102.379 363.549 101.473 363.549C100.566 363.549 99.8309 364.284 99.8309 365.191C99.8309 366.098 100.566 366.833 101.473 366.833Z" fill="#E5E5E5"/>
<path d="M103.79 370.551C104.697 370.551 105.432 369.816 105.432 368.909C105.432 368.002 104.697 367.267 103.79 367.267C102.883 367.267 102.148 368.002 102.148 368.909C102.148 369.816 102.883 370.551 103.79 370.551Z" fill="#E5E5E5"/>
<path d="M97.7532 366.205C98.5266 366.205 99.1535 365.578 99.1535 364.805C99.1535 364.032 98.5266 363.405 97.7532 363.405C96.9798 363.405 96.3528 364.032 96.3528 364.805C96.3528 365.578 96.9798 366.205 97.7532 366.205Z" fill="#E5E5E5"/>
<path d="M99.9758 369.779C100.749 369.779 101.376 369.152 101.376 368.378C101.376 367.605 100.749 366.978 99.9758 366.978C99.2024 366.978 98.5754 367.605 98.5754 368.378C98.5754 369.152 99.2024 369.779 99.9758 369.779Z" fill="#E5E5E5"/>
<path d="M104.176 372.338C104.176 371.469 104.901 370.744 105.77 370.744C106.639 370.744 107.363 371.469 107.363 372.338C107.363 372.338 105.673 372.772 104.273 372.338H104.128H104.176Z" fill="#E5E5E5"/>
<path d="M96.1125 366.736C96.1125 366.736 96.3057 366.736 96.4506 366.736C97.2232 366.736 97.8509 367.364 97.8509 368.137C97.8509 368.426 97.7543 368.668 97.6095 368.909C97.6095 368.909 96.7403 368.04 96.1608 366.833L96.1125 366.736Z" fill="#E5E5E5"/>
<path d="M107.846 370.551C108.753 370.551 109.488 369.816 109.488 368.909C109.488 368.002 108.753 367.267 107.846 367.267C106.939 367.267 106.204 368.002 106.204 368.909C106.204 369.816 106.939 370.551 107.846 370.551Z" fill="#E5E5E5"/>
<path d="M111.661 369.779C112.435 369.779 113.062 369.152 113.062 368.378C113.062 367.605 112.435 366.978 111.661 366.978C110.888 366.978 110.261 367.605 110.261 368.378C110.261 369.152 110.888 369.779 111.661 369.779Z" fill="#E5E5E5"/>
<path d="M115.572 366.736C115.572 366.736 115.379 366.736 115.234 366.736C114.462 366.736 113.834 367.364 113.834 368.137C113.834 368.426 113.93 368.668 114.075 368.909C114.075 368.909 114.944 368.04 115.524 366.833L115.572 366.736Z" fill="#E5E5E5"/>
<path d="M100.845 371.275C100.845 371.275 100.989 371.13 101.086 371.082C101.714 370.647 102.583 370.792 103.018 371.42C103.162 371.662 103.259 371.903 103.259 372.193C103.259 372.193 102.052 371.999 100.893 371.323H100.845V371.275Z" fill="#E5E5E5"/>
<path d="M110.696 371.324C110.696 371.324 110.551 371.179 110.454 371.13C109.826 370.696 108.957 370.841 108.523 371.468C108.378 371.71 108.281 371.951 108.281 372.241C108.281 372.241 109.488 372.048 110.647 371.372H110.696V371.324Z" fill="#E5E5E5"/>
<path d="M110.116 366.833C111.023 366.833 111.758 366.098 111.758 365.191C111.758 364.284 111.023 363.549 110.116 363.549C109.21 363.549 108.475 364.284 108.475 365.191C108.475 366.098 109.21 366.833 110.116 366.833Z" fill="#E5E5E5"/>
<path d="M113.833 366.205C114.607 366.205 115.234 365.578 115.234 364.805C115.234 364.032 114.607 363.405 113.833 363.405C113.06 363.405 112.433 364.032 112.433 364.805C112.433 365.578 113.06 366.205 113.833 366.205Z" fill="#E5E5E5"/>
<path d="M103.452 363.067C104.412 363.067 105.19 362.288 105.19 361.328C105.19 360.368 104.412 359.59 103.452 359.59C102.492 359.59 101.714 360.368 101.714 361.328C101.714 362.288 102.492 363.067 103.452 363.067Z" fill="#E5E5E5"/>
<path d="M99.3481 363.067C100.308 363.067 101.086 362.288 101.086 361.328C101.086 360.368 100.308 359.59 99.3481 359.59C98.388 359.59 97.6097 360.368 97.6097 361.328C97.6097 362.288 98.388 363.067 99.3481 363.067Z" fill="#E5E5E5"/>
<path d="M108.281 363.067C109.241 363.067 110.019 362.288 110.019 361.328C110.019 360.368 109.241 359.59 108.281 359.59C107.321 359.59 106.542 360.368 106.542 361.328C106.542 362.288 107.321 363.067 108.281 363.067Z" fill="#E5E5E5"/>
<path d="M112.386 363.067C113.346 363.067 114.124 362.288 114.124 361.328C114.124 360.368 113.346 359.59 112.386 359.59C111.426 359.59 110.647 360.368 110.647 361.328C110.647 362.288 111.426 363.067 112.386 363.067Z" fill="#E5E5E5"/>
<path d="M116.876 362.873V363.067C115.862 363.067 115.089 362.294 115.089 361.328C115.089 360.362 115.862 359.59 116.828 359.59C116.828 359.59 117.166 361.473 116.828 362.873H116.876Z" fill="#E5E5E5"/>
<path d="M94.8564 362.873V363.067C95.8705 363.067 96.6431 362.294 96.6431 361.328C96.6431 360.362 95.8705 359.59 94.9047 359.59C94.9047 359.59 94.5667 361.473 94.9047 362.873H94.8564Z" fill="#E5E5E5"/>
<g opacity="0.2">
<path d="M1711.97 306.328C1722.45 306.328 1730.94 302.934 1730.94 298.747C1730.94 294.56 1722.45 291.166 1711.97 291.166C1701.49 291.166 1692.99 294.56 1692.99 298.747C1692.99 302.934 1701.49 306.328 1711.97 306.328Z" fill="#393939"/>
</g>
<path d="M1719.45 304.976C1729.21 304.976 1737.13 297.063 1737.13 287.303C1737.13 277.542 1729.21 269.629 1719.45 269.629C1709.69 269.629 1701.78 277.542 1701.78 287.303C1701.78 297.063 1709.69 304.976 1719.45 304.976Z" fill="white"/>
<path d="M1719.26 283.73C1720.78 283.73 1722.01 282.497 1722.01 280.977C1722.01 279.457 1720.78 278.225 1719.26 278.225C1717.74 278.225 1716.51 279.457 1716.51 280.977C1716.51 282.497 1717.74 283.73 1719.26 283.73Z" fill="#E5E5E5"/>
<path d="M1712.45 283.826C1713.89 283.826 1715.06 282.658 1715.06 281.218C1715.06 279.778 1713.89 278.611 1712.45 278.611C1711.01 278.611 1709.84 279.778 1709.84 281.218C1709.84 282.658 1711.01 283.826 1712.45 283.826Z" fill="#E5E5E5"/>
<path d="M1716.12 277.983C1717.56 277.983 1718.73 276.816 1718.73 275.376C1718.73 273.936 1717.56 272.768 1716.12 272.768C1714.68 272.768 1713.51 273.936 1713.51 275.376C1713.51 276.816 1714.68 277.983 1716.12 277.983Z" fill="#E5E5E5"/>
<path d="M1706.51 284.067C1707.71 284.067 1708.68 283.095 1708.68 281.894C1708.68 280.694 1707.71 279.721 1706.51 279.721C1705.31 279.721 1704.34 280.694 1704.34 281.894C1704.34 283.095 1705.31 284.067 1706.51 284.067Z" fill="#E5E5E5"/>
<path d="M1710.08 278.37C1711.28 278.37 1712.26 277.397 1712.26 276.197C1712.26 274.997 1711.28 274.024 1710.08 274.024C1708.88 274.024 1707.91 274.997 1707.91 276.197C1707.91 277.397 1708.88 278.37 1710.08 278.37Z" fill="#E5E5E5"/>
<path d="M1716.7 269.919C1716.7 271.32 1717.86 272.478 1719.26 272.478C1720.66 272.478 1721.82 271.32 1721.82 269.919C1721.82 269.919 1719.16 269.195 1716.89 269.871H1716.65L1716.7 269.919Z" fill="#E5E5E5"/>
<path d="M1704 278.756C1704 278.756 1704.34 278.804 1704.53 278.804C1705.74 278.804 1706.7 277.838 1706.7 276.631C1706.7 276.197 1706.56 275.762 1706.32 275.424C1706.32 275.424 1704.92 276.824 1704 278.708V278.804V278.756Z" fill="#E5E5E5"/>
<path d="M1722.59 277.983C1724.03 277.983 1725.2 276.816 1725.2 275.376C1725.2 273.936 1724.03 272.768 1722.59 272.768C1721.15 272.768 1719.98 273.936 1719.98 275.376C1719.98 276.816 1721.15 277.983 1722.59 277.983Z" fill="#E5E5E5"/>
<path d="M1728.63 278.37C1729.83 278.37 1730.8 277.397 1730.8 276.197C1730.8 274.997 1729.83 274.024 1728.63 274.024C1727.43 274.024 1726.45 274.997 1726.45 276.197C1726.45 277.397 1727.43 278.37 1728.63 278.37Z" fill="#E5E5E5"/>
<path d="M1734.71 278.756C1734.71 278.756 1734.37 278.804 1734.18 278.804C1732.97 278.804 1732.01 277.838 1732.01 276.631C1732.01 276.197 1732.15 275.762 1732.39 275.424C1732.39 275.424 1733.79 276.824 1734.71 278.708V278.804V278.756Z" fill="#E5E5E5"/>
<path d="M1711.44 271.609C1711.44 271.609 1711.68 271.851 1711.82 271.947C1712.84 272.623 1714.19 272.382 1714.86 271.368C1715.11 270.982 1715.25 270.547 1715.25 270.161C1715.25 270.161 1713.32 270.499 1711.48 271.561H1711.39L1711.44 271.609Z" fill="#E5E5E5"/>
<path d="M1727.08 271.609C1727.08 271.609 1726.84 271.851 1726.69 271.947C1725.68 272.623 1724.33 272.382 1723.65 271.368C1723.41 270.982 1723.27 270.547 1723.27 270.161C1723.27 270.161 1725.2 270.499 1727.03 271.561H1727.13L1727.08 271.609Z" fill="#E5E5E5"/>
<path d="M1726.16 283.826C1727.6 283.826 1728.77 282.658 1728.77 281.218C1728.77 279.778 1727.6 278.611 1726.16 278.611C1724.72 278.611 1723.56 279.778 1723.56 281.218C1723.56 282.658 1724.72 283.826 1726.16 283.826Z" fill="#E5E5E5"/>
<path d="M1732.06 284.067C1733.26 284.067 1734.23 283.095 1734.23 281.894C1734.23 280.694 1733.26 279.721 1732.06 279.721C1730.86 279.721 1729.88 280.694 1729.88 281.894C1729.88 283.095 1730.86 284.067 1732.06 284.067Z" fill="#E5E5E5"/>
<path d="M1719.26 296.381C1720.78 296.381 1722.01 295.149 1722.01 293.629C1722.01 292.109 1720.78 290.876 1719.26 290.876C1717.74 290.876 1716.51 292.109 1716.51 293.629C1716.51 295.149 1717.74 296.381 1719.26 296.381Z" fill="#E5E5E5"/>
<path d="M1712.45 295.946C1713.89 295.946 1715.06 294.779 1715.06 293.339C1715.06 291.899 1713.89 290.731 1712.45 290.731C1711.01 290.731 1709.84 291.899 1709.84 293.339C1709.84 294.779 1711.01 295.946 1712.45 295.946Z" fill="#E5E5E5"/>
<path d="M1716.12 301.789C1717.56 301.789 1718.73 300.622 1718.73 299.182C1718.73 297.742 1717.56 296.574 1716.12 296.574C1714.68 296.574 1713.51 297.742 1713.51 299.182C1713.51 300.622 1714.68 301.789 1716.12 301.789Z" fill="#E5E5E5"/>
<path d="M1706.51 294.884C1707.71 294.884 1708.68 293.911 1708.68 292.711C1708.68 291.511 1707.71 290.538 1706.51 290.538C1705.31 290.538 1704.34 291.511 1704.34 292.711C1704.34 293.911 1705.31 294.884 1706.51 294.884Z" fill="#E5E5E5"/>
<path d="M1710.08 300.534C1711.28 300.534 1712.26 299.561 1712.26 298.361C1712.26 297.161 1711.28 296.188 1710.08 296.188C1708.88 296.188 1707.91 297.161 1707.91 298.361C1707.91 299.561 1708.88 300.534 1710.08 300.534Z" fill="#E5E5E5"/>
<path d="M1716.7 304.638C1716.7 303.238 1717.86 302.079 1719.26 302.079C1720.66 302.079 1721.82 303.238 1721.82 304.638C1721.82 304.638 1719.16 305.362 1716.89 304.686H1716.65L1716.7 304.638Z" fill="#E5E5E5"/>
<path d="M1704 295.802C1704 295.802 1704.34 295.753 1704.53 295.753C1705.74 295.753 1706.7 296.719 1706.7 297.926C1706.7 298.361 1706.56 298.796 1706.32 299.134C1706.32 299.134 1704.92 297.733 1704 295.85V295.753V295.802Z" fill="#E5E5E5"/>
<path d="M1722.59 301.789C1724.03 301.789 1725.2 300.622 1725.2 299.182C1725.2 297.742 1724.03 296.574 1722.59 296.574C1721.15 296.574 1719.98 297.742 1719.98 299.182C1719.98 300.622 1721.15 301.789 1722.59 301.789Z" fill="#E5E5E5"/>
<path d="M1728.63 300.534C1729.83 300.534 1730.8 299.561 1730.8 298.361C1730.8 297.161 1729.83 296.188 1728.63 296.188C1727.43 296.188 1726.45 297.161 1726.45 298.361C1726.45 299.561 1727.43 300.534 1728.63 300.534Z" fill="#E5E5E5"/>
<path d="M1734.81 295.802C1734.81 295.802 1734.47 295.753 1734.28 295.753C1733.07 295.753 1732.1 296.719 1732.1 297.926C1732.1 298.361 1732.25 298.796 1732.49 299.134C1732.49 299.134 1733.89 297.733 1734.81 295.85V295.753V295.802Z" fill="#E5E5E5"/>
<path d="M1711.44 302.996C1711.44 302.996 1711.68 302.755 1711.82 302.658C1712.84 301.982 1714.19 302.224 1714.86 303.238C1715.11 303.624 1715.25 304.059 1715.25 304.445C1715.25 304.445 1713.32 304.107 1711.48 303.045H1711.39L1711.44 302.996Z" fill="#E5E5E5"/>
<path d="M1727.13 303.045C1727.13 303.045 1726.89 302.803 1726.74 302.707C1725.73 302.031 1724.38 302.272 1723.7 303.286C1723.46 303.672 1723.32 304.107 1723.32 304.493C1723.32 304.493 1725.25 304.155 1727.08 303.093H1727.18L1727.13 303.045Z" fill="#E5E5E5"/>
<path d="M1726.16 295.946C1727.6 295.946 1728.77 294.779 1728.77 293.339C1728.77 291.899 1727.6 290.731 1726.16 290.731C1724.72 290.731 1723.56 291.899 1723.56 293.339C1723.56 294.779 1724.72 295.946 1726.16 295.946Z" fill="#E5E5E5"/>
<path d="M1732.06 294.884C1733.26 294.884 1734.23 293.911 1734.23 292.711C1734.23 291.511 1733.26 290.538 1732.06 290.538C1730.86 290.538 1729.88 291.511 1729.88 292.711C1729.88 293.911 1730.86 294.884 1732.06 294.884Z" fill="#E5E5E5"/>
<path d="M1715.59 289.91C1717.11 289.91 1718.34 288.678 1718.34 287.158C1718.34 285.638 1717.11 284.406 1715.59 284.406C1714.07 284.406 1712.84 285.638 1712.84 287.158C1712.84 288.678 1714.07 289.91 1715.59 289.91Z" fill="#E5E5E5"/>
<path d="M1709.07 289.91C1710.59 289.91 1711.82 288.678 1711.82 287.158C1711.82 285.638 1710.59 284.406 1709.07 284.406C1707.55 284.406 1706.32 285.638 1706.32 287.158C1706.32 288.678 1707.55 289.91 1709.07 289.91Z" fill="#E5E5E5"/>
<path d="M1723.27 289.91C1724.79 289.91 1726.02 288.678 1726.02 287.158C1726.02 285.638 1724.79 284.406 1723.27 284.406C1721.75 284.406 1720.51 285.638 1720.51 287.158C1720.51 288.678 1721.75 289.91 1723.27 289.91Z" fill="#E5E5E5"/>
<path d="M1729.79 289.91C1731.31 289.91 1732.54 288.678 1732.54 287.158C1732.54 285.638 1731.31 284.406 1729.79 284.406C1728.27 284.406 1727.03 285.638 1727.03 287.158C1727.03 288.678 1728.27 289.91 1729.79 289.91Z" fill="#E5E5E5"/>
<path d="M1736.93 289.669V289.959C1735.34 289.959 1734.13 288.703 1734.13 287.207C1734.13 285.71 1735.39 284.454 1736.88 284.454C1736.88 284.454 1737.37 287.4 1736.93 289.669Z" fill="#E5E5E5"/>
<path d="M1701.97 289.669V289.959C1703.57 289.959 1704.77 288.703 1704.77 287.207C1704.77 285.71 1703.52 284.454 1702.02 284.454C1702.02 284.454 1701.54 287.4 1701.97 289.669Z" fill="#E5E5E5"/>
<path d="M1520.31 220.376C1527.03 220.376 1532.48 218.538 1532.48 216.271C1532.48 214.005 1527.03 212.167 1520.31 212.167C1513.59 212.167 1508.14 214.005 1508.14 216.271C1508.14 218.538 1513.59 220.376 1520.31 220.376Z" fill="#393939"/>
<path d="M1509.35 218.058C1509.35 218.058 1509.35 217.962 1509.35 217.913C1509.35 216.127 1514.42 214.678 1520.65 214.678C1526.4 214.678 1531.18 215.933 1531.9 217.527C1532.29 217.189 1532.48 216.754 1532.48 216.32C1532.48 214.05 1527.02 212.215 1520.31 212.215C1513.6 212.215 1508.14 214.05 1508.14 216.32C1508.14 216.947 1508.58 217.575 1509.3 218.106L1509.35 218.058Z" fill="#396702"/>
<path d="M1516.55 220.424C1515.97 220.424 1515.48 219.941 1515.48 219.314C1516.93 136.162 1524.95 95.89 1525.05 95.5037C1525.14 94.9243 1525.72 94.538 1526.3 94.6829C1526.88 94.7795 1527.27 95.3588 1527.12 95.9383C1527.02 96.3246 1519.06 136.452 1517.61 219.362C1517.61 219.941 1517.13 220.424 1516.55 220.424Z" fill="#B47E46"/>
<path d="M1535.38 98.5456C1540.74 100.525 1545.13 104.533 1550.4 106.755C1555.9 109.121 1562.27 109.41 1568.02 107.527C1564.5 110.714 1560.05 112.742 1555.42 113.853C1553.1 114.432 1550.73 114.819 1548.37 114.674C1546.1 114.529 1543.93 113.949 1541.7 113.611C1534.85 112.501 1527.7 113.515 1521.47 116.509C1520.46 110.666 1522 104.533 1523.69 99.125C1524.32 97.0486 1524.95 97.3384 1527.56 97.1935C1530.16 97.0487 1532.96 97.6281 1535.43 98.5456H1535.38Z" fill="#FF5C50"/>
<path d="M226.056 160.064C234.216 160.064 240.832 153.449 240.832 145.288C240.832 137.128 234.216 130.512 226.056 130.512C217.895 130.512 211.28 137.128 211.28 145.288C211.28 153.449 217.895 160.064 226.056 160.064Z" fill="#393939"/>
<path d="M226.055 155.815C231.869 155.815 236.582 151.102 236.582 145.288C236.582 139.475 231.869 134.762 226.055 134.762C220.241 134.762 215.528 139.475 215.528 145.288C215.528 151.102 220.241 155.815 226.055 155.815Z" fill="white"/>
<path d="M226.054 148.234C227.681 148.234 229 146.915 229 145.288C229 143.661 227.681 142.343 226.054 142.343C224.427 142.343 223.109 143.661 223.109 145.288C223.109 146.915 224.427 148.234 226.054 148.234Z" fill="#7CD5C3"/>
<path d="M97.561 166.052C105.722 166.052 112.337 159.437 112.337 151.276C112.337 143.115 105.722 136.5 97.561 136.5C89.4004 136.5 82.7849 143.115 82.7849 151.276C82.7849 159.437 89.4004 166.052 97.561 166.052Z" fill="#393939"/>
<path d="M97.562 161.803C103.376 161.803 108.089 157.09 108.089 151.276C108.089 145.462 103.376 140.749 97.562 140.749C91.7482 140.749 87.0352 145.462 87.0352 151.276C87.0352 157.09 91.7482 161.803 97.562 161.803Z" fill="white"/>
<path d="M97.561 154.222C99.1878 154.222 100.507 152.903 100.507 151.276C100.507 149.649 99.1878 148.331 97.561 148.331C95.9342 148.331 94.6154 149.649 94.6154 151.276C94.6154 152.903 95.9342 154.222 97.561 154.222Z" fill="#7CD5C3"/>
<path d="M212.216 11.9338L209.515 12.0598L212.936 85.4258L215.637 85.2998L212.216 11.9338Z" fill="#393939"/>
<path d="M99.0101 99.8979L96.3059 99.9944L113.931 16.5049L116.683 16.4082L99.0101 99.8979Z" fill="#393939"/>
<path d="M101.714 105.596L105.335 103.713C106.542 103.085 107.991 103.423 108.812 104.485L128.272 130.657C129.141 131.816 128.948 133.41 127.886 134.327L124.312 137.901L101.665 105.548L101.714 105.596Z" fill="#393939"/>
<path d="M108.957 105.258L136.915 80.438L138.702 82.1763L111.081 107.334L108.957 105.258Z" fill="#393939"/>
<path d="M147.044 87.6066L131.976 70.1863C131.348 69.4602 130.25 69.3807 129.524 70.0088L129.487 70.0404C128.761 70.6685 128.682 71.7664 129.31 72.4925L144.378 89.9128C145.007 90.6389 146.104 90.7183 146.831 90.0902L146.867 90.0586C147.593 89.4305 147.673 88.3327 147.044 87.6066Z" fill="#393939"/>
<path d="M184.275 112.137C184.234 111.257 183.488 110.578 182.609 110.619C181.73 110.66 181.05 111.406 181.091 112.285L181.582 122.8C181.623 123.68 182.369 124.359 183.248 124.318C184.127 124.277 184.806 123.531 184.765 122.652L184.275 112.137Z" fill="#393939"/>
<path d="M206.201 70.522C206.623 67.4305 204.469 64.5837 201.391 64.1636C198.312 63.7436 195.475 65.9094 195.053 69.0009L189.909 106.702C189.487 109.794 191.64 112.641 194.719 113.061C197.797 113.481 200.635 111.315 201.056 108.224L206.201 70.522Z" fill="#7CD5C3"/>
<path d="M195.111 102.805L163.469 104.281C160.645 104.413 158.463 106.809 158.595 109.632L158.597 109.681C158.728 112.504 161.124 114.687 163.948 114.555L195.591 113.079C198.414 112.948 200.597 110.552 200.465 107.728L200.463 107.68C200.331 104.856 197.935 102.674 195.111 102.805Z" fill="#7CD5C3"/>
<path d="M204.18 78.603C204.18 78.603 200.848 112.598 189.935 118.537C189.935 118.537 180.036 123.076 172.214 124.283L171.248 138.77L129.044 140.749L101.375 103.278L101.086 97.0007L93.9874 97.3387L94.2288 102.216L65.5941 121.241C64.4835 122.014 63.8075 123.269 63.8558 124.621L64.725 143.116C64.8216 145.24 66.6082 146.882 68.7329 146.785C94.6634 145.626 242.666 138.915 242.666 138.673C242.666 138.432 241.507 118.054 241.072 110.183C240.975 108.397 239.623 106.9 237.885 106.61L222.192 103.906L218.908 80.3415L204.084 78.5547L204.18 78.603Z" fill="#FF3E40"/>
<path d="M242.616 137.638L64.8689 145.927C63.5369 145.989 62.5075 147.119 62.5696 148.451C62.6317 149.783 63.7619 150.812 65.0939 150.75L242.841 142.461C244.173 142.399 245.203 141.269 245.141 139.937C245.078 138.605 243.948 137.576 242.616 137.638Z" fill="#393939"/>
<path d="M107.266 18.726C107.122 15.5873 109.584 12.8832 112.723 12.7383L214.562 8.00608C217.701 7.86121 220.405 10.3239 220.55 13.4626L107.266 18.726Z" fill="#FF3E40"/>
<path d="M1780.96 462.312C1780.96 539.203 1679.33 601.523 1553.98 601.523C1428.63 601.523 1327 539.203 1327 462.312C1327 385.421 1428.63 324.88 1553.98 323.102C1767.34 320.069 1780.96 385.421 1780.96 462.312Z" fill="#D1B777"/>
<path d="M1787 471.388C1787 548.279 1685.37 610.599 1560.02 610.599C1434.67 610.599 1333.04 548.279 1333.04 471.388C1333.04 394.497 1434.67 333.956 1560.02 332.177C1773.39 329.144 1787 394.497 1787 471.388Z" fill="#E7D58C"/>
<path d="M1647.47 562.257C1615.48 548.552 1583.46 534.848 1551.47 521.166C1532.11 512.866 1511.68 503.745 1499.82 486.324C1491.18 473.645 1488.85 454.81 1499.62 443.865C1506.41 436.956 1516.56 434.858 1526.09 433.056C1538.38 430.753 1550.67 428.427 1562.96 426.124C1569.92 424.825 1577.28 423.297 1582.37 418.394C1586.61 414.29 1588.57 408.475 1591.63 403.413C1605.35 380.701 1636.41 378.216 1662.57 373.746C1679.26 370.896 1695.65 366.222 1711.34 359.814L1724.63 354.159C1690.95 339.337 1639.28 331.037 1560.07 332.154C1434.72 333.933 1333.09 394.474 1333.09 471.365C1333.09 548.256 1434.72 610.576 1560.07 610.576C1560.07 610.576 1659.94 593.93 1659.94 569.713L1647.52 562.234L1647.47 562.257Z" fill="#D9CA89"/>
</g>
</svg>
