<svg width="152" height="25" viewBox="0 0 152 25" fill="none" xmlns="http://www.w3.org/2000/svg">
<path d="M77.7328 9.39135H71.818C71.6228 9.39135 71.4648 9.24392 71.4648 9.05627V5.80827C71.4648 5.62063 71.6228 5.46875 71.818 5.46875H74.7731L75.3399 5.47767H87.3926C87.5878 5.47767 87.7458 5.62957 87.7458 5.81721V9.06522C87.7458 9.25286 87.5878 9.40476 87.3926 9.40476H84.0658L81.8077 9.38688V19.5642L77.7374 21.3156V9.39135H77.7328Z" fill="#2962F6"/>
<path d="M57.2273 21.4044C55.7452 21.4044 54.5557 20.9577 53.5939 20.0329C53.1385 19.595 52.7901 19.0813 52.5531 18.5094C52.3161 17.9286 52.1953 17.2674 52.1953 16.5436V10.2665C52.1953 9.53831 52.3161 8.87262 52.5531 8.28289C52.7901 7.70209 53.1385 7.18385 53.5939 6.75048C54.551 5.83014 55.7405 5.37891 57.2273 5.37891H63.4349C64.1365 5.37891 64.8009 5.52633 65.4096 5.81673C66.0322 6.11606 66.5851 6.51815 67.0498 7.00959C67.5051 7.50997 67.8675 8.10419 68.1184 8.76541C68.3694 9.43556 68.4948 10.1414 68.4948 10.8741V14.0909C68.4948 14.2294 68.453 14.2874 68.4112 14.3321C68.3647 14.3723 68.3089 14.4125 68.1881 14.4125L56.5536 14.3857V16.2845C56.5536 16.6732 56.6372 17.0082 56.8045 17.2763C56.9625 17.5354 57.1623 17.7409 57.39 17.8884C57.599 18.0224 57.8221 18.1207 58.0497 18.1788C58.2728 18.2324 58.454 18.2592 58.6073 18.2592H62.5335C62.8262 18.2592 63.1189 18.2234 63.3977 18.152C63.63 18.0939 64.1644 17.8616 64.1644 17.0261V16.977C64.1644 16.8697 64.1969 16.8117 64.248 16.7625C64.3084 16.7044 64.3735 16.6821 64.471 16.6821H68.1835C68.2811 16.6821 68.3461 16.7044 68.4065 16.767C68.4669 16.8295 68.4902 16.8876 68.4902 16.9814V17.312C68.4902 18.0269 68.3693 18.6434 68.1324 19.1348C67.8954 19.6308 67.5609 20.0373 67.1148 20.3769C66.6641 20.7209 66.1205 20.98 65.5072 21.1453C64.8706 21.3195 64.1737 21.4044 63.4349 21.4044H57.2273ZM58.6073 8.54647C57.9754 8.54647 57.4457 8.78774 57.074 9.23898C56.7302 9.65894 56.5536 10.2353 56.5536 10.9545V11.4996H64.1644V10.9545C64.1644 10.2353 63.9878 9.65894 63.644 9.23898C63.2723 8.78774 62.7426 8.54647 62.1107 8.54647H58.6073Z" fill="#2962F6"/>
<path d="M124.747 21.6142C124.631 21.6142 124.538 21.5829 124.45 21.5159C124.297 21.4042 124.12 21.2255 123.925 20.9932L121.718 18.4422H119.079V21.23C119.079 21.3685 119.032 21.4087 119.009 21.431C118.967 21.4712 118.912 21.507 118.795 21.507H115.259C115.148 21.507 115.101 21.4757 115.069 21.4444C115.05 21.4087 115.004 21.2434 115.004 20.5643V7.54551C115.004 7.2149 115.236 6.53581 115.738 6.12032C116.258 5.69142 116.886 5.48145 117.666 5.48145H123.888C125.008 5.48145 126.048 5.5842 126.973 5.78972C127.86 5.98629 128.646 6.33032 129.301 6.80836C129.947 7.28193 130.453 7.89398 130.806 8.62667C131.164 9.36831 131.345 10.3065 131.345 11.4145V12.6565C131.345 14.4793 131.006 15.2433 130.239 16.2575C129.505 17.2314 128.478 17.8614 127.108 18.183L126.234 18.3841L128.952 21.6097H124.757L124.747 21.6142ZM119.074 15.3907H123.358C124.236 15.3907 124.905 15.3103 125.398 15.1495C125.923 14.9797 126.327 14.734 126.601 14.4302C126.889 14.0549 127.001 13.6707 127.075 13.3446L127.084 13.2954C127.131 13.0765 127.131 13.0765 127.136 13.0229L127.15 12.9157V11.687C127.15 11.1554 127.084 10.6863 126.954 10.2931C126.801 9.82403 126.504 9.46215 126.076 9.20749C125.718 8.97964 125.235 8.80985 124.65 8.71156C124.111 8.62221 123.423 8.58201 122.605 8.58201H119.069V15.3863L119.074 15.3907Z" fill="#2962F6"/>
<path d="M34.2188 21.2521L34.2002 18.0801V11.0167L37.7221 9.50217V14.6981L38.3029 14.707H41.2673C42.4289 14.707 43.5162 14.2647 44.3247 13.4561C45.1331 12.6519 45.5559 11.5886 45.5141 10.4716C45.4351 8.30036 43.4837 6.53563 41.1698 6.53563H31.3984V3.13574H41.2673C45.5559 3.13574 49.0454 6.49543 49.0454 10.6191C49.0454 14.7427 45.5559 18.098 41.2673 18.098H37.7314V21.2343L37.7129 21.2521H34.2234H34.2188Z" fill="#2962F6"/>
<path d="M96.5508 21.2521L96.5322 18.0712V11.0167L100.054 9.50217V14.6981L100.635 14.707H103.599C104.761 14.707 105.848 14.2647 106.657 13.4561C107.465 12.6519 107.888 11.593 107.846 10.4716C107.767 8.30036 105.816 6.53563 103.502 6.53563H93.7305V3.13574H103.599C107.888 3.13574 111.377 6.49543 111.377 10.6191C111.377 14.7427 107.888 18.098 103.599 18.098H100.063V21.2343L100.045 21.2521H96.5554H96.5508Z" fill="#2962F6"/>
<path d="M140.945 21.5511C137.484 21.5511 134.668 18.9196 134.668 15.685V11.2352C134.668 8.0006 137.484 5.36914 140.945 5.36914H145.694C149.155 5.36914 151.971 8.0006 151.971 11.2352V15.685C151.971 18.9196 149.155 21.5511 145.694 21.5511H140.945ZM142.2 8.84053C140.104 8.84053 138.404 10.4399 138.404 12.4102V14.51C138.404 16.4802 140.109 18.0797 142.2 18.0797H144.439C146.535 18.0797 148.235 16.4802 148.235 14.51V12.4102C148.235 10.4399 146.53 8.84053 144.439 8.84053H142.2Z" fill="#2962F6"/>
<path d="M14.7906 11.9148C13.9171 11.7093 12.9878 12.0801 12.4627 12.7816C11.1664 14.5061 9.89796 17.7809 10.7575 19.9254C11.027 20.5955 11.8494 21.1138 12.6858 21.2299C13.1551 21.2925 13.7359 21.1272 14.1866 20.9842C14.8138 20.7832 15.3063 20.4525 15.5201 20.2157C15.7338 19.979 15.9754 19.5814 16.2124 19.5009C16.454 19.4294 16.8908 19.5992 17.2114 19.6618C17.532 19.7243 18.1313 19.6975 18.754 19.492C19.2047 19.3446 19.7715 19.1346 20.1014 18.8084C20.6915 18.2277 20.9981 17.3386 20.803 16.6461C20.2083 14.5239 17.2253 12.4956 14.7906 11.9238V11.9148Z" fill="#2962F6"/>
<path d="M4.36828 13.1931C3.77354 14.1089 4.47515 15.2214 5.1814 15.8513C5.92482 16.5215 6.61247 16.8699 7.63932 16.7359C8.55465 16.6153 9.11689 15.9675 8.79629 15.0427C8.53145 14.2787 7.64861 13.5192 6.97489 13.059C6.28258 12.5855 5.06988 12.3397 4.36828 13.1886V13.1931Z" fill="#2962F6"/>
<path d="M21.7546 7.65285C22.7954 8.05047 22.9208 9.34164 22.7489 10.2575C22.563 11.2181 22.2285 11.8971 21.3178 12.3707C20.5047 12.7951 19.6544 12.5986 19.3384 11.6738C19.0782 10.9098 19.3199 9.79288 19.5754 9.03785C19.8403 8.26047 20.658 7.37139 21.7546 7.65285Z" fill="#2962F6"/>
<path d="M7.43324 6.87094C6.40639 7.77788 7.029 9.23882 7.46111 10.0117C7.98615 10.9499 8.85503 12.0267 10.0817 11.9998C12.5164 11.9507 11.155 8.14423 10.2025 7.15241C9.89583 6.83074 9.44512 6.5046 8.99906 6.42865C8.44614 6.33036 8.27888 6.37057 7.43324 6.87541V6.87094Z" fill="#2962F6"/>
<path d="M14.0995 4.49425C12.8264 5.1242 12.8821 6.22771 13.1702 7.34463C13.3979 8.22029 13.7742 9.45784 14.6245 9.94929C15.577 10.4988 16.7618 9.91803 17.1243 8.95748C17.496 7.97459 17.3984 6.73256 16.9941 5.78094C16.6364 4.94102 15.6374 3.95367 14.0948 4.49425H14.0995Z" fill="#2962F6"/>
<path d="M19.5209 23.4771C19.2049 23.5843 18.8843 23.6826 18.573 23.7809L18.4754 23.8122C18.1548 23.9105 17.8389 24.0177 17.5229 24.1249C16.4543 24.4823 15.3438 24.8532 14.1125 24.9604C10.8647 25.2419 8.36957 24.0222 6.69687 21.3371C6.15325 20.4614 5.36801 19.827 4.2343 19.3445C1.45112 18.1651 -0.202993 15.8285 0.0200332 13.3936C0.219827 11.2044 1.31172 9.68988 3.18421 8.97059C3.00765 8.14854 3.00765 7.10759 3.00765 7.08972C3.14239 5.21776 4.42015 3.38154 6.18113 2.52375C7.43101 1.91168 8.75058 1.85807 9.95864 2.35844C10.1398 2.12613 10.4047 1.83571 10.7764 1.45149L10.7903 1.43811C12.542 -0.3713 15.446 -0.487448 17.6995 1.17006C17.876 1.29962 18.4197 1.87593 18.4243 1.8804C18.5962 2.06358 18.731 2.21102 18.8332 2.33611C21.7372 2.34505 23.1729 2.97498 24.8038 4.8916C27.034 7.51413 26.4626 11.124 25.8399 13.608C25.7517 13.952 25.6587 14.3005 25.5611 14.6445C25.3474 15.413 25.129 16.2127 25.0175 16.9856C24.7387 18.8977 23.8838 20.6133 22.6061 21.8062C21.7047 22.6461 20.622 23.1108 19.5209 23.4816V23.4771ZM4.76861 18.1606C6.15323 18.7458 7.15685 19.5679 7.84451 20.6714C9.2663 22.9589 11.2178 23.9105 13.9824 23.6737C15.0511 23.5799 16.0361 23.2537 17.0722 22.9052C17.3975 22.798 17.7227 22.6863 18.0526 22.5836L18.1548 22.5523C19.479 22.1413 20.7336 21.7526 21.6675 20.8814C22.7315 19.8851 23.4471 18.442 23.684 16.8113C23.8095 15.9625 24.0371 15.127 24.2602 14.3184C24.3531 13.9789 24.446 13.6438 24.5297 13.3087C25.0872 11.0927 25.6123 7.88942 23.7583 5.71367C22.4202 4.14105 21.4212 3.59151 18.4615 3.63619C18.1641 3.63619 17.8993 3.45748 17.811 3.18942C17.6205 2.94817 17.0211 2.33164 16.8678 2.19314C15.4181 1.13431 13.2111 0.843902 11.7754 2.32717L11.7568 2.34503C11.2736 2.84094 11.0273 3.14476 10.9251 3.28773C10.9158 3.39048 10.8833 3.4977 10.8229 3.59153C10.6231 3.89086 10.2095 3.98469 9.89823 3.79258C8.66694 3.05094 7.52858 3.32345 6.7898 3.68533C5.46094 4.33314 4.45732 5.76726 4.35046 7.17458C4.35046 7.44264 4.44803 8.55957 4.55025 8.94826C4.61994 9.02421 4.67568 9.11355 4.70356 9.2163C4.80113 9.56032 4.58742 9.91327 4.22965 10.0071C2.47332 10.4539 1.5394 11.602 1.36284 13.5142C1.15376 15.7927 3.0727 17.4458 4.78257 18.1651L4.76861 18.1606Z" fill="#2962F6"/>
</svg>
