<svg width="135" height="135" viewBox="0 0 135 135" fill="none" xmlns="http://www.w3.org/2000/svg">
<circle cx="67.5" cy="67.5" r="67.5" fill="white"/>
<path d="M96.6247 67.6698L93.3779 70.6454L103.43 82.1819L106.799 79.5791L96.6247 67.6698Z" fill="#283C93"/>
<path d="M66.9427 67.6698L70.1962 70.6454L60.1442 82.1819L56.7754 79.5791L66.9427 67.6698Z" fill="#283C93"/>
<path d="M90.1916 67.0123C89.629 67.0123 89.1748 66.5581 89.1748 65.9956V33.7991H36.9827V59.2173C36.9827 59.7799 36.5285 60.2341 35.9659 60.2341C35.4034 60.2341 34.9492 59.7799 34.9492 59.2173V32.7824C34.9492 32.2198 35.4034 31.7656 35.9659 31.7656H90.1916C90.7542 31.7656 91.2083 32.2198 91.2083 32.7824V65.9956C91.2083 66.5581 90.7542 67.0123 90.1916 67.0123Z" fill="#252D32"/>
<path d="M78.6689 46.6773H72.5685C72.0059 46.6773 71.5518 46.2231 71.5518 45.6605C71.5518 45.0979 72.0059 44.6438 72.5685 44.6438H78.6689C79.2315 44.6438 79.6856 45.0979 79.6856 45.6605C79.6856 46.2231 79.2315 46.6773 78.6689 46.6773Z" fill="#252D32"/>
<path d="M67.1461 46.6773H48.1671C47.6045 46.6773 47.1504 46.2231 47.1504 45.6605C47.1504 45.0979 47.6045 44.6438 48.1671 44.6438H67.1461C67.7087 44.6438 68.1628 45.0979 68.1628 45.6605C68.1628 46.2231 67.7087 46.6773 67.1461 46.6773Z" fill="#252D32"/>
<path d="M78.669 54.1339H48.1671C47.6045 54.1339 47.1504 53.6798 47.1504 53.1172C47.1504 52.5546 47.6045 52.1005 48.1671 52.1005H78.669C79.2316 52.1005 79.6858 52.5546 79.6858 53.1172C79.6858 53.6798 79.2316 54.1339 78.669 54.1339Z" fill="#252D32"/>
<path d="M97.7225 90.7568C97.4582 90.7568 97.1938 90.6551 96.9905 90.445C96.5974 90.0451 96.6109 89.4011 97.0108 89.008C98.5766 87.4897 99.2951 86.0391 99.9322 84.7581C100.583 83.4499 101.193 82.2162 102.501 81.2808C102.955 80.9555 103.592 81.0572 103.918 81.5113C104.243 81.9654 104.141 82.6026 103.687 82.9279C102.793 83.5719 102.332 84.4937 101.756 85.6596C101.085 87.0152 100.244 88.703 98.4275 90.4653C98.2309 90.6551 97.9733 90.75 97.7225 90.75V90.7568Z" fill="#252D32"/>
<path d="M103.43 83.1986C103.145 83.1986 102.867 83.0834 102.664 82.8529L92.6116 71.3164C92.2456 70.8962 92.2862 70.259 92.6997 69.893L95.2754 67.5952C95.6957 67.2224 96.3396 67.2563 96.7124 67.6765C97.0852 68.0968 97.0513 68.7407 96.631 69.1135L94.8077 70.7471L104.202 81.5244C104.568 81.9447 104.528 82.5886 104.101 82.9614C103.911 83.1308 103.674 83.2122 103.436 83.2122L103.43 83.1986Z" fill="#252D32"/>
<path d="M66.5632 90.9934C66.3328 90.9934 66.0956 90.9121 65.9058 90.7494L65.716 90.5867C64.828 89.8276 64.7399 89.753 64.279 89.2921C62.8488 87.8687 61.9812 86.33 61.3779 85.1438C61.1746 84.7371 60.9848 84.344 60.8018 83.9644C60.4493 83.2256 60.1511 82.5952 59.8189 82.1072C59.7986 82.0733 59.7783 82.0394 59.7579 82.0055C59.4326 81.5581 59.5139 80.9142 59.9545 80.5821C60.4019 80.2432 61.0322 80.3177 61.3644 80.7651C61.405 80.8193 61.4728 80.9074 61.5338 81.0227C61.9337 81.6191 62.2726 82.3376 62.6319 83.09C62.8013 83.4493 62.9844 83.8288 63.1809 84.222C63.7096 85.2726 64.4756 86.6282 65.7024 87.8483C66.1091 88.255 66.1566 88.2957 67.0242 89.0345L67.214 89.1972C67.641 89.5632 67.6884 90.2071 67.3292 90.6342C67.1258 90.8714 66.8412 90.9934 66.5565 90.9934H66.5632Z" fill="#252D32"/>
<path d="M88.8774 101.337C88.0098 101.337 87.149 101.039 86.5321 100.443L83.4819 97.9008C83.0481 97.5416 82.9939 96.8977 83.3532 96.4706C83.7124 96.0368 84.3563 95.9826 84.7834 96.3418L87.8674 98.9108C87.8674 98.9108 87.9149 98.9515 87.9352 98.9718C88.4029 99.4395 89.3993 99.4259 89.8806 98.9447C90.355 98.4702 90.355 97.6975 89.8806 97.223L84.4716 92.2139C84.0581 91.8343 84.0378 91.1904 84.4173 90.7769C84.7969 90.3635 85.4408 90.3431 85.8543 90.7227L91.2904 95.7589C92.5851 97.0536 92.5851 99.1141 91.3176 100.382C90.6804 101.019 89.7789 101.344 88.8842 101.344L88.8774 101.337Z" fill="#252D32"/>
<path d="M76.4995 83.4086C76.4995 83.4086 76.4521 83.4086 76.4317 83.4086C75.6183 83.3883 74.866 83.0561 74.3102 82.4732L74.0119 82.1614C73.9035 82.0462 73.8221 81.9445 73.7543 81.8428C72.8596 80.6295 73.0087 78.935 74.1 77.8844L80.5393 71.7298C80.8715 71.4112 81.2375 71.1062 81.6171 70.835C83.7115 69.3167 86.5245 68.8761 89.1341 69.6624C90.8151 70.1708 92.1097 70.2318 93.2146 69.8658C93.7433 69.6895 94.3262 69.9742 94.5024 70.5097C94.6787 71.0452 94.394 71.6213 93.8585 71.7975C92.3334 72.3059 90.6456 72.2517 88.5444 71.6145C86.538 71.0113 84.3893 71.3366 82.8032 72.4889C82.4914 72.7058 82.2068 72.9431 81.9424 73.2006L75.5031 79.3552C75.1439 79.7009 75.0964 80.2567 75.3947 80.6566C75.4082 80.677 75.4218 80.6973 75.4353 80.7177C75.4489 80.738 75.476 80.7583 75.4963 80.7854L75.7742 81.0769C75.9573 81.2735 76.2081 81.3819 76.4724 81.3819C76.7571 81.3819 76.9875 81.287 77.1773 81.1108C77.2383 81.0566 77.6044 80.7041 78.1127 80.2161C78.9939 79.3756 80.3089 78.1216 81.2443 77.2269C82.261 76.2508 83.9081 76.2712 84.9045 77.2811L88.8358 81.0701C89.2425 81.4633 89.2493 82.1004 88.863 82.5071C88.4698 82.9138 87.8327 82.9206 87.426 82.5342L83.4743 78.7249C83.2303 78.4808 82.8778 78.4741 82.6473 78.6978C81.712 79.5925 80.3902 80.8464 79.5158 81.6869C79.0075 82.1682 78.6482 82.5139 78.5872 82.5749C78.0178 83.1171 77.279 83.4154 76.4927 83.4154L76.4995 83.4086Z" fill="#252D32"/>
<path d="M60.0292 82.6834C59.792 82.6834 59.5547 82.602 59.3649 82.4326C58.9447 82.0666 58.8972 81.4226 59.2633 80.9956L68.6579 70.2183L66.8345 68.5847C66.4143 68.2119 66.3804 67.568 66.7532 67.1477C67.126 66.7275 67.7699 66.6936 68.1902 67.0664L70.7659 69.3642C71.1793 69.737 71.22 70.3674 70.854 70.7876L60.8019 82.3241C60.5986 82.5546 60.3207 82.6698 60.036 82.6698L60.0292 82.6834Z" fill="#252D32"/>
<path d="M81.2521 72.6793C81.0419 72.6793 80.8386 72.6183 80.6556 72.4827C79.0695 71.3304 76.9208 71.005 74.9144 71.6083C72.82 72.2455 71.1322 72.2997 69.6003 71.7913C69.0649 71.6151 68.7802 71.0389 68.9564 70.5035C69.1326 69.968 69.7088 69.6833 70.2443 69.8595C71.3491 70.2255 72.6505 70.1645 74.3247 69.6562C76.9344 68.8699 79.7473 69.3105 81.8486 70.8288C82.3027 71.1609 82.4044 71.7913 82.0722 72.2522C81.8757 72.5234 81.5639 72.6725 81.2453 72.6725L81.2521 72.6793Z" fill="#252D32"/>
<path d="M92.7883 98.8021C92.1444 98.8021 91.2157 98.5988 90.26 97.6634C89.8601 97.2702 89.8533 96.6263 90.2397 96.2264C90.6328 95.8265 91.2768 95.8197 91.6767 96.2061C91.9478 96.4636 92.3748 96.7619 92.8086 96.7619C93.2357 96.7483 93.5678 96.4568 93.7305 96.2806C93.9609 96.0298 94.0829 95.6977 94.0694 95.352C94.0558 95.0063 93.9067 94.6877 93.6559 94.4573L86.9658 88.7297C86.5388 88.3637 86.4913 87.7197 86.8574 87.2927C87.2234 86.8657 87.8673 86.8182 88.2943 87.1843L95.0115 92.939C95.6894 93.5626 96.0689 94.3827 96.1096 95.2707C96.1435 96.1586 95.8385 97.0059 95.2352 97.6566C94.5845 98.3683 93.744 98.7682 92.8696 98.7953C92.8425 98.7953 92.8154 98.7953 92.7883 98.7953V98.8021Z" fill="#252D32"/>
<path d="M95.1065 94.7419C94.3202 94.7419 93.5949 94.464 93.0323 93.9488C92.6189 93.5692 92.5918 92.9253 92.9713 92.5119C93.3509 92.0984 93.9948 92.0713 94.4083 92.4508C94.6862 92.7084 95.0387 92.722 95.2827 92.6949C95.6623 92.6474 96.0351 92.4576 96.2927 92.1729C96.7739 91.651 96.74 90.8309 96.2181 90.3496L90.0431 85.1372C89.6161 84.7711 89.5619 84.134 89.9211 83.707C90.2872 83.2799 90.9243 83.2257 91.3513 83.585L97.5602 88.8245C98.9429 90.092 99.0243 92.2001 97.7839 93.5489C97.2009 94.1861 96.374 94.6063 95.5267 94.7148C95.3844 94.7351 95.2353 94.7419 95.0929 94.7419H95.1065Z" fill="#252D32"/>
<path d="M34.7873 94.8029H50.7025C51.3614 94.8029 51.8955 94.2687 51.8955 93.6099V90.5733C51.8955 89.9144 51.3614 89.3803 50.7025 89.3803H34.7873C34.1285 89.3803 33.5944 89.9144 33.5944 90.5733V93.6099C33.5944 94.2687 34.1285 94.8029 34.7873 94.8029Z" fill="#00E0E3"/>
<path d="M39.5315 100.903H55.4467C56.1055 100.903 56.6396 100.369 56.6396 99.7105V96.6738C56.6396 96.015 56.1055 95.4809 55.4467 95.4809H39.5315C38.8726 95.4809 38.3385 96.015 38.3385 96.6738V99.7105C38.3385 100.369 38.8726 100.903 39.5315 100.903Z" fill="#00E0E3"/>
<path d="M43.4225 85.314C36.5087 85.314 30.8828 79.6881 30.8828 72.7743C30.8828 65.8605 36.5087 60.2346 43.4225 60.2346C50.3363 60.2346 55.9622 65.8605 55.9622 72.7743C55.9622 79.6881 50.3363 85.314 43.4225 85.314ZM43.4225 62.2681C37.6271 62.2681 32.9163 66.9789 32.9163 72.7743C32.9163 78.5697 37.6271 83.2805 43.4225 83.2805C49.2179 83.2805 53.9287 78.5697 53.9287 72.7743C53.9287 66.9789 49.2179 62.2681 43.4225 62.2681Z" fill="#00E0E3"/>
<path d="M43.423 68.3679C42.8604 68.3679 42.4062 67.9138 42.4062 67.3512V65.3178C42.4062 64.7552 42.8604 64.301 43.423 64.301C43.9856 64.301 44.4397 64.7552 44.4397 65.3178V67.3512C44.4397 67.9138 43.9856 68.3679 43.423 68.3679Z" fill="#252D32"/>
<path d="M43.423 81.2469C42.8604 81.2469 42.4062 80.7927 42.4062 80.2301V78.1967C42.4062 77.6341 42.8604 77.1799 43.423 77.1799C43.9856 77.1799 44.4397 77.6341 44.4397 78.1967V80.2301C44.4397 80.7927 43.9856 81.2469 43.423 81.2469Z" fill="#252D32"/>
<path d="M43.4696 79.0169C41.3413 79.0169 39.9517 77.5935 39.5654 77.1461C39.1994 76.7191 39.2468 76.0752 39.6738 75.7091C40.1009 75.3431 40.7448 75.3906 41.1108 75.8176C41.2803 76.0209 42.1953 77.0241 43.5645 76.9767C44.2627 76.9495 45.4014 76.6445 45.6793 75.9125C45.8488 75.4516 45.7132 74.7737 45.3472 74.306C44.9269 73.7706 44.3101 73.6418 43.3408 73.4791C42.3105 73.3097 41.0295 73.0927 40.2161 71.8998C39.5383 70.9102 39.423 69.5749 39.9111 68.5107C40.6363 66.9246 42.5207 66.3552 43.9576 66.5043C45.6725 66.6738 46.7096 67.8329 47.0756 68.3209C47.4145 68.7683 47.3196 69.4054 46.8723 69.7443C46.4249 70.0832 45.7878 69.9883 45.4489 69.541C45.2862 69.3241 44.6965 68.6259 43.7543 68.531C42.9951 68.4565 42.0462 68.7411 41.7615 69.358C41.5988 69.7172 41.5921 70.3137 41.9039 70.761C42.2157 71.2152 42.7511 71.3236 43.6797 71.4795C44.7236 71.6558 46.025 71.8727 46.9536 73.0589C47.7602 74.0959 48.011 75.4922 47.584 76.6242C46.9536 78.3052 45.0693 78.9627 43.6391 79.0101C43.5848 79.0101 43.5238 79.0101 43.4696 79.0101V79.0169Z" fill="#252D32"/>
<path d="M68.5018 102.259H32.5773C32.0147 102.259 31.5605 101.805 31.5605 101.243C31.5605 100.68 32.0147 100.226 32.5773 100.226H68.5018C69.0644 100.226 69.5185 100.68 69.5185 101.243C69.5185 101.805 69.0644 102.259 68.5018 102.259Z" fill="#252D32"/>
<path d="M54.3013 96.1591H35.2546C33.5939 96.1591 32.2383 94.8034 32.2383 93.1428V91.0347C32.2383 89.3741 33.5939 88.0184 35.2546 88.0184H54.3081C55.9688 88.0184 57.3244 89.3741 57.3244 91.0347V93.1428C57.3244 94.8034 55.9688 96.1591 54.3081 96.1591H54.3013ZM35.2478 90.0587C34.7055 90.0587 34.265 90.4993 34.265 91.0415V93.1495C34.265 93.6918 34.7055 94.1324 35.2478 94.1324H54.3013C54.8436 94.1324 55.2842 93.6918 55.2842 93.1495V91.0415C55.2842 90.4993 54.8436 90.0587 54.3013 90.0587H35.2546H35.2478Z" fill="#252D32"/>
<path d="M59.0464 102.26H39.9997C38.339 102.26 36.9834 100.904 36.9834 99.2433V97.1353C36.9834 95.4747 38.339 94.119 39.9997 94.119H59.0532C60.7139 94.119 62.0695 95.4747 62.0695 97.1353V99.2433C62.0695 100.904 60.7139 102.26 59.0532 102.26H59.0464ZM39.9929 96.1593C39.4507 96.1593 39.0101 96.5998 39.0101 97.1421V99.2501C39.0101 99.7924 39.4507 100.233 39.9929 100.233H59.0464C59.5887 100.233 60.0293 99.7924 60.0293 99.2501V97.1421C60.0293 96.5998 59.5887 96.1593 59.0464 96.1593H39.9997H39.9929Z" fill="#252D32"/>
<path d="M84.7495 102.347C84.4513 102.347 84.1395 102.299 83.8074 102.191C83.299 102.022 82.8787 101.771 82.5602 101.52C82.0247 101.947 81.2859 102.272 80.364 102.191C79.1372 102.083 78.0866 101.391 77.4901 100.585C76.6496 100.883 75.4227 101.066 74.1145 100.415C73.0707 99.8932 72.5488 98.9307 72.2912 98.1783C71.4236 98.2122 70.4001 97.9749 69.607 97.1819C69.0173 96.5922 68.6852 95.894 68.6242 95.1484C67.8786 95.0264 67.1126 94.6401 66.4958 94.0232C65.8858 93.4132 65.5469 92.593 65.5469 91.7254C65.5469 90.8578 65.8858 90.0377 66.4958 89.4276L66.8483 89.0752C68.1158 87.8076 70.1764 87.8076 71.4439 89.0752C71.8438 89.4751 71.8438 90.119 71.4439 90.5121C71.044 90.912 70.4001 90.912 70.0069 90.5121C69.5325 90.0377 68.7597 90.0377 68.292 90.5121L67.9396 90.8646C67.7091 91.0951 67.5871 91.4001 67.5871 91.7254C67.5871 92.0508 67.7159 92.3558 67.9396 92.5863C68.4751 93.1217 69.1258 93.2166 69.2817 93.1353C69.6545 92.8981 70.1357 92.932 70.4746 93.2166C70.8135 93.5013 70.9288 93.9758 70.7593 94.3825C70.4814 95.0671 70.7864 95.4873 71.044 95.7449C71.5659 96.2668 72.3929 96.1855 72.6911 96.0703C72.9893 95.955 73.3283 95.9889 73.5994 96.1516C73.8705 96.3143 74.0467 96.6057 74.0739 96.9311C74.0739 96.9311 74.2162 98.1986 75.0228 98.5985C76.2225 99.2018 77.3477 98.4223 77.3952 98.3884C77.707 98.1715 78.1137 98.1376 78.4526 98.3138C78.7915 98.4901 79.0084 98.8358 79.0084 99.2153C79.0626 99.3916 79.6794 100.097 80.547 100.171C81.2587 100.225 81.6315 99.561 81.6383 99.5543C81.8078 99.2357 82.1399 99.0323 82.5059 99.0188C82.8652 98.9917 83.2109 99.195 83.4007 99.5C83.4007 99.5 83.7599 100.029 84.4581 100.266C85.2308 100.524 85.8408 99.6695 85.8612 99.6288C86.1797 99.1679 86.8101 99.0527 87.271 99.3645C87.7319 99.6763 87.8539 100.3 87.5489 100.768C87.1355 101.384 86.1052 102.354 84.7563 102.354L84.7495 102.347Z" fill="#252D32"/>
<path d="M84.0922 98.1922C83.5499 98.1922 83.0958 97.7583 83.0755 97.2161C83.0755 97.1483 83.0687 97.0195 82.6281 96.7891C82.0723 96.4908 81.2928 96.5586 81.1233 96.6196C80.8048 96.8026 80.432 96.7823 80.1202 96.5925C79.8084 96.4027 79.6389 96.0435 79.6525 95.6774C79.6525 95.6707 79.6389 94.9522 78.9001 94.4167C78.4595 94.0913 77.5716 93.8812 77.1242 94.2744C76.7921 94.5658 76.304 94.6133 75.9245 94.3828C75.5449 94.1523 75.3619 93.705 75.4635 93.2712C75.4635 93.2712 75.6669 92.3358 75.0975 91.9291C74.7857 91.7054 73.6334 91.4343 73.2471 91.8206C72.8472 92.2206 72.2032 92.2206 71.8101 91.8206C71.417 91.4207 71.4102 90.7768 71.8101 90.3837C73.0844 89.1094 75.3551 89.6245 76.2702 90.2752C76.9412 90.7565 77.2869 91.4072 77.436 92.0511C78.3917 91.9562 79.3881 92.268 80.0931 92.7899C80.8048 93.3118 81.2182 93.9626 81.4419 94.5455C82.1401 94.5184 82.9331 94.6607 83.5771 95.0064C84.5667 95.5351 85.0615 96.24 85.0954 97.1551C85.1157 97.7177 84.6751 98.1854 84.1193 98.2057C84.1058 98.2057 84.0922 98.2057 84.0786 98.2057L84.0922 98.1922Z" fill="#252D32"/>
<path d="M75.2793 96.1581C75.0827 96.1581 74.8862 96.1039 74.7167 95.9886C74.249 95.6768 74.1202 95.0465 74.432 94.5788L75.7877 92.5453C76.0995 92.0776 76.7298 91.9488 77.1975 92.2606C77.6652 92.5724 77.794 93.2028 77.4822 93.6705L76.1266 95.704C75.93 95.9954 75.6114 96.1581 75.2793 96.1581Z" fill="#252D32"/>
<path d="M80.0253 97.5138C79.7677 97.5138 79.5033 97.4121 79.3068 97.2155C78.9069 96.8156 78.9069 96.1717 79.3068 95.7785L79.9846 95.1007C80.3845 94.7008 81.0284 94.7008 81.4216 95.1007C81.8215 95.5006 81.8215 96.1446 81.4216 96.5377L80.7437 97.2155C80.5472 97.4121 80.2828 97.5138 80.0253 97.5138Z" fill="#252D32"/>
</svg>
