<svg width="229" height="201" viewBox="0 0 229 201" fill="none" xmlns="http://www.w3.org/2000/svg">
<path d="M227.763 10.0442V163.931C227.763 168.926 223.705 172.975 218.71 172.975H16.1683C11.1737 172.975 7.12402 168.926 7.12402 163.931V10.0442C7.12402 5.04966 11.1737 1 16.1683 1H218.71C223.705 1 227.763 5.04966 227.763 10.0442Z" fill="white" stroke="#2A2628" stroke-linecap="round" stroke-linejoin="round"/>
<path d="M227.763 10.0442V24.4458H7.12402V10.0442C7.12402 5.04966 11.1737 1 16.1683 1H218.71C223.705 1 227.763 5.04966 227.763 10.0442Z" fill="#2962F6" stroke="#2A2628" stroke-linecap="round" stroke-linejoin="round"/>
<path d="M19.3327 15.2167C20.712 15.2167 21.83 14.0987 21.83 12.7195C21.83 11.3402 20.712 10.2222 19.3327 10.2222C17.9535 10.2222 16.8354 11.3402 16.8354 12.7195C16.8354 14.0987 17.9535 15.2167 19.3327 15.2167Z" fill="white" stroke="#2A2628" stroke-linecap="round" stroke-linejoin="round"/>
<path d="M27.6941 15.2167C29.0733 15.2167 30.1914 14.0987 30.1914 12.7195C30.1914 11.3402 29.0733 10.2222 27.6941 10.2222C26.3149 10.2222 25.1968 11.3402 25.1968 12.7195C25.1968 14.0987 26.3149 15.2167 27.6941 15.2167Z" fill="white" stroke="#2A2628" stroke-linecap="round" stroke-linejoin="round"/>
<path d="M36.053 15.2167C37.4322 15.2167 38.5502 14.0987 38.5502 12.7195C38.5502 11.3402 37.4322 10.2222 36.053 10.2222C34.6737 10.2222 33.5557 11.3402 33.5557 12.7195C33.5557 14.0987 34.6737 15.2167 36.053 15.2167Z" fill="white" stroke="#2A2628" stroke-linecap="round" stroke-linejoin="round"/>
<path d="M101.523 82.0021C101.523 82.0021 119.443 78.484 143.479 82.0021L132.486 105.785H111.765L101.523 82.0021Z" fill="#2962F6"/>
<path d="M101.524 82C101.524 82 67.5576 84.4382 41.277 131.49C16.3379 176.146 21.2903 194.834 48.2711 199.803C70.7973 203.954 93.7369 166.579 93.7369 166.579L116.584 106.745L101.524 82Z" fill="#2962F6"/>
<path d="M143.48 82C143.48 82 180.054 83.0799 203.727 131.49C227.392 179.9 216.703 193.72 196.733 199.803C173.827 206.78 151.79 180.98 151.79 180.98L128.42 106.754L143.48 82.0084V82Z" fill="#2962F6"/>
<path d="M79.1549 98.8672L82.7171 95.9867C83.4913 95.3607 84.6369 95.4759 85.2681 96.2566L109.75 126.532L103.373 131.689L78.8915 101.413C78.2655 100.639 78.3808 99.4932 79.1614 98.8619L79.1549 98.8672Z" fill="#2A2628"/>
<path d="M110.66 82C107.927 94.343 117.426 102.991 117.426 102.991L123.391 93.8706L130.031 102.991C130.031 102.991 139.556 94.2502 136.502 82.5906" stroke="#FCFCFC" stroke-linecap="round" stroke-linejoin="round"/>
<path d="M90.8502 149.393V112.583C90.8502 112.583 84.9866 113.199 81.6288 116.835C78.271 120.463 76.5161 129.878 76.5161 129.878L90.8502 149.401V149.393Z" fill="#F7B49F"/>
<path d="M76.5171 129.873C76.5171 129.873 52.3289 151.53 38.8638 172.116" stroke="#2A2628" stroke-linecap="round" stroke-linejoin="round"/>
<path d="M155.232 103.015C155.232 100.83 153.46 99.0669 151.283 99.0669H146.17L155.232 108.128V103.015Z" fill="#2A2628" stroke="#2A2628" stroke-linecap="round" stroke-linejoin="round"/>
<path d="M146.171 99.0591H94.799C92.6139 99.0591 90.8506 100.831 90.8506 103.007V182.777C90.8506 184.962 92.6223 186.726 94.799 186.726H151.283C153.468 186.726 155.232 184.954 155.232 182.777V108.12L146.171 99.0591Z" fill="white" stroke="#2A2628" stroke-linecap="round" stroke-linejoin="round"/>
<path d="M101.321 116.491C103.608 115.807 105.978 115.107 108.341 115.461C110.492 115.79 112.466 116.972 114.635 117.149C116.946 117.334 119.19 116.356 121.502 116.229C125.256 116.01 129.146 118.001 132.664 116.668C133.305 116.423 133.904 116.077 134.562 115.909C137.026 115.276 139.692 117.191 142.079 116.322" stroke="#2A2628" stroke-linecap="round" stroke-linejoin="round"/>
<path d="M101.414 127.451C103.7 126.767 106.071 126.067 108.433 126.421C110.584 126.75 112.559 127.932 114.727 128.109C117.039 128.294 119.283 127.316 121.594 127.189C125.349 126.97 129.238 128.961 132.756 127.628C133.397 127.383 133.996 127.037 134.655 126.868C137.118 126.236 139.784 128.151 142.172 127.282" stroke="#2A2628" stroke-linecap="round" stroke-linejoin="round"/>
<path d="M101.507 138.407C103.794 137.724 106.164 137.024 108.527 137.378C110.678 137.707 112.652 138.888 114.821 139.065C117.132 139.251 119.376 138.272 121.688 138.146C125.442 137.926 129.332 139.917 132.85 138.584C133.491 138.34 134.09 137.994 134.748 137.825C137.212 137.192 139.878 139.107 142.265 138.238" stroke="#2A2628" stroke-linecap="round" stroke-linejoin="round"/>
<path d="M101.591 149.368C103.878 148.684 106.248 147.984 108.611 148.338C110.762 148.667 112.736 149.849 114.905 150.026C117.216 150.211 119.46 149.233 121.772 149.106C125.526 148.887 129.416 150.878 132.934 149.545C133.575 149.3 134.174 148.954 134.832 148.785C137.296 148.153 139.962 150.068 142.349 149.199" stroke="#2A2628" stroke-linecap="round" stroke-linejoin="round"/>
<path d="M101.684 160.328C103.97 159.644 106.341 158.944 108.703 159.298C110.854 159.627 112.829 160.808 114.997 160.986C117.309 161.171 119.553 160.193 121.864 160.066C125.619 159.847 129.508 161.838 133.026 160.505C133.667 160.26 134.266 159.914 134.925 159.745C137.388 159.113 140.054 161.028 142.442 160.159" stroke="#2A2628" stroke-linecap="round" stroke-linejoin="round"/>
<path d="M101.775 171.288C104.062 170.605 106.433 169.904 108.795 170.259C110.946 170.588 112.92 171.769 115.089 171.946C117.4 172.132 119.644 171.153 121.956 171.026C125.711 170.807 129.6 172.798 133.118 171.465" stroke="#2A2628" stroke-linecap="round" stroke-linejoin="round"/>
<path d="M155.679 116.153V123.147C155.679 123.147 150.347 126.378 140.796 125.163C131.246 123.957 130.655 131.145 134.207 133.769C137.759 136.393 152.768 137 159.889 134.714C167.018 132.427 168.773 122.21 155.679 116.153Z" fill="#F7B49F"/>
<path d="M153.41 133.137C153.41 133.137 148.517 136.368 138.966 135.154C129.416 133.939 128.825 141.135 132.377 143.759C135.929 146.383 150.938 146.99 158.059 144.704C165.188 142.418 153.41 133.137 153.41 133.137Z" fill="#F7B49F"/>
<path d="M162.446 135.06C162.446 135.06 181.927 145.774 201.407 169.169" stroke="#2A2628" stroke-linecap="round" stroke-linejoin="round"/>
<path d="M157.595 142.896C157.595 142.896 152.701 146.127 143.151 144.912C133.6 143.706 133.01 150.894 136.562 153.518C140.114 156.142 155.123 156.749 162.243 154.463C169.372 152.176 157.595 142.896 157.595 142.896Z" fill="#F7B49F"/>
<path d="M163.845 156.87C162.521 160.843 157.594 161.881 157.594 161.881C151.646 162.438 144.255 161.771 142.104 160.185C139.26 158.084 139.733 152.314 147.393 153.284C155.046 154.254 158.969 151.664 158.969 151.664C158.969 151.664 162.36 154.339 163.845 156.87Z" fill="#F7B49F"/>
<path d="M163.779 123.046C163.779 123.046 172.832 138.292 163.847 156.869L147.918 141.574L148.703 130.412L163.779 123.055V123.046Z" fill="#F7B49F"/>
<path d="M137.287 135.06C137.287 135.06 146.238 136.646 153.198 135.06" stroke="#2A2628" stroke-linecap="round" stroke-linejoin="round"/>
<path d="M137.465 145.437C137.465 145.437 148.078 146.947 155.233 145.437" stroke="#2A2628" stroke-linecap="round" stroke-linejoin="round"/>
<path d="M141.336 155.207C141.336 155.207 148.76 156.717 155.915 155.207" stroke="#2A2628" stroke-linecap="round" stroke-linejoin="round"/>
<path d="M117.764 68.022C117.764 68.022 106.814 59.0874 117.461 44.8799L125.206 54.7931L123.392 65.0101L117.756 68.022H117.764Z" fill="#2A2628"/>
<path d="M114.094 57.2118C112.769 52.6222 115.317 45.3919 120.531 42.245C125.213 39.4271 131.49 40.8529 131.49 40.8529C137.118 39.6633 142.019 44.4892 143.951 48.9269C145.883 53.3731 144.728 58.7304 143.158 60.1056L140.543 65.9608L120.143 66.0114C120.143 66.0114 119.864 65.4039 119.443 64.459V65.1255C119.443 65.1255 115.95 63.6491 114.094 57.2034V57.2118Z" fill="#2A2628"/>
<path d="M134.966 73.4792C134.966 73.4792 133.903 76.6852 132.545 84.7761C131.744 89.5513 127.382 92.8838 122.564 92.4451C116.743 91.9136 112.854 86.1935 114.516 80.5914C116.844 72.7284 118.65 66.0296 118.903 58.2593L134.966 73.4792Z" fill="#F7B49F"/>
<path d="M143.159 62.6733C143.151 62.8504 143.134 63.0276 143.117 63.2048C143.109 63.247 143.109 63.2891 143.109 63.3313C143.109 63.3904 143.109 63.4494 143.092 63.5085C142.991 64.5715 142.83 65.5839 142.628 66.5542C142.577 66.7988 142.527 67.0519 142.459 67.2966C142.451 67.3388 142.442 67.3725 142.434 67.4147C140.974 73.447 137.473 77.3786 131.272 77.3111C127.804 77.2689 124.809 75.4381 122.734 72.6287L119.739 61.1884C120.557 53.0047 125.349 46.7784 134.225 47.6558C141.151 48.3476 143.733 54.8524 143.159 62.6733Z" fill="#F7B49F"/>
<path d="M136.991 69.025C136.991 69.025 131.229 69.4468 130.039 66.0806" stroke="#2A2628" stroke-linecap="round" stroke-linejoin="round"/>
<path d="M133.525 77.1399C133.525 77.1399 127.113 78.6079 123.342 73.3687" stroke="#2A2628" stroke-linecap="round" stroke-linejoin="round"/>
<path d="M121.68 64.9345C121.224 65.2383 120.71 65.4323 120.153 65.4914C117.917 65.7445 115.859 63.7956 115.555 61.1295C115.251 58.4635 116.812 56.0928 119.048 55.8397C120.22 55.7047 121.351 56.1772 122.195 57.0546C122.195 57.0546 123.047 58.0164 123.41 60.0075L121.688 64.9345H121.68Z" fill="#F7B49F"/>
<path d="M118.398 59.105C118.398 59.105 120.575 59.4171 120.246 61.5179" stroke="#2A2628" stroke-linecap="round" stroke-linejoin="round"/>
<path d="M139.295 57.7356C139.43 58.0815 140.181 58.1152 141 58.1912C141.809 58.2418 142.56 58.3346 142.754 58.014C142.948 57.7103 142.257 56.9678 141.109 56.875C139.962 56.7822 139.16 57.4065 139.304 57.7356H139.295Z" fill="#2A2628"/>
<path d="M130.393 56.97C130.512 57.3159 131.271 57.3834 132.072 57.4846C132.882 57.569 133.633 57.6871 133.827 57.375C134.03 57.0797 133.372 56.3119 132.224 56.1769C131.077 56.0419 130.258 56.6325 130.385 56.97H130.393Z" fill="#2A2628"/>
<path d="M136.824 62.5615C136.824 62.5615 140.266 64.5863 138.241 65.4047C138.241 65.4047 137.549 65.6072 136.512 65.3203" stroke="#2A2628" stroke-linecap="round" stroke-linejoin="round"/>
<path d="M125.273 62.1403C124.987 63.4058 125.78 64.6629 127.045 64.9498C128.311 65.2366 129.568 64.4435 129.855 63.178C130.142 61.9125 129.348 60.6554 128.083 60.377C126.817 60.0902 125.56 60.8832 125.282 62.1487L125.273 62.1403Z" fill="#E88585"/>
<path d="M143.158 62.6711C143.15 62.8483 143.133 63.0255 143.116 63.2027C143.107 63.2448 143.107 63.287 143.107 63.3292C143.107 63.3883 143.107 63.4473 143.091 63.5064C142.989 64.5694 142.829 65.5818 142.626 66.5521C142.576 66.7967 142.525 67.0498 142.458 67.2945C142.449 67.2945 142.432 67.2861 142.424 67.2861C141.167 67.0076 140.374 65.7506 140.661 64.4851C140.914 63.3208 142.002 62.553 143.158 62.6711Z" fill="#E88585"/>
<path d="M130.977 60.3598C130.977 60.8575 131.382 61.2625 131.879 61.2625C132.377 61.2625 132.782 60.8575 132.782 60.3598C132.782 59.862 132.377 59.457 131.879 59.457C131.382 59.457 130.977 59.862 130.977 60.3598Z" fill="#2A2628" stroke="#2A2628" stroke-linecap="round" stroke-linejoin="round"/>
<path d="M139.7 61.0097C139.7 61.5074 140.105 61.9124 140.602 61.9124C141.1 61.9124 141.505 61.5074 141.505 61.0097C141.505 60.5119 141.1 60.1069 140.602 60.1069C140.105 60.1069 139.7 60.5119 139.7 61.0097Z" fill="#2A2628" stroke="#2A2628" stroke-linecap="round" stroke-linejoin="round"/>
<path d="M122.186 57.0435C122.186 57.0435 125.712 49.7204 130.378 50.91C135.043 52.0995 135.853 54.1581 140.595 52.7323L143.235 51.6271L134.959 46.4806L129.492 43.7134L123.637 46.3288L120.27 51.4752L119.73 55.8202C119.73 55.8202 120.794 55.8202 122.177 57.0519L122.186 57.0435Z" fill="#2A2628"/>
<path d="M129.601 38.2803C129.601 38.2803 132.764 39.647 130.976 42.853C130.976 42.853 131.862 38.2803 135.599 38.9299" stroke="#2A2628" stroke-linecap="round" stroke-linejoin="round"/>
<path d="M27.694 93.1131C42.4367 93.1131 54.388 81.1618 54.388 66.4191C54.388 51.6764 42.4367 39.7251 27.694 39.7251C12.9513 39.7251 1 51.6764 1 66.4191C1 81.1618 12.9513 93.1131 27.694 93.1131Z" fill="#00E0E3" stroke="#2A2628" stroke-linecap="round" stroke-linejoin="round"/>
<path d="M197.424 39.8154L196.243 37.2759C195.897 36.5335 195.163 36.061 194.344 36.061H188.59C187.435 36.061 186.498 36.9975 186.498 38.1534V53.0527C186.498 54.3773 187.57 55.4488 188.894 55.4488H206.915C208.24 55.4488 209.311 54.3773 209.311 53.0527V41.4184C209.311 40.5325 208.594 39.8154 207.708 39.8154H197.441H197.424Z" fill="#FCE147" stroke="#2A2628" stroke-linecap="round" stroke-linejoin="round"/>
<path d="M197.424 70.3242L196.243 67.7847C195.897 67.0423 195.163 66.5698 194.344 66.5698H188.59C187.435 66.5698 186.498 67.5063 186.498 68.6621V83.5615C186.498 84.8861 187.57 85.9575 188.894 85.9575H206.915C208.24 85.9575 209.311 84.8861 209.311 83.5615V71.9272C209.311 71.0413 208.594 70.3242 207.708 70.3242H197.441H197.424Z" fill="#FCE147" stroke="#2A2628" stroke-linecap="round" stroke-linejoin="round"/>
<path d="M38.9311 71.944C37.1256 69.413 33.6075 68.8309 31.0849 70.6363L29.7856 71.5644C25.0694 70.4423 22.9434 67.4641 23.4158 62.6383L24.7151 61.7102C27.2461 59.9048 27.8283 56.3866 26.0228 53.864C24.2173 51.333 20.6992 50.7508 18.1766 52.5563L16.8773 53.4844L16.8098 53.535C15.924 54.1677 15.4009 55.1802 15.4009 56.2685C15.4262 61.2125 16.9954 75.1585 33.2109 81.157C34.2487 81.5451 35.4214 81.3848 36.3241 80.7352L37.6234 79.8071C40.1544 78.0017 40.7365 74.4835 38.9311 71.9525V71.944Z" fill="white"/>
</svg>
