<svg width="236" height="200" viewBox="0 0 236 200" fill="none" xmlns="http://www.w3.org/2000/svg">
<path d="M163.249 74.2852L163.042 75.8766L159.078 106.885L158.366 112.411L152.485 158.405H80.118L71.1822 138.24L68.2266 131.568L66.2101 127.031L61.0304 115.347L58.0452 123.521L15.926 101.261C15.926 101.261 17.6262 96.9016 20.9376 90.7731C21.7581 89.2607 22.6774 87.6297 23.6955 85.9295C25.6725 82.6477 28.0152 79.0892 30.7137 75.5702C32.2854 73.5241 33.9856 71.4779 35.8044 69.5108C40.6776 64.2126 46.4108 59.3987 52.9842 56.1663C53.8738 55.7215 54.7734 55.2965 55.6729 54.8912C57.4521 54.0707 59.2512 53.3096 61.0304 52.6078C72.8626 47.9026 84.5069 45.4512 92.6322 44.1958C99.3638 43.1579 103.674 42.9404 103.674 42.9404L113.588 44.9569L124.58 47.2008C125.371 47.1019 126.142 47.013 126.893 46.9339C128.83 46.7461 130.669 46.6571 132.409 46.6472C152.544 46.5978 159.533 58.1927 161.954 66.3773C163.279 70.8453 163.249 74.2852 163.249 74.2852Z" fill="#2962F6"/>
<path d="M217.741 13.6083L135.273 7.88491C132.163 7.6691 129.467 10.0151 129.251 13.1248L118.191 172.49C117.975 175.6 120.321 178.296 123.431 178.511L205.9 184.235C209.009 184.451 211.705 182.105 211.921 178.995L222.981 19.6297C223.197 16.52 220.851 13.8241 217.741 13.6083Z" fill="#232B4C"/>
<path d="M206.278 184.747C206.139 184.747 205.991 184.747 205.843 184.737L123.374 179.014C119.993 178.777 117.443 175.841 117.67 172.47L128.741 13.1071C128.86 11.4761 129.601 9.97365 130.837 8.90609C132.073 7.82864 133.654 7.30475 135.295 7.41348L217.764 13.1368C221.145 13.374 223.695 16.3098 223.458 19.6805L212.387 179.044C212.159 182.276 209.461 184.757 206.268 184.757L206.278 184.747ZM134.87 8.37231C132.191 8.37231 129.928 10.4481 129.74 13.1664L118.669 172.529C118.471 175.366 120.616 177.828 123.453 178.025L205.922 183.749C208.759 183.956 211.22 181.801 211.418 178.964L222.489 19.6015C222.687 16.7645 220.542 14.3032 217.705 14.1055L135.236 8.38219C135.117 8.38219 134.998 8.37231 134.87 8.37231Z" fill="#232B4C"/>
<path d="M217.297 22.1583L134.513 16.4131L123.575 174.013L206.359 179.758L217.297 22.1583Z" fill="#FCFCFC"/>
<path d="M183.355 16.0229C183.355 16.0229 183.335 16.0229 183.315 16.0229L164.604 14.728C164.327 14.7082 164.129 14.471 164.149 14.2041C164.169 13.9273 164.396 13.7296 164.673 13.7494L183.385 15.0443C183.661 15.0641 183.859 15.3013 183.839 15.5682C183.82 15.8252 183.602 16.0328 183.345 16.0328L183.355 16.0229Z" fill="#FCFCFC"/>
<path d="M187.388 16.3007C187.388 16.3007 187.368 16.3007 187.348 16.3007L185.668 16.1821C185.391 16.1623 185.194 15.9251 185.213 15.6582C185.233 15.3814 185.451 15.1837 185.737 15.2035L187.418 15.3221C187.694 15.3419 187.892 15.5791 187.872 15.846C187.853 16.103 187.635 16.3106 187.378 16.3106L187.388 16.3007Z" fill="#FCFCFC"/>
<path d="M226.028 36.1976C209.51 29.8911 202.097 31.186 201.167 35.2684C200.238 39.3508 213.227 44.3624 213.227 44.3624C213.227 44.3624 197.451 45.4794 199.309 51.9738C199.922 54.1089 202.68 55.216 206.1 55.7498C201.672 58.3791 200.337 61.0282 201.207 63.2227C202.433 66.2968 211.161 64.913 214.759 64.2013C207.484 67.1667 205.191 70.3496 206.199 72.8604C207.573 76.2904 219.524 73.4337 219.524 73.4337L221.461 76.2805L222.716 79.0582H223.487C223.487 79.0582 230.17 74.61 232.908 67.9278C232.908 67.9278 242.555 42.5041 226.038 36.1976H226.028Z" fill="#F7B49F"/>
<path d="M213.227 44.8574C212.98 44.8574 212.772 44.6795 212.743 44.4323C212.703 44.1654 212.891 43.9084 213.168 43.8788C213.434 43.8392 219.672 43.0089 223.952 43.4043C224.229 43.434 224.426 43.6712 224.397 43.9381C224.367 44.205 224.13 44.4126 223.863 44.3829C219.701 43.9974 213.365 44.8475 213.306 44.8574C213.286 44.8574 213.257 44.8574 213.237 44.8574H213.227Z" fill="#232B4C"/>
<path d="M206.1 56.2347C205.893 56.2347 205.705 56.1062 205.636 55.9085C205.547 55.6515 205.675 55.3648 205.932 55.2759C206.011 55.2462 213.978 52.429 223.507 53.0518C223.784 53.0715 223.982 53.3088 223.972 53.5757C223.952 53.8524 223.715 54.0501 223.448 54.0403C214.146 53.4274 206.347 56.1853 206.268 56.205C206.209 56.2248 206.159 56.2347 206.1 56.2347Z" fill="#232B4C"/>
<path d="M214.759 64.6859C214.542 64.6859 214.344 64.5475 214.285 64.33C214.206 64.0631 214.354 63.7962 214.621 63.7172C214.67 63.6974 219.662 62.2344 223.824 61.6117C224.09 61.5722 224.347 61.76 224.387 62.0269C224.426 62.2938 224.239 62.5508 223.972 62.5903C219.879 63.2032 214.957 64.6463 214.907 64.6661C214.858 64.676 214.818 64.6859 214.769 64.6859H214.759Z" fill="#232B4C"/>
<path d="M115.891 158.405C115.891 158.405 76.2926 184.234 62.6515 193.417C49.0105 202.6 25.6329 203.717 9.76776 186.735C-15.3594 159.838 15.926 101.261 15.926 101.261L58.0452 123.521L50.1275 145.545L71.1821 138.24L104.178 126.783L115.891 158.405Z" fill="#F7B49F"/>
<path d="M104.178 126.782C104.178 126.782 124.768 98.5414 143.45 99.4113C145.783 99.52 147.78 101.131 148.481 103.365C149.312 106.024 148.086 108.901 145.575 110.117C141.097 112.281 135.631 115.86 132.913 120.031C132.913 120.031 138.863 122.038 137.766 126.753C137.766 126.753 140.91 130.005 139.516 134.176C139.516 134.176 142.719 137.517 141.048 141.689C139.377 145.86 132.191 152.295 128.801 149.765C128.801 149.765 125.361 153.966 115.881 158.404L100.965 130.835L104.168 126.782H104.178Z" fill="#F7B49F"/>
<path d="M25.8008 156.971C25.6723 156.971 25.5339 156.921 25.445 156.812C25.2571 156.615 25.267 156.298 25.4647 156.111C35.2013 146.928 49.7913 144.318 49.9296 144.298C50.1866 144.249 50.4535 144.427 50.503 144.704C50.5524 144.97 50.3745 145.227 50.0977 145.277C49.9593 145.307 35.656 147.867 26.1369 156.842C26.038 156.931 25.9194 156.98 25.8008 156.98V156.971Z" fill="#232B4C"/>
<path d="M91.436 20.086C89.9335 14.8767 92.8298 8.2539 95.0638 6.88979C100.55 -0.0987736 108.982 7.48109e-05 108.982 7.48109e-05C122.356 1.24556 125.835 7.19622 126.152 10.9821C126.616 16.4682 121.96 17.5852 120.181 19.1568L121.486 30.0203L98.306 30.0796C98.306 30.0796 97.9897 29.3876 97.5152 28.3102V29.0713C97.5152 29.0713 93.5514 27.3909 91.436 20.0761V20.086Z" fill="#232B4C"/>
<path d="M115.15 38.56C115.15 38.56 113.944 42.2075 112.392 51.4004C111.473 56.8173 106.53 60.6131 101.054 60.1188C94.441 59.5158 90.0225 53.0215 91.9105 46.6458C94.5596 37.7099 96.6058 30.0986 96.8924 21.2715L115.15 38.56Z" fill="#F7B49F"/>
<path d="M101.262 37.6021C103.624 40.785 107.015 42.8707 110.959 42.9201C118.006 42.9992 121.98 38.5313 123.641 31.6712C123.72 31.3549 123.789 31.0287 123.858 30.6926C124.086 29.5954 124.264 28.4389 124.382 27.2428C124.382 27.1736 124.392 27.1044 124.402 27.0352C124.402 26.9858 124.402 26.9364 124.412 26.8968C125.242 17.7435 122.356 10.0333 114.31 9.23267C104.237 8.2343 98.7904 15.3118 97.8513 24.6134L101.262 37.612V37.6021Z" fill="#F7B49F"/>
<path d="M116.722 34.0138C114.873 34.0138 110.267 33.6678 109.091 30.3168C109.002 30.0598 109.13 29.7732 109.397 29.6842C109.654 29.5952 109.941 29.7336 110.03 29.9906C111.236 33.4207 117.364 33.0154 117.423 33.0055C117.671 32.9857 117.928 33.1933 117.957 33.4602C117.977 33.737 117.769 33.9742 117.502 33.994C117.453 33.994 117.166 34.0138 116.731 34.0138H116.722Z" fill="#232B4C"/>
<path d="M111.206 43.4241C108.586 43.4241 104.395 42.7124 101.528 38.7387C101.37 38.5213 101.42 38.2049 101.637 38.0468C101.855 37.8886 102.171 37.9381 102.329 38.1555C106.372 43.7602 113.104 42.3071 113.39 42.2478C113.647 42.1885 113.924 42.3566 113.983 42.6235C114.043 42.8903 113.875 43.1572 113.608 43.2166C113.578 43.2166 112.619 43.434 111.196 43.434L111.206 43.4241Z" fill="#232B4C"/>
<path d="M100.046 28.8533C99.5317 29.1893 98.9386 29.4167 98.306 29.4859C95.7656 29.7725 93.4327 27.5583 93.0769 24.5237C92.7309 21.4989 94.5003 18.8004 97.0407 18.5137C98.3752 18.3655 99.6602 18.8992 100.619 19.8877C100.619 19.8877 101.588 20.9849 101.993 23.2486L100.036 28.8533H100.046Z" fill="#F7B49F"/>
<path d="M98.4248 25.4641C98.4248 25.4641 98.3754 25.4641 98.3457 25.4641C98.0788 25.4246 97.891 25.1676 97.9305 24.9007C98.0195 24.3373 97.9306 23.8925 97.6637 23.5267C97.1793 22.8743 96.2501 22.726 96.2402 22.726C95.9734 22.6865 95.7855 22.4394 95.8251 22.1626C95.8646 21.8957 96.1117 21.7079 96.3786 21.7474C96.4281 21.7474 97.7131 21.9451 98.4446 22.9336C98.8696 23.5069 99.0278 24.2187 98.8993 25.049C98.8597 25.2961 98.6521 25.4641 98.4149 25.4641H98.4248Z" fill="#232B4C"/>
<path d="M120.211 20.3028C120.399 20.6784 121.249 20.6487 122.178 20.6586C123.107 20.6487 123.967 20.6784 124.145 20.3028C124.333 19.937 123.483 19.166 122.178 19.166C120.863 19.166 120.023 19.9469 120.211 20.3028Z" fill="#232B4C"/>
<path d="M110.82 18.6027C110.959 18.9981 111.819 19.0673 112.728 19.1859C113.647 19.2848 114.497 19.4133 114.725 19.0574C114.962 18.7213 114.201 17.8416 112.906 17.6933C111.601 17.5352 110.672 18.2172 110.82 18.5928V18.6027Z" fill="#232B4C"/>
<path d="M118.333 30.2579C117.918 30.2579 117.384 30.2085 116.781 30.0405C116.514 29.9713 116.366 29.6945 116.435 29.4375C116.504 29.1706 116.781 29.0223 117.038 29.0915C118.244 29.4177 119.054 29.2002 119.064 29.2002C119.4 29.0619 119.608 28.874 119.628 28.6665C119.697 28.0338 118.461 26.8872 117.611 26.3139C117.384 26.1656 117.325 25.8592 117.483 25.6318C117.631 25.4045 117.937 25.3452 118.165 25.4934C118.6 25.79 120.764 27.3221 120.616 28.7752C120.577 29.1904 120.33 29.7538 119.39 30.1393C119.341 30.1591 118.956 30.2678 118.333 30.2678V30.2579Z" fill="#232B4C"/>
<path d="M104.355 25.5125C104.059 26.8272 104.879 28.1419 106.204 28.4384C107.519 28.735 108.833 27.9146 109.13 26.59C109.426 25.2753 108.606 23.9606 107.281 23.6641C105.967 23.3675 104.652 24.188 104.355 25.5125Z" fill="#E88585"/>
<path d="M123.433 31.9278C123.433 31.9278 123.503 31.9476 123.532 31.9476C124.076 29.6444 124.313 27.4599 124.402 26.5011C122.998 26.3133 121.664 27.2227 121.338 28.6263C121.002 30.1189 121.931 31.5917 123.423 31.9278H123.433Z" fill="#E88585"/>
<path d="M100.52 21.2726C100.52 21.2726 110.642 19.2462 110.959 12.7519C111.275 6.24765 115.16 6.90005 115.16 6.90005L102.023 9.13402L97.5352 14.284L98.4742 17.8722V18.6037C98.4742 18.6037 100.263 19.3154 100.53 21.2627L100.52 21.2726Z" fill="#232B4C"/>
<path d="M121.97 25.0382C122.352 25.0382 122.662 24.7284 122.662 24.3462C122.662 23.9641 122.352 23.6543 121.97 23.6543C121.588 23.6543 121.278 23.9641 121.278 24.3462C121.278 24.7284 121.588 25.0382 121.97 25.0382Z" fill="#232B4C"/>
<path d="M121.97 25.5325C121.318 25.5325 120.784 24.9987 120.784 24.3463C120.784 23.6939 121.318 23.1602 121.97 23.1602C122.623 23.1602 123.157 23.6939 123.157 24.3463C123.157 24.9987 122.623 25.5325 121.97 25.5325ZM121.97 24.1486C121.862 24.1486 121.773 24.2376 121.773 24.3463C121.773 24.5638 122.168 24.5638 122.168 24.3463C122.168 24.2376 122.079 24.1486 121.97 24.1486Z" fill="#232B4C"/>
<path d="M111.641 24.3468C112.023 24.3468 112.333 24.037 112.333 23.6548C112.333 23.2727 112.023 22.9629 111.641 22.9629C111.259 22.9629 110.949 23.2727 110.949 23.6548C110.949 24.037 111.259 24.3468 111.641 24.3468Z" fill="#232B4C"/>
<path d="M111.641 24.8411C110.988 24.8411 110.455 24.3073 110.455 23.6549C110.455 23.0025 110.988 22.4688 111.641 22.4688C112.293 22.4688 112.827 23.0025 112.827 23.6549C112.827 24.3073 112.293 24.8411 111.641 24.8411ZM111.641 23.4572C111.532 23.4572 111.443 23.5462 111.443 23.6549C111.443 23.8724 111.838 23.8724 111.838 23.6549C111.838 23.5462 111.75 23.4572 111.641 23.4572Z" fill="#232B4C"/>
<path d="M111.799 27.9938C109.595 27.9938 107.805 26.2046 107.805 24.0003C107.805 21.796 109.595 20.0068 111.799 20.0068C114.003 20.0068 115.792 21.796 115.792 24.0003C115.792 26.2046 114.003 27.9938 111.799 27.9938ZM111.799 20.9953C110.138 20.9953 108.794 22.3397 108.794 24.0003C108.794 25.661 110.138 27.0053 111.799 27.0053C113.46 27.0053 114.804 25.661 114.804 24.0003C114.804 22.3397 113.46 20.9953 111.799 20.9953Z" fill="#232B4C"/>
<path d="M122.356 29.0319C120.151 29.0319 118.362 27.2427 118.362 25.0384C118.362 22.8341 120.151 21.0449 122.356 21.0449C124.56 21.0449 126.349 22.8341 126.349 25.0384C126.349 27.2427 124.56 29.0319 122.356 29.0319ZM122.356 22.0334C120.695 22.0334 119.351 23.3777 119.351 25.0384C119.351 26.699 120.695 28.0434 122.356 28.0434C124.016 28.0434 125.361 26.699 125.361 25.0384C125.361 23.3777 124.016 22.0334 122.356 22.0334Z" fill="#232B4C"/>
<path d="M119.381 22.4688H115.298V23.4572H119.381V22.4688Z" fill="#232B4C"/>
<path d="M101.619 19.2928L101.304 20.2295L108.619 22.6957L108.935 21.759L101.619 19.2928Z" fill="#232B4C"/>
<path d="M130.639 150.832C129.829 150.832 129.117 150.605 128.514 150.16C128.297 149.992 128.247 149.686 128.415 149.468C128.583 149.251 128.89 149.201 129.107 149.369C129.799 149.883 130.728 149.982 131.875 149.656C135.285 148.697 139.437 144.417 140.593 141.501C142.116 137.685 139.289 134.641 139.16 134.512C139.032 134.384 138.992 134.186 139.051 134.018C140.336 130.173 137.44 127.128 137.41 127.099C137.292 126.98 137.242 126.812 137.282 126.644C138.261 122.423 132.972 120.575 132.745 120.496C132.606 120.446 132.498 120.337 132.438 120.209C132.389 120.071 132.399 119.922 132.468 119.794C135.226 114.842 143.015 110.799 145.338 109.672C147.602 108.575 148.738 105.935 147.987 103.514C147.345 101.457 145.506 100.004 143.401 99.9056C143.124 99.8957 142.847 99.8858 142.58 99.8858C124.58 99.8858 104.751 126.802 104.553 127.079C104.395 127.296 104.079 127.346 103.861 127.188C103.644 127.03 103.594 126.713 103.753 126.496C103.802 126.427 109.011 119.319 116.445 112.41C126.478 103.088 135.572 98.5316 143.45 98.9171C145.961 99.0357 148.165 100.766 148.926 103.217C149.826 106.093 148.472 109.257 145.763 110.561C143.579 111.609 136.452 115.306 133.605 119.794C135.097 120.456 139.022 122.601 138.28 126.614C138.943 127.395 141.147 130.341 140.05 134.068C140.761 134.918 143.015 138.041 141.483 141.886C140.208 145.069 135.839 149.577 132.112 150.625C131.578 150.773 131.074 150.852 130.61 150.852L130.639 150.832Z" fill="#232B4C"/>
<path d="M130.481 124.658C130.412 124.658 130.353 124.648 130.283 124.618C130.036 124.509 129.918 124.223 130.026 123.966C130.926 121.87 132.458 119.824 132.527 119.735C132.695 119.518 133.002 119.478 133.219 119.636C133.437 119.804 133.476 120.111 133.318 120.328C133.298 120.348 131.786 122.374 130.936 124.351C130.857 124.539 130.669 124.648 130.481 124.648V124.658Z" fill="#232B4C"/>
<path d="M135.631 129.392C135.552 129.392 135.473 129.372 135.394 129.333C135.157 129.204 135.068 128.898 135.196 128.661C136.145 126.911 137.529 126.318 137.588 126.298C137.835 126.189 138.132 126.308 138.231 126.565C138.339 126.812 138.221 127.109 137.964 127.208C137.944 127.208 136.837 127.712 136.056 129.135C135.967 129.303 135.799 129.392 135.621 129.392H135.631Z" fill="#232B4C"/>
<path d="M137.994 137.32C137.934 137.32 137.875 137.311 137.816 137.291C137.559 137.192 137.43 136.905 137.529 136.658C138.31 134.622 139.16 133.851 139.19 133.821C139.397 133.643 139.704 133.663 139.891 133.861C140.069 134.068 140.05 134.375 139.852 134.553C139.832 134.572 139.12 135.245 138.448 137.004C138.369 137.202 138.181 137.32 137.984 137.32H137.994Z" fill="#232B4C"/>
<path d="M115.891 158.899C115.713 158.899 115.535 158.8 115.446 158.622C115.328 158.375 115.426 158.078 115.674 157.96C128.346 151.713 133.624 143.459 133.684 143.38C133.832 143.152 134.138 143.083 134.366 143.222C134.593 143.37 134.662 143.676 134.524 143.904C134.306 144.25 129.058 152.474 116.118 158.849C116.049 158.889 115.97 158.899 115.901 158.899H115.891Z" fill="#232B4C"/>
<path d="M223.478 79.0587L219.02 82.4195L219.514 73.4343L225.049 72.3271L223.478 79.0587Z" fill="#F7B49F"/>
<path d="M176.9 122.791C176.726 126.304 173.742 129.007 170.228 128.834C166.714 128.66 164.011 125.675 164.185 122.162C164.359 118.648 167.343 115.945 170.857 116.119C174.371 116.292 177.074 119.277 176.9 122.791Z" fill="white"/>
<path d="M170.209 129.466C166.354 129.275 163.375 125.986 163.565 122.131C163.756 118.276 167.046 115.296 170.901 115.487C174.756 115.678 177.735 118.967 177.544 122.822C177.354 126.677 174.064 129.656 170.209 129.466ZM170.837 116.763C167.678 116.607 164.985 119.046 164.829 122.206C164.672 125.366 167.111 128.058 170.271 128.215C173.431 128.371 176.123 125.932 176.28 122.772C176.436 119.612 173.997 116.92 170.837 116.763Z" fill="#2A2628"/>
<path d="M190.082 92.4514C190.595 82.0873 182.247 73.3375 171.683 73.5371C162.971 73.7016 155.513 80.2506 154.251 88.8672C153.295 95.383 155.872 101.427 160.407 105.288C162.024 106.66 162.859 108.754 162.753 110.878L162.418 117.665L179.114 118.491L179.457 111.564C179.562 109.441 180.695 107.533 182.428 106.314C186.812 103.237 189.796 98.2275 190.081 92.4641L190.082 92.4514Z" fill="#FFD843"/>
<path d="M173.253 67.9372C172.899 67.9197 172.634 67.6279 172.652 67.274L173.044 59.3492C173.061 58.9953 173.353 58.731 173.707 58.7485C174.061 58.7661 174.325 59.0579 174.308 59.4118L173.916 67.3365C173.898 67.6904 173.607 67.9547 173.253 67.9372Z" fill="#2A2628"/>
<path d="M187.46 72.2005C187.372 72.1961 187.272 72.1658 187.185 72.1235C186.877 71.9562 186.769 71.5708 186.937 71.2623L190.802 64.3329C190.969 64.0244 191.354 63.9168 191.663 64.0841C191.971 64.2514 192.079 64.6368 191.912 64.9453L188.047 71.8747C187.922 72.0966 187.7 72.2124 187.46 72.2005Z" fill="#2A2628"/>
<path d="M195.022 83.5223C194.807 83.5117 194.61 83.4006 194.506 83.1927C194.331 82.8926 194.452 82.5058 194.752 82.3306L201.683 78.467C201.983 78.2918 202.371 78.3997 202.545 78.7124C202.721 79.0125 202.6 79.3993 202.3 79.5745L195.368 83.4381C195.264 83.4963 195.148 83.5286 195.035 83.5229L195.022 83.5223Z" fill="#2A2628"/>
<path d="M150.052 81.2973C149.938 81.2917 149.826 81.2608 149.728 81.1799L143.212 76.6511C142.931 76.4472 142.848 76.063 143.053 75.769C143.257 75.4751 143.641 75.4053 143.935 75.6099L150.451 80.1387C150.733 80.3427 150.815 80.7269 150.61 81.0209C150.487 81.2048 150.267 81.3079 150.065 81.2979L150.052 81.2973Z" fill="#2A2628"/>
<path d="M158.693 70.7776C158.466 70.7663 158.245 70.6287 158.142 70.3956L154.98 63.1185C154.844 62.7951 154.989 62.4221 155.312 62.2861C155.636 62.1501 156.009 62.2952 156.145 62.6187L159.307 69.8957C159.443 70.2192 159.298 70.5921 158.975 70.7282C158.884 70.7743 158.782 70.782 158.693 70.7776Z" fill="#2A2628"/>
<path d="M171.717 95.4068C171.64 96.9488 170.328 98.1255 168.799 98.0499C167.269 97.9742 166.08 96.661 166.155 95.1317C166.231 93.6023 167.544 92.413 169.074 92.4886C170.603 92.5643 171.792 93.8774 171.717 95.4068Z" fill="white"/>
<path d="M168.767 98.682C166.884 98.5888 165.43 96.9838 165.524 95.1006C165.617 93.2173 167.222 91.7636 169.105 91.8568C170.988 91.9499 172.442 93.5549 172.349 95.4382C172.256 97.3214 170.651 98.7751 168.767 98.682ZM169.043 93.1081C167.855 93.0493 166.847 93.9624 166.788 95.1504C166.729 96.3385 167.642 97.3466 168.831 97.4054C170.019 97.4642 171.027 96.5511 171.085 95.363C171.144 94.1749 170.231 93.1668 169.043 93.1081Z" fill="#2A2628"/>
<path d="M177.67 95.7007C177.594 97.2427 176.281 98.4195 174.752 98.3438C173.222 98.2682 172.033 96.955 172.109 95.4256C172.184 93.8963 173.497 92.7069 175.027 92.7826C176.556 92.8582 177.745 94.1714 177.67 95.7007Z" fill="white"/>
<path d="M174.72 98.9769C172.837 98.8837 171.383 97.2787 171.476 95.3955C171.57 93.5122 173.175 92.0586 175.058 92.1517C176.941 92.2449 178.395 93.8499 178.302 95.7331C178.208 97.6163 176.603 99.07 174.72 98.9769ZM174.996 93.403C173.808 93.3442 172.8 94.2573 172.741 95.4454C172.682 96.6334 173.595 97.6415 174.783 97.7003C175.971 97.7591 176.98 96.846 177.038 95.6579C177.097 94.4698 176.184 93.4618 174.996 93.403Z" fill="#2A2628"/>
<path d="M169.05 118.575C168.747 118.56 168.48 118.318 168.457 118.001L166.425 97.3618C166.391 97.018 166.648 96.7013 166.991 96.6676C167.335 96.6339 167.652 96.8903 167.686 97.2341L169.718 117.873C169.752 118.217 169.495 118.533 169.152 118.567C169.126 118.566 169.088 118.564 169.063 118.563L169.05 118.575Z" fill="#2A2628"/>
<path d="M172.538 118.747C172.538 118.747 172.475 118.744 172.45 118.743C172.111 118.675 171.886 118.348 171.954 117.996L176.014 97.6588C176.081 97.32 176.422 97.0961 176.761 97.1636C177.099 97.231 177.324 97.5589 177.256 97.9103L173.196 118.248C173.13 118.561 172.854 118.776 172.55 118.761L172.538 118.747Z" fill="#2A2628"/>
<path d="M178.074 121.073L163.211 120.338C162.49 120.302 161.925 119.679 161.961 118.959C161.997 118.238 162.62 117.673 163.341 117.709L178.204 118.444C178.925 118.48 179.489 119.103 179.454 119.824C179.418 120.544 178.795 121.109 178.074 121.073Z" fill="white"/>
<path d="M178.043 121.706L163.179 120.971C162.105 120.918 161.276 120.003 161.329 118.928C161.382 117.854 162.298 117.025 163.372 117.078L178.236 117.813C179.31 117.867 180.139 118.782 180.086 119.856C180.033 120.931 179.117 121.759 178.043 121.706ZM163.309 118.342C162.93 118.323 162.612 118.612 162.593 118.991C162.574 119.37 162.863 119.688 163.242 119.707L178.106 120.442C178.485 120.461 178.803 120.173 178.822 119.794C178.841 119.414 178.552 119.096 178.173 119.077L163.309 118.342Z" fill="#2A2628"/>
<path d="M177.944 123.703L163.081 122.968C162.36 122.932 161.796 122.309 161.831 121.588C161.867 120.868 162.49 120.303 163.211 120.339L178.074 121.074C178.795 121.11 179.359 121.733 179.324 122.454C179.288 123.174 178.665 123.739 177.944 123.703Z" fill="white"/>
<path d="M177.913 124.335L163.049 123.6C161.975 123.547 161.146 122.632 161.199 121.557C161.252 120.483 162.168 119.654 163.242 119.707L178.106 120.442C179.18 120.496 180.009 121.411 179.956 122.485C179.903 123.559 178.987 124.388 177.913 124.335ZM163.179 120.971C162.8 120.952 162.482 121.241 162.463 121.62C162.444 121.999 162.733 122.317 163.112 122.336L177.975 123.071C178.355 123.09 178.673 122.802 178.692 122.423C178.711 122.043 178.422 121.725 178.043 121.706L163.179 120.971Z" fill="#2A2628"/>
<path d="M177.783 126.963L162.919 126.228C161.845 126.175 161.016 125.26 161.069 124.185C161.122 123.111 162.038 122.282 163.112 122.335L177.976 123.07C179.05 123.123 179.879 124.039 179.826 125.113C179.773 126.187 178.857 127.016 177.783 126.963ZM163.049 123.599C162.67 123.58 162.352 123.869 162.333 124.248C162.314 124.627 162.603 124.945 162.982 124.964L177.846 125.699C178.225 125.718 178.543 125.43 178.562 125.05C178.581 124.671 178.292 124.353 177.913 124.334L163.049 123.599Z" fill="#2A2628"/>
</svg>
