<svg width="228" height="200" viewBox="0 0 228 200" fill="none" xmlns="http://www.w3.org/2000/svg">
<path d="M215.482 200H12.0356C3.27826 200 -2.53936 190.933 1.10439 182.965L38.3232 101.774C40.2805 97.5033 44.5508 94.7646 49.2544 94.7646H178.263C182.967 94.7646 187.229 97.5033 189.194 101.774L226.413 182.965C230.065 190.926 224.247 200 215.482 200Z" fill="#232B4C"/>
<path d="M12.0355 192.705C9.70692 192.705 8.47686 191.181 8.05911 190.531C7.64136 189.881 6.76717 188.125 7.74193 186.005L44.9607 104.814C45.7266 103.135 47.4131 102.06 49.2543 102.06H178.263C180.104 102.06 181.791 103.143 182.557 104.814L219.775 186.005C220.75 188.125 219.876 189.873 219.458 190.531C219.041 191.181 217.811 192.705 215.482 192.705H12.0355Z" fill="#FCFCFC"/>
<path d="M28.9161 131.38C28.8619 131.38 28.8078 131.365 28.7536 131.342C28.5602 131.249 28.4751 131.017 28.5679 130.823L29.4808 128.889C29.5736 128.696 29.8057 128.611 29.9991 128.704C30.1925 128.797 30.2776 129.029 30.1848 129.222L29.2719 131.156C29.21 131.295 29.0708 131.38 28.9238 131.38H28.9161Z" fill="#FCFCFC"/>
<path d="M20.9942 148.183C20.94 148.183 20.8859 148.167 20.8317 148.144C20.6383 148.051 20.5532 147.819 20.6461 147.626L27.4152 133.267C27.5081 133.074 27.7402 132.989 27.9336 133.082C28.127 133.174 28.2121 133.407 28.1192 133.6L21.3501 147.958C21.2882 148.098 21.1489 148.183 21.0019 148.183H20.9942Z" fill="#FCFCFC"/>
<path d="M120.814 34.6855L103.694 50.5989L109.844 58.3196L132.009 47.0635L120.814 34.6855Z" fill="#EF9E89"/>
<path d="M165.05 63.6651C153.213 68.74 132.635 67.6801 132.635 67.6801L130.639 45.7945L120.822 34.6776C120.822 34.6776 132.983 20.9922 140.108 19.9788C144.332 19.3754 148.479 19.8705 153.678 22.3538C155.844 23.3904 162.249 28.6665 162.149 42.2513C162.095 49.6471 165.058 63.6573 165.058 63.6573L165.05 63.6651Z" fill="#2962F6"/>
<path d="M144.007 10.0451C144.626 7.88667 143.056 5.92168 142.135 5.35693C142.019 4.59879 141.718 3.68592 140.983 3.00513C139.451 1.57394 136.751 1.72866 136.751 1.72866C135.173 1.31864 130.879 4.05725 129.974 6.14603C129.061 8.2348 129.309 10.6175 130.044 11.2674L131.575 14.1607L141.176 14.1839C141.176 14.1839 141.308 13.8977 141.501 13.4567V13.7739C141.501 13.7739 143.141 13.0777 144.015 10.0528L144.007 10.0451Z" fill="#2A2628"/>
<path d="M134.19 17.6891C134.19 17.6891 134.685 19.1977 135.327 23.0039C135.706 25.2474 137.756 26.8178 140.023 26.6089C142.762 26.3614 144.588 23.6692 143.806 21.0311C142.708 17.3332 141.864 14.1769 141.741 10.5254L134.182 17.6814L134.19 17.6891Z" fill="#F7B49F"/>
<path d="M139.946 17.2946C138.971 18.6098 137.563 19.4762 135.931 19.4917C133.014 19.5227 131.366 17.6737 130.678 14.8345C130.647 14.703 130.616 14.5638 130.585 14.4322C130.492 13.9758 130.415 13.5039 130.368 13.001C130.368 12.9701 130.368 12.9469 130.368 12.9159C130.368 12.9005 130.368 12.8773 130.368 12.8618C130.02 9.07106 131.219 5.88375 134.554 5.55109C138.724 5.14107 140.983 8.06535 141.369 11.918" fill="#F7B49F"/>
<path d="M133.532 15.9951C133.355 15.9951 133.231 15.9874 133.208 15.9874C132.991 15.9719 132.836 15.7862 132.852 15.5773C132.867 15.3607 133.037 15.206 133.262 15.2215C133.935 15.2679 135.76 15.1596 136.14 14.092C136.209 13.8909 136.434 13.7825 136.635 13.8522C136.836 13.9218 136.944 14.1461 136.874 14.3473C136.348 15.8481 134.329 16.0028 133.532 16.0028V15.9951Z" fill="#2A2628"/>
<path d="M135.861 19.8939C135.25 19.8939 134.832 19.8011 134.786 19.7933C134.577 19.7469 134.445 19.538 134.492 19.3291C134.538 19.1203 134.747 18.9888 134.956 19.0352C135.072 19.0584 137.749 19.6386 139.35 17.4106C139.474 17.2404 139.714 17.2017 139.892 17.3255C140.062 17.4493 140.108 17.6891 139.977 17.867C138.739 19.5767 136.983 19.8939 135.861 19.8939Z" fill="#2A2628"/>
<path d="M140.441 13.674C140.658 13.8133 140.897 13.9061 141.16 13.9371C142.213 14.0608 143.18 13.1402 143.327 11.887C143.474 10.6337 142.739 9.51969 141.686 9.39591C141.137 9.33402 140.603 9.55837 140.201 9.96839C140.201 9.96839 139.799 10.4248 139.629 11.3609" fill="#F7B49F"/>
<path d="M141.114 12.4512C140.928 12.4512 140.758 12.3119 140.735 12.1262C140.673 11.7394 140.751 11.3913 140.959 11.1128C141.3 10.6486 141.872 10.5558 141.934 10.5481C142.143 10.5171 142.344 10.6641 142.375 10.873C142.406 11.0819 142.259 11.2753 142.05 11.3062C141.903 11.3294 141.424 11.4532 141.501 12.0025C141.532 12.2113 141.385 12.4125 141.176 12.4434C141.153 12.4434 141.137 12.4434 141.114 12.4434V12.4512Z" fill="#2A2628"/>
<path d="M132.357 10.3547C132.279 10.5094 131.923 10.494 131.544 10.5017C131.165 10.5017 130.802 10.5017 130.732 10.3547C130.655 10.2077 131.003 9.88281 131.544 9.88281C132.086 9.88281 132.442 10.2077 132.357 10.3547Z" fill="#2A2628"/>
<path d="M136.58 10.0139C136.526 10.1763 136.17 10.2073 135.791 10.2537C135.412 10.2924 135.056 10.3465 134.964 10.1995C134.871 10.0603 135.18 9.69669 135.714 9.6348C136.248 9.57291 136.642 9.85141 136.58 10.0061V10.0139Z" fill="#2A2628"/>
<path d="M132.875 14.4396C132.612 14.4396 132.442 14.3932 132.411 14.3854C131.916 14.1843 131.8 13.898 131.784 13.6814C131.73 13.0006 132.689 12.3663 133.099 12.1187C133.285 12.0104 133.517 12.0723 133.625 12.258C133.734 12.4436 133.672 12.6757 133.486 12.7918C133.037 13.0548 132.604 13.4416 132.55 13.6118C132.566 13.6118 132.596 13.635 132.651 13.6582C132.635 13.6582 132.72 13.6737 132.852 13.6737C132.976 13.6737 133.153 13.6582 133.355 13.6041C133.564 13.5422 133.772 13.6737 133.827 13.8748C133.881 14.076 133.765 14.2926 133.556 14.3467C133.285 14.4164 133.053 14.4396 132.86 14.4396H132.875Z" fill="#2A2628"/>
<path d="M138.662 12.2893C138.785 12.8309 138.445 13.3724 137.896 13.4962C137.354 13.62 136.813 13.2796 136.689 12.7303C136.565 12.1888 136.906 11.6472 137.455 11.5234C137.996 11.3997 138.538 11.7401 138.662 12.2893Z" fill="#E88585"/>
<path d="M130.763 14.9429C130.763 14.9429 130.732 14.9429 130.717 14.9429C130.492 13.9913 130.392 13.0862 130.353 12.6916C130.933 12.6143 131.49 12.9933 131.622 13.5736C131.761 14.1925 131.374 14.8036 130.755 14.9429H130.763Z" fill="#E88585"/>
<path d="M140.248 10.5331C140.248 10.5331 133.95 10.6105 133.827 7.92602C133.703 5.24156 134.19 4.58398 134.19 4.58398L139.629 5.50459L141.485 7.63978L141.099 9.12513V9.42684C141.099 9.42684 140.356 9.72082 140.248 10.5254V10.5331Z" fill="#2A2628"/>
<path d="M131.939 11.8097C131.939 11.9644 131.807 12.0959 131.653 12.0959C131.498 12.0959 131.366 11.9644 131.366 11.8097C131.366 11.655 131.498 11.5234 131.653 11.5234C131.807 11.5234 131.939 11.655 131.939 11.8097Z" fill="#2A2628"/>
<path d="M131.653 12.4828C131.281 12.4828 130.98 12.1811 130.98 11.8098C130.98 11.4384 131.281 11.1367 131.653 11.1367C132.024 11.1367 132.326 11.4384 132.326 11.8098C132.326 12.1811 132.024 12.4828 131.653 12.4828ZM131.653 11.7092C131.599 11.7092 131.552 11.7556 131.552 11.8098C131.552 11.9181 131.753 11.9181 131.753 11.8098C131.753 11.7556 131.707 11.7092 131.653 11.7092Z" fill="#2A2628"/>
<path d="M135.931 11.5235C135.931 11.6783 135.799 11.8098 135.644 11.8098C135.49 11.8098 135.358 11.6783 135.358 11.5235C135.358 11.3688 135.49 11.2373 135.644 11.2373C135.799 11.2373 135.931 11.3688 135.931 11.5235Z" fill="#2A2628"/>
<path d="M135.644 12.1967C135.273 12.1967 134.971 11.895 134.971 11.5236C134.971 11.1523 135.273 10.8506 135.644 10.8506C136.016 10.8506 136.318 11.1523 136.318 11.5236C136.318 11.895 136.016 12.1967 135.644 12.1967ZM135.644 11.4231C135.59 11.4231 135.544 11.4695 135.544 11.5236C135.544 11.6319 135.745 11.6319 135.745 11.5236C135.745 11.4695 135.699 11.4231 135.644 11.4231Z" fill="#2A2628"/>
<path d="M132.635 67.6879L133.989 164.491H150.003L153.577 100.381L159.913 116.202C161.723 120.727 164.71 124.696 168.562 127.69L198.022 150.604L208.287 135.542L179.292 109.224C179.292 109.224 170.465 77.3504 164.872 62.582L132.643 67.6879H132.635Z" fill="#433C52"/>
<path d="M149.338 166.657L149.376 164.483H134.12L133.788 166.913C145.145 168.916 149.338 166.65 149.338 166.65V166.657Z" fill="#F7B49F"/>
<path d="M150.436 174.022L149.337 166.657C149.337 166.657 145.152 168.924 133.788 166.92C133.788 166.92 128.334 170.402 126.338 176.01C126.013 176.923 126.709 177.882 127.676 177.882H147.133C149.183 177.882 150.745 176.057 150.436 174.03V174.022Z" fill="#2962F6"/>
<path d="M198.014 150.589L203.297 154.712L210.407 138.737L207.676 136.416L198.014 150.589Z" fill="#F7B49F"/>
<path d="M200.915 152.848C200.915 152.848 216.998 168.522 218.228 165.373C219.203 162.874 217.161 147.332 216.279 141.05C216.07 139.557 214.747 138.482 213.246 138.575L210.407 138.745C207.924 144.006 205.03 148.926 200.915 152.856V152.848Z" fill="#2962F6"/>
<path d="M150.869 50.7688C150.792 50.7688 150.715 50.7456 150.645 50.6992C150.467 50.5754 150.428 50.3356 150.552 50.1576C150.614 50.0725 156.787 41.2223 158.056 34.6079C158.095 34.399 158.304 34.2598 158.505 34.2984C158.714 34.3371 158.853 34.5383 158.814 34.7471C157.515 41.524 151.442 50.2273 151.186 50.5986C151.109 50.7069 150.993 50.7611 150.869 50.7611V50.7688Z" fill="#2A2628"/>
<path d="M111.856 0.793045C103.067 -2.01519 93.6834 2.87408 90.9448 11.6779L89.9468 14.8884L88.4537 19.7158L53.1225 133.577L51.6217 138.412L49.7031 144.586L81.3209 154.697L83.255 148.461L84.7481 143.665L120.211 29.3937L121.704 24.5896L122.655 21.5183C123.166 19.886 123.398 18.2304 123.398 16.5981C123.398 9.56588 118.896 3.03654 111.856 0.793045Z" fill="#FFD843"/>
<path d="M49.7031 144.578L81.3209 154.689C81.3209 154.689 71.0086 165.798 63.1564 174.262C59.706 177.975 53.4861 175.956 52.8827 170.92L49.7109 144.578H49.7031Z" fill="#FFD843"/>
<path d="M135.42 40.4795L131.73 46.2043L108.444 46.2197L106.827 61.8004C106.827 61.8004 139.536 63.6958 142.468 61.5374C145.392 59.3713 150.869 50.3818 150.869 50.3818L135.42 40.4795Z" fill="#F7B49F"/>
<path d="M153.577 100.373L149.369 90.1846L145.794 164.483H150.003L153.577 100.373Z" fill="#322D3E"/>
<path d="M203.243 136.533C203.158 136.533 203.065 136.502 202.996 136.44L201.797 135.442C201.634 135.302 201.611 135.063 201.743 134.9C201.882 134.738 202.129 134.715 202.284 134.846L203.483 135.844C203.646 135.983 203.669 136.223 203.537 136.386C203.46 136.478 203.352 136.525 203.243 136.525V136.533ZM198.47 132.548C198.385 132.548 198.292 132.517 198.223 132.456L197.031 131.458C196.869 131.318 196.846 131.079 196.985 130.908C197.124 130.746 197.364 130.723 197.534 130.862L198.726 131.86C198.888 131.999 198.911 132.239 198.772 132.401C198.695 132.494 198.586 132.541 198.478 132.541L198.47 132.548ZM193.728 128.549C193.643 128.549 193.55 128.518 193.48 128.456L192.297 127.45C192.134 127.311 192.111 127.071 192.25 126.901C192.39 126.739 192.629 126.715 192.8 126.855L193.983 127.86C194.146 128 194.169 128.239 194.03 128.402C193.952 128.495 193.844 128.541 193.736 128.541L193.728 128.549ZM189.009 124.526C188.916 124.526 188.831 124.495 188.754 124.433L187.578 123.42C187.415 123.28 187.4 123.033 187.539 122.87C187.678 122.708 187.926 122.692 188.088 122.832L189.264 123.845C189.427 123.984 189.442 124.232 189.303 124.394C189.225 124.487 189.117 124.526 189.009 124.526ZM184.321 120.464C184.228 120.464 184.143 120.434 184.065 120.372L182.897 119.343C182.735 119.203 182.719 118.956 182.866 118.793C183.006 118.631 183.253 118.616 183.416 118.763L184.576 119.784C184.738 119.923 184.754 120.17 184.615 120.333C184.537 120.418 184.429 120.464 184.321 120.464ZM179.694 116.333C179.602 116.333 179.509 116.302 179.431 116.233C179.029 115.869 178.65 115.513 178.286 115.173C178.132 115.026 178.124 114.786 178.271 114.624C178.418 114.469 178.658 114.461 178.82 114.608C179.176 114.941 179.563 115.297 179.957 115.66C180.112 115.807 180.128 116.047 179.981 116.21C179.903 116.295 179.803 116.333 179.694 116.333ZM175.293 111.955C175.177 111.955 175.06 111.901 174.983 111.8C174.751 111.498 174.488 111.034 174.179 110.384C174.086 110.191 174.171 109.959 174.356 109.866C174.55 109.773 174.782 109.858 174.875 110.044C175.161 110.64 175.401 111.073 175.602 111.328C175.734 111.498 175.695 111.738 175.525 111.87C175.455 111.924 175.37 111.947 175.293 111.947V111.955ZM172.771 106.292C172.616 106.292 172.469 106.199 172.407 106.036C172.237 105.572 172.059 105.077 171.873 104.574C171.804 104.373 171.904 104.149 172.105 104.079C172.306 104.01 172.531 104.11 172.6 104.311C172.778 104.814 172.956 105.302 173.126 105.766C173.204 105.967 173.095 106.191 172.902 106.261C172.856 106.276 172.809 106.284 172.771 106.284V106.292ZM170.728 100.435C170.566 100.435 170.419 100.335 170.365 100.172C170.202 99.6928 170.04 99.1977 169.877 98.6948C169.808 98.4937 169.924 98.2771 170.125 98.2074C170.326 98.1378 170.543 98.2539 170.612 98.455C170.775 98.9501 170.937 99.4452 171.1 99.9249C171.169 100.126 171.061 100.35 170.86 100.412C170.821 100.428 170.775 100.435 170.736 100.435H170.728ZM168.81 94.5405C168.647 94.5405 168.492 94.4322 168.438 94.2697L167.974 92.7921C167.912 92.591 168.021 92.3744 168.229 92.3047C168.438 92.2428 168.655 92.3512 168.717 92.56L169.181 94.0376C169.243 94.2388 169.135 94.4554 168.933 94.525C168.895 94.5405 168.856 94.5405 168.817 94.5405H168.81ZM166.961 88.6223C166.798 88.6223 166.644 88.514 166.589 88.3515L166.156 86.9358C166.094 86.7347 166.195 86.4794 166.404 86.4175C166.613 86.3556 166.814 86.433 166.876 86.6418L167.332 88.1272C167.394 88.3283 167.278 88.5449 167.077 88.6068C167.038 88.6223 166.999 88.6223 166.961 88.6223ZM165.158 82.6886C164.996 82.6886 164.841 82.5803 164.787 82.4101L164.338 80.9248C164.276 80.7237 164.392 80.507 164.601 80.4451C164.81 80.3833 165.019 80.4993 165.081 80.7082L165.522 82.1935C165.584 82.3947 165.468 82.6113 165.266 82.6732C165.228 82.6809 165.189 82.6886 165.158 82.6886ZM163.394 76.7395C163.224 76.7395 163.069 76.6312 163.023 76.461L162.59 74.9679C162.528 74.759 162.644 74.5502 162.853 74.4883C163.062 74.4264 163.271 74.5502 163.332 74.7513L163.766 76.2367C163.828 76.4378 163.711 76.6544 163.503 76.7163C163.464 76.724 163.433 76.7318 163.394 76.7318V76.7395ZM161.661 70.7749C161.491 70.7749 161.336 70.6666 161.29 70.4964L160.857 68.9878C160.795 68.779 160.919 68.5701 161.12 68.5082C161.329 68.4463 161.538 68.5701 161.6 68.7712L162.033 70.2721C162.095 70.4809 161.971 70.6898 161.77 70.7517C161.731 70.7594 161.7 70.7672 161.661 70.7672V70.7749Z" fill="white"/>
<path d="M84.7482 143.657L83.2551 148.454C68.6724 146.744 57.834 141.901 51.6218 138.412L53.1226 133.577C58.832 136.865 69.8019 142.025 84.7482 143.657Z" fill="#FCFCFC"/>
<path d="M121.704 24.589L120.211 29.3931C105.798 27.8614 94.9365 23.2506 88.4536 19.7229L89.9467 14.8955C96.0041 18.2762 106.99 23.1578 121.704 24.5967V24.589Z" fill="#FCFCFC"/>
<path d="M135.42 40.866C135.381 40.866 135.335 40.866 135.296 40.8428C135.095 40.7732 134.987 40.5488 135.057 40.3477C135.265 39.752 140.155 25.7882 144.711 24.9449C144.92 24.9062 145.121 25.0455 145.16 25.2544C145.199 25.4633 145.059 25.6644 144.851 25.7031C141.431 26.3374 137.145 36.6653 135.784 40.5952C135.73 40.7577 135.575 40.8583 135.42 40.8583V40.866Z" fill="#2A2628"/>
<path d="M110.858 59.3873L108.537 61.9016C108.537 61.9016 103.957 63.9439 97.9538 62.5901C97.9383 62.5901 97.9306 62.5901 97.9151 62.5901C94.7588 61.6076 90.5348 60.687 88.0205 61.2053C84.1756 62.0021 86.5274 55.5192 92.8402 56.4321C99.1606 57.3449 110.858 59.395 110.858 59.395V59.3873Z" fill="#F7B49F"/>
<path d="M102.843 58.5057C102.843 58.5057 99.7177 60.1226 97.714 59.4031C95.7181 58.6836 87.5719 57.1441 83.8585 58.4361C80.1451 59.728 81.6305 52.9975 88.0128 53.0749C94.3952 53.1522 106.255 53.6474 106.255 53.6474L102.843 58.5057Z" fill="#F7B49F"/>
<path d="M104.7 54.2498C104.7 54.2498 101.574 55.8667 99.5707 55.1472C97.567 54.4278 89.4286 52.8883 85.7152 54.1802C82.0018 55.4721 83.4872 48.7417 89.8695 48.819C96.2519 48.8964 108.111 49.3915 108.111 49.3915L104.7 54.2498Z" fill="#F7B49F"/>
<path d="M107.191 50.6912C107.191 50.6912 104.065 52.3081 102.062 51.5886C100.066 50.8692 91.9195 49.3297 88.2061 50.6216C84.4928 51.9136 85.9781 45.1831 92.3605 45.2604C98.7428 45.3378 111.693 45.8329 111.693 45.8329L107.191 50.6912Z" fill="#F7B49F"/>
<path d="M101.605 58.5749L106.17 47.6592L109.078 47.9996L107.748 59.3022L101.605 58.5749Z" fill="#F7B49F"/>
<path d="M112.73 46.4987C112.73 46.4987 99.3772 37.1456 98.4024 41.1994C97.4277 45.2532 102.34 48.5333 102.34 48.5333L107.825 47.1563L112.73 46.5064V46.4987Z" fill="#F7B49F"/>
<path d="M87.3087 58.3272C87.1772 58.3272 87.0534 58.2653 86.9838 58.1416C86.8678 57.9636 86.9219 57.7238 87.1076 57.6078C87.2468 57.5227 90.4883 55.5422 95.0604 56.5866C95.2693 56.633 95.4008 56.8419 95.3544 57.0507C95.308 57.2596 95.0991 57.3911 94.8902 57.3447C90.6353 56.37 87.5486 58.2499 87.5176 58.2653C87.4557 58.304 87.3861 58.3272 87.3165 58.3272H87.3087Z" fill="#2A2628"/>
<path d="M84.369 54.6531C84.2143 54.6531 84.0673 54.5603 84.0054 54.4056C83.9281 54.2044 84.0286 53.9801 84.222 53.9027C84.4464 53.8176 89.7302 51.7985 95.0372 53.1136C95.2461 53.1678 95.3699 53.3766 95.3235 53.5855C95.2693 53.7944 95.0682 53.9182 94.8516 53.864C89.7921 52.6108 84.5547 54.6067 84.5083 54.6222C84.4619 54.6376 84.4154 54.6454 84.369 54.6454V54.6531Z" fill="#2A2628"/>
<path d="M86.5274 50.0263C86.3727 50.0263 86.2257 49.9334 86.1638 49.771C86.0865 49.5698 86.1948 49.3455 86.3882 49.2759C86.5816 49.2062 91.1073 47.543 95.5556 48.9587C95.7567 49.0206 95.8728 49.2372 95.8109 49.4461C95.749 49.6472 95.5324 49.7632 95.3235 49.7014C91.1382 48.3785 86.7054 49.9953 86.659 50.0108C86.6125 50.0263 86.5661 50.034 86.5274 50.034V50.0263Z" fill="#2A2628"/>
</svg>
