<svg width="135" height="135" viewBox="0 0 135 135" fill="none" xmlns="http://www.w3.org/2000/svg">
<circle cx="67.5" cy="67.5" r="67.5" fill="white"/>
<path d="M91.217 69.8232H43.7266V94.1195H91.217V69.8232Z" fill="white"/>
<path d="M92.0257 94.9279H42.9189V69.0154H92.0257V94.9279ZM44.5353 93.3116H90.4094V70.6317H44.5353V93.3116Z" fill="black"/>
<path d="M91.217 48.3269H43.7266V72.6231H91.217V48.3269Z" fill="white"/>
<path d="M92.0257 73.4301H42.9189V47.5176H92.0257V73.4301ZM44.5353 71.8138H90.4094V49.1339H44.5353V71.8138Z" fill="black"/>
<path d="M86.1476 36.1008H48.7959V67.9791H86.1476V36.1008Z" fill="white"/>
<path d="M86.1481 68.7875H48.7964C48.3483 68.7875 47.9883 68.4275 47.9883 67.9794V36.1011C47.9883 35.653 48.3483 35.293 48.7964 35.293H86.1481C86.5963 35.293 86.9563 35.653 86.9563 36.1011V67.9794C86.9563 68.4275 86.5963 68.7875 86.1481 68.7875ZM49.6046 67.1712H85.34V36.9093H49.6046V67.1712Z" fill="#283C93"/>
<path d="M35.5943 55.3347H99.3508C101.628 55.3347 103.472 57.1788 103.472 59.4563V79.7926C103.472 82.0701 101.628 83.9142 99.3508 83.9142H35.5943C33.3167 83.9142 31.4727 82.0701 31.4727 79.7926V59.4563C31.4727 57.1788 33.3167 55.3347 35.5943 55.3347Z" fill="#283C93"/>
<path d="M99.3503 84.7227H35.5938C32.8755 84.7227 30.6641 82.5112 30.6641 79.7929V59.4566C30.6641 56.7383 32.8755 54.5269 35.5938 54.5269H99.3503C102.069 54.5269 104.28 56.7383 104.28 59.4566V79.7929C104.28 82.5112 102.069 84.7227 99.3503 84.7227ZM35.5938 56.1432C33.7645 56.1432 32.2804 57.6273 32.2804 59.4566V79.7929C32.2804 81.6223 33.7645 83.1064 35.5938 83.1064H99.3503C101.18 83.1064 102.664 81.6223 102.664 79.7929V59.4566C102.664 57.6273 101.18 56.1432 99.3503 56.1432H35.5938Z" fill="#283C93"/>
<path d="M90.2186 72.5357C90.2186 73.6377 89.3223 74.5341 88.2203 74.5341H46.7249C45.6229 74.5341 44.7266 73.6377 44.7266 72.5357C44.7266 71.4337 45.6229 70.5374 46.7249 70.5374H88.2276C89.3297 70.5374 90.226 71.4337 90.226 72.5357H90.2186Z" fill="#283C93"/>
<path d="M88.2198 75.3413H46.7245C45.1743 75.3413 43.918 74.085 43.918 72.5348C43.918 70.9846 45.1743 69.7283 46.7245 69.7283H88.2272C89.7774 69.7283 91.0337 70.9846 91.0337 72.5348C91.0337 74.085 89.7774 75.3413 88.2272 75.3413H88.2198ZM46.7171 71.3446C46.0633 71.3446 45.5269 71.8809 45.5269 72.5348C45.5269 73.1887 46.0633 73.725 46.7171 73.725H88.2198C88.8737 73.725 89.41 73.1887 89.41 72.5348C89.41 71.8809 88.8737 71.3446 88.2198 71.3446H46.7245H46.7171Z" fill="#283C93"/>
<path d="M86.1476 70.5374H48.7959V98.0148H86.1476V70.5374Z" fill="white"/>
<path d="M86.1481 98.8221H48.7964C48.3483 98.8221 47.9883 98.4621 47.9883 98.0139V70.5364C47.9883 70.0883 48.3483 69.7283 48.7964 69.7283H86.1481C86.5963 69.7283 86.9563 70.0883 86.9563 70.5364V98.0139C86.9563 98.4621 86.5963 98.8221 86.1481 98.8221ZM49.6046 97.2057H85.34V71.3446H49.6046V97.2057Z" fill="#283C93"/>
<path d="M57.9948 90.1174H55.1074V91.7338H57.9948V90.1174Z" fill="#00E0E3"/>
<path d="M79.8371 90.1174H61.2861V91.7338H79.8371V90.1174Z" fill="#00E0E3"/>
<path d="M57.9948 83.7964H55.1074V85.4127H57.9948V83.7964Z" fill="#00E0E3"/>
<path d="M57.9948 77.905H55.1074V79.5214H57.9948V77.905Z" fill="#00E0E3"/>
<path d="M79.8371 83.7964H61.2861V85.4127H79.8371V83.7964Z" fill="#00E0E3"/>
<path d="M79.8371 77.905H61.2861V79.5214H79.8371V77.905Z" fill="#00E0E3"/>
<path d="M98.241 62.975C98.241 64.0917 97.33 65.0028 96.2133 65.0028C95.0966 65.0028 94.1855 64.0917 94.1855 62.975C94.1855 61.8583 95.0966 60.9473 96.2133 60.9473C97.33 60.9473 98.241 61.8583 98.241 62.975Z" fill="#00E0E3"/>
<path d="M96.2129 65.8127C94.648 65.8127 93.377 64.5417 93.377 62.9768C93.377 61.4119 94.648 60.1409 96.2129 60.1409C97.7778 60.1409 99.0488 61.4119 99.0488 62.9768C99.0488 64.5417 97.7778 65.8127 96.2129 65.8127ZM96.2129 61.7572C95.5369 61.7572 94.9933 62.3082 94.9933 62.9768C94.9933 63.6453 95.5443 64.1964 96.2129 64.1964C96.8814 64.1964 97.4324 63.6453 97.4324 62.9768C97.4324 62.3082 96.8814 61.7572 96.2129 61.7572Z" fill="#00E0E3"/>
<path d="M89.366 62.975C89.366 64.0917 88.455 65.0028 87.3383 65.0028C86.2216 65.0028 85.3105 64.0917 85.3105 62.975C85.3105 61.8583 86.2216 60.9473 87.3383 60.9473C88.455 60.9473 89.366 61.8583 89.366 62.975Z" fill="#00E0E3"/>
<path d="M87.3379 65.8127C85.773 65.8127 84.502 64.5417 84.502 62.9768C84.502 61.4119 85.773 60.1409 87.3379 60.1409C88.9028 60.1409 90.1738 61.4119 90.1738 62.9768C90.1738 64.5417 88.9028 65.8127 87.3379 65.8127ZM87.3379 61.7572C86.6619 61.7572 86.1183 62.3082 86.1183 62.9768C86.1183 63.6453 86.6693 64.1964 87.3379 64.1964C88.0064 64.1964 88.5574 63.6453 88.5574 62.9768C88.5574 62.3082 88.0064 61.7572 87.3379 61.7572Z" fill="#00E0E3"/>
</svg>
