<svg width="200" height="200" viewBox="0 0 200 200" fill="none" xmlns="http://www.w3.org/2000/svg">
<rect width="200" height="200" rx="100" fill="white"/>
<path d="M77.2075 99.1521C77.2075 105.784 71.8282 111.163 65.1965 111.163C58.5648 111.163 53.1855 105.784 53.1855 99.1521C53.1855 92.5204 58.5648 87.1411 65.1965 87.1411C71.8282 87.1411 77.2075 92.5153 77.2075 99.1521Z" fill="white"/>
<path d="M65.1979 113.212C57.4421 113.212 51.1338 106.904 51.1338 99.1481C51.1338 91.3923 57.4421 85.084 65.1979 85.084C72.9537 85.084 79.262 91.3923 79.262 99.1481C79.262 106.904 72.9537 113.212 65.1979 113.212ZM65.1979 89.1903C59.7057 89.1903 55.2401 93.6559 55.2401 99.1481C55.2401 104.64 59.7057 109.106 65.1979 109.106C70.6901 109.106 75.1557 104.64 75.1557 99.1481C75.1557 93.6559 70.6901 89.1903 65.1979 89.1903Z" fill="#0068DE"/>
<path d="M81.6729 127.639C81.6729 118.538 74.2969 111.162 65.1963 111.162C56.0957 111.162 48.7197 118.538 48.7197 127.639V139.362H81.6729V127.639Z" fill="#99CCFF"/>
<path d="M81.6738 141.416H48.7206C47.5863 141.416 46.6675 140.498 46.6675 139.363V127.64C46.6675 117.42 54.9776 109.11 65.1972 109.11C75.4168 109.11 83.727 117.425 83.727 127.64V139.363C83.727 140.498 82.8082 141.416 81.6738 141.416ZM50.7738 137.31H79.6207V127.64C79.6207 119.684 73.1481 113.216 65.1972 113.216C57.2464 113.216 50.7738 119.689 50.7738 127.64V137.31Z" fill="#0068DE"/>
<path d="M146.814 99.1521C146.814 105.784 141.435 111.163 134.803 111.163C128.172 111.163 122.792 105.784 122.792 99.1521C122.792 92.5204 128.172 87.1411 134.803 87.1411C141.435 87.1411 146.814 92.5153 146.814 99.1521Z" fill="white"/>
<path d="M134.804 113.212C127.049 113.212 120.74 106.904 120.74 99.1481C120.74 91.3923 127.049 85.084 134.804 85.084C142.56 85.084 148.868 91.3923 148.868 99.1481C148.868 106.904 142.56 113.212 134.804 113.212ZM134.804 89.1903C129.312 89.1903 124.847 93.6559 124.847 99.1481C124.847 104.64 129.312 109.106 134.804 109.106C140.297 109.106 144.762 104.64 144.762 99.1481C144.762 93.6559 140.297 89.1903 134.804 89.1903Z" fill="#0068DE"/>
<path d="M151.282 127.639C151.282 118.538 143.906 111.162 134.806 111.162C125.705 111.162 118.329 118.538 118.329 127.639V139.362H151.282V127.639Z" fill="#99CCFF"/>
<path d="M151.281 141.416H118.328C117.193 141.416 116.274 140.498 116.274 139.363V127.64C116.274 117.42 124.59 109.11 134.804 109.11C145.019 109.11 153.334 117.425 153.334 127.64V139.363C153.334 140.498 152.415 141.416 151.281 141.416ZM120.381 137.31H149.228V127.64C149.228 119.684 142.755 113.216 134.804 113.216C126.853 113.216 120.381 119.689 120.381 127.64V137.31Z" fill="#0068DE"/>
<path d="M115.704 76.4721C115.704 85.1775 108.652 92.2301 99.9465 92.2301C91.2411 92.2301 84.1885 85.1775 84.1885 76.4721C84.1885 67.7667 91.2411 60.7192 99.9465 60.7192C108.652 60.7192 115.704 67.7718 115.704 76.4721Z" fill="white"/>
<path d="M99.9474 94.2844C90.1281 94.2844 82.1362 86.2925 82.1362 76.4732C82.1362 66.654 90.1281 58.6672 99.9474 58.6672C109.767 58.6672 117.759 66.654 117.759 76.4732C117.759 86.2925 109.767 94.2844 99.9474 94.2844ZM99.9474 62.7736C92.3918 62.7736 86.2425 68.9228 86.2425 76.4732C86.2425 84.0237 92.3918 90.1781 99.9474 90.1781C107.503 90.1781 113.652 84.0289 113.652 76.4732C113.652 68.9176 107.503 62.7736 99.9474 62.7736Z" fill="#0068DE"/>
<path d="M125.672 117.956C125.672 103.748 114.154 92.2297 99.9458 92.2297C85.7379 92.2297 74.2197 103.748 74.2197 117.956V139.36H125.672V117.956Z" fill="white"/>
<path d="M125.673 141.414H74.2206C73.0863 141.414 72.1675 140.495 72.1675 139.361V117.957C72.1675 102.64 84.6301 90.1777 99.9467 90.1777C115.263 90.1777 127.726 102.64 127.726 117.957V139.361C127.726 140.495 126.807 141.414 125.673 141.414ZM76.2738 137.308H123.62V117.957C123.62 104.904 113 94.284 99.9467 94.284C86.8938 94.284 76.2738 104.904 76.2738 117.957V137.308Z" fill="#0068DE"/>
<path d="M94.7769 119.25L100.29 126.19L105.807 119.25L102.379 100.007L104.73 94.4426C103.287 94.1911 101.809 94.0371 100.295 94.0371C98.7805 94.0371 97.3074 94.1911 95.865 94.4426L98.2108 100.007L94.782 119.25H94.7769Z" fill="#99CCFF"/>
<path d="M125.673 141.414H74.2206C73.0863 141.414 72.1675 140.495 72.1675 139.361V117.957C72.1675 102.64 84.6301 90.1777 99.9467 90.1777C115.263 90.1777 127.726 102.64 127.726 117.957V139.361C127.726 140.495 126.807 141.414 125.673 141.414ZM76.2738 137.308H123.62V117.957C123.62 104.904 113 94.284 99.9467 94.284C86.8938 94.284 76.2738 104.904 76.2738 117.957V137.308Z" fill="#0068DE"/>
</svg>
