<svg width="200" height="200" viewBox="0 0 200 200" fill="none" xmlns="http://www.w3.org/2000/svg">
<rect width="200" height="200" rx="100" fill="white"/>
<g clip-path="url(#clip0_638_11890)">
<path d="M126.656 60.4697H49.0386V153.385H126.656V60.4697Z" fill="#99CCFF"/>
<path d="M126.656 154.433H49.0385C48.4673 154.433 48 153.966 48 153.395V60.4697C48 59.8985 48.4673 59.4312 49.0385 59.4312H126.656C127.227 59.4312 127.695 59.8985 127.695 60.4697V153.384C127.695 153.956 127.227 154.423 126.656 154.423V154.433ZM50.077 152.356H125.618V61.5082H50.077V152.346V152.356Z" fill="#006AE3"/>
<path d="M126.656 54.2388H49.0386V147.154H126.656V54.2388Z" fill="white"/>
<path d="M126.656 148.202H49.0385C48.4673 148.202 48 147.735 48 147.164V54.2387C48 53.6675 48.4673 53.2002 49.0385 53.2002H126.656C127.227 53.2002 127.695 53.6675 127.695 54.2387V147.154C127.695 147.725 127.227 148.192 126.656 148.192V148.202ZM50.077 146.125H125.618V55.2772H50.077V146.115V146.125Z" fill="#006AE3"/>
<path d="M93.7669 50.0431L94.2342 40.7589C94.2342 37.228 91.3783 34.3721 87.8474 34.3721C84.3165 34.3721 81.4606 37.228 81.4606 40.7589L81.9279 50.0431H73.2876V61.5185H102.397V50.0431H93.7565H93.7669Z" fill="#99CCFF"/>
<path d="M102.397 62.557H73.2875C72.7163 62.557 72.249 62.0896 72.249 61.5185V50.043C72.249 49.4718 72.7163 49.0045 73.2875 49.0045H80.8271L80.4117 40.8107C80.4117 36.6671 83.7452 33.3335 87.8369 33.3335C91.9286 33.3335 95.2622 36.6671 95.2622 40.7588L94.8468 49.0045H102.386C102.958 49.0045 103.425 49.4718 103.425 50.043V61.5185C103.425 62.0896 102.958 62.557 102.386 62.557H102.397ZM74.326 60.4799H101.358V51.0815H93.7564C93.476 51.0815 93.1956 50.9673 93.0087 50.7596C92.8114 50.5519 92.7075 50.2715 92.7283 49.9911L93.1956 40.7069C93.1956 37.8094 90.7967 35.4105 87.8473 35.4105C84.898 35.4105 82.499 37.8094 82.499 40.7588L82.9664 49.9911C82.9768 50.2715 82.8833 50.5519 82.686 50.7596C82.4887 50.9673 82.2186 51.0815 81.9383 51.0815H74.3364V60.4799H74.326Z" fill="#006AE3"/>
<path d="M89.5298 41.1848C89.5298 40.2605 88.7821 39.5024 87.8474 39.5024C86.9128 39.5024 86.165 40.2502 86.165 41.1848C86.165 42.1195 86.9128 42.8672 87.8474 42.8672C88.7821 42.8672 89.5298 42.1195 89.5298 41.1848Z" fill="#006AE3"/>
<path d="M116.448 117.39H59.2782C58.7071 117.39 58.2397 116.923 58.2397 116.351C58.2397 115.78 58.7071 115.313 59.2782 115.313H116.448C117.019 115.313 117.486 115.78 117.486 116.351C117.486 116.923 117.019 117.39 116.448 117.39Z" fill="#006AE3"/>
<path d="M116.448 128.128H59.2782C58.7071 128.128 58.2397 127.66 58.2397 127.089C58.2397 126.518 58.7071 126.051 59.2782 126.051H116.448C117.019 126.051 117.486 126.518 117.486 127.089C117.486 127.66 117.019 128.128 116.448 128.128Z" fill="#006AE3"/>
<path d="M111.619 87.8758H102.812L101.182 74.8218H74.5132L72.8827 87.8758H64.0762L62.1758 101.304H113.519L111.619 87.8758Z" fill="white"/>
<path d="M113.519 102.342H62.1755C61.8743 102.342 61.594 102.207 61.3966 101.989C61.1993 101.76 61.1059 101.459 61.1474 101.158L63.0479 87.7303C63.1206 87.2214 63.5567 86.8372 64.076 86.8372H71.9686L73.4848 74.6971C73.5471 74.1778 73.9937 73.7832 74.5129 73.7832H101.182C101.701 73.7832 102.147 74.1778 102.21 74.6971L103.726 86.8372H111.619C112.138 86.8372 112.574 87.2214 112.647 87.7303L114.547 101.158C114.589 101.459 114.495 101.76 114.298 101.989C114.101 102.217 113.81 102.342 113.519 102.342ZM63.3698 100.265H112.325L110.715 88.9142H102.812C102.293 88.9142 101.846 88.5196 101.784 88.0003L100.268 75.8602H75.4372L73.921 88.0003C73.8587 88.5196 73.4121 88.9142 72.8929 88.9142H64.9899L63.3802 100.265H63.3698Z" fill="#006AE3"/>
<path d="M89.0206 79.7544H79.4976V85.8192H89.0206V79.7544Z" fill="#99CCFF"/>
<path d="M89.021 86.8577H79.498C78.9268 86.8577 78.4595 86.3904 78.4595 85.8192V79.7543C78.4595 79.1831 78.9268 78.7158 79.498 78.7158H89.021C89.5922 78.7158 90.0595 79.1831 90.0595 79.7543V85.8192C90.0595 86.3904 89.5922 86.8577 89.021 86.8577ZM80.5365 84.7807H87.9825V80.7928H80.5365V84.7807Z" fill="#0068DE"/>
<path d="M74.835 107.68C71.2314 107.68 68.2925 104.741 68.2925 101.137C68.2925 97.5337 71.2314 94.5947 74.835 94.5947C78.4386 94.5947 81.3776 97.5233 81.3776 101.137C81.3776 104.751 78.4386 107.68 74.835 107.68Z" fill="#99CCFF"/>
<path d="M74.835 108.718C70.6602 108.718 67.2539 105.322 67.2539 101.137C67.2539 96.9521 70.6498 93.5562 74.835 93.5562C79.0201 93.5562 82.416 96.9521 82.416 101.137C82.416 105.322 79.0201 108.718 74.835 108.718ZM74.835 95.6332C71.8025 95.6332 69.3309 98.1048 69.3309 101.137C69.3309 104.17 71.8025 106.641 74.835 106.641C77.8674 106.641 80.339 104.17 80.339 101.137C80.339 98.1048 77.8674 95.6332 74.835 95.6332Z" fill="#0068DE"/>
<path d="M74.8349 103.765C73.381 103.765 72.2075 102.581 72.2075 101.137C72.2075 99.6937 73.381 98.5098 74.8349 98.5098C76.2888 98.5098 77.4623 99.6937 77.4623 101.137C77.4623 102.581 76.2785 103.765 74.8349 103.765Z" fill="white"/>
<path d="M74.8349 104.803C72.8098 104.803 71.1689 103.162 71.1689 101.137C71.1689 99.112 72.8098 97.4712 74.8349 97.4712C76.8599 97.4712 78.5008 99.112 78.5008 101.137C78.5008 103.162 76.8599 104.803 74.8349 104.803ZM74.8349 99.5482C73.9521 99.5482 73.246 100.265 73.246 101.137C73.246 102.009 73.9625 102.726 74.8349 102.726C75.7072 102.726 76.4238 102.009 76.4238 101.137C76.4238 100.265 75.7072 99.5482 74.8349 99.5482Z" fill="#0068DE"/>
<path d="M100.87 107.68C97.2666 107.68 94.3276 104.741 94.3276 101.137C94.3276 97.5337 97.2666 94.5947 100.87 94.5947C104.474 94.5947 107.413 97.5233 107.413 101.137C107.413 104.751 104.474 107.68 100.87 107.68Z" fill="#99CCFF"/>
<path d="M100.87 108.718C96.6953 108.718 93.2891 105.322 93.2891 101.137C93.2891 96.9521 96.685 93.5562 100.87 93.5562C105.055 93.5562 108.451 96.9521 108.451 101.137C108.451 105.322 105.055 108.718 100.87 108.718ZM100.87 95.6332C97.8377 95.6332 95.3661 98.1048 95.3661 101.137C95.3661 104.17 97.8377 106.641 100.87 106.641C103.903 106.641 106.374 104.17 106.374 101.137C106.374 98.1048 103.903 95.6332 100.87 95.6332Z" fill="#0068DE"/>
<path d="M100.87 103.765C99.4266 103.765 98.2427 102.581 98.2427 101.137C98.2427 99.6937 99.4266 98.5098 100.87 98.5098C102.314 98.5098 103.497 99.6937 103.497 101.137C103.497 102.581 102.314 103.765 100.87 103.765Z" fill="white"/>
<path d="M100.87 104.803C98.8449 104.803 97.2041 103.162 97.2041 101.137C97.2041 99.112 98.8449 97.4712 100.87 97.4712C102.895 97.4712 104.536 99.112 104.536 101.137C104.536 103.162 102.895 104.803 100.87 104.803ZM100.87 99.5482C99.9977 99.5482 99.2811 100.265 99.2811 101.137C99.2811 102.009 99.9977 102.726 100.87 102.726C101.742 102.726 102.459 102.009 102.459 101.137C102.459 100.265 101.742 99.5482 100.87 99.5482Z" fill="#0068DE"/>
<path d="M150.78 127.225L129.823 118.106L129.803 118.138V118.106L108.846 127.225C108.846 127.225 104.899 159.262 129.803 165.628V165.576L129.823 165.628C154.727 159.273 150.78 127.225 150.78 127.225Z" fill="white"/>
<path d="M129.824 166.667C129.824 166.667 129.741 166.667 129.699 166.667C129.647 166.667 129.595 166.657 129.543 166.646C104.048 160.135 107.776 127.443 107.818 127.11C107.859 126.747 108.098 126.435 108.431 126.29L129.388 117.172C129.574 117.089 129.772 117.068 129.969 117.099C130.063 117.11 130.146 117.13 130.239 117.172L151.196 126.29C151.528 126.435 151.767 126.747 151.809 127.11C151.85 127.443 155.568 160.135 130.083 166.646C130 166.667 129.907 166.677 129.824 166.677V166.667ZM109.822 127.931C109.469 132.22 108.161 158.826 129.813 164.559C151.487 158.826 150.158 132.22 149.804 127.931L129.813 119.228L109.822 127.931Z" fill="#006AE3"/>
<path d="M129.813 161.287C121.578 158.951 116.23 152.896 113.903 143.269C112.564 137.703 112.636 132.49 112.771 130.008L129.813 122.593L146.845 130.008C146.98 132.51 147.052 137.817 145.681 143.404C143.345 152.948 138.007 158.961 129.813 161.277V161.287Z" fill="#B5FDFF"/>
<path d="M129.813 162.368L129.533 162.284C120.913 159.834 115.316 153.52 112.896 143.508C111.536 137.869 111.587 132.594 111.743 129.945L111.785 129.312L129.824 121.461L147.862 129.312L147.894 129.956C148.039 132.646 148.091 138.004 146.699 143.654C144.269 153.582 138.682 159.844 130.104 162.284L129.824 162.368H129.813ZM113.779 130.714C113.664 133.393 113.716 138.067 114.911 143.031C117.112 152.149 122.118 157.923 129.813 160.207C137.457 157.933 142.462 152.201 144.674 143.166C145.9 138.191 145.952 133.435 145.837 130.714L129.813 123.735L113.779 130.714Z" fill="#0068DE"/>
<path d="M128.962 147.081C128.713 147.081 128.463 146.987 128.266 146.811L121.547 140.725C121.121 140.341 121.09 139.686 121.474 139.261C121.858 138.835 122.513 138.804 122.939 139.188L128.993 144.671L139.004 136.425C139.451 136.062 140.105 136.124 140.468 136.571C140.832 137.017 140.77 137.672 140.323 138.035L129.616 146.852C129.429 147.008 129.19 147.091 128.951 147.091L128.962 147.081Z" fill="#006AE3"/>
</g>
<defs>
<clipPath id="clip0_638_11890">
<rect width="104.016" height="133.333" fill="white" transform="translate(48 33.3335)"/>
</clipPath>
</defs>
</svg>
