<svg width="184" height="200" viewBox="0 0 184 200" fill="none" xmlns="http://www.w3.org/2000/svg">
<path d="M58.697 0.351885L3.7657 5.48639C1.68596 5.68079 0.157589 7.52434 0.351985 9.60408L9.70917 109.712C9.90357 111.791 11.7471 113.32 13.8269 113.125L68.7582 107.991C70.8379 107.796 72.3663 105.953 72.1719 103.873L62.8147 3.7656C62.6203 1.68586 60.7768 0.157489 58.697 0.351885Z" fill="#2A2628"/>
<path d="M57.7872 5.71846L5.64478 10.5923L11.4833 73.055L63.6256 68.1812L57.7872 5.71846Z" fill="white"/>
<path d="M63.9349 71.4587L11.7925 76.3325L11.897 77.4506L64.0394 72.5767L63.9349 71.4587Z" fill="white"/>
<path d="M25.4968 80.9801L12.3445 82.2095L12.6603 85.5882L25.8126 84.3588L25.4968 80.9801Z" fill="white"/>
<path d="M64.4826 77.3375L51.3303 78.5669L51.4882 80.2562L64.6405 79.0269L64.4826 77.3375Z" fill="white"/>
<path d="M64.6999 79.7477L51.5476 80.9771L51.7055 82.6664L64.8578 81.437L64.6999 79.7477Z" fill="white"/>
<path d="M138.364 197.61H62.8201C59.803 197.61 57.6436 194.704 58.5074 191.816L97.2232 62.8543C97.797 60.9478 99.5492 59.646 101.536 59.646H177.08C180.097 59.646 182.256 62.552 181.392 65.4395L142.676 194.402C142.103 196.308 140.35 197.61 138.364 197.61Z" fill="#2A2628"/>
<path d="M139.134 200H63.5907C59.2841 200 57.5134 195.249 58.3771 192.362L97.9937 65.2445C98.5675 63.338 100.32 62.0362 102.306 62.0362L177.807 59.7163C182.237 59.7163 183.033 64.9422 182.169 67.8297L143.453 196.792C142.879 198.698 141.127 200 139.14 200H139.134Z" fill="#2A2628"/>
<path d="M63.8188 192.36L102.084 64.8911H176.079L137.808 192.36H63.8188Z" fill="#FCFCFC"/>
<path d="M90.4978 192.36L78.5098 134.882L144.163 135.314L148.914 155.384L137.808 192.36H90.4978Z" fill="#2962F6"/>
<path d="M104.608 129.397C104.608 129.397 92.5895 123.011 78.3866 128.657C64.1836 134.308 54.6265 142.267 54.6265 142.267L73.4754 163.683L93.8667 153.854L104.602 129.391L104.608 129.397Z" fill="#2962F6"/>
<path d="M73.4751 163.688C73.4751 163.688 62.7704 172.48 53.275 169.377C43.7796 166.273 41.176 154.483 33.075 125.762L52.8246 116.156L73.4813 163.682L73.4751 163.688Z" fill="#F7B49F"/>
<path d="M55.039 120.092L57.3404 113.361C57.3404 113.361 63.0105 101.91 57.7538 101.212C57.7538 101.212 54.7861 101.601 53.6261 104.131C52.4662 106.66 50.5536 109.714 50.5536 109.714L29.2367 111.701C28.9221 113.799 31.3036 121.351 33.0744 125.762L47.9684 131.019L55.039 120.092Z" fill="#F7B49F"/>
<path d="M42.5331 117.506C42.5331 117.506 42.5023 117.506 42.49 117.506C42.3234 117.481 42.2061 117.321 42.2308 117.154C42.8478 113.051 50.1159 109.578 50.4244 109.436C50.5786 109.362 50.7637 109.43 50.8378 109.584C50.9118 109.738 50.8439 109.923 50.6897 109.997C50.6156 110.034 43.4093 113.477 42.8416 117.253C42.817 117.407 42.6874 117.518 42.5393 117.518L42.5331 117.506Z" fill="#2A2628"/>
<path d="M102.4 129.397L118.423 129.082C118.423 129.082 128.202 120.913 144.533 125.43L156.713 129.397L148.914 155.384L110.661 152.182L99.0246 145.007L95.8965 131.019L102.4 129.397Z" fill="#2962F6"/>
<path d="M123.043 113.17C124.814 109.949 123.574 104.365 120.754 100.836C118.613 98.1585 114.455 97.2701 114.455 97.2701C112.092 96.0423 108.557 98.0906 106.897 100.114C106.891 100.114 104.238 98.8681 102.035 101.873C99.8263 104.884 99.3512 108.777 100.295 110.079L101.696 115.249L117.009 118.753C117.009 118.753 117.324 118.346 117.799 117.705L117.688 118.211C117.688 118.211 120.557 117.692 123.05 113.17H123.043Z" fill="#2A2628"/>
<path d="M110.019 137.504H108.983C106.607 137.504 104.689 135.573 104.695 133.198C104.719 128.015 104.608 121.845 104.608 121.845L119.262 113.146C118.632 116.403 118.423 123.461 118.429 129.082C118.429 133.734 114.671 137.504 110.019 137.504Z" fill="#F7B49F"/>
<path d="M118.132 115.201L113.937 123.284C111.901 125.036 109.34 125.906 106.73 125.345C102.066 124.339 100.098 120.798 100.03 116.016C100.03 115.794 100.03 115.566 100.03 115.337C100.042 114.572 100.098 113.789 100.203 112.974C100.203 112.925 100.215 112.882 100.221 112.832C100.221 112.801 100.227 112.771 100.234 112.74C101.054 106.57 104.114 101.899 109.556 102.572C116.368 103.423 118.91 108.908 118.132 115.195V115.201Z" fill="#F7B49F"/>
<path d="M108.539 125.849C106.509 125.849 104.966 125.128 104.936 125.115C104.781 125.041 104.72 124.856 104.794 124.702C104.868 124.548 105.053 124.486 105.207 124.56C105.25 124.578 109.637 126.621 113.16 123.505C113.29 123.394 113.481 123.406 113.598 123.53C113.709 123.659 113.697 123.85 113.573 123.968C111.92 125.43 110.094 125.849 108.545 125.849H108.539Z" fill="#2A2628"/>
<path d="M116.041 117.681C116.331 117.984 116.688 118.218 117.096 118.36C118.731 118.934 120.606 117.817 121.291 115.861C121.976 113.912 121.205 111.863 119.57 111.296C118.712 110.993 117.78 111.16 116.997 111.672C116.997 111.672 116.189 112.252 115.584 113.683L116.041 117.681Z" fill="#F7B49F"/>
<path d="M117.695 115.67C117.695 115.67 117.682 115.67 117.67 115.67C117.497 115.658 117.374 115.51 117.386 115.343C117.423 114.788 117.627 114.343 117.991 114.029C118.614 113.492 119.478 113.554 119.515 113.56C119.682 113.572 119.811 113.72 119.799 113.893C119.786 114.066 119.632 114.189 119.466 114.177C119.466 114.177 118.818 114.134 118.386 114.504C118.151 114.707 118.022 115.004 117.997 115.386C117.985 115.547 117.849 115.67 117.689 115.67H117.695Z" fill="#2A2628"/>
<path d="M104.62 115.94C103.689 115.94 103.133 115.638 103.109 115.625C102.553 115.243 102.492 114.86 102.529 114.607C102.677 113.639 104.589 112.972 104.972 112.855C105.132 112.806 105.305 112.892 105.361 113.053C105.41 113.213 105.324 113.386 105.163 113.441C104.386 113.688 103.207 114.262 103.14 114.7C103.115 114.848 103.288 115.002 103.436 115.107C103.436 115.107 103.942 115.354 104.775 115.323C104.941 115.323 105.089 115.447 105.095 115.619C105.102 115.792 104.972 115.934 104.799 115.94C104.738 115.94 104.676 115.94 104.62 115.94Z" fill="#D86C6C"/>
<path d="M113.697 114.83C113.697 115.743 112.956 116.484 112.043 116.484C111.13 116.484 110.39 115.743 110.39 114.83C110.39 113.917 111.13 113.177 112.043 113.177C112.956 113.177 113.697 113.917 113.697 114.83Z" fill="#E88585"/>
<path d="M101.992 114.393C101.992 115.306 101.252 116.047 100.339 116.047C100.234 116.047 100.129 116.041 100.024 116.016C100.024 115.794 100.024 115.566 100.024 115.337C100.037 114.572 100.092 113.789 100.197 112.974C100.197 112.925 100.209 112.882 100.215 112.832C100.215 112.801 100.222 112.771 100.228 112.74C100.265 112.74 100.302 112.74 100.333 112.74C101.246 112.74 101.986 113.48 101.986 114.393H101.992Z" fill="#E88585"/>
<path d="M109.457 116.637C107.563 116.637 106.027 115.1 106.027 113.206C106.027 111.312 107.563 109.776 109.457 109.776C111.351 109.776 112.888 111.312 112.888 113.206C112.888 115.1 111.351 116.637 109.457 116.637ZM109.457 110.393C107.909 110.393 106.644 111.658 106.644 113.206C106.644 114.755 107.909 116.02 109.457 116.02C111.006 116.02 112.271 114.755 112.271 113.206C112.271 111.658 111.006 110.393 109.457 110.393Z" fill="#2A2628"/>
<path d="M101.011 115.331C99.1173 115.331 97.5811 113.794 97.5811 111.9C97.5811 110.006 99.1173 108.47 101.011 108.47C102.906 108.47 104.442 110.006 104.442 111.9C104.442 113.794 102.906 115.331 101.011 115.331ZM101.011 109.087C99.4629 109.087 98.198 110.352 98.198 111.9C98.198 113.449 99.4629 114.714 101.011 114.714C102.56 114.714 103.825 113.449 103.825 111.9C103.825 110.352 102.56 109.087 101.011 109.087Z" fill="#2A2628"/>
<path d="M106.706 112.047C106.706 112.047 106.657 112.047 106.638 112.041L104.065 111.449C103.899 111.412 103.794 111.245 103.831 111.079C103.868 110.912 104.035 110.807 104.201 110.844L106.774 111.437C106.941 111.474 107.045 111.64 107.008 111.807C106.978 111.949 106.848 112.047 106.706 112.047Z" fill="#2A2628"/>
<path d="M112.543 113.047C112.413 113.047 112.296 112.967 112.253 112.837C112.197 112.677 112.284 112.504 112.45 112.449L118.059 110.573C118.219 110.517 118.392 110.604 118.447 110.77C118.503 110.937 118.417 111.104 118.25 111.159L112.642 113.035C112.611 113.047 112.574 113.053 112.543 113.053V113.047Z" fill="#2A2628"/>
<path d="M111.327 109.587C111.284 109.587 111.241 109.581 111.204 109.562C109.464 108.779 108.452 109.494 108.415 109.525C108.279 109.624 108.088 109.599 107.983 109.463C107.884 109.328 107.909 109.136 108.045 109.032C108.1 108.995 109.371 108.057 111.457 108.995C111.611 109.062 111.679 109.248 111.611 109.402C111.562 109.519 111.444 109.587 111.327 109.587Z" fill="#2A2628"/>
<path d="M103.954 109.086C103.806 109.086 103.677 108.981 103.652 108.833C103.634 108.734 103.448 107.895 102.313 107.914C102.159 107.914 101.999 107.784 101.999 107.611C101.999 107.439 102.128 107.297 102.301 107.297C103.64 107.266 104.17 108.21 104.263 108.722C104.294 108.888 104.183 109.049 104.01 109.08C103.991 109.08 103.973 109.08 103.954 109.08V109.086Z" fill="#2A2628"/>
<path d="M108.742 113.258C109.028 113.258 109.26 113.026 109.26 112.739C109.26 112.453 109.028 112.221 108.742 112.221C108.455 112.221 108.223 112.453 108.223 112.739C108.223 113.026 108.455 113.258 108.742 113.258Z" fill="#2A2628"/>
<path d="M108.742 113.559C108.285 113.559 107.915 113.189 107.915 112.732C107.915 112.275 108.285 111.905 108.742 111.905C109.199 111.905 109.569 112.275 109.569 112.732C109.569 113.189 109.199 113.559 108.742 113.559ZM108.742 112.522C108.625 112.522 108.532 112.615 108.532 112.732C108.532 112.849 108.625 112.942 108.742 112.942C108.859 112.942 108.952 112.849 108.952 112.732C108.952 112.615 108.859 112.522 108.742 112.522Z" fill="#2A2628"/>
<path d="M101.992 112.182C102.278 112.182 102.51 111.95 102.51 111.663C102.51 111.377 102.278 111.145 101.992 111.145C101.706 111.145 101.474 111.377 101.474 111.663C101.474 111.95 101.706 112.182 101.992 112.182Z" fill="#2A2628"/>
<path d="M101.992 112.49C101.535 112.49 101.165 112.12 101.165 111.664C101.165 111.207 101.535 110.837 101.992 110.837C102.448 110.837 102.819 111.207 102.819 111.664C102.819 112.12 102.448 112.49 101.992 112.49ZM101.992 111.454C101.875 111.454 101.782 111.546 101.782 111.664C101.782 111.781 101.875 111.873 101.992 111.873C102.109 111.873 102.202 111.781 102.202 111.664C102.202 111.546 102.109 111.454 101.992 111.454Z" fill="#2A2628"/>
<path d="M106.558 121.091C106.348 121.091 106.139 121.054 105.929 120.98C104.368 120.418 103.344 117.907 103.301 117.802L103.14 117.407L108.674 117.037L108.761 117.228C108.761 117.228 109.791 119.567 107.459 120.844C107.163 121.011 106.854 121.091 106.546 121.091H106.558ZM104.053 117.963C104.386 118.654 105.17 120.054 106.139 120.4C106.49 120.523 106.83 120.492 107.175 120.307C108.662 119.493 108.434 118.179 108.28 117.685L104.053 117.969V117.963Z" fill="#D86C6C"/>
<path d="M103.954 102.874C103.954 102.874 104.133 105.903 105.713 105.928C108.094 105.965 109.593 105.231 110.056 106.39C110.519 107.55 113.795 109.173 115.35 108.192C116.905 107.211 117.306 111.147 117.306 111.147L120.773 109.747L115.35 102.51L111.333 100.659L106.712 101.177L103.96 102.874H103.954Z" fill="#2A2628"/>
<path d="M156.712 129.395L161.994 131.246L152.93 156.468L138.11 150.965L156.712 129.395Z" fill="#2962F6"/>
<path d="M152.931 156.468L155.997 157.733L134.193 174.694L141.751 192.358C141.751 192.358 182.898 175.49 183.515 153.186C183.904 139.032 161.988 131.24 161.988 131.24L152.925 156.462L152.931 156.468Z" fill="#F7B49F"/>
<path d="M139.122 186.161L134.198 174.698C134.198 174.698 131.218 175.802 126.178 175.975C121.013 174.803 120.125 178.708 122.84 179.948C123.901 180.436 124.851 180.436 125.814 180.923C124.111 181.916 121.803 182.916 118.947 183.36C114.109 184.107 114.27 187.537 116.67 188.179C114.887 189.641 115.788 191.831 117.984 191.942C118.539 191.973 119.416 191.875 120.471 191.696C119.952 192.979 120.878 194.324 122.593 194.417C123.124 194.447 123.957 194.355 124.95 194.194C125.012 195.169 125.869 196.015 127.208 196.082C130.188 196.237 141.75 192.356 141.75 192.356L139.116 186.155L139.122 186.161Z" fill="#F7B49F"/>
<path d="M116.67 188.492C116.516 188.492 116.387 188.381 116.368 188.227C116.343 188.06 116.461 187.9 116.627 187.875C116.695 187.863 123.741 186.851 126.777 185.123C126.925 185.037 127.116 185.093 127.196 185.241C127.282 185.389 127.227 185.58 127.079 185.66C123.938 187.443 117.004 188.443 116.707 188.486C116.695 188.486 116.677 188.486 116.664 188.486L116.67 188.492Z" fill="#2A2628"/>
<path d="M120.471 192.01C120.322 192.01 120.193 191.905 120.168 191.757C120.137 191.59 120.248 191.43 120.415 191.399C120.464 191.393 125.443 190.492 128.245 188.968C128.393 188.888 128.584 188.943 128.664 189.091C128.744 189.239 128.689 189.431 128.541 189.511C125.653 191.078 120.736 191.966 120.526 192.003C120.508 192.003 120.489 192.003 120.471 192.003V192.01Z" fill="#2A2628"/>
<path d="M124.95 194.508C124.814 194.508 124.684 194.415 124.654 194.273C124.61 194.107 124.715 193.94 124.876 193.897C126.326 193.539 130.287 192.459 131.15 191.83C131.286 191.731 131.484 191.756 131.582 191.898C131.681 192.034 131.656 192.231 131.514 192.33C130.379 193.169 125.24 194.446 125.024 194.502C124.999 194.502 124.974 194.508 124.95 194.508Z" fill="#2A2628"/>
<path d="M156.003 158.048C155.923 158.048 155.849 158.018 155.787 157.962C155.664 157.845 155.664 157.647 155.787 157.524C155.849 157.462 161.778 151.527 170.552 150.139C170.712 150.108 170.879 150.225 170.903 150.398C170.928 150.564 170.817 150.725 170.644 150.75C162.068 152.107 156.281 157.9 156.225 157.956C156.164 158.018 156.084 158.048 156.003 158.048Z" fill="#2A2628"/>
<path d="M141.319 62.6341H129.097C128.924 62.6341 128.788 62.4983 128.788 62.3256C128.788 62.1528 128.924 62.0171 129.097 62.0171H141.319C141.492 62.0171 141.628 62.1528 141.628 62.3256C141.628 62.4983 141.492 62.6341 141.319 62.6341Z" fill="#FCFCFC"/>
<path d="M144.318 62.6341H142.843C142.67 62.6341 142.534 62.4983 142.534 62.3256C142.534 62.1528 142.67 62.0171 142.843 62.0171H144.318C144.49 62.0171 144.626 62.1528 144.626 62.3256C144.626 62.4983 144.49 62.6341 144.318 62.6341Z" fill="#FCFCFC"/>
</svg>
