<svg width="171" height="200" viewBox="0 0 171 200" fill="none" xmlns="http://www.w3.org/2000/svg">
<path d="M165.303 0.398438H98.7343C96.2241 0.398438 94.1892 2.43334 94.1892 4.94353V135.971C94.1892 138.481 96.2241 140.516 98.7343 140.516H165.303C167.813 140.516 169.848 138.481 169.848 135.971V4.94353C169.848 2.43334 167.813 0.398438 165.303 0.398438Z" fill="#2A2628"/>
<path d="M165.303 140.914H98.7343C96.0121 140.914 93.7913 138.693 93.7913 135.971V4.94308C93.7913 2.22081 96.0121 0 98.7343 0H165.303C168.025 0 170.246 2.22081 170.246 4.94308V135.971C170.246 138.693 168.025 140.914 165.303 140.914ZM98.7343 0.795987C96.4499 0.795987 94.5872 2.6586 94.5872 4.94308V135.971C94.5872 138.255 96.4499 140.118 98.7343 140.118H165.303C167.587 140.118 169.45 138.255 169.45 135.971V4.94308C169.45 2.6586 167.587 0.795987 165.303 0.795987H98.7343Z" fill="#2A2628"/>
<path d="M165.422 7.29883H98.5991V136.902H165.422V7.29883Z" fill="#FCFCFC"/>
<path d="M137.785 4.25009H122.678C122.455 4.25009 122.28 4.07497 122.28 3.8521C122.28 3.62922 122.455 3.4541 122.678 3.4541H137.785C138.008 3.4541 138.183 3.62922 138.183 3.8521C138.183 4.07497 138.008 4.25009 137.785 4.25009Z" fill="#FCFCFC"/>
<path d="M141.049 4.25009H139.688C139.465 4.25009 139.29 4.07497 139.29 3.8521C139.29 3.62922 139.465 3.4541 139.688 3.4541H141.049C141.272 3.4541 141.447 3.62922 141.447 3.8521C141.447 4.07497 141.272 4.25009 141.049 4.25009Z" fill="#FCFCFC"/>
<path d="M73.3106 149.176L94.6669 118.896L113.317 134.036C113.317 134.036 94.3963 181.612 77.9034 188.37C61.4106 195.128 73.3106 149.168 73.3106 149.168V149.176Z" fill="#F7B49F"/>
<path d="M86.4522 189.223H27.7163V161.363L13.7388 148.843C14.1049 147.959 14.479 147.075 14.8532 146.2C15.3865 144.966 15.9277 143.74 16.4849 142.538C22.5424 129.397 30.0326 118.125 38.8283 114.201L46.1912 116.159C56.2525 116.159 65.5257 121.795 70.031 130.798C70.0708 130.885 70.1186 130.957 70.1584 131.044C70.7235 132.198 71.3046 133.408 71.8936 134.69C74.1383 139.577 76.4865 145.468 78.6834 152.409C79.0575 153.587 79.4237 154.797 79.7898 156.03C82.5121 165.343 84.916 176.376 86.4522 189.223Z" fill="#2962F6"/>
<path d="M63.5916 182.623C62.4374 184.82 61.0922 187.009 59.739 189.222H56.0615C57.9242 186.118 59.8425 183.053 61.3867 179.949C62.4613 177.8 63.3528 175.563 63.91 173.223C64.3557 171.392 64.9846 168.781 64.1647 166.974C63.3209 165.112 60.5827 165.884 59.0863 166.29C56.6426 166.958 54.2706 167.874 51.8508 168.622C47.9743 169.816 40.9855 171.71 39.1946 166.465C38.4463 164.276 38.9717 161.729 39.2582 159.508C39.5926 156.961 40.1418 154.453 40.5079 151.922C40.7865 150.004 40.9139 147.719 39.5448 146.167C38.3349 144.798 36.3449 144.32 34.5938 144.145C29.993 143.676 25.1454 144.145 20.6083 144.933C18.6661 145.268 16.7477 145.69 14.8533 146.199C15.3866 144.965 15.9279 143.739 16.485 142.537C18.9367 141.98 21.4202 141.558 23.9196 141.272C26.419 140.977 28.9422 140.834 31.4576 140.834C33.6147 140.834 35.8435 140.922 37.913 141.582C39.9508 142.235 41.8452 143.477 42.872 145.411C44.0342 147.592 43.9625 150.067 43.6282 152.447C43.2621 155.066 42.673 157.645 42.3467 160.272C42.1954 161.522 42.0124 162.787 42.0203 164.045C42.0283 164.897 42.1238 165.892 42.9198 166.393C43.7476 166.911 44.8859 166.815 45.8092 166.727C47.0987 166.6 48.3723 166.298 49.622 165.955C52.1771 165.255 54.6606 164.284 57.1998 163.52C59.3649 162.875 61.8882 162.166 64.109 162.97C66.489 163.83 67.5476 166.043 67.6591 168.447C67.8979 173.366 65.8283 178.357 63.5916 182.623Z" fill="#FCFCFC"/>
<path d="M79.7899 156.03C77.9272 155.528 76.0965 154.955 74.3135 154.215C70.5484 152.639 66.7436 150.155 65.0641 146.279C64.1487 144.178 64.0611 141.901 64.9288 139.768C65.7964 137.627 67.3247 135.931 68.5744 134.021C69.1873 133.082 69.7206 132.087 70.1584 131.052C70.7236 132.198 71.3046 133.408 71.8937 134.689C71.7981 134.865 71.6947 135.04 71.5832 135.215C70.437 137.069 68.845 138.701 67.9615 140.715C67.1655 142.538 67.4759 144.369 68.5107 146.024C70.5564 149.296 74.4806 151.063 78.0148 152.201C78.2377 152.273 78.4606 152.344 78.6834 152.408C79.0576 153.586 79.4237 154.796 79.7899 156.03Z" fill="#FCFCFC"/>
<path d="M13.7387 148.842C13.7387 148.842 5.44455 173.016 0 200H25.2965L27.7083 187.161L30.2794 163.671L13.7387 148.842Z" fill="#F7B49F"/>
<path d="M55.9023 78.3818C55.9023 78.3818 67.2531 83.1657 61.7051 92.431C56.9769 100.319 55.9023 78.3818 55.9023 78.3818Z" fill="#2A2628"/>
<path d="M52.2486 89.3414C52.2486 89.3414 50.3701 77.6563 39.5049 79.0651C28.6396 80.474 28.9341 89.3413 29.6505 93.1143C30.3669 96.8873 31.4415 105.635 20.5126 108.748C9.58369 111.86 10.7538 119.716 13.6273 123.991C16.5008 128.265 17.9654 138.581 8.50911 141.359C-0.947222 144.129 2.11733 159.253 17.9097 158.242C33.7021 157.231 35.0234 142.346 31.537 128.066C30.144 122.375 35.31 119.374 37.7298 116.325C40.1496 113.277 42.5376 105.15 43.0629 100.111C43.5883 95.0725 52.2407 89.3573 52.2407 89.3573L52.2486 89.3414Z" fill="#2A2628"/>
<path d="M59.8744 84.0409C59.8744 84.0409 59.3649 75.5556 45.3317 76.6302C31.2984 77.7048 30.4069 95.2961 36.1539 102.739C42.1477 110.507 43.3099 104.896 43.3099 104.896L59.8744 84.0409Z" fill="#2A2628"/>
<path d="M49.789 127.453L49.5343 127.43C42.9196 126.745 38.1278 120.815 38.8282 114.2C39.6799 106.113 40.3565 97.0945 39.9983 92.9951L56.8574 105.524C56.8574 105.524 55.6554 115.601 54.9231 123.267C54.6764 125.846 52.3759 127.724 49.7969 127.453H49.789Z" fill="#F7B49F"/>
<path d="M41.1208 95.6619L45.2361 106.105C47.5047 108.517 50.5374 109.902 53.8089 109.552C59.6594 108.915 62.517 104.824 63.2175 98.9652C63.2493 98.6946 63.2811 98.416 63.305 98.1374C63.3846 97.1981 63.4165 96.235 63.3926 95.2241C63.3926 95.1684 63.3926 95.1047 63.3846 95.049C63.3846 95.0092 63.3846 94.9694 63.3846 94.9296C63.1697 87.2562 59.9778 81.9629 53.2199 82.0982C44.7665 82.2734 40.9776 87.8612 41.1288 95.6698L41.1208 95.6619Z" fill="#F7B49F"/>
<path d="M42.9992 92.3272C42.9992 92.3272 44.7424 84.2798 50.2825 82.4012L49.7173 79.7188L42.0042 81.5734L39.7197 87.7503L40.9376 91.8496L43.0072 92.3192L42.9992 92.3272Z" fill="#2A2628"/>
<path d="M59.2613 101.72C57.6773 101.72 55.7351 101.186 54.963 99.2201C54.8834 99.0132 54.9869 98.7823 55.1859 98.7027C55.3928 98.6231 55.6236 98.7187 55.7032 98.9256C56.7619 101.624 60.4234 100.812 60.5747 100.78C60.7896 100.733 61.0045 100.86 61.0523 101.075C61.1 101.29 60.9727 101.505 60.7578 101.552C60.3518 101.648 59.8265 101.72 59.2613 101.72Z" fill="#D86C6C"/>
<path d="M55.2655 109.568C53.7611 109.568 50.0518 109.154 46.7007 105.508C46.5494 105.349 46.5653 105.094 46.7245 104.943C46.8837 104.792 47.1384 104.808 47.2897 104.967C51.2378 109.265 55.8068 108.748 55.8545 108.74C56.0774 108.716 56.2684 108.867 56.3003 109.082C56.3241 109.297 56.1729 109.496 55.958 109.528C55.9182 109.528 55.6714 109.56 55.2734 109.56L55.2655 109.568Z" fill="#2A2628"/>
<path d="M60.5907 94.3328C60.6384 94.9616 60.32 95.4949 59.8743 95.5268C59.4285 95.5586 59.0305 95.081 58.9828 94.4601C58.935 93.8313 59.2534 93.298 59.6992 93.2662C60.1449 93.2343 60.5429 93.7119 60.5907 94.3328Z" fill="#2A2628"/>
<path d="M59.8264 95.9245C59.1816 95.9245 58.6483 95.3116 58.5846 94.4838C58.521 93.6241 58.9906 92.9157 59.6672 92.86C60.3278 92.8122 60.9248 93.441 60.9885 94.2928C61.0522 95.1524 60.5826 95.8608 59.906 95.9166C59.8821 95.9166 59.8502 95.9166 59.8264 95.9166V95.9245ZM59.7388 93.656C59.7388 93.656 59.7309 93.656 59.7229 93.656C59.5319 93.6719 59.3408 94.0062 59.3727 94.4201C59.4045 94.842 59.6672 95.1365 59.8423 95.1206C60.0333 95.1047 60.2244 94.7703 60.1925 94.3564C60.1607 93.9425 59.9298 93.656 59.7388 93.656Z" fill="#2A2628"/>
<path d="M43.3576 98.966C42.9596 99.3003 42.4979 99.5391 41.9806 99.6665C39.903 100.16 37.7459 98.5521 37.1569 96.0686C36.5678 93.5931 37.7777 91.1813 39.8473 90.6878C40.9378 90.4251 42.0522 90.7514 42.9517 91.4758C42.9517 91.4758 43.867 92.2877 44.4242 94.1264L43.3576 98.966Z" fill="#F7B49F"/>
<path d="M41.6301 96.3148C41.6301 96.3148 41.6221 96.3148 41.6142 96.3148C41.3913 96.3148 41.2241 96.1237 41.2321 95.9009C41.248 95.4312 41.1286 95.0492 40.8739 94.7785C40.4043 94.277 39.6163 94.2452 39.6083 94.2452C39.3854 94.2452 39.2183 94.0542 39.2183 93.8393C39.2183 93.6243 39.3854 93.4731 39.6242 93.4492C39.672 93.4492 40.7466 93.4811 41.447 94.2293C41.853 94.6591 42.052 95.2322 42.0281 95.9247C42.0281 96.1397 41.845 96.3068 41.6301 96.3068V96.3148Z" fill="#2A2628"/>
<path d="M58.0037 89.5006C58.0037 89.8429 58.6245 90.1374 59.3966 90.1454C60.1687 90.1533 60.8055 89.8827 60.8135 89.5404C60.8135 89.1982 60.1926 88.9036 59.4205 88.8957C58.6484 88.8877 58.0116 89.1584 58.0037 89.5006Z" fill="#2A2628"/>
<path d="M53.2198 94.9691C53.1004 96.0915 53.9203 97.0944 55.0426 97.2138C56.165 97.3332 57.1679 96.5134 57.2873 95.391C57.4067 94.2687 56.5868 93.2657 55.4645 93.1463C54.3421 93.0269 53.3392 93.8468 53.2198 94.9691Z" fill="#E88585"/>
<path d="M32.5239 81.9551C32.5239 81.9551 39.839 72.841 52.9251 77.1633L39.7197 83.173L32.5239 81.9551Z" fill="#2A2628"/>
<path d="M64.4272 96.6253C64.4272 97.5646 63.671 98.3287 62.7397 98.3287C61.8084 98.3287 61.0522 97.5646 61.0522 96.6253C61.0522 95.686 61.8084 94.9219 62.7397 94.9219C63.671 94.9219 64.4272 95.686 64.4272 96.6253Z" fill="#F7B49F"/>
<path d="M42.9993 92.3268C42.9993 92.3268 53.5541 94.468 55.3371 89.7557C57.8365 83.1172 60.1051 83.1729 60.1051 83.1729L54.7242 79.7263L46.9952 79.583L43.5963 82.0904L43.0152 87.3359L41.6382 89.5169L42.9595 91.4751L43.0073 92.3188L42.9993 92.3268Z" fill="#2A2628"/>
<path d="M33.6384 83.165C40.659 83.165 46.3504 77.4737 46.3504 70.4531C46.3504 63.4325 40.659 57.7412 33.6384 57.7412C26.6178 57.7412 20.9265 63.4325 20.9265 70.4531C20.9265 77.4737 26.6178 83.165 33.6384 83.165Z" fill="#2A2628"/>
<path d="M142.299 83.3398H117.018L109.432 59.7627H149.884L142.299 83.3398Z" fill="#FCE147"/>
<path d="M142.299 83.7379H117.018C116.795 83.7379 116.62 83.5628 116.62 83.3399C116.62 83.117 116.795 82.9419 117.018 82.9419H142.012L152.368 51.9064C152.424 51.7472 152.575 51.6357 152.742 51.6357H159.898C160.121 51.6357 160.296 51.8109 160.296 52.0337C160.296 52.2566 160.121 52.4317 159.898 52.4317H153.029L142.673 83.4673C142.617 83.6265 142.466 83.7379 142.299 83.7379Z" fill="#2A2628"/>
<path d="M144.153 77.3946H115.339C115.116 77.3946 114.941 77.2195 114.941 76.9966C114.941 76.7738 115.116 76.5986 115.339 76.5986H144.153C144.376 76.5986 144.551 76.7738 144.551 76.9966C144.551 77.2195 144.376 77.3946 144.153 77.3946Z" fill="#2A2628"/>
<path d="M145.944 71.4884H113.078C112.855 71.4884 112.68 71.3133 112.68 71.0904C112.68 70.8675 112.855 70.6924 113.078 70.6924H145.944C146.167 70.6924 146.342 70.8675 146.342 71.0904C146.342 71.3133 146.167 71.4884 145.944 71.4884Z" fill="#2A2628"/>
<path d="M148.197 65.5821H111.303C111.08 65.5821 110.905 65.407 110.905 65.1841C110.905 64.9613 111.08 64.7861 111.303 64.7861H148.197C148.42 64.7861 148.595 64.9613 148.595 65.1841C148.595 65.407 148.42 65.5821 148.197 65.5821Z" fill="#2A2628"/>
<path d="M136.194 83.7386C136.194 83.7386 136.154 83.7386 136.138 83.7386C135.923 83.7067 135.772 83.5077 135.804 83.2848L139.298 59.7077C139.33 59.4928 139.537 59.3415 139.752 59.3734C139.967 59.4052 140.118 59.6042 140.086 59.8271L136.592 83.4042C136.56 83.6032 136.393 83.7465 136.202 83.7465L136.194 83.7386Z" fill="#2A2628"/>
<path d="M122.829 83.7387C122.638 83.7387 122.463 83.5954 122.439 83.3964L118.944 59.8193C118.913 59.6044 119.064 59.3974 119.279 59.3656C119.494 59.3337 119.701 59.485 119.732 59.6999L123.227 83.277C123.259 83.4919 123.107 83.6989 122.893 83.7307C122.877 83.7307 122.853 83.7307 122.837 83.7307L122.829 83.7387Z" fill="#2A2628"/>
<path d="M129.515 83.7384C129.292 83.7384 129.117 83.5633 129.117 83.3404V59.7632C129.117 59.5404 129.292 59.3652 129.515 59.3652C129.738 59.3652 129.913 59.5404 129.913 59.7632V83.3404C129.913 83.5633 129.738 83.7384 129.515 83.7384Z" fill="#2A2628"/>
<path d="M117.018 90.1144C115.036 90.1144 113.428 88.5065 113.428 86.5245C113.428 84.5425 115.036 82.9346 117.018 82.9346C119 82.9346 120.608 84.5425 120.608 86.5245C120.608 88.5065 119 90.1144 117.018 90.1144ZM117.018 83.7306C115.482 83.7306 114.224 84.9803 114.224 86.5245C114.224 88.0687 115.474 89.3184 117.018 89.3184C118.562 89.3184 119.812 88.0687 119.812 86.5245C119.812 84.9803 118.562 83.7306 117.018 83.7306Z" fill="#2A2628"/>
<path d="M141.925 90.1144C139.943 90.1144 138.335 88.5065 138.335 86.5245C138.335 84.5425 139.943 82.9346 141.925 82.9346C143.907 82.9346 145.515 84.5425 145.515 86.5245C145.515 88.5065 143.907 90.1144 141.925 90.1144ZM141.925 83.7306C140.388 83.7306 139.131 84.9803 139.131 86.5245C139.131 88.0687 140.38 89.3184 141.925 89.3184C143.469 89.3184 144.719 88.0687 144.719 86.5245C144.719 84.9803 143.469 83.7306 141.925 83.7306Z" fill="#2A2628"/>
<path d="M131.959 49.1759V41.2559H127.541V49.1759H124.875L129.754 54.0076L134.625 49.1759H131.959Z" fill="#2A2628"/>
<path d="M94.6667 118.897C94.6667 118.897 97.8348 111.885 97.6835 107.706C97.5323 103.527 97.2298 96.3151 100.692 95.8614C104.155 95.4077 106.105 109.401 106.105 109.401C106.105 109.401 111.406 107.427 114.996 111.28C121.173 117.902 120.242 127.717 113.325 134.029H102.499L94.6747 118.889L94.6667 118.897Z" fill="#F7B49F"/>
<path d="M110.38 127.446C110.38 127.446 110.34 127.446 110.316 127.446C110.101 127.414 109.95 127.207 109.982 126.992C110.483 123.761 109.042 119.948 109.027 119.908C108.979 119.789 108.995 119.653 109.066 119.55C109.846 118.356 111.757 114.885 111.223 113.166C111.096 112.76 110.841 112.481 110.443 112.322C107.689 111.184 104.856 114.79 104.824 114.83C104.688 115.005 104.442 115.037 104.267 114.901C104.091 114.766 104.06 114.519 104.195 114.344C104.322 114.177 107.427 110.213 110.746 111.59C111.367 111.845 111.781 112.298 111.98 112.935C112.656 115.124 110.372 118.953 109.83 119.82C110.133 120.664 111.231 124.063 110.762 127.12C110.73 127.319 110.563 127.454 110.372 127.454L110.38 127.446Z" fill="#2A2628"/>
<path d="M111.168 120.529C111.04 120.529 110.921 120.474 110.841 120.362C110.714 120.187 110.754 119.932 110.937 119.805C116.278 115.984 114.686 111.606 114.622 111.423C114.543 111.216 114.646 110.985 114.853 110.906C115.06 110.826 115.291 110.93 115.37 111.137C115.386 111.184 117.265 116.263 111.406 120.45C111.335 120.497 111.255 120.521 111.176 120.521L111.168 120.529Z" fill="#2A2628"/>
<path d="M113.532 125.941C113.388 125.941 113.253 125.862 113.181 125.726C113.078 125.535 113.15 125.289 113.349 125.185C119.143 122.105 118.148 117.552 118.101 117.361C118.053 117.146 118.18 116.931 118.395 116.883C118.61 116.835 118.825 116.963 118.873 117.178C118.889 117.233 120.075 122.511 113.723 125.894C113.667 125.925 113.595 125.941 113.54 125.941H113.532Z" fill="#2A2628"/>
<path d="M76.9242 189.223L77.9908 199.984H27.7083L28.8545 189.223H76.9242Z" fill="#E89C87"/>
<path d="M28.1861 195.542H77.5532L77.991 199.984H27.7085L28.1861 195.542Z" fill="#2A2628"/>
</svg>
