<svg width="200" height="200" viewBox="0 0 200 200" fill="none" xmlns="http://www.w3.org/2000/svg">
<rect width="200" height="200" rx="100" fill="white"/>
<path d="M127.01 127.145C127.01 115.334 111.759 105.749 92.9548 105.749C74.1507 105.749 58.8999 115.321 58.8999 127.145C58.8999 138.969 74.1507 148.542 92.9548 148.542C111.759 148.542 127.01 138.969 127.01 127.145Z" fill="#99CCFF"/>
<path d="M92.9406 149.808C73.4662 149.808 57.6211 139.641 57.6211 127.147C57.6211 114.653 73.4662 104.486 92.9406 104.486C112.415 104.486 128.26 114.653 128.26 127.147C128.26 139.641 112.415 149.808 92.9406 149.808ZM92.9406 107.028C74.8572 107.028 60.1502 116.057 60.1502 127.16C60.1502 138.263 74.8572 147.292 92.9406 147.292C111.024 147.292 125.731 138.263 125.731 127.16C125.731 116.057 111.024 107.028 92.9406 107.028Z" fill="#0068DE"/>
<path d="M139.807 91.8022C139.807 93.5473 139.731 95.2544 139.58 96.9237C137.278 122.961 117.348 138.756 93.1192 138.756C67.3345 138.756 46.4312 120.875 46.4312 91.8022C46.4312 62.7296 57.0789 44.3175 90.982 42.6988C91.6902 42.6609 92.3984 42.6356 93.1318 42.6229C127.553 41.7251 139.807 62.7423 139.807 91.8022Z" fill="white"/>
<path d="M93.1308 140.019C64.8929 140.019 45.1782 120.191 45.1782 91.8011C45.1656 58.9349 59.7082 42.9254 90.9178 41.4332C91.626 41.3953 92.3594 41.37 93.1055 41.3573C93.8137 41.3447 94.5219 41.332 95.23 41.332C125.226 41.332 141.083 58.7831 141.083 91.8011C141.083 93.5336 141.008 95.2534 140.856 97.0365C138.58 122.745 119.409 140.019 93.1435 140.019H93.1308ZM95.23 43.8612C94.5598 43.8612 93.8643 43.8612 93.1688 43.8865C92.448 43.8991 91.7524 43.9244 91.0569 43.9623C61.0613 45.3913 47.6947 60.1489 47.6947 91.8011C47.6947 118.699 66.3725 137.49 93.1182 137.49C117.992 137.49 136.164 121.139 138.314 96.8088C138.466 95.1017 138.529 93.4577 138.529 91.8011C138.542 59.9971 123.974 43.8612 95.23 43.8612Z" fill="#0068DE"/>
<path d="M139.807 91.8022C139.807 93.5473 139.731 95.2544 139.579 96.9237C136.645 97.5813 133.585 97.9227 130.436 97.9227C107.408 97.9227 88.7305 79.2576 88.7305 56.2171C88.7305 51.4876 89.5145 46.9351 90.9688 42.6988C91.6769 42.6609 92.3851 42.6356 93.1185 42.6229C127.54 41.7251 139.794 62.7423 139.794 91.8022H139.807Z" fill="#99CCFF"/>
<path d="M130.448 99.1862C106.763 99.1862 87.478 79.9141 87.478 56.2161C87.478 51.4486 88.2494 46.757 89.7795 42.2805C89.9439 41.7999 90.3865 41.4585 90.905 41.4332C91.6258 41.3953 92.3593 41.37 93.1054 41.3573C93.8135 41.3447 94.5217 41.332 95.2299 41.332C125.226 41.332 141.083 58.7831 141.083 91.8011C141.083 93.5336 141.007 95.2534 140.856 97.0365C140.805 97.5802 140.413 98.0355 139.869 98.1619C136.809 98.8448 133.648 99.1989 130.448 99.1989V99.1862ZM91.9167 43.9244C90.6521 47.8952 90.0198 52.0303 90.0198 56.2287C90.0198 78.5231 108.154 96.6697 130.461 96.6697C133.154 96.6697 135.823 96.4042 138.415 95.8857C138.516 94.5073 138.567 93.1669 138.567 91.8011C138.541 59.9971 123.974 43.8612 95.2299 43.8612C94.5596 43.8612 93.8641 43.8612 93.1686 43.8865C92.7513 43.8865 92.334 43.9118 91.9167 43.9244Z" fill="#0068DE"/>
<path d="M93.1311 134.496C81.5602 134.496 72.1392 125.087 72.1392 113.504C72.1392 101.92 81.5602 92.5117 93.1311 92.5117C104.702 92.5117 114.123 101.933 114.123 113.504C114.123 125.074 104.715 134.496 93.1311 134.496ZM93.1311 95.0535C82.9513 95.0535 74.6683 103.336 74.6683 113.516C74.6683 123.696 82.9513 131.979 93.1311 131.979C103.311 131.979 111.594 123.696 111.594 113.516C111.594 103.336 103.311 95.0535 93.1311 95.0535Z" fill="#0068DE"/>
<path d="M97.229 97.5174C97.229 99.781 95.3954 101.627 93.1191 101.627C90.8429 101.627 89.0093 99.781 89.0093 97.5174C89.0093 95.2539 90.8556 94.3687 93.1191 94.3687C95.3827 94.3687 97.229 95.2539 97.229 97.5174Z" fill="#99CCFF"/>
<path d="M93.1181 102.896C90.159 102.896 87.7437 100.48 87.7437 97.5213C87.7437 94.8024 89.8049 93.1079 93.1181 93.1079C96.4313 93.1079 98.4925 94.8024 98.4925 97.5213C98.4925 100.48 96.0772 102.896 93.1181 102.896ZM93.1181 95.6371C90.2728 95.6371 90.2728 97.0534 90.2728 97.5213C90.2728 99.0893 91.55 100.367 93.1181 100.367C94.6862 100.367 95.9634 99.0893 95.9634 97.5213C95.9634 97.0534 95.9634 95.6371 93.1181 95.6371Z" fill="#0068DE"/>
<path d="M99.6446 116.752C96.9385 116.752 94.5358 115.373 93.1321 113.249C91.7284 115.373 89.3257 116.752 86.6069 116.752C82.2821 116.752 78.7539 113.224 78.7539 108.899C78.7539 108.203 79.323 107.634 80.0185 107.634C80.714 107.634 81.2831 108.203 81.2831 108.899C81.2831 111.833 83.6731 114.223 86.6069 114.223C89.3131 114.223 91.5767 112.174 91.8675 109.468C91.9308 108.823 92.4745 108.342 93.1195 108.342C93.7644 108.342 94.3082 108.823 94.3714 109.468C94.6622 112.174 96.9258 114.223 99.632 114.223C102.566 114.223 104.956 111.833 104.956 108.899C104.956 108.203 105.525 107.634 106.22 107.634C106.916 107.634 107.485 108.203 107.485 108.899C107.485 113.224 103.957 116.752 99.632 116.752H99.6446Z" fill="#0068DE"/>
<path d="M74.9217 88.9136C74.9217 90.3426 73.771 91.4933 72.3546 91.4933C70.9257 91.4933 69.7749 90.3426 69.7749 88.9136V88.0158C69.7749 86.5994 70.9383 85.436 72.3546 85.436C73.771 85.436 74.9217 86.5994 74.9217 88.0158V88.9136Z" fill="#006AE3"/>
<path d="M118.841 88.9136C118.841 90.3426 117.69 91.4933 116.274 91.4933C114.857 91.4933 113.694 90.3426 113.694 88.9136V88.0158C113.694 86.5994 114.857 85.436 116.274 85.436C117.69 85.436 118.841 86.5994 118.841 88.0158V88.9136Z" fill="#006AE3"/>
<path d="M107.345 43.8218C115.274 43.8092 130.436 46.528 140.363 55.1903C147.774 61.6649 158.965 92.0526 143.752 91.8123C131.84 91.6227 120.092 76.3466 116.248 67.4693C112.505 58.8323 107.345 43.8218 107.345 43.8218Z" fill="#99CCFF"/>
<path d="M143.929 93.0807H143.727C131.511 92.891 119.409 77.9817 115.072 67.9789C111.354 59.3924 106.182 44.382 106.131 44.2302C106.005 43.8382 106.055 43.4209 106.296 43.0795C106.536 42.738 106.915 42.5483 107.32 42.5483C114.958 42.5483 130.601 45.0143 141.172 54.233C147.28 59.5568 155.083 78.9301 151.732 87.8706C150.454 91.2723 147.748 93.0807 143.917 93.0807H143.929ZM109.128 45.1281C110.595 49.3138 114.465 60.1891 117.398 66.9672C120.914 75.0984 132.27 90.3618 143.765 90.5515H143.917C146.686 90.5515 148.469 89.3881 149.367 86.9854C152.326 79.1071 145.131 61.0364 139.516 56.1425C130.272 48.0872 116.488 45.4821 109.128 45.1281Z" fill="#0068DE"/>
<path d="M78.9045 43.8218C70.9757 43.8092 54.6627 47.6788 44.7484 56.3411C37.338 62.803 27.2973 92.0653 42.4975 91.825C54.4098 91.6353 66.1576 76.3593 70.0019 67.482C73.7451 58.8449 78.9045 43.8345 78.9045 43.8345V43.8218Z" fill="white"/>
<path d="M42.3081 93.0783C38.312 93.0783 35.5047 91.1941 34.1769 87.6406C30.8511 78.7507 38.0212 60.5155 43.9141 55.3687C54.0433 46.5294 70.4575 42.5586 78.8669 42.5586C79.2715 42.5586 79.6762 42.7609 79.9165 43.0897C80.1568 43.4185 80.2326 43.8485 80.1062 44.2405C80.0556 44.3922 74.8835 59.4027 71.1656 67.9891C66.8282 78.0046 54.7388 92.9012 42.5104 93.0909H42.3081V93.0783ZM77.1091 45.1383C68.8262 45.6568 54.4353 49.5517 45.5833 57.2782C40.2848 61.8939 33.5825 78.8518 36.5416 86.7554C37.5027 89.3098 39.3869 90.5491 42.3081 90.5491H42.4725C53.9801 90.3721 65.3233 75.0961 68.8388 66.9648C71.7726 60.1867 75.6296 49.3367 77.0965 45.1383H77.1091Z" fill="#0068DE"/>
<path d="M100.085 148.078C100.085 144.133 96.8857 140.934 92.9402 140.934C88.9948 140.934 85.7954 144.133 85.7954 148.078C85.7954 152.024 88.9948 155.223 92.9402 155.223C96.8857 155.223 100.085 152.024 100.085 148.078Z" fill="white"/>
<path d="M92.9421 156.484C88.3011 156.484 84.5327 152.716 84.5327 148.075C84.5327 143.434 88.3011 139.666 92.9421 139.666C97.5831 139.666 101.352 143.434 101.352 148.075C101.352 152.716 97.5831 156.484 92.9421 156.484ZM92.9421 142.195C89.7048 142.195 87.0619 144.825 87.0619 148.075C87.0619 151.325 89.7048 153.955 92.9421 153.955C96.1794 153.955 98.8224 151.312 98.8224 148.075C98.8224 144.838 96.1794 142.195 92.9421 142.195Z" fill="#0068DE"/>
<path d="M165.4 134.811C165.4 122.204 155.182 111.986 142.574 111.986C129.966 111.986 119.749 122.204 119.749 134.811C119.749 147.419 129.966 157.637 142.574 157.637C155.182 157.637 165.4 147.419 165.4 134.811Z" fill="white"/>
<path d="M142.576 158.903C129.298 158.903 118.486 148.103 118.486 134.813C118.486 121.522 129.298 110.723 142.576 110.723C155.854 110.723 166.666 121.522 166.666 134.813C166.666 148.103 155.854 158.903 142.576 158.903ZM142.576 113.252C130.689 113.252 121.015 122.926 121.015 134.813C121.015 146.7 130.689 156.374 142.576 156.374C154.463 156.374 164.137 146.7 164.137 134.813C164.137 122.926 154.463 113.252 142.576 113.252Z" fill="#0068DE"/>
<path d="M157.169 130.204H147.672V120.707H137.48V130.204H127.97V140.396H137.48V149.906H147.672V140.396H157.169V130.204Z" fill="#B5FDFF"/>
<path d="M148.936 151.178H136.214V141.681H126.717V128.959H136.214V119.462H148.936V128.959H158.433V141.681H148.936V151.178ZM138.743 148.649H146.407V139.152H155.904V131.488H146.407V121.992H138.743V131.488H129.246V139.152H138.743V148.649Z" fill="#0068DE"/>
</svg>
