<svg width="104" height="130" viewBox="0 0 104 130" fill="none" xmlns="http://www.w3.org/2000/svg">
<path d="M55.3418 85.8625C55.3418 85.8625 56.7591 80.2697 67.3805 83.1607C67.3805 83.1607 81.5372 86.5145 90.7902 86.206C90.7902 86.206 93.2733 86.331 91.8131 89.2904C91.8131 89.2904 97.0369 89.8682 93.8999 95.5528C93.8999 95.5528 94.6163 98.4419 91.0791 99.4413C91.0791 99.4413 91.8092 103.869 84.887 101.94C84.887 101.94 70.1095 99.3399 56.4604 87.307" fill="white"/>
<path d="M87.9204 102.821C87.0341 102.821 85.9917 102.655 84.8009 102.325C84.1665 102.208 69.5471 99.368 56.2025 87.6046L56.7237 87.0131C70.1269 98.8273 84.8126 101.527 84.959 101.552L84.9961 101.56C87.4324 102.24 89.1834 102.183 90.0579 101.398C90.8739 100.666 90.6943 99.5164 90.6924 99.5047L90.6358 99.1572L90.9735 99.0616C94.1066 98.1753 93.5444 95.7488 93.519 95.6473L93.4819 95.497L93.5561 95.3623C94.5283 93.5996 94.7606 92.1999 94.2433 91.2043C93.5639 89.8945 91.7875 89.6836 91.7699 89.6817L91.2116 89.6192L91.4595 89.1156C91.8929 88.2371 91.9925 87.5519 91.7485 87.1322C91.4888 86.6832 90.8778 86.6091 90.7802 86.5993C85.9683 86.7535 79.8445 85.918 75.5479 85.186C70.8941 84.3934 67.3236 83.5521 67.2885 83.5423C64.3779 82.7497 60.3644 82.1368 57.6958 83.6946C56.0697 84.6433 55.7242 85.9453 55.7203 85.959L54.957 85.7657C54.9746 85.6994 55.3904 84.1279 57.2976 83.0152C59.6284 81.6546 63.0544 81.5765 67.4818 82.781C67.6106 82.8122 81.6834 86.1132 90.7743 85.8126H90.79H90.8056C90.8505 85.8145 91.9202 85.877 92.4219 86.7301C92.7596 87.306 92.7421 88.0673 92.3712 89.0004C93.0778 89.18 94.3233 89.6544 94.9382 90.8412C95.5707 92.0613 95.3579 93.6679 94.3077 95.62C94.4014 96.272 94.5321 98.7082 91.4908 99.7253C91.5005 100.248 91.3971 101.25 90.5772 101.984C89.9564 102.54 89.0643 102.819 87.9145 102.819L87.9204 102.821Z" fill="black"/>
<path d="M81.0939 97.989C81.6737 99.7186 83.089 100.236 84.9767 99.6015C86.8643 98.969 87.1259 97.7431 87.165 95.7382C87.2001 93.915 85.3515 93.0756 83.4618 93.71C81.5741 94.3425 80.5122 96.2595 81.092 97.989H81.0939Z" fill="#F9D2DC"/>
<path d="M89.2043 91.6789C90.0827 91.1274 90.4895 90.1941 90.1129 89.5942C89.7363 88.9942 88.7189 88.955 87.8405 89.5064C86.9621 90.0579 86.5553 90.9912 86.9319 91.5911C87.3085 92.191 88.3259 92.2303 89.2043 91.6789Z" fill="#F9D2DC"/>
<path d="M91.6107 95.4592C92.43 94.8285 92.7146 93.8241 92.2463 93.2158C91.7781 92.6076 90.7343 92.6258 89.915 93.2565C89.0958 93.8872 88.8112 94.8915 89.2795 95.4998C89.7477 96.1081 90.7915 96.0899 91.6107 95.4592Z" fill="#F9D2DC"/>
<path d="M89.9209 98.7421C90.4293 98.4838 90.6706 97.9378 90.4596 97.5226C90.2487 97.1073 89.6655 96.9801 89.157 97.2384C88.6485 97.4967 88.4073 98.0427 88.6183 98.4579C88.8292 98.8732 89.4124 99.0004 89.9209 98.7421Z" fill="#F9D2DC"/>
<path d="M87.8859 100.575C88.354 100.418 88.6371 100.004 88.5181 99.6489C88.3992 99.2942 87.9233 99.1339 87.4551 99.2909C86.9869 99.4479 86.7039 99.8627 86.8228 100.217C86.9418 100.572 87.4177 100.732 87.8859 100.575Z" fill="#F9D2DC"/>
<path d="M64.8033 83.3623C67.0111 90.5929 67.9891 99.3052 67.9891 99.3052C67.9891 99.3052 69.1858 111.557 76.8869 117.743C83.6119 121.434 79.5671 126.287 79.5671 126.287C76.0826 130.199 68.5963 128.612 68.5963 128.612C60.659 127.837 59.0855 115.41 59.0855 115.41C55.2087 106.343 50.8613 104.018 50.8613 104.018" fill="white"/>
<path d="M72.0787 129.332C70.2164 129.332 68.7679 129.049 68.5356 129.003C65.1487 128.663 62.3708 126.199 60.5027 121.877C59.1967 118.856 58.7634 115.964 58.7028 115.515C54.9314 106.719 50.7187 104.388 50.6758 104.365L51.0467 103.67C51.2302 103.768 55.5619 106.165 59.4466 115.256L59.4681 115.307L59.4759 115.361C59.4915 115.482 61.102 127.486 68.6332 128.222L68.6762 128.228C68.6938 128.232 70.5405 128.616 72.7756 128.522C74.798 128.438 77.5681 127.939 79.2722 126.026C79.2781 126.018 80.7071 124.259 80.3069 122.164C80.0102 120.61 78.7959 119.24 76.6974 118.088L76.6408 118.049C68.8987 111.832 67.6474 99.8498 67.5967 99.3442C67.5869 99.2622 66.5972 90.589 64.4264 83.4774L65.18 83.2471C67.3722 90.4289 68.3697 99.1724 68.3795 99.2602C68.3912 99.3871 69.6503 111.398 77.1073 117.413C79.4069 118.682 80.7441 120.234 81.0838 122.024C81.5504 124.487 79.9399 126.455 79.8696 126.537C77.8375 128.819 74.5852 129.331 72.0787 129.331V129.332Z" fill="black"/>
<path d="M75.765 127.993C76.089 127.269 76.0188 126.365 75.5756 125.698C75.4019 125.407 75.1403 125.145 74.8865 124.923C74.7479 124.813 74.6015 124.712 74.459 124.604C74.6913 124.714 74.9588 124.839 75.1735 124.987C75.9016 125.444 76.4287 126.199 76.5497 127.06C76.6083 127.472 76.6024 127.874 76.4912 128.284C76.3135 128.831 75.5151 128.513 75.765 127.993Z" fill="black"/>
<path d="M79.4348 125.666C79.7315 124.93 79.628 124.03 79.1615 123.378C78.978 123.095 78.7067 122.842 78.4451 122.629C78.3026 122.525 78.1542 122.43 78.0059 122.326C78.2421 122.428 78.5134 122.541 78.734 122.681C79.4777 123.113 80.0321 123.847 80.1844 124.704C80.2566 125.114 80.2664 125.514 80.1707 125.93C80.0126 126.482 79.2045 126.193 79.4348 125.666Z" fill="black"/>
<path d="M44.099 79.7743C44.099 79.7743 39.7009 78.9154 35.3516 85.5877C35.3516 85.5877 29.1829 90.138 28.527 94.6884C28.527 94.6884 27.7696 98.1768 32.0154 101.968C32.0154 101.968 31.5098 106.77 38.4867 109.45C38.4867 109.45 40.9131 107.529 41.6217 100.502C41.6217 100.502 41.2684 95.6489 38.0318 95.7484L44.2512 87.6081C44.2512 87.6081 47.5874 82.4506 44.099 79.7723V79.7743Z" fill="white"/>
<path d="M38.4859 109.845C38.4391 109.845 38.3902 109.837 38.3453 109.82C31.9112 107.348 31.593 103.132 31.6125 102.136C27.4975 98.3724 28.0792 94.9172 28.1397 94.6204C28.7937 90.1501 34.3885 85.8203 35.0619 85.3147C39.4913 78.5604 43.987 79.351 44.1763 79.3881C44.2368 79.3998 44.2915 79.4252 44.3403 79.4623C48.0747 82.33 44.6175 87.7705 44.5824 87.8251C44.5765 87.8329 44.5707 87.8427 44.5648 87.8505L38.7807 95.4208C41.0608 95.8952 41.8962 98.837 42.0153 100.475C42.0153 100.498 42.0153 100.52 42.0153 100.543C41.2989 107.655 38.8373 109.679 38.7338 109.761C38.6635 109.818 38.5776 109.847 38.4898 109.847L38.4859 109.845ZM43.616 80.1338C42.4643 80.1338 39.0598 80.6179 35.6807 85.8008C35.6554 85.8398 35.6222 85.875 35.5851 85.9023C35.5246 85.9472 29.5413 90.4097 28.9147 94.7415C28.9147 94.7512 28.9108 94.759 28.9089 94.7688C28.9089 94.7747 28.7429 95.6024 29.0709 96.8576C29.3754 98.021 30.1777 99.7994 32.2763 101.673C32.37 101.757 32.4188 101.882 32.4051 102.009C32.3875 102.191 32.0498 106.45 38.3922 108.992C38.9173 108.428 40.6449 106.177 41.2228 100.5C41.2052 100.305 41.09 99.2469 40.6664 98.2221C40.0808 96.8068 39.1946 96.1021 38.0409 96.1431C37.8886 96.147 37.748 96.065 37.6777 95.9303C37.6075 95.7956 37.6231 95.6316 37.7148 95.5106L43.9225 87.384C44.0045 87.2532 44.7444 86.0487 45.0997 84.5846C45.5701 82.6442 45.1778 81.1528 43.9343 80.1494C43.8659 80.1416 43.7566 80.1338 43.6102 80.1338H43.616Z" fill="black"/>
<path d="M66.7605 91.2881C66.4599 91.0284 66.2861 90.7356 66.1456 90.435C65.9972 90.1363 66.007 89.7928 65.9426 89.4687L65.7552 88.4966C65.6946 88.1706 65.6302 87.8465 65.558 87.5205C65.5521 87.499 65.5658 87.4756 65.5892 87.4717C65.6068 87.4678 65.6224 87.4756 65.6322 87.4893C65.8254 87.7684 65.9816 88.0671 66.1378 88.3658L66.3583 88.8187L66.5594 89.2774C66.6258 89.4316 66.7039 89.5819 66.7781 89.7322C66.8503 89.8845 66.8991 90.0426 66.9225 90.2105C66.9635 90.5443 66.9694 90.8879 66.8405 91.2666C66.8327 91.292 66.8034 91.3056 66.7781 91.2978C66.7722 91.2959 66.7663 91.292 66.7624 91.2881H66.7605Z" fill="black"/>
<path d="M41.0106 92.2287C40.8798 91.8578 40.8818 91.5162 40.9169 91.1844C40.9442 90.8506 41.1336 90.5577 41.2546 90.2493L41.444 89.7866L41.6509 89.3299C41.8012 89.0312 41.9437 88.7286 42.1272 88.4436C42.1389 88.426 42.1643 88.4202 42.1819 88.4319C42.1955 88.4416 42.2014 88.4573 42.1994 88.4729C42.135 88.7989 42.0726 89.121 42.0237 89.447L41.8559 90.4172C41.7973 90.7393 41.8129 91.0809 41.6724 91.3815C41.5396 91.6841 41.3756 91.9789 41.0887 92.2443C41.0692 92.2619 41.0399 92.26 41.0223 92.2424C41.0184 92.2385 41.0145 92.2326 41.0126 92.2268L41.0106 92.2287Z" fill="black"/>
<path d="M67.4317 88.393C68.3375 97.8471 64.5016 110.309 54.3877 111.403C47.163 112.183 41.2305 103.491 41.2305 93.7301C41.2305 83.9695 47.12 76.0576 54.3877 76.0576C61.6554 76.0576 66.5005 78.6793 67.4317 88.3949V88.393Z" fill="white"/>
<path d="M41.3336 91.1475C41.3336 91.1475 39.4635 98.5967 39.8032 104.309C39.8032 104.309 32.5979 123.642 38.8681 128.361C38.8681 128.361 42.6512 130.914 49.5285 128.689C49.5285 128.689 53.5616 127.304 52.3181 122.243C52.3181 122.243 50.9907 118.305 51.1039 115.771C51.1254 115.293 51.2366 114.024 51.2562 113.546C51.3069 112.232 51.6505 112.297 51.4338 111.082" fill="white"/>
<path d="M44.1202 129.998C40.6474 129.998 38.7578 128.763 38.6465 128.687L38.6309 128.675C35.9019 126.621 35.2167 121.848 36.5968 114.493C37.5377 109.474 39.1677 104.902 39.404 104.25C39.0877 98.5537 40.9324 91.1259 40.95 91.0518L41.7133 91.2431C41.6937 91.3172 39.8608 98.7001 40.1926 104.285L40.1984 104.369L40.1692 104.447C40.0989 104.638 33.1455 123.537 39.0916 128.038C39.2653 128.15 42.9451 130.404 49.4027 128.314C49.5452 128.263 53.0629 126.976 51.9345 122.352C51.8291 122.036 50.5915 118.274 50.7067 115.754C50.7164 115.521 50.7477 115.121 50.7789 114.696C50.8121 114.243 50.8492 113.774 50.857 113.532C50.8804 112.947 50.9585 112.609 51.021 112.34C51.103 111.99 51.1517 111.781 51.0405 111.155L51.8154 111.016C51.956 111.803 51.8779 112.135 51.7881 112.519C51.7296 112.769 51.6632 113.052 51.6437 113.564C51.6339 113.821 51.5988 114.298 51.5637 114.756C51.5344 115.156 51.5031 115.57 51.4914 115.791C51.3821 118.221 52.6705 122.081 52.6842 122.12L52.6939 122.151C53.7461 126.432 51.1635 128.544 49.6506 129.063C47.5072 129.756 45.6546 130 44.1163 130L44.1202 129.998Z" fill="black"/>
<path d="M48.1855 109.616C49.1733 110.079 50.1923 110.393 51.225 110.606C52.2596 110.809 53.304 110.918 54.3522 110.893C54.6138 110.897 54.8754 110.862 55.137 110.85L55.5294 110.828L55.9198 110.772L56.7026 110.666C56.9603 110.61 57.2179 110.557 57.4795 110.506L57.8699 110.428C57.9968 110.391 58.1238 110.352 58.2526 110.319L59.0276 110.108C59.2911 110.046 59.5351 109.936 59.7947 109.858C60.0505 109.774 60.3101 109.69 60.5756 109.614C60.3511 109.767 60.1188 109.911 59.8845 110.055C59.7694 110.13 59.6503 110.196 59.5312 110.266C59.4121 110.337 59.295 110.409 59.1701 110.463L58.4185 110.803C58.2936 110.86 58.1647 110.914 58.0378 110.967L57.6435 111.094C57.38 111.18 57.1164 111.262 56.849 111.34C56.5796 111.404 56.3044 111.449 56.0311 111.504L55.6211 111.58L55.2053 111.617C54.9281 111.635 54.649 111.672 54.3718 111.672C53.2552 111.695 52.1347 111.529 51.0766 111.192C50.0205 110.856 49.0054 110.352 48.1914 109.614L48.1855 109.616Z" fill="black"/>
<path d="M53.3147 107.037C57.2239 107.037 60.393 103.257 60.393 98.5942C60.393 93.9314 57.2239 90.1514 53.3147 90.1514C49.4054 90.1514 46.2363 93.9314 46.2363 98.5942C46.2363 103.257 49.4054 107.037 53.3147 107.037Z" fill="#F9D2DC"/>
<path d="M43.54 129.67C43.3624 129 43.2277 128.303 43.2609 127.601C43.2824 126.908 43.5127 126.25 43.7899 125.631C43.6435 126.271 43.544 126.935 43.6513 127.583C43.747 128.217 43.991 128.819 44.274 129.4C44.5024 129.92 43.7079 130.216 43.542 129.672L43.54 129.67Z" fill="black"/>
<path d="M47.9229 128.597C48.7057 127.839 48.8326 126.613 48.3485 125.655C48.245 125.417 48.0908 125.183 47.9522 124.964C48.1279 125.151 48.3309 125.364 48.4754 125.581C48.7487 125.954 48.942 126.401 49.0259 126.855C49.1664 127.638 48.9634 128.484 48.491 129.134C48.126 129.577 47.4993 128.987 47.9229 128.597Z" fill="black"/>
<path d="M56.7257 94.8013C60.3196 95.5802 61.5494 93.4504 61.5494 93.4504C62.7206 91.1099 64.583 91.7541 64.583 91.7541C68.8639 92.0957 68.5574 88.5272 68.5574 88.5272C68.618 84.6913 71.835 84.7753 71.835 84.7753C74.7691 84.8358 74.4977 81.2947 74.4977 81.2947C68.8503 80.5197 67.066 76.5432 66.9235 76.7091C56.5715 88.6873 45.0501 82.5108 39.6174 78.0522C39.4495 77.9136 38.0733 82.0345 32.5293 83.36C32.5293 83.36 32.6074 86.9109 35.5199 86.5614C35.5199 86.5614 38.7136 86.1613 39.1509 89.9737C39.1509 89.9737 39.1957 93.5539 43.4221 92.7945C43.4221 92.7945 45.2122 91.9688 46.6079 94.1844C46.6079 94.1844 48.0408 96.1834 51.5409 95.0551C51.5409 95.0551 53.8464 92.9371 56.7257 94.7994V94.8013Z" fill="#F3A7B9"/>
<path d="M49.5126 95.7665C47.3301 95.7665 46.3658 94.4664 46.317 94.3961C46.3131 94.3902 46.3091 94.3844 46.3052 94.3785C45.1047 92.4733 43.6347 93.0979 43.5723 93.1253C43.5469 93.137 43.5157 93.1467 43.4883 93.1507C42.0008 93.4181 40.8218 93.2053 39.9882 92.5162C38.8872 91.6065 38.8013 90.1971 38.7935 90.0019C38.6608 88.8716 38.2606 88.0361 37.6047 87.5169C36.697 86.7985 35.5764 86.9215 35.5667 86.9215C34.696 87.0269 33.964 86.8258 33.3901 86.328C32.2266 85.3188 32.1739 83.4487 32.172 83.3686C32.1681 83.1988 32.2833 83.0504 32.4492 83.0114C36.8082 81.969 38.5124 79.1267 39.0707 78.1916C39.266 77.8656 39.3479 77.7309 39.547 77.6958C39.6505 77.6782 39.7676 77.7095 39.8496 77.7758C53.4149 88.9029 63.1149 80.5732 66.656 76.4757C66.7282 76.3937 66.8356 76.343 66.9527 76.3469C67.1616 76.3547 67.2553 76.4816 67.4817 76.7881C68.1298 77.6646 70.1054 80.3311 74.5523 80.9421C74.7202 80.9656 74.849 81.1022 74.8627 81.2721C74.8685 81.3501 74.9993 83.2183 73.9413 84.3369C73.4201 84.8893 72.7114 85.1607 71.833 85.1411C71.8252 85.1411 70.6949 85.1294 69.8614 85.9337C69.2582 86.5154 68.9419 87.388 68.9224 88.5242C68.9361 88.7213 68.9888 90.1307 67.9815 91.1439C67.2182 91.9111 66.0664 92.239 64.5594 92.118C64.5282 92.116 64.4989 92.1102 64.4696 92.0985C64.4072 92.077 62.8826 91.6026 61.8753 93.6153C61.8714 93.6211 61.8694 93.6289 61.8655 93.6348C61.8109 93.7304 60.46 95.9832 56.6534 95.1574C56.6104 95.1477 56.5695 95.132 56.5343 95.1086C53.9341 93.4259 51.8766 95.2492 51.7887 95.3273C51.7497 95.3624 51.7048 95.3878 51.656 95.4034C50.842 95.665 50.1295 95.7684 49.5145 95.7684L49.5126 95.7665ZM46.9065 93.9823C47.0061 94.113 48.2925 95.6982 51.3651 94.7358C51.7809 94.398 54.0922 92.7114 56.8642 94.4644C60.011 95.1223 61.1413 93.4279 61.233 93.2775C62.414 90.9311 64.2998 91.3079 64.6453 91.3996C65.9103 91.4953 66.8571 91.2376 67.4603 90.6383C68.288 89.8106 68.1982 88.5729 68.1982 88.5612C68.1982 88.5495 68.1982 88.5378 68.1982 88.5261C68.2197 87.1772 68.612 86.127 69.3655 85.4047C70.4197 84.3935 71.7881 84.413 71.8467 84.4189C72.5201 84.4286 73.0296 84.2451 73.4123 83.841C74.0369 83.1812 74.1365 82.1154 74.1443 81.6098C69.674 80.8894 67.634 78.2073 66.9274 77.2546C62.9236 81.7601 58.4025 84.0343 53.4578 84.0343C52.7746 84.0343 52.0835 83.9913 51.3827 83.9035C46.274 83.2671 41.9618 80.3897 39.6817 78.5703C39.0922 79.5542 37.3373 82.4707 32.9138 83.638C32.9723 84.1417 33.1754 85.1919 33.8625 85.7873C34.2822 86.1504 34.8112 86.287 35.4788 86.207C35.5354 86.1992 36.8922 86.0411 38.042 86.9449C38.8638 87.5891 39.3577 88.5964 39.51 89.9355C39.51 89.9472 39.5119 89.9589 39.5119 89.9726C39.5119 89.9843 39.5451 91.2259 40.4489 91.9657C41.1068 92.5045 42.0731 92.6665 43.3244 92.4479C43.6582 92.323 45.499 91.7607 46.9045 93.9823H46.9065Z" fill="black"/>
<path d="M37.168 82.0852C37.168 82.0852 38.7316 83.9475 39.6413 84.4667L41.2244 82.8699C41.2244 82.8699 39.6686 81.5874 38.9385 80.5586L37.166 82.0852H37.168Z" fill="white"/>
<path d="M39.6398 84.8279C39.5793 84.8279 39.5169 84.8123 39.4622 84.781C38.5076 84.2364 36.9576 82.3956 36.8913 82.3175C36.7644 82.1672 36.7819 81.9427 36.9322 81.8138L38.7048 80.2873C38.7809 80.2209 38.8824 80.1897 38.9839 80.2034C39.0854 80.2151 39.1752 80.2697 39.2338 80.3517C39.9287 81.3297 41.4397 82.581 41.4553 82.5947C41.5334 82.6591 41.5802 82.7528 41.5861 82.8543C41.5919 82.9558 41.5529 83.0534 41.4826 83.1257L39.8995 84.7225C39.8292 84.7927 39.7375 84.8298 39.6437 84.8298L39.6398 84.8279ZM37.6741 82.1242C38.1523 82.6689 38.9898 83.5668 39.591 84.0061L40.694 82.8933C40.2606 82.5166 39.4544 81.7826 38.8844 81.0818L37.6741 82.1242Z" fill="black"/>
<path d="M69.7577 80.4827C69.7577 80.4827 68.3834 82.4895 67.5303 83.0966L65.7969 81.6637C65.7969 81.6637 67.218 80.2348 67.8446 79.1396L69.7577 80.4847V80.4827Z" fill="white"/>
<path d="M67.5288 83.4559C67.4468 83.4559 67.3648 83.4286 67.2984 83.374L65.565 81.9411C65.4869 81.8767 65.44 81.783 65.4342 81.6815C65.4283 81.58 65.4674 81.4824 65.5376 81.4101C65.5513 81.3965 66.9334 80.0007 67.5288 78.9602C67.5795 78.8724 67.6635 78.8099 67.7631 78.7865C67.8626 78.765 67.9661 78.7865 68.0481 78.8431L69.9612 80.1881C70.1232 80.3013 70.1622 80.5239 70.0509 80.6859C69.9943 80.7698 68.6298 82.7532 67.7338 83.3896C67.6713 83.4345 67.5991 83.4559 67.5249 83.4559H67.5288ZM66.3243 81.6327L67.5307 82.6322C68.0851 82.1363 68.8309 81.1622 69.2545 80.5707L67.9485 79.6513C67.4507 80.4048 66.7187 81.2149 66.3243 81.6327Z" fill="black"/>
<path d="M56.888 91.9108C56.8724 91.9108 56.8568 91.9088 56.8411 91.9049C56.7455 91.8795 56.6889 91.7819 56.7143 91.6863C57.6571 88.1803 55.1155 86.8294 55.0101 86.7787C54.9281 86.7572 54.8695 86.6811 54.8754 86.5932C54.8832 86.4956 54.9691 86.4195 55.0667 86.4273C55.1897 86.4371 55.9237 86.8372 56.5015 87.6513C57.052 88.4282 57.5966 89.7732 57.0578 91.778C57.0364 91.8581 56.9642 91.9108 56.8861 91.9108H56.888Z" fill="black"/>
<path d="M60.1708 90.7937C60.1337 90.7937 60.0966 90.782 60.0634 90.7585C58.1757 89.3433 57.7677 87.8714 57.758 86.8875C57.7502 86.0852 58.0078 85.4683 58.1191 85.3805C58.1972 85.32 58.3085 85.3336 58.369 85.4117C58.4217 85.48 58.4178 85.5737 58.3651 85.6362C58.3085 85.7436 57.1665 88.1408 60.2762 90.4735C60.3543 90.5321 60.3718 90.6453 60.3113 90.7234C60.2762 90.7703 60.2235 90.7956 60.1688 90.7956L60.1708 90.7937Z" fill="black"/>
<path d="M63.7267 88.8381C63.633 88.8381 63.555 88.7659 63.5491 88.6702C63.3148 85.0471 60.4745 84.5845 60.3593 84.5708C60.2734 84.5767 60.1954 84.522 60.1719 84.438C60.1466 84.3424 60.2052 84.2448 60.3008 84.2194C60.4199 84.1901 61.2437 84.3326 62.0538 84.9183C62.8249 85.4766 63.7736 86.5756 63.9064 88.6468C63.9122 88.7444 63.838 88.8303 63.7404 88.8362C63.7365 88.8362 63.7326 88.8362 63.7287 88.8362L63.7267 88.8381Z" fill="black"/>
<path d="M66.4795 86.7235C66.4619 86.7235 66.4424 86.7216 66.4248 86.7138C64.1818 85.9798 63.3229 84.7187 62.9969 83.7895C62.7314 83.0321 62.7783 82.3645 62.8544 82.2454C62.9091 82.1634 63.0184 82.14 63.1023 82.1946C63.1745 82.2415 63.1999 82.3313 63.1707 82.4094C63.1511 82.5284 62.8408 85.1658 66.5361 86.3761C66.6298 86.4073 66.6805 86.5069 66.6493 86.6006C66.6239 86.6767 66.5556 86.7235 66.4795 86.7235Z" fill="black"/>
<path d="M51.0622 92.1976C50.99 92.1976 50.9216 92.1528 50.8943 92.0825C50.1622 90.1401 50.5702 88.7483 51.0426 87.9206C51.5385 87.0538 52.2295 86.5814 52.3505 86.5619C52.4482 86.5463 52.5399 86.6107 52.5575 86.7083C52.5731 86.7942 52.5224 86.8781 52.4423 86.9074C52.3428 86.9679 49.9475 88.5609 51.2281 91.9575C51.2632 92.0493 51.2164 92.1528 51.1247 92.1879C51.1032 92.1957 51.0817 92.1996 51.0622 92.1996V92.1976Z" fill="black"/>
<path d="M47.6836 91.4089C47.6348 91.4089 47.588 91.3894 47.5529 91.3504C47.4865 91.2781 47.4904 91.1649 47.5646 91.0985C50.4303 88.471 49.0579 86.1987 48.9915 86.0972C48.933 86.0387 48.9193 85.9469 48.9662 85.8747C49.0189 85.7907 49.1282 85.7673 49.2122 85.82C49.3312 85.8962 49.6494 86.4857 49.7197 87.2841C49.8075 88.2641 49.546 89.7692 47.8047 91.364C47.7696 91.3953 47.7266 91.4109 47.6836 91.4109V91.4089Z" fill="black"/>
<path d="M43.9533 89.8121C43.8577 89.8121 43.7776 89.7359 43.7756 89.6403C43.7054 87.5652 44.5409 86.3783 45.2534 85.7478C46.0011 85.086 46.8131 84.8615 46.9283 84.881C47.0259 84.8967 47.0923 84.9884 47.0767 85.0841C47.063 85.1719 46.9888 85.2324 46.9029 85.2344C46.7897 85.2598 44.008 85.9996 44.1309 89.6266C44.1348 89.7262 44.0567 89.8082 43.9591 89.8121C43.9572 89.8121 43.9553 89.8121 43.9533 89.8121Z" fill="black"/>
<path d="M41.0072 87.977C40.9389 87.977 40.8725 87.938 40.8432 87.8696C40.8041 87.7799 40.8432 87.6744 40.9349 87.6334C44.4936 86.0678 43.9256 83.4735 43.8944 83.3563C43.8573 83.2822 43.8748 83.1904 43.9412 83.1377C44.0173 83.0752 44.1306 83.087 44.193 83.165C44.2828 83.2744 44.3921 83.9361 44.2028 84.715C43.9705 85.6716 43.2384 87.0107 41.0794 87.9614C41.056 87.9712 41.0326 87.977 41.0072 87.977Z" fill="black"/>
<path d="M59.6971 89.0253C59.6971 89.0253 57.5361 90.1419 56.4976 90.2707L55.6504 88.1878C55.6504 88.1878 57.579 87.6022 58.6488 86.9346L59.6971 89.0253Z" fill="white"/>
<path d="M56.4971 90.6322C56.3526 90.6322 56.2199 90.5444 56.1632 90.4078L55.3161 88.3248C55.277 88.2311 55.2809 88.1257 55.3239 88.034C55.3668 87.9422 55.4468 87.8739 55.5444 87.8446C55.564 87.8388 57.4419 87.2648 58.457 86.6304C58.5429 86.5777 58.6463 86.5621 58.7459 86.5894C58.8435 86.6167 58.9255 86.6851 58.9704 86.7749L60.0187 88.8656C60.1065 89.0413 60.0363 89.256 59.8625 89.3477C59.7727 89.3946 57.6313 90.4956 56.542 90.6303C56.5264 90.6303 56.5127 90.6322 56.4971 90.6322ZM56.1301 88.4127L56.7196 89.8631C57.4438 89.6894 58.5605 89.1838 59.2125 88.8636L58.498 87.4366C57.7015 87.8641 56.6747 88.2311 56.1301 88.4107V88.4127Z" fill="black"/>
<path d="M65.3318 84.9864C65.3318 84.9864 63.612 86.7062 62.6613 87.1455L61.2227 85.4179C61.2227 85.4179 62.8839 84.2739 63.6999 83.3135L65.3338 84.9884L65.3318 84.9864Z" fill="white"/>
<path d="M62.6606 87.5045C62.5551 87.5045 62.4536 87.4596 62.3834 87.3737L60.9446 85.6461C60.8802 85.568 60.851 85.4665 60.8646 85.3669C60.8783 85.2674 60.933 85.1776 61.0169 85.119C61.0325 85.1073 62.6489 83.9907 63.4239 83.0771C63.4902 82.999 63.5839 82.9541 63.6854 82.9502C63.7889 82.9502 63.8846 82.9853 63.9548 83.0595L65.5887 84.7344C65.7273 84.875 65.7254 85.1014 65.5848 85.24C65.5126 85.3122 63.8084 87.0125 62.8109 87.4713C62.7621 87.4928 62.7113 87.5045 62.6606 87.5045ZM61.747 85.484L62.7503 86.6885C63.3867 86.3039 64.2984 85.4821 64.8235 84.9804L63.7089 83.8384C63.0803 84.4885 62.2116 85.1483 61.7489 85.486L61.747 85.484Z" fill="black"/>
<path d="M48.0176 89.6014C48.0176 89.6014 50.2782 90.5013 51.3245 90.5267L51.9628 88.3696C51.9628 88.3696 49.9853 87.9772 48.855 87.417L48.0176 89.6014Z" fill="white"/>
<path d="M51.3267 90.8853C51.3267 90.8853 51.3209 90.8853 51.3169 90.8853C50.2179 90.858 47.9808 89.9717 47.8851 89.9346C47.7016 89.8624 47.6118 89.6555 47.6821 89.47L48.5196 87.2856C48.5566 87.19 48.6308 87.1158 48.7245 87.0787C48.8182 87.0416 48.9237 87.0455 49.0154 87.0924C50.0891 87.6253 52.0138 88.0099 52.0334 88.0138C52.1329 88.0333 52.2188 88.0938 52.2715 88.1817C52.3242 88.2675 52.3379 88.373 52.3086 88.4706L51.6702 90.6276C51.6253 90.7818 51.4848 90.8853 51.3248 90.8853H51.3267ZM48.4844 89.392C49.1638 89.6457 50.3272 90.04 51.0632 90.1416L51.5083 88.6384C50.948 88.5116 49.8899 88.248 49.0564 87.9005L48.4844 89.392Z" fill="black"/>
<path d="M42.0137 86.1348C42.0137 86.1348 43.8935 87.6789 44.8833 88.0205L46.1463 86.1602C46.1463 86.1602 44.3816 85.1861 43.4738 84.3076L42.0137 86.1348Z" fill="white"/>
<path d="M44.8838 88.3808C44.8448 88.3808 44.8038 88.375 44.7667 88.3613C43.7282 88.0021 41.8659 86.4775 41.7858 86.4131C41.6336 86.2882 41.6101 86.0637 41.7331 85.9095L43.1933 84.0823C43.2577 84.0022 43.3514 83.9534 43.451 83.9476C43.5525 83.9437 43.652 83.9769 43.7243 84.0491C44.5852 84.8826 46.303 85.8353 46.3186 85.845C46.4065 85.8938 46.4709 85.9778 46.4943 86.0773C46.5177 86.1749 46.4983 86.2803 46.4416 86.3643L45.1786 88.2247C45.1103 88.3262 44.9971 88.3828 44.88 88.3828L44.8838 88.3808ZM42.5198 86.0773C43.0899 86.5263 44.0776 87.2545 44.7491 87.5746L45.6295 86.2784C45.1337 85.9875 44.2064 85.4156 43.5173 84.8299L42.5198 86.0773Z" fill="black"/>
<path d="M31.6364 31.6916C31.6364 31.6916 38.6639 23.8558 50.646 22.8954C50.646 22.8954 67.9378 20.2151 74.206 39.1252C74.206 39.1252 84.9251 78.9659 54.437 79.3192C54.437 79.3192 28.5013 79.6218 27.2363 58.2872C27.2363 58.2872 23.3945 43.0177 31.6344 31.6936L31.6364 31.6916Z" fill="white"/>
<path d="M58.9941 22.093C58.9941 22.093 72.8815 18.7452 83.1906 38.8324C83.1906 38.8324 87.8405 32.6637 95.5513 37.9227C95.5513 37.9227 97.968 39.7557 97.7631 43.0743C97.7631 43.0743 100.432 46.5178 102.958 42.8498C102.958 42.8498 102.876 46.2387 99.9592 46.3382C99.9592 46.3382 102.21 48.3235 100.365 51.7964C100.365 51.7964 97.2438 60.3681 87.1729 57.8869C87.1729 57.8869 93.81 53.1472 88.959 46.1216C88.959 46.1216 90.3919 50.0238 85.7966 53.442C85.7966 53.442 90.5012 47.4666 83.0676 41.7059C83.0676 41.7059 86.9855 56.0656 73.2894 54.5176" fill="white"/>
<path d="M90.6447 58.7285C89.5652 58.7285 88.3783 58.5899 87.0782 58.2698C86.9279 58.2327 86.8146 58.1117 86.7854 57.9613C86.7561 57.811 86.8186 57.6568 86.9435 57.567C87.1797 57.3972 92.2552 53.6589 89.5554 47.9295C89.5456 48.1286 89.5242 48.3394 89.491 48.56C89.2821 49.9128 88.513 51.9137 86.0318 53.7584C85.8737 53.8756 85.6512 53.858 85.5145 53.7175C85.3759 53.5749 85.3662 53.3544 85.4872 53.1982C85.5028 53.1767 87.1816 50.9943 86.8205 48.0954C86.5823 46.1882 85.534 44.3903 83.6952 42.7407C84.0778 44.8666 84.517 49.4677 81.9832 52.4252C80.1833 54.5256 77.2434 55.3631 73.2475 54.9102C73.0308 54.8868 72.8766 54.6916 72.9 54.4749C72.9234 54.2582 73.1206 54.1059 73.3353 54.1274C77.056 54.549 79.7636 53.8033 81.3839 51.9137C84.4253 48.3667 82.7074 41.8759 82.6898 41.8096C82.6449 41.6456 82.7093 41.4719 82.8518 41.3782C82.9924 41.2845 83.1779 41.2903 83.3126 41.3938C85.8659 43.3713 87.3105 45.5967 87.6072 48.0075C87.7809 49.4228 87.5291 50.6702 87.1856 51.6326C89.5086 48.9211 88.6399 46.3775 88.593 46.2526C88.5267 46.0671 88.6067 45.8583 88.7843 45.7685C88.96 45.6787 89.1767 45.7314 89.288 45.8934C93.3601 51.7927 89.6198 56.1986 88.0367 57.6705C91.7398 58.4025 94.8495 57.6666 97.2877 55.4763C99.232 53.7292 99.9933 51.6795 100.001 51.658C100.007 51.6404 100.015 51.6248 100.023 51.6072C101.692 48.4682 99.7845 46.7016 99.7025 46.6274C99.5834 46.52 99.5404 46.3502 99.5951 46.1999C99.6497 46.0496 99.7903 45.9461 99.9504 45.9402C101.317 45.8934 101.971 45.011 102.283 44.197C101.717 44.6655 101.112 44.9115 100.47 44.9291C100.444 44.9291 100.419 44.9291 100.395 44.9291C98.7303 44.9291 97.5083 43.3771 97.4575 43.3108C97.399 43.2346 97.3697 43.1409 97.3756 43.0453C97.563 40.0429 95.4898 38.3641 95.3259 38.2372C88.0347 33.271 83.6913 38.8248 83.5097 39.0649C83.4277 39.1723 83.295 39.2308 83.1622 39.2191C83.0275 39.2074 82.9085 39.1274 82.846 39.0063C79.9471 33.3589 74.8716 26.0521 67.151 23.3133C62.544 21.6794 59.1259 22.4622 59.0908 22.47C58.8799 22.5208 58.6672 22.39 58.6164 22.1792C58.5657 21.9683 58.6964 21.7555 58.9073 21.7048C59.0537 21.6697 62.548 20.8595 67.3619 22.552C75.1215 25.2811 80.2692 32.4238 83.2813 38.1377C84.6049 36.7751 89.1357 33.0602 95.7788 37.5911C95.7846 37.595 95.7885 37.5989 95.7943 37.6028C95.8978 37.6809 98.3028 39.5432 98.1681 42.934C98.4512 43.2522 99.3687 44.1716 100.45 44.1404C101.223 44.117 101.959 43.6055 102.636 42.6217C102.736 42.4772 102.918 42.4167 103.082 42.4713C103.248 42.526 103.359 42.6822 103.353 42.8559C103.326 44.0252 102.72 46.1472 100.71 46.6313C101.309 47.5195 102.086 49.374 100.725 51.9547C100.622 52.226 99.7981 54.2738 97.8089 56.0619C96.3448 57.3777 94.0218 58.7246 90.6466 58.7246L90.6447 58.7285Z" fill="black"/>
<path d="M96.6523 44.3398C96.6523 44.3398 97.1814 46.1865 99.8616 46.3661L96.6523 44.3398Z" fill="white"/>
<path d="M99.8614 46.7602C99.8614 46.7602 99.8438 46.7602 99.8341 46.7602C96.9117 46.565 96.2968 44.5348 96.2715 44.4489C96.2109 44.2401 96.3319 44.0214 96.5408 43.9609C96.7497 43.9004 96.9664 44.0214 97.0269 44.2284C97.0484 44.3006 97.5403 45.8154 99.8848 45.9716C100.101 45.9853 100.265 46.1746 100.252 46.3913C100.238 46.6002 100.064 46.7583 99.8594 46.7583L99.8614 46.7602Z" fill="black"/>
<path d="M93.7125 52.4385C93.7125 52.4385 92.8536 56.7858 89.2422 58.1347L93.7125 52.4385Z" fill="white"/>
<path d="M89.2417 58.5289C89.0816 58.5289 88.9312 58.4312 88.8727 58.2731C88.7966 58.0701 88.9 57.8417 89.103 57.7656C92.4587 56.5123 93.3157 52.4012 93.3235 52.3602C93.3665 52.1474 93.5734 52.0088 93.7861 52.0518C93.9989 52.0947 94.1375 52.3016 94.0965 52.5144C94.0594 52.7018 93.1517 57.0941 89.3783 58.5035C89.3334 58.5211 89.2866 58.5289 89.2397 58.5289H89.2417Z" fill="black"/>
<path d="M41.0921 23.9575C41.0921 23.9575 27.5074 21.9469 19.4217 43.8593C19.4217 43.8593 13.9695 38.3875 7.05318 44.6558C7.05318 44.6558 4.90977 46.8031 5.56958 50.0631C5.56958 50.0631 3.39883 53.8404 0.392578 50.5531C0.392578 50.5531 0.939178 53.899 3.84197 53.5964C3.84197 53.5964 1.884 55.8726 4.18945 59.0584C4.18945 59.0584 8.45676 67.1206 18.0924 63.2808C18.0924 63.2808 10.8676 59.4977 14.7094 51.8727C14.7094 51.8727 13.8251 55.935 18.8478 58.6914C18.8478 58.6914 13.3663 53.4188 19.9391 46.6938C19.9391 46.6938 18.149 62.0042 31.5014 58.5899" fill="white"/>
<path d="M13.1329 64.7035C10.601 64.7035 8.65866 63.8485 7.30584 62.9349C5.0902 61.4376 3.9931 59.5207 3.8545 59.2669C2.15226 56.8971 2.66764 54.9527 3.14005 53.9923C1.08447 53.7893 0.192348 51.7689 0.00494507 50.6171C-0.0223845 50.4453 0.0654576 50.2755 0.221627 50.1994C0.377795 50.1232 0.567149 50.1603 0.684276 50.2872C1.49245 51.1715 2.28892 51.5736 3.06196 51.4916C4.14343 51.3726 4.91841 50.338 5.15266 49.9846C4.55531 46.6465 6.68117 44.4699 6.77292 44.3782C6.77683 44.3743 6.78267 44.3684 6.78658 44.3645C12.7542 38.9552 17.7575 42.0317 19.2469 43.1971C21.6207 36.9543 25.9134 28.9916 33.1069 25.3412C37.5753 23.0748 41.0012 23.5472 41.1457 23.5687C41.3604 23.5999 41.5088 23.801 41.4775 24.0157C41.4463 24.2304 41.2433 24.3788 41.0305 24.3476C40.968 24.3378 37.6455 23.9025 33.4114 26.0693C29.4701 28.0858 23.9066 32.8314 19.7876 43.9955C19.7408 44.1224 19.6334 44.2161 19.5026 44.2435C19.3718 44.2728 19.2352 44.2318 19.1395 44.1361C18.9268 43.9253 13.8649 39.0177 7.32145 44.9384C7.1809 45.0829 5.35372 47.0311 5.95107 49.9827C5.97059 50.0764 5.95497 50.174 5.90617 50.2579C5.86323 50.3321 4.83643 52.087 3.14395 52.2744C2.50561 52.3447 1.87116 52.1847 1.24648 51.7981C1.66814 52.5614 2.43728 53.3462 3.79595 53.2037C3.95407 53.188 4.11024 53.27 4.18637 53.4125C4.26251 53.555 4.24103 53.7288 4.13562 53.8518C4.06534 53.9338 2.41972 55.9464 4.50457 58.8257C4.51433 58.8414 4.5241 58.857 4.53386 58.8726C4.54362 58.8921 5.59775 60.8403 7.7724 62.3005C10.4819 64.1198 13.6541 64.4166 17.2089 63.1867C15.4383 61.9452 11.1281 58.0956 14.353 51.6927C14.4428 51.5151 14.6497 51.4331 14.8371 51.4995C15.0245 51.5658 15.1319 51.761 15.0909 51.9543C15.0635 52.0831 14.5521 54.7224 17.2245 57.0884C16.7521 56.1826 16.3305 54.982 16.309 53.555C16.2719 51.1266 17.3963 48.7236 19.6529 46.4142C19.7701 46.2932 19.9516 46.2619 20.1039 46.3342C20.2561 46.4064 20.3459 46.5684 20.3264 46.7344C20.3245 46.7519 20.1215 48.5557 20.385 50.7401C20.6251 52.7215 21.3122 55.431 23.2195 57.0962C25.0993 58.7379 27.8518 59.1107 31.4008 58.203C31.6116 58.1503 31.8263 58.2772 31.881 58.488C31.9356 58.6989 31.8068 58.9136 31.596 58.9682C27.7796 59.9443 24.787 59.5129 22.7002 57.6896C19.61 54.9879 19.3933 50.0295 19.4694 47.7885C17.8687 49.6781 17.0723 51.6068 17.0976 53.5336C17.1386 56.4539 19.0985 58.3865 19.1181 58.406C19.2606 58.5427 19.2781 58.7652 19.161 58.9233C19.0439 59.0815 18.8292 59.1303 18.6554 59.0346C15.9439 57.5471 14.9074 55.6711 14.515 54.3593C14.4506 54.1446 14.4018 53.9396 14.3647 53.7444C12.475 59.7901 18.0171 62.7963 18.2747 62.931C18.4114 63.0033 18.4934 63.1477 18.4856 63.3C18.4778 63.4522 18.3802 63.5889 18.2377 63.6455C16.3305 64.4049 14.6282 64.7035 13.1329 64.7035Z" fill="black"/>
<path d="M6.84029 51.1621C6.84029 51.1621 6.5709 53.0635 3.93945 53.6101L6.84029 51.1621Z" fill="white"/>
<path d="M3.93997 54.0025C3.75647 54.0025 3.5925 53.8736 3.55541 53.6882C3.51051 53.4754 3.64715 53.2665 3.86188 53.2236C6.16732 52.7453 6.44258 51.17 6.45234 51.1036C6.48552 50.8908 6.68464 50.7425 6.89938 50.7737C7.11411 50.8069 7.26246 51.0021 7.23123 51.2168C7.21951 51.3066 6.88962 53.3993 4.02001 53.9947C3.99268 54.0005 3.96535 54.0025 3.93997 54.0025Z" fill="black"/>
<path d="M10.8672 58.7812C10.8672 58.7812 12.3157 62.9705 16.0754 63.8099L10.8672 58.7812Z" fill="white"/>
<path d="M16.077 64.204C16.0477 64.204 16.0204 64.2001 15.9911 64.1943C12.0596 63.3158 10.5584 59.0895 10.4959 58.9099C10.4256 58.7049 10.535 58.4804 10.7399 58.4082C10.9449 58.3379 11.1694 58.4453 11.2416 58.6522C11.2612 58.7069 12.6745 62.6462 16.1648 63.4271C16.3776 63.4739 16.5104 63.6848 16.4635 63.8976C16.4225 64.081 16.2605 64.206 16.0789 64.206L16.077 64.204Z" fill="black"/>
<path d="M67.0545 7.13809C67.0545 7.13809 66.3576 7.29426 64.6886 7.56365C64.6886 7.56365 66.5938 10.2517 64.3509 11.8173C64.3509 11.8173 60.269 8.11805 57.6531 15.1905C57.6531 15.1905 60.3041 18.7512 57.2549 22.0854L56.0212 21.8785C56.0212 21.8785 44.8141 20.4027 46.2079 9.87691C46.2079 9.87691 47.59 -1.66202 61.286 2.62677C61.286 2.62677 65.0146 3.59892 66.383 0.395508C66.383 0.395508 67.7514 2.72047 64.6476 4.9283C64.6476 4.9283 66.1448 5.04543 67.0545 7.13809Z" fill="white"/>
<path d="M57.2533 22.4778C57.2319 22.4778 57.2104 22.4778 57.1889 22.4719L55.9552 22.265C55.8498 22.2513 53.0485 21.8668 50.378 20.1548C47.8852 18.556 45.0682 15.4658 45.8159 9.8242C45.8374 9.64071 46.4093 5.20746 50.1613 2.78099C52.9606 0.971379 56.738 0.791787 61.3937 2.24611C61.6241 2.30467 64.8236 3.04256 66.0222 0.239334C66.0808 0.102686 66.2115 0.0109425 66.3599 0.00118192C66.5044 -0.0105307 66.6488 0.0655997 66.725 0.194439C66.7386 0.219816 68.0485 2.52721 65.4737 4.77995C66.0593 5.06495 66.8499 5.67402 67.418 6.97998C67.4648 7.08734 67.4609 7.21032 67.4082 7.31574C67.3555 7.42115 67.2579 7.49533 67.1427 7.52266C67.1173 7.52851 66.5747 7.64955 65.3195 7.85843C65.6045 8.41868 65.9617 9.3557 65.7958 10.3122C65.6669 11.0501 65.257 11.6631 64.5776 12.1375C64.4273 12.2429 64.2243 12.2292 64.0877 12.1062C64.076 12.0945 62.7739 10.9467 61.2844 11.3156C60.0214 11.628 58.9478 12.9144 58.0947 15.1378C58.6022 15.948 60.3728 19.2588 57.5461 22.3489C57.472 22.4309 57.3646 22.4778 57.2553 22.4778H57.2533ZM55.7073 2.06456C53.72 2.06456 52.01 2.52526 50.5908 3.44471C47.1453 5.67207 46.6046 9.88277 46.6006 9.92572C46.0443 14.1208 47.4518 17.334 50.7841 19.4813C53.3081 21.1074 56.0469 21.4861 56.0742 21.49L57.1069 21.6618C59.6739 18.6614 57.4368 15.5576 57.3392 15.4248C57.2611 15.3174 57.2396 15.1788 57.2865 15.0539C58.2489 12.4517 59.5334 10.9369 61.1048 10.5523C62.5689 10.1931 63.83 10.935 64.3551 11.3195C64.7221 11.0013 64.9407 10.6285 65.0188 10.1853C65.2238 9.02579 64.3766 7.80572 64.3688 7.794C64.2907 7.68273 64.2751 7.53828 64.3278 7.41334C64.3805 7.28841 64.4937 7.19862 64.6284 7.17714C65.4951 7.03854 66.1003 6.92922 66.479 6.85699C65.6962 5.44952 64.6635 5.33045 64.6167 5.32459C64.4527 5.30897 64.3161 5.19184 64.2731 5.03372C64.2321 4.8756 64.2887 4.70577 64.4234 4.61207C66.1335 3.3959 66.3638 2.17388 66.2818 1.4028C64.5581 3.8527 61.2278 3.02305 61.1907 3.01329C59.18 2.38471 57.351 2.07041 55.7112 2.07041L55.7073 2.06456Z" fill="black"/>
<path d="M48.8635 17.8844C48.8635 17.8844 45.2208 13.3711 40.5416 15.415C40.5416 15.415 37.836 16.1861 39.7627 20.1059C39.7627 20.1059 41.0043 21.6969 40.2879 23.5787C40.2879 23.5787 39.0932 26.6708 42.3552 28.0822C42.3552 28.0822 47.7176 29.5775 50.4447 22.79C50.4447 22.79 51.4032 19.8716 48.8635 17.8824V17.8844Z" fill="#F3A7B9"/>
<path d="M43.5946 28.6059C42.7923 28.6059 42.2672 28.4673 42.2496 28.4634C42.232 28.4595 42.2164 28.4517 42.1989 28.4458C38.6304 26.9017 39.9071 23.4738 39.9207 23.4386C40.5435 21.7969 39.4952 20.407 39.4503 20.3484C39.4347 20.327 39.4191 20.3035 39.4073 20.2801C38.6382 18.7145 38.4723 17.4125 38.9174 16.413C39.3527 15.435 40.2253 15.1031 40.4009 15.0465C45.0567 13.03 48.7599 17.1606 49.1366 17.5999C51.8227 19.7335 50.8272 22.8823 50.8174 22.9135C50.8155 22.9213 50.8116 22.9291 50.8096 22.9369C48.8341 27.8563 45.4608 28.6039 43.5946 28.6039V28.6059ZM42.4858 27.7098C42.9075 27.8172 47.5808 28.844 50.0737 22.6578C50.1381 22.4489 50.8545 19.9424 48.6213 18.1953C48.5979 18.1777 48.5764 18.1562 48.5569 18.1328C48.5491 18.1211 47.6589 17.0357 46.2378 16.2119C44.3755 15.1324 42.5112 14.984 40.6996 15.7766C40.684 15.7844 40.6664 15.7903 40.6508 15.7942C40.6254 15.802 39.9539 16.0109 39.6338 16.7448C39.3039 17.5023 39.4659 18.5935 40.1004 19.8995C40.2956 20.1669 41.3887 21.791 40.6567 23.7197C40.6137 23.833 39.6533 26.4644 42.4858 27.7098Z" fill="black"/>
<path d="M53.5828 17.5093C53.5828 17.5093 56.468 12.4787 61.4088 13.7554C61.4088 13.7554 64.2022 14.0912 62.9197 18.2648C62.9197 18.2648 61.9456 20.0334 62.949 21.7766C62.949 21.7766 64.6181 24.6404 61.6196 26.5495C61.6196 26.5495 56.5597 28.8725 52.796 22.6024C52.796 22.6024 51.3886 19.8714 53.5828 17.5073V17.5093Z" fill="#F3A7B9"/>
<path d="M59.3691 27.3525C57.4443 27.3525 54.7074 26.5541 52.4586 22.808C52.4547 22.8001 52.4508 22.7923 52.4469 22.7865C52.4313 22.7572 50.9516 19.8036 53.2668 17.2737C53.5694 16.7798 56.5736 12.1143 61.489 13.3714C61.6725 13.4007 62.5862 13.5901 63.1718 14.4861C63.7691 15.4036 63.8121 16.7135 63.2987 18.3825C63.2908 18.4079 63.2811 18.4333 63.2674 18.4567C63.2323 18.5211 62.4163 20.0594 63.2928 21.582C63.3104 21.6113 65.1122 24.7952 61.8326 26.884C61.817 26.8937 61.8014 26.9015 61.7858 26.9093C61.7623 26.9191 60.7863 27.3505 59.371 27.3505L59.3691 27.3525ZM53.1418 22.4156C56.5795 28.1275 61.0283 26.3803 61.4324 26.2046C64.0326 24.5278 62.6681 22.0798 62.6096 21.9764C61.5808 20.1882 62.4046 18.4098 62.5549 18.117C62.9765 16.7271 62.9629 15.6242 62.5178 14.9273C62.0864 14.2538 61.3895 14.1523 61.3602 14.1484C61.3446 14.1464 61.327 14.1425 61.3114 14.1386C59.3984 13.6447 57.581 14.082 55.9119 15.4446C54.6372 16.4831 53.9324 17.6954 53.9246 17.7071C53.909 17.7325 53.8914 17.7578 53.8719 17.7793C51.9432 19.8564 53.0442 22.2165 53.1418 22.4156Z" fill="black"/>
<path d="M51.5521 25.1633C53.7446 24.9888 55.3692 22.9289 55.1809 20.5624C54.9925 18.1958 53.0626 16.4188 50.8701 16.5933C48.6777 16.7677 47.0531 18.8276 47.2414 21.1942C47.4297 23.5607 49.3597 25.3377 51.5521 25.1633Z" fill="#F3A7B9"/>
<path d="M51.2446 25.6065C48.9762 25.6065 47.0319 23.7247 46.8367 21.2631C46.7371 20.0196 47.0944 18.8132 47.842 17.8645C48.5956 16.9079 49.6575 16.3301 50.8268 16.2384C51.9961 16.1427 53.1362 16.5487 54.0322 17.3725C54.9204 18.1905 55.4631 19.3246 55.5607 20.5681C55.6602 21.8116 55.303 23.018 54.5553 23.9668C53.8018 24.9233 52.7418 25.5011 51.5705 25.5929C51.4612 25.6007 51.3519 25.6065 51.2446 25.6065ZM51.1567 17.0134C51.0689 17.0134 50.9791 17.0173 50.8893 17.0231C49.9386 17.0992 49.0758 17.5717 48.4589 18.3525C47.8342 19.1431 47.5375 20.1543 47.6195 21.2006C47.7893 23.3479 49.5326 24.9623 51.5062 24.8081C52.4568 24.732 53.3197 24.2596 53.9365 23.4787C54.5612 22.6881 54.8579 21.6769 54.7759 20.6306C54.692 19.5843 54.2391 18.6336 53.4973 17.9504C52.8336 17.3394 52.0098 17.0114 51.1548 17.0114L51.1567 17.0134Z" fill="black"/>
<path d="M46.5674 56.1152C44.3479 58.567 41.8609 57.6612 41.8609 57.6612C38.9464 56.9097 38.6145 53.4095 38.6145 53.4095C38.3959 50.9753 39.7019 49.7454 39.7019 49.7454C41.0371 48.2599 42.9833 48.2442 42.9833 48.2442C44.5938 48.1154 45.8491 49.0817 45.8491 49.0817C47.3873 50.0948 47.4927 52.617 47.4927 52.617C47.7797 54.9829 46.5674 56.1152 46.5674 56.1152Z" fill="white"/>
<path d="M46.7764 49.9319C46.7764 49.9319 45.4392 47.2536 41.8688 47.7396C41.8688 47.7396 39.4033 47.9309 38.1227 50.0724C38.1227 50.0724 36.8578 51.7747 37.785 54.9956C37.785 54.9956 38.6244 57.8301 41.9606 58.1522C41.9606 58.1522 45.3065 55.757 47.0283 55.4251C47.0283 55.4251 48.301 53.0181 46.7784 49.9338L46.7764 49.9319ZM46.3489 55.4817C44.8848 55.7374 42.1636 57.7032 42.1636 57.7032C38.1461 57.4143 38.2184 53.352 38.2184 53.352C38.0056 50.9684 39.2823 49.764 39.2823 49.764C40.5882 48.3077 42.4954 48.294 42.4954 48.294C44.0727 48.1672 45.3006 49.1139 45.3006 49.1139C46.8077 50.1056 46.9111 52.577 46.9111 52.577C47.1922 54.8941 46.3469 55.4798 46.3469 55.4798L46.3489 55.4817Z" fill="black"/>
<path d="M42.8739 48.9755C42.8739 48.9755 41.527 48.8603 40.6309 49.9164C40.6309 49.9164 39.3835 51.0174 39.7369 53.6371C39.7369 53.6371 40.0453 56.4462 42.8173 56.8249C42.8173 56.8249 45.2281 57.1763 46.3213 54.4141C46.3213 54.4141 46.9089 52.6787 45.9172 50.6602C45.9172 50.6602 45.0408 48.8662 42.8739 48.9755Z" fill="black"/>
<path d="M41.6819 50.6366C41.6819 50.6366 41.2602 51.0524 41.3754 51.4916C41.3754 51.4916 41.4535 52.1475 42.0977 52.2334C42.0977 52.2334 42.8844 52.3232 43.1518 51.4213C43.1518 51.4213 43.3041 50.8006 42.7536 50.4746C42.7536 50.4746 42.1855 50.1622 41.6838 50.6385L41.6819 50.6366Z" fill="white"/>
<path d="M42.8963 49.8384C42.8963 49.8384 42.4746 49.9243 42.3692 50.2406C42.3692 50.2406 42.1564 50.6739 42.5156 50.9804C42.5156 50.9804 42.9607 51.3474 43.4819 50.9004C43.4819 50.9004 43.8216 50.5802 43.6146 50.1625C43.6146 50.1625 43.3902 49.7467 42.8963 49.8384Z" fill="white"/>
<path d="M44.6527 50.5257C44.6527 50.5257 44.4399 50.7345 44.4985 50.9571C44.4985 50.9571 44.5375 51.2889 44.8635 51.3319C44.8635 51.3319 45.2618 51.3768 45.3965 50.9219C45.3965 50.9219 45.4726 50.6076 45.1954 50.4437C45.1954 50.4437 44.9084 50.2855 44.6547 50.5257H44.6527Z" fill="white"/>
<path d="M42.708 52.5321C42.708 52.5321 41.935 53.2934 42.1458 54.0996C42.1458 54.0996 42.2903 55.3041 43.4674 55.4583C43.4674 55.4583 44.91 55.6223 45.4 53.9688C45.4 53.9688 45.6791 52.8308 44.6699 52.2315C44.6699 52.2315 43.6274 51.6614 42.708 52.5301V52.5321Z" fill="white"/>
<path d="M41.1911 52.2285C41.1911 52.2285 41.1989 52.9762 40.5996 53.1206C40.5996 53.1206 41.2926 53.1714 41.3277 53.8702C41.3277 53.8702 41.4702 53.0992 42.0051 53.0133C42.0051 53.0133 41.3375 53.1323 41.1911 52.2285Z" fill="white"/>
<path d="M41.0899 36.9114C41.0899 36.9114 37.8923 35.2599 35.5322 39.0353C35.5322 39.0353 33.949 41.4441 34.4312 43.3572C34.4312 43.3572 34.8041 40.4447 36.805 38.5453C36.805 38.5453 38.4272 36.8274 40.881 37.5087C40.881 37.5087 41.4705 37.374 41.0918 36.9114H41.0899Z" fill="black"/>
<path d="M60.5039 35.3674C60.5039 35.3674 63.4008 33.2318 66.3271 36.5855C66.3271 36.5855 68.2714 38.7133 68.0976 40.6791C68.0976 40.6791 67.2699 37.8602 64.9937 36.3025C64.9937 36.3025 63.1217 34.8618 60.8045 35.9237C60.8045 35.9237 60.2013 35.8847 60.5019 35.3674H60.5039Z" fill="black"/>
<path d="M48.7588 57.2603C50.0081 56.4951 52.499 55.4605 55.5755 56.743C56.1163 56.9694 56.0968 57.7542 55.8098 58.2305C55.5268 58.701 54.7127 59.6126 53.2604 60.0128C52.5557 60.206 51.7924 60.2021 51.1013 60.0323C50.3068 59.8371 49.1961 59.4545 48.7627 58.783C48.464 58.3242 48.2512 57.5726 48.7588 57.2623V57.2603Z" fill="#303030"/>
<path d="M52.1525 60.4564C51.7757 60.4564 51.395 60.4114 51.03 60.3216C50.1477 60.105 48.9939 59.6892 48.5118 58.9454C48.2834 58.594 48.0784 58.0572 48.1819 57.5985C48.2385 57.3447 48.3849 57.1417 48.6035 57.007C49.8704 56.23 52.4765 55.129 55.6897 56.4682C55.9552 56.5794 56.1465 56.7903 56.2421 57.0792C56.3729 57.4774 56.3026 57.9889 56.0664 58.3832C55.9259 58.6175 55.1353 59.8063 53.3413 60.3002C52.9645 60.4036 52.5604 60.4564 52.1563 60.4564H52.1525ZM52.6522 56.437C50.9968 56.437 49.685 57.0421 48.9119 57.5145C48.83 57.5633 48.7831 57.6317 48.7616 57.7293C48.7031 57.9889 48.8436 58.3637 49.0096 58.6194C49.3024 59.0723 50.0696 59.4705 51.1706 59.7419C51.8323 59.9058 52.5467 59.9 53.1792 59.7243C54.7878 59.2812 55.4788 58.1978 55.553 58.0748C55.6994 57.8308 55.7502 57.497 55.674 57.2647C55.633 57.1417 55.5628 57.0616 55.4593 57.0167C54.4501 56.5951 53.5052 56.435 52.6522 56.435V56.437Z" fill="black"/>
<path d="M46.252 57.5338C46.252 57.5338 50.9878 52.9971 58.3804 56.5695C58.3804 56.5695 52.0048 53.5066 46.252 57.5338Z" fill="black"/>
<path d="M54.4508 58.3855C55.0301 58.3394 55.4722 57.957 55.4383 57.5314C55.4045 57.1058 54.9074 56.7982 54.3281 56.8443C53.7489 56.8904 53.3068 57.2727 53.3406 57.6983C53.3745 58.1239 53.8715 58.4315 54.4508 58.3855Z" fill="white"/>
<path d="M47.168 20.3252C47.0763 20.3252 46.9845 20.2861 46.9201 20.212C46.2915 19.478 45.6785 19.0875 45.1476 19.0817C44.6869 19.0719 44.4214 19.3647 44.4097 19.3765C44.2906 19.5092 44.0856 19.5248 43.949 19.4057C43.8143 19.2886 43.7967 19.0856 43.9138 18.9489C43.9314 18.9275 44.3667 18.4277 45.1319 18.4258C45.8737 18.4258 46.641 18.8826 47.414 19.7845C47.5311 19.9211 47.5155 20.128 47.3788 20.2451C47.3163 20.2979 47.2422 20.3232 47.1661 20.3232L47.168 20.3252Z" fill="black"/>
<path d="M55.0899 19.6963C55.0313 19.6963 54.9728 19.6807 54.9201 19.6475C54.7659 19.5538 54.717 19.3527 54.8127 19.1985C55.4335 18.1853 56.1186 17.6134 56.8526 17.4962C57.6062 17.3752 58.1176 17.8008 58.1391 17.8203C58.2757 17.9374 58.2933 18.1443 58.1762 18.281C58.0591 18.4176 57.8561 18.4352 57.7175 18.32C57.6999 18.3064 57.3973 18.0682 56.9424 18.1443C56.4173 18.2341 55.8747 18.7163 55.3691 19.5401C55.3066 19.6416 55.1992 19.6963 55.0899 19.6963Z" fill="black"/>
<path d="M45.3116 24.0606C44.7045 24.0606 44.3121 23.7326 44.2926 23.7151C44.1559 23.5979 44.1383 23.391 44.2554 23.2544C44.3726 23.1177 44.5776 23.1002 44.7142 23.2153C44.7318 23.229 45.0363 23.4672 45.4892 23.391C46.0143 23.3012 46.557 22.819 47.0626 21.9953C47.1563 21.841 47.3574 21.7922 47.5116 21.8879C47.6658 21.9816 47.7146 22.1827 47.6189 22.3369C46.9982 23.35 46.313 23.922 45.579 24.0391C45.4853 24.0547 45.3955 24.0606 45.3116 24.0606Z" fill="black"/>
<path d="M57.2961 23.1089C56.5543 23.1089 55.7871 22.6521 55.0141 21.7502C54.897 21.6135 54.9126 21.4066 55.0492 21.2895C55.1859 21.1724 55.3928 21.188 55.5099 21.3246C56.1424 22.0645 56.7612 22.4549 57.2942 22.4549C57.7548 22.4549 58.0145 22.164 58.0164 22.1621C58.1335 22.0254 58.3405 22.0079 58.4771 22.125C58.6138 22.2421 58.6313 22.449 58.5142 22.5857C58.4967 22.6072 58.0613 23.1069 57.2942 23.1089H57.2961Z" fill="black"/>
<path d="M82.2422 37.6708C82.2422 37.6708 83.9269 36.2184 85.0415 38.438C85.0415 38.438 86.0956 40.7883 84.3212 42.7209C84.3212 42.7209 82.7478 43.3534 82.9235 41.7156C82.9235 41.7156 83.2007 39.2598 82.2422 37.6708Z" fill="#F3A7B9"/>
<path d="M83.7021 43.2367C83.4542 43.2367 83.1848 43.1821 82.9583 43.0122C82.6089 42.7487 82.4645 42.2977 82.5308 41.677C82.5328 41.6516 82.7807 39.3286 81.9042 37.8762C81.8046 37.7122 81.8398 37.4995 81.9842 37.3745C82.0194 37.3452 82.8354 36.6522 83.8036 36.8455C84.4498 36.9743 84.9846 37.4507 85.3926 38.2608C85.4473 38.3818 86.5365 40.8883 84.6098 42.9868C84.5708 43.0298 84.522 43.0649 84.4673 43.0864C84.4107 43.1098 84.0808 43.2348 83.7021 43.2348V43.2367ZM82.7573 37.8001C83.5615 39.4633 83.3253 41.6633 83.3136 41.7629C83.2804 42.0791 83.3215 42.2997 83.4327 42.3836C83.5772 42.493 83.8973 42.4461 84.0945 42.3856C85.5761 40.6892 84.7191 38.6844 84.6821 38.5985C84.399 38.0343 84.0496 37.6986 83.6552 37.6185C83.3136 37.5483 82.9778 37.6771 82.7573 37.7981V37.8001Z" fill="black"/>
<path d="M20.1085 42.6102C20.1085 42.6102 18.215 41.4429 17.4654 43.8088C17.4654 43.8088 16.7958 46.2958 18.8534 47.9258C18.8534 47.9258 20.5068 48.3026 20.0754 46.7136C20.0754 46.7136 19.4136 44.332 20.1085 42.6122V42.6102Z" fill="#F3A7B9"/>
<path d="M19.2381 48.3587C18.998 48.3587 18.8087 48.3197 18.7657 48.3099C18.7091 48.2962 18.6545 48.2709 18.6096 48.2338C16.3744 46.4652 17.0557 43.8181 17.085 43.7068C17.3641 42.8245 17.817 42.2701 18.4358 42.0397C19.3631 41.6962 20.2786 42.2506 20.3157 42.274C20.4797 42.3755 20.546 42.5785 20.4738 42.7562C19.8374 44.3296 20.4484 46.5823 20.4543 46.6057C20.6183 47.2109 20.548 47.6774 20.2435 47.9937C19.9604 48.2884 19.5524 48.3568 19.2362 48.3568L19.2381 48.3587ZM19.0234 47.5564C19.2186 47.5837 19.5485 47.5857 19.6774 47.449C19.773 47.3495 19.7789 47.123 19.6949 46.8146C19.6696 46.7209 19.0878 44.5853 19.6188 42.8167C19.3826 42.7308 19.0332 42.6566 18.7052 42.7796C18.3285 42.9221 18.0376 43.3086 17.8404 43.9274C17.8229 43.9997 17.2919 46.1138 19.0234 47.5544V47.5564Z" fill="black"/>
<path d="M32.6173 52.0055C32.6173 52.0055 30.8526 50.6585 28.7599 51.9742L30.0796 53.2548C30.0796 53.2548 28.4671 52.5384 26.595 54.512L27.2139 55.0722C27.2139 55.0722 22.5444 55.8824 21.5781 60.7275C21.5781 60.7275 21.8924 62.5625 23.5654 62.7674C23.5654 62.7674 22.439 63.0603 21.664 64.3721C21.664 64.3721 23.4307 76.809 33.5992 76.7114C33.5992 76.7114 32.6974 77.6952 31.5964 77.8846C31.5964 77.8846 39.194 84.9903 52.9427 80.1432" fill="white"/>
<path d="M32.6164 52.0058C31.4725 51.2893 29.9537 51.3635 28.8703 52.1502L28.9054 51.8242L30.2817 53.0482C30.5081 53.2473 30.2953 53.6202 30.0142 53.5343C29.7448 53.4484 29.4286 53.4269 29.1416 53.4679C28.2534 53.5831 27.5058 54.1785 26.883 54.7836L26.8616 54.2195L27.4804 54.7797C27.6424 54.9261 27.6541 55.174 27.5077 55.3361C27.3223 55.5157 27.0568 55.4805 26.8167 55.5801C26.3501 55.7109 25.8582 55.9354 25.4248 56.154C24.2496 56.7845 23.2385 57.7352 22.6333 58.9241C22.5669 59.0509 22.4596 59.2364 22.4147 59.3711L22.2351 59.8376C22.1277 60.1031 22.0477 60.5228 21.9657 60.8039V60.6595C22.1355 61.4794 22.7329 62.2856 23.6133 62.3754C23.8339 62.4105 23.9842 62.6213 23.9432 62.84C23.8963 63.1133 23.6542 63.1387 23.4337 63.2382C22.8324 63.5174 22.3424 64.0034 22.0047 64.5715L22.0555 64.3158C22.9476 69.3678 25.8875 75.0446 31.3475 76.1026C32.0815 76.2705 32.8428 76.2998 33.5983 76.3174C33.8208 76.3115 34.0063 76.4931 34.0004 76.7175C33.9712 77.0416 33.612 77.2153 33.4148 77.4164C32.8994 77.8244 32.3411 78.1484 31.6657 78.2753L31.8687 77.5999C34.6837 79.9287 38.3536 81.0805 41.9631 81.3792C45.6662 81.6095 49.3772 81.2171 52.9457 80.1474C50.3474 81.225 47.5695 81.9531 44.7507 82.201C40.0227 82.4177 35.035 81.2308 31.3299 78.1758C31.0801 77.9649 31.2167 77.5374 31.533 77.5003C32.1928 77.3793 32.8428 76.9284 33.3113 76.4482L33.6061 77.108C28.2788 77.1861 24.5874 73.721 22.6274 69.0223C22.0067 67.5368 21.544 66.0278 21.2766 64.4309C21.261 64.3392 21.2824 64.2494 21.3273 64.1752C21.4484 63.9781 21.5772 63.7848 21.7275 63.6052C22.1902 63.0508 22.77 62.6096 23.4669 62.389L23.5176 63.1621C23.2248 63.1133 22.9281 63.0469 22.6606 62.8966C21.8603 62.4808 21.3742 61.6609 21.1887 60.7981C21.179 60.7493 21.179 60.6985 21.1907 60.6536C21.2805 60.3413 21.3683 59.8825 21.4874 59.5839C21.5167 59.4902 21.7099 59.0177 21.7392 58.9338C22.0828 58.2193 22.5181 57.5478 23.0608 56.97C24.1637 55.83 25.5947 55.0237 27.1466 54.6899L26.9494 55.3692L26.3286 54.8109L26.3208 54.8031C26.1627 54.6606 26.151 54.4186 26.2916 54.2605C26.2955 54.2566 26.3013 54.2507 26.3052 54.2448L26.6742 53.8779C27.3301 53.2727 28.1812 52.853 29.087 52.8139C29.4696 52.8022 29.8327 52.8413 30.1938 52.9955L29.8756 53.4679L28.6126 52.1287L28.5911 52.1053C28.3627 51.7949 28.9425 51.6876 29.1299 51.5704C30.2641 51.0805 31.6423 51.2503 32.6144 52.0116L32.6164 52.0058Z" fill="black"/>
<path d="M71.7282 48.8957C71.7282 48.8957 73.2567 47.2872 75.5309 48.2554L74.4299 49.7292C74.4299 49.7292 75.9096 48.7668 78.0687 50.4203L77.5455 51.0703C77.5455 51.0703 82.2833 51.1328 84.005 55.7632C84.005 55.7632 83.9836 57.6236 82.3633 58.0921C82.3633 58.0921 83.5209 58.2034 84.495 59.3766C84.495 59.3766 84.7156 71.9365 74.6583 73.4474C74.6583 73.4474 75.7046 74.277 76.8212 74.2907C76.8212 74.2907 70.4418 82.5071 56.0996 79.8932" fill="white"/>
<path d="M71.7282 48.8956C72.6964 47.8414 74.2933 47.5408 75.6129 48.064C75.7144 48.0933 75.771 48.2006 75.7417 48.3002C75.7359 48.3334 75.7144 48.3529 75.6988 48.3802L74.6641 49.9029L74.2737 49.4871C75.3962 48.8155 76.8505 49.1103 77.889 49.8014L78.3107 50.1059C78.4923 50.2367 78.5235 50.4983 78.379 50.6681L77.8559 51.3181L77.5552 50.6779C77.9515 50.6935 78.299 50.7462 78.6757 50.8223C80.6767 51.2166 82.5487 52.3938 83.636 54.137L83.9172 54.6192C84.0929 54.8886 84.2353 55.3376 84.3798 55.6284C84.3993 55.6753 84.4072 55.7221 84.4052 55.7709C84.3603 56.6513 84.0089 57.5376 83.2847 58.0744C83.0446 58.2638 82.7596 58.377 82.4804 58.4726L82.4082 57.7016C83.1324 57.8089 83.7746 58.1544 84.3193 58.6269C84.4969 58.7791 84.6531 58.9509 84.8054 59.1266C84.8659 59.1969 84.8952 59.2847 84.8952 59.3706C84.782 65.8946 81.8713 72.8011 74.7227 73.8377L74.9082 73.1388C75.4528 73.541 76.1693 73.8845 76.8466 73.8963C77.1629 73.8904 77.3444 74.2984 77.1395 74.5307C76.8135 74.9289 76.4835 75.2588 76.1282 75.5907C72.2513 79.1084 66.8908 80.9239 61.6826 80.6701C59.7949 80.5979 57.9268 80.3246 56.1074 79.8931C61.466 80.5569 67.4804 80.0415 72.2611 77.4042C73.8287 76.5199 75.3493 75.417 76.5167 74.0485L76.8232 74.683C76.138 74.6654 75.5348 74.435 74.9609 74.111C74.6642 73.9333 74.0375 73.6444 74.346 73.2072C74.4123 73.1193 74.506 73.0705 74.6056 73.0569C75.3493 72.9202 76.0951 72.7699 76.7939 72.4888C78.2034 71.9715 79.482 71.1028 80.4893 69.9862C83.0407 67.1341 84.0206 63.1362 84.1065 59.3843L84.1963 59.6283C83.7259 59.0641 83.0602 58.6073 82.332 58.4844C81.9201 58.4356 81.8636 57.8519 82.2481 57.7191C82.4492 57.6469 82.6522 57.5727 82.8142 57.44C83.3296 57.0652 83.5795 56.38 83.6165 55.7592L83.6419 55.9017C83.517 55.6382 83.3725 55.236 83.2242 54.9901C83.1851 54.912 82.947 54.5196 82.9099 54.4493C82.0919 53.2371 80.8797 52.3254 79.4917 51.855C79.0271 51.7105 78.5079 51.5622 78.0276 51.5075C77.8617 51.4841 77.6841 51.4685 77.5376 51.4626C77.321 51.4529 77.1511 51.2694 77.1609 51.0527C77.1648 50.9648 77.196 50.8867 77.2468 50.8223L77.77 50.1723L77.8383 50.7325C77.3581 50.3948 76.8193 50.0747 76.2551 49.9048C75.7007 49.7428 75.0702 49.7311 74.549 49.9927C74.2816 50.1274 74.0161 49.776 74.2074 49.5554L75.3728 48.1304L75.4587 48.4466C74.2659 47.8414 72.7511 48.0054 71.736 48.8956H71.7282Z" fill="black"/>
<path d="M37.0532 60.7928C38.6857 60.6629 39.9558 59.8885 39.8901 59.0631C39.8244 58.2377 38.4478 57.6739 36.8153 57.8038C35.1828 57.9337 33.9126 58.7082 33.9783 59.5336C34.044 60.359 35.4207 60.9228 37.0532 60.7928Z" fill="#F9D2DC"/>
<path d="M67.9652 58.3309C69.5978 58.201 70.8679 57.4266 70.8023 56.6012C70.7366 55.7758 69.3599 55.212 67.7274 55.3419C66.0949 55.4718 64.8247 56.2463 64.8904 57.0717C64.9561 57.897 66.3327 58.4608 67.9652 58.3309Z" fill="#F9D2DC"/>
<path d="M60.9121 4.80946C60.9121 4.80946 62.8779 6.48828 65.0838 4.60449L60.9121 4.80946Z" fill="white"/>
<path d="M62.895 5.88899C61.5929 5.88899 60.6715 5.12182 60.6578 5.1101C60.4919 4.96955 60.4724 4.71969 60.6149 4.55571C60.7555 4.39173 61.0053 4.37025 61.1693 4.51081C61.2435 4.57327 62.9184 5.93975 64.8295 4.30584C64.9955 4.16528 65.2433 4.18481 65.3839 4.34879C65.5245 4.51472 65.5049 4.76263 65.341 4.90318C64.4684 5.64889 63.6231 5.88899 62.895 5.88899Z" fill="black"/>
<path d="M48.8682 16.3444C48.8682 16.3444 46.7892 13.1624 48.8721 10.0039L48.8682 16.3444Z" fill="white"/>
<path d="M48.8672 16.737C48.7384 16.737 48.6134 16.6745 48.5373 16.5594C48.4475 16.4208 46.3431 13.1217 48.5412 9.78749C48.6603 9.60595 48.9043 9.55519 49.0858 9.67622C49.2673 9.7953 49.3181 10.0413 49.1971 10.2209C47.2879 13.1178 49.1171 16.0069 49.1971 16.1299C49.3142 16.3114 49.2634 16.5555 49.0819 16.6745C49.0155 16.7175 48.9414 16.739 48.8672 16.739V16.737Z" fill="black"/>
<path d="M62.0516 60.823C62.0516 60.823 62.0789 60.7137 61.587 60.6414C61.587 60.6414 60.693 60.4872 60.2986 60.6239C60.2986 60.6239 59.7423 60.6434 60.3533 61.0006C60.3533 61.0006 61.14 61.3345 60.855 62.8551C60.855 62.8551 60.4138 64.4285 58.0596 64.0654C58.0596 64.0654 56.6052 64.0654 54.9088 62.8239C54.6687 62.6482 54.5125 62.5467 54.2588 62.4042C53.4877 61.9747 52.9021 61.8225 52.4609 61.8459C51.8987 61.9416 51.3716 62.2988 50.9266 62.6873C50.7021 62.8825 50.4814 63.0503 50.2667 63.2553C48.8671 64.5886 47.3249 64.9439 47.3249 64.9439C45.0585 65.674 44.3967 64.1631 44.3967 64.1631C43.8755 62.7087 44.5997 62.2539 44.5997 62.2539C45.1463 61.8049 44.5958 61.8732 44.5958 61.8732C44.1839 61.801 43.327 62.0938 43.327 62.0938C42.8526 62.2441 42.8955 62.3456 42.8955 62.3456C42.8916 62.6072 43.0517 62.8181 43.1766 62.8825C43.3738 62.9684 43.8696 62.6404 43.8696 62.6404C43.3777 64.8599 45.0175 65.4905 45.0175 65.4905C47.7817 66.3436 50.4053 64.1494 50.4053 64.1494C51.1822 63.5306 52.4765 62.5877 52.5604 62.5467C52.7635 62.6111 54.0987 63.3256 54.9206 63.7902C54.9206 63.7902 57.8585 65.5432 60.4528 64.2626C60.4528 64.2626 61.9716 63.3803 61.1361 61.2661C61.1361 61.2661 61.6788 61.5121 61.8584 61.3969C61.9716 61.3149 62.0965 61.0807 62.0516 60.823Z" fill="black"/>
<path d="M55.7187 52.1869C57.9383 49.454 62.6487 47.6814 65.1864 50.9668L65.1279 51.0449C64.7043 50.918 64.31 50.7541 63.8922 50.633C62.7229 50.2992 61.534 50.022 60.3159 50.1294C58.6371 50.3422 57.0793 51.162 55.789 52.2513L55.7168 52.185L55.7187 52.1869Z" fill="black"/>
<path d="M67.4872 96.9138C67.0968 96.2598 67.1222 95.6214 67.2784 94.9304C67.3506 94.3487 67.4658 93.5366 67.5224 92.9607C67.6415 92.7089 67.782 93.8607 67.8074 93.9446C67.8464 94.1925 67.903 94.6942 67.9225 94.9441C67.9499 95.2759 68.0455 95.6097 67.9752 95.9436C67.9108 96.2735 67.8074 96.6014 67.5673 96.9196C67.5478 96.9469 67.5028 96.945 67.4872 96.9157V96.9138Z" fill="black"/>
</svg>
