<svg width="238" height="200" viewBox="0 0 238 200" fill="none" xmlns="http://www.w3.org/2000/svg">
<path d="M116.717 119.033C117.569 118.04 118.756 116.274 119.046 113.884C119.046 113.884 118.923 116.582 117.973 119.033H131.743L137.481 62.1354C137.481 62.1354 131.822 57.4693 127.42 59.6661C123.026 61.863 117.156 66.4236 116.541 80.0352C115.926 93.6468 109.643 119.025 109.643 119.025H116.708L116.717 119.033Z" fill="#2A2628"/>
<path d="M132.675 60.6329L142.622 115.484H153.949C153.659 113.454 153.685 111.556 153.914 111.556C154.151 113.172 154.608 114.455 155.144 115.484H157.015C156.233 112.909 156.146 109.209 156.471 109.201C156.954 112.478 158.334 114.429 159.406 115.484H165.443C165.443 115.484 154.924 93.1725 154.291 79.1127C153.509 60.8438 141.787 52.8649 132.675 60.6241V60.6329Z" fill="#2A2628"/>
<path d="M144.046 104.675L136.339 112.346L125.434 104.675C125.847 95.958 125.908 83.067 124.59 76.1865L144.072 87.7507C144.072 87.7507 143.817 96.7928 144.054 104.675H144.046Z" fill="#F7B49F"/>
<path d="M126.084 78.9191L131.664 89.666C134.37 91.9946 137.771 93.1546 141.242 92.4077C147.446 91.072 150.056 86.362 150.153 80.0087C150.153 79.7099 150.153 79.4112 150.153 79.1124C150.135 78.1019 150.065 77.0562 149.924 75.9753C149.924 75.9138 149.907 75.8523 149.898 75.7908C149.898 75.7469 149.889 75.7029 149.88 75.6678C148.791 67.4604 144.722 61.2565 137.49 62.1528C128.439 63.2776 125.056 70.5799 126.093 78.9367L126.084 78.9191Z" fill="#F7B49F"/>
<path d="M139.212 93.1817C137.349 93.1817 135.109 92.6281 132.947 90.7125C132.762 90.5543 132.745 90.2731 132.912 90.0886C133.07 89.9041 133.351 89.8865 133.536 90.0534C138.184 94.1571 143.026 91.4682 143.228 91.354C143.439 91.2309 143.703 91.31 143.826 91.5209C143.949 91.7318 143.87 91.9955 143.668 92.1185C143.632 92.1361 141.769 93.1817 139.212 93.1817Z" fill="#2A2628"/>
<path d="M138.448 60.9746C138.448 60.9746 141.005 66.2734 137.015 68.4351C133.026 70.6055 135.838 72.3454 131.998 73.5581L128.158 74.7707L123.791 72.8551L126.339 64.6214L133.58 61.7567L138.439 60.9746H138.448Z" fill="#2A2628"/>
<path d="M128.861 82.2149C128.474 82.6191 128 82.9266 127.455 83.12C125.284 83.8845 122.789 82.3994 121.875 79.7983C120.97 77.2061 121.989 74.4908 124.168 73.7263C125.311 73.3221 126.541 73.5505 127.587 74.2272C127.587 74.2272 128.659 75.0005 129.467 76.8985L128.861 82.2061V82.2149Z" fill="#F7B49F"/>
<path d="M126.655 79.5695C126.427 79.5695 126.234 79.3937 126.216 79.1653C126.181 78.6468 126.014 78.2689 125.706 78.0053C125.153 77.5308 124.309 77.5835 124.3 77.5835C124.046 77.6011 123.843 77.4254 123.826 77.1793C123.808 76.9333 123.984 76.7224 124.23 76.7048C124.283 76.7048 125.443 76.6169 126.278 77.3375C126.77 77.7593 127.042 78.348 127.095 79.1037C127.112 79.3498 126.928 79.5519 126.691 79.5695C126.682 79.5695 126.673 79.5695 126.655 79.5695Z" fill="#2A2628"/>
<path d="M139.537 83.9102C138.017 83.9102 136.33 83.4005 135.442 81.687C135.328 81.4673 135.416 81.2037 135.627 81.0983C135.838 80.9928 136.11 81.0719 136.216 81.2828C137.631 84.0245 141.523 82.7151 141.558 82.7063C141.787 82.6273 142.042 82.7503 142.121 82.9788C142.2 83.2072 142.077 83.4621 141.848 83.5411C141.26 83.7432 140.416 83.919 139.529 83.919L139.537 83.9102Z" fill="#2A2628"/>
<path d="M137.077 76.028C137.2 76.6871 136.919 77.2846 136.444 77.3725C135.978 77.4604 135.495 76.9946 135.381 76.3356C135.258 75.6765 135.539 75.079 136.014 74.9911C136.479 74.9032 136.963 75.369 137.077 76.028Z" fill="#2A2628"/>
<path d="M136.33 77.8207C136.022 77.8207 135.724 77.6889 135.469 77.4516C135.205 77.1968 135.012 76.8277 134.942 76.4235C134.871 76.0193 134.915 75.6063 135.073 75.2723C135.249 74.8945 135.566 74.6309 135.926 74.5694C136.286 74.4991 136.673 74.6309 136.971 74.9208C137.235 75.1757 137.428 75.5448 137.499 75.949C137.569 76.3532 137.525 76.7662 137.367 77.1001C137.191 77.478 136.875 77.7416 136.515 77.8031C136.453 77.8119 136.392 77.8207 136.321 77.8207H136.33ZM136.119 75.4217C136.119 75.4217 136.093 75.4217 136.084 75.4217C135.97 75.4393 135.891 75.5799 135.864 75.6326C135.785 75.7996 135.759 76.0281 135.803 76.2565C135.847 76.485 135.943 76.6871 136.075 76.8189C136.119 76.8629 136.242 76.9595 136.356 76.9419C136.471 76.9244 136.55 76.7838 136.576 76.731C136.655 76.5641 136.682 76.3356 136.638 76.1071C136.594 75.8787 136.497 75.6766 136.365 75.5447C136.321 75.5096 136.225 75.4217 136.119 75.4217Z" fill="#2A2628"/>
<path d="M145.785 75.3168C145.908 75.9759 145.627 76.5734 145.153 76.6613C144.687 76.7492 144.204 76.2834 144.089 75.6244C143.966 74.9653 144.248 74.3678 144.722 74.2799C145.188 74.1921 145.671 74.6578 145.785 75.3168Z" fill="#2A2628"/>
<path d="M145.039 77.1088C144.388 77.1088 143.808 76.5288 143.659 75.7028C143.589 75.2986 143.633 74.8856 143.791 74.5516C143.966 74.1738 144.283 73.9102 144.643 73.8487C145.003 73.7784 145.39 73.9102 145.689 74.2001C145.952 74.455 146.146 74.8241 146.216 75.2283C146.383 76.1334 145.952 76.9506 145.232 77.0824C145.17 77.0912 145.1 77.1 145.039 77.1V77.1088ZM144.828 74.7098C144.828 74.7098 144.801 74.7098 144.792 74.7098C144.678 74.7274 144.599 74.868 144.573 74.9207C144.494 75.0877 144.467 75.3161 144.511 75.5446C144.59 75.9752 144.88 76.2564 145.065 76.23C145.258 76.1949 145.416 75.8258 145.337 75.3952C145.293 75.1668 145.197 74.9646 145.065 74.8328C145.021 74.7977 144.924 74.7098 144.819 74.7098H144.828Z" fill="#2A2628"/>
<path d="M133.878 71.6257C133.913 71.9948 134.608 72.232 135.425 72.1617C136.251 72.0914 136.892 71.7311 136.857 71.3621C136.822 70.993 136.128 70.7557 135.311 70.826C134.485 70.8963 133.843 71.2566 133.878 71.6257Z" fill="#2A2628"/>
<path d="M142.622 70.9497C142.657 71.3187 143.351 71.556 144.169 71.4857C144.986 71.4154 145.636 71.0551 145.601 70.6861C145.566 70.317 144.872 70.0797 144.054 70.15C143.228 70.2203 142.587 70.5806 142.622 70.9497Z" fill="#2A2628"/>
<path d="M141.611 80.22C141.532 80.22 141.453 80.22 141.374 80.22C141.128 80.2112 140.944 80.0091 140.952 79.7631C140.961 79.517 141.146 79.3237 141.409 79.3413C142.525 79.394 143.184 79.0425 143.184 79.0337C143.29 78.9546 143.527 78.7613 143.518 78.5856C143.51 78.3835 143.211 78.0232 142.42 77.5926C141.532 77.1181 140.926 75.8 140.865 75.6506C140.768 75.4309 140.865 75.1673 141.084 75.0706C141.304 74.974 141.568 75.0706 141.664 75.2903C141.814 75.6154 142.306 76.5293 142.842 76.8193C143.852 77.3641 144.362 77.9265 144.397 78.5328C144.423 78.9986 144.169 79.4116 143.641 79.7806C143.571 79.8246 142.833 80.22 141.603 80.22H141.611Z" fill="#2A2628"/>
<path d="M134.318 79.0072C134.318 80.0353 133.483 80.8789 132.446 80.8789C131.409 80.8789 130.574 80.0441 130.574 79.0072C130.574 77.9703 131.409 77.1355 132.446 77.1355C133.483 77.1355 134.318 77.9703 134.318 79.0072Z" fill="#F99378"/>
<path d="M149.871 78.1373C149.871 79.1655 149.037 80.009 148 80.009C146.963 80.009 146.128 79.1742 146.128 78.1373C146.128 77.1004 146.963 76.2656 148 76.2656C149.037 76.2656 149.871 77.1004 149.871 78.1373Z" fill="#F99378"/>
<path d="M76.2773 200H167.297L178.149 139.938L159.265 105.668H139.476L136.119 109.719L131.989 105.668H102.543C95.1789 100.123 89.309 101.845 84.2826 104.824L86.7694 130.105L84.5726 144.683L76.2598 199.991L76.2773 200Z" fill="#2962F6"/>
<path d="M56.8662 130.105L84.5991 144.683L94.8187 150.052L104.186 134.516L112.2 121.221L121.576 105.659C118.562 104.525 115.68 103.435 112.938 102.372C110.75 101.546 108.668 100.72 106.673 99.9381C88.3513 92.7413 77.9998 87.9961 77.9998 87.9961L56.8574 130.087L56.8662 130.105Z" fill="#2962F6"/>
<path d="M138.606 109.859C138.606 109.859 153.799 99.9734 175.785 108.717C197.771 117.46 212.569 129.789 212.569 129.789L190.179 162.944L153 143.638L138.606 109.85V109.859Z" fill="#2962F6"/>
<path d="M77.9998 88.0146L52.9734 77.9443L37.0156 119.025L56.8662 130.106L77.9998 88.0146Z" fill="#F7B49F"/>
<path d="M66.2512 103.972C66.2512 103.972 50.8382 125.958 37.0157 119.025C23.1932 112.092 22.1036 91.7492 16.2952 45.9232L42.3057 28.9373C42.3057 28.9373 55.9173 65.7914 62.1915 83.3485L66.26 103.972H66.2512Z" fill="#F7B49F"/>
<path d="M62.8594 96.1781C62.8594 96.1781 62.8243 96.1781 62.8155 96.1781C62.5783 96.1517 62.4025 95.932 62.4289 95.6948C63.2197 88.3749 59.7312 77.5401 59.696 77.4347C59.6257 77.2062 59.7487 76.9602 59.9772 76.8811C60.2145 76.8108 60.4517 76.9338 60.5308 77.1623C60.6802 77.6104 64.116 88.2782 63.2988 95.7914C63.2725 96.0199 63.0879 96.1868 62.8594 96.1868V96.1781Z" fill="#2A2628"/>
<path d="M151.567 105.545L144.107 99.0684L136.137 109.727L144.915 117.724L151.567 105.545Z" fill="white"/>
<path d="M120.697 105.545L125.618 99.3936L136.137 109.727L127.349 117.724L120.697 105.545Z" fill="white"/>
<path d="M212.569 129.789C212.569 129.789 240.407 147.461 236.84 166.933C233.263 186.406 187.745 188.673 187.745 188.673L195.697 154.781L212.578 129.789H212.569Z" fill="#F7B49F"/>
<path d="M195.689 155.229C195.522 155.229 195.355 155.132 195.284 154.965C195.188 154.745 195.284 154.482 195.513 154.385C195.838 154.244 203.527 151.037 215.838 152.856C216.075 152.891 216.242 153.111 216.207 153.357C216.172 153.594 215.943 153.761 215.706 153.726C203.659 151.942 195.935 155.158 195.856 155.193C195.803 155.22 195.741 155.229 195.68 155.229H195.689Z" fill="#2A2628"/>
<path d="M3.37768 38.7261C3.37768 38.7261 14.3706 56.872 21.5499 61.1426L27.8153 57.7595L25.7678 35.2112L10.9699 30.343L3.3689 38.7349L3.37768 38.7261Z" fill="#F7B49F"/>
<path d="M16.4005 15.9402C18.8258 12.1001 24.1773 13.4797 24.1773 13.4797L26.7345 22.4076L18.2107 27.5043C18.2107 27.5043 13.9752 19.789 16.4005 15.9489V15.9402Z" fill="#F7B49F"/>
<path d="M1.06661 28.0756C2.56046 24.0774 7.08594 24.5958 7.08594 24.5958C7.01564 23.2953 7.20017 22.0563 7.82408 21.0721C10.2494 17.232 15.6009 18.6029 15.6009 18.6029L21.6817 28.7786L15.5657 35.7382C12.9471 35.5888 11.4445 34.7364 10.6097 33.9631C10.6097 33.9631 11.8311 39.4728 6.2072 39.5167C0.583306 39.5519 -0.427238 32.0826 1.0754 28.0844L1.06661 28.0756Z" fill="#F7B49F"/>
<path d="M18.202 27.9353C18.0439 27.9353 17.8945 27.8562 17.8154 27.7069C17.6396 27.3817 13.4832 19.7192 16.0228 15.7033C18.5887 11.6348 24.0456 12.9881 24.2829 13.0496C24.5201 13.1111 24.6607 13.3483 24.5992 13.5856C24.5377 13.8229 24.3004 13.9635 24.0632 13.9019C24.0105 13.8844 18.9929 12.6541 16.7697 16.1779C14.5113 19.7543 18.5447 27.2148 18.5887 27.2851C18.7029 27.496 18.6238 27.7684 18.4129 27.8826C18.3426 27.9177 18.2723 27.9353 18.202 27.9353Z" fill="#2A2628"/>
<path d="M15.5657 36.1681C15.5657 36.1681 15.5481 36.1681 15.5393 36.1681C10.3196 35.8781 9.25638 32.8816 9.21244 32.7586C9.06306 32.5038 4.91543 24.85 7.45498 20.8254C10.0209 16.7569 15.4778 18.1101 15.7151 18.1716C15.9523 18.2331 16.0929 18.4704 16.0314 18.7077C15.9699 18.9449 15.7327 19.0855 15.4954 19.024C15.4427 19.0064 10.4251 17.7762 8.2019 21.2999C5.94355 24.8852 9.97694 32.3368 10.0209 32.4071C10.0912 32.5829 11.0051 35.0345 15.5921 35.2982C15.8381 35.3157 16.0226 35.5179 16.0051 35.7639C15.9963 36.0012 15.7942 36.1769 15.5657 36.1769V36.1681Z" fill="#2A2628"/>
<path d="M6.16325 39.9479C4.25639 39.9479 2.67467 39.1219 1.57625 37.5577C-0.339387 34.8161 -0.3306 30.5454 0.653582 27.918C2.25288 23.6473 7.08592 24.1482 7.13864 24.157C7.3759 24.1834 7.55165 24.4031 7.52528 24.6403C7.49892 24.8776 7.27045 25.0445 7.04198 25.027C6.86623 25.0094 2.83284 24.6052 1.47959 28.2256C0.565709 30.6772 0.618433 34.6403 2.29682 37.048C3.22827 38.3837 4.5288 39.0603 6.15446 39.0603H6.1984C7.70982 39.0516 8.81702 38.621 9.49365 37.7774C10.6624 36.3187 10.1878 34.0603 10.1791 34.0428C10.1263 33.8055 10.2757 33.5683 10.513 33.5243C10.7502 33.4716 10.9875 33.621 11.0402 33.8582C11.0666 33.9637 11.6114 36.5384 10.1878 38.3222C9.34426 39.3855 8.00859 39.9215 6.20718 39.9391H6.16325V39.9479Z" fill="#2A2628"/>
<path d="M45.1703 27.6713L50.1352 19.587L18.281 0.0351502L10.267 0C9.75731 0 9.42339 0.536029 9.65186 0.992971L13.3162 8.11951L45.1703 27.6713Z" fill="#00E0E3"/>
<path d="M27.6569 5.7999C27.6569 5.7999 22.9821 5.0354 22.4021 2.90886C22.0067 1.44138 24.6517 -0.201855 27.78 0.887776C33.4039 2.85614 32.9469 9.37635 32.9469 9.37635L27.6569 5.7999Z" fill="#EF9B84"/>
<path d="M45.0122 40.0442L41.4357 25.3869C41.4357 25.3869 37.3232 5.10571 29.3356 5.43963C22.0772 5.7384 24.564 19.1391 24.564 19.1391C24.564 19.1391 13.8083 27.9176 15.4515 42.6013C17.0948 57.2849 27.8241 57.7595 27.8241 57.7595L45.021 40.0442H45.0122Z" fill="#F7B49F"/>
<path d="M15.9965 46.2391C15.7944 46.2391 15.6098 46.0985 15.5659 45.8876C12.42 30.0089 22.6046 20.2901 24.1072 18.9632L23.7206 14.8244C23.6942 14.5871 23.8787 14.3674 24.116 14.3498C24.3532 14.3323 24.5729 14.508 24.5905 14.7453L24.9947 19.1038C25.0123 19.2532 24.9508 19.3938 24.8365 19.4817C24.7223 19.5783 13.1406 29.2004 16.4183 45.7119C16.4622 45.9491 16.3128 46.1776 16.0756 46.2303C16.0492 46.2303 16.0141 46.2303 15.9877 46.2303L15.9965 46.2391Z" fill="#2A2628"/>
<path d="M24.5637 61.4147C24.5637 61.4147 24.5373 61.4147 24.5285 61.4147C19.8097 61.0017 18.5619 59.42 18.5092 59.3497C18.3598 59.1564 18.4038 58.8839 18.5971 58.7346C18.7904 58.594 19.0628 58.6291 19.2122 58.8137C19.2386 58.8488 20.3897 60.1669 24.6076 60.536C24.8449 60.5535 25.0294 60.7732 25.0031 61.0105C24.9855 61.239 24.7922 61.4147 24.5637 61.4147Z" fill="#2A2628"/>
<path d="M34.1422 13.7347C32.666 13.7347 31.4269 11.6081 30.5746 10.1494C30.4516 9.93854 30.3461 9.754 30.2494 9.60462C29.3971 8.21622 30.1879 6.36209 30.2231 6.28301C30.3197 6.06332 30.5746 5.95787 30.803 6.05453C31.0227 6.15119 31.1282 6.40603 31.0315 6.6345C31.0315 6.65207 30.39 8.15471 31.0052 9.14768C31.1018 9.30585 31.2161 9.49917 31.3391 9.71886C31.9893 10.8348 33.3426 13.1723 34.3707 12.8296C35.6976 12.3902 36.0315 11.9245 36.0315 11.9245C36.1633 11.7312 36.4357 11.6696 36.6291 11.7927C36.8312 11.9157 36.9015 12.1705 36.7784 12.3726C36.7081 12.4957 36.2776 13.1283 34.6343 13.6644C34.4674 13.7171 34.3004 13.7435 34.1334 13.7435L34.1422 13.7347Z" fill="#2A2628"/>
<path d="M96.1191 194.991H184.08C185.513 194.991 186.673 193.831 186.673 192.399L192.797 132.838C192.797 131.406 191.638 130.246 190.205 130.246H102.244C100.812 130.246 99.6516 131.406 99.6516 132.838L93.5269 192.399C93.5269 193.831 94.6868 194.991 96.1191 194.991Z" fill="#2A2628"/>
<path d="M190.012 150.581C175.328 144.974 168.738 146.125 167.912 149.755C167.086 153.384 178.632 157.839 178.632 157.839C178.632 157.839 164.608 158.832 166.26 164.605C166.805 166.503 169.256 167.487 172.297 167.962C168.36 170.299 167.174 172.654 167.947 174.605C169.037 177.338 176.796 176.108 179.994 175.475C173.527 178.111 171.488 180.941 172.385 183.173C173.597 186.222 184.23 183.682 184.23 183.682L187.754 182.9L187.068 188.682H187.754C187.754 188.682 193.694 184.719 196.128 178.788C196.128 178.788 204.704 156.187 190.021 150.581H190.012Z" fill="#F7B49F"/>
<path d="M178.633 158.269C178.413 158.269 178.228 158.111 178.202 157.891C178.167 157.654 178.334 157.426 178.58 157.399C178.817 157.364 184.362 156.626 188.167 156.977C188.413 157.004 188.589 157.215 188.562 157.452C188.536 157.698 188.325 157.874 188.088 157.847C184.388 157.505 178.756 158.26 178.703 158.269C178.685 158.269 178.659 158.269 178.641 158.269H178.633Z" fill="#2A2628"/>
<path d="M172.297 168.392C172.112 168.392 171.945 168.278 171.884 168.102C171.805 167.874 171.919 167.619 172.147 167.54C172.218 167.513 179.3 165.009 187.771 165.563C188.017 165.58 188.193 165.791 188.184 166.028C188.167 166.274 187.964 166.45 187.718 166.441C179.45 165.896 172.516 168.348 172.446 168.366C172.393 168.383 172.349 168.392 172.297 168.392Z" fill="#2A2628"/>
<path d="M179.994 175.906C179.801 175.906 179.625 175.783 179.573 175.589C179.502 175.352 179.634 175.115 179.871 175.044C179.915 175.027 184.353 173.726 188.052 173.173C188.29 173.146 188.518 173.305 188.553 173.542C188.588 173.779 188.421 174.008 188.184 174.043C184.546 174.588 180.161 175.871 180.117 175.888C180.073 175.897 180.038 175.906 179.994 175.906Z" fill="#2A2628"/>
<path d="M106.453 183.541H102.244C100.812 183.541 99.6431 184.701 99.6431 186.142C99.6431 187.574 100.803 188.743 102.244 188.743H106.453C107.886 188.743 109.054 187.583 109.054 186.142C109.054 184.71 107.894 183.541 106.453 183.541Z" fill="#E6E6E7"/>
<path d="M102.182 187.996C103.207 187.996 104.037 187.166 104.037 186.142C104.037 185.118 103.207 184.288 102.182 184.288C101.158 184.288 100.328 185.118 100.328 186.142C100.328 187.166 101.158 187.996 102.182 187.996Z" fill="#2A2628"/>
<path d="M106.515 187.996C107.539 187.996 108.369 187.166 108.369 186.142C108.369 185.118 107.539 184.288 106.515 184.288C105.491 184.288 104.661 185.118 104.661 186.142C104.661 187.166 105.491 187.996 106.515 187.996Z" fill="#2A2628"/>
<path d="M187.745 189.121C187.595 189.121 187.455 189.05 187.367 188.91C187.235 188.708 187.305 188.435 187.508 188.304C187.543 188.277 191.4 185.834 194.274 180.527C196.919 175.632 199.239 167.214 195.276 154.92C195.205 154.692 195.328 154.446 195.557 154.367C195.785 154.288 196.031 154.42 196.11 154.648C203.914 178.831 188.131 188.945 187.973 189.05C187.903 189.094 187.824 189.121 187.745 189.121Z" fill="#2A2628"/>
<path d="M190.082 42.4082C189.564 46.5383 185.785 49.4733 181.655 48.946C177.525 48.4276 174.59 44.649 175.117 40.519C175.636 36.3889 179.414 33.4539 183.544 33.9812C187.675 34.4996 190.609 38.2782 190.082 42.4082Z" fill="#00E0E3"/>
<path d="M197.446 44.9034C192.367 44.9034 187.306 44.5959 182.279 43.9632C177.253 43.3305 172.271 42.3727 167.358 41.1073L169.292 36.8103L171.234 32.5133C173.035 28.515 174.072 25.4922 174.626 21.1336L174.661 20.8349C175.399 14.9913 180.829 10.8964 186.691 11.8366C192.297 12.7329 196.067 18.102 195.364 23.7259V23.7523C194.81 28.102 195.065 31.2918 195.821 35.6152L196.638 40.2637L197.446 44.9034Z" fill="#FCFCFC"/>
<path d="M196.638 40.2637C192.024 40.2198 187.429 39.9034 182.868 39.3322C178.307 38.7611 173.773 37.9175 169.3 36.8191L171.242 32.522C173.044 28.5238 174.081 25.501 174.634 21.1424L174.669 20.8437C175.407 15.0001 180.838 10.9052 186.699 11.8454C192.306 12.7417 196.075 18.1108 195.372 23.7347V23.7611C194.819 28.1108 195.074 31.3006 195.829 35.624L196.646 40.2725L196.638 40.2637Z" fill="#00E0E3"/>
<path d="M196.145 40.7026C181.594 40.7026 169.309 37.2755 169.177 37.2404C168.94 37.1701 168.808 36.9328 168.87 36.6956C168.931 36.4583 169.177 36.3265 169.414 36.3968C169.537 36.432 181.717 39.8327 196.137 39.8327C196.304 39.8327 196.471 39.8327 196.638 39.8327C196.884 39.8327 197.077 40.026 197.077 40.272C197.077 40.5181 196.884 40.7114 196.638 40.7114C196.471 40.7114 196.304 40.7114 196.137 40.7114L196.145 40.7026Z" fill="#2A2628"/>
<path d="M199.959 56.3266C199.783 56.3266 199.625 56.23 199.555 56.0542C199.458 55.8345 199.564 55.5709 199.792 55.483C209.889 51.2387 206.585 41.643 206.435 41.2388C206.356 41.0103 206.471 40.7554 206.699 40.6764C206.927 40.5973 207.182 40.7115 207.261 40.94C207.297 41.0454 210.996 51.722 200.126 56.2915C200.073 56.3178 200.012 56.3266 199.959 56.3266Z" fill="#2A2628"/>
<path d="M205.205 60.5886C205.029 60.5886 204.871 60.4919 204.801 60.3162C204.704 60.0965 204.81 59.8329 205.038 59.745C218.58 54.0508 214.142 41.1774 213.949 40.6325C213.87 40.4041 213.984 40.1492 214.212 40.0702C214.441 39.9911 214.696 40.1053 214.775 40.3338C214.827 40.4744 219.696 54.5341 205.381 60.5534C205.328 60.5798 205.267 60.5886 205.214 60.5886H205.205Z" fill="#2A2628"/>
<path d="M156.374 45.1404C156.242 45.1404 156.11 45.0789 156.023 44.9734C155.952 44.8856 149.16 35.8522 158.105 28.172C158.29 28.0139 158.571 28.0314 158.729 28.216C158.887 28.4005 158.87 28.6729 158.685 28.8399C150.381 35.9752 156.462 44.0947 156.726 44.4374C156.875 44.6307 156.84 44.9031 156.646 45.0525C156.567 45.114 156.471 45.1404 156.383 45.1404H156.374Z" fill="#2A2628"/>
<path d="M149.406 48.0222C149.274 48.0222 149.142 47.9607 149.054 47.8552C148.966 47.7322 140.012 35.8517 151.805 25.7287C151.989 25.5705 152.27 25.5881 152.428 25.7726C152.587 25.9571 152.569 26.2296 152.385 26.3965C141.233 35.9747 149.406 46.8622 149.757 47.3192C149.906 47.5125 149.871 47.7849 149.678 47.9343C149.599 47.9958 149.502 48.0222 149.414 48.0222H149.406Z" fill="#2A2628"/>
</svg>
