<svg width="135" height="135" viewBox="0 0 135 135" fill="none" xmlns="http://www.w3.org/2000/svg">
<circle cx="67.5" cy="67.5" r="67.5" fill="white"/>
<path d="M60.2286 80.3727C60.2286 71.6743 56.2068 67.912 50.1216 66.3181C44.6172 66.3181 40.1506 70.7785 40.1506 76.2891L39.4834 89.7445L40.1506 101.124H56.8802L58.7088 90.7453C62.2302 93.76 71.1819 91.0912 77.7612 86.2046L76.1674 81.9975L62.8974 85.7227L60.2224 80.3665L60.2286 80.3727Z" fill="#283C93"/>
<path d="M78.9649 50.0767C72.8674 50.0767 67.9189 55.019 67.9189 61.1227C67.9189 63.9398 68.9815 66.5036 70.7175 68.4496L69.9267 75.5109L75.8945 71.7239C76.8706 72.008 77.8961 72.1625 78.9649 72.1625C85.0624 72.1625 90.0109 67.2202 90.0109 61.1165C90.0109 55.0128 85.0686 50.0706 78.9649 50.0706V50.0767Z" fill="#00E0E3"/>
<path d="M93.5632 96.1748H75.6475V101.117H93.5632V96.1748Z" fill="#00E0E3"/>
<path d="M57.8864 65.8795C56.9288 65.8795 55.9095 65.5706 54.8469 64.959C54.4021 64.7057 54.2538 64.1373 54.5071 63.6925C54.7604 63.2477 55.3288 63.0995 55.7736 63.3528C56.9412 64.0261 57.9667 64.1929 58.8193 63.8408C60.1104 63.3095 60.9691 61.6477 61.3151 60.3812C61.9638 58.0089 62.285 55.5563 62.2727 53.0852C62.2727 52.5724 62.6866 52.1585 63.1932 52.1523C63.7059 52.1523 64.1198 52.5663 64.126 53.0728C64.1384 55.7108 63.7924 58.3302 63.1005 60.8631C62.9337 61.4685 61.9885 64.5327 59.5235 65.5459C58.9984 65.7621 58.4486 65.8671 57.8802 65.8671L57.8864 65.8795Z" fill="#252D32"/>
<path d="M45.6423 67.8872C45.4878 67.8872 45.3272 67.8501 45.1789 67.7636C44.7341 67.5103 44.5859 66.9419 44.8392 66.4971C45.9079 64.6438 47.4462 61.6537 47.5142 60.8135C47.681 58.5957 47.4771 57.5516 47.1003 55.655C47.0199 55.2597 46.9334 54.8272 46.847 54.3515C46.3836 51.8619 47.0138 49.4587 48.6262 47.5806C50.5351 45.3566 53.7105 44.0407 56.9045 44.1457C60.0366 44.2508 62.5263 46.0362 64.3488 47.3397C65.0098 47.8154 65.5781 48.2231 66.0353 48.4517C66.6654 48.7668 67.0238 49.3166 67.0052 49.9653C66.9743 51.4788 64.8801 52.8812 64.2932 53.1468C64.2684 53.1592 64.2437 53.1716 64.2128 53.1777C64.0708 53.2272 63.7619 53.3631 63.4344 53.5175C61.9332 54.2033 59.2088 55.4388 57.028 55.1608L55.7616 55.8651C55.3168 56.1122 54.7484 55.9516 54.5013 55.5068C54.2542 55.062 54.4148 54.4936 54.8596 54.2465L56.4102 53.3878C56.6079 53.2766 56.8365 53.2457 57.0589 53.2951C58.6837 53.6534 61.371 52.4302 62.6684 51.8371C63.0576 51.658 63.3479 51.5283 63.5704 51.4479C64.0831 51.207 64.8801 50.4657 65.1025 50.0641C64.5279 49.7552 63.941 49.3351 63.2676 48.8594C61.5502 47.63 59.4127 46.0979 56.8427 46.0114C54.2048 45.925 51.5915 46.9875 50.0347 48.7976C49.1575 49.817 48.2061 51.553 48.6694 54.0241C48.7559 54.4936 48.8424 54.9199 48.9227 55.3091C49.3057 57.2304 49.559 58.4968 49.3675 60.9742C49.2501 62.5371 46.9149 66.6392 46.4516 67.4423C46.2786 67.7389 45.9697 67.9057 45.6485 67.9057L45.6423 67.8872Z" fill="#252D32"/>
<path d="M39.8169 101.198C39.8169 101.198 39.7613 101.198 39.7304 101.198C39.2238 101.155 38.847 100.704 38.8902 100.191C39.0941 97.9176 38.9952 96.1445 38.847 93.6919C38.7481 91.993 38.6369 90.0655 38.5999 87.4956C38.396 73.6758 41.2934 67.0222 48.2867 65.243C52.4629 64.4028 57.8191 69.4501 57.8685 69.4995C58.233 69.864 58.233 70.4509 57.8685 70.8092C57.504 71.1737 56.9171 71.1737 56.5588 70.8092C55.4221 69.6663 51.2768 66.5342 48.6944 67.0469C44.512 68.1095 40.2185 71.3776 40.4532 87.4647C40.4903 89.9914 40.6015 91.8942 40.7003 93.5746C40.8424 96.0148 40.9536 97.9423 40.7374 100.352C40.6941 100.834 40.2864 101.192 39.8169 101.192V101.198Z" fill="#252D32"/>
<path d="M63.237 87.1449C63.0269 87.1449 62.8169 87.0769 62.6439 86.9287C62.2485 86.6012 62.1991 86.0143 62.5265 85.6251C64.9112 82.7586 69.9276 81.974 73.591 81.4057C74.9934 81.1894 76.7355 80.9114 77.0753 80.6396C77.4645 80.3246 78.0576 80.3678 78.3788 80.7446C78.7063 81.1277 78.6815 81.6837 78.3109 82.0173C77.6375 82.6227 76.3278 82.8513 73.8752 83.2343C70.5021 83.7594 65.8873 84.4822 63.9474 86.8113C63.7621 87.0337 63.5026 87.1449 63.237 87.1449Z" fill="#252D32"/>
<path d="M63.1253 93.2779C62.6187 93.2779 62.1492 93.2347 61.7229 93.1482C58.2386 92.4501 51.7086 86.8839 50.9735 86.2537C50.5843 85.9201 50.541 85.3332 50.8746 84.944C51.2082 84.5548 51.7951 84.5116 52.1843 84.8452C54.0748 86.4761 59.536 90.8192 62.0874 91.3257C65.2505 91.9559 72.8554 89.3674 79.6263 84.073C79.756 83.9741 79.9105 83.9062 80.0711 83.8876C83.5307 83.4058 85.4581 82.2073 86.391 76.9746C86.4837 76.4681 86.9655 76.1345 87.4659 76.2271C87.9725 76.3198 88.3061 76.8017 88.2135 77.3021C87.2497 82.683 85.1678 84.9811 80.5715 85.6854C74.752 90.1767 67.5239 93.2656 63.1315 93.2656L63.1253 93.2779Z" fill="#252D32"/>
<path d="M63.2368 86.4764C63.0947 86.4764 62.9464 86.4456 62.8105 86.3714C61.5996 85.7475 60.6112 84.0424 59.3509 81.8801C57.6705 78.9951 55.5824 75.4058 52.6479 74.1455C52.5923 74.1208 52.5367 74.0899 52.4873 74.0528C51.1097 73.1014 49.8865 72.7493 48.8424 73.0088C47.8107 73.2682 46.8717 74.232 46.5134 75.4119C46.0686 76.8823 46.5134 78.4576 47.7798 79.8538C48.1258 80.2307 48.0949 80.8175 47.718 81.1635C47.3412 81.5095 46.7543 81.4786 46.4083 81.1017C44.7156 79.236 44.104 76.9626 44.7403 74.8745C45.2901 73.0644 46.7234 71.6249 48.3914 71.211C49.9544 70.8218 51.6595 71.2481 53.4634 72.4775C56.9168 74.0034 59.1532 77.8522 60.951 80.9411C61.927 82.6153 62.934 84.3451 63.663 84.7219C64.1202 84.9567 64.2932 85.5127 64.0584 85.9699C63.8916 86.2911 63.5704 86.4703 63.2368 86.4703V86.4764Z" fill="#252D32"/>
<path d="M57.2189 101.198C57.1694 101.198 57.1262 101.198 57.0768 101.186C56.5702 101.105 56.2242 100.636 56.3045 100.129L57.6451 91.4308C57.7255 90.9242 58.195 90.5721 58.7015 90.6586C59.2081 90.7389 59.5541 91.2084 59.4738 91.715L58.1332 100.413C58.0652 100.871 57.6699 101.198 57.2189 101.198Z" fill="#252D32"/>
<path d="M81.1401 80.4284C80.8312 80.4284 80.5285 80.2739 80.3493 79.9898C80.0775 79.5573 80.2134 78.9828 80.6459 78.711L91.7907 71.7856C92.2231 71.5138 92.7977 71.6497 93.0695 72.0821C93.3413 72.5146 93.2054 73.0891 92.7729 73.361L81.6281 80.2863C81.4737 80.379 81.3069 80.4284 81.1401 80.4284Z" fill="#252D32"/>
<path d="M69.9335 76.4375C69.7605 76.4375 69.5937 76.388 69.4454 76.2954C69.1427 76.1039 68.9759 75.7579 69.013 75.4058L69.7605 68.7461C67.9751 66.5962 66.999 63.9026 66.999 61.1164C66.999 54.5185 72.3676 49.1438 78.9717 49.1438C85.5758 49.1438 90.9443 54.5123 90.9443 61.1164C90.9443 67.7205 85.5758 73.0891 78.9717 73.0891C78.0017 73.0891 77.0195 72.9655 76.0557 72.7246L70.4339 76.2954C70.2795 76.3942 70.1127 76.4375 69.9397 76.4375H69.9335ZM78.9655 51.0033C73.3869 51.0033 68.8462 55.544 68.8462 61.1226C68.8462 63.5938 69.7543 65.9784 71.41 67.8379C71.583 68.0356 71.6695 68.2951 71.6386 68.5545L71.064 73.6945L75.3947 70.9454C75.6171 70.8033 75.8951 70.7662 76.1484 70.8403C77.0751 71.106 78.0265 71.2481 78.9593 71.2481C84.5379 71.2481 89.0786 66.7074 89.0786 61.1288C89.0786 55.5502 84.5379 51.0095 78.9593 51.0095L78.9655 51.0033Z" fill="#252D32"/>
<path d="M100.668 102.353H35.8007C35.2879 102.353 34.874 101.939 34.874 101.427C34.874 100.914 35.2879 100.5 35.8007 100.5H100.668C101.181 100.5 101.595 100.914 101.595 101.427C101.595 101.939 101.181 102.353 100.668 102.353Z" fill="#252D32"/>
<path d="M93.8723 102.354H75.3388C74.826 102.354 74.4121 101.94 74.4121 101.427V95.8669C74.4121 95.3541 74.826 94.9402 75.3388 94.9402H93.8723C94.385 94.9402 94.799 95.3541 94.799 95.8669V101.427C94.799 101.94 94.385 102.354 93.8723 102.354ZM76.2655 100.5H92.9456V96.7935H76.2655V100.5Z" fill="#252D32"/>
<path d="M96.9611 96.7938H78.4277C77.9149 96.7938 77.501 96.3799 77.501 95.8671V90.307C77.501 89.7943 77.9149 89.3804 78.4277 89.3804H96.9611C97.4739 89.3804 97.8878 89.7943 97.8878 90.307V95.8671C97.8878 96.3799 97.4739 96.7938 96.9611 96.7938ZM79.3543 94.9404H96.0345V91.2337H79.3543V94.9404Z" fill="#252D32"/>
<path d="M99.2535 87.7739C99.0991 87.7739 98.9384 87.7369 98.7902 87.6504C98.3454 87.3971 98.1971 86.8287 98.4504 86.3839L98.6666 86.0071C98.9199 85.5623 99.4821 85.4016 99.9269 85.6549C100.372 85.902 100.532 86.4704 100.285 86.9152L100.063 87.3106C99.8898 87.6071 99.5809 87.7739 99.2597 87.7739H99.2535ZM35.3685 85.4511C35.0226 85.4511 34.6952 85.2595 34.5345 84.9259C34.17 84.1661 33.8241 83.3877 33.509 82.6093C33.3175 82.1336 33.5523 81.5961 34.028 81.4046C34.4975 81.2131 35.0411 81.4416 35.2326 81.9235C35.5292 82.6649 35.8566 83.4062 36.2026 84.1228C36.425 84.5862 36.2334 85.136 35.7701 85.3584C35.6404 85.4202 35.5045 85.4511 35.3685 85.4511ZM101.113 84.0672C100.989 84.0672 100.866 84.0425 100.749 83.9931C100.279 83.7892 100.063 83.2456 100.267 82.7761C100.582 82.0409 100.878 81.2872 101.144 80.5335C101.317 80.0516 101.842 79.7983 102.324 79.9651C102.806 80.1381 103.059 80.6632 102.886 81.1451C102.608 81.9359 102.299 82.7266 101.959 83.505C101.811 83.8572 101.465 84.0672 101.107 84.0672H101.113ZM33.1692 79.6871C32.7677 79.6871 32.397 79.4215 32.2796 79.0138C32.051 78.2045 31.841 77.3766 31.668 76.555C31.563 76.0546 31.8842 75.5604 32.3847 75.4553C32.8789 75.3503 33.3793 75.6716 33.4843 76.172C33.6511 76.9504 33.8426 77.735 34.065 78.5072C34.2071 79.0014 33.9229 79.5142 33.4287 79.6501C33.3422 79.6748 33.2557 79.6871 33.1754 79.6871H33.1692ZM103.071 78.2168C102.997 78.2168 102.929 78.2106 102.855 78.1921C102.355 78.0747 102.052 77.5743 102.169 77.0739C102.355 76.2893 102.522 75.4986 102.651 74.714C102.738 74.2074 103.214 73.8676 103.72 73.9541C104.227 74.0406 104.566 74.5163 104.48 75.0229C104.344 75.8445 104.171 76.6785 103.973 77.5064C103.875 77.9326 103.492 78.2168 103.071 78.2168ZM31.9893 73.6329C31.5198 73.6329 31.1182 73.2807 31.0688 72.805C30.9823 71.9772 30.9205 71.1247 30.8834 70.2783C30.8649 69.7655 31.2603 69.3331 31.773 69.3146C32.2858 69.3022 32.7121 69.6914 32.7368 70.2042C32.7677 71.0073 32.8295 71.8166 32.9098 72.6073C32.9654 73.1139 32.5947 73.5711 32.0881 73.6267C32.0572 73.6267 32.0202 73.6267 31.9893 73.6267V73.6329ZM103.992 72.1131C103.992 72.1131 103.955 72.1131 103.93 72.1131C103.417 72.0822 103.034 71.6374 103.065 71.1308C103.115 70.3648 103.139 69.5864 103.139 68.8203V68.7215C103.139 68.2087 103.553 67.7948 104.066 67.7948C104.579 67.7948 104.993 68.2087 104.993 68.7215V68.8203C104.993 69.6296 104.968 70.4451 104.912 71.2482C104.882 71.7363 104.474 72.1131 103.986 72.1131H103.992ZM31.8534 67.4612C31.8534 67.4612 31.8163 67.4612 31.7978 67.4612C31.285 67.4303 30.8958 66.9917 30.9329 66.4789C30.9823 65.6388 31.0688 64.7862 31.1738 63.9584C31.2418 63.4518 31.7113 63.0935 32.2117 63.1614C32.7183 63.2294 33.0766 63.6927 33.0086 64.1993C32.9036 64.9901 32.8295 65.7932 32.78 66.5963C32.7491 67.0905 32.3414 67.4674 31.8534 67.4674V67.4612ZM103.862 65.9415C103.393 65.9415 102.991 65.5893 102.942 65.1136C102.861 64.3229 102.75 63.5198 102.608 62.729C102.522 62.2224 102.855 61.7467 103.362 61.6602C103.862 61.5737 104.344 61.9073 104.437 62.4139C104.579 63.2479 104.696 64.0881 104.789 64.9221C104.844 65.4287 104.474 65.8859 103.961 65.9415C103.93 65.9415 103.893 65.9415 103.862 65.9415ZM32.7615 61.3637C32.6935 61.3637 32.6194 61.3575 32.5453 61.339C32.0449 61.2216 31.7422 60.7212 31.8595 60.2208C32.0572 59.3991 32.2796 58.5775 32.5267 57.7805C32.6812 57.2925 33.2001 57.0207 33.6882 57.1689C34.1762 57.3234 34.448 57.8423 34.2998 58.3304C34.065 59.0902 33.8488 59.8748 33.6635 60.6532C33.5646 61.0795 33.1816 61.3637 32.7615 61.3637ZM102.701 59.8872C102.299 59.8872 101.922 59.6215 101.811 59.2138C101.595 58.4478 101.348 57.6755 101.076 56.9218C100.903 56.44 101.156 55.9087 101.638 55.7357C102.12 55.5627 102.651 55.816 102.824 56.2979C103.108 57.0886 103.368 57.9041 103.597 58.7134C103.739 59.2076 103.448 59.7204 102.954 59.8563C102.868 59.881 102.787 59.8934 102.701 59.8934V59.8872ZM34.6952 55.5071C34.5716 55.5071 34.448 55.4824 34.3307 55.433C33.8612 55.2291 33.6449 54.6855 33.8426 54.2159C34.1762 53.4437 34.5407 52.6715 34.9237 51.9178C35.1585 51.4606 35.7145 51.2815 36.1717 51.5162C36.6288 51.751 36.808 52.307 36.5732 52.7641C36.2087 53.4746 35.8628 54.2098 35.5477 54.9449C35.3994 55.2971 35.0535 55.5071 34.6952 55.5071ZM100.52 54.1171C100.174 54.1171 99.8404 53.9256 99.686 53.592C99.34 52.8754 98.9693 52.1587 98.574 51.4606C98.3207 51.0158 98.4751 50.4475 98.9199 50.2003C99.3647 49.9471 99.9331 50.1015 100.18 50.5463C100.594 51.2815 100.989 52.0352 101.354 52.7889C101.576 53.2522 101.379 53.802 100.922 54.0244C100.792 54.0862 100.656 54.1171 100.52 54.1171ZM37.6049 50.0644C37.4319 50.0644 37.259 50.015 37.0983 49.9162C36.6721 49.6382 36.5485 49.0636 36.8265 48.6312C37.2837 47.9269 37.7717 47.2288 38.2783 46.5554C38.5872 46.1477 39.1679 46.0612 39.5756 46.3701C39.9834 46.679 40.0699 47.2597 39.761 47.6674C39.2791 48.3099 38.8158 48.971 38.3771 49.6382C38.198 49.91 37.9015 50.0583 37.5987 50.0583L37.6049 50.0644ZM97.3878 48.8103C97.0975 48.8103 96.8133 48.6744 96.6341 48.4211C96.1708 47.7725 95.6766 47.13 95.17 46.5122C94.8425 46.1168 94.9043 45.5299 95.2997 45.2087C95.6951 44.8812 96.282 44.943 96.6032 45.3384C97.1345 45.9871 97.6535 46.6666 98.1415 47.3524C98.438 47.7725 98.3392 48.347 97.9253 48.6435C97.7647 48.7609 97.5732 48.8165 97.3878 48.8165V48.8103ZM41.3981 45.1963C41.1695 45.1963 40.9471 45.116 40.768 44.9492C40.3911 44.6032 40.3726 44.0163 40.7185 43.6395C41.2931 43.0217 41.8923 42.4163 42.5039 41.8417C42.8746 41.4896 43.4615 41.5081 43.8136 41.8788C44.1658 42.2495 44.1472 42.8364 43.7766 43.1885C43.1959 43.7322 42.6275 44.3067 42.0838 44.8998C41.8985 45.0975 41.6514 45.1963 41.4043 45.1963H41.3981ZM93.3969 44.1028C93.1622 44.1028 92.9274 44.0163 92.7421 43.831C92.1737 43.2688 91.5806 42.719 90.9752 42.1939C90.586 41.8603 90.549 41.2734 90.8826 40.8842C91.2162 40.5012 91.8031 40.4579 92.1923 40.7915C92.8286 41.3413 93.4525 41.9221 94.0518 42.5151C94.4163 42.8734 94.4163 43.4603 94.0518 43.8248C93.8726 44.0102 93.6317 44.0967 93.3969 44.0967V44.1028ZM45.9574 41.0386C45.6793 41.0386 45.4013 40.9151 45.2222 40.6741C44.9133 40.2664 44.9874 39.6857 45.3952 39.3768C46.0624 38.864 46.7543 38.3698 47.4524 37.9065C47.8787 37.6223 48.4532 37.7397 48.7374 38.1659C49.0216 38.5922 48.9042 39.1667 48.4779 39.4509C47.8107 39.8957 47.1497 40.3652 46.5195 40.8471C46.3527 40.9768 46.155 41.0386 45.9574 41.0386ZM88.6585 40.1428C88.4732 40.1428 88.2879 40.0872 88.1272 39.976C87.4724 39.5189 86.7928 39.0741 86.1133 38.6602C85.6746 38.3945 85.5326 37.8261 85.7982 37.3875C86.0638 36.9489 86.6322 36.8068 87.0708 37.0725C87.7936 37.5049 88.5041 37.9744 89.196 38.4563C89.6161 38.7528 89.7149 39.3274 89.4246 39.7475C89.2454 40.0069 88.9551 40.1428 88.6647 40.1428H88.6585ZM51.1529 37.7211C50.8193 37.7211 50.4981 37.542 50.3313 37.2269C50.0965 36.7759 50.2695 36.2137 50.7205 35.9728C51.4618 35.5836 52.2279 35.2129 53.0001 34.8731C53.4696 34.6693 54.0132 34.8731 54.2233 35.3488C54.4272 35.8184 54.2233 36.362 53.7476 36.5721C53.0124 36.8933 52.2835 37.2454 51.5792 37.6161C51.4433 37.6902 51.295 37.7211 51.1467 37.7211H51.1529ZM83.3271 37.0416C83.1973 37.0416 83.0614 37.0107 82.9317 36.9551C82.2089 36.6153 81.4614 36.294 80.72 36.0037C80.2443 35.8184 80.0096 35.2809 80.1949 34.8052C80.3802 34.3295 80.9177 34.0947 81.3934 34.2801C82.178 34.5828 82.9626 34.9226 83.7224 35.2809C84.1858 35.4971 84.3835 36.0531 84.1673 36.5164C84.0066 36.8501 83.6792 37.0477 83.3271 37.0477V37.0416ZM56.8427 35.3303C56.4535 35.3303 56.089 35.077 55.9593 34.6878C55.8048 34.1998 56.0705 33.6808 56.5585 33.5202C57.3616 33.2607 58.1771 33.0322 58.9988 32.8283C59.493 32.7047 59.9996 33.0074 60.1231 33.5078C60.2467 34.0021 59.944 34.5087 59.4436 34.6322C58.6652 34.8237 57.8867 35.0461 57.1269 35.2871C57.0342 35.3179 56.9354 35.3303 56.8427 35.3303ZM77.5446 34.8917C77.4643 34.8917 77.3778 34.8793 77.2975 34.8608C76.5314 34.6507 75.7407 34.4592 74.9561 34.3048C74.4557 34.2059 74.1283 33.7117 74.2333 33.2113C74.3321 32.7109 74.8264 32.3835 75.3268 32.4885C76.1546 32.6553 76.9824 32.853 77.7917 33.0754C78.286 33.2113 78.5763 33.7241 78.4404 34.2121C78.3292 34.626 77.9524 34.8917 77.5446 34.8917ZM62.8537 33.9526C62.3966 33.9526 62.0012 33.619 61.9394 33.1557C61.8653 32.6491 62.2236 32.1796 62.7302 32.1117C63.558 31.9943 64.4105 31.9078 65.2507 31.846C65.7758 31.8089 66.2021 32.192 66.2392 32.7047C66.2762 33.2175 65.8932 33.6561 65.3805 33.6932C64.5835 33.7488 63.7804 33.8353 62.9896 33.9465C62.9464 33.9526 62.9031 33.9526 62.8599 33.9526H62.8537ZM71.478 33.7735C71.478 33.7735 71.4162 33.7735 71.3853 33.7735C70.5945 33.6932 69.7853 33.6438 68.9821 33.619C68.4694 33.6067 68.0678 33.1742 68.0802 32.6677C68.0925 32.1549 68.5312 31.7595 69.0316 31.7657C69.8717 31.7904 70.7243 31.846 71.5583 31.9263C72.0649 31.9757 72.4417 32.4267 72.3923 32.9395C72.3429 33.4152 71.9413 33.7735 71.4718 33.7735H71.478Z" fill="#252D32"/>
<path d="M79.0458 56.9904C78.5331 56.9904 78.1191 56.5765 78.1191 56.0637V54.2104C78.1191 53.6976 78.5331 53.2837 79.0458 53.2837C79.5586 53.2837 79.9725 53.6976 79.9725 54.2104V56.0637C79.9725 56.5765 79.5586 56.9904 79.0458 56.9904Z" fill="#252D32"/>
<path d="M79.0458 68.7267C78.5331 68.7267 78.1191 68.3128 78.1191 67.8V65.9467C78.1191 65.4339 78.5331 65.02 79.0458 65.02C79.5586 65.02 79.9725 65.4339 79.9725 65.9467V67.8C79.9725 68.3128 79.5586 68.7267 79.0458 68.7267Z" fill="#252D32"/>
<path d="M79.0825 66.6956C77.1426 66.6956 75.8762 65.3983 75.5241 64.9905C75.1904 64.6013 75.2337 64.0144 75.6229 63.6808C76.0121 63.3472 76.599 63.3905 76.9326 63.7797C77.0932 63.965 77.9272 64.8917 79.169 64.8361C79.8053 64.8114 80.8432 64.5334 81.0965 63.8662C81.2509 63.4461 81.1273 62.8283 80.7937 62.402C80.4107 61.914 79.8485 61.7966 78.9651 61.6483C78.0261 61.4939 76.8585 61.2962 76.1171 60.2089C75.4993 59.3069 75.3943 58.0899 75.8329 57.12C76.494 55.6744 78.2114 55.1616 79.5211 55.2913C81.0903 55.452 82.0293 56.5022 82.3629 56.947C82.6718 57.3547 82.5853 57.9354 82.1776 58.2443C81.7698 58.5532 81.1891 58.4667 80.8802 58.059C80.732 57.8675 80.1945 57.225 79.3358 57.1385C78.6439 57.0705 77.779 57.33 77.5195 57.8922C77.3712 58.2196 77.365 58.7633 77.6492 59.171C77.9334 59.5849 78.4276 59.6899 79.274 59.8259C80.2254 59.9865 81.4115 60.1842 82.2579 61.2653C82.9931 62.2105 83.2216 63.4831 82.8324 64.5148C82.2579 66.0469 80.5404 66.6462 79.2369 66.6894C79.1875 66.6894 79.1319 66.6894 79.0825 66.6894V66.6956Z" fill="#252D32"/>
</svg>
