<svg width="135" height="135" viewBox="0 0 135 135" fill="none" xmlns="http://www.w3.org/2000/svg">
<circle cx="67.5" cy="67.5" r="67.5" fill="white"/>
<path d="M82.0546 53.3649C86.2439 53.3649 89.5431 50.0657 89.2132 46.2063L88.1697 34.1833H74.873V46.7358C74.873 50.3956 78.0879 53.3649 82.0546 53.3649Z" fill="#283C93"/>
<path d="M54.6481 53.3649C50.4589 53.3649 47.1596 50.0657 47.4896 46.2063L48.533 34.1833H61.8297V46.7358C61.8297 50.3956 58.6149 53.3649 54.6481 53.3649Z" fill="#283C93"/>
<path d="M100.193 63.3394H38.8115V90.9608H100.193V63.3394Z" fill="#00E0E3"/>
<path d="M68.0439 69.1922C70.1386 65.8469 76.5069 66.7292 78.1795 71.3328C80.0976 76.6116 75.5785 82.4351 68.0439 86.2024C60.5094 82.4351 56.1053 76.6116 58.0235 71.3328C59.6961 66.7292 65.9493 65.8469 68.0439 69.1922Z" fill="white"/>
<path d="M99.8092 61.8045H36.1265C35.4897 61.8045 34.9756 61.2904 34.9756 60.6536C34.9756 60.0168 35.4897 59.5027 36.1265 59.5027H99.8092C100.446 59.5027 100.96 60.0168 100.96 60.6536C100.96 61.2904 100.446 61.8045 99.8092 61.8045Z" fill="#252D32"/>
<path d="M95.9729 92.4947H36.1265C35.4897 92.4947 34.9756 91.9806 34.9756 91.3438C34.9756 90.7069 35.4897 90.1929 36.1265 90.1929H95.9729C96.6098 90.1929 97.1238 90.7069 97.1238 91.3438C97.1238 91.9806 96.6098 92.4947 95.9729 92.4947Z" fill="#252D32"/>
<path d="M95.973 54.899C93.0497 54.899 90.4794 53.3338 89.0676 50.986C87.6558 53.3262 85.0855 54.899 82.1622 54.899C79.239 54.899 76.6686 53.3338 75.2569 50.986C73.8451 53.3262 71.2748 54.899 68.3515 54.899C65.4283 54.899 62.8579 53.3338 61.4462 50.986C60.0344 53.3262 57.4641 54.899 54.5408 54.899C51.6175 54.899 49.0472 53.3338 47.6354 50.986C46.2237 53.3262 43.6534 54.899 40.7301 54.899C36.2876 54.899 32.6738 51.2852 32.6738 46.8428V46.0755C32.6738 46.0065 32.6738 45.9297 32.6968 45.8607L34.9986 33.5845C35.0984 33.0397 35.5741 32.6484 36.1265 32.6484H100.577C101.129 32.6484 101.605 33.0397 101.704 33.5845L104.006 45.8607C104.022 45.9297 104.029 45.9988 104.029 46.0755V46.8428C104.029 51.2852 100.415 54.899 95.973 54.899ZM89.0676 45.6919C89.7044 45.6919 90.2185 46.206 90.2185 46.8428C90.2185 50.0193 92.7965 52.5973 95.973 52.5973C99.1494 52.5973 101.727 50.0193 101.727 46.8428V46.1829L99.6175 34.9502H37.0856L34.9756 46.1829V46.8428C34.9756 50.0193 37.5536 52.5973 40.7301 52.5973C43.9065 52.5973 46.4845 50.0193 46.4845 46.8428C46.4845 46.206 46.9986 45.6919 47.6354 45.6919C48.2723 45.6919 48.7863 46.206 48.7863 46.8428C48.7863 50.0193 51.3643 52.5973 54.5408 52.5973C57.7173 52.5973 60.2953 50.0193 60.2953 46.8428C60.2953 46.206 60.8093 45.6919 61.4462 45.6919C62.083 45.6919 62.5971 46.206 62.5971 46.8428C62.5971 50.0193 65.1751 52.5973 68.3515 52.5973C71.528 52.5973 74.106 50.0193 74.106 46.8428C74.106 46.206 74.6201 45.6919 75.2569 45.6919C75.8937 45.6919 76.4078 46.206 76.4078 46.8428C76.4078 50.0193 78.9858 52.5973 82.1622 52.5973C85.3387 52.5973 87.9167 50.0193 87.9167 46.8428C87.9167 46.206 88.4308 45.6919 89.0676 45.6919Z" fill="#252D32"/>
<path d="M36.1265 103.237C35.4897 103.237 34.9756 102.723 34.9756 102.086V52.2139C34.9756 51.5771 35.4897 51.063 36.1265 51.063C36.7633 51.063 37.2774 51.5771 37.2774 52.2139V102.086C37.2774 102.723 36.7633 103.237 36.1265 103.237Z" fill="#252D32"/>
<path d="M100.576 103.237C99.9389 103.237 99.4248 102.723 99.4248 102.086V52.2139C99.4248 51.5771 99.9389 51.063 100.576 51.063C101.213 51.063 101.727 51.5771 101.727 52.2139V102.086C101.727 102.723 101.213 103.237 100.576 103.237Z" fill="#252D32"/>
<path d="M98.2741 47.2259H34.5913C33.9545 47.2259 33.4404 46.7118 33.4404 46.075C33.4404 45.4381 33.9545 44.9241 34.5913 44.9241H98.2741C98.9109 44.9241 99.425 45.4381 99.425 46.075C99.425 46.7118 98.9109 47.2259 98.2741 47.2259Z" fill="#252D32"/>
<path d="M105.947 103.237H30.7554C30.1186 103.237 29.6045 102.723 29.6045 102.086C29.6045 101.449 30.1186 100.935 30.7554 100.935H105.947C106.584 100.935 107.098 101.449 107.098 102.086C107.098 102.723 106.584 103.237 105.947 103.237Z" fill="#252D32"/>
<path d="M68.0443 87.3534C67.8678 87.3534 67.6913 87.315 67.5302 87.2306C59.0443 82.9876 54.8857 76.5887 56.942 70.9339C57.9241 68.2332 60.3486 66.3611 63.2566 66.0542C65.1057 65.8623 66.8243 66.3764 68.0443 67.4352C69.2719 66.3764 71.0059 65.8623 72.8857 66.0542C75.832 66.3611 78.2796 68.2332 79.2617 70.9263C81.3102 76.5503 77.1056 82.9493 68.5583 87.2229C68.3972 87.3073 68.2207 87.3457 68.0443 87.3457V87.3534ZM64.0468 68.3253C63.8704 68.3253 63.6862 68.3329 63.5021 68.3559C61.9062 68.5247 59.919 69.4992 59.1057 71.7319C57.5405 76.0439 61.1236 81.292 68.0443 84.9135C75.0264 81.2613 78.6555 76.0055 77.098 71.7319C76.2924 69.5068 74.2668 68.5324 72.6479 68.3559C71.0443 68.1871 69.6939 68.7319 69.0187 69.8061C68.8115 70.1437 68.4433 70.3508 68.0443 70.3508C67.6453 70.3508 67.277 70.1437 67.0699 69.8061C66.4791 68.8623 65.3742 68.3253 64.0468 68.3253Z" fill="#252D32"/>
</svg>
