<svg width="91" height="90" viewBox="0 0 91 90" fill="none" xmlns="http://www.w3.org/2000/svg">
<g clip-path="url(#clip0_638_731)">
<path d="M13.0022 38.756C11.6683 38.756 10.5879 37.6755 10.5879 36.3416V31.012C10.5879 14.492 26.1361 1.05627 45.2516 1.05627C64.367 1.05627 79.9152 14.492 79.9152 31.006V36.1364C79.9152 37.4703 78.8348 38.5507 77.5009 38.5507C76.167 38.5507 75.0866 37.4703 75.0866 36.1364V31.006C75.0866 17.1538 61.7052 5.88492 45.2516 5.88492C28.7979 5.88492 15.4165 17.1538 15.4165 31.006V36.3356C15.4165 37.6695 14.3361 38.7499 13.0022 38.7499V38.756Z" fill="white"/>
<path d="M13.0018 39.8121C11.0885 39.8121 9.53125 38.2549 9.53125 36.3415V31.0119C9.53125 13.9124 25.5563 -0.00012207 45.2512 -0.00012207C64.946 -0.00012207 80.9711 13.9124 80.9711 31.0058V36.1363C80.9711 38.0496 79.4139 39.6069 77.5005 39.6069C75.5872 39.6069 74.0299 38.0496 74.0299 36.1363V31.0058C74.0299 17.7331 61.1193 6.94106 45.2512 6.94106C29.383 6.94106 16.4724 17.7391 16.4724 31.0058V36.3355C16.4724 38.2488 14.9152 39.8061 13.0018 39.8061V39.8121ZM45.2512 2.11241C26.7212 2.11241 11.6438 15.0773 11.6438 31.0058V36.3355C11.6438 37.0839 12.2534 37.6935 13.0018 37.6935C13.7503 37.6935 14.3599 37.0839 14.3599 36.3355V31.0058C14.3599 16.5682 28.2181 4.82853 45.2512 4.82853C62.2843 4.82853 76.1425 16.5742 76.1425 31.0058V36.1363C76.1425 36.8847 76.7521 37.4943 77.5005 37.4943C78.249 37.4943 78.8586 36.8847 78.8586 36.1363V31.0058C78.8586 15.0713 63.7811 2.11241 45.2512 2.11241Z" fill="#261E1C"/>
<path d="M80.5309 68.0355C80.5309 70.1058 79.2151 71.7777 77.5975 71.7777H74.664C73.0464 71.7777 71.7246 70.0998 71.7246 68.0355V40.5243C71.7246 38.454 73.0404 36.7821 74.664 36.7821H77.5975C79.2211 36.7821 80.5309 38.4601 80.5309 40.5243V68.0355Z" fill="#FFF083"/>
<path d="M77.5912 72.84H74.6578C72.4547 72.84 70.6621 70.6852 70.6621 68.0415V40.5303C70.6621 37.8806 72.4547 35.7318 74.6578 35.7318H77.5912C79.7943 35.7318 81.5809 37.8866 81.5809 40.5303V68.0415C81.5809 70.6912 79.7883 72.84 77.5912 72.84ZM74.6578 37.8443C73.6378 37.8443 72.7746 39.0757 72.7746 40.5303V68.0415C72.7746 69.4961 73.6378 70.7275 74.6578 70.7275H77.5912C78.6113 70.7275 79.4684 69.4961 79.4684 68.0415V40.5303C79.4684 39.0757 78.6052 37.8443 77.5912 37.8443H74.6578Z" fill="#261E1C"/>
<path d="M81.2131 39.8182C80.9656 39.8182 80.7182 39.8363 80.4707 39.8605V68.265C80.7182 68.2892 80.9656 68.3133 81.2131 68.3133C85.6675 68.3133 89.277 63.9434 89.277 58.5534V49.5781C89.277 44.1882 85.6675 39.8182 81.2131 39.8182Z" fill="#2962F6"/>
<path d="M81.2127 69.3635C80.9592 69.3635 80.6937 69.3454 80.3617 69.3152C79.8245 69.2609 79.4141 68.8082 79.4141 68.265V39.8605C79.4141 39.3233 79.8185 38.8706 80.3556 38.8103C80.6635 38.774 80.9472 38.762 81.2127 38.762C86.2406 38.762 90.3328 43.6148 90.3328 49.5781V58.5534C90.3328 64.5168 86.2406 69.3696 81.2127 69.3696V69.3635ZM81.5266 40.8805V67.245C85.2447 67.0397 88.2203 63.2191 88.2203 58.5534V49.5781C88.2203 44.9125 85.2447 41.0918 81.5266 40.8866V40.8805Z" fill="#261E1C"/>
<path d="M9.80273 68.0355C9.80273 70.1058 11.1185 71.7777 12.7422 71.7777H15.6756C17.2992 71.7777 18.615 70.0998 18.615 68.0355V40.5243C18.615 38.454 17.2992 36.7821 15.6756 36.7821H12.7422C11.1246 36.7821 9.80273 38.4601 9.80273 40.5243V68.0355Z" fill="#FFF083"/>
<path d="M15.6752 72.84H12.7418C10.5387 72.84 8.74609 70.6852 8.74609 68.0415V40.5303C8.74609 37.8806 10.5387 35.7318 12.7418 35.7318H15.6752C17.8783 35.7318 19.6709 37.8866 19.6709 40.5303V68.0415C19.6709 70.6912 17.8783 72.84 15.6752 72.84ZM12.7418 37.8443C11.7218 37.8443 10.8586 39.0757 10.8586 40.5303V68.0415C10.8586 69.4961 11.7218 70.7275 12.7418 70.7275H15.6752C16.6953 70.7275 17.5584 69.4961 17.5584 68.0415V40.5303C17.5584 39.0757 16.6953 37.8443 15.6752 37.8443H12.7418Z" fill="#261E1C"/>
<path d="M9.12049 39.8182C9.36796 39.8182 9.61542 39.8363 9.86289 39.8605V68.265C9.61542 68.2892 9.37399 68.3133 9.12049 68.3133C4.66606 68.3133 1.05664 63.9434 1.05664 58.5534V49.5781C1.05664 44.1882 4.66606 39.8182 9.12049 39.8182Z" fill="#2962F6"/>
<path d="M9.12011 69.3633C4.09228 69.3633 0 64.5105 0 58.5472V49.5719C0 43.6085 4.09228 38.7557 9.12011 38.7557C9.38569 38.7557 9.66334 38.7738 9.9772 38.804C10.5144 38.8644 10.9188 39.3171 10.9188 39.8543V68.2588C10.9188 68.802 10.5083 69.2547 9.97116 69.309C9.63919 69.3452 9.37362 69.3573 9.12011 69.3573V69.3633ZM8.80625 40.8803C5.08819 41.0856 2.11253 44.9062 2.11253 49.5719V58.5472C2.11253 63.2129 5.08819 67.0335 8.80625 67.2387V40.8803Z" fill="#261E1C"/>
<path d="M57.2077 87.1147C55.9281 87.1147 54.8598 86.1068 54.7994 84.8151C54.739 83.4812 55.7651 82.3525 57.0991 82.2921C65.2655 81.9058 71.8325 77.6204 72.0558 72.5322C72.1162 71.1983 73.2328 70.1481 74.5727 70.2265C75.9066 70.2869 76.9388 71.4096 76.8784 72.7435C76.5464 80.4271 68.1386 86.6077 57.3224 87.1208C57.2862 87.1208 57.2439 87.1208 57.2077 87.1208V87.1147Z" fill="white"/>
<path d="M57.2087 88.1712C55.3557 88.1712 53.8287 86.7166 53.7442 84.8636C53.6536 82.9502 55.1384 81.3206 57.0458 81.2361C64.5422 80.886 70.8014 76.9567 70.9945 72.4841C71.079 70.5587 72.6845 69.0497 74.6281 69.1705C75.5395 69.2127 76.3966 69.6111 77.0243 70.2931C77.652 70.9752 77.9719 71.8624 77.9357 72.7859C77.5796 81.0188 68.7371 87.634 57.3777 88.1712C57.3234 88.1712 57.2691 88.1712 57.2148 88.1712H57.2087ZM74.4349 71.2709C73.7227 71.2709 73.1433 71.8443 73.1071 72.5686C72.8596 78.2 65.852 82.9321 57.1423 83.3365C56.3939 83.3727 55.8144 84.0065 55.8507 84.7549C55.8869 85.4792 56.4784 86.0466 57.2027 86.0466H57.2691C67.536 85.5637 75.5093 79.8176 75.8171 72.6773C75.8352 72.3151 75.7085 71.965 75.461 71.6995C75.2135 71.4339 74.8816 71.277 74.5194 71.2589H74.4289L74.4349 71.2709Z" fill="#261E1C"/>
<path d="M57.3636 85.5817C57.3636 87.4407 55.8546 88.9497 54.0016 88.9497H46.1491C44.29 88.9497 42.7871 87.4407 42.7871 85.5817C42.7871 83.7226 44.29 82.2197 46.1491 82.2197H54.0016C55.8607 82.2197 57.3636 83.7287 57.3636 85.5817Z" fill="#2962F6"/>
<path d="M54.0032 89.9999H46.1506C43.7122 89.9999 41.7324 88.0141 41.7324 85.5757C41.7324 83.1372 43.7182 81.1575 46.1506 81.1575H54.0032C56.4417 81.1575 58.4214 83.1432 58.4214 85.5757C58.4214 88.0081 56.4357 89.9999 54.0032 89.9999ZM46.1506 83.27C44.8771 83.27 43.845 84.3082 43.845 85.5757C43.845 86.8432 44.8771 87.8874 46.1506 87.8874H54.0032C55.2768 87.8874 56.3089 86.8492 56.3089 85.5757C56.3089 84.3021 55.2768 83.27 54.0032 83.27H46.1506Z" fill="#261E1C"/>
</g>
<defs>
<clipPath id="clip0_638_731">
<rect width="90.332" height="90" fill="white"/>
</clipPath>
</defs>
</svg>
