<svg width="151" height="150" viewBox="0 0 151 150" fill="none" xmlns="http://www.w3.org/2000/svg">
<g clip-path="url(#clip0_549_2012)">
<path d="M21.6684 64.5926C19.4452 64.5926 17.6445 62.7919 17.6445 60.5687V51.686C17.6445 24.1526 43.5583 1.75977 75.4173 1.75977C107.276 1.75977 133.19 24.1526 133.19 51.6759V60.2267C133.19 62.4499 131.389 64.2505 129.166 64.2505C126.943 64.2505 125.142 62.4499 125.142 60.2267V51.6759C125.142 28.5889 102.84 9.80752 75.4173 9.80752C47.9946 9.80752 25.6923 28.5889 25.6923 51.6759V60.5586C25.6923 62.7818 23.8916 64.5825 21.6684 64.5825V64.5926Z" fill="white"/>
<path d="M21.6691 66.3537C18.4802 66.3537 15.8848 63.7583 15.8848 60.5694V51.6867C15.8848 23.1876 42.5932 0 75.418 0C108.243 0 134.951 23.1876 134.951 51.6766V60.2274C134.951 63.4163 132.356 66.0117 129.167 66.0117C125.978 66.0117 123.383 63.4163 123.383 60.2274V51.6766C123.383 29.5554 101.865 11.5686 75.418 11.5686C48.9711 11.5686 27.4534 29.5654 27.4534 51.6766V60.5593C27.4534 63.7482 24.858 66.3436 21.6691 66.3436V66.3537ZM75.418 3.52089C44.5348 3.52089 19.4057 25.1291 19.4057 51.6766V60.5593C19.4057 61.8067 20.4217 62.8228 21.6691 62.8228C22.9165 62.8228 23.9325 61.8067 23.9325 60.5593V51.6766C23.9325 27.6138 47.0296 8.04775 75.418 8.04775C103.806 8.04775 126.903 27.6239 126.903 51.6766V60.2274C126.903 61.4748 127.919 62.4908 129.167 62.4908C130.414 62.4908 131.43 61.4748 131.43 60.2274V51.6766C131.43 25.119 106.301 3.52089 75.418 3.52089Z" fill="#261E1C"/>
<path d="M134.216 113.394C134.216 116.844 132.023 119.631 129.327 119.631H124.438C121.742 119.631 119.539 116.834 119.539 113.394V67.5417C119.539 64.0912 121.732 61.3047 124.438 61.3047H129.327C132.033 61.3047 134.216 64.1013 134.216 67.5417V113.394Z" fill="#FFF083"/>
<path d="M129.318 121.4H124.429C120.757 121.4 117.77 117.808 117.77 113.402V67.5502C117.77 63.134 120.757 59.5527 124.429 59.5527H129.318C132.99 59.5527 135.968 63.144 135.968 67.5502V113.402C135.968 117.818 132.98 121.4 129.318 121.4ZM124.429 63.0736C122.729 63.0736 121.29 65.1258 121.29 67.5502V113.402C121.29 115.827 122.729 117.879 124.429 117.879H129.318C131.018 117.879 132.447 115.827 132.447 113.402V67.5502C132.447 65.1258 131.008 63.0736 129.318 63.0736H124.429Z" fill="#261E1C"/>
<path d="M135.353 66.3633C134.94 66.3633 134.528 66.3935 134.115 66.4337V113.775C134.528 113.815 134.94 113.855 135.353 113.855C142.777 113.855 148.792 106.572 148.792 97.5886V82.6298C148.792 73.6465 142.777 66.3633 135.353 66.3633Z" fill="#2962F6"/>
<path d="M135.353 115.606C134.931 115.606 134.488 115.576 133.935 115.526C133.04 115.435 132.355 114.681 132.355 113.775V66.4344C132.355 65.5391 133.029 64.7846 133.925 64.684C134.438 64.6236 134.911 64.6035 135.353 64.6035C143.733 64.6035 150.553 72.6915 150.553 82.6305V97.5892C150.553 107.528 143.733 115.616 135.353 115.616V115.606ZM135.876 68.1345V112.075C142.073 111.733 147.033 105.365 147.033 97.5892V82.6305C147.033 74.8543 142.073 68.4866 135.876 68.1445V68.1345Z" fill="#261E1C"/>
<path d="M16.3379 113.394C16.3379 116.844 18.5309 119.631 21.237 119.631H26.126C28.832 119.631 31.025 116.834 31.025 113.394V67.5417C31.025 64.0912 28.832 61.3047 26.126 61.3047H21.237C18.541 61.3047 16.3379 64.1013 16.3379 67.5417V113.394Z" fill="#FFF083"/>
<path d="M26.1247 121.4H21.2357C17.5639 121.4 14.5762 117.808 14.5762 113.402V67.5502C14.5762 63.134 17.5639 59.5527 21.2357 59.5527H26.1247C29.7965 59.5527 32.7842 63.144 32.7842 67.5502V113.402C32.7842 117.818 29.7965 121.4 26.1247 121.4ZM21.2357 63.0736C19.5356 63.0736 18.0971 65.1258 18.0971 67.5502V113.402C18.0971 115.827 19.5356 117.879 21.2357 117.879H26.1247C27.8248 117.879 29.2633 115.827 29.2633 113.402V67.5502C29.2633 65.1258 27.8248 63.0736 26.1247 63.0736H21.2357Z" fill="#261E1C"/>
<path d="M15.1995 66.3633C15.612 66.3633 16.0244 66.3935 16.4368 66.4337V113.775C16.0244 113.815 15.622 113.855 15.1995 113.855C7.77546 113.855 1.75977 106.572 1.75977 97.5886V82.6298C1.75977 73.6465 7.77546 66.3633 15.1995 66.3633Z" fill="#2962F6"/>
<path d="M15.2002 115.606C6.82047 115.606 0 107.518 0 97.5795V82.6207C0 72.6817 6.82047 64.5938 15.2002 64.5938C15.6428 64.5938 16.1056 64.6239 16.6287 64.6742C17.524 64.7748 18.198 65.5293 18.198 66.4246V113.766C18.198 114.671 17.5139 115.425 16.6186 115.516C16.0653 115.576 15.6227 115.596 15.2002 115.596V115.606ZM14.6771 68.1348C8.48032 68.4768 3.52089 74.8446 3.52089 82.6207V97.5795C3.52089 105.356 8.48032 111.723 14.6771 112.065V68.1348Z" fill="#261E1C"/>
<path d="M95.3462 145.191C93.2135 145.191 91.4329 143.511 91.3323 141.358C91.2317 139.135 92.9419 137.254 95.1651 137.153C108.776 136.509 119.721 129.367 120.093 120.887C120.194 118.664 122.055 116.913 124.288 117.044C126.511 117.145 128.231 119.016 128.131 121.239C127.577 134.045 113.564 144.346 95.5373 145.201C95.4769 145.201 95.4065 145.201 95.3462 145.201V145.191Z" fill="white"/>
<path d="M95.3453 146.953C92.2569 146.953 89.7118 144.528 89.571 141.44C89.4201 138.251 91.8948 135.535 95.0737 135.394C107.568 134.811 118 128.262 118.322 120.807C118.462 117.598 121.138 115.084 124.378 115.285C125.897 115.355 127.325 116.019 128.371 117.156C129.417 118.293 129.951 119.771 129.89 121.31C129.297 135.032 114.559 146.057 95.6269 146.953C95.5364 146.953 95.4459 146.953 95.3553 146.953H95.3453ZM124.056 118.785C122.869 118.785 121.903 119.741 121.842 120.948C121.43 130.334 109.751 138.221 95.2346 138.895C93.9872 138.955 93.0215 140.011 93.0818 141.259C93.1422 142.466 94.128 143.412 95.3352 143.412H95.4459C112.557 142.607 125.846 133.03 126.359 121.129C126.389 120.526 126.178 119.942 125.766 119.5C125.353 119.057 124.8 118.796 124.196 118.765H124.046L124.056 118.785Z" fill="#261E1C"/>
<path d="M95.6066 142.636C95.6066 145.735 93.0917 148.25 90.0034 148.25H76.9157C73.8174 148.25 71.3125 145.735 71.3125 142.636C71.3125 139.538 73.8174 137.033 76.9157 137.033H90.0034C93.1018 137.033 95.6066 139.548 95.6066 142.636Z" fill="#2962F6"/>
<path d="M90.0041 149.999H76.9164C72.8523 149.999 69.5527 146.69 69.5527 142.625C69.5527 138.561 72.8624 135.262 76.9164 135.262H90.0041C94.0682 135.262 97.3678 138.571 97.3678 142.625C97.3678 146.679 94.0581 149.999 90.0041 149.999ZM76.9164 138.783C74.7938 138.783 73.0736 140.513 73.0736 142.625C73.0736 144.738 74.7938 146.478 76.9164 146.478H90.0041C92.1267 146.478 93.8469 144.748 93.8469 142.625C93.8469 140.503 92.1267 138.783 90.0041 138.783H76.9164Z" fill="#261E1C"/>
</g>
<defs>
<clipPath id="clip0_549_2012">
<rect width="150.553" height="150" fill="white"/>
</clipPath>
</defs>
</svg>
