<svg width="42" height="48" viewBox="0 0 42 48" fill="none" xmlns="http://www.w3.org/2000/svg">
<path d="M12.1455 30.2192H24.2911V34.1231H12.1455V30.2192ZM12.1455 22.4112H29.4964V26.3152H12.1455V22.4112ZM12.1455 14.6033H29.4964V18.5073H12.1455V14.6033ZM32.9666 6.79538H25.7139C24.9852 4.53108 23.0766 2.89142 20.8209 2.89142C18.5653 2.89142 16.6567 4.53108 15.928 6.79538H8.67527C8.43236 6.79538 8.20679 6.8149 7.98123 6.87346C7.30454 7.02962 6.69726 7.42002 6.22878 7.94705C5.91647 8.29841 5.6562 8.72785 5.48269 9.19632C5.30918 9.64528 5.20508 10.1528 5.20508 10.6993V38.0271C5.20508 38.5541 5.30918 39.0812 5.48269 39.5496C5.6562 40.0181 5.91647 40.428 6.22878 40.7989C6.69726 41.326 7.30454 41.7163 7.98123 41.8725C8.20679 41.9115 8.43236 41.9311 8.67527 41.9311H32.9666C34.8752 41.9311 36.4368 40.1743 36.4368 38.0271V10.6993C36.4368 8.55217 34.8752 6.79538 32.9666 6.79538ZM20.8209 6.30739C21.5323 6.30739 22.1223 6.97106 22.1223 7.77137C22.1223 8.57169 21.5323 9.23536 20.8209 9.23536C20.1095 9.23536 19.5196 8.57169 19.5196 7.77137C19.5196 6.97106 20.1095 6.30739 20.8209 6.30739ZM32.9666 38.0271H8.67527V10.6993H32.9666V38.0271Z" fill="#212529"/>
</svg>
