<svg width="100" height="88" viewBox="0 0 100 88" fill="none" xmlns="http://www.w3.org/2000/svg">
<path d="M50.0028 87.913C48.7592 87.913 47.752 86.9057 47.752 85.6621V72.4608C47.752 71.2172 48.7592 70.21 50.0028 70.21C51.2464 70.21 52.2537 71.2172 52.2537 72.4608V85.6621C52.2537 86.9057 51.2464 87.913 50.0028 87.913Z" fill="black"/>
<path d="M70.8739 87.9128H29.1317C27.8881 87.9128 26.8809 86.9056 26.8809 85.662C26.8809 84.4184 27.8881 83.4111 29.1317 83.4111H70.8739C72.1175 83.4111 73.1247 84.4184 73.1247 85.662C73.1247 86.9056 72.1175 87.9128 70.8739 87.9128Z" fill="black"/>
<path d="M97.7483 7.07332C97.7483 4.41168 95.5875 2.25085 92.9258 2.25085H7.07246C4.4052 2.25085 2.25 4.41168 2.25 7.07332V58.7924H97.7483V7.07332Z" fill="white"/>
<path d="M97.7491 61.0433H2.25086C1.00726 61.0433 0 60.036 0 58.7924V7.07332C0 3.17371 3.17371 0 7.07332 0H92.9267C96.8263 0 100 3.17371 100 7.07332V58.7924C100 60.036 98.9927 61.0433 97.7491 61.0433ZM4.50172 56.5416H95.4983V7.07332C95.4983 5.65528 94.3447 4.50172 92.9267 4.50172H7.07332C5.65528 4.50172 4.50172 5.65528 4.50172 7.07332V56.5416Z" fill="black"/>
<path d="M2.25 58.7924V67.3119C2.25 69.9735 4.41082 72.1343 7.07246 72.1343H92.9258C95.5875 72.1343 97.7483 69.9735 97.7483 67.3119V58.7924H2.25Z" fill="white"/>
<mask id="mask0_638_893" style="mask-type:luminance" maskUnits="userSpaceOnUse" x="2" y="58" width="96" height="15">
<path d="M2.25 58.7925V67.312C2.25 69.9736 4.41082 72.1344 7.07246 72.1344H92.9258C95.5875 72.1344 97.7483 69.9736 97.7483 67.312V58.7925H2.25Z" fill="white"/>
</mask>
<g mask="url(#mask0_638_893)">
<path d="M2.44695 58.7925L2.25 59.389V58.7925H2.44695Z" fill="#2962F6"/>
<path d="M4.12384 58.7925L2.25 64.5209V59.389L2.44695 58.7925H4.12384Z" fill="#2962F6"/>
<path d="M5.80636 58.7925L2.25 69.6585V64.5209L4.12384 58.7925H5.80636Z" fill="#2962F6"/>
<path d="M7.48324 58.7925L3.12221 72.1344H2.25V69.6585L5.80636 58.7925H7.48324Z" fill="#2962F6"/>
<path d="M9.16465 58.7924L4.79798 72.1343H3.12109L7.48213 58.7924H9.16465Z" fill="#2962F6"/>
<path d="M10.848 58.7924L6.48134 72.1343H4.79883L9.16549 58.7924H10.848Z" fill="#2962F6"/>
<path d="M12.524 58.7924L8.16299 72.1343H6.48047L10.8471 58.7924H12.524Z" fill="#2962F6"/>
<path d="M14.2076 58.7924L9.84095 72.1343H8.16406L12.5251 58.7924H14.2076Z" fill="#2962F6"/>
<path d="M15.8854 58.7924L11.5243 72.1343H9.8418L14.2085 58.7924H15.8854Z" fill="#2962F6"/>
<path d="M17.567 58.7924L13.2003 72.1343H11.5234L15.8845 58.7924H17.567Z" fill="#2962F6"/>
<path d="M19.2504 58.7924L14.8837 72.1343H13.2012L17.5678 58.7924H19.2504Z" fill="#2962F6"/>
<path d="M20.9264 58.7924L16.5653 72.1343H14.8828L19.2495 58.7924H20.9264Z" fill="#2962F6"/>
<path d="M22.61 58.7924L18.2433 72.1343H16.5664L20.9274 58.7924H22.61Z" fill="#2962F6"/>
<path d="M24.2914 58.7924L19.9247 72.1343H18.2422L22.6089 58.7924H24.2914Z" fill="#2962F6"/>
<path d="M25.9693 58.7924L21.6083 72.1343H19.9258L24.2924 58.7924H25.9693Z" fill="#2962F6"/>
<path d="M27.651 58.7924L23.2843 72.1343H21.6074L25.9685 58.7924H27.651Z" fill="#2962F6"/>
<path d="M29.3268 58.7924L24.9657 72.1343H23.2832L27.6499 58.7924H29.3268Z" fill="#2962F6"/>
<path d="M31.0104 58.7924L26.6437 72.1343H24.9668L29.3278 58.7924H31.0104Z" fill="#2962F6"/>
<path d="M32.6918 58.7924L28.3251 72.1343H26.6426L31.0092 58.7924H32.6918Z" fill="#2962F6"/>
<path d="M34.3697 58.7924L30.0087 72.1343H28.3262L32.6928 58.7924H34.3697Z" fill="#2962F6"/>
<path d="M36.0514 58.7924L31.6847 72.1343H30.0078L34.3689 58.7924H36.0514Z" fill="#2962F6"/>
<path d="M37.7291 58.7924L33.3681 72.1343H31.6855L36.0522 58.7924H37.7291Z" fill="#2962F6"/>
<path d="M39.4107 58.7924L35.0441 72.1343H33.3672L37.7282 58.7924H39.4107Z" fill="#2962F6"/>
<path d="M41.0941 58.7924L36.7274 72.1343H35.0449L39.4116 58.7924H41.0941Z" fill="#2962F6"/>
<path d="M42.7701 58.7924L38.4091 72.1343H36.7266L41.0932 58.7924H42.7701Z" fill="#2962F6"/>
<path d="M44.4537 58.7924L40.087 72.1343H38.4102L42.7712 58.7924H44.4537Z" fill="#2962F6"/>
<path d="M46.1371 58.7924L41.7704 72.1343H40.0879L44.4546 58.7924H46.1371Z" fill="#2962F6"/>
<path d="M47.8131 58.7924L43.452 72.1343H41.7695L46.1362 58.7924H47.8131Z" fill="#2962F6"/>
<path d="M49.4947 58.7924L45.1281 72.1343H43.4512L47.8122 58.7924H49.4947Z" fill="#2962F6"/>
<path d="M51.1725 58.7924L46.8114 72.1343H45.1289L49.4956 58.7924H51.1725Z" fill="#2962F6"/>
<path d="M52.8541 58.7924L48.4874 72.1343H46.8105L51.1716 58.7924H52.8541Z" fill="#2962F6"/>
<path d="M54.5375 58.7924L50.1708 72.1343H48.4883L52.8549 58.7924H54.5375Z" fill="#2962F6"/>
<path d="M56.2135 58.7924L51.8524 72.1343H50.1699L54.5366 58.7924H56.2135Z" fill="#2962F6"/>
<path d="M57.8971 58.7924L53.5304 72.1343H51.8535L56.2146 58.7924H57.8971Z" fill="#2962F6"/>
<path d="M59.5729 58.7924L55.2118 72.1343H53.5293L57.896 58.7924H59.5729Z" fill="#2962F6"/>
<path d="M61.2564 58.7924L56.8954 72.1343H55.2129L59.5739 58.7924H61.2564Z" fill="#2962F6"/>
<path d="M62.9381 58.7924L58.5714 72.1343H56.8945L61.2556 58.7924H62.9381Z" fill="#2962F6"/>
<path d="M64.6158 58.7924L60.2548 72.1343H58.5723L62.9389 58.7924H64.6158Z" fill="#2962F6"/>
<path d="M66.2975 58.7924L61.9308 72.1343H60.2539L64.6149 58.7924H66.2975Z" fill="#2962F6"/>
<path d="M67.9808 58.7924L63.6142 72.1343H61.9316L66.2983 58.7924H67.9808Z" fill="#2962F6"/>
<path d="M69.6568 58.7924L65.2958 72.1343H63.6133L67.9799 58.7924H69.6568Z" fill="#2962F6"/>
<path d="M71.3404 58.7924L66.9738 72.1343H65.2969L69.6579 58.7924H71.3404Z" fill="#2962F6"/>
<path d="M73.0162 58.7924L68.6552 72.1343H66.9727L71.3393 58.7924H73.0162Z" fill="#2962F6"/>
<path d="M74.6998 58.7924L70.3331 72.1343H68.6562L73.0173 58.7924H74.6998Z" fill="#2962F6"/>
<path d="M76.3812 58.7924L72.0146 72.1343H70.332L74.6987 58.7924H76.3812Z" fill="#2962F6"/>
<path d="M78.0592 58.7924L73.6981 72.1343H72.0156L76.3823 58.7924H78.0592Z" fill="#2962F6"/>
<path d="M79.7408 58.7924L75.3742 72.1343H73.6973L78.0583 58.7924H79.7408Z" fill="#2962F6"/>
<path d="M81.4242 58.7924L77.0575 72.1343H75.375L79.7417 58.7924H81.4242Z" fill="#2962F6"/>
<path d="M83.1002 58.7924L78.7392 72.1343H77.0566L81.4233 58.7924H83.1002Z" fill="#2962F6"/>
<path d="M84.7838 58.7924L80.4171 72.1343H78.7402L83.1013 58.7924H84.7838Z" fill="#2962F6"/>
<path d="M86.4596 58.7924L82.0985 72.1343H80.416L84.7827 58.7924H86.4596Z" fill="#2962F6"/>
<path d="M88.1432 58.7924L83.7765 72.1343H82.0996L86.4606 58.7924H88.1432Z" fill="#2962F6"/>
<path d="M89.8246 58.7924L85.4579 72.1343H83.7754L88.1421 58.7924H89.8246Z" fill="#2962F6"/>
<path d="M91.5025 58.7924L87.1415 72.1343H85.459L89.8257 58.7924H91.5025Z" fill="#2962F6"/>
<path d="M93.1842 58.7924L88.8175 72.1343H87.1406L91.5017 58.7924H93.1842Z" fill="#2962F6"/>
<path d="M94.8619 58.7924L90.5009 72.1343H88.8184L93.185 58.7924H94.8619Z" fill="#2962F6"/>
<path d="M96.5436 58.7924L92.1769 72.1343H90.5L94.861 58.7924H96.5436Z" fill="#2962F6"/>
<path d="M97.7486 60.2385L93.8603 72.1343H92.1777L96.5444 58.7924H97.7486V60.2385Z" fill="#2962F6"/>
<path d="M97.7477 65.3761L95.5419 72.1343H93.8594L97.7477 60.2385V65.3761Z" fill="#2962F6"/>
<path d="M97.7488 70.5138L97.2199 72.1344H95.543L97.7488 65.3762V70.5138Z" fill="#2962F6"/>
<path d="M97.2188 72.1344L97.7477 70.5138V72.1344H97.2188Z" fill="#2962F6"/>
</g>
<path d="M92.9267 74.3852H7.07332C3.17371 74.3852 0 71.2115 0 67.3119V58.7924C0 57.5488 1.00726 56.5415 2.25086 56.5415H97.7491C98.9927 56.5415 100 57.5488 100 58.7924V67.3119C100 71.2115 96.8263 74.3852 92.9267 74.3852ZM4.50172 61.0432V67.3119C4.50172 68.7299 5.65528 69.8835 7.07332 69.8835H92.9267C94.3447 69.8835 95.4983 68.7299 95.4983 67.3119V61.0432H4.50172Z" fill="black"/>
<path d="M38.4551 32.1311V43.4473C38.4551 44.2126 39.0741 44.8316 39.8394 44.8316H60.1646C60.9299 44.8316 61.5489 44.2126 61.5489 43.4473V32.1311H38.4551Z" fill="white"/>
<path d="M60.1655 47.0824H39.8402C37.837 47.0824 36.2051 45.4506 36.2051 43.4473V32.1311C36.2051 30.8875 37.2123 29.8802 38.4559 29.8802H61.5497C62.7933 29.8802 63.8006 30.8875 63.8006 32.1311V43.4473C63.8006 45.4506 62.1687 47.0824 60.1655 47.0824ZM40.7068 42.5807H59.2989V34.382H40.7068V42.5807Z" fill="black"/>
<path d="M50.0039 16.2118L31.7832 32.131H38.457H61.5508H68.2246L50.0039 16.2118Z" fill="white"/>
<mask id="mask1_638_893" style="mask-type:luminance" maskUnits="userSpaceOnUse" x="31" y="16" width="38" height="17">
<path d="M50.0039 16.2119L31.7832 32.1311H38.457H61.5508H68.2246L50.0039 16.2119Z" fill="white"/>
</mask>
<g mask="url(#mask1_638_893)">
<path d="M32.3403 16.2119H31.7832V32.1311H32.3403V16.2119Z" fill="#FFF083"/>
<path d="M32.8969 16.2119H32.3398V32.1311H32.8969V16.2119Z" fill="#FFF083"/>
<path d="M33.4555 16.2119H32.8984V32.1311H33.4555V16.2119Z" fill="#FFF083"/>
<path d="M34.0122 16.2119H33.4551V32.1311H34.0122V16.2119Z" fill="#FFF083"/>
<path d="M34.5747 16.2119H34.0176V32.1311H34.5747V16.2119Z" fill="#FFF083"/>
<path d="M35.1313 16.2119H34.5742V32.1311H35.1313V16.2119Z" fill="#FFF083"/>
<path d="M35.6879 16.2119H35.1309V32.1311H35.6879V16.2119Z" fill="#FFF083"/>
<path d="M36.2465 16.2119H35.6895V32.1311H36.2465V16.2119Z" fill="#FFF083"/>
<path d="M36.809 16.2119H36.252V32.1311H36.809V16.2119Z" fill="#FFF083"/>
<path d="M37.3657 16.2119H36.8086V32.1311H37.3657V16.2119Z" fill="#FFF083"/>
<path d="M37.9223 16.2119H37.3652V32.1311H37.9223V16.2119Z" fill="#FFF083"/>
<path d="M38.479 16.2119H37.9219V32.1311H38.479V16.2119Z" fill="#FFF083"/>
<path d="M39.0434 16.2119H38.4863V32.1311H39.0434V16.2119Z" fill="#FFF083"/>
<path d="M39.6001 16.2119H39.043V32.1311H39.6001V16.2119Z" fill="#FFF083"/>
<path d="M40.1567 16.2119H39.5996V32.1311H40.1567V16.2119Z" fill="#FFF083"/>
<path d="M40.7133 16.2119H40.1562V32.1311H40.7133V16.2119Z" fill="#FFF083"/>
<path d="M41.27 16.2119H40.7129V32.1311H41.27V16.2119Z" fill="#FFF083"/>
<path d="M41.8344 16.2119H41.2773V32.1311H41.8344V16.2119Z" fill="#FFF083"/>
<path d="M42.3911 16.2119H41.834V32.1311H42.3911V16.2119Z" fill="#FFF083"/>
<path d="M42.9477 16.2119H42.3906V32.1311H42.9477V16.2119Z" fill="#FFF083"/>
<path d="M43.5044 16.2119H42.9473V32.1311H43.5044V16.2119Z" fill="#FFF083"/>
<path d="M44.0669 16.2119H43.5098V32.1311H44.0669V16.2119Z" fill="#FFF083"/>
<path d="M44.6254 16.2119H44.0684V32.1311H44.6254V16.2119Z" fill="#FFF083"/>
<path d="M45.1821 16.2119H44.625V32.1311H45.1821V16.2119Z" fill="#FFF083"/>
<path d="M45.7387 16.2119H45.1816V32.1311H45.7387V16.2119Z" fill="#FFF083"/>
<path d="M46.3012 16.2119H45.7441V32.1311H46.3012V16.2119Z" fill="#FFF083"/>
<path d="M46.8579 16.2119H46.3008V32.1311H46.8579V16.2119Z" fill="#FFF083"/>
<path d="M47.4165 16.2119H46.8594V32.1311H47.4165V16.2119Z" fill="#FFF083"/>
<path d="M47.9731 16.2119H47.416V32.1311H47.9731V16.2119Z" fill="#FFF083"/>
<path d="M48.5297 16.2119H47.9727V32.1311H48.5297V16.2119Z" fill="#FFF083"/>
<path d="M49.0922 16.2119H48.5352V32.1311H49.0922V16.2119Z" fill="#FFF083"/>
<path d="M49.6489 16.2119H49.0918V32.1311H49.6489V16.2119Z" fill="#FFF083"/>
<path d="M50.2075 16.2119H49.6504V32.1311H50.2075V16.2119Z" fill="#FFF083"/>
<path d="M50.7641 16.2119H50.207V32.1311H50.7641V16.2119Z" fill="#FFF083"/>
<path d="M51.3266 16.2119H50.7695V32.1311H51.3266V16.2119Z" fill="#FFF083"/>
<path d="M51.8833 16.2119H51.3262V32.1311H51.8833V16.2119Z" fill="#FFF083"/>
<path d="M52.4399 16.2119H51.8828V32.1311H52.4399V16.2119Z" fill="#FFF083"/>
<path d="M52.9985 16.2119H52.4414V32.1311H52.9985V16.2119Z" fill="#FFF083"/>
<path d="M53.561 16.2119H53.0039V32.1311H53.561V16.2119Z" fill="#FFF083"/>
<path d="M54.1176 16.2119H53.5605V32.1311H54.1176V16.2119Z" fill="#FFF083"/>
<path d="M54.6743 16.2119H54.1172V32.1311H54.6743V16.2119Z" fill="#FFF083"/>
<path d="M55.2309 16.2119H54.6738V32.1311H55.2309V16.2119Z" fill="#FFF083"/>
<path d="M55.7895 16.2119H55.2324V32.1311H55.7895V16.2119Z" fill="#FFF083"/>
<path d="M56.352 16.2119H55.7949V32.1311H56.352V16.2119Z" fill="#FFF083"/>
<path d="M56.9086 16.2119H56.3516V32.1311H56.9086V16.2119Z" fill="#FFF083"/>
<path d="M57.4653 16.2119H56.9082V32.1311H57.4653V16.2119Z" fill="#FFF083"/>
<path d="M58.0219 16.2119H57.4648V32.1311H58.0219V16.2119Z" fill="#FFF083"/>
<path d="M58.5844 16.2119H58.0273V32.1311H58.5844V16.2119Z" fill="#FFF083"/>
<path d="M59.143 16.2119H58.5859V32.1311H59.143V16.2119Z" fill="#FFF083"/>
<path d="M59.6997 16.2119H59.1426V32.1311H59.6997V16.2119Z" fill="#FFF083"/>
<path d="M60.2563 16.2119H59.6992V32.1311H60.2563V16.2119Z" fill="#FFF083"/>
<path d="M60.8188 16.2119H60.2617V32.1311H60.8188V16.2119Z" fill="#FFF083"/>
<path d="M61.3754 16.2119H60.8184V32.1311H61.3754V16.2119Z" fill="#FFF083"/>
<path d="M61.934 16.2119H61.377V32.1311H61.934V16.2119Z" fill="#FFF083"/>
<path d="M62.4907 16.2119H61.9336V32.1311H62.4907V16.2119Z" fill="#FFF083"/>
<path d="M63.0532 16.2119H62.4961V32.1311H63.0532V16.2119Z" fill="#FFF083"/>
<path d="M63.6098 16.2119H63.0527V32.1311H63.6098V16.2119Z" fill="#FFF083"/>
<path d="M64.1665 16.2119H63.6094V32.1311H64.1665V16.2119Z" fill="#FFF083"/>
<path d="M64.7251 16.2119H64.168V32.1311H64.7251V16.2119Z" fill="#FFF083"/>
<path d="M65.2817 16.2119H64.7246V32.1311H65.2817V16.2119Z" fill="#FFF083"/>
<path d="M65.8442 16.2119H65.2871V32.1311H65.8442V16.2119Z" fill="#FFF083"/>
<path d="M66.4008 16.2119H65.8438V32.1311H66.4008V16.2119Z" fill="#FFF083"/>
<path d="M66.9575 16.2119H66.4004V32.1311H66.9575V16.2119Z" fill="#FFF083"/>
<path d="M67.5161 16.2119H66.959V32.1311H67.5161V16.2119Z" fill="#FFF083"/>
<path d="M68.2249 16.2119H67.5215V32.1311H68.2249V16.2119Z" fill="#FFF083"/>
</g>
<path d="M68.2234 34.3818H31.782C30.8423 34.3818 30.0038 33.8023 29.6718 32.9244C29.3398 32.0466 29.5931 31.0562 30.2965 30.4372L48.5172 14.518C49.3669 13.7752 50.633 13.7752 51.477 14.518L69.6977 30.4372C70.4011 31.0562 70.6544 32.0466 70.3223 32.9244C69.9903 33.8023 69.1519 34.3818 68.2122 34.3818H68.2234ZM37.7806 29.8801H62.2249L50.0027 19.1998L37.7806 29.8801Z" fill="black"/>
<path d="M85.4603 45.1859L81.9828 41.7139C83.1307 41.607 84.031 40.656 84.031 39.4856C84.031 38.242 83.0238 37.2347 81.7802 37.2347H76.5695C76.5695 37.2347 76.5582 37.2347 76.5526 37.2347C76.4119 37.2347 76.2712 37.2516 76.1305 37.2798C76.063 37.291 76.0067 37.3191 75.9392 37.336C75.8604 37.3585 75.7816 37.3754 75.7085 37.4092C75.6353 37.4373 75.5678 37.4823 75.5003 37.5161C75.4384 37.5499 75.3765 37.578 75.3202 37.6118C75.1964 37.6962 75.0839 37.7862 74.9826 37.8875C74.8757 37.9944 74.7856 38.107 74.7012 38.2307C74.6618 38.287 74.6393 38.3433 74.6056 38.4052C74.5662 38.4783 74.5212 38.5459 74.493 38.619C74.4649 38.6922 74.4424 38.771 74.4255 38.8497C74.4086 38.9116 74.3805 38.9735 74.3692 39.0411C74.3411 39.1874 74.3242 39.3337 74.3242 39.48V44.6963C74.3242 45.9399 75.3315 46.9472 76.5751 46.9472C77.7512 46.9472 78.7021 46.0469 78.8034 44.8989L82.281 48.3765C82.7199 48.8154 83.2939 49.0349 83.8735 49.0349C84.4531 49.0349 85.0271 48.8154 85.466 48.3765C86.3438 47.4987 86.3438 46.0694 85.466 45.1915L85.4603 45.1859Z" fill="black"/>
<mask id="mask2_638_893" style="mask-type:luminance" maskUnits="userSpaceOnUse" x="74" y="37" width="13" height="13">
<path d="M85.4603 45.186L81.9828 41.7141C83.1307 41.6072 84.031 40.6562 84.031 39.4857C84.031 38.2421 83.0238 37.2349 81.7802 37.2349H76.5695C76.5695 37.2349 76.5582 37.2349 76.5526 37.2349C76.4119 37.2349 76.2712 37.2517 76.1305 37.2799C76.063 37.2911 76.0067 37.3193 75.9392 37.3362C75.8604 37.3587 75.7816 37.3755 75.7085 37.4093C75.6353 37.4374 75.5678 37.4825 75.5003 37.5162C75.4384 37.55 75.3765 37.5781 75.3202 37.6119C75.1964 37.6963 75.0839 37.7863 74.9826 37.8876C74.8757 37.9945 74.7856 38.1071 74.7012 38.2309C74.6618 38.2871 74.6393 38.3434 74.6056 38.4053C74.5662 38.4785 74.5212 38.546 74.493 38.6191C74.4649 38.6923 74.4424 38.7711 74.4255 38.8499C74.4086 38.9118 74.3805 38.9737 74.3692 39.0412C74.3411 39.1875 74.3242 39.3338 74.3242 39.4801V44.6965C74.3242 45.9401 75.3315 46.9473 76.5751 46.9473C77.7512 46.9473 78.7021 46.047 78.8034 44.899L82.281 48.3766C82.7199 48.8155 83.2939 49.035 83.8735 49.035C84.4531 49.035 85.0271 48.8155 85.466 48.3766C86.3438 47.4988 86.3438 46.0695 85.466 45.1916L85.4603 45.186Z" fill="white"/>
</mask>
<g mask="url(#mask2_638_893)">
<path d="M76.8283 37.2292L74.3242 40.1722V37.2292H76.8283Z" fill="#2962F6"/>
<path d="M77.0984 37.2292L74.3242 40.493V40.1722L76.8283 37.2292H77.0984Z" fill="#2962F6"/>
<path d="M77.3741 37.2292L74.3242 40.8137V40.493L77.0984 37.2292H77.3741Z" fill="#2962F6"/>
<path d="M77.6499 37.2292L74.3242 41.1345V40.8137L77.3741 37.2292H77.6499Z" fill="#2962F6"/>
<path d="M77.92 37.2292L74.3242 41.4552V41.1345L77.6499 37.2292H77.92Z" fill="#2962F6"/>
<path d="M78.1957 37.2292L74.3242 41.776V41.4552L77.92 37.2292H78.1957Z" fill="#2962F6"/>
<path d="M78.4714 37.2292L74.3242 42.1024V41.776L78.1957 37.2292H78.4714Z" fill="#2962F6"/>
<path d="M78.7415 37.2292L74.3242 42.4231V42.1024L78.4714 37.2292H78.7415Z" fill="#2962F6"/>
<path d="M79.0173 37.2292L74.3242 42.7438V42.4231L78.7415 37.2292H79.0173Z" fill="#2962F6"/>
<path d="M79.293 37.2292L74.3242 43.0646V42.7438L79.0173 37.2292H79.293Z" fill="#2962F6"/>
<path d="M79.5687 37.2292L74.3242 43.3853V43.0646L79.293 37.2292H79.5687Z" fill="#2962F6"/>
<path d="M79.8388 37.2292L74.3242 43.7061V43.3853L79.5687 37.2292H79.8388Z" fill="#2962F6"/>
<path d="M80.1145 37.2292L74.3242 44.0268V43.7061L79.8388 37.2292H80.1145Z" fill="#2962F6"/>
<path d="M80.3903 37.2292L74.3242 44.3532V44.0268L80.1145 37.2292H80.3903Z" fill="#2962F6"/>
<path d="M80.6604 37.2292L74.3242 44.674V44.3532L80.3903 37.2292H80.6604Z" fill="#2962F6"/>
<path d="M80.9361 37.2292L74.3242 44.9947V44.674L80.6604 37.2292H80.9361Z" fill="#2962F6"/>
<path d="M81.2118 37.2292L74.3242 45.3155V44.9947L80.9361 37.2292H81.2118Z" fill="#2962F6"/>
<path d="M81.4819 37.2292L74.3242 45.6362V45.3155L81.2118 37.2292H81.4819Z" fill="#2962F6"/>
<path d="M81.7577 37.2292L74.3242 45.9569V45.6362L81.4819 37.2292H81.7577Z" fill="#2962F6"/>
<path d="M82.0334 37.2292L74.3242 46.2777V45.9569L81.7577 37.2292H82.0334Z" fill="#2962F6"/>
<path d="M82.3035 37.2292L74.3242 46.6041V46.2777L82.0334 37.2292H82.3035Z" fill="#2962F6"/>
<path d="M82.5792 37.2292L74.3242 46.9248V46.6041L82.3035 37.2292H82.5792Z" fill="#2962F6"/>
<path d="M82.855 37.2292L74.3242 47.2456V46.9248L82.5792 37.2292H82.855Z" fill="#2962F6"/>
<path d="M83.1251 37.2292L74.3242 47.5663V47.2456L82.855 37.2292H83.1251Z" fill="#2962F6"/>
<path d="M83.4008 37.2292L74.4818 47.7014L74.3242 47.5663L83.1251 37.2292H83.4008Z" fill="#2962F6"/>
<path d="M83.6772 37.229L74.64 47.8362L74.4824 47.7011L83.4015 37.229H83.6772Z" fill="#2962F6"/>
<path d="M83.9516 37.229L74.8019 47.9712L74.6387 47.8362L83.6759 37.229H83.9516Z" fill="#2962F6"/>
<path d="M84.2226 37.229L74.9603 48.1063L74.8027 47.9712L83.9525 37.229H84.2226Z" fill="#2962F6"/>
<path d="M84.4989 37.229L75.1185 48.2413L74.9609 48.1063L84.2232 37.229H84.4989Z" fill="#2962F6"/>
<path d="M84.7621 37.229L84.7677 37.2346L75.2747 48.3764L75.1172 48.2413L84.4976 37.229H84.7621Z" fill="#2962F6"/>
<path d="M84.7712 37.2411L75.2793 48.3822L75.4378 48.5172L84.9296 37.3762L84.7712 37.2411Z" fill="#2962F6"/>
<path d="M84.9313 37.3777L75.4395 48.5188L75.5979 48.6538L85.0898 37.5128L84.9313 37.3777Z" fill="#2962F6"/>
<path d="M85.0895 37.5098L75.5977 48.6509L75.7561 48.7859L85.248 37.6448L85.0895 37.5098Z" fill="#2962F6"/>
<path d="M85.2497 37.6464L75.7578 48.7875L75.9163 48.9225L85.4081 37.7814L85.2497 37.6464Z" fill="#2962F6"/>
<path d="M85.4051 37.7749L85.5627 37.91L76.0922 49.0292H76.0415L75.9121 48.9167L85.4051 37.7749Z" fill="#2962F6"/>
<path d="M85.5623 37.9099L85.7198 38.045L76.3675 49.0291H76.0918L85.5623 37.9099Z" fill="#2962F6"/>
<path d="M85.7195 38.045L85.8771 38.1801L76.6373 49.0292H76.3672L85.7195 38.045Z" fill="#2962F6"/>
<path d="M85.8765 38.1799L86.0397 38.315L76.9124 49.0291H76.6367L85.8765 38.1799Z" fill="#2962F6"/>
<path d="M86.0393 38.3152L86.1969 38.4502L77.1878 49.0293H76.9121L86.0393 38.3152Z" fill="#2962F6"/>
<path d="M86.1985 38.4501L86.3448 38.5739V38.602L77.4596 49.0291H77.1895L86.1985 38.4501Z" fill="#2962F6"/>
<path d="M86.3443 38.9284L77.7347 49.0292H77.459L86.3443 38.6021V38.9284Z" fill="#2962F6"/>
<path d="M86.3439 39.2492L78.0101 49.0292H77.7344L86.3439 38.9285V39.2492Z" fill="#2962F6"/>
<path d="M86.3436 39.5698L78.2799 49.029H78.0098L86.3436 39.249V39.5698Z" fill="#2962F6"/>
<path d="M86.3449 39.8908L78.557 49.0293H78.2812L86.3449 39.5701V39.8908Z" fill="#2962F6"/>
<path d="M86.3446 40.2114L78.8324 49.0291H78.5566L86.3446 39.8906V40.2114Z" fill="#2962F6"/>
<path d="M86.3443 40.5321L79.1021 49.029H78.832L86.3443 40.2113V40.5321Z" fill="#2962F6"/>
<path d="M86.3437 40.853L79.3773 49.0292H79.1016L86.3437 40.5322V40.853Z" fill="#2962F6"/>
<path d="M86.3434 41.1792L79.6527 49.029H79.377L86.3434 40.8528V41.1792Z" fill="#2962F6"/>
<path d="M86.343 41.4999L79.9281 49.0291H79.6523L86.343 41.1792V41.4999Z" fill="#2962F6"/>
<path d="M86.3446 41.8207L80.1998 49.0291H79.9297L86.3446 41.5V41.8207Z" fill="#2962F6"/>
<path d="M86.3441 42.1415L80.4749 49.0292H80.1992L86.3441 41.8208V42.1415Z" fill="#2962F6"/>
<path d="M86.3437 42.4622L80.7503 49.0291H80.4746L86.3437 42.1415V42.4622Z" fill="#2962F6"/>
<path d="M86.3434 42.7829L81.0201 49.029H80.75L86.3434 42.4622V42.7829Z" fill="#2962F6"/>
<path d="M86.3448 43.1095L81.2972 49.0292H81.0215L86.3448 42.7831V43.1095Z" fill="#2962F6"/>
<path d="M86.3444 43.4302L81.5726 49.0293H81.2969L86.3444 43.1095V43.4302Z" fill="#2962F6"/>
<path d="M86.3441 43.7509L81.8424 49.0292H81.5723L86.3441 43.4302V43.7509Z" fill="#2962F6"/>
<path d="M86.3435 44.0715L82.1175 49.029H81.8418L86.3435 43.7507V44.0715Z" fill="#2962F6"/>
<path d="M86.3432 44.3925L82.3929 49.0293H82.1172L86.3432 44.0718V44.3925Z" fill="#2962F6"/>
<path d="M86.3448 44.7131L82.6646 49.0291H82.3945L86.3448 44.3923V44.7131Z" fill="#2962F6"/>
<path d="M86.3442 45.0338L82.9398 49.029H82.6641L86.3442 44.713V45.0338Z" fill="#2962F6"/>
<path d="M86.3439 45.3603L83.2152 49.0292H82.9395L86.3439 45.0339V45.3603Z" fill="#2962F6"/>
<path d="M86.3435 45.6811L83.4849 49.0292H83.2148L86.3435 45.3604V45.6811Z" fill="#2962F6"/>
<path d="M86.3449 46.0017L83.7621 49.0291H83.4863L86.3449 45.6809V46.0017Z" fill="#2962F6"/>
<path d="M86.3446 46.3225L84.0374 49.0291H83.7617L86.3446 46.0017V46.3225Z" fill="#2962F6"/>
<path d="M86.3442 46.6433L84.3128 49.0292H84.0371L86.3442 46.3225V46.6433Z" fill="#2962F6"/>
<path d="M84.3125 49.0291L86.3439 46.6432V49.0291H84.3125Z" fill="#2962F6"/>
</g>
</svg>
