<svg width="30" height="28" viewBox="0 0 30 28" fill="none" xmlns="http://www.w3.org/2000/svg">
<path d="M15 0.157959C6.71569 0.157959 0 5.45315 0 11.9849C0 16.2078 2.80763 19.9132 7.03097 22.0056C6.80119 22.798 5.5545 27.1033 5.50481 27.4416C5.50481 27.4416 5.475 27.6956 5.63953 27.7926C5.80416 27.8895 5.99766 27.8142 5.99766 27.8142C6.46959 27.7483 11.4702 24.2357 12.3358 23.6257C13.2005 23.7482 14.0908 23.8118 15 23.8118C23.2843 23.8118 30 18.5168 30 11.9849C30 5.45315 23.2843 0.157959 15 0.157959Z" fill="#381F1F"/>
<path fill-rule="evenodd" clip-rule="evenodd" d="M6.70745 16.1169C6.23017 16.1169 5.84205 15.7462 5.84205 15.2904V10.1493H4.49177C4.02348 10.1493 3.64258 9.76906 3.64258 9.3019C3.64258 8.83475 4.02358 8.45459 4.49177 8.45459H8.92314C9.39142 8.45459 9.77233 8.83475 9.77233 9.3019C9.77233 9.76906 9.39133 10.1493 8.92314 10.1493H7.57286V15.2904C7.57286 15.7462 7.18473 16.1169 6.70745 16.1169ZM14.2957 16.1055C13.9348 16.1055 13.6588 15.959 13.5756 15.7233L13.147 14.6015L10.5082 14.6013L10.0795 15.7239C9.99648 15.9591 9.72058 16.1055 9.35973 16.1055C9.16989 16.1057 8.9822 16.0649 8.80961 15.9861C8.57102 15.876 8.3417 15.5734 8.60448 14.7572L10.6745 9.30875C10.8204 8.89437 11.2632 8.46743 11.827 8.45459C12.3922 8.46734 12.835 8.89437 12.9812 9.30959L15.0504 14.7556C15.3137 15.5737 15.0844 15.8765 14.8458 15.9862C14.6731 16.0649 14.4855 16.1056 14.2957 16.1055ZM11.8281 10.6175L12.6925 13.073H10.9638L11.8281 10.6175ZM16.4427 15.9907C15.9853 15.9907 15.6134 15.6347 15.6134 15.1974V9.32C15.6134 8.84271 16.0097 8.45459 16.4968 8.45459C16.9838 8.45459 17.3802 8.84271 17.3802 9.32V14.4041H19.2191C19.6765 14.4041 20.0485 14.76 20.0485 15.1974C20.0485 15.6347 19.6765 15.9907 19.2191 15.9907H16.4427ZM20.3867 15.2402C20.3867 15.7175 20.7748 16.1056 21.2521 16.1056C21.4816 16.1052 21.7016 16.0139 21.8639 15.8517C22.0262 15.6894 22.1175 15.4693 22.1178 15.2397V13.3516L22.4181 13.0513L24.4476 15.7404C24.5279 15.8477 24.6323 15.9347 24.7524 15.9945C24.8724 16.0542 25.0047 16.085 25.1388 16.0844C25.3269 16.0848 25.5098 16.0235 25.6594 15.9097C25.7503 15.8415 25.8268 15.756 25.8845 15.6581C25.942 15.5601 25.9797 15.4516 25.9951 15.339C26.0113 15.2264 26.0049 15.1119 25.9764 15.0018C25.9479 14.8917 25.8978 14.7884 25.829 14.6979L23.6988 11.8759L25.6709 9.90406C25.8065 9.7684 25.8744 9.58128 25.8619 9.37718C25.8494 9.17487 25.759 8.98006 25.6074 8.82856C25.4449 8.66618 25.2279 8.573 25.0119 8.573C24.8267 8.573 24.6561 8.64134 24.5319 8.76556L22.1175 11.18V9.32C22.1175 8.84271 21.7294 8.45459 21.2521 8.45459C20.7748 8.45459 20.3867 8.84271 20.3867 9.32V15.2402Z" fill="#FFE812"/>
</svg>
