<svg width="81" height="80" viewBox="0 0 81 80" fill="none" xmlns="http://www.w3.org/2000/svg">
<g clip-path="url(#clip0_549_1766)">
<path d="M68.8333 10L68.3 10.1L50.5 17L30.5 10L11.7 16.3333C11 16.5667 10.5 17.1667 10.5 17.9333V68.3333C10.5 69.2667 11.2333 70 12.1667 70L12.7 69.9L30.5 63L50.5 70L69.3 63.6667C70 63.4333 70.5 62.8333 70.5 62.0667V11.6667C70.5 10.7333 69.7667 10 68.8333 10ZM33.8333 18.2333L47.1667 22.9V61.7667L33.8333 57.1V18.2333ZM17.1667 21.5333L27.1667 18.1667V57.1667L17.1667 61.0333V21.5333ZM63.8333 58.4667L53.8333 61.8333V22.8667L63.8333 19V58.4667Z" fill="#212529"/>
</g>
<defs>
<clipPath id="clip0_549_1766">
<rect width="80" height="80" fill="white" transform="translate(0.5)"/>
</clipPath>
</defs>
</svg>
