<svg width="80" height="80" viewBox="0 0 80 80" fill="none" xmlns="http://www.w3.org/2000/svg">
<g clip-path="url(#clip0_549_1802)">
<path d="M63.3333 46.6673V60.0007H56.6667V46.6673H63.3333ZM23.3333 46.6673V60.0007H20C18.1667 60.0007 16.6667 58.5007 16.6667 56.6673V46.6673H23.3333ZM40 3.33398C23.4333 3.33398 10 16.7673 10 33.334V56.6673C10 62.2007 14.4667 66.6673 20 66.6673H30V40.0007H16.6667V33.334C16.6667 20.434 27.1 10.0007 40 10.0007C52.9 10.0007 63.3333 20.434 63.3333 33.334V40.0007H50V66.6673H63.3333V70.0007H40V76.6673H60C65.5333 76.6673 70 72.2007 70 66.6673V33.334C70 16.7673 56.5667 3.33398 40 3.33398Z" fill="#212529"/>
</g>
<defs>
<clipPath id="clip0_549_1802">
<rect width="80" height="80" fill="white"/>
</clipPath>
</defs>
</svg>
