<svg width="53" height="53" viewBox="0 0 53 53" fill="none" xmlns="http://www.w3.org/2000/svg">
<path d="M29.5975 25.4579C27.8565 25.0306 25.9957 25.8053 24.9456 27.2587C22.3541 30.8405 19.8185 37.6607 21.5315 42.1129C22.0666 43.5065 23.7117 44.5887 25.3888 44.8242C26.3272 44.956 27.4931 44.6126 28.3916 44.3091C29.6414 43.8899 30.6277 43.2031 31.055 42.7119C31.4862 42.2168 31.9614 41.3942 32.4366 41.2265C32.9157 41.0747 33.7942 41.4341 34.4371 41.5619C35.076 41.6897 36.2739 41.6338 37.5237 41.2065C38.4222 40.8991 39.5562 40.4598 40.2191 39.785C41.401 38.5751 42.0119 36.7303 41.6246 35.2848C40.4347 30.8645 34.469 26.6478 29.6015 25.4579H29.5975Z" fill="white"/>
<path d="M8.74845 28.1206C7.5625 30.0214 8.96407 32.3373 10.3736 33.655C11.859 35.0446 13.2406 35.7714 15.2891 35.4919C17.1219 35.2403 18.244 33.8986 17.6051 31.974C17.078 30.3847 15.3091 28.8035 13.9674 27.8491C12.5818 26.8668 10.162 26.3517 8.75244 28.1206H8.74845Z" fill="white"/>
<path d="M43.524 16.5932C45.6083 17.4158 45.8559 20.1111 45.5085 22.0078C45.1412 24.0084 44.4623 25.4139 42.6495 26.4042C41.0243 27.2907 39.3233 26.8794 38.6963 24.9507C38.1772 23.3575 38.6564 21.0375 39.1715 19.4722C39.6986 17.859 41.3398 16.0063 43.528 16.5893L43.524 16.5932Z" fill="white"/>
<path d="M14.89 14.9718C12.8336 16.8565 14.0794 19.8993 14.9419 21.5005C15.9921 23.4491 17.7291 25.6892 20.1808 25.6373C25.0524 25.5295 22.3291 17.6232 20.4284 15.5508C19.8135 14.88 18.915 14.2091 18.0206 14.0454C16.9145 13.8458 16.5831 13.9296 14.89 14.9718Z" fill="white"/>
<path d="M28.21 10.0242C25.6664 11.3379 25.7742 13.6299 26.3532 15.9539C26.8044 17.7708 27.5591 20.3503 29.2602 21.3765C31.1649 22.5225 33.5328 21.3086 34.2595 19.3121C35.0062 17.2716 34.8105 14.6801 34.0039 12.7035C33.2932 10.9506 31.2926 8.89815 28.206 10.0242H28.21Z" fill="white"/>
<path d="M39.0558 49.5065C38.4249 49.7262 37.786 49.9338 37.1551 50.1374L36.9555 50.2013C36.3126 50.409 35.6777 50.6286 35.0508 50.8482C32.9105 51.5949 30.6984 52.3656 28.2266 52.5852C21.7299 53.1682 16.7386 50.6326 13.4004 45.0463C12.3103 43.2215 10.741 41.9037 8.47293 40.9055C2.90659 38.4537 -0.403663 33.5942 0.039568 28.5309C0.438875 23.9788 2.61909 20.8243 6.36858 19.3309C6.01719 17.6259 6.01719 15.4536 6.01719 15.4217C6.29271 11.5285 8.84029 7.71108 12.3662 5.91819C14.8658 4.6444 17.5053 4.53659 19.9251 5.57479C20.2924 5.09562 20.8155 4.48468 21.5582 3.69006L21.5862 3.65811C25.0881 -0.107351 30.902 -0.342944 35.4022 3.09509C35.7536 3.36262 36.8437 4.56454 36.8517 4.57652C37.1951 4.95187 37.4626 5.25933 37.6702 5.52288C43.4842 5.53885 46.3472 6.84857 49.6095 10.8377C54.0698 16.2922 52.9278 23.7992 51.6819 28.9702C51.5102 29.6889 51.3186 30.4077 51.1269 31.1264C50.7036 32.7277 50.2644 34.3848 50.0408 35.994C49.4857 39.9751 47.7727 43.5369 45.2211 46.0206C43.4203 47.7696 41.256 48.7319 39.0519 49.5026L39.0558 49.5065ZM9.55505 38.4457C12.3222 39.6636 14.3348 41.3727 15.7084 43.6687C18.5514 48.4204 22.4527 50.405 27.9871 49.9098C30.1273 49.7182 32.0879 49.0354 34.1683 48.3126C34.8152 48.089 35.4661 47.8614 36.1289 47.6458L36.3286 47.5819C38.98 46.7274 41.4876 45.9168 43.3484 44.1039C45.4727 42.0355 46.9062 39.0287 47.3814 35.6346C47.629 33.8657 48.0882 32.1287 48.5314 30.4516C48.7151 29.7488 48.9028 29.05 49.0705 28.3513C50.1805 23.7393 51.2307 17.0788 47.5291 12.5507C44.8578 9.28036 42.8533 8.13834 36.9315 8.22619C36.3366 8.23417 35.8095 7.85084 35.6298 7.29181C35.2505 6.78868 34.0485 5.50291 33.7411 5.2234C30.8461 3.02321 26.4258 2.41627 23.5547 5.49892L23.5188 5.53485C22.5565 6.56507 22.0574 7.19598 21.8497 7.49945C21.8337 7.71508 21.7698 7.9307 21.6421 8.13035C21.2468 8.75726 20.4202 8.94494 19.7933 8.54962C17.3296 7.00431 15.0575 7.57532 13.5801 8.32601C10.9207 9.67567 8.92015 12.6585 8.70053 15.5854C8.70453 16.1444 8.90019 18.4604 9.09585 19.275C9.2356 19.4307 9.34342 19.6184 9.39932 19.834C9.59099 20.5528 9.16373 21.2875 8.44498 21.4792C4.93507 22.4136 3.06232 24.8014 2.71093 28.7745C2.29565 33.5103 6.13299 36.9483 9.54707 38.4497L9.55505 38.4457Z" fill="white"/>
</svg>
