<svg width="46" height="47" viewBox="0 0 46 47" fill="none" xmlns="http://www.w3.org/2000/svg">
<path d="M17.2507 26.9264C12.7657 26.9264 3.83398 29.2177 3.83398 33.7806V37.2077H30.6673V33.7806C30.6673 29.2177 21.7357 26.9264 17.2507 26.9264ZM8.31898 33.291C9.92898 32.1552 13.8198 30.8431 17.2507 30.8431C20.6815 30.8431 24.5723 32.1552 26.1823 33.291H8.31898ZM17.2507 23.4994C20.9498 23.4994 23.959 20.4248 23.959 16.6452C23.959 12.8656 20.9498 9.79102 17.2507 9.79102C13.5515 9.79102 10.5423 12.8656 10.5423 16.6452C10.5423 20.4248 13.5515 23.4994 17.2507 23.4994ZM17.2507 13.7077C18.8415 13.7077 20.1257 15.0198 20.1257 16.6452C20.1257 18.2706 18.8415 19.5827 17.2507 19.5827C15.6598 19.5827 14.3757 18.2706 14.3757 16.6452C14.3757 15.0198 15.6598 13.7077 17.2507 13.7077ZM30.744 27.0439C32.9673 28.6889 34.5007 30.8823 34.5007 33.7806V37.2077H42.1673V33.7806C42.1673 29.8248 35.459 27.5727 30.744 27.0439ZM28.7507 23.4994C32.4498 23.4994 35.459 20.4248 35.459 16.6452C35.459 12.8656 32.4498 9.79102 28.7507 9.79102C27.7157 9.79102 26.7573 10.0456 25.8757 10.4764C27.0832 12.2193 27.7923 14.3539 27.7923 16.6452C27.7923 18.9364 27.0832 21.071 25.8757 22.8139C26.7573 23.2448 27.7157 23.4994 28.7507 23.4994Z" fill="#212529"/>
</svg>
