<svg width="46" height="46" viewBox="0 0 46 46" fill="none" xmlns="http://www.w3.org/2000/svg">
<path d="M43.125 9.34375H2.875C2.30313 9.34375 1.75468 9.57093 1.3503 9.9753C0.945926 10.3797 0.71875 10.9281 0.71875 11.5V34.5C0.71875 35.0719 0.945926 35.6203 1.3503 36.0247C1.75468 36.4291 2.30313 36.6562 2.875 36.6562H43.125C43.6969 36.6562 44.2453 36.4291 44.6497 36.0247C45.0541 35.6203 45.2812 35.0719 45.2812 34.5V11.5C45.2812 10.9281 45.0541 10.3797 44.6497 9.9753C44.2453 9.57093 43.6969 9.34375 43.125 9.34375ZM32.5612 32.3438H13.4388C13.0122 30.2741 11.9885 28.3749 10.4943 26.8807C9.0001 25.3865 7.10085 24.3628 5.03125 23.9362V22.0638C7.10085 21.6372 9.0001 20.6135 10.4943 19.1193C11.9885 17.6251 13.0122 15.7259 13.4388 13.6562H32.5612C32.9878 15.7259 34.0115 17.6251 35.5057 19.1193C36.9999 20.6135 38.8991 21.6372 40.9688 22.0638V23.9362C38.8991 24.3628 36.9999 25.3865 35.5057 26.8807C34.0115 28.3749 32.9878 30.2741 32.5612 32.3438ZM40.9688 17.5986C40.0607 17.2744 39.236 16.7526 38.5542 16.0708C37.8724 15.389 37.3506 14.5643 37.0264 13.6562H40.9688V17.5986ZM8.97359 13.6562C8.64942 14.5643 8.12759 15.389 7.44581 16.0708C6.76403 16.7526 5.93931 17.2744 5.03125 17.5986V13.6562H8.97359ZM5.03125 28.4014C5.93931 28.7256 6.76403 29.2474 7.44581 29.9292C8.12759 30.611 8.64942 31.4357 8.97359 32.3438H5.03125V28.4014ZM37.0264 32.3438C37.3506 31.4357 37.8724 30.611 38.5542 29.9292C39.236 29.2474 40.0607 28.7256 40.9688 28.4014V32.3438H37.0264ZM23 15.8125C21.5784 15.8125 20.1888 16.234 19.0068 17.0238C17.8249 17.8136 16.9036 18.9361 16.3596 20.2495C15.8156 21.5628 15.6733 23.008 15.9506 24.4022C16.2279 25.7965 16.9125 27.0771 17.9177 28.0823C18.9229 29.0875 20.2036 29.7721 21.5978 30.0494C22.992 30.3267 24.4372 30.1844 25.7505 29.6404C27.0639 29.0964 28.1864 28.1751 28.9762 26.9932C29.766 25.8112 30.1875 24.4216 30.1875 23C30.1875 21.0938 29.4302 19.2656 28.0823 17.9177C26.7344 16.5698 24.9062 15.8125 23 15.8125ZM23 25.875C22.4314 25.875 21.8755 25.7064 21.4027 25.3905C20.9299 25.0746 20.5614 24.6256 20.3438 24.1002C20.1262 23.5749 20.0693 22.9968 20.1802 22.4391C20.2912 21.8814 20.565 21.3691 20.9671 20.9671C21.3691 20.565 21.8814 20.2912 22.4391 20.1802C22.9968 20.0693 23.5749 20.1262 24.1002 20.3438C24.6256 20.5614 25.0746 20.9299 25.3905 21.4027C25.7064 21.8755 25.875 22.4314 25.875 23C25.875 23.7625 25.5721 24.4938 25.0329 25.0329C24.4938 25.5721 23.7625 25.875 23 25.875Z" fill="#212529"/>
</svg>
