<svg width="176" height="30" viewBox="0 0 176 30" fill="none" xmlns="http://www.w3.org/2000/svg">
<path d="M89.996 11.2686H83.1711C82.946 11.2686 82.7637 11.0917 82.7637 10.8666V6.96895C82.7637 6.74378 82.946 6.56152 83.1711 6.56152H86.5809L87.2349 6.57222H101.142C101.367 6.57222 101.549 6.75451 101.549 6.97968V10.8773C101.549 11.1025 101.367 11.2847 101.142 11.2847H97.3033L94.6977 11.2633V23.4761L90.0013 25.5777V11.2686H89.996Z" fill="white"/>
<path d="M66.3355 25.6852C64.6253 25.6852 63.2528 25.1491 62.143 24.0393C61.6176 23.5139 61.2155 22.8974 60.9421 22.2112C60.6687 21.5142 60.5293 20.7207 60.5293 19.8522V12.3197C60.5293 11.4459 60.6687 10.647 60.9421 9.93937C61.2155 9.24242 61.6176 8.62052 62.143 8.10048C63.2474 6.99608 64.6199 6.45459 66.3355 6.45459H73.498C74.3076 6.45459 75.0742 6.6315 75.7766 6.97998C76.495 7.33918 77.1329 7.82168 77.669 8.41141C78.1944 9.01186 78.6126 9.72493 78.9021 10.5184C79.1917 11.3226 79.3364 12.1696 79.3364 13.0489V16.9089C79.3364 17.0751 79.2882 17.1448 79.2399 17.1984C79.1863 17.2467 79.1219 17.2949 78.9825 17.2949L65.5581 17.2628V19.5413C65.5581 20.0077 65.6546 20.4098 65.8476 20.7315C66.0299 21.0424 66.2604 21.289 66.5231 21.466C66.7644 21.6268 67.0217 21.7447 67.2844 21.8144C67.5417 21.8787 67.7508 21.9109 67.9277 21.9109H72.458C72.7957 21.9109 73.1335 21.868 73.4551 21.7822C73.7232 21.7126 74.3398 21.4338 74.3398 20.4312V20.3723C74.3398 20.2436 74.3773 20.1739 74.4363 20.1149C74.506 20.0452 74.581 20.0184 74.6936 20.0184H78.9772C79.0898 20.0184 79.1648 20.0452 79.2345 20.1203C79.3042 20.1953 79.331 20.265 79.331 20.3776V20.7743C79.331 21.6321 79.1916 22.372 78.9182 22.9617C78.6448 23.5568 78.2588 24.0447 77.7441 24.4522C77.2241 24.865 76.5968 25.1759 75.8892 25.3743C75.1547 25.5833 74.3505 25.6852 73.498 25.6852H66.3355ZM67.9277 10.2557C67.1986 10.2557 66.5875 10.5452 66.1586 11.0867C65.7618 11.5906 65.5581 12.2822 65.5581 13.1454V13.7994H74.3398V13.1454C74.3398 12.2822 74.136 11.5906 73.7393 11.0867C73.3104 10.5452 72.6992 10.2557 71.9701 10.2557H67.9277Z" fill="white"/>
<path d="M144.244 25.9374C144.11 25.9374 144.003 25.8999 143.901 25.8195C143.724 25.6855 143.521 25.471 143.295 25.1922L140.749 22.131H137.704V25.4764C137.704 25.6426 137.65 25.6908 137.623 25.7176C137.575 25.7659 137.511 25.8088 137.377 25.8088H133.297C133.168 25.8088 133.115 25.7712 133.077 25.7337C133.056 25.6908 133.002 25.4925 133.002 24.6775V9.055C133.002 8.65827 133.27 7.84336 133.849 7.34477C134.449 6.8301 135.173 6.57812 136.074 6.57812H143.253C144.545 6.57812 145.746 6.70143 146.812 6.94805C147.836 7.18394 148.742 7.59677 149.498 8.17042C150.244 8.73871 150.828 9.47316 151.235 10.3524C151.648 11.2424 151.857 12.3682 151.857 13.6978V15.1882C151.857 17.3756 151.466 18.2923 150.581 19.5093C149.734 20.6781 148.549 21.434 146.968 21.82L145.96 22.0613L149.096 25.9321H144.255L144.244 25.9374ZM137.698 18.4693H142.641C143.655 18.4693 144.427 18.3728 144.995 18.1798C145.601 17.976 146.067 17.6812 146.384 17.3166C146.716 16.8663 146.845 16.4052 146.93 16.0139L146.941 15.9549C146.995 15.6922 146.995 15.6922 147 15.6278L147.016 15.4992V14.0248C147.016 13.3869 146.941 12.8239 146.791 12.3522C146.614 11.7892 146.271 11.355 145.778 11.0494C145.365 10.776 144.807 10.5722 144.132 10.4543C143.51 10.347 142.716 10.2988 141.773 10.2988H137.693V18.4639L137.698 18.4693Z" fill="white"/>
<path d="M39.7875 25.5024L39.766 21.6959V13.2199L43.8298 11.4024V17.6375L44.4999 17.6482H47.9204C49.2607 17.6482 50.5152 17.1175 51.4481 16.1471C52.3809 15.1821 52.8688 13.9061 52.8205 12.5658C52.7294 9.96024 50.4777 7.84256 47.8078 7.84256H36.5332V3.7627H47.9204C52.8688 3.7627 56.895 7.79432 56.895 12.7427C56.895 17.6911 52.8688 21.7174 47.9204 21.7174H43.8405V25.4809L43.8191 25.5024H39.7928H39.7875Z" fill="white"/>
<path d="M111.707 25.5024L111.686 21.6852V13.2199L115.75 11.4024V17.6375L116.42 17.6482H119.84C121.181 17.6482 122.435 17.1175 123.368 16.1471C124.301 15.1821 124.789 13.9114 124.74 12.5658C124.649 9.96024 122.398 7.84256 119.728 7.84256H108.453V3.7627H119.84C124.789 3.7627 128.815 7.79432 128.815 12.7427C128.815 17.6911 124.789 21.7174 119.84 21.7174H115.76V25.4809L115.739 25.5024H111.713H111.707Z" fill="white"/>
<path d="M162.934 25.8617C158.94 25.8617 155.691 22.7039 155.691 18.8224V13.4826C155.691 9.60111 158.94 6.44336 162.934 6.44336H168.414C172.408 6.44336 175.657 9.60111 175.657 13.4826V18.8224C175.657 22.7039 172.408 25.8617 168.414 25.8617H162.934ZM164.382 10.609C161.964 10.609 160.002 12.5283 160.002 14.8926V17.4124C160.002 19.7767 161.969 21.696 164.382 21.696H166.966C169.384 21.696 171.346 19.7767 171.346 17.4124V14.8926C171.346 12.5283 169.379 10.609 166.966 10.609H164.382Z" fill="white"/>
<path d="M17.0656 14.2982C16.0577 14.0516 14.9855 14.4966 14.3796 15.3383C12.8839 17.4077 11.4203 21.3375 12.4121 23.9108C12.723 24.715 13.672 25.3369 14.637 25.4763C15.1785 25.5513 15.8486 25.353 16.3687 25.1814C17.0924 24.9402 17.6607 24.5434 17.9073 24.2593C18.1539 23.9751 18.4327 23.498 18.7061 23.4015C18.9849 23.3157 19.4889 23.5194 19.8588 23.5945C20.2287 23.6696 20.9203 23.6374 21.6387 23.3908C22.1588 23.2139 22.8128 22.9619 23.1935 22.5705C23.8743 21.8736 24.2282 20.8067 24.003 19.9757C23.3168 17.4291 19.8749 14.9951 17.0656 14.3089V14.2982Z" fill="white"/>
<path d="M5.04137 15.8317C4.35514 16.9307 5.16468 18.2657 5.97959 19.0216C6.83738 19.8258 7.63082 20.2439 8.81565 20.0831C9.87181 19.9383 10.5205 19.161 10.1506 18.0512C9.84503 17.1345 8.82638 16.223 8.049 15.6708C7.25018 15.1026 5.85092 14.8077 5.04137 15.8263V15.8317Z" fill="white"/>
<path d="M25.1025 9.18401C26.3034 9.66115 26.4481 11.2106 26.2498 12.3096C26.0353 13.4623 25.6493 14.2771 24.5985 14.8454C23.6603 15.3547 22.6792 15.1189 22.3146 14.0091C22.0144 13.0923 22.2932 11.752 22.5881 10.846C22.8937 9.91315 23.8372 8.84625 25.1025 9.18401Z" fill="white"/>
<path d="M8.57967 8.24533C7.39484 9.33365 8.11324 11.0868 8.61183 12.0143C9.21765 13.1401 10.2202 14.4322 11.6356 14.4C14.4448 14.341 12.874 9.77327 11.775 8.58308C11.4211 8.19708 10.9011 7.80571 10.3864 7.71457C9.74841 7.59663 9.55541 7.64488 8.57967 8.25069V8.24533Z" fill="white"/>
<path d="M16.2686 5.3933C14.7996 6.14923 14.864 7.47345 15.1964 8.81375C15.4591 9.86455 15.8933 11.3496 16.8744 11.9393C17.9735 12.5988 19.3406 11.9018 19.7588 10.7492C20.1877 9.5697 20.075 8.07927 19.6086 6.93733C19.1958 5.92942 18.0432 4.74459 16.2632 5.3933H16.2686Z" fill="white"/>
<path d="M22.5241 28.1725C22.1595 28.3012 21.7896 28.4192 21.4304 28.5371L21.3178 28.5746C20.9479 28.6926 20.5833 28.8212 20.2188 28.9499C18.9857 29.3788 17.7043 29.8238 16.2836 29.9525C12.5361 30.2902 9.65719 28.8266 7.72716 25.6045C7.0999 24.5537 6.19386 23.7924 4.88573 23.2134C1.67437 21.7981 -0.234222 18.9942 0.0231153 16.0723C0.253647 13.4453 1.51353 11.6279 3.67409 10.7647C3.47037 9.77824 3.47036 8.52911 3.47036 8.50766C3.62584 6.26132 5.10018 4.05785 7.13207 3.0285C8.57424 2.29401 10.0968 2.22968 11.4907 2.83013C11.6998 2.55135 12.0054 2.20286 12.4343 1.74179L12.4504 1.72573C14.4715 -0.44556 17.8223 -0.584938 20.4225 1.40407C20.6262 1.55954 21.2535 2.25112 21.2588 2.25648C21.4572 2.47629 21.6127 2.65322 21.7306 2.80333C25.0814 2.81406 26.738 3.56997 28.6197 5.86993C31.1931 9.01695 30.5337 13.3488 29.8153 16.3296C29.7135 16.7424 29.6062 17.1606 29.4936 17.5734C29.247 18.4956 28.995 19.4552 28.8664 20.3827C28.5447 22.6773 27.5582 24.736 26.0839 26.1674C25.0438 27.1753 23.7947 27.7329 22.5241 28.1779V28.1725ZM5.50225 21.7927C7.09989 22.495 8.2579 23.4815 9.05136 24.8057C10.6919 27.5506 12.9436 28.6926 16.1335 28.4084C17.3666 28.2959 18.5032 27.9045 19.6987 27.4863C20.074 27.3576 20.4493 27.2236 20.8299 27.1003L20.9479 27.0628C22.4758 26.5695 23.9233 26.1031 25.0009 25.0577C26.2287 23.8621 27.0543 22.1304 27.3277 20.1736C27.4725 19.155 27.7352 18.1525 27.9925 17.1821C28.0997 16.7746 28.207 16.3725 28.3035 15.9704C28.9468 13.3113 29.5526 9.46731 27.4135 6.8564C25.8695 4.96926 24.7168 4.30982 21.3017 4.36343C20.9586 4.36343 20.653 4.14898 20.5511 3.82731C20.3313 3.5378 19.6398 2.79797 19.4628 2.63177C17.7901 1.36117 15.2436 1.01268 13.5869 2.7926L13.5655 2.81403C13.008 3.40913 12.7238 3.77371 12.6058 3.94527C12.5951 4.06858 12.5576 4.19725 12.4879 4.30983C12.2574 4.66903 11.7802 4.78162 11.421 4.55109C10.0003 3.66113 8.68682 3.98814 7.83439 4.42239C6.30109 5.19977 5.14307 6.92071 5.01976 8.60949C5.01976 8.93116 5.13234 10.2715 5.25029 10.7379C5.3307 10.829 5.39502 10.9363 5.42718 11.0596C5.53977 11.4724 5.29318 11.8959 4.88036 12.0085C2.85383 12.5446 1.77624 13.9224 1.57251 16.217C1.33126 18.9513 3.54542 20.9349 5.51835 21.7981L5.50225 21.7927Z" fill="white"/>
</svg>
