<svg width="167" height="122" viewBox="0 0 167 122" fill="none" xmlns="http://www.w3.org/2000/svg">
<path d="M70.2054 6.41965C62.9862 13.6459 62.9862 25.3541 70.2054 32.5733C70.4939 32.8618 83.2857 45.6536 83.2857 45.6536C83.2857 45.6536 96.0776 32.8618 96.3661 32.5733C103.585 25.3541 103.585 13.6388 96.3661 6.41965C89.1399 -0.806551 77.4316 -0.806551 70.2054 6.41965Z" fill="#C5E7F7" stroke="#002C8E" stroke-width="1.5" stroke-linecap="round" stroke-linejoin="round"/>
<path d="M89.4984 19.0355C89.4984 22.4691 86.7121 25.2484 83.2784 25.2484C79.8447 25.2484 77.0654 22.4621 77.0654 19.0355C77.0654 15.6088 79.8447 12.8154 83.2784 12.8154C86.7121 12.8154 89.4984 15.6018 89.4984 19.0355Z" fill="#FFBDBD" stroke="#002C8E" stroke-width="1.5"/>
<path d="M118.202 81.0576H98.4634V121H118.202V81.0576Z" fill="#FFF9AE" stroke="#002C8E" stroke-width="1.5" stroke-linecap="round" stroke-linejoin="round"/>
<path d="M112.087 87.6279H106.92V92.795H112.087V87.6279Z" fill="#FFF9AE" stroke="#002C8E" stroke-width="1.5" stroke-linecap="round" stroke-linejoin="round"/>
<path d="M112.087 97.7344H106.92V102.901H112.087V97.7344Z" fill="#FFF9AE" stroke="#002C8E" stroke-width="1.5" stroke-linecap="round" stroke-linejoin="round"/>
<path d="M67.2148 67.4248H47.4761V121H67.2148V67.4248Z" fill="#FFF9AE" stroke="#002C8E" stroke-width="1.5" stroke-linecap="round" stroke-linejoin="round"/>
<path d="M61.1002 74.0039H55.9331V79.171H61.1002V74.0039Z" fill="#FFF9AE" stroke="#002C8E" stroke-width="1.5" stroke-linecap="round" stroke-linejoin="round"/>
<path d="M61.1002 84.1104H55.9331V89.2774H61.1002V84.1104Z" fill="#FFF9AE" stroke="#002C8E" stroke-width="1.5" stroke-linecap="round" stroke-linejoin="round"/>
<path d="M99.9944 55.6777H66.1943V121H75.2435V97.2056H90.4349V121H99.9944V55.6777Z" fill="#88C9FF" stroke="#002C8E" stroke-width="1.5"/>
<path d="M90.4345 97.2051H75.2432V120.999H90.4345V97.2051Z" fill="white" stroke="#002C8E" stroke-width="1.5"/>
<path d="M93.3421 62.1299H88.7856V66.6864H93.3421V62.1299Z" fill="#FFF9AE" stroke="#002C8E" stroke-width="1.5" stroke-linecap="round" stroke-linejoin="round"/>
<path d="M93.3421 70.1035H88.7856V74.66H93.3421V70.1035Z" fill="#FFF9AE" stroke="#002C8E" stroke-width="1.5" stroke-linecap="round" stroke-linejoin="round"/>
<path d="M93.3421 78.0859H88.7856V82.6424H93.3421V78.0859Z" fill="#FFF9AE" stroke="#002C8E" stroke-width="1.5" stroke-linecap="round" stroke-linejoin="round"/>
<path d="M85.368 62.1299H80.8115V66.6864H85.368V62.1299Z" fill="#FFF9AE" stroke="#002C8E" stroke-width="1.5" stroke-linecap="round" stroke-linejoin="round"/>
<path d="M85.368 70.1035H80.8115V74.66H85.368V70.1035Z" fill="#FFF9AE" stroke="#002C8E" stroke-width="1.5" stroke-linecap="round" stroke-linejoin="round"/>
<path d="M85.368 78.0859H80.8115V82.6424H85.368V78.0859Z" fill="#FFF9AE" stroke="#002C8E" stroke-width="1.5" stroke-linecap="round" stroke-linejoin="round"/>
<path d="M77.3944 62.1299H72.8379V66.6864H77.3944V62.1299Z" fill="#FFF9AE" stroke="#002C8E" stroke-width="1.5" stroke-linecap="round" stroke-linejoin="round"/>
<path d="M77.3944 70.1035H72.8379V74.66H77.3944V70.1035Z" fill="#FFF9AE" stroke="#002C8E" stroke-width="1.5" stroke-linecap="round" stroke-linejoin="round"/>
<path d="M77.3944 78.0859H72.8379V82.6424H77.3944V78.0859Z" fill="#FFF9AE" stroke="#002C8E" stroke-width="1.5" stroke-linecap="round" stroke-linejoin="round"/>
<path d="M82.8345 102.673V110.565" stroke="#002C8E" stroke-width="1.5"/>
<path d="M136.695 52.5371C132.381 56.8548 132.381 63.8507 136.695 68.1642C136.867 68.3365 144.51 75.9798 144.51 75.9798C144.51 75.9798 152.153 68.3365 152.326 68.1642C156.639 63.8507 156.639 56.8506 152.326 52.5371C148.008 48.2194 141.012 48.2194 136.695 52.5371Z" fill="#C5E7F7" stroke="#002C8E" stroke-width="1.3" stroke-linecap="round" stroke-linejoin="round"/>
<path d="M148.222 60.0749C148.222 62.1266 146.557 63.7872 144.506 63.7872C142.454 63.7872 140.793 62.1224 140.793 60.0749C140.793 58.0275 142.454 56.3584 144.506 56.3584C146.557 56.3584 148.222 58.0233 148.222 60.0749Z" fill="#FFBDBD" stroke="#002C8E" stroke-width="1.3"/>
<path d="M165.373 97.1338H153.579V121H165.373V97.1338Z" fill="#FFF9AE" stroke="#002C8E" stroke-width="1.3" stroke-linecap="round" stroke-linejoin="round"/>
<path d="M161.72 101.061H158.632V104.148H161.72V101.061Z" fill="#FFF9AE" stroke="#002C8E" stroke-width="1.3" stroke-linecap="round" stroke-linejoin="round"/>
<path d="M161.72 107.099H158.632V110.186H161.72V107.099Z" fill="#FFF9AE" stroke="#002C8E" stroke-width="1.3" stroke-linecap="round" stroke-linejoin="round"/>
<path d="M134.908 88.9883H123.114V121H134.908V88.9883Z" fill="#FFF9AE" stroke="#002C8E" stroke-width="1.3" stroke-linecap="round" stroke-linejoin="round"/>
<path d="M131.254 92.9199H128.167V96.0073H131.254V92.9199Z" fill="#FFF9AE" stroke="#002C8E" stroke-width="1.3" stroke-linecap="round" stroke-linejoin="round"/>
<path d="M131.254 98.958H128.167V102.045H131.254V98.958Z" fill="#FFF9AE" stroke="#002C8E" stroke-width="1.3" stroke-linecap="round" stroke-linejoin="round"/>
<path d="M154.494 81.9697H134.298V121H139.705V106.783H148.782V121H154.494V81.9697Z" fill="#88C9FF" stroke="#002C8E" stroke-width="1.3"/>
<path d="M148.782 106.783H139.705V121H148.782V106.783Z" fill="white" stroke="#002C8E" stroke-width="1.3"/>
<path d="M150.519 85.8252H147.797V88.5477H150.519V85.8252Z" fill="#FFF9AE" stroke="#002C8E" stroke-width="1.3" stroke-linecap="round" stroke-linejoin="round"/>
<path d="M150.519 90.5898H147.797V93.3124H150.519V90.5898Z" fill="#FFF9AE" stroke="#002C8E" stroke-width="1.3" stroke-linecap="round" stroke-linejoin="round"/>
<path d="M150.519 95.3594H147.797V98.0819H150.519V95.3594Z" fill="#FFF9AE" stroke="#002C8E" stroke-width="1.3" stroke-linecap="round" stroke-linejoin="round"/>
<path d="M145.755 85.8252H143.032V88.5477H145.755V85.8252Z" fill="#FFF9AE" stroke="#002C8E" stroke-width="1.3" stroke-linecap="round" stroke-linejoin="round"/>
<path d="M145.755 90.5898H143.032V93.3124H145.755V90.5898Z" fill="#FFF9AE" stroke="#002C8E" stroke-width="1.3" stroke-linecap="round" stroke-linejoin="round"/>
<path d="M145.755 95.3594H143.032V98.0819H145.755V95.3594Z" fill="#FFF9AE" stroke="#002C8E" stroke-width="1.3" stroke-linecap="round" stroke-linejoin="round"/>
<path d="M140.991 85.8252H138.268V88.5477H140.991V85.8252Z" fill="#FFF9AE" stroke="#002C8E" stroke-width="1.3" stroke-linecap="round" stroke-linejoin="round"/>
<path d="M140.991 90.5898H138.268V93.3124H140.991V90.5898Z" fill="#FFF9AE" stroke="#002C8E" stroke-width="1.3" stroke-linecap="round" stroke-linejoin="round"/>
<path d="M140.991 95.3594H138.268V98.0819H140.991V95.3594Z" fill="#FFF9AE" stroke="#002C8E" stroke-width="1.3" stroke-linecap="round" stroke-linejoin="round"/>
<path d="M144.241 110.05V114.765" stroke="#002C8E" stroke-width="1.3"/>
<path d="M14.5808 52.5371C10.2673 56.8548 10.2673 63.8507 14.5808 68.1642C14.7532 68.3365 22.3965 75.9798 22.3965 75.9798C22.3965 75.9798 30.0397 68.3365 30.2121 68.1642C34.5256 63.8507 34.5256 56.8506 30.2121 52.5371C25.8944 48.2194 18.8986 48.2194 14.5808 52.5371Z" fill="#C5E7F7" stroke="#002C8E" stroke-width="1.3" stroke-linecap="round" stroke-linejoin="round"/>
<path d="M26.1085 60.0749C26.1085 62.1266 24.4437 63.7872 22.392 63.7872C20.3404 63.7872 18.6797 62.1224 18.6797 60.0749C18.6797 58.0275 20.3404 56.3584 22.392 56.3584C24.4437 56.3584 26.1085 58.0233 26.1085 60.0749Z" fill="#FFBDBD" stroke="#002C8E" stroke-width="1.3"/>
<path d="M43.2594 97.1338H31.4653V121H43.2594V97.1338Z" fill="#FFF9AE" stroke="#002C8E" stroke-width="1.3" stroke-linecap="round" stroke-linejoin="round"/>
<path d="M39.6059 101.061H36.5186V104.148H39.6059V101.061Z" fill="#FFF9AE" stroke="#002C8E" stroke-width="1.3" stroke-linecap="round" stroke-linejoin="round"/>
<path d="M39.6059 107.099H36.5186V110.186H39.6059V107.099Z" fill="#FFF9AE" stroke="#002C8E" stroke-width="1.3" stroke-linecap="round" stroke-linejoin="round"/>
<path d="M12.7941 88.9883H1V121H12.7941V88.9883Z" fill="#FFF9AE" stroke="#002C8E" stroke-width="1.3" stroke-linecap="round" stroke-linejoin="round"/>
<path d="M9.14059 92.9199H6.05322V96.0073H9.14059V92.9199Z" fill="#FFF9AE" stroke="#002C8E" stroke-width="1.3" stroke-linecap="round" stroke-linejoin="round"/>
<path d="M9.14059 98.958H6.05322V102.045H9.14059V98.958Z" fill="#FFF9AE" stroke="#002C8E" stroke-width="1.3" stroke-linecap="round" stroke-linejoin="round"/>
<path d="M32.3799 81.9697H12.1841V121H17.5911V106.783H26.668V121H32.3799V81.9697Z" fill="#88C9FF" stroke="#002C8E" stroke-width="1.3"/>
<path d="M26.6683 106.783H17.5913V121H26.6683V106.783Z" fill="white" stroke="#002C8E" stroke-width="1.3"/>
<path d="M28.4057 85.8252H25.6831V88.5477H28.4057V85.8252Z" fill="#FFF9AE" stroke="#002C8E" stroke-width="1.3" stroke-linecap="round" stroke-linejoin="round"/>
<path d="M28.4057 90.5898H25.6831V93.3124H28.4057V90.5898Z" fill="#FFF9AE" stroke="#002C8E" stroke-width="1.3" stroke-linecap="round" stroke-linejoin="round"/>
<path d="M28.4057 95.3594H25.6831V98.0819H28.4057V95.3594Z" fill="#FFF9AE" stroke="#002C8E" stroke-width="1.3" stroke-linecap="round" stroke-linejoin="round"/>
<path d="M23.6405 85.8252H20.918V88.5477H23.6405V85.8252Z" fill="#FFF9AE" stroke="#002C8E" stroke-width="1.3" stroke-linecap="round" stroke-linejoin="round"/>
<path d="M23.6405 90.5898H20.918V93.3124H23.6405V90.5898Z" fill="#FFF9AE" stroke="#002C8E" stroke-width="1.3" stroke-linecap="round" stroke-linejoin="round"/>
<path d="M23.6405 95.3594H20.918V98.0819H23.6405V95.3594Z" fill="#FFF9AE" stroke="#002C8E" stroke-width="1.3" stroke-linecap="round" stroke-linejoin="round"/>
<path d="M18.8764 85.8252H16.1538V88.5477H18.8764V85.8252Z" fill="#FFF9AE" stroke="#002C8E" stroke-width="1.3" stroke-linecap="round" stroke-linejoin="round"/>
<path d="M18.8764 90.5898H16.1538V93.3124H18.8764V90.5898Z" fill="#FFF9AE" stroke="#002C8E" stroke-width="1.3" stroke-linecap="round" stroke-linejoin="round"/>
<path d="M18.8764 95.3594H16.1538V98.0819H18.8764V95.3594Z" fill="#FFF9AE" stroke="#002C8E" stroke-width="1.3" stroke-linecap="round" stroke-linejoin="round"/>
<path d="M22.127 110.05V114.765" stroke="#002C8E" stroke-width="1.3"/>
</svg>
