<svg width="137" height="90" viewBox="0 0 137 90" fill="none" xmlns="http://www.w3.org/2000/svg">
<path d="M54.6099 23.5002L80.805 42.1889V31.167H117.863V15.8334H80.805V4.81152L54.6099 23.5002Z" fill="#FFADAD" stroke="#002C8E" stroke-width="1.5" stroke-linecap="round" stroke-linejoin="round"/>
<path d="M135.606 64.6894C135.606 78.0511 124.772 88.8964 111.425 88.8964C98.0775 88.8964 87.2437 78.0658 87.2437 64.6894C87.2437 51.313 98.0628 40.4824 111.425 40.4824C124.787 40.4824 135.606 51.3277 135.606 64.6894Z" fill="#FFF9AE" stroke="#002C8E" stroke-width="1.5" stroke-linecap="round" stroke-linejoin="round"/>
<path d="M115.32 64.689H107.529C105.971 64.689 104.692 63.4235 104.692 61.8489V57.1252C104.692 55.5654 105.957 54.2852 107.529 54.2852H115.32C116.879 54.2852 118.157 55.5507 118.157 57.1252" stroke="#002C8E" stroke-width="1.5"/>
<path d="M107.529 64.6895H115.32C116.879 64.6895 118.157 65.955 118.157 67.5295V72.2532C118.157 73.8131 116.893 75.0933 115.32 75.0933H107.529C105.971 75.0933 104.692 73.8278 104.692 72.2532" stroke="#002C8E" stroke-width="1.5"/>
<path d="M111.425 54.4174V48.9727" stroke="#002C8E" stroke-width="1.5"/>
<path d="M111.425 80.4056V74.9756" stroke="#002C8E" stroke-width="1.5"/>
<path d="M103.531 49.1494L68.1047 23.8682V38.775H17.9487V59.5238H68.1047V74.4453L103.531 49.1494Z" fill="#88C9FF" stroke="#002C8E" stroke-width="1.5"/>
<path d="M49.4651 25.3105C49.4651 38.6722 38.646 49.5175 25.2838 49.5175C11.9216 49.5175 1.10254 38.6869 1.10254 25.3105C1.10254 11.9341 11.9363 1.10352 25.2838 1.10352C38.6313 1.10352 49.4651 11.9488 49.4651 25.3105Z" fill="#FFF9AE" stroke="#002C8E" stroke-width="1.5" stroke-linecap="round" stroke-linejoin="round"/>
<path d="M29.1793 25.3101H21.3883C19.8302 25.3101 18.5513 24.0446 18.5513 22.47V17.7463C18.5513 16.1865 19.8155 14.9062 21.3883 14.9062H29.1793C30.7375 14.9062 32.0164 16.1718 32.0164 17.7463" stroke="#002C8E" stroke-width="1.5"/>
<path d="M21.3883 25.3105H29.1793C30.7375 25.3105 32.0164 26.5761 32.0164 28.1506V32.8743C32.0164 34.4342 30.7522 35.7144 29.1793 35.7144H21.3883C19.8302 35.7144 18.5513 34.4489 18.5513 32.8743" stroke="#002C8E" stroke-width="1.5"/>
<path d="M25.2837 15.0385V9.59375" stroke="#002C8E" stroke-width="1.5"/>
<path d="M25.2837 41.0267V35.5967" stroke="#002C8E" stroke-width="1.5"/>
</svg>
