<svg width="127" height="112" viewBox="0 0 127 112" fill="none" xmlns="http://www.w3.org/2000/svg">
<path d="M10.9004 89.1484L1 111H40.3859L44.0253 89.1484H10.9004Z" fill="#C5E7F7" stroke="#002C8E" stroke-width="1.5" stroke-linecap="round" stroke-linejoin="round"/>
<path d="M115.641 89.1484H82.5161L86.1401 111H125.541L115.641 89.1484Z" fill="#C5E7F7" stroke="#002C8E" stroke-width="1.5" stroke-linecap="round" stroke-linejoin="round"/>
<path d="M44.7346 89.1484L41.0952 111H86.8501L83.2261 89.1484H44.7346Z" fill="#C5E7F7" stroke="#002C8E" stroke-width="1.5" stroke-linecap="round" stroke-linejoin="round"/>
<path d="M47.5259 68.0977H20.4307L10.9004 89.1477H44.0252L47.5259 68.0977Z" fill="#C5E7F7" stroke="#002C8E" stroke-width="1.5" stroke-linecap="round" stroke-linejoin="round"/>
<path d="M82.517 89.1477H115.642L106.112 68.0977H79.001L82.517 89.1477Z" fill="#C5E7F7" stroke="#002C8E" stroke-width="1.5" stroke-linecap="round" stroke-linejoin="round"/>
<path d="M47.5255 68.0977L44.0249 89.1477H82.5163L79.0003 68.0977H47.5255Z" fill="#C5E7F7" stroke="#002C8E" stroke-width="1.5" stroke-linecap="round" stroke-linejoin="round"/>
<path d="M50.4867 50.332H28.4806L20.4307 68.0973H47.5258L50.4867 50.332Z" fill="#C5E7F7" stroke="#002C8E" stroke-width="1.5" stroke-linecap="round" stroke-linejoin="round"/>
<path d="M106.111 68.0973L98.0613 50.332H76.0552L79.0006 68.0973H106.111Z" fill="#C5E7F7" stroke="#002C8E" stroke-width="1.5" stroke-linecap="round" stroke-linejoin="round"/>
<path d="M79.0002 68.0973L76.0547 50.332H50.4863L47.5254 68.0973H79.0002Z" fill="#C5E7F7" stroke="#002C8E" stroke-width="1.5" stroke-linecap="round" stroke-linejoin="round"/>
<path d="M81.6684 19.3975C81.6684 9.23495 73.4335 1 63.2709 1C53.1083 1 44.8579 9.23495 44.8579 19.3975C44.8579 27.3703 49.9315 34.1557 57.0253 36.7156L63.2709 64.0883L69.5011 36.7156C76.5948 34.1557 81.6684 27.3703 81.6684 19.3975Z" fill="#FFF9AE" stroke="#002C8E" stroke-width="1.5" stroke-linecap="round" stroke-linejoin="round"/>
<path d="M68.7916 17.085L63.2708 22.6058L57.75 17.085" fill="#FFF9AE"/>
<path d="M68.7916 17.085L63.2708 22.6058L57.75 17.085" stroke="#002C8E" stroke-width="1.5" stroke-linecap="round" stroke-linejoin="round"/>
<path d="M114.917 48.6983C114.917 38.5357 106.682 30.3008 96.5194 30.3008C86.3568 30.3008 78.1064 38.5357 78.1064 48.6983C78.1064 56.6711 83.18 63.4565 90.2738 66.0164L96.5194 93.3891L102.75 66.0164C109.843 63.4565 114.917 56.6711 114.917 48.6983Z" fill="#FFF9AE" stroke="#002C8E" stroke-width="1.5" stroke-linecap="round" stroke-linejoin="round"/>
<path d="M102.04 46.3857L96.5189 51.9065L90.998 46.3857" fill="#FFF9AE"/>
<path d="M102.04 46.3857L96.5189 51.9065L90.998 46.3857" stroke="#002C8E" stroke-width="1.5" stroke-linecap="round" stroke-linejoin="round"/>
<path d="M50.1474 48.6983C50.1474 38.5357 41.9125 30.3008 31.7499 30.3008C21.5873 30.3008 13.3369 38.5357 13.3369 48.6983C13.3369 56.6711 18.4105 63.4565 25.5043 66.0164L31.7499 93.3891L37.9801 66.0164C45.0738 63.4565 50.1474 56.6711 50.1474 48.6983Z" fill="#FFF9AE" stroke="#002C8E" stroke-width="1.5" stroke-linecap="round" stroke-linejoin="round"/>
<path d="M37.2706 46.3857L31.7498 51.9065L26.229 46.3857" fill="#FFF9AE"/>
<path d="M37.2706 46.3857L31.7498 51.9065L26.229 46.3857" stroke="#002C8E" stroke-width="1.5" stroke-linecap="round" stroke-linejoin="round"/>
</svg>
