<svg width="79" height="110" viewBox="0 0 79 110" fill="none" xmlns="http://www.w3.org/2000/svg">
<path d="M56.1577 80.5966C56.5694 80.0435 56.8137 77.934 56.8137 76.3519C56.8137 71.2198 59.1933 66.7694 65.5988 57.9972C72.0043 49.2121 74.0109 30.7415 62.6662 17.9434C52.5048 6.48289 41.3273 6.72728 39.115 6.92022C36.8897 6.74014 25.7122 6.48289 15.5637 17.9434C4.21902 30.7544 6.22557 49.2121 12.6311 57.9972C19.0366 66.7822 21.4162 71.2327 21.4162 76.3519C21.4162 77.9469 21.6606 80.0435 22.0722 80.5966" fill="#FFF9AE"/>
<path d="M56.1577 80.5966C56.5693 80.0435 56.8137 77.934 56.8137 76.3519C56.8137 71.2198 59.1933 66.7694 65.5988 57.9972C72.0043 49.2121 74.0109 30.7415 62.6662 17.9434C52.5048 6.48289 41.3273 6.72728 39.115 6.92022C36.8897 6.74014 25.7122 6.48289 15.5637 17.9434C4.21902 30.7544 6.22557 49.2121 12.6311 57.9972C19.0366 66.7822 21.4162 71.2327 21.4162 76.3519C21.4162 77.9469 21.6606 80.0435 22.0722 80.5966" stroke="#002C8E" stroke-width="1.5" stroke-linecap="round" stroke-linejoin="round"/>
<path d="M34.0342 75.9404C34.0342 55.3346 28.5805 48.1188 26.8955 41.083H51.3085C49.6364 48.1188 44.1827 55.3346 44.1827 75.9404" fill="white"/>
<path d="M34.0342 75.9404C34.0342 55.3346 28.5805 48.1188 26.8955 41.083H51.3085C49.6364 48.1188 44.1827 55.3346 44.1827 75.9404" stroke="#002C8E" stroke-width="1.5" stroke-linecap="round" stroke-linejoin="round"/>
<path d="M21.802 80.6865V94.9896C21.802 102.733 28.0789 109.023 35.835 109.023H42.382C50.1381 109.023 56.415 102.746 56.415 94.9896V80.6865H21.802Z" fill="#88C9FF" stroke="#002C8E" stroke-width="1.5"/>
<path d="M22.1362 92.2246H56.0803" stroke="#002C8E" stroke-width="1.5"/>
<path d="M61.6242 77.0726C61.6242 79.2078 59.9006 80.9314 57.7654 80.9314H20.4642C18.329 80.9314 16.6055 79.2078 16.6055 77.0726C16.6055 74.9374 18.329 73.2139 20.4642 73.2139H57.7654C59.9006 73.2139 61.6242 74.9374 61.6242 77.0726Z" fill="#88C9FF" stroke="#002C8E" stroke-width="1.5"/>
<path d="M10.1743 6.75293H68.0555" stroke="#002C8E" stroke-width="1.5" stroke-linecap="round" stroke-linejoin="round"/>
<path d="M11.6533 1.40234H0.9646V12.0911H11.6533V1.40234Z" fill="white" stroke="#002C8E" stroke-width="1.5" stroke-linecap="round" stroke-linejoin="round"/>
<path d="M77.2522 1.40234H66.5635V12.0911H77.2522V1.40234Z" fill="white" stroke="#002C8E" stroke-width="1.5" stroke-linecap="round" stroke-linejoin="round"/>
<path d="M39.1148 12.5411C42.3115 12.5411 44.9029 9.94965 44.9029 6.75296C44.9029 3.55627 42.3115 0.964844 39.1148 0.964844C35.9181 0.964844 33.3267 3.55627 33.3267 6.75296C33.3267 9.94965 35.9181 12.5411 39.1148 12.5411Z" fill="#FFADAD" stroke="#002C8E" stroke-width="1.5" stroke-linecap="round" stroke-linejoin="round"/>
</svg>
